<svg class="main-svg" xmlns="http://www.w3.org/2000/svg" xmlns:xlink="http://www.w3.org/1999/xlink" width="700" height="500" style="" viewBox="0 0 700 500"><rect x="0" y="0" width="700" height="500" style="fill: rgb(255, 255, 255); fill-opacity: 1;"/><defs id="defs-6ec821"><g class="clips"><clipPath id="clip6ec821xyplot" class="plotclip"><rect width="483.24278579760863" height="356.5936679790026"/></clipPath><clipPath class="axesclip" id="clip6ec821x"><rect x="90.29920895304753" y="0" width="483.24278579760863" height="500"/></clipPath><clipPath class="axesclip" id="clip6ec821y"><rect x="0" y="63.83858267716535" width="700" height="356.5936679790026"/></clipPath><clipPath class="axesclip" id="clip6ec821xy"><rect x="90.29920895304753" y="63.83858267716535" width="483.24278579760863" height="356.5936679790026"/></clipPath></g><g class="gradients"/></defs><g class="bglayer"/><g class="layer-below"><g class="imagelayer"/><g class="shapelayer"/></g><g class="cartesianlayer"><g class="subplot xy"><g class="layer-subplot"><g class="shapelayer"/><g class="imagelayer"/></g><g class="gridlayer"><g class="x"><path class="xgrid crisp" transform="translate(103.97920895304753,0)" d="M0,63.83858267716535v356.5936679790026" style="stroke: rgb(0, 0, 0); stroke-opacity: 0.1; stroke-width: 0.5px;"/><path class="xgrid crisp" transform="translate(195.14920895304752,0)" d="M0,63.83858267716535v356.5936679790026" style="stroke: rgb(0, 0, 0); stroke-opacity: 0.1; stroke-width: 0.5px;"/><path class="xgrid crisp" transform="translate(286.32920895304756,0)" d="M0,63.83858267716535v356.5936679790026" style="stroke: rgb(0, 0, 0); stroke-opacity: 0.1; stroke-width: 0.5px;"/><path class="xgrid crisp" transform="translate(377.5092089530475,0)" d="M0,63.83858267716535v356.5936679790026" style="stroke: rgb(0, 0, 0); stroke-opacity: 0.1; stroke-width: 0.5px;"/><path class="xgrid crisp" transform="translate(468.6892089530475,0)" d="M0,63.83858267716535v356.5936679790026" style="stroke: rgb(0, 0, 0); stroke-opacity: 0.1; stroke-width: 0.5px;"/><path class="xgrid crisp" transform="translate(559.8692089530475,0)" d="M0,63.83858267716535v356.5936679790026" style="stroke: rgb(0, 0, 0); stroke-opacity: 0.1; stroke-width: 0.5px;"/></g><g class="y"><path class="ygrid crisp" transform="translate(0,381.63858267716535)" d="M90.29920895304753,0h483.24278579760863" style="stroke: rgb(0, 0, 0); stroke-opacity: 0.1; stroke-width: 0.5px;"/><path class="ygrid crisp" transform="translate(0,334.5485826771653)" d="M90.29920895304753,0h483.24278579760863" style="stroke: rgb(0, 0, 0); stroke-opacity: 0.1; stroke-width: 0.5px;"/><path class="ygrid crisp" transform="translate(0,287.45858267716534)" d="M90.29920895304753,0h483.24278579760863" style="stroke: rgb(0, 0, 0); stroke-opacity: 0.1; stroke-width: 0.5px;"/><path class="ygrid crisp" transform="translate(0,240.37858267716535)" d="M90.29920895304753,0h483.24278579760863" style="stroke: rgb(0, 0, 0); stroke-opacity: 0.1; stroke-width: 0.5px;"/><path class="ygrid crisp" transform="translate(0,193.28858267716532)" d="M90.29920895304753,0h483.24278579760863" style="stroke: rgb(0, 0, 0); stroke-opacity: 0.1; stroke-width: 0.5px;"/><path class="ygrid crisp" transform="translate(0,146.20858267716534)" d="M90.29920895304753,0h483.24278579760863" style="stroke: rgb(0, 0, 0); stroke-opacity: 0.1; stroke-width: 0.5px;"/><path class="ygrid crisp" transform="translate(0,99.11858267716535)" d="M90.29920895304753,0h483.24278579760863" style="stroke: rgb(0, 0, 0); stroke-opacity: 0.1; stroke-width: 0.5px;"/></g></g><g class="zerolinelayer"/><path class="xlines-below"/><path class="ylines-below"/><g class="overlines-below"/><g class="xaxislayer-below"/><g class="yaxislayer-below"/><g class="overaxes-below"/><g class="plot" transform="translate(90.29920895304753,63.83858267716535)" clip-path="url('#clip6ec821xyplot')"><g class="scatterlayer mlayer"><g class="trace scatter tracece3c05" style="stroke-miterlimit: 2; opacity: 1;"><g class="fills"/><g class="errorbars"/><g class="lines"><path class="js-line" d="M13.68,21.35L27.35,51.74L28.27,53.61L41.94,79.72L42.85,81.38L68.38,126.06L69.3,127.57L87.53,156.27L88.44,157.62L105.77,181.63L106.68,182.83L121.27,200.89L122.18,201.98L134.94,216.22L135.86,217.18L151.36,232.7L152.27,233.54L173.24,251.79L174.15,252.5L196.03,268.32L196.94,268.88L210.62,277.47L211.53,277.95L223.39,284.74L224.3,285.15L234.33,290.26L235.24,290.68L248.92,296.91L249.83,297.28L268.97,304.88L269.89,305.2L290.86,312.11L291.77,312.34L306.36,316.37L307.27,316.63L357.42,327.13L358.33,327.29L398.45,334.51L399.36,334.67L450.42,343.24L451.33,343.46L460.45,344.95L461.36,345.14L469.57,346.5" style="vector-effect: non-scaling-stroke; fill: none; stroke: rgb(255, 0, 0); stroke-opacity: 1; stroke-width: 1px; opacity: 1;"/></g><g class="points"/><g class="text"/></g><g class="trace scatter traceb9db12" style="stroke-miterlimit: 2; opacity: 1;"><g class="fills"/><g class="errorbars"/><g class="lines"><path class="js-line" d="M13.68,10.09L25.53,24.09L26.44,25.3L33.74,36.3L34.65,37.93L47.41,59.38L48.32,60.71L56.53,75.13L57.44,76.43L64.74,89.17L65.65,90.35L75.68,107.19L76.59,108.59L82.06,117.57L82.97,118.77L87.53,125.92L88.44,126.91L95.74,137.72L96.65,138.69L124,173.19L124.91,174.02L130.38,180.36L131.3,181.38L152.27,202.58L153.18,203.42L159.56,208.81L160.47,210.31L161.38,210.63L162.3,212.26L165.94,215.26L166.86,216.22L174.15,222.17L175.06,222.79L186,231.78L186.91,232.13L191.47,235.43L192.39,235.82L196.03,238.48L196.94,239.29L206.06,245.11L206.97,245.56L209.71,247.52L210.62,247.83L217,251.98L217.92,252.14L224.3,256.31L225.21,256.66L249.83,268.55L250.74,268.79L254.39,270.53L255.3,271.15L261.68,273.21L262.59,274.03L265.33,274.9L266.24,275.23L268.97,276.15L269.89,276.75L272.62,277.5L273.53,277.99L278.09,279.64L279,280.08L285.39,281.97L286.3,282.35L304.53,287.99L305.45,288.03L311.83,289.74L312.74,289.59L316.39,290.92L317.3,291.13L320.03,291.57L320.95,291.75L323.68,292.18L324.59,292.75L331.89,293.73L332.8,294.04L337.36,295.3L338.27,295.26L341.01,295.91L341.92,295.87L350.12,297.31L351.03,297.36L353.77,297.77L354.68,297.85L356.51,298.48L357.42,298.82L363.8,299.45L364.71,300.25L369.27,300.51L370.18,301.1L372.92,301.2L373.83,301.64L378.39,301.55L379.3,302.59L383.86,302.91L384.77,303.6L385.68,303.24L386.59,304.05L387.51,303.55L388.42,304.61L389.33,304.12L390.24,304.8L391.15,304.43L392.06,304.98L392.98,304.57L393.89,305.2L394.8,304.98L395.71,305.63L396.62,305.34L397.54,305.97L398.45,305.5L399.36,306.3L400.27,306.17L401.18,306.95L402.09,306.57L403.01,307.01L403.92,306.65L404.83,307.49L406.65,307.28L407.57,307.27L408.48,308.15L409.39,307.72L410.3,308.31L411.21,308L412.12,308.85L413.04,308.61L413.95,309.22L414.86,308.88L415.77,309.54L416.68,309.17L417.59,309.91L418.51,309.44L419.42,310.22L420.33,309.73L423.07,310.9L423.98,310.37L425.8,310.95L426.71,311.4L427.62,311.2L428.54,311.79L429.45,311.28L430.36,312.05L433.09,311.86L434.01,312.87L434.92,312.45L435.83,313.29L436.74,312.79L437.65,313.17L438.57,312.99L439.48,313.81L440.39,313.31L441.3,313.81L442.21,313.38L443.12,314.23L445.86,313.91L446.77,314.64L451.33,314.95L452.24,315.22L459.54,316.07L460.45,316.43L461.36,316.22L462.27,316.95L464.1,316.77L465.01,317.15L466.83,317.06L467.74,317.25L469.57,317.92" style="vector-effect: non-scaling-stroke; fill: none; stroke: rgb(0, 0, 255); stroke-opacity: 1; stroke-width: 1px; opacity: 1;"/></g><g class="points"/><g class="text"/></g><g class="trace scatter trace364bc2" style="stroke-miterlimit: 2; opacity: 1;"><g class="fills"/><g class="errorbars"/><g class="lines"><path class="js-line" d="M13.68,21.84L43.77,75.17L44.68,76.76L89.35,148.73L90.27,149.55L93,154.13L93.91,155.03L96.65,159.51L97.56,160.26L100.3,164.31L101.21,165.43L111.24,179.11L112.15,179.96L114.88,183.72L115.8,184.39L118.53,188.18L119.44,188.87L123.09,193.43L124,194.8L126.74,197.55L127.65,199.08L130.38,201.73L131.3,203.22L134.03,205.79L134.94,207.04L141.33,213.43L142.24,214.99L144.97,217.31L145.88,218.55L148.62,221.06L149.53,222.29L155.91,228.12L156.83,229.13L161.38,233.27L162.3,234.23L163.21,234.59L164.12,235.83L165.03,236.13L165.94,237.26L168.68,239.03L169.59,240.46L172.33,242.19L173.24,243.42L175.97,245.05L176.89,246.26L177.8,246.44L178.71,247.56L179.62,247.75L180.53,248.89L181.44,249.13L182.36,250.19L185.09,251.96L186,252.81L186.91,253.01L187.83,254.17L190.56,255.5L191.47,256.54L192.39,256.71L193.3,257.78L194.21,257.94L195.12,259.13L197.86,260.32L198.77,261.38L199.68,261.55L200.59,262.7L201.5,262.85L202.41,263.8L203.33,263.96L204.24,264.91L206.97,266L207.89,266.93L210.62,268.18L211.53,269.13L214.27,270.21L215.18,271.1L217,272.03L217.92,272.22L220.65,273.91L221.56,274.06L224.3,275.8L225.21,275.94L229.77,278.49L230.68,278.59L233.42,279.87L234.33,279.94L237.06,281.62L237.97,281.66L240.71,283.17L241.62,283.23L244.36,284.63L245.27,284.64L248,286.11L248.92,286.12L251.65,287.66L252.56,287.66L255.3,288.82L256.21,288.82L258.95,290.16L259.86,290.16L261.68,291.02L262.59,291.32L265.33,292.04L266.24,292.7L270.8,293.79L271.71,294.23L274.45,294.79L275.36,295.48L277.18,296.05L278.09,296L280.83,297.15L281.74,297.23L284.47,298.15L285.39,298.11L288.12,299.12L289.03,299.08L291.77,300.12L292.68,300.04L295.42,301.37L296.33,301.28L298.15,301.7L299.06,301.97L303.62,302.59L304.53,303.03L307.27,303.46L308.18,303.94L310.92,304.2L311.83,304.85L312.74,304.75L313.65,305.45L317.3,305.65L318.21,305.66L320.95,306.7L321.86,306.59L335.53,308.89L336.45,308.77L339.18,309.59L340.09,309.46L344.65,310.45L345.56,310.32L347.39,310.6L348.3,310.76L349.21,310.61L350.12,311.35L352.86,311.33L353.77,311.73L356.51,311.72L357.42,312.25L360.15,312.47L361.06,312.82L363.8,312.92L364.71,313.25L367.45,313.21L368.36,313.8L371.09,313.85L372.01,314.12L374.74,314.24L375.65,314.73L378.39,314.68L379.3,315.12L380.21,314.88L381.12,315.51L383.86,315.4L384.77,315.96L387.51,316.01L388.42,316.62L389.33,316.33L390.24,316.87L392.98,316.73L393.89,317.39L394.8,317.21L395.71,317.84L398.45,317.93L399.36,318.22L401.18,318.44L402.09,318.32L428.54,321.74L429.45,321.45L430.36,322.2L431.27,321.84L432.18,322.36L433.09,322.01L435.83,322.81L436.74,322.53L437.65,323.32L438.57,322.9L439.48,323.46L440.39,323.03L442.21,323.28L443.12,323.69L445.86,323.89L446.77,324.12L453.15,325.01L454.07,325.26L458.62,325.86L459.54,325.98L469.57,327.49" style="vector-effect: non-scaling-stroke; fill: none; stroke: rgb(0, 128, 0); stroke-opacity: 1; stroke-width: 1px; opacity: 1;"/></g><g class="points"/><g class="text"/></g></g></g><g class="overplot"/><path class="xlines-above crisp" d="M89.29920895304753,420.9322506561679H573.5419947506562" style="fill: none; stroke-width: 1px; stroke: rgb(0, 0, 0); stroke-opacity: 1;"/><path class="ylines-above crisp" d="M89.79920895304753,63.83858267716535V420.4322506561679" style="fill: none; stroke-width: 1px; stroke: rgb(0, 0, 0); stroke-opacity: 1;"/><g class="overlines-above"/><g class="xaxislayer-above"><path class="xtick ticks crisp" d="M0,420.4322506561679v-5" transform="translate(103.97920895304753,0)" style="stroke: rgb(0, 0, 0); stroke-opacity: 1; stroke-width: 1px;"/><path class="xtick ticks crisp" d="M0,420.4322506561679v-5" transform="translate(195.14920895304752,0)" style="stroke: rgb(0, 0, 0); stroke-opacity: 1; stroke-width: 1px;"/><path class="xtick ticks crisp" d="M0,420.4322506561679v-5" transform="translate(286.32920895304756,0)" style="stroke: rgb(0, 0, 0); stroke-opacity: 1; stroke-width: 1px;"/><path class="xtick ticks crisp" d="M0,420.4322506561679v-5" transform="translate(377.5092089530475,0)" style="stroke: rgb(0, 0, 0); stroke-opacity: 1; stroke-width: 1px;"/><path class="xtick ticks crisp" d="M0,420.4322506561679v-5" transform="translate(468.6892089530475,0)" style="stroke: rgb(0, 0, 0); stroke-opacity: 1; stroke-width: 1px;"/><path class="xtick ticks crisp" d="M0,420.4322506561679v-5" transform="translate(559.8692089530475,0)" style="stroke: rgb(0, 0, 0); stroke-opacity: 1; stroke-width: 1px;"/><g class="xtick"><text text-anchor="middle" x="0" y="434.6322506561679" transform="translate(103.97920895304753,0)" style="font-family: sans-serif; font-size: 11px; fill: rgb(0, 0, 0); fill-opacity: 1; white-space: pre;">0</text></g><g class="xtick"><text text-anchor="middle" x="0" y="434.6322506561679" transform="translate(195.14920895304752,0)" style="font-family: sans-serif; font-size: 11px; fill: rgb(0, 0, 0); fill-opacity: 1; white-space: pre;">100</text></g><g class="xtick"><text text-anchor="middle" x="0" y="434.6322506561679" transform="translate(286.32920895304756,0)" style="font-family: sans-serif; font-size: 11px; fill: rgb(0, 0, 0); fill-opacity: 1; white-space: pre;">200</text></g><g class="xtick"><text text-anchor="middle" x="0" y="434.6322506561679" transform="translate(377.5092089530475,0)" style="font-family: sans-serif; font-size: 11px; fill: rgb(0, 0, 0); fill-opacity: 1; white-space: pre;">300</text></g><g class="xtick"><text text-anchor="middle" x="0" y="434.6322506561679" transform="translate(468.6892089530475,0)" style="font-family: sans-serif; font-size: 11px; fill: rgb(0, 0, 0); fill-opacity: 1; white-space: pre;">400</text></g><g class="xtick"><text text-anchor="middle" x="0" y="434.6322506561679" transform="translate(559.8692089530475,0)" style="font-family: sans-serif; font-size: 11px; fill: rgb(0, 0, 0); fill-opacity: 1; white-space: pre;">500</text></g></g><g class="yaxislayer-above"><path class="ytick ticks crisp" d="M90.29920895304753,0h5" transform="translate(0,381.63858267716535)" style="stroke: rgb(0, 0, 0); stroke-opacity: 1; stroke-width: 1px;"/><path class="ytick ticks crisp" d="M90.29920895304753,0h5" transform="translate(0,334.5485826771653)" style="stroke: rgb(0, 0, 0); stroke-opacity: 1; stroke-width: 1px;"/><path class="ytick ticks crisp" d="M90.29920895304753,0h5" transform="translate(0,287.45858267716534)" style="stroke: rgb(0, 0, 0); stroke-opacity: 1; stroke-width: 1px;"/><path class="ytick ticks crisp" d="M90.29920895304753,0h5" transform="translate(0,240.37858267716535)" style="stroke: rgb(0, 0, 0); stroke-opacity: 1; stroke-width: 1px;"/><path class="ytick ticks crisp" d="M90.29920895304753,0h5" transform="translate(0,193.28858267716532)" style="stroke: rgb(0, 0, 0); stroke-opacity: 1; stroke-width: 1px;"/><path class="ytick ticks crisp" d="M90.29920895304753,0h5" transform="translate(0,146.20858267716534)" style="stroke: rgb(0, 0, 0); stroke-opacity: 1; stroke-width: 1px;"/><path class="ytick ticks crisp" d="M90.29920895304753,0h5" transform="translate(0,99.11858267716535)" style="stroke: rgb(0, 0, 0); stroke-opacity: 1; stroke-width: 1px;"/><g class="ytick"><text text-anchor="end" x="87.09920895304752" y="3.8499999999999996" transform="translate(0,381.63858267716535)" style="font-family: sans-serif; font-size: 11px; fill: rgb(0, 0, 0); fill-opacity: 1; white-space: pre;">1.4</text></g><g class="ytick"><text text-anchor="end" x="87.09920895304752" y="3.8499999999999996" transform="translate(0,334.5485826771653)" style="font-family: sans-serif; font-size: 11px; fill: rgb(0, 0, 0); fill-opacity: 1; white-space: pre;">1.6</text></g><g class="ytick"><text text-anchor="end" x="87.09920895304752" y="3.8499999999999996" transform="translate(0,287.45858267716534)" style="font-family: sans-serif; font-size: 11px; fill: rgb(0, 0, 0); fill-opacity: 1; white-space: pre;">1.8</text></g><g class="ytick"><text text-anchor="end" x="87.09920895304752" y="3.8499999999999996" transform="translate(0,240.37858267716535)" style="font-family: sans-serif; font-size: 11px; fill: rgb(0, 0, 0); fill-opacity: 1; white-space: pre;">2.0</text></g><g class="ytick"><text text-anchor="end" x="87.09920895304752" y="3.8499999999999996" transform="translate(0,193.28858267716532)" style="font-family: sans-serif; font-size: 11px; fill: rgb(0, 0, 0); fill-opacity: 1; white-space: pre;">2.2</text></g><g class="ytick"><text text-anchor="end" x="87.09920895304752" y="3.8499999999999996" transform="translate(0,146.20858267716534)" style="font-family: sans-serif; font-size: 11px; fill: rgb(0, 0, 0); fill-opacity: 1; white-space: pre;">2.4</text></g><g class="ytick"><text text-anchor="end" x="87.09920895304752" y="3.8499999999999996" transform="translate(0,99.11858267716535)" style="font-family: sans-serif; font-size: 11px; fill: rgb(0, 0, 0); fill-opacity: 1; white-space: pre;">2.6</text></g></g><g class="overaxes-above"/></g></g><g class="polarlayer"/><g class="ternarylayer"/><g class="geolayer"/><g class="funnelarealayer"/><g class="pielayer"/><g class="treemaplayer"/><g class="sunburstlayer"/><g class="glimages"/><defs id="topdefs-6ec821"><g class="clips"/><clipPath id="legend6ec821"><rect width="100" height="87" x="0" y="0"/></clipPath></defs><g class="layer-above"><g class="imagelayer"/><g class="shapelayer"/></g><g class="infolayer"><g class="legend" pointer-events="all" transform="translate(587.54,60)"><rect class="bg" shape-rendering="crispEdges" style="stroke: rgb(68, 68, 68); stroke-opacity: 1; fill: rgb(255, 255, 255); fill-opacity: 1; stroke-width: 0px;" width="100" height="87" x="0" y="0"/><g class="scrollbox" transform="" clip-path="url('#legend6ec821')"><g class="groups" transform=""><g class="traces" transform="translate(0,14.5)" style="opacity: 1;"><text class="legendtext" text-anchor="start" x="40" y="4.680000000000001" style="font-family: 'Open Sans', verdana, arial, sans-serif; font-size: 12px; fill: rgb(42, 63, 95); fill-opacity: 1; white-space: pre;">train</text><g class="layers" style="opacity: 1;"><g class="legendfill"/><g class="legendlines"><path class="js-line" d="M5,0h30" style="fill: none; stroke: rgb(255, 0, 0); stroke-opacity: 1; stroke-width: 1px;"/></g><g class="legendsymbols"><g class="legendpoints"/></g></g><rect class="legendtoggle" x="0" y="-9.5" width="94.671875" height="19" style="fill: rgb(0, 0, 0); fill-opacity: 0;"/></g></g><g class="groups" transform="translate(0,10)"><g class="traces" transform="translate(0,33.5)" style="opacity: 1;"><text class="legendtext" text-anchor="start" x="40" y="4.680000000000001" style="font-family: 'Open Sans', verdana, arial, sans-serif; font-size: 12px; fill: rgb(42, 63, 95); fill-opacity: 1; white-space: pre;">validation</text><g class="layers" style="opacity: 1;"><g class="legendfill"/><g class="legendlines"><path class="js-line" d="M5,0h30" style="fill: none; stroke: rgb(0, 0, 255); stroke-opacity: 1; stroke-width: 1px;"/></g><g class="legendsymbols"><g class="legendpoints"/></g></g><rect class="legendtoggle" x="0" y="-9.5" width="94.671875" height="19" style="fill: rgb(0, 0, 0); fill-opacity: 0;"/></g></g><g class="groups" transform="translate(0,20)"><g class="traces" transform="translate(0,52.5)" style="opacity: 1;"><text class="legendtext" text-anchor="start" x="40" y="4.680000000000001" style="font-family: 'Open Sans', verdana, arial, sans-serif; font-size: 12px; fill: rgb(42, 63, 95); fill-opacity: 1; white-space: pre;">test</text><g class="layers" style="opacity: 1;"><g class="legendfill"/><g class="legendlines"><path class="js-line" d="M5,0h30" style="fill: none; stroke: rgb(0, 128, 0); stroke-opacity: 1; stroke-width: 1px;"/></g><g class="legendsymbols"><g class="legendpoints"/></g></g><rect class="legendtoggle" x="0" y="-9.5" width="94.671875" height="19" style="fill: rgb(0, 0, 0); fill-opacity: 0;"/></g></g></g><rect class="scrollbar" rx="20" ry="3" width="0" height="0" style="fill: rgb(128, 139, 164); fill-opacity: 1;" x="0" y="0"/></g><g class="g-gtitle"/><g class="g-xtitle"><text class="xtitle" x="331.92060185185187" y="462.140625" text-anchor="middle" style="font-family: sans-serif; font-size: 15px; fill: rgb(0, 0, 0); opacity: 1; font-weight: normal; white-space: pre;">Epoch</text></g><g class="g-ytitle"><text class="ytitle" transform="rotate(-90,46.296875,242.13541666666663)" x="46.296875" y="242.13541666666663" text-anchor="middle" style="font-family: sans-serif; font-size: 15px; fill: rgb(0, 0, 0); opacity: 1; font-weight: normal; white-space: pre;">Loss</text></g></g></svg>