<svg class="main-svg" xmlns="http://www.w3.org/2000/svg" xmlns:xlink="http://www.w3.org/1999/xlink" width="700" height="500" style="" viewBox="0 0 700 500"><rect x="0" y="0" width="700" height="500" style="fill: rgb(255, 255, 255); fill-opacity: 1;"/><defs id="defs-c44c88"><g class="clips"><clipPath id="clipc44c88xyplot" class="plotclip"><rect width="483.24278579760863" height="356.5936679790026"/></clipPath><clipPath class="axesclip" id="clipc44c88x"><rect x="90.29920895304753" y="0" width="483.24278579760863" height="500"/></clipPath><clipPath class="axesclip" id="clipc44c88y"><rect x="0" y="63.83858267716535" width="700" height="356.5936679790026"/></clipPath><clipPath class="axesclip" id="clipc44c88xy"><rect x="90.29920895304753" y="63.83858267716535" width="483.24278579760863" height="356.5936679790026"/></clipPath></g><g class="gradients"/></defs><g class="bglayer"/><g class="layer-below"><g class="imagelayer"/><g class="shapelayer"/></g><g class="cartesianlayer"><g class="subplot xy"><g class="layer-subplot"><g class="shapelayer"/><g class="imagelayer"/></g><g class="gridlayer"><g class="x"><path class="xgrid crisp" transform="translate(103.97920895304753,0)" d="M0,63.83858267716535v356.5936679790026" style="stroke: rgb(0, 0, 0); stroke-opacity: 0.1; stroke-width: 0.5px;"/><path class="xgrid crisp" transform="translate(172.88920895304753,0)" d="M0,63.83858267716535v356.5936679790026" style="stroke: rgb(0, 0, 0); stroke-opacity: 0.1; stroke-width: 0.5px;"/><path class="xgrid crisp" transform="translate(241.80920895304752,0)" d="M0,63.83858267716535v356.5936679790026" style="stroke: rgb(0, 0, 0); stroke-opacity: 0.1; stroke-width: 0.5px;"/><path class="xgrid crisp" transform="translate(310.72920895304753,0)" d="M0,63.83858267716535v356.5936679790026" style="stroke: rgb(0, 0, 0); stroke-opacity: 0.1; stroke-width: 0.5px;"/><path class="xgrid crisp" transform="translate(379.64920895304755,0)" d="M0,63.83858267716535v356.5936679790026" style="stroke: rgb(0, 0, 0); stroke-opacity: 0.1; stroke-width: 0.5px;"/><path class="xgrid crisp" transform="translate(448.5592089530475,0)" d="M0,63.83858267716535v356.5936679790026" style="stroke: rgb(0, 0, 0); stroke-opacity: 0.1; stroke-width: 0.5px;"/><path class="xgrid crisp" transform="translate(517.4792089530475,0)" d="M0,63.83858267716535v356.5936679790026" style="stroke: rgb(0, 0, 0); stroke-opacity: 0.1; stroke-width: 0.5px;"/></g><g class="y"><path class="ygrid crisp" transform="translate(0,410.33858267716533)" d="M90.29920895304753,0h483.24278579760863" style="stroke: rgb(0, 0, 0); stroke-opacity: 0.1; stroke-width: 0.5px;"/><path class="ygrid crisp" transform="translate(0,358.1185826771653)" d="M90.29920895304753,0h483.24278579760863" style="stroke: rgb(0, 0, 0); stroke-opacity: 0.1; stroke-width: 0.5px;"/><path class="ygrid crisp" transform="translate(0,305.89858267716534)" d="M90.29920895304753,0h483.24278579760863" style="stroke: rgb(0, 0, 0); stroke-opacity: 0.1; stroke-width: 0.5px;"/><path class="ygrid crisp" transform="translate(0,253.66858267716538)" d="M90.29920895304753,0h483.24278579760863" style="stroke: rgb(0, 0, 0); stroke-opacity: 0.1; stroke-width: 0.5px;"/><path class="ygrid crisp" transform="translate(0,201.44858267716535)" d="M90.29920895304753,0h483.24278579760863" style="stroke: rgb(0, 0, 0); stroke-opacity: 0.1; stroke-width: 0.5px;"/><path class="ygrid crisp" transform="translate(0,149.22858267716535)" d="M90.29920895304753,0h483.24278579760863" style="stroke: rgb(0, 0, 0); stroke-opacity: 0.1; stroke-width: 0.5px;"/><path class="ygrid crisp" transform="translate(0,97.00858267716535)" d="M90.29920895304753,0h483.24278579760863" style="stroke: rgb(0, 0, 0); stroke-opacity: 0.1; stroke-width: 0.5px;"/></g></g><g class="zerolinelayer"/><path class="xlines-below"/><path class="ylines-below"/><g class="overlines-below"/><g class="xaxislayer-below"/><g class="yaxislayer-below"/><g class="overaxes-below"/><g class="plot" transform="translate(90.29920895304753,63.83858267716535)" clip-path="url('#clipc44c88xyplot')"><g class="scatterlayer mlayer"><g class="trace scatter traceaefe06" style="stroke-miterlimit: 2; opacity: 1;"><g class="fills"/><g class="errorbars"/><g class="lines"><path class="js-line" d="M13.68,10.09L17.12,75.42L17.47,80.48L20.91,120.25L21.26,123.41L25.39,154.72L25.74,156.91L31.25,186.9L31.6,188.53L37.8,214.36L38.14,215.62L45.72,240.29L46.07,241.29L53.65,260.86L53.99,261.66L62.61,279.4L62.95,280.03L72.26,295.03L72.6,295.52L82.25,307.52L82.59,307.89L92.24,317.05L92.59,317.34L101.89,324.09L102.24,324.31L113.26,330.29L113.61,330.45L127.05,335.58L127.39,335.68L140.83,339.15L141.17,339.22L154.96,341.61L155.3,341.66L175.63,343.81L175.98,343.84L199.06,345.14L199.41,345.15L261.44,346.28L261.78,346.28L469.57,346.5" style="vector-effect: non-scaling-stroke; fill: none; stroke: rgb(255, 0, 0); stroke-opacity: 1; stroke-width: 1px; opacity: 1;"/></g><g class="points"/><g class="text"/></g><g class="trace scatter tracee54381" style="stroke-miterlimit: 2; opacity: 1;"><g class="fills"/><g class="errorbars"/><g class="lines"><path class="js-line" d="M13.68,12.75L17.47,75.53L17.81,80L22.29,127.05L22.64,130.13L27.8,166.07L28.15,168.04L34.35,198.74L34.7,200.17L39.87,220.32L40.21,221.57L48.14,246.2L48.48,247.11L55.03,263.41L55.37,264.21L65.02,283.3L65.36,283.91L75.01,298.55L75.36,299.02L84.66,309.86L85.01,310.22L94.65,318.85L95,319.12L104.99,325.87L105.34,326.08L117.74,332.17L118.09,332.3L127.39,335.63L127.74,335.73L140.14,338.97L140.48,339.04L160.47,342.31L160.82,342.35L184.94,344.44L185.28,344.46L221.46,345.79L221.81,345.79L264.54,346.3L264.88,346.3L469.57,346.5" style="vector-effect: non-scaling-stroke; fill: none; stroke: rgb(0, 0, 255); stroke-opacity: 1; stroke-width: 1px; opacity: 1;"/></g><g class="points"/><g class="text"/></g><g class="trace scatter traceed02f6" style="stroke-miterlimit: 2; opacity: 1;"><g class="fills"/><g class="errorbars"/><g class="lines"><path class="js-line" d="M13.68,40.24L18.85,117.28L19.19,120.24L21.6,140.97L21.95,143.14L24.36,159.74L24.7,161.35L28.15,179.96L28.49,182.17L31.94,198.1L32.28,200.1L34.35,208.14L34.7,209.97L36.42,216.33L36.76,218.02L38.83,224.8L39.18,226.36L40.9,231.76L41.24,233.22L44,241.09L44.34,242.41L46.07,247.01L46.41,248.26L48.14,252.57L48.48,253.74L51.24,260.05L51.58,261.13L53.3,264.85L53.65,265.86L56.06,270.81L56.41,271.75L59.16,276.82L59.51,277.67L61.92,281.91L62.26,282.71L64.68,286.64L65.02,287.38L67.43,291.03L67.78,291.72L70.19,295.11L70.53,295.74L73.29,299.21L73.63,299.8L76.05,302.71L76.39,303.25L79.49,306.72L79.84,307.22L82.94,310.38L83.28,310.83L86.38,313.71L86.73,314.12L90.52,317.32L90.86,317.69L95,320.71L95.34,321.04L99.82,324.01L100.17,324.29L122.22,334.67L122.57,334.75L128.77,336.67L129.11,336.79L158.06,342.29L158.4,342.32L174.6,343.89L174.94,343.91L198.72,345.2L199.06,345.21L223.53,345.87L223.88,345.87L264.19,346.31L264.54,346.31L469.57,346.5" style="vector-effect: non-scaling-stroke; fill: none; stroke: rgb(0, 128, 0); stroke-opacity: 1; stroke-width: 1px; opacity: 1;"/></g><g class="points"/><g class="text"/></g></g></g><g class="overplot"/><path class="xlines-above crisp" d="M89.29920895304753,420.9322506561679H573.5419947506562" style="fill: none; stroke-width: 1px; stroke: rgb(0, 0, 0); stroke-opacity: 1;"/><path class="ylines-above crisp" d="M89.79920895304753,63.83858267716535V420.4322506561679" style="fill: none; stroke-width: 1px; stroke: rgb(0, 0, 0); stroke-opacity: 1;"/><g class="overlines-above"/><g class="xaxislayer-above"><path class="xtick ticks crisp" d="M0,420.4322506561679v-5" transform="translate(103.97920895304753,0)" style="stroke: rgb(0, 0, 0); stroke-opacity: 1; stroke-width: 1px;"/><path class="xtick ticks crisp" d="M0,420.4322506561679v-5" transform="translate(172.88920895304753,0)" style="stroke: rgb(0, 0, 0); stroke-opacity: 1; stroke-width: 1px;"/><path class="xtick ticks crisp" d="M0,420.4322506561679v-5" transform="translate(241.80920895304752,0)" style="stroke: rgb(0, 0, 0); stroke-opacity: 1; stroke-width: 1px;"/><path class="xtick ticks crisp" d="M0,420.4322506561679v-5" transform="translate(310.72920895304753,0)" style="stroke: rgb(0, 0, 0); stroke-opacity: 1; stroke-width: 1px;"/><path class="xtick ticks crisp" d="M0,420.4322506561679v-5" transform="translate(379.64920895304755,0)" style="stroke: rgb(0, 0, 0); stroke-opacity: 1; stroke-width: 1px;"/><path class="xtick ticks crisp" d="M0,420.4322506561679v-5" transform="translate(448.5592089530475,0)" style="stroke: rgb(0, 0, 0); stroke-opacity: 1; stroke-width: 1px;"/><path class="xtick ticks crisp" d="M0,420.4322506561679v-5" transform="translate(517.4792089530475,0)" style="stroke: rgb(0, 0, 0); stroke-opacity: 1; stroke-width: 1px;"/><g class="xtick"><text text-anchor="middle" x="0" y="434.6322506561679" transform="translate(103.97920895304753,0)" style="font-family: sans-serif; font-size: 11px; fill: rgb(0, 0, 0); fill-opacity: 1; white-space: pre;">0</text></g><g class="xtick"><text text-anchor="middle" x="0" y="434.6322506561679" transform="translate(172.88920895304753,0)" style="font-family: sans-serif; font-size: 11px; fill: rgb(0, 0, 0); fill-opacity: 1; white-space: pre;">200</text></g><g class="xtick"><text text-anchor="middle" x="0" y="434.6322506561679" transform="translate(241.80920895304752,0)" style="font-family: sans-serif; font-size: 11px; fill: rgb(0, 0, 0); fill-opacity: 1; white-space: pre;">400</text></g><g class="xtick"><text text-anchor="middle" x="0" y="434.6322506561679" transform="translate(310.72920895304753,0)" style="font-family: sans-serif; font-size: 11px; fill: rgb(0, 0, 0); fill-opacity: 1; white-space: pre;">600</text></g><g class="xtick"><text text-anchor="middle" x="0" y="434.6322506561679" transform="translate(379.64920895304755,0)" style="font-family: sans-serif; font-size: 11px; fill: rgb(0, 0, 0); fill-opacity: 1; white-space: pre;">800</text></g><g class="xtick"><text text-anchor="middle" x="0" y="434.6322506561679" transform="translate(448.5592089530475,0)" style="font-family: sans-serif; font-size: 11px; fill: rgb(0, 0, 0); fill-opacity: 1; white-space: pre;">1000</text></g><g class="xtick"><text text-anchor="middle" x="0" y="434.6322506561679" transform="translate(517.4792089530475,0)" style="font-family: sans-serif; font-size: 11px; fill: rgb(0, 0, 0); fill-opacity: 1; white-space: pre;">1200</text></g></g><g class="yaxislayer-above"><path class="ytick ticks crisp" d="M90.29920895304753,0h5" transform="translate(0,410.33858267716533)" style="stroke: rgb(0, 0, 0); stroke-opacity: 1; stroke-width: 1px;"/><path class="ytick ticks crisp" d="M90.29920895304753,0h5" transform="translate(0,358.1185826771653)" style="stroke: rgb(0, 0, 0); stroke-opacity: 1; stroke-width: 1px;"/><path class="ytick ticks crisp" d="M90.29920895304753,0h5" transform="translate(0,305.89858267716534)" style="stroke: rgb(0, 0, 0); stroke-opacity: 1; stroke-width: 1px;"/><path class="ytick ticks crisp" d="M90.29920895304753,0h5" transform="translate(0,253.66858267716538)" style="stroke: rgb(0, 0, 0); stroke-opacity: 1; stroke-width: 1px;"/><path class="ytick ticks crisp" d="M90.29920895304753,0h5" transform="translate(0,201.44858267716535)" style="stroke: rgb(0, 0, 0); stroke-opacity: 1; stroke-width: 1px;"/><path class="ytick ticks crisp" d="M90.29920895304753,0h5" transform="translate(0,149.22858267716535)" style="stroke: rgb(0, 0, 0); stroke-opacity: 1; stroke-width: 1px;"/><path class="ytick ticks crisp" d="M90.29920895304753,0h5" transform="translate(0,97.00858267716535)" style="stroke: rgb(0, 0, 0); stroke-opacity: 1; stroke-width: 1px;"/><g class="ytick"><text text-anchor="end" x="87.09920895304752" y="3.8499999999999996" transform="translate(0,410.33858267716533)" style="font-family: sans-serif; font-size: 11px; fill: rgb(0, 0, 0); fill-opacity: 1; white-space: pre;">0.0</text></g><g class="ytick"><text text-anchor="end" x="87.09920895304752" y="3.8499999999999996" transform="translate(0,358.1185826771653)" style="font-family: sans-serif; font-size: 11px; fill: rgb(0, 0, 0); fill-opacity: 1; white-space: pre;">0.1</text></g><g class="ytick"><text text-anchor="end" x="87.09920895304752" y="3.8499999999999996" transform="translate(0,305.89858267716534)" style="font-family: sans-serif; font-size: 11px; fill: rgb(0, 0, 0); fill-opacity: 1; white-space: pre;">0.2</text></g><g class="ytick"><text text-anchor="end" x="87.09920895304752" y="3.8499999999999996" transform="translate(0,253.66858267716538)" style="font-family: sans-serif; font-size: 11px; fill: rgb(0, 0, 0); fill-opacity: 1; white-space: pre;">0.3</text></g><g class="ytick"><text text-anchor="end" x="87.09920895304752" y="3.8499999999999996" transform="translate(0,201.44858267716535)" style="font-family: sans-serif; font-size: 11px; fill: rgb(0, 0, 0); fill-opacity: 1; white-space: pre;">0.4</text></g><g class="ytick"><text text-anchor="end" x="87.09920895304752" y="3.8499999999999996" transform="translate(0,149.22858267716535)" style="font-family: sans-serif; font-size: 11px; fill: rgb(0, 0, 0); fill-opacity: 1; white-space: pre;">0.5</text></g><g class="ytick"><text text-anchor="end" x="87.09920895304752" y="3.8499999999999996" transform="translate(0,97.00858267716535)" style="font-family: sans-serif; font-size: 11px; fill: rgb(0, 0, 0); fill-opacity: 1; white-space: pre;">0.6</text></g></g><g class="overaxes-above"/></g></g><g class="polarlayer"/><g class="ternarylayer"/><g class="geolayer"/><g class="funnelarealayer"/><g class="pielayer"/><g class="treemaplayer"/><g class="sunburstlayer"/><g class="glimages"/><defs id="topdefs-c44c88"><g class="clips"/><clipPath id="legendc44c88"><rect width="100" height="87" x="0" y="0"/></clipPath></defs><g class="layer-above"><g class="imagelayer"/><g class="shapelayer"/></g><g class="infolayer"><g class="legend" pointer-events="all" transform="translate(587.54,60)"><rect class="bg" shape-rendering="crispEdges" width="100" height="87" x="0" y="0" style="stroke: rgb(68, 68, 68); stroke-opacity: 1; fill: rgb(255, 255, 255); fill-opacity: 1; stroke-width: 0px;"/><g class="scrollbox" transform="" clip-path="url('#legendc44c88')"><g class="groups" transform=""><g class="traces" transform="translate(0,14.5)" style="opacity: 1;"><text class="legendtext" text-anchor="start" x="40" y="4.680000000000001" style="font-family: 'Open Sans', verdana, arial, sans-serif; font-size: 12px; fill: rgb(42, 63, 95); fill-opacity: 1; white-space: pre;">train</text><g class="layers" style="opacity: 1;"><g class="legendfill"/><g class="legendlines"><path class="js-line" d="M5,0h30" style="fill: none; stroke: rgb(255, 0, 0); stroke-opacity: 1; stroke-width: 1px;"/></g><g class="legendsymbols"><g class="legendpoints"/></g></g><rect class="legendtoggle" x="0" y="-9.5" width="94.671875" height="19" style="fill: rgb(0, 0, 0); fill-opacity: 0;"/></g></g><g class="groups" transform="translate(0,10)"><g class="traces" transform="translate(0,33.5)" style="opacity: 1;"><text class="legendtext" text-anchor="start" x="40" y="4.680000000000001" style="font-family: 'Open Sans', verdana, arial, sans-serif; font-size: 12px; fill: rgb(42, 63, 95); fill-opacity: 1; white-space: pre;">validation</text><g class="layers" style="opacity: 1;"><g class="legendfill"/><g class="legendlines"><path class="js-line" d="M5,0h30" style="fill: none; stroke: rgb(0, 0, 255); stroke-opacity: 1; stroke-width: 1px;"/></g><g class="legendsymbols"><g class="legendpoints"/></g></g><rect class="legendtoggle" x="0" y="-9.5" width="94.671875" height="19" style="fill: rgb(0, 0, 0); fill-opacity: 0;"/></g></g><g class="groups" transform="translate(0,20)"><g class="traces" transform="translate(0,52.5)" style="opacity: 1;"><text class="legendtext" text-anchor="start" x="40" y="4.680000000000001" style="font-family: 'Open Sans', verdana, arial, sans-serif; font-size: 12px; fill: rgb(42, 63, 95); fill-opacity: 1; white-space: pre;">test</text><g class="layers" style="opacity: 1;"><g class="legendfill"/><g class="legendlines"><path class="js-line" d="M5,0h30" style="fill: none; stroke: rgb(0, 128, 0); stroke-opacity: 1; stroke-width: 1px;"/></g><g class="legendsymbols"><g class="legendpoints"/></g></g><rect class="legendtoggle" x="0" y="-9.5" width="94.671875" height="19" style="fill: rgb(0, 0, 0); fill-opacity: 0;"/></g></g></g><rect class="scrollbar" rx="20" ry="3" width="0" height="0" x="0" y="0" style="fill: rgb(128, 139, 164); fill-opacity: 1;"/></g><g class="g-gtitle"/><g class="g-xtitle"><text class="xtitle" x="331.92060185185187" y="462.140625" text-anchor="middle" style="font-family: sans-serif; font-size: 15px; fill: rgb(0, 0, 0); opacity: 1; font-weight: normal; white-space: pre;">Epoch</text></g><g class="g-ytitle"><text class="ytitle" transform="rotate(-90,46.296875,242.13541666666663)" x="46.296875" y="242.13541666666663" text-anchor="middle" style="font-family: sans-serif; font-size: 15px; fill: rgb(0, 0, 0); opacity: 1; font-weight: normal; white-space: pre;">Loss</text></g></g></svg>