<svg class="main-svg" xmlns="http://www.w3.org/2000/svg" xmlns:xlink="http://www.w3.org/1999/xlink" width="700" height="500" style="" viewBox="0 0 700 500"><rect x="0" y="0" width="700" height="500" style="fill: rgb(255, 255, 255); fill-opacity: 1;"/><defs id="defs-03d8e8"><g class="clips"><clipPath id="clip03d8e8xyplot" class="plotclip"><rect width="498.85760061242354" height="356.5936679790026"/></clipPath><clipPath class="axesclip" id="clip03d8e8x"><rect x="74.68439413823272" y="0" width="498.85760061242354" height="500"/></clipPath><clipPath class="axesclip" id="clip03d8e8y"><rect x="0" y="63.83858267716535" width="700" height="356.5936679790026"/></clipPath><clipPath class="axesclip" id="clip03d8e8xy"><rect x="74.68439413823272" y="63.83858267716535" width="498.85760061242354" height="356.5936679790026"/></clipPath></g><g class="gradients"/></defs><g class="bglayer"/><g class="layer-below"><g class="imagelayer"/><g class="shapelayer"/></g><g class="cartesianlayer"><g class="subplot xy"><g class="layer-subplot"><g class="shapelayer"/><g class="imagelayer"/></g><g class="gridlayer"><g class="x"><path class="xgrid crisp" transform="translate(88.80439413823272,0)" d="M0,63.83858267716535v356.5936679790026" style="stroke: rgb(0, 0, 0); stroke-opacity: 0.1; stroke-width: 0.5px;"/><path class="xgrid crisp" transform="translate(159.04439413823272,0)" d="M0,63.83858267716535v356.5936679790026" style="stroke: rgb(0, 0, 0); stroke-opacity: 0.1; stroke-width: 0.5px;"/><path class="xgrid crisp" transform="translate(229.2843941382327,0)" d="M0,63.83858267716535v356.5936679790026" style="stroke: rgb(0, 0, 0); stroke-opacity: 0.1; stroke-width: 0.5px;"/><path class="xgrid crisp" transform="translate(299.5243941382327,0)" d="M0,63.83858267716535v356.5936679790026" style="stroke: rgb(0, 0, 0); stroke-opacity: 0.1; stroke-width: 0.5px;"/><path class="xgrid crisp" transform="translate(369.7743941382327,0)" d="M0,63.83858267716535v356.5936679790026" style="stroke: rgb(0, 0, 0); stroke-opacity: 0.1; stroke-width: 0.5px;"/><path class="xgrid crisp" transform="translate(440.0143941382327,0)" d="M0,63.83858267716535v356.5936679790026" style="stroke: rgb(0, 0, 0); stroke-opacity: 0.1; stroke-width: 0.5px;"/><path class="xgrid crisp" transform="translate(510.2543941382327,0)" d="M0,63.83858267716535v356.5936679790026" style="stroke: rgb(0, 0, 0); stroke-opacity: 0.1; stroke-width: 0.5px;"/></g><g class="y"><path class="ygrid crisp" transform="translate(0,415.6585826771653)" d="M74.68439413823272,0h498.85760061242354" style="stroke: rgb(0, 0, 0); stroke-opacity: 0.1; stroke-width: 0.5px;"/><path class="ygrid crisp" transform="translate(0,340.4285826771653)" d="M74.68439413823272,0h498.85760061242354" style="stroke: rgb(0, 0, 0); stroke-opacity: 0.1; stroke-width: 0.5px;"/><path class="ygrid crisp" transform="translate(0,265.20858267716534)" d="M74.68439413823272,0h498.85760061242354" style="stroke: rgb(0, 0, 0); stroke-opacity: 0.1; stroke-width: 0.5px;"/><path class="ygrid crisp" transform="translate(0,189.97858267716535)" d="M74.68439413823272,0h498.85760061242354" style="stroke: rgb(0, 0, 0); stroke-opacity: 0.1; stroke-width: 0.5px;"/><path class="ygrid crisp" transform="translate(0,114.75858267716535)" d="M74.68439413823272,0h498.85760061242354" style="stroke: rgb(0, 0, 0); stroke-opacity: 0.1; stroke-width: 0.5px;"/></g></g><g class="zerolinelayer"/><path class="xlines-below"/><path class="ylines-below"/><g class="overlines-below"/><g class="xaxislayer-below"/><g class="yaxislayer-below"/><g class="overaxes-below"/><g class="plot" transform="translate(74.68439413823272,63.83858267716535)" clip-path="url('#clip03d8e8xyplot')"><g class="scatterlayer mlayer"><g class="trace scatter tracef85c3e" style="stroke-miterlimit: 2; opacity: 1;"><g class="fills"/><g class="errorbars"/><g class="lines"><path class="js-line" d="M14.12,10.09L21.14,61.59L28.17,103.33L42.22,176.06L49.24,207.8L63.29,243.98L70.31,255.72L84.36,273.73L91.38,281.01L98.41,288.64L105.43,293.03L112.46,299.88L119.48,302.13L126.51,308.28L133.53,309.41L140.55,314.91L147.58,314.5L154.6,319.94L161.63,319.42L168.65,324.25L175.67,323.28L182.7,327.35L189.72,326.22L196.75,329.86L203.77,328.66L210.8,331.85L217.82,330.75L224.84,333.61L231.87,332.47L238.89,335.15L245.92,333.91L252.94,336.43L259.97,335.42L266.99,337.64L274.01,336.64L281.04,338.69L288.06,337.66L295.09,339.7L302.11,338.61L309.13,340.43L316.16,339.29L323.18,341.18L330.21,340.11L337.23,341.99L344.26,340.82L351.28,342.61L358.3,341.58L365.33,343.24L372.35,342.2L379.38,343.8L386.4,342.72L393.42,344.29L400.45,343.28L407.47,344.75L414.5,343.76L421.52,345.15L428.55,344.21L435.57,345.55L442.59,344.6L449.62,345.79L456.64,345.05L463.67,346.14L470.69,345.55L477.71,346.5L484.74,345.87" style="vector-effect: non-scaling-stroke; fill: none; stroke: rgb(255, 0, 0); stroke-opacity: 1; stroke-width: 1px; opacity: 1;"/></g><g class="points"/><g class="text"/></g><g class="trace scatter trace6ddc14" style="stroke-miterlimit: 2; opacity: 1;"><g class="fills"/><g class="errorbars"/><g class="lines"><path class="js-line" d="M14.12,10.94L28.17,99.31L35.19,133.61L42.22,173.91L49.24,200.99L56.26,224.94L63.29,237.31L70.31,254.19L77.34,257.99L84.36,271.58L91.38,273.43L98.41,285.78L105.43,284.62L112.46,296.1L119.48,293.46L126.51,304.52L133.53,300.07L140.55,310.97L147.58,305.09L154.6,315.9L161.63,309.88L168.65,320.14L175.67,313.78L182.7,323.01L189.72,316.57L196.75,325.41L203.77,319L210.8,327.11L217.82,321.27L224.84,328.62L231.87,323.09L238.89,329.95L245.92,324.74L252.94,330.8L259.97,326.59L266.99,331.88L274.01,327.92L281.04,333.01L288.06,328.88L295.09,333.89L302.11,329.53L309.13,334.56L316.16,329.97L323.18,335.57L330.21,330.86L337.23,336.6L344.26,331.67L351.28,337.39L358.3,332.47L365.33,338.16L372.35,333.02L379.38,338.8L386.4,333.53L393.42,339.28L400.45,334.19L407.47,339.8L414.5,334.73L421.52,340.22L428.55,335.4L435.57,340.57L442.59,335.96L449.62,340.67L456.64,336.65L463.67,340.41L470.69,337.68L477.71,340.43L484.74,337.79" style="vector-effect: non-scaling-stroke; fill: none; stroke: rgb(0, 0, 255); stroke-opacity: 1; stroke-width: 1px; opacity: 1;"/></g><g class="points"/><g class="text"/></g><g class="trace scatter trace53790a" style="stroke-miterlimit: 2; opacity: 1;"><g class="fills"/><g class="errorbars"/><g class="lines"><path class="js-line" d="M14.12,10.35L28.17,98.24L35.19,129.11L42.22,171.89L49.24,196.32L56.26,221.94L63.29,233.24L70.31,251.24L77.34,254.15L84.36,269.54L91.38,270.73L98.41,284.63L105.43,283.07L112.46,296.17L119.48,291.97L126.51,304.81L133.53,299.17L140.55,311.16L147.58,304.41L154.6,316.16L161.63,309.44L168.65,320.22L175.67,313.41L182.7,323.24L189.72,316.6L196.75,325.93L203.77,319.29L210.8,327.73L217.82,321.79L224.84,329.35L231.87,323.94L238.89,330.68L245.92,325.69L252.94,331.54L259.97,327.64L266.99,332.67L274.01,329.11L281.04,333.51L288.06,330.28L295.09,334.71L302.11,331.12L309.13,335.6L316.16,331.6L323.18,336.52L330.21,332.33L337.23,337.38L344.26,333.12L351.28,337.86L358.3,334.05L365.33,338.57L372.35,334.64L379.38,339.21L386.4,335.25L393.42,339.73L400.45,335.96L407.47,340.15L414.5,336.33L421.52,340.5L428.55,337.06L435.57,340.93L442.59,337.55L449.62,340.86L456.64,338.41L463.67,341.17L470.69,338.81L477.71,341.51L484.74,338.87" style="vector-effect: non-scaling-stroke; fill: none; stroke: rgb(0, 128, 0); stroke-opacity: 1; stroke-width: 1px; opacity: 1;"/></g><g class="points"/><g class="text"/></g></g></g><g class="overplot"/><path class="xlines-above crisp" d="M73.68439413823272,420.9322506561679H573.5419947506563" style="fill: none; stroke-width: 1px; stroke: rgb(0, 0, 0); stroke-opacity: 1;"/><path class="ylines-above crisp" d="M74.18439413823272,63.83858267716535V420.4322506561679" style="fill: none; stroke-width: 1px; stroke: rgb(0, 0, 0); stroke-opacity: 1;"/><g class="overlines-above"/><g class="xaxislayer-above"><path class="xtick ticks crisp" d="M0,420.4322506561679v-5" transform="translate(88.80439413823272,0)" style="stroke: rgb(0, 0, 0); stroke-opacity: 1; stroke-width: 1px;"/><path class="xtick ticks crisp" d="M0,420.4322506561679v-5" transform="translate(159.04439413823272,0)" style="stroke: rgb(0, 0, 0); stroke-opacity: 1; stroke-width: 1px;"/><path class="xtick ticks crisp" d="M0,420.4322506561679v-5" transform="translate(229.2843941382327,0)" style="stroke: rgb(0, 0, 0); stroke-opacity: 1; stroke-width: 1px;"/><path class="xtick ticks crisp" d="M0,420.4322506561679v-5" transform="translate(299.5243941382327,0)" style="stroke: rgb(0, 0, 0); stroke-opacity: 1; stroke-width: 1px;"/><path class="xtick ticks crisp" d="M0,420.4322506561679v-5" transform="translate(369.7743941382327,0)" style="stroke: rgb(0, 0, 0); stroke-opacity: 1; stroke-width: 1px;"/><path class="xtick ticks crisp" d="M0,420.4322506561679v-5" transform="translate(440.0143941382327,0)" style="stroke: rgb(0, 0, 0); stroke-opacity: 1; stroke-width: 1px;"/><path class="xtick ticks crisp" d="M0,420.4322506561679v-5" transform="translate(510.2543941382327,0)" style="stroke: rgb(0, 0, 0); stroke-opacity: 1; stroke-width: 1px;"/><g class="xtick"><text text-anchor="middle" x="0" y="434.6322506561679" transform="translate(88.80439413823272,0)" style="font-family: sans-serif; font-size: 11px; fill: rgb(0, 0, 0); fill-opacity: 1; white-space: pre;">0</text></g><g class="xtick"><text text-anchor="middle" x="0" y="434.6322506561679" transform="translate(159.04439413823272,0)" style="font-family: sans-serif; font-size: 11px; fill: rgb(0, 0, 0); fill-opacity: 1; white-space: pre;">10</text></g><g class="xtick"><text text-anchor="middle" x="0" y="434.6322506561679" transform="translate(229.2843941382327,0)" style="font-family: sans-serif; font-size: 11px; fill: rgb(0, 0, 0); fill-opacity: 1; white-space: pre;">20</text></g><g class="xtick"><text text-anchor="middle" x="0" y="434.6322506561679" transform="translate(299.5243941382327,0)" style="font-family: sans-serif; font-size: 11px; fill: rgb(0, 0, 0); fill-opacity: 1; white-space: pre;">30</text></g><g class="xtick"><text text-anchor="middle" x="0" y="434.6322506561679" transform="translate(369.7743941382327,0)" style="font-family: sans-serif; font-size: 11px; fill: rgb(0, 0, 0); fill-opacity: 1; white-space: pre;">40</text></g><g class="xtick"><text text-anchor="middle" x="0" y="434.6322506561679" transform="translate(440.0143941382327,0)" style="font-family: sans-serif; font-size: 11px; fill: rgb(0, 0, 0); fill-opacity: 1; white-space: pre;">50</text></g><g class="xtick"><text text-anchor="middle" x="0" y="434.6322506561679" transform="translate(510.2543941382327,0)" style="font-family: sans-serif; font-size: 11px; fill: rgb(0, 0, 0); fill-opacity: 1; white-space: pre;">60</text></g></g><g class="yaxislayer-above"><path class="ytick ticks crisp" d="M74.68439413823272,0h5" transform="translate(0,415.6585826771653)" style="stroke: rgb(0, 0, 0); stroke-opacity: 1; stroke-width: 1px;"/><path class="ytick ticks crisp" d="M74.68439413823272,0h5" transform="translate(0,340.4285826771653)" style="stroke: rgb(0, 0, 0); stroke-opacity: 1; stroke-width: 1px;"/><path class="ytick ticks crisp" d="M74.68439413823272,0h5" transform="translate(0,265.20858267716534)" style="stroke: rgb(0, 0, 0); stroke-opacity: 1; stroke-width: 1px;"/><path class="ytick ticks crisp" d="M74.68439413823272,0h5" transform="translate(0,189.97858267716535)" style="stroke: rgb(0, 0, 0); stroke-opacity: 1; stroke-width: 1px;"/><path class="ytick ticks crisp" d="M74.68439413823272,0h5" transform="translate(0,114.75858267716535)" style="stroke: rgb(0, 0, 0); stroke-opacity: 1; stroke-width: 1px;"/><g class="ytick"><text text-anchor="end" x="71.48439413823272" y="3.8499999999999996" transform="translate(0,415.6585826771653)" style="font-family: sans-serif; font-size: 11px; fill: rgb(0, 0, 0); fill-opacity: 1; white-space: pre;">0</text></g><g class="ytick"><text text-anchor="end" x="71.48439413823272" y="3.8499999999999996" transform="translate(0,340.4285826771653)" style="font-family: sans-serif; font-size: 11px; fill: rgb(0, 0, 0); fill-opacity: 1; white-space: pre;">1</text></g><g class="ytick"><text text-anchor="end" x="71.48439413823272" y="3.8499999999999996" transform="translate(0,265.20858267716534)" style="font-family: sans-serif; font-size: 11px; fill: rgb(0, 0, 0); fill-opacity: 1; white-space: pre;">2</text></g><g class="ytick"><text text-anchor="end" x="71.48439413823272" y="3.8499999999999996" transform="translate(0,189.97858267716535)" style="font-family: sans-serif; font-size: 11px; fill: rgb(0, 0, 0); fill-opacity: 1; white-space: pre;">3</text></g><g class="ytick"><text text-anchor="end" x="71.48439413823272" y="3.8499999999999996" transform="translate(0,114.75858267716535)" style="font-family: sans-serif; font-size: 11px; fill: rgb(0, 0, 0); fill-opacity: 1; white-space: pre;">4</text></g></g><g class="overaxes-above"/></g></g><g class="polarlayer"/><g class="ternarylayer"/><g class="geolayer"/><g class="funnelarealayer"/><g class="pielayer"/><g class="treemaplayer"/><g class="sunburstlayer"/><g class="glimages"/><defs id="topdefs-03d8e8"><g class="clips"/><clipPath id="legend03d8e8"><rect width="100" height="87" x="0" y="0"/></clipPath></defs><g class="layer-above"><g class="imagelayer"/><g class="shapelayer"/></g><g class="infolayer"><g class="legend" pointer-events="all" transform="translate(587.54,60)"><rect class="bg" shape-rendering="crispEdges" style="stroke: rgb(68, 68, 68); stroke-opacity: 1; fill: rgb(255, 255, 255); fill-opacity: 1; stroke-width: 0px;" width="100" height="87" x="0" y="0"/><g class="scrollbox" transform="" clip-path="url('#legend03d8e8')"><g class="groups" transform=""><g class="traces" transform="translate(0,14.5)" style="opacity: 1;"><text class="legendtext" text-anchor="start" x="40" y="4.680000000000001" style="font-family: 'Open Sans', verdana, arial, sans-serif; font-size: 12px; fill: rgb(42, 63, 95); fill-opacity: 1; white-space: pre;">train</text><g class="layers" style="opacity: 1;"><g class="legendfill"/><g class="legendlines"><path class="js-line" d="M5,0h30" style="fill: none; stroke: rgb(255, 0, 0); stroke-opacity: 1; stroke-width: 1px;"/></g><g class="legendsymbols"><g class="legendpoints"/></g></g><rect class="legendtoggle" x="0" y="-9.5" width="94.671875" height="19" style="fill: rgb(0, 0, 0); fill-opacity: 0;"/></g></g><g class="groups" transform="translate(0,10)"><g class="traces" transform="translate(0,33.5)" style="opacity: 1;"><text class="legendtext" text-anchor="start" x="40" y="4.680000000000001" style="font-family: 'Open Sans', verdana, arial, sans-serif; font-size: 12px; fill: rgb(42, 63, 95); fill-opacity: 1; white-space: pre;">validation</text><g class="layers" style="opacity: 1;"><g class="legendfill"/><g class="legendlines"><path class="js-line" d="M5,0h30" style="fill: none; stroke: rgb(0, 0, 255); stroke-opacity: 1; stroke-width: 1px;"/></g><g class="legendsymbols"><g class="legendpoints"/></g></g><rect class="legendtoggle" x="0" y="-9.5" width="94.671875" height="19" style="fill: rgb(0, 0, 0); fill-opacity: 0;"/></g></g><g class="groups" transform="translate(0,20)"><g class="traces" transform="translate(0,52.5)" style="opacity: 1;"><text class="legendtext" text-anchor="start" x="40" y="4.680000000000001" style="font-family: 'Open Sans', verdana, arial, sans-serif; font-size: 12px; fill: rgb(42, 63, 95); fill-opacity: 1; white-space: pre;">test</text><g class="layers" style="opacity: 1;"><g class="legendfill"/><g class="legendlines"><path class="js-line" d="M5,0h30" style="fill: none; stroke: rgb(0, 128, 0); stroke-opacity: 1; stroke-width: 1px;"/></g><g class="legendsymbols"><g class="legendpoints"/></g></g><rect class="legendtoggle" x="0" y="-9.5" width="94.671875" height="19" style="fill: rgb(0, 0, 0); fill-opacity: 0;"/></g></g></g><rect class="scrollbar" rx="20" ry="3" width="0" height="0" style="fill: rgb(128, 139, 164); fill-opacity: 1;" x="0" y="0"/></g><g class="g-gtitle"/><g class="g-xtitle"><text class="xtitle" x="324.1131944444445" y="462.140625" text-anchor="middle" style="font-family: sans-serif; font-size: 15px; fill: rgb(0, 0, 0); opacity: 1; font-weight: normal; white-space: pre;">Epoch</text></g><g class="g-ytitle"><text class="ytitle" transform="rotate(-90,39.859375,242.13541666666663)" x="39.859375" y="242.13541666666663" text-anchor="middle" style="font-family: sans-serif; font-size: 15px; fill: rgb(0, 0, 0); opacity: 1; font-weight: normal; white-space: pre;">Loss</text></g></g></svg>