<?xml version="1.0" encoding="utf-8"?>
<svg xmlns="http://www.w3.org/2000/svg" xmlns:xlink="http://www.w3.org/1999/xlink" width="600" height="400" viewBox="0 0 2400 1600">
<defs>
  <clipPath id="clip640">
    <rect x="0" y="0" width="2400" height="1600"/>
  </clipPath>
</defs>
<path clip-path="url(#clip640)" d="
M0 1600 L2400 1600 L2400 0 L0 0  Z
  " fill="#ffffff" fill-rule="evenodd" fill-opacity="1"/>
<defs>
  <clipPath id="clip641">
    <rect x="480" y="0" width="1681" height="1600"/>
  </clipPath>
</defs>
<path clip-path="url(#clip640)" d="
M249.542 1423.18 L2352.76 1423.18 L2352.76 47.2441 L249.542 47.2441  Z
  " fill="#ffffff" fill-rule="evenodd" fill-opacity="1"/>
<defs>
  <clipPath id="clip642">
    <rect x="249" y="47" width="2104" height="1377"/>
  </clipPath>
</defs>
<polyline clip-path="url(#clip642)" style="stroke:#000000; stroke-linecap:butt; stroke-linejoin:round; stroke-width:2; stroke-opacity:0.1; fill:none" points="
  309.067,1423.18 309.067,47.2441 
  "/>
<polyline clip-path="url(#clip642)" style="stroke:#000000; stroke-linecap:butt; stroke-linejoin:round; stroke-width:2; stroke-opacity:0.1; fill:none" points="
  983.953,1423.18 983.953,47.2441 
  "/>
<polyline clip-path="url(#clip642)" style="stroke:#000000; stroke-linecap:butt; stroke-linejoin:round; stroke-width:2; stroke-opacity:0.1; fill:none" points="
  1658.84,1423.18 1658.84,47.2441 
  "/>
<polyline clip-path="url(#clip642)" style="stroke:#000000; stroke-linecap:butt; stroke-linejoin:round; stroke-width:2; stroke-opacity:0.1; fill:none" points="
  2333.72,1423.18 2333.72,47.2441 
  "/>
<polyline clip-path="url(#clip640)" style="stroke:#000000; stroke-linecap:butt; stroke-linejoin:round; stroke-width:4; stroke-opacity:1; fill:none" points="
  249.542,1423.18 2352.76,1423.18 
  "/>
<polyline clip-path="url(#clip640)" style="stroke:#000000; stroke-linecap:butt; stroke-linejoin:round; stroke-width:4; stroke-opacity:1; fill:none" points="
  309.067,1423.18 309.067,1404.28 
  "/>
<polyline clip-path="url(#clip640)" style="stroke:#000000; stroke-linecap:butt; stroke-linejoin:round; stroke-width:4; stroke-opacity:1; fill:none" points="
  983.953,1423.18 983.953,1404.28 
  "/>
<polyline clip-path="url(#clip640)" style="stroke:#000000; stroke-linecap:butt; stroke-linejoin:round; stroke-width:4; stroke-opacity:1; fill:none" points="
  1658.84,1423.18 1658.84,1404.28 
  "/>
<polyline clip-path="url(#clip640)" style="stroke:#000000; stroke-linecap:butt; stroke-linejoin:round; stroke-width:4; stroke-opacity:1; fill:none" points="
  2333.72,1423.18 2333.72,1404.28 
  "/>
<path clip-path="url(#clip640)" d="M309.067 1454.1 Q305.456 1454.1 303.627 1457.66 Q301.822 1461.2 301.822 1468.33 Q301.822 1475.44 303.627 1479.01 Q305.456 1482.55 309.067 1482.55 Q312.701 1482.55 314.507 1479.01 Q316.335 1475.44 316.335 1468.33 Q316.335 1461.2 314.507 1457.66 Q312.701 1454.1 309.067 1454.1 M309.067 1450.39 Q314.877 1450.39 317.933 1455 Q321.011 1459.58 321.011 1468.33 Q321.011 1477.06 317.933 1481.67 Q314.877 1486.25 309.067 1486.25 Q303.257 1486.25 300.178 1481.67 Q297.123 1477.06 297.123 1468.33 Q297.123 1459.58 300.178 1455 Q303.257 1450.39 309.067 1450.39 Z" fill="#000000" fill-rule="evenodd" fill-opacity="1" /><path clip-path="url(#clip640)" d="M943.559 1481.64 L951.198 1481.64 L951.198 1455.28 L942.888 1456.95 L942.888 1452.69 L951.152 1451.02 L955.828 1451.02 L955.828 1481.64 L963.467 1481.64 L963.467 1485.58 L943.559 1485.58 L943.559 1481.64 Z" fill="#000000" fill-rule="evenodd" fill-opacity="1" /><path clip-path="url(#clip640)" d="M982.911 1454.1 Q979.3 1454.1 977.471 1457.66 Q975.666 1461.2 975.666 1468.33 Q975.666 1475.44 977.471 1479.01 Q979.3 1482.55 982.911 1482.55 Q986.545 1482.55 988.351 1479.01 Q990.179 1475.44 990.179 1468.33 Q990.179 1461.2 988.351 1457.66 Q986.545 1454.1 982.911 1454.1 M982.911 1450.39 Q988.721 1450.39 991.777 1455 Q994.855 1459.58 994.855 1468.33 Q994.855 1477.06 991.777 1481.67 Q988.721 1486.25 982.911 1486.25 Q977.101 1486.25 974.022 1481.67 Q970.967 1477.06 970.967 1468.33 Q970.967 1459.58 974.022 1455 Q977.101 1450.39 982.911 1450.39 Z" fill="#000000" fill-rule="evenodd" fill-opacity="1" /><path clip-path="url(#clip640)" d="M1013.07 1454.1 Q1009.46 1454.1 1007.63 1457.66 Q1005.83 1461.2 1005.83 1468.33 Q1005.83 1475.44 1007.63 1479.01 Q1009.46 1482.55 1013.07 1482.55 Q1016.71 1482.55 1018.51 1479.01 Q1020.34 1475.44 1020.34 1468.33 Q1020.34 1461.2 1018.51 1457.66 Q1016.71 1454.1 1013.07 1454.1 M1013.07 1450.39 Q1018.88 1450.39 1021.94 1455 Q1025.02 1459.58 1025.02 1468.33 Q1025.02 1477.06 1021.94 1481.67 Q1018.88 1486.25 1013.07 1486.25 Q1007.26 1486.25 1004.18 1481.67 Q1001.13 1477.06 1001.13 1468.33 Q1001.13 1459.58 1004.18 1455 Q1007.26 1450.39 1013.07 1450.39 Z" fill="#000000" fill-rule="evenodd" fill-opacity="1" /><path clip-path="url(#clip640)" d="M1622.53 1481.64 L1638.85 1481.64 L1638.85 1485.58 L1616.91 1485.58 L1616.91 1481.64 Q1619.57 1478.89 1624.15 1474.26 Q1628.76 1469.61 1629.94 1468.27 Q1632.18 1465.74 1633.06 1464.01 Q1633.97 1462.25 1633.97 1460.56 Q1633.97 1457.8 1632.02 1456.07 Q1630.1 1454.33 1627 1454.33 Q1624.8 1454.33 1622.35 1455.09 Q1619.92 1455.86 1617.14 1457.41 L1617.14 1452.69 Q1619.96 1451.55 1622.41 1450.97 Q1624.87 1450.39 1626.91 1450.39 Q1632.28 1450.39 1635.47 1453.08 Q1638.66 1455.77 1638.66 1460.26 Q1638.66 1462.39 1637.85 1464.31 Q1637.07 1466.2 1634.96 1468.8 Q1634.38 1469.47 1631.28 1472.69 Q1628.18 1475.88 1622.53 1481.64 Z" fill="#000000" fill-rule="evenodd" fill-opacity="1" /><path clip-path="url(#clip640)" d="M1658.66 1454.1 Q1655.05 1454.1 1653.23 1457.66 Q1651.42 1461.2 1651.42 1468.33 Q1651.42 1475.44 1653.23 1479.01 Q1655.05 1482.55 1658.66 1482.55 Q1662.3 1482.55 1664.1 1479.01 Q1665.93 1475.44 1665.93 1468.33 Q1665.93 1461.2 1664.1 1457.66 Q1662.3 1454.1 1658.66 1454.1 M1658.66 1450.39 Q1664.47 1450.39 1667.53 1455 Q1670.61 1459.58 1670.61 1468.33 Q1670.61 1477.06 1667.53 1481.67 Q1664.47 1486.25 1658.66 1486.25 Q1652.85 1486.25 1649.78 1481.67 Q1646.72 1477.06 1646.72 1468.33 Q1646.72 1459.58 1649.78 1455 Q1652.85 1450.39 1658.66 1450.39 Z" fill="#000000" fill-rule="evenodd" fill-opacity="1" /><path clip-path="url(#clip640)" d="M1688.83 1454.1 Q1685.22 1454.1 1683.39 1457.66 Q1681.58 1461.2 1681.58 1468.33 Q1681.58 1475.44 1683.39 1479.01 Q1685.22 1482.55 1688.83 1482.55 Q1692.46 1482.55 1694.27 1479.01 Q1696.1 1475.44 1696.1 1468.33 Q1696.1 1461.2 1694.27 1457.66 Q1692.46 1454.1 1688.83 1454.1 M1688.83 1450.39 Q1694.64 1450.39 1697.69 1455 Q1700.77 1459.58 1700.77 1468.33 Q1700.77 1477.06 1697.69 1481.67 Q1694.64 1486.25 1688.83 1486.25 Q1683.02 1486.25 1679.94 1481.67 Q1676.88 1477.06 1676.88 1468.33 Q1676.88 1459.58 1679.94 1455 Q1683.02 1450.39 1688.83 1450.39 Z" fill="#000000" fill-rule="evenodd" fill-opacity="1" /><path clip-path="url(#clip640)" d="M2307.49 1466.95 Q2310.84 1467.66 2312.72 1469.93 Q2314.62 1472.2 2314.62 1475.53 Q2314.62 1480.65 2311.1 1483.45 Q2307.58 1486.25 2301.1 1486.25 Q2298.92 1486.25 2296.61 1485.81 Q2294.31 1485.39 2291.86 1484.54 L2291.86 1480.02 Q2293.81 1481.16 2296.12 1481.74 Q2298.43 1482.32 2300.96 1482.32 Q2305.36 1482.32 2307.65 1480.58 Q2309.96 1478.84 2309.96 1475.53 Q2309.96 1472.48 2307.81 1470.77 Q2305.68 1469.03 2301.86 1469.03 L2297.83 1469.03 L2297.83 1465.19 L2302.05 1465.19 Q2305.5 1465.19 2307.32 1463.82 Q2309.15 1462.43 2309.15 1459.84 Q2309.15 1457.18 2307.25 1455.77 Q2305.38 1454.33 2301.86 1454.33 Q2299.94 1454.33 2297.74 1454.75 Q2295.54 1455.16 2292.9 1456.04 L2292.9 1451.88 Q2295.56 1451.14 2297.88 1450.77 Q2300.22 1450.39 2302.28 1450.39 Q2307.6 1450.39 2310.7 1452.83 Q2313.81 1455.23 2313.81 1459.35 Q2313.81 1462.22 2312.16 1464.21 Q2310.52 1466.18 2307.49 1466.95 Z" fill="#000000" fill-rule="evenodd" fill-opacity="1" /><path clip-path="url(#clip640)" d="M2333.48 1454.1 Q2329.87 1454.1 2328.04 1457.66 Q2326.24 1461.2 2326.24 1468.33 Q2326.24 1475.44 2328.04 1479.01 Q2329.87 1482.55 2333.48 1482.55 Q2337.12 1482.55 2338.92 1479.01 Q2340.75 1475.44 2340.75 1468.33 Q2340.75 1461.2 2338.92 1457.66 Q2337.12 1454.1 2333.48 1454.1 M2333.48 1450.39 Q2339.29 1450.39 2342.35 1455 Q2345.43 1459.58 2345.43 1468.33 Q2345.43 1477.06 2342.35 1481.67 Q2339.29 1486.25 2333.48 1486.25 Q2327.67 1486.25 2324.59 1481.67 Q2321.54 1477.06 2321.54 1468.33 Q2321.54 1459.58 2324.59 1455 Q2327.67 1450.39 2333.48 1450.39 Z" fill="#000000" fill-rule="evenodd" fill-opacity="1" /><path clip-path="url(#clip640)" d="M2363.64 1454.1 Q2360.03 1454.1 2358.2 1457.66 Q2356.4 1461.2 2356.4 1468.33 Q2356.4 1475.44 2358.2 1479.01 Q2360.03 1482.55 2363.64 1482.55 Q2367.28 1482.55 2369.08 1479.01 Q2370.91 1475.44 2370.91 1468.33 Q2370.91 1461.2 2369.08 1457.66 Q2367.28 1454.1 2363.64 1454.1 M2363.64 1450.39 Q2369.45 1450.39 2372.51 1455 Q2375.59 1459.58 2375.59 1468.33 Q2375.59 1477.06 2372.51 1481.67 Q2369.45 1486.25 2363.64 1486.25 Q2357.83 1486.25 2354.75 1481.67 Q2351.7 1477.06 2351.7 1468.33 Q2351.7 1459.58 2354.75 1455 Q2357.83 1450.39 2363.64 1450.39 Z" fill="#000000" fill-rule="evenodd" fill-opacity="1" /><path clip-path="url(#clip640)" d="M1207.32 1520.52 L1237.36 1520.52 L1237.36 1525.93 L1213.75 1525.93 L1213.75 1540 L1236.38 1540 L1236.38 1545.41 L1213.75 1545.41 L1213.75 1562.63 L1237.94 1562.63 L1237.94 1568.04 L1207.32 1568.04 L1207.32 1520.52 Z" fill="#000000" fill-rule="evenodd" fill-opacity="1" /><path clip-path="url(#clip640)" d="M1253.92 1562.7 L1253.92 1581.6 L1248.03 1581.6 L1248.03 1532.4 L1253.92 1532.4 L1253.92 1537.81 Q1255.76 1534.62 1258.56 1533.1 Q1261.4 1531.54 1265.31 1531.54 Q1271.8 1531.54 1275.85 1536.69 Q1279.92 1541.85 1279.92 1550.25 Q1279.92 1558.65 1275.85 1563.81 Q1271.8 1568.97 1265.31 1568.97 Q1261.4 1568.97 1258.56 1567.44 Q1255.76 1565.88 1253.92 1562.7 M1273.84 1550.25 Q1273.84 1543.79 1271.17 1540.13 Q1268.52 1536.44 1263.88 1536.44 Q1259.23 1536.44 1256.56 1540.13 Q1253.92 1543.79 1253.92 1550.25 Q1253.92 1556.71 1256.56 1560.4 Q1259.23 1564.07 1263.88 1564.07 Q1268.52 1564.07 1271.17 1560.4 Q1273.84 1556.71 1273.84 1550.25 Z" fill="#000000" fill-rule="evenodd" fill-opacity="1" /><path clip-path="url(#clip640)" d="M1303.44 1536.5 Q1298.73 1536.5 1295.99 1540.19 Q1293.26 1543.85 1293.26 1550.25 Q1293.26 1556.65 1295.96 1560.34 Q1298.7 1564 1303.44 1564 Q1308.12 1564 1310.86 1560.31 Q1313.59 1556.62 1313.59 1550.25 Q1313.59 1543.92 1310.86 1540.23 Q1308.12 1536.5 1303.44 1536.5 M1303.44 1531.54 Q1311.08 1531.54 1315.44 1536.5 Q1319.8 1541.47 1319.8 1550.25 Q1319.8 1559 1315.44 1564 Q1311.08 1568.97 1303.44 1568.97 Q1295.77 1568.97 1291.41 1564 Q1287.08 1559 1287.08 1550.25 Q1287.08 1541.47 1291.41 1536.5 Q1295.77 1531.54 1303.44 1531.54 Z" fill="#000000" fill-rule="evenodd" fill-opacity="1" /><path clip-path="url(#clip640)" d="M1355.16 1533.76 L1355.16 1539.24 Q1352.68 1537.87 1350.16 1537.2 Q1347.68 1536.5 1345.14 1536.5 Q1339.44 1536.5 1336.29 1540.13 Q1333.14 1543.73 1333.14 1550.25 Q1333.14 1556.78 1336.29 1560.4 Q1339.44 1564 1345.14 1564 Q1347.68 1564 1350.16 1563.33 Q1352.68 1562.63 1355.16 1561.26 L1355.16 1566.68 Q1352.71 1567.82 1350.07 1568.39 Q1347.46 1568.97 1344.5 1568.97 Q1336.45 1568.97 1331.7 1563.91 Q1326.96 1558.85 1326.96 1550.25 Q1326.96 1541.53 1331.74 1536.53 Q1336.54 1531.54 1344.88 1531.54 Q1347.59 1531.54 1350.16 1532.11 Q1352.74 1532.65 1355.16 1533.76 Z" fill="#000000" fill-rule="evenodd" fill-opacity="1" /><path clip-path="url(#clip640)" d="M1394.98 1546.53 L1394.98 1568.04 L1389.12 1568.04 L1389.12 1546.72 Q1389.12 1541.66 1387.15 1539.14 Q1385.18 1536.63 1381.23 1536.63 Q1376.49 1536.63 1373.75 1539.65 Q1371.01 1542.68 1371.01 1547.9 L1371.01 1568.04 L1365.12 1568.04 L1365.12 1518.52 L1371.01 1518.52 L1371.01 1537.93 Q1373.11 1534.72 1375.95 1533.13 Q1378.81 1531.54 1382.53 1531.54 Q1388.68 1531.54 1391.83 1535.36 Q1394.98 1539.14 1394.98 1546.53 Z" fill="#000000" fill-rule="evenodd" fill-opacity="1" /><polyline clip-path="url(#clip642)" style="stroke:#000000; stroke-linecap:butt; stroke-linejoin:round; stroke-width:2; stroke-opacity:0.1; fill:none" points="
  249.542,1148.22 2352.76,1148.22 
  "/>
<polyline clip-path="url(#clip642)" style="stroke:#000000; stroke-linecap:butt; stroke-linejoin:round; stroke-width:2; stroke-opacity:0.1; fill:none" points="
  249.542,865.869 2352.76,865.869 
  "/>
<polyline clip-path="url(#clip642)" style="stroke:#000000; stroke-linecap:butt; stroke-linejoin:round; stroke-width:2; stroke-opacity:0.1; fill:none" points="
  249.542,583.52 2352.76,583.52 
  "/>
<polyline clip-path="url(#clip642)" style="stroke:#000000; stroke-linecap:butt; stroke-linejoin:round; stroke-width:2; stroke-opacity:0.1; fill:none" points="
  249.542,301.171 2352.76,301.171 
  "/>
<polyline clip-path="url(#clip640)" style="stroke:#000000; stroke-linecap:butt; stroke-linejoin:round; stroke-width:4; stroke-opacity:1; fill:none" points="
  249.542,1423.18 249.542,47.2441 
  "/>
<polyline clip-path="url(#clip640)" style="stroke:#000000; stroke-linecap:butt; stroke-linejoin:round; stroke-width:4; stroke-opacity:1; fill:none" points="
  249.542,1148.22 268.44,1148.22 
  "/>
<polyline clip-path="url(#clip640)" style="stroke:#000000; stroke-linecap:butt; stroke-linejoin:round; stroke-width:4; stroke-opacity:1; fill:none" points="
  249.542,865.869 268.44,865.869 
  "/>
<polyline clip-path="url(#clip640)" style="stroke:#000000; stroke-linecap:butt; stroke-linejoin:round; stroke-width:4; stroke-opacity:1; fill:none" points="
  249.542,583.52 268.44,583.52 
  "/>
<polyline clip-path="url(#clip640)" style="stroke:#000000; stroke-linecap:butt; stroke-linejoin:round; stroke-width:4; stroke-opacity:1; fill:none" points="
  249.542,301.171 268.44,301.171 
  "/>
<path clip-path="url(#clip640)" d="M127.2 1134.02 Q123.589 1134.02 121.76 1137.58 Q119.955 1141.12 119.955 1148.25 Q119.955 1155.36 121.76 1158.92 Q123.589 1162.47 127.2 1162.47 Q130.834 1162.47 132.64 1158.92 Q134.468 1155.36 134.468 1148.25 Q134.468 1141.12 132.64 1137.58 Q130.834 1134.02 127.2 1134.02 M127.2 1130.31 Q133.01 1130.31 136.066 1134.92 Q139.144 1139.5 139.144 1148.25 Q139.144 1156.98 136.066 1161.59 Q133.01 1166.17 127.2 1166.17 Q121.39 1166.17 118.311 1161.59 Q115.256 1156.98 115.256 1148.25 Q115.256 1139.5 118.311 1134.92 Q121.39 1130.31 127.2 1130.31 Z" fill="#000000" fill-rule="evenodd" fill-opacity="1" /><path clip-path="url(#clip640)" d="M147.362 1159.62 L152.246 1159.62 L152.246 1165.5 L147.362 1165.5 L147.362 1159.62 Z" fill="#000000" fill-rule="evenodd" fill-opacity="1" /><path clip-path="url(#clip640)" d="M166.459 1161.56 L182.778 1161.56 L182.778 1165.5 L160.834 1165.5 L160.834 1161.56 Q163.496 1158.81 168.079 1154.18 Q172.686 1149.53 173.866 1148.18 Q176.112 1145.66 176.991 1143.92 Q177.894 1142.16 177.894 1140.47 Q177.894 1137.72 175.95 1135.98 Q174.028 1134.25 170.927 1134.25 Q168.727 1134.25 166.274 1135.01 Q163.843 1135.78 161.065 1137.33 L161.065 1132.6 Q163.89 1131.47 166.343 1130.89 Q168.797 1130.31 170.834 1130.31 Q176.204 1130.31 179.399 1133 Q182.593 1135.68 182.593 1140.17 Q182.593 1142.3 181.783 1144.22 Q180.996 1146.12 178.889 1148.72 Q178.311 1149.39 175.209 1152.6 Q172.107 1155.8 166.459 1161.56 Z" fill="#000000" fill-rule="evenodd" fill-opacity="1" /><path clip-path="url(#clip640)" d="M192.639 1130.94 L210.996 1130.94 L210.996 1134.87 L196.922 1134.87 L196.922 1143.35 Q197.94 1143 198.959 1142.84 Q199.977 1142.65 200.996 1142.65 Q206.783 1142.65 210.162 1145.82 Q213.542 1148.99 213.542 1154.41 Q213.542 1159.99 210.07 1163.09 Q206.598 1166.17 200.278 1166.17 Q198.102 1166.17 195.834 1165.8 Q193.588 1165.43 191.181 1164.69 L191.181 1159.99 Q193.264 1161.12 195.487 1161.68 Q197.709 1162.23 200.186 1162.23 Q204.19 1162.23 206.528 1160.13 Q208.866 1158.02 208.866 1154.41 Q208.866 1150.8 206.528 1148.69 Q204.19 1146.59 200.186 1146.59 Q198.311 1146.59 196.436 1147 Q194.584 1147.42 192.639 1148.3 L192.639 1130.94 Z" fill="#000000" fill-rule="evenodd" fill-opacity="1" /><path clip-path="url(#clip640)" d="M126.205 851.668 Q122.593 851.668 120.765 855.233 Q118.959 858.774 118.959 865.904 Q118.959 873.01 120.765 876.575 Q122.593 880.117 126.205 880.117 Q129.839 880.117 131.644 876.575 Q133.473 873.01 133.473 865.904 Q133.473 858.774 131.644 855.233 Q129.839 851.668 126.205 851.668 M126.205 847.964 Q132.015 847.964 135.07 852.571 Q138.149 857.154 138.149 865.904 Q138.149 874.631 135.07 879.237 Q132.015 883.82 126.205 883.82 Q120.394 883.82 117.316 879.237 Q114.26 874.631 114.26 865.904 Q114.26 857.154 117.316 852.571 Q120.394 847.964 126.205 847.964 Z" fill="#000000" fill-rule="evenodd" fill-opacity="1" /><path clip-path="url(#clip640)" d="M146.366 877.269 L151.251 877.269 L151.251 883.149 L146.366 883.149 L146.366 877.269 Z" fill="#000000" fill-rule="evenodd" fill-opacity="1" /><path clip-path="url(#clip640)" d="M161.482 848.589 L179.839 848.589 L179.839 852.524 L165.765 852.524 L165.765 860.996 Q166.783 860.649 167.802 860.487 Q168.82 860.302 169.839 860.302 Q175.626 860.302 179.005 863.473 Q182.385 866.645 182.385 872.061 Q182.385 877.64 178.913 880.742 Q175.44 883.82 169.121 883.82 Q166.945 883.82 164.677 883.45 Q162.431 883.08 160.024 882.339 L160.024 877.64 Q162.107 878.774 164.329 879.33 Q166.552 879.885 169.028 879.885 Q173.033 879.885 175.371 877.779 Q177.709 875.672 177.709 872.061 Q177.709 868.45 175.371 866.344 Q173.033 864.237 169.028 864.237 Q167.153 864.237 165.278 864.654 Q163.427 865.07 161.482 865.95 L161.482 848.589 Z" fill="#000000" fill-rule="evenodd" fill-opacity="1" /><path clip-path="url(#clip640)" d="M201.598 851.668 Q197.987 851.668 196.158 855.233 Q194.352 858.774 194.352 865.904 Q194.352 873.01 196.158 876.575 Q197.987 880.117 201.598 880.117 Q205.232 880.117 207.037 876.575 Q208.866 873.01 208.866 865.904 Q208.866 858.774 207.037 855.233 Q205.232 851.668 201.598 851.668 M201.598 847.964 Q207.408 847.964 210.463 852.571 Q213.542 857.154 213.542 865.904 Q213.542 874.631 210.463 879.237 Q207.408 883.82 201.598 883.82 Q195.787 883.82 192.709 879.237 Q189.653 874.631 189.653 865.904 Q189.653 857.154 192.709 852.571 Q195.787 847.964 201.598 847.964 Z" fill="#000000" fill-rule="evenodd" fill-opacity="1" /><path clip-path="url(#clip640)" d="M127.2 569.319 Q123.589 569.319 121.76 572.884 Q119.955 576.425 119.955 583.555 Q119.955 590.661 121.76 594.226 Q123.589 597.768 127.2 597.768 Q130.834 597.768 132.64 594.226 Q134.468 590.661 134.468 583.555 Q134.468 576.425 132.64 572.884 Q130.834 569.319 127.2 569.319 M127.2 565.615 Q133.01 565.615 136.066 570.222 Q139.144 574.805 139.144 583.555 Q139.144 592.282 136.066 596.888 Q133.01 601.472 127.2 601.472 Q121.39 601.472 118.311 596.888 Q115.256 592.282 115.256 583.555 Q115.256 574.805 118.311 570.222 Q121.39 565.615 127.2 565.615 Z" fill="#000000" fill-rule="evenodd" fill-opacity="1" /><path clip-path="url(#clip640)" d="M147.362 594.921 L152.246 594.921 L152.246 600.8 L147.362 600.8 L147.362 594.921 Z" fill="#000000" fill-rule="evenodd" fill-opacity="1" /><path clip-path="url(#clip640)" d="M161.251 566.24 L183.473 566.24 L183.473 568.231 L170.927 600.8 L166.042 600.8 L177.848 570.175 L161.251 570.175 L161.251 566.24 Z" fill="#000000" fill-rule="evenodd" fill-opacity="1" /><path clip-path="url(#clip640)" d="M192.639 566.24 L210.996 566.24 L210.996 570.175 L196.922 570.175 L196.922 578.648 Q197.94 578.3 198.959 578.138 Q199.977 577.953 200.996 577.953 Q206.783 577.953 210.162 581.124 Q213.542 584.296 213.542 589.712 Q213.542 595.291 210.07 598.393 Q206.598 601.472 200.278 601.472 Q198.102 601.472 195.834 601.101 Q193.588 600.731 191.181 599.99 L191.181 595.291 Q193.264 596.425 195.487 596.981 Q197.709 597.536 200.186 597.536 Q204.19 597.536 206.528 595.43 Q208.866 593.323 208.866 589.712 Q208.866 586.101 206.528 583.995 Q204.19 581.888 200.186 581.888 Q198.311 581.888 196.436 582.305 Q194.584 582.722 192.639 583.601 L192.639 566.24 Z" fill="#000000" fill-rule="evenodd" fill-opacity="1" /><path clip-path="url(#clip640)" d="M117.015 314.516 L124.654 314.516 L124.654 288.151 L116.343 289.817 L116.343 285.558 L124.607 283.891 L129.283 283.891 L129.283 314.516 L136.922 314.516 L136.922 318.451 L117.015 318.451 L117.015 314.516 Z" fill="#000000" fill-rule="evenodd" fill-opacity="1" /><path clip-path="url(#clip640)" d="M146.366 312.572 L151.251 312.572 L151.251 318.451 L146.366 318.451 L146.366 312.572 Z" fill="#000000" fill-rule="evenodd" fill-opacity="1" /><path clip-path="url(#clip640)" d="M171.436 286.97 Q167.825 286.97 165.996 290.535 Q164.19 294.077 164.19 301.206 Q164.19 308.313 165.996 311.877 Q167.825 315.419 171.436 315.419 Q175.07 315.419 176.876 311.877 Q178.704 308.313 178.704 301.206 Q178.704 294.077 176.876 290.535 Q175.07 286.97 171.436 286.97 M171.436 283.266 Q177.246 283.266 180.301 287.873 Q183.38 292.456 183.38 301.206 Q183.38 309.933 180.301 314.539 Q177.246 319.123 171.436 319.123 Q165.626 319.123 162.547 314.539 Q159.491 309.933 159.491 301.206 Q159.491 292.456 162.547 287.873 Q165.626 283.266 171.436 283.266 Z" fill="#000000" fill-rule="evenodd" fill-opacity="1" /><path clip-path="url(#clip640)" d="M201.598 286.97 Q197.987 286.97 196.158 290.535 Q194.352 294.077 194.352 301.206 Q194.352 308.313 196.158 311.877 Q197.987 315.419 201.598 315.419 Q205.232 315.419 207.037 311.877 Q208.866 308.313 208.866 301.206 Q208.866 294.077 207.037 290.535 Q205.232 286.97 201.598 286.97 M201.598 283.266 Q207.408 283.266 210.463 287.873 Q213.542 292.456 213.542 301.206 Q213.542 309.933 210.463 314.539 Q207.408 319.123 201.598 319.123 Q195.787 319.123 192.709 314.539 Q189.653 309.933 189.653 301.206 Q189.653 292.456 192.709 287.873 Q195.787 283.266 201.598 283.266 Z" fill="#000000" fill-rule="evenodd" fill-opacity="1" /><path clip-path="url(#clip640)" d="M16.4842 801.909 L16.4842 795.479 L58.5933 795.479 L58.5933 772.34 L64.0042 772.34 L64.0042 801.909 L16.4842 801.909 Z" fill="#000000" fill-rule="evenodd" fill-opacity="1" /><path clip-path="url(#clip640)" d="M32.4621 753.179 Q32.4621 757.89 36.1542 760.627 Q39.8145 763.364 46.212 763.364 Q52.6095 763.364 56.3017 760.659 Q59.9619 757.922 59.9619 753.179 Q59.9619 748.5 56.2698 745.763 Q52.5777 743.026 46.212 743.026 Q39.8781 743.026 36.186 745.763 Q32.4621 748.5 32.4621 753.179 M27.4968 753.179 Q27.4968 745.54 32.4621 741.18 Q37.4273 736.819 46.212 736.819 Q54.9649 736.819 59.9619 741.18 Q64.9272 745.54 64.9272 753.179 Q64.9272 760.85 59.9619 765.21 Q54.9649 769.539 46.212 769.539 Q37.4273 769.539 32.4621 765.21 Q27.4968 760.85 27.4968 753.179 Z" fill="#000000" fill-rule="evenodd" fill-opacity="1" /><path clip-path="url(#clip640)" d="M29.4065 704.386 L34.9447 704.386 Q33.6716 706.869 33.035 709.542 Q32.3984 712.216 32.3984 715.08 Q32.3984 719.441 33.7352 721.637 Q35.072 723.801 37.7456 723.801 Q39.7826 723.801 40.9603 722.242 Q42.1061 720.682 43.1565 715.972 L43.6021 713.966 Q44.9389 707.728 47.3897 705.118 Q49.8086 702.476 54.1691 702.476 Q59.1344 702.476 62.0308 706.423 Q64.9272 710.338 64.9272 717.213 Q64.9272 720.078 64.3543 723.197 Q63.8132 726.284 62.6992 729.722 L56.6518 729.722 Q58.3387 726.475 59.198 723.324 Q60.0256 720.173 60.0256 717.086 Q60.0256 712.948 58.6251 710.72 Q57.1929 708.492 54.6147 708.492 Q52.2276 708.492 50.9545 710.115 Q49.6813 711.707 48.5037 717.149 L48.0262 719.186 Q46.8804 724.629 44.5251 727.048 Q42.138 729.467 38.0002 729.467 Q32.9713 729.467 30.2341 725.902 Q27.4968 722.337 27.4968 715.781 Q27.4968 712.534 27.9743 709.67 Q28.4517 706.805 29.4065 704.386 Z" fill="#000000" fill-rule="evenodd" fill-opacity="1" /><path clip-path="url(#clip640)" d="M29.4065 670.425 L34.9447 670.425 Q33.6716 672.908 33.035 675.581 Q32.3984 678.255 32.3984 681.119 Q32.3984 685.48 33.7352 687.676 Q35.072 689.84 37.7456 689.84 Q39.7826 689.84 40.9603 688.281 Q42.1061 686.721 43.1565 682.011 L43.6021 680.005 Q44.9389 673.767 47.3897 671.157 Q49.8086 668.515 54.1691 668.515 Q59.1344 668.515 62.0308 672.462 Q64.9272 676.377 64.9272 683.252 Q64.9272 686.116 64.3543 689.236 Q63.8132 692.323 62.6992 695.761 L56.6518 695.761 Q58.3387 692.514 59.198 689.363 Q60.0256 686.212 60.0256 683.125 Q60.0256 678.987 58.6251 676.759 Q57.1929 674.531 54.6147 674.531 Q52.2276 674.531 50.9545 676.154 Q49.6813 677.746 48.5037 683.188 L48.0262 685.225 Q46.8804 690.668 44.5251 693.087 Q42.138 695.506 38.0002 695.506 Q32.9713 695.506 30.2341 691.941 Q27.4968 688.376 27.4968 681.82 Q27.4968 678.573 27.9743 675.709 Q28.4517 672.844 29.4065 670.425 Z" fill="#000000" fill-rule="evenodd" fill-opacity="1" /><polyline clip-path="url(#clip642)" style="stroke:#ff0000; stroke-linecap:butt; stroke-linejoin:round; stroke-width:4; stroke-opacity:1; fill:none" points="
  309.067,86.1857 315.816,114.633 322.565,138.147 329.314,156.963 336.062,171.613 342.811,182.933 349.56,191.55 356.309,198.302 363.058,204.33 369.807,210.318 
  376.556,216.287 383.304,222.231 390.053,228.294 396.802,234.477 403.551,240.815 410.3,247.392 417.049,254.181 423.798,261.181 430.546,268.385 437.295,275.832 
  444.044,283.472 450.793,291.317 457.542,299.365 464.291,307.624 471.04,316.06 477.788,324.682 484.537,333.501 491.286,342.488 498.035,351.657 504.784,360.96 
  511.533,370.462 518.282,380.101 525.03,389.902 531.779,399.855 538.528,409.922 545.277,420.139 552.026,430.47 558.775,440.928 565.524,451.473 572.272,462.109 
  579.021,472.829 585.77,483.645 592.519,494.589 599.268,505.602 606.017,516.668 612.766,527.839 619.514,539.042 626.263,550.242 633.012,561.492 639.761,572.728 
  646.51,583.934 653.259,595.107 660.008,606.233 666.756,617.258 673.505,628.239 680.254,639.117 687.003,649.875 693.752,660.498 700.501,670.968 707.25,681.274 
  713.998,691.396 720.747,701.316 727.496,711.042 734.245,720.562 740.994,729.871 747.743,738.958 754.492,747.812 761.24,756.425 767.989,764.786 774.738,772.889 
  781.487,780.755 788.236,788.365 794.985,795.721 801.734,802.84 808.482,809.708 815.231,816.332 821.98,822.719 828.729,828.896 835.478,834.878 842.227,840.664 
  848.976,846.26 855.724,851.665 862.473,856.931 869.222,862.061 875.971,867.06 882.72,871.93 889.469,876.675 896.218,881.301 902.966,885.814 909.715,890.207 
  916.464,894.54 923.213,898.787 929.962,902.975 936.711,907.125 943.46,911.25 950.208,915.358 956.957,919.453 963.706,923.536 970.455,927.603 977.204,931.656 
  983.953,935.694 990.702,939.724 997.45,943.742 1004.2,947.748 1010.95,951.749 1017.7,955.717 1024.45,959.74 1031.19,963.731 1037.94,967.769 1044.69,971.793 
  1051.44,975.842 1058.19,979.891 1064.94,983.941 1071.69,988.004 1078.44,992.085 1085.19,996.167 1091.93,1000.28 1098.68,1004.41 1105.43,1008.53 1112.18,1012.68 
  1118.93,1016.86 1125.68,1021.02 1132.43,1025.19 1139.18,1029.42 1145.93,1033.66 1152.67,1037.92 1159.42,1042.19 1166.17,1046.49 1172.92,1050.8 1179.67,1055.08 
  1186.42,1059.4 1193.17,1063.75 1199.92,1068.14 1206.66,1072.5 1213.41,1076.94 1220.16,1081.36 1226.91,1085.71 1233.66,1090.09 1240.41,1094.53 1247.16,1098.98 
  1253.91,1103.46 1260.66,1107.89 1267.4,1112.34 1274.15,1116.71 1280.9,1121.23 1287.65,1125.63 1294.4,1130.08 1301.15,1134.42 1307.9,1138.91 1314.65,1143.21 
  1321.4,1147.62 1328.14,1151.89 1334.89,1156.32 1341.64,1160.69 1348.39,1164.99 1355.14,1169.18 1361.89,1173.43 1368.64,1177.55 1375.39,1181.66 1382.14,1185.75 
  1388.88,1189.77 1395.63,1193.79 1402.38,1197.82 1409.13,1201.87 1415.88,1205.87 1422.63,1209.82 1429.38,1213.72 1436.13,1217.55 1442.87,1221.34 1449.62,1225.06 
  1456.37,1228.79 1463.12,1232.39 1469.87,1236.05 1476.62,1239.67 1483.37,1243.23 1490.12,1246.73 1496.87,1250.09 1503.61,1253.51 1510.36,1256.79 1517.11,1260.11 
  1523.86,1263.34 1530.61,1266.52 1537.36,1269.6 1544.11,1272.66 1550.86,1275.64 1557.61,1278.6 1564.35,1281.48 1571.1,1284.34 1577.85,1287.16 1584.6,1289.94 
  1591.35,1292.64 1598.1,1295.34 1604.85,1298.02 1611.6,1300.66 1618.35,1303.23 1625.09,1305.75 1631.84,1308.21 1638.59,1310.55 1645.34,1312.84 1652.09,1315.03 
  1658.84,1317.26 1665.59,1319.34 1672.34,1321.48 1679.08,1323.49 1685.83,1325.56 1692.58,1327.59 1699.33,1329.57 1706.08,1331.44 1712.83,1333.3 1719.58,1335.02 
  1726.33,1336.72 1733.08,1338.26 1739.82,1339.89 1746.57,1341.28 1753.32,1342.86 1760.07,1344.28 1766.82,1345.71 1773.57,1346.86 1780.32,1348.34 1787.07,1349.72 
  1793.82,1351.1 1800.56,1352.4 1807.31,1353.65 1814.06,1354.6 1820.81,1355.8 1827.56,1356.8 1834.31,1357.89 1841.06,1358.6 1847.81,1359.76 1854.56,1360.8 
  1861.3,1361.76 1868.05,1362.37 1874.8,1363.35 1881.55,1364.05 1888.3,1364.98 1895.05,1365.5 1901.8,1366.16 1908.55,1366.61 1915.29,1367.31 1922.04,1367.71 
  1928.79,1368.38 1935.54,1368.61 1942.29,1369.38 1949.04,1369.85 1955.79,1370.37 1962.54,1370.67 1969.29,1371.28 1976.03,1371.45 1982.78,1372.12 1989.53,1372.4 
  1996.28,1372.93 2003.03,1373.12 2009.78,1373.63 2016.53,1373.81 2023.28,1374.3 2030.03,1374.48 2036.77,1374.95 2043.52,1375.12 2050.27,1375.58 2057.02,1375.74 
  2063.77,1376.18 2070.52,1376.34 2077.27,1376.69 2084.02,1376.92 2090.77,1377.21 2097.51,1377.49 2104.26,1377.79 2111.01,1378.04 2117.76,1378.28 2124.51,1378.58 
  2131.26,1378.75 2138.01,1379.1 2144.76,1379.26 2151.5,1379.71 2158.25,1379.84 2165,1380.21 2171.75,1380.3 2178.5,1380.69 2185.25,1380.76 2192,1381.16 
  2198.75,1381.17 2205.5,1381.61 2212.24,1381.61 2218.99,1382.06 2225.74,1382.04 2232.49,1382.56 2239.24,1382.49 2245.99,1382.98 2252.74,1382.9 2259.49,1383.39 
  2266.24,1383.27 2272.98,1383.79 2279.73,1383.66 2286.48,1384.24 2293.23,1384.1 
  "/>
<polyline clip-path="url(#clip642)" style="stroke:#0000ff; stroke-linecap:butt; stroke-linejoin:round; stroke-width:4; stroke-opacity:1; fill:none" points="
  309.067,108.862 315.816,131.436 322.565,149.525 329.314,163.12 336.062,172.899 342.811,180.113 349.56,185.456 356.309,190.305 363.058,195.821 369.807,202.97 
  376.556,210.233 383.304,217.466 390.053,223.609 396.802,230.82 403.551,238.067 410.3,245.126 417.049,252.475 423.798,260.169 430.546,268.476 437.295,276.501 
  444.044,284.855 450.793,293.057 457.542,301.983 464.291,310.616 471.04,319.566 477.788,328.996 484.537,338.185 491.286,348.003 498.035,357.452 504.784,368.126 
  511.533,377.927 518.282,388.202 525.03,398.903 531.779,409.215 538.528,420.375 545.277,430.366 552.026,441.523 558.775,452.065 565.524,463.333 572.272,473.468 
  579.021,485.434 585.77,495.577 592.519,507.074 599.268,518.529 606.017,529.124 612.766,540.681 619.514,552.23 626.263,563.222 633.012,574.606 639.761,585.94 
  646.51,597.204 653.259,608.477 660.008,619.502 666.756,629.944 673.505,640.719 680.254,651.446 687.003,661.886 693.752,672.219 700.501,682.261 707.25,692.03 
  713.998,701.59 720.747,710.823 727.496,720.386 734.245,729.744 740.994,738.877 747.743,747.686 754.492,756.241 761.24,764.464 767.989,772.418 774.738,780.021 
  781.487,787.973 788.236,795.586 794.985,802.295 801.734,809.322 808.482,816.078 815.231,822.553 821.98,828.809 828.729,834.893 835.478,840.686 842.227,846.28 
  848.976,851.644 855.724,856.796 862.473,862.027 869.222,867.136 875.971,872.117 882.72,876.979 889.469,881.749 896.218,886.394 902.966,891.053 909.715,896.194 
  916.464,900.766 923.213,905.931 929.962,910.438 936.711,915.605 943.46,920.857 950.208,926.154 956.957,931.462 963.706,936.79 970.455,942.136 977.204,947.459 
  983.953,952.752 990.702,958.035 997.45,963.341 1004.2,968.655 1010.95,973.751 1017.7,979.275 1024.45,983.879 1031.19,989.221 1037.94,993.867 1044.69,999.26 
  1051.44,1003.93 1058.19,1009.32 1064.94,1014.02 1071.69,1019.11 1078.44,1023.65 1085.19,1028.66 1091.93,1033.07 1098.68,1038.19 1105.43,1042.57 1112.18,1047.36 
  1118.93,1051.77 1125.68,1056.48 1132.43,1060.72 1139.18,1065.42 1145.93,1069.79 1152.67,1074.37 1159.42,1078.72 1166.17,1083.25 1172.92,1087.6 1179.67,1091.9 
  1186.42,1096.02 1193.17,1100.18 1199.92,1104.34 1206.66,1108.43 1213.41,1112.57 1220.16,1116.89 1226.91,1120.85 1233.66,1125.01 1240.41,1129 1247.16,1132.99 
  1253.91,1136.99 1260.66,1140.88 1267.4,1144.8 1274.15,1148.76 1280.9,1152.68 1287.65,1156.43 1294.4,1160.23 1301.15,1164.06 1307.9,1167.86 1314.65,1171.68 
  1321.4,1175.36 1328.14,1179.02 1334.89,1182.64 1341.64,1186.11 1348.39,1189.52 1355.14,1193.06 1361.89,1196.44 1368.64,1199.91 1375.39,1203.59 1382.14,1206.99 
  1388.88,1210.38 1395.63,1213.65 1402.38,1217.25 1409.13,1220.29 1415.88,1223.7 1422.63,1227.13 1429.38,1230.75 1436.13,1234.12 1442.87,1237.65 1449.62,1241.25 
  1456.37,1244.71 1463.12,1248.16 1469.87,1251.48 1476.62,1254.62 1483.37,1257.78 1490.12,1260.81 1496.87,1263.96 1503.61,1266.9 1510.36,1269.95 1517.11,1272.8 
  1523.86,1275.58 1530.61,1278.12 1537.36,1280.74 1544.11,1283.38 1550.86,1285.83 1557.61,1288.29 1564.35,1290.49 1571.1,1292.88 1577.85,1294.75 1584.6,1297.02 
  1591.35,1299.02 1598.1,1301.16 1604.85,1302.77 1611.6,1305.12 1618.35,1306.74 1625.09,1308.58 1631.84,1310.13 1638.59,1311.81 1645.34,1313.29 1652.09,1314.43 
  1658.84,1315.77 1665.59,1316.94 1672.34,1318.4 1679.08,1319.57 1685.83,1320.94 1692.58,1321.83 1699.33,1323.16 1706.08,1324.29 1712.83,1325.4 1719.58,1326.12 
  1726.33,1327.04 1733.08,1327.64 1739.82,1328.65 1746.57,1330.2 1753.32,1330.79 1760.07,1332.52 1766.82,1332.79 1773.57,1333.9 1780.32,1334.45 1787.07,1336.01 
  1793.82,1336.48 1800.56,1336.57 1807.31,1336.99 1814.06,1337.63 1820.81,1338.11 1827.56,1338.67 1834.31,1338.96 1841.06,1338.96 1847.81,1339.53 1854.56,1340.12 
  1861.3,1340.36 1868.05,1339.91 1874.8,1340.53 1881.55,1340.76 1888.3,1341.33 1895.05,1341.22 1901.8,1341.97 1908.55,1341.36 1915.29,1342.33 1922.04,1341.6 
  1928.79,1342.63 1935.54,1342 1942.29,1343.43 1949.04,1342.61 1955.79,1343.65 1962.54,1342.86 1969.29,1344.34 1976.03,1343.18 1982.78,1345.04 1989.53,1344.06 
  1996.28,1345.72 2003.03,1344.28 2009.78,1346.26 2016.53,1344.65 2023.28,1346.77 2030.03,1344.99 2036.77,1347.25 2043.52,1345.3 2050.27,1347.7 2057.02,1345.58 
  2063.77,1348.12 2070.52,1345.83 2077.27,1348.47 2084.02,1346.15 2090.77,1348.8 2097.51,1346.38 2104.26,1349.16 2111.01,1346.48 2117.76,1349.45 2124.51,1346.67 
  2131.26,1349.73 2138.01,1346.83 2144.76,1349.88 2151.5,1347.13 2158.25,1350.1 2165,1346.82 2171.75,1350.26 2178.5,1346.8 2185.25,1350.35 2192,1346.67 
  2198.75,1350.54 2205.5,1346.73 2212.24,1350.58 2218.99,1346.55 2225.74,1350.61 2232.49,1346.57 2239.24,1350.62 2245.99,1346.19 2252.74,1350.6 2259.49,1345.93 
  2266.24,1350.64 2272.98,1345.78 2279.73,1350.57 2286.48,1345.67 2293.23,1350.42 
  "/>
<polyline clip-path="url(#clip642)" style="stroke:#008000; stroke-linecap:butt; stroke-linejoin:round; stroke-width:4; stroke-opacity:1; fill:none" points="
  309.067,99.2705 315.816,123.732 322.565,143.735 329.314,159.113 336.062,170.673 342.811,180.085 349.56,187.405 356.309,193.022 363.058,197.323 369.807,202.209 
  376.556,207.29 383.304,212.365 390.053,216.645 396.802,221.271 403.551,225.408 410.3,230.422 417.049,235.696 423.798,241.282 430.546,246.507 437.295,252.501 
  444.044,258.723 450.793,265.123 457.542,271.136 464.291,277.922 471.04,284.928 477.788,291.702 484.537,299.29 491.286,306.585 498.035,314.642 504.784,322.349 
  511.533,330.799 518.282,339.387 525.03,347.608 531.779,356.556 538.528,365.129 545.277,374.575 552.026,383.662 558.775,393.466 565.524,402.916 572.272,413.315 
  579.021,423.153 585.77,433.837 592.519,444.314 599.268,454.883 606.017,465.959 612.766,476.799 619.514,487.733 626.263,499.139 633.012,510.22 639.761,521.348 
  646.51,532.504 653.259,543.628 660.008,554.728 666.756,566.103 673.505,577.132 680.254,588.076 687.003,598.935 693.752,609.668 700.501,620.294 707.25,630.877 
  713.998,641.32 720.747,651.6 727.496,661.473 734.245,671.129 740.994,680.546 747.743,689.697 754.492,698.605 761.24,707.287 767.989,715.62 774.738,723.786 
  781.487,731.357 788.236,738.824 794.985,746.097 801.734,753.097 808.482,759.687 815.231,766.143 821.98,772.068 828.729,777.99 835.478,783.645 842.227,788.939 
  848.976,794.317 855.724,799.372 862.473,804.532 869.222,809.327 875.971,814.229 882.72,818.926 889.469,823.585 896.218,828.007 902.966,832.556 909.715,836.923 
  916.464,841.257 923.213,845.175 929.962,849.177 936.711,853.132 943.46,856.796 950.208,860.369 956.957,864.008 963.706,867.626 970.455,871.235 977.204,875.043 
  983.953,878.744 990.702,882.412 997.45,886.214 1004.2,889.965 1010.95,893.712 1017.7,897.62 1024.45,901.349 1031.19,905.229 1037.94,909.106 1044.69,913.177 
  1051.44,917.036 1058.19,921.156 1064.94,925.104 1071.69,929.057 1078.44,932.978 1085.19,937.013 1091.93,940.845 1098.68,945.048 1105.43,948.867 1112.18,953.059 
  1118.93,957.006 1125.68,961.255 1132.43,965.006 1139.18,969.352 1145.93,973.389 1152.67,977.636 1159.42,981.698 1166.17,986.018 1172.92,990.04 1179.67,994.297 
  1186.42,997.947 1193.17,1002.14 1199.92,1005.95 1206.66,1010.16 1213.41,1014.05 1220.16,1018.4 1226.91,1021.86 1233.66,1026.4 1240.41,1029.87 1247.16,1034.22 
  1253.91,1037.96 1260.66,1042.32 1267.4,1045.78 1274.15,1050.28 1280.9,1053.72 1287.65,1058.16 1294.4,1061.47 1301.15,1066.13 1307.9,1069.45 1314.65,1074.04 
  1321.4,1077.05 1328.14,1081.82 1334.89,1085.03 1341.64,1089.14 1348.39,1092.59 1355.14,1097.54 1361.89,1100.2 1368.64,1105.21 1375.39,1107.82 1382.14,1113.05 
  1388.88,1115.67 1395.63,1121.06 1402.38,1123.91 1409.13,1128.35 1415.88,1132.41 1422.63,1136.43 1429.38,1140.75 1436.13,1145.84 1442.87,1148.75 1449.62,1154.99 
  1456.37,1157.75 1463.12,1163.95 1469.87,1166.65 1476.62,1171.3 1483.37,1175.65 1490.12,1179.47 1496.87,1185.68 1503.61,1187.92 1510.36,1193.69 1517.11,1196.36 
  1523.86,1201.51 1530.61,1204.18 1537.36,1210.44 1544.11,1212.32 1550.86,1218.61 1557.61,1220.26 1564.35,1226.24 1571.1,1227.81 1577.85,1233.44 1584.6,1235.37 
  1591.35,1241.4 1598.1,1243.25 1604.85,1247.82 1611.6,1251 1618.35,1255.19 1625.09,1259.04 1631.84,1262.46 1638.59,1267.62 1645.34,1267.79 1652.09,1274 
  1658.84,1274.11 1665.59,1280.15 1672.34,1280.25 1679.08,1285.95 1685.83,1286.66 1692.58,1290.53 1699.33,1293.26 1706.08,1297.6 1712.83,1298.83 1719.58,1303.63 
  1726.33,1303.47 1733.08,1309.12 1739.82,1308.3 1746.57,1313.8 1753.32,1313.01 1760.07,1317.62 1766.82,1317.2 1773.57,1322.94 1780.32,1322.07 1787.07,1325.35 
  1793.82,1327.33 1800.56,1330.57 1807.31,1331.37 1814.06,1335.99 1820.81,1335.03 1827.56,1339.3 1834.31,1338.6 1841.06,1343.26 1847.81,1342.4 1854.56,1345.5 
  1861.3,1345.59 1868.05,1349.75 1874.8,1348.8 1881.55,1352.36 1888.3,1351.9 1895.05,1354.8 1901.8,1353.06 1908.55,1356.71 1915.29,1355.19 1922.04,1358.53 
  1928.79,1357.13 1935.54,1360.05 1942.29,1358.82 1949.04,1361.64 1955.79,1360.3 1962.54,1363.1 1969.29,1361.87 1976.03,1364.36 1982.78,1363.23 1989.53,1365.27 
  1996.28,1363.96 2003.03,1366.44 2009.78,1365.07 2016.53,1367.45 2023.28,1366.12 2030.03,1368.42 2036.77,1367.16 2043.52,1369.38 2050.27,1368.15 2057.02,1370.29 
  2063.77,1369.12 2070.52,1371.17 2077.27,1369.9 2084.02,1371.98 2090.77,1370.77 2097.51,1372.82 2104.26,1371.78 2111.01,1373.67 2117.76,1372.61 2124.51,1374.46 
  2131.26,1373.42 2138.01,1375.22 2144.76,1374.36 2151.5,1375.85 2158.25,1375.1 2165,1376.68 2171.75,1375.94 2178.5,1377.4 2185.25,1376.83 2192,1378.12 
  2198.75,1377.55 2205.5,1378.79 2212.24,1378.4 2218.99,1379.46 2225.74,1379.24 2232.49,1380.03 2239.24,1379.86 2245.99,1380.68 2252.74,1380.66 2259.49,1381.28 
  2266.24,1381.37 2272.98,1381.87 2279.73,1382.14 2286.48,1382.38 2293.23,1382.82 
  "/>
<path clip-path="url(#clip640)" d="
M1814.69 300.469 L2282.65 300.469 L2282.65 93.1086 L1814.69 93.1086  Z
  " fill="#ffffff" fill-rule="evenodd" fill-opacity="1"/>
<polyline clip-path="url(#clip640)" style="stroke:#000000; stroke-linecap:butt; stroke-linejoin:round; stroke-width:4; stroke-opacity:1; fill:none" points="
  1814.69,300.469 2282.65,300.469 2282.65,93.1086 1814.69,93.1086 1814.69,300.469 
  "/>
<polyline clip-path="url(#clip640)" style="stroke:#ff0000; stroke-linecap:butt; stroke-linejoin:round; stroke-width:4; stroke-opacity:1; fill:none" points="
  1838.69,144.949 1982.69,144.949 
  "/>
<path clip-path="url(#clip640)" d="M2014.09 128.942 L2014.09 136.303 L2022.87 136.303 L2022.87 139.613 L2014.09 139.613 L2014.09 153.687 Q2014.09 156.858 2014.95 157.761 Q2015.83 158.664 2018.49 158.664 L2022.87 158.664 L2022.87 162.229 L2018.49 162.229 Q2013.56 162.229 2011.69 160.4 Q2009.81 158.548 2009.81 153.687 L2009.81 139.613 L2006.69 139.613 L2006.69 136.303 L2009.81 136.303 L2009.81 128.942 L2014.09 128.942 Z" fill="#000000" fill-rule="evenodd" fill-opacity="1" /><path clip-path="url(#clip640)" d="M2043.49 140.284 Q2042.77 139.868 2041.92 139.682 Q2041.08 139.474 2040.07 139.474 Q2036.46 139.474 2034.51 141.835 Q2032.59 144.173 2032.59 148.571 L2032.59 162.229 L2028.31 162.229 L2028.31 136.303 L2032.59 136.303 L2032.59 140.331 Q2033.93 137.969 2036.09 136.835 Q2038.24 135.678 2041.32 135.678 Q2041.76 135.678 2042.29 135.747 Q2042.82 135.794 2043.47 135.909 L2043.49 140.284 Z" fill="#000000" fill-rule="evenodd" fill-opacity="1" /><path clip-path="url(#clip640)" d="M2059.74 149.196 Q2054.58 149.196 2052.59 150.377 Q2050.6 151.557 2050.6 154.405 Q2050.6 156.673 2052.08 158.016 Q2053.58 159.335 2056.15 159.335 Q2059.7 159.335 2061.83 156.835 Q2063.98 154.312 2063.98 150.145 L2063.98 149.196 L2059.74 149.196 M2068.24 147.437 L2068.24 162.229 L2063.98 162.229 L2063.98 158.293 Q2062.52 160.655 2060.34 161.789 Q2058.17 162.9 2055.02 162.9 Q2051.04 162.9 2048.68 160.678 Q2046.34 158.432 2046.34 154.682 Q2046.34 150.307 2049.26 148.085 Q2052.2 145.863 2058.01 145.863 L2063.98 145.863 L2063.98 145.446 Q2063.98 142.507 2062.03 140.909 Q2060.11 139.289 2056.62 139.289 Q2054.4 139.289 2052.29 139.821 Q2050.18 140.354 2048.24 141.419 L2048.24 137.483 Q2050.58 136.581 2052.77 136.141 Q2054.97 135.678 2057.06 135.678 Q2062.68 135.678 2065.46 138.594 Q2068.24 141.511 2068.24 147.437 Z" fill="#000000" fill-rule="evenodd" fill-opacity="1" /><path clip-path="url(#clip640)" d="M2077.01 136.303 L2081.27 136.303 L2081.27 162.229 L2077.01 162.229 L2077.01 136.303 M2077.01 126.21 L2081.27 126.21 L2081.27 131.604 L2077.01 131.604 L2077.01 126.21 Z" fill="#000000" fill-rule="evenodd" fill-opacity="1" /><path clip-path="url(#clip640)" d="M2111.73 146.581 L2111.73 162.229 L2107.47 162.229 L2107.47 146.719 Q2107.47 143.039 2106.04 141.21 Q2104.6 139.382 2101.73 139.382 Q2098.28 139.382 2096.29 141.581 Q2094.3 143.78 2094.3 147.576 L2094.3 162.229 L2090.02 162.229 L2090.02 136.303 L2094.3 136.303 L2094.3 140.331 Q2095.83 137.993 2097.89 136.835 Q2099.97 135.678 2102.68 135.678 Q2107.15 135.678 2109.44 138.456 Q2111.73 141.21 2111.73 146.581 Z" fill="#000000" fill-rule="evenodd" fill-opacity="1" /><polyline clip-path="url(#clip640)" style="stroke:#0000ff; stroke-linecap:butt; stroke-linejoin:round; stroke-width:4; stroke-opacity:1; fill:none" points="
  1838.69,196.789 1982.69,196.789 
  "/>
<path clip-path="url(#clip640)" d="M2006.69 188.143 L2011.2 188.143 L2019.3 209.902 L2027.4 188.143 L2031.92 188.143 L2022.2 214.069 L2016.41 214.069 L2006.69 188.143 Z" fill="#000000" fill-rule="evenodd" fill-opacity="1" /><path clip-path="url(#clip640)" d="M2049.58 201.036 Q2044.42 201.036 2042.43 202.217 Q2040.44 203.397 2040.44 206.245 Q2040.44 208.513 2041.92 209.856 Q2043.42 211.175 2045.99 211.175 Q2049.53 211.175 2051.66 208.675 Q2053.82 206.152 2053.82 201.985 L2053.82 201.036 L2049.58 201.036 M2058.08 199.277 L2058.08 214.069 L2053.82 214.069 L2053.82 210.133 Q2052.36 212.495 2050.18 213.629 Q2048.01 214.74 2044.86 214.74 Q2040.88 214.74 2038.52 212.518 Q2036.18 210.272 2036.18 206.522 Q2036.18 202.147 2039.09 199.925 Q2042.03 197.703 2047.84 197.703 L2053.82 197.703 L2053.82 197.286 Q2053.82 194.347 2051.87 192.749 Q2049.95 191.129 2046.46 191.129 Q2044.23 191.129 2042.13 191.661 Q2040.02 192.194 2038.08 193.259 L2038.08 189.323 Q2040.41 188.421 2042.61 187.981 Q2044.81 187.518 2046.9 187.518 Q2052.52 187.518 2055.3 190.434 Q2058.08 193.351 2058.08 199.277 Z" fill="#000000" fill-rule="evenodd" fill-opacity="1" /><path clip-path="url(#clip640)" d="M2066.85 178.05 L2071.11 178.05 L2071.11 214.069 L2066.85 214.069 L2066.85 178.05 Z" fill="#000000" fill-rule="evenodd" fill-opacity="1" /><path clip-path="url(#clip640)" d="M2080.02 188.143 L2084.28 188.143 L2084.28 214.069 L2080.02 214.069 L2080.02 188.143 M2080.02 178.05 L2084.28 178.05 L2084.28 183.444 L2080.02 183.444 L2080.02 178.05 Z" fill="#000000" fill-rule="evenodd" fill-opacity="1" /><path clip-path="url(#clip640)" d="M2110.25 192.078 L2110.25 178.05 L2114.51 178.05 L2114.51 214.069 L2110.25 214.069 L2110.25 210.18 Q2108.91 212.495 2106.85 213.629 Q2104.81 214.74 2101.94 214.74 Q2097.24 214.74 2094.28 210.99 Q2091.34 207.24 2091.34 201.129 Q2091.34 195.018 2094.28 191.268 Q2097.24 187.518 2101.94 187.518 Q2104.81 187.518 2106.85 188.652 Q2108.91 189.763 2110.25 192.078 M2095.74 201.129 Q2095.74 205.828 2097.66 208.513 Q2099.6 211.175 2102.98 211.175 Q2106.36 211.175 2108.31 208.513 Q2110.25 205.828 2110.25 201.129 Q2110.25 196.43 2108.31 193.768 Q2106.36 191.083 2102.98 191.083 Q2099.6 191.083 2097.66 193.768 Q2095.74 196.43 2095.74 201.129 Z" fill="#000000" fill-rule="evenodd" fill-opacity="1" /><path clip-path="url(#clip640)" d="M2135.07 201.036 Q2129.9 201.036 2127.91 202.217 Q2125.92 203.397 2125.92 206.245 Q2125.92 208.513 2127.4 209.856 Q2128.91 211.175 2131.48 211.175 Q2135.02 211.175 2137.15 208.675 Q2139.3 206.152 2139.3 201.985 L2139.3 201.036 L2135.07 201.036 M2143.56 199.277 L2143.56 214.069 L2139.3 214.069 L2139.3 210.133 Q2137.84 212.495 2135.67 213.629 Q2133.49 214.74 2130.34 214.74 Q2126.36 214.74 2124 212.518 Q2121.66 210.272 2121.66 206.522 Q2121.66 202.147 2124.58 199.925 Q2127.52 197.703 2133.33 197.703 L2139.3 197.703 L2139.3 197.286 Q2139.3 194.347 2137.36 192.749 Q2135.44 191.129 2131.94 191.129 Q2129.72 191.129 2127.61 191.661 Q2125.51 192.194 2123.56 193.259 L2123.56 189.323 Q2125.9 188.421 2128.1 187.981 Q2130.3 187.518 2132.38 187.518 Q2138.01 187.518 2140.78 190.434 Q2143.56 193.351 2143.56 199.277 Z" fill="#000000" fill-rule="evenodd" fill-opacity="1" /><path clip-path="url(#clip640)" d="M2156.55 180.782 L2156.55 188.143 L2165.32 188.143 L2165.32 191.453 L2156.55 191.453 L2156.55 205.527 Q2156.55 208.698 2157.4 209.601 Q2158.28 210.504 2160.95 210.504 L2165.32 210.504 L2165.32 214.069 L2160.95 214.069 Q2156.01 214.069 2154.14 212.24 Q2152.26 210.388 2152.26 205.527 L2152.26 191.453 L2149.14 191.453 L2149.14 188.143 L2152.26 188.143 L2152.26 180.782 L2156.55 180.782 Z" fill="#000000" fill-rule="evenodd" fill-opacity="1" /><path clip-path="url(#clip640)" d="M2170.92 188.143 L2175.18 188.143 L2175.18 214.069 L2170.92 214.069 L2170.92 188.143 M2170.92 178.05 L2175.18 178.05 L2175.18 183.444 L2170.92 183.444 L2170.92 178.05 Z" fill="#000000" fill-rule="evenodd" fill-opacity="1" /><path clip-path="url(#clip640)" d="M2194.14 191.129 Q2190.71 191.129 2188.72 193.814 Q2186.73 196.476 2186.73 201.129 Q2186.73 205.782 2188.7 208.467 Q2190.69 211.129 2194.14 211.129 Q2197.54 211.129 2199.53 208.444 Q2201.52 205.758 2201.52 201.129 Q2201.52 196.522 2199.53 193.837 Q2197.54 191.129 2194.14 191.129 M2194.14 187.518 Q2199.7 187.518 2202.87 191.129 Q2206.04 194.74 2206.04 201.129 Q2206.04 207.495 2202.87 211.129 Q2199.7 214.74 2194.14 214.74 Q2188.56 214.74 2185.39 211.129 Q2182.24 207.495 2182.24 201.129 Q2182.24 194.74 2185.39 191.129 Q2188.56 187.518 2194.14 187.518 Z" fill="#000000" fill-rule="evenodd" fill-opacity="1" /><path clip-path="url(#clip640)" d="M2234.65 198.421 L2234.65 214.069 L2230.39 214.069 L2230.39 198.559 Q2230.39 194.879 2228.95 193.05 Q2227.52 191.222 2224.65 191.222 Q2221.2 191.222 2219.21 193.421 Q2217.22 195.62 2217.22 199.416 L2217.22 214.069 L2212.94 214.069 L2212.94 188.143 L2217.22 188.143 L2217.22 192.171 Q2218.75 189.833 2220.81 188.675 Q2222.89 187.518 2225.6 187.518 Q2230.07 187.518 2232.36 190.296 Q2234.65 193.05 2234.65 198.421 Z" fill="#000000" fill-rule="evenodd" fill-opacity="1" /><polyline clip-path="url(#clip640)" style="stroke:#008000; stroke-linecap:butt; stroke-linejoin:round; stroke-width:4; stroke-opacity:1; fill:none" points="
  1838.69,248.629 1982.69,248.629 
  "/>
<path clip-path="url(#clip640)" d="M2014.09 232.622 L2014.09 239.983 L2022.87 239.983 L2022.87 243.293 L2014.09 243.293 L2014.09 257.367 Q2014.09 260.538 2014.95 261.441 Q2015.83 262.344 2018.49 262.344 L2022.87 262.344 L2022.87 265.909 L2018.49 265.909 Q2013.56 265.909 2011.69 264.08 Q2009.81 262.228 2009.81 257.367 L2009.81 243.293 L2006.69 243.293 L2006.69 239.983 L2009.81 239.983 L2009.81 232.622 L2014.09 232.622 Z" fill="#000000" fill-rule="evenodd" fill-opacity="1" /><path clip-path="url(#clip640)" d="M2050.65 251.881 L2050.65 253.964 L2031.06 253.964 Q2031.34 258.362 2033.7 260.677 Q2036.09 262.969 2040.32 262.969 Q2042.77 262.969 2045.07 262.367 Q2047.38 261.765 2049.65 260.561 L2049.65 264.589 Q2047.36 265.561 2044.95 266.071 Q2042.54 266.58 2040.07 266.58 Q2033.86 266.58 2030.23 262.969 Q2026.62 259.358 2026.62 253.2 Q2026.62 246.835 2030.04 243.108 Q2033.49 239.358 2039.33 239.358 Q2044.56 239.358 2047.59 242.737 Q2050.65 246.094 2050.65 251.881 M2046.39 250.631 Q2046.34 247.136 2044.42 245.052 Q2042.52 242.969 2039.37 242.969 Q2035.81 242.969 2033.65 244.983 Q2031.52 246.997 2031.2 250.654 L2046.39 250.631 Z" fill="#000000" fill-rule="evenodd" fill-opacity="1" /><path clip-path="url(#clip640)" d="M2074.16 240.747 L2074.16 244.774 Q2072.36 243.849 2070.41 243.386 Q2068.47 242.923 2066.39 242.923 Q2063.21 242.923 2061.62 243.895 Q2060.04 244.867 2060.04 246.811 Q2060.04 248.293 2061.18 249.149 Q2062.31 249.983 2065.74 250.747 L2067.2 251.071 Q2071.73 252.043 2073.63 253.825 Q2075.55 255.585 2075.55 258.756 Q2075.55 262.367 2072.68 264.473 Q2069.83 266.58 2064.83 266.58 Q2062.75 266.58 2060.48 266.163 Q2058.24 265.77 2055.74 264.96 L2055.74 260.561 Q2058.1 261.788 2060.39 262.413 Q2062.68 263.015 2064.93 263.015 Q2067.94 263.015 2069.56 261.997 Q2071.18 260.955 2071.18 259.08 Q2071.18 257.344 2070 256.418 Q2068.84 255.492 2064.88 254.636 L2063.4 254.288 Q2059.44 253.455 2057.68 251.742 Q2055.92 250.006 2055.92 246.997 Q2055.92 243.339 2058.52 241.349 Q2061.11 239.358 2065.88 239.358 Q2068.24 239.358 2070.32 239.705 Q2072.4 240.052 2074.16 240.747 Z" fill="#000000" fill-rule="evenodd" fill-opacity="1" /><path clip-path="url(#clip640)" d="M2086.55 232.622 L2086.55 239.983 L2095.32 239.983 L2095.32 243.293 L2086.55 243.293 L2086.55 257.367 Q2086.55 260.538 2087.4 261.441 Q2088.28 262.344 2090.95 262.344 L2095.32 262.344 L2095.32 265.909 L2090.95 265.909 Q2086.02 265.909 2084.14 264.08 Q2082.27 262.228 2082.27 257.367 L2082.27 243.293 L2079.14 243.293 L2079.14 239.983 L2082.27 239.983 L2082.27 232.622 L2086.55 232.622 Z" fill="#000000" fill-rule="evenodd" fill-opacity="1" /></svg>
