<svg class="main-svg" xmlns="http://www.w3.org/2000/svg" xmlns:xlink="http://www.w3.org/1999/xlink" width="700" height="500" style="" viewBox="0 0 700 500"><rect x="0" y="0" width="700" height="500" style="fill: rgb(255, 255, 255); fill-opacity: 1;"/><defs id="defs-f0e7ac"><g class="clips"><clipPath id="clipf0e7acxyplot" class="plotclip"><rect width="523.9923009623797" height="356.5936679790026"/></clipPath><clipPath class="axesclip" id="clipf0e7acx"><rect x="78.3594050743657" y="0" width="523.9923009623797" height="500"/></clipPath><clipPath class="axesclip" id="clipf0e7acy"><rect x="0" y="63.83858267716535" width="700" height="356.5936679790026"/></clipPath><clipPath class="axesclip" id="clipf0e7acxy"><rect x="78.3594050743657" y="63.83858267716535" width="523.9923009623797" height="356.5936679790026"/></clipPath></g><g class="gradients"/></defs><g class="bglayer"/><g class="layer-below"><g class="imagelayer"/><g class="shapelayer"/></g><g class="cartesianlayer"><g class="subplot xy"><g class="layer-subplot"><g class="shapelayer"/><g class="imagelayer"/></g><g class="gridlayer"><g class="x"><path class="xgrid crisp" transform="translate(93.1594050743657,0)" d="M0,63.83858267716535v356.5936679790026" style="stroke: rgb(0, 0, 0); stroke-opacity: 0.1; stroke-width: 0.5px;"/><path class="xgrid crisp" transform="translate(192.02940507436568,0)" d="M0,63.83858267716535v356.5936679790026" style="stroke: rgb(0, 0, 0); stroke-opacity: 0.1; stroke-width: 0.5px;"/><path class="xgrid crisp" transform="translate(290.8994050743657,0)" d="M0,63.83858267716535v356.5936679790026" style="stroke: rgb(0, 0, 0); stroke-opacity: 0.1; stroke-width: 0.5px;"/><path class="xgrid crisp" transform="translate(389.77940507436574,0)" d="M0,63.83858267716535v356.5936679790026" style="stroke: rgb(0, 0, 0); stroke-opacity: 0.1; stroke-width: 0.5px;"/><path class="xgrid crisp" transform="translate(488.64940507436575,0)" d="M0,63.83858267716535v356.5936679790026" style="stroke: rgb(0, 0, 0); stroke-opacity: 0.1; stroke-width: 0.5px;"/><path class="xgrid crisp" transform="translate(587.5194050743657,0)" d="M0,63.83858267716535v356.5936679790026" style="stroke: rgb(0, 0, 0); stroke-opacity: 0.1; stroke-width: 0.5px;"/></g><g class="y"><path class="ygrid crisp" transform="translate(0,410.33858267716533)" d="M78.3594050743657,0h523.9923009623797" style="stroke: rgb(0, 0, 0); stroke-opacity: 0.1; stroke-width: 0.5px;"/><path class="ygrid crisp" transform="translate(0,358.38858267716535)" d="M78.3594050743657,0h523.9923009623797" style="stroke: rgb(0, 0, 0); stroke-opacity: 0.1; stroke-width: 0.5px;"/><path class="ygrid crisp" transform="translate(0,306.44858267716535)" d="M78.3594050743657,0h523.9923009623797" style="stroke: rgb(0, 0, 0); stroke-opacity: 0.1; stroke-width: 0.5px;"/><path class="ygrid crisp" transform="translate(0,254.49858267716536)" d="M78.3594050743657,0h523.9923009623797" style="stroke: rgb(0, 0, 0); stroke-opacity: 0.1; stroke-width: 0.5px;"/><path class="ygrid crisp" transform="translate(0,202.54858267716537)" d="M78.3594050743657,0h523.9923009623797" style="stroke: rgb(0, 0, 0); stroke-opacity: 0.1; stroke-width: 0.5px;"/><path class="ygrid crisp" transform="translate(0,150.60858267716534)" d="M78.3594050743657,0h523.9923009623797" style="stroke: rgb(0, 0, 0); stroke-opacity: 0.1; stroke-width: 0.5px;"/><path class="ygrid crisp" transform="translate(0,98.65858267716536)" d="M78.3594050743657,0h523.9923009623797" style="stroke: rgb(0, 0, 0); stroke-opacity: 0.1; stroke-width: 0.5px;"/></g></g><g class="zerolinelayer"/><path class="xlines-below"/><path class="ylines-below"/><g class="overlines-below"/><g class="xaxislayer-below"/><g class="yaxislayer-below"/><g class="overaxes-below"/><g class="plot" transform="translate(78.3594050743657,63.83858267716535)" clip-path="url('#clipf0e7acxyplot')"><g class="scatterlayer mlayer"><g class="trace scatter trace1d98bc" style="stroke-miterlimit: 2; opacity: 1;"><g class="fills"/><g class="errorbars"/><g class="lines"><path class="js-line" d="M14.83,346.48L14.99,344.71L15.19,345.79L15.23,346.16L15.46,346.01L15.55,346.44L15.92,346.34L15.95,346.44L16.48,345.25L16.61,346.04L16.64,346.22L16.84,346.41L17.27,344.78L17.33,345.58L17.37,345.86L17.83,346.46L18.19,346.15L18.22,346.11L18.26,344.74L18.92,346.38L18.95,346.37L18.98,346.31L19.48,346.39L19.64,345.93L19.67,345.77L19.84,345.06L20.23,345.95L20.4,345.78L20.43,345.72L21.16,346.37L21.32,345.8L21.36,345.56L22.41,342.35L22.84,342.79L22.87,342.92L23.27,343.63L23.63,342.9L23.66,342.69L24.02,344.23L24.12,341.42L24.49,341.97L24.52,341.98L24.78,340.06L24.82,339.54L24.91,338.66L25.21,341.84L25.41,341.43L25.44,341.63L25.77,346.06L25.97,341.06L26,340.37L26.6,330.16L26.79,337.49L26.83,339.46L27.48,345.25L27.62,342.88L27.65,342.21L27.75,341.18L28.41,342.03L28.44,341.53L28.8,338.57L29.1,342.18L29.13,342.89L29.53,345.62L29.99,345.07L30.02,344.89L30.32,343.37L30.88,343.93L30.91,344.03L31.7,345.84L32.03,345.07L32.07,345.01L32.4,344.61L32.69,345.5L32.72,345.53L32.96,346.26L33.25,345.33L33.35,345.34L33.38,345.34L33.58,344.95L34.77,346.14L34.8,345.92L34.83,345.57L35.79,342.76L35.82,342.56L36.32,340.35L36.88,340.78L36.91,340.86L38.49,346.27L38.56,345.93L38.59,345.62L39.65,339.06L39.81,340.07L39.84,340.15L40.21,345.35L40.27,342.28L40.3,339.98L40.57,280.94L40.6,251.75L40.67,152.95L41.29,313.11L41.33,316.49L41.49,324.57L42.12,321.67L42.15,322.91L43.4,343.65L43.44,343.79L43.57,344.07L43.83,342.35L43.86,342.15L44.46,340.86L44.72,341.62L44.75,341.84L45.31,345.17L45.74,343.88L45.78,343.76L46.47,342.36L46.86,342.68L46.9,342.69L48.02,342.92L48.05,342.99L48.97,345.43L49.33,344.42L49.37,344.37L50.32,343.6L50.59,344.08L50.62,344.12L51.25,345.77L51.28,345.93L51.34,346.19L51.77,345.1L51.87,345.1L51.9,345.07L53.52,343.84L53.55,343.79L53.98,343.24L54.31,343.82L54.34,343.9L55.5,346.29L55.79,345.45L55.83,345.35L56.78,343.57L57.18,343.91L57.21,343.9L58.89,343.88L58.92,343.74L59.29,343.1L59.62,343.91L59.65,344.08L60.21,345.75L60.57,345.18L60.61,345.18L61.36,344.49L61.4,344.36L62.42,340.88L62.65,341.92L62.68,342.17L62.91,343.34L63.34,341.45L63.37,341.2L64.07,336.84L64.46,338.12L64.49,338.25L65.42,342.18L65.65,340.52L65.68,340.07L66.34,323.49L66.37,319.86L66.5,289.48L66.54,144.18L67.39,327.84L67.43,328.51L68.81,343.01L68.88,342.99L68.91,342.98L69.4,343.66L69.44,343.79L70.56,346.33L70.72,346.17L70.76,346.14L71.45,345.51L71.48,345.46L72.67,344.81L72.7,344.83L72.73,344.86L74.05,345.28L74.12,345.16L74.15,345.09L74.71,344.57L75.04,344.99L75.07,345.02L76.26,345.54L76.32,345.47L76.36,345.45L77.08,345.39L77.21,345.59L77.25,345.65L77.81,346.29L78.24,345.96L78.27,345.93L80.48,344.61L80.51,344.63L81.43,345.4L81.47,345.43L82.82,345.73L82.85,345.74L85.78,345.35L85.82,345.37L87.27,345.85L87.3,345.8L88.49,345.13L88.68,345.34L88.72,345.36L89.14,345.69L89.47,345.13L89.51,345.06L91.62,340.39L91.65,339.87L92.21,315.62L92.24,311.47L92.44,208.69L92.47,99.85L92.51,10.09L93.1,330.56L93.13,331.69L93.79,345.73L94.25,341.88L94.29,341.74L94.98,340.8L95.18,341.15L95.21,341.29L96.49,343.86L96.53,343.92L98.31,345.13L98.34,345.12L100.15,344.97L100.18,344.99L102.46,345.64L102.49,345.68L104.01,345.63L104.04,345.58L105.92,345.05L105.95,345.06L107.67,346.14L107.86,345.79L107.9,345.73L109.08,345.28L109.12,345.26L110.2,345.82L110.24,345.89L111.29,346.23L111.32,346.22L114.65,346.24L114.69,346.28L114.88,346.41L115.18,345.75L115.21,345.66L116.7,343.53L116.89,343.68L116.93,343.75L117.62,342.89L117.65,342.7L118.21,333.86L118.24,332.15L118.41,307.62L118.44,288.43L118.51,277.65L118.74,336.93L118.77,337.27L120.19,344.46L120.32,344.11L120.35,344.05L121.11,344.17L121.14,344.21L121.18,344.26L122.53,345.13L122.56,345.22L123.68,346.3L123.71,346.29L125.16,346.1L125.2,346.12L129.65,346L129.68,346.03L130.8,346.25L130.83,346.23L132.58,345.78L132.61,345.8L139.6,345.87L139.63,345.83L140.92,344.51L141.25,344.94L141.28,344.97L142.1,344.26L142.14,344.18L143.69,340.38L143.72,340.06L144.41,328.58L144.44,325.52L144.54,286.94L144.58,214.65L145.47,335.87L145.5,336.42L146.39,342.77L146.59,342.55L146.62,342.54L149.22,345.4L149.26,345.39L151.92,345.8L151.96,345.81L160.95,345.79L160.99,345.78L165.34,345.1L165.37,345.08L167.88,344.81L167.91,344.76L168.57,344.11L168.86,344.67L168.9,344.74L169.23,345.1L169.46,344.28L169.49,344.28L169.52,344.26L169.69,344.23L169.89,344.9L169.92,345.1L170.08,346.24L170.22,342.49L170.25,341.8L170.48,340.22L170.54,340.5L170.58,337.83L170.84,286.16L171.14,334.56L171.17,335.96L172.16,344.34L172.19,344.31L172.52,343.52L172.95,344.32L172.98,344.41L174.3,345.95L174.33,345.97L176.31,346.24L176.34,346.23L178.55,346.04L178.59,346.04L181.52,346.08L181.55,346.08L187.09,346.3L187.12,346.3L191.83,346.1L191.87,346.09L195.33,345.33L195.36,345.21L195.66,345.56L196.38,344.51L196.51,344.79L196.55,344.91L196.68,345.31L196.91,343.61L196.94,343.13L197.14,329.92L197.3,341.74L197.34,342.05L197.67,344.07L198.13,342.83L198.16,342.87L199.94,345.51L200.01,345.46L200.04,345.43L201.16,345.29L201.19,345.32L203.3,345.7L203.34,345.7L204.59,345.7L204.62,345.69L208.18,345.71L208.21,345.71L210.03,346.1L210.06,346.08L211.87,346.01L211.9,346.02L214.9,346.13L214.94,346.12L217.14,346.08L217.18,346.09L219.32,345.91L219.35,345.86L222.05,342.69L222.09,342.27L222.15,339.31L222.81,341.1L222.85,341.08L223.17,338.29L223.21,337.97L223.6,312.06L223.64,286.97L223.67,255L224.33,339.67L224.36,340.12L225.38,343.85L225.42,343.84L225.65,343.89L225.81,344.44L225.84,344.55L226.34,345.09L226.73,344.85L226.77,344.85L232.73,346.29L232.76,346.29L250.23,345.76L250.26,345.63L250.33,344.79L250.63,346.47L250.92,346.21L250.96,346.19L274.32,345.81L274.35,345.69L274.85,346.19L275.15,346.05L275.18,345.99L275.71,345.28L275.74,345.24L277.09,343.46L277.12,342.62L277.25,328.44L277.39,345.36L277.62,343.57L277.65,343.59L278.7,344.82L278.74,344.86L280.68,346.04L280.71,346.05L284.34,346.34L284.37,346.34L287.93,346.47L287.97,346.47L300.49,345.74L300.52,345.41L300.55,344.99L301.21,346.26L301.25,346.3L302.2,346.3L302.23,346.29L304.11,345.28L304.15,345.2L304.31,343.38L304.34,339.97L304.38,332.69L305.04,345.44L305.07,345.52L306.35,346.29L306.39,346.29L331.57,345.95L331.6,345.69L331.83,340.83L332.16,345.73L332.19,345.93L333.02,346.41L333.11,346.38L333.15,346.37L335.52,346.47L335.55,346.47L338.26,346.44L338.29,346.44L353.05,345.81L353.09,345.54L353.12,345.26L353.71,346.48L353.74,346.47L353.78,346.47L358.13,345.75L358.16,345.74L359.02,344.63L359.05,344.49L359.21,341.16L359.25,337.37L359.28,336.02L359.84,344L359.87,344.16L361.06,345.8L361.09,345.82L362.58,346.16L362.61,346.17L365.67,346.36L365.71,346.36L382.38,345.75L382.42,345.65L383.21,345.94L383.24,345.99L383.8,346.37L384.03,345.9L384.06,345.83L385.05,345.55L385.08,345.54L386.34,345.87L386.37,345.96L386.57,346.41L387.03,345.62L387.06,345.65L387.1,345.71L387.36,345.14L387.39,344.01L387.46,338.85L388.12,344.95L388.15,344.99L388.38,343.77L388.68,344.7L388.71,344.81L390.42,346.46L390.52,346.3L390.56,346.26L391.94,346.29L391.97,346.29L394.25,346.38L394.28,346.39L405.88,345.95L405.91,345.71L406.11,343.67L406.57,346L406.6,346.04L407.79,346.33L407.82,346.32L415.21,346.09L415.24,346.07L415.67,345.18L415.77,345.85L415.8,346.24L415.87,346.46L416.03,345.53L416.56,346.17L416.59,346.19L424.57,346.47L424.6,346.47L436.86,346.49L436.89,346.49L443.88,345.77L443.91,345.72L444.24,344.97L444.31,345.97L444.34,342.89L444.44,336.85L445.06,344.01L445.1,344.17L445.72,345.81L446.15,345.63L446.18,345.64L449.45,346.32L449.48,346.31L473.14,345.83L473.17,345.7L473.37,346.47L473.57,345.18L473.6,345.18L473.64,345.21L475.12,346.39L475.15,346.41L482.24,346.49L482.27,346.48L509.16,346.47" style="vector-effect: non-scaling-stroke; fill: none; stroke: rgb(255, 165, 0); stroke-opacity: 1; stroke-width: 1px; opacity: 1;"/></g><g class="points"/><g class="text"/></g></g></g><g class="overplot"/><path class="xlines-above crisp" d="M77.3594050743657,420.9322506561679H602.3517060367453" style="fill: none; stroke-width: 1px; stroke: rgb(0, 0, 0); stroke-opacity: 1;"/><path class="ylines-above crisp" d="M77.8594050743657,63.83858267716535V420.4322506561679" style="fill: none; stroke-width: 1px; stroke: rgb(0, 0, 0); stroke-opacity: 1;"/><g class="overlines-above"/><g class="xaxislayer-above"><path class="xtick ticks crisp" d="M0,420.4322506561679v-5" transform="translate(93.1594050743657,0)" style="stroke: rgb(0, 0, 0); stroke-opacity: 1; stroke-width: 1px;"/><path class="xtick ticks crisp" d="M0,420.4322506561679v-5" transform="translate(192.02940507436568,0)" style="stroke: rgb(0, 0, 0); stroke-opacity: 1; stroke-width: 1px;"/><path class="xtick ticks crisp" d="M0,420.4322506561679v-5" transform="translate(290.8994050743657,0)" style="stroke: rgb(0, 0, 0); stroke-opacity: 1; stroke-width: 1px;"/><path class="xtick ticks crisp" d="M0,420.4322506561679v-5" transform="translate(389.77940507436574,0)" style="stroke: rgb(0, 0, 0); stroke-opacity: 1; stroke-width: 1px;"/><path class="xtick ticks crisp" d="M0,420.4322506561679v-5" transform="translate(488.64940507436575,0)" style="stroke: rgb(0, 0, 0); stroke-opacity: 1; stroke-width: 1px;"/><path class="xtick ticks crisp" d="M0,420.4322506561679v-5" transform="translate(587.5194050743657,0)" style="stroke: rgb(0, 0, 0); stroke-opacity: 1; stroke-width: 1px;"/><g class="xtick"><text text-anchor="middle" x="0" y="434.6322506561679" transform="translate(93.1594050743657,0)" style="font-family: sans-serif; font-size: 11px; fill: rgb(0, 0, 0); fill-opacity: 1; white-space: pre;">0</text></g><g class="xtick"><text text-anchor="middle" x="0" y="434.6322506561679" transform="translate(192.02940507436568,0)" style="font-family: sans-serif; font-size: 11px; fill: rgb(0, 0, 0); fill-opacity: 1; white-space: pre;">1000</text></g><g class="xtick"><text text-anchor="middle" x="0" y="434.6322506561679" transform="translate(290.8994050743657,0)" style="font-family: sans-serif; font-size: 11px; fill: rgb(0, 0, 0); fill-opacity: 1; white-space: pre;">2000</text></g><g class="xtick"><text text-anchor="middle" x="0" y="434.6322506561679" transform="translate(389.77940507436574,0)" style="font-family: sans-serif; font-size: 11px; fill: rgb(0, 0, 0); fill-opacity: 1; white-space: pre;">3000</text></g><g class="xtick"><text text-anchor="middle" x="0" y="434.6322506561679" transform="translate(488.64940507436575,0)" style="font-family: sans-serif; font-size: 11px; fill: rgb(0, 0, 0); fill-opacity: 1; white-space: pre;">4000</text></g><g class="xtick"><text text-anchor="middle" x="0" y="434.6322506561679" transform="translate(587.5194050743657,0)" style="font-family: sans-serif; font-size: 11px; fill: rgb(0, 0, 0); fill-opacity: 1; white-space: pre;">5000</text></g></g><g class="yaxislayer-above"><path class="ytick ticks crisp" d="M78.3594050743657,0h5" transform="translate(0,410.33858267716533)" style="stroke: rgb(0, 0, 0); stroke-opacity: 1; stroke-width: 1px;"/><path class="ytick ticks crisp" d="M78.3594050743657,0h5" transform="translate(0,358.38858267716535)" style="stroke: rgb(0, 0, 0); stroke-opacity: 1; stroke-width: 1px;"/><path class="ytick ticks crisp" d="M78.3594050743657,0h5" transform="translate(0,306.44858267716535)" style="stroke: rgb(0, 0, 0); stroke-opacity: 1; stroke-width: 1px;"/><path class="ytick ticks crisp" d="M78.3594050743657,0h5" transform="translate(0,254.49858267716536)" style="stroke: rgb(0, 0, 0); stroke-opacity: 1; stroke-width: 1px;"/><path class="ytick ticks crisp" d="M78.3594050743657,0h5" transform="translate(0,202.54858267716537)" style="stroke: rgb(0, 0, 0); stroke-opacity: 1; stroke-width: 1px;"/><path class="ytick ticks crisp" d="M78.3594050743657,0h5" transform="translate(0,150.60858267716534)" style="stroke: rgb(0, 0, 0); stroke-opacity: 1; stroke-width: 1px;"/><path class="ytick ticks crisp" d="M78.3594050743657,0h5" transform="translate(0,98.65858267716536)" style="stroke: rgb(0, 0, 0); stroke-opacity: 1; stroke-width: 1px;"/><g class="ytick"><text text-anchor="end" x="75.1594050743657" y="3.8499999999999996" transform="translate(0,410.33858267716533)" style="font-family: sans-serif; font-size: 11px; fill: rgb(0, 0, 0); fill-opacity: 1; white-space: pre;">0</text></g><g class="ytick"><text text-anchor="end" x="75.1594050743657" y="3.8499999999999996" transform="translate(0,358.38858267716535)" style="font-family: sans-serif; font-size: 11px; fill: rgb(0, 0, 0); fill-opacity: 1; white-space: pre;">100</text></g><g class="ytick"><text text-anchor="end" x="75.1594050743657" y="3.8499999999999996" transform="translate(0,306.44858267716535)" style="font-family: sans-serif; font-size: 11px; fill: rgb(0, 0, 0); fill-opacity: 1; white-space: pre;">200</text></g><g class="ytick"><text text-anchor="end" x="75.1594050743657" y="3.8499999999999996" transform="translate(0,254.49858267716536)" style="font-family: sans-serif; font-size: 11px; fill: rgb(0, 0, 0); fill-opacity: 1; white-space: pre;">300</text></g><g class="ytick"><text text-anchor="end" x="75.1594050743657" y="3.8499999999999996" transform="translate(0,202.54858267716537)" style="font-family: sans-serif; font-size: 11px; fill: rgb(0, 0, 0); fill-opacity: 1; white-space: pre;">400</text></g><g class="ytick"><text text-anchor="end" x="75.1594050743657" y="3.8499999999999996" transform="translate(0,150.60858267716534)" style="font-family: sans-serif; font-size: 11px; fill: rgb(0, 0, 0); fill-opacity: 1; white-space: pre;">500</text></g><g class="ytick"><text text-anchor="end" x="75.1594050743657" y="3.8499999999999996" transform="translate(0,98.65858267716536)" style="font-family: sans-serif; font-size: 11px; fill: rgb(0, 0, 0); fill-opacity: 1; white-space: pre;">600</text></g></g><g class="overaxes-above"/></g></g><g class="polarlayer"/><g class="ternarylayer"/><g class="geolayer"/><g class="funnelarealayer"/><g class="pielayer"/><g class="treemaplayer"/><g class="sunburstlayer"/><g class="glimages"/><defs id="topdefs-f0e7ac"><g class="clips"/><clipPath id="legendf0e7ac"><rect width="71" height="29" x="0" y="0"/></clipPath></defs><g class="layer-above"><g class="imagelayer"/><g class="shapelayer"/></g><g class="infolayer"><g class="legend" pointer-events="all" transform="translate(617.12,60)"><rect class="bg" shape-rendering="crispEdges" width="71" height="29" x="0" y="0" style="stroke: rgb(68, 68, 68); stroke-opacity: 1; fill: rgb(255, 255, 255); fill-opacity: 1; stroke-width: 0px;"/><g class="scrollbox" transform="" clip-path="url('#legendf0e7ac')"><g class="groups" transform=""><g class="traces" transform="translate(0,14.5)" style="opacity: 1;"><text class="legendtext" text-anchor="start" x="40" y="4.680000000000001" style="font-family: 'Open Sans', verdana, arial, sans-serif; font-size: 12px; fill: rgb(42, 63, 95); fill-opacity: 1; white-space: pre;">Freq</text><g class="layers" style="opacity: 1;"><g class="legendfill"/><g class="legendlines"><path class="js-line" d="M5,0h30" style="fill: none; stroke: rgb(255, 165, 0); stroke-opacity: 1; stroke-width: 1px;"/></g><g class="legendsymbols"><g class="legendpoints"/></g></g><rect class="legendtoggle" x="0" y="-9.5" width="65.1875" height="19" style="fill: rgb(0, 0, 0); fill-opacity: 0;"/></g></g></g><rect class="scrollbar" rx="20" ry="3" width="0" height="0" x="0" y="0" style="fill: rgb(128, 139, 164); fill-opacity: 1;"/></g><g class="g-gtitle"/><g class="g-xtitle"><text class="xtitle" x="340.3555555555555" y="462.140625" text-anchor="middle" style="font-family: sans-serif; font-size: 15px; fill: rgb(0, 0, 0); opacity: 1; font-weight: normal; white-space: pre;">f[hz]</text></g><g class="g-ytitle"/></g></svg>