<svg class="main-svg" xmlns="http://www.w3.org/2000/svg" xmlns:xlink="http://www.w3.org/1999/xlink" width="700" height="500" style="" viewBox="0 0 700 500"><rect x="0" y="0" width="700" height="500" style="fill: rgb(255, 255, 255); fill-opacity: 1;"/><defs id="defs-c3c665"><g class="clips"><clipPath id="clipc3c665xyplot" class="plotclip"><rect width="236.90002916302126" height="356.5936679790026"/></clipPath><clipPath id="clipc3c665x2y2plot" class="plotclip"><rect width="236.90002916302123" height="356.5936679790026"/></clipPath><clipPath class="axesclip" id="clipc3c665x"><rect x="94.67220764071158" y="0" width="236.90002916302126" height="500"/></clipPath><clipPath class="axesclip" id="clipc3c665y"><rect x="0" y="63.83858267716535" width="700" height="356.5936679790026"/></clipPath><clipPath class="axesclip" id="clipc3c665xy"><rect x="94.67220764071158" y="63.83858267716535" width="236.90002916302126" height="356.5936679790026"/></clipPath><clipPath class="axesclip" id="clipc3c665y2"><rect x="0" y="63.83858267716535" width="700" height="356.5936679790026"/></clipPath><clipPath class="axesclip" id="clipc3c665xy2"><rect x="94.67220764071158" y="63.83858267716535" width="236.90002916302126" height="356.5936679790026"/></clipPath><clipPath class="axesclip" id="clipc3c665x2"><rect x="363.4648002333042" y="0" width="236.90002916302123" height="500"/></clipPath><clipPath class="axesclip" id="clipc3c665x2y"><rect x="363.4648002333042" y="63.83858267716535" width="236.90002916302123" height="356.5936679790026"/></clipPath><clipPath class="axesclip" id="clipc3c665x2y2"><rect x="363.4648002333042" y="63.83858267716535" width="236.90002916302123" height="356.5936679790026"/></clipPath></g><g class="gradients"/></defs><g class="bglayer"/><g class="layer-below"><g class="imagelayer"/><g class="shapelayer"/></g><g class="cartesianlayer"><g class="subplot xy"><g class="layer-subplot"><g class="shapelayer"/><g class="imagelayer"/></g><g class="gridlayer"><g class="x"><path class="xgrid crisp" transform="translate(101.37220764071158,0)" d="M0,63.83858267716535v356.5936679790026" style="stroke: rgb(0, 0, 0); stroke-opacity: 0.1; stroke-width: 0.5px;"/><path class="xgrid crisp" transform="translate(175.87220764071157,0)" d="M0,63.83858267716535v356.5936679790026" style="stroke: rgb(0, 0, 0); stroke-opacity: 0.1; stroke-width: 0.5px;"/><path class="xgrid crisp" transform="translate(250.37220764071157,0)" d="M0,63.83858267716535v356.5936679790026" style="stroke: rgb(0, 0, 0); stroke-opacity: 0.1; stroke-width: 0.5px;"/><path class="xgrid crisp" transform="translate(324.87220764071157,0)" d="M0,63.83858267716535v356.5936679790026" style="stroke: rgb(0, 0, 0); stroke-opacity: 0.1; stroke-width: 0.5px;"/></g><g class="y"><path class="ygrid crisp" transform="translate(0,393.7285826771653)" d="M94.67220764071158,0h236.90002916302126" style="stroke: rgb(0, 0, 0); stroke-opacity: 0.1; stroke-width: 0.5px;"/><path class="ygrid crisp" transform="translate(0,340.18858267716536)" d="M94.67220764071158,0h236.90002916302126" style="stroke: rgb(0, 0, 0); stroke-opacity: 0.1; stroke-width: 0.5px;"/><path class="ygrid crisp" transform="translate(0,286.6585826771653)" d="M94.67220764071158,0h236.90002916302126" style="stroke: rgb(0, 0, 0); stroke-opacity: 0.1; stroke-width: 0.5px;"/><path class="ygrid crisp" transform="translate(0,233.11858267716536)" d="M94.67220764071158,0h236.90002916302126" style="stroke: rgb(0, 0, 0); stroke-opacity: 0.1; stroke-width: 0.5px;"/><path class="ygrid crisp" transform="translate(0,179.58858267716533)" d="M94.67220764071158,0h236.90002916302126" style="stroke: rgb(0, 0, 0); stroke-opacity: 0.1; stroke-width: 0.5px;"/><path class="ygrid crisp" transform="translate(0,126.04858267716534)" d="M94.67220764071158,0h236.90002916302126" style="stroke: rgb(0, 0, 0); stroke-opacity: 0.1; stroke-width: 0.5px;"/><path class="ygrid crisp" transform="translate(0,72.51858267716534)" d="M94.67220764071158,0h236.90002916302126" style="stroke: rgb(0, 0, 0); stroke-opacity: 0.1; stroke-width: 0.5px;"/></g></g><g class="zerolinelayer"/><path class="xlines-below"/><path class="ylines-below"/><g class="overlines-below"/><g class="xaxislayer-below"/><g class="yaxislayer-below"/><g class="overaxes-below"/><g class="plot" transform="translate(94.67220764071158,63.83858267716535)" clip-path="url('#clipc3c665xyplot')"><g class="scatterlayer mlayer"><g class="trace scatter trace2f39ee" style="stroke-miterlimit: 2; opacity: 1;"><g class="fills"/><g class="errorbars"/><g class="lines"><path class="js-line" d="M6.7,169.39L6.96,170.67L7,163.36L7,160.37L7.35,281.84L7.5,62.04L7.75,246.91L7.76,251.88L8,43.05L8.49,293.43L8.51,137.87L8.52,132.49L8.84,59.88L9,313.55L9.27,290.74L9.28,298.95L9.68,30.76L9.84,346.5L10.03,235.68L10.04,228.03L10.12,313.41L10.25,10.09L10.79,94.74L10.8,89.5L10.81,32.19L10.87,310.55L11.55,246.45L11.56,243.72L11.94,55.25L12.3,312.29L12.31,215.67L12.32,196.75L12.51,44.39L12.87,308.89L13.07,64.34L13.08,64.85L13.1,63.6L13.72,308.42L13.83,195.65L13.84,183.67L14.28,308.76L14.52,39.1L14.59,158.14L14.6,156.3L14.67,316.51L15.08,52.12L15.35,71.84L15.36,66.69L15.36,61.64L16.09,317.83L16.11,191L16.12,190.04L16.37,302.88L16.52,51.26L16.87,169.43L16.88,168.21L16.93,285.88L17.09,35.36L17.63,110.7L17.64,104.09L17.78,265.25L18.22,33.84L18.39,160L18.4,164L18.78,42.73L18.93,260.52L19.15,195.79L19.16,186.34L19.35,52.16L19.78,267.73L19.91,65.97L19.92,66.27L20.35,262.31L20.67,164.25L20.68,160.41L20.78,65.59L20.92,261.07L21.43,135.01L21.44,130.36L21.48,250.31L21.91,54.04L22.19,61.3L22.2,59L22.48,51.86L22.92,235.51L22.95,199.02L22.96,201.8L23.33,52.31L23.48,246.28L23.71,99.13L23.72,97.42L23.76,244.83L23.89,64.08L24.47,105.37L24.48,110.25L24.9,240.13L25.03,78.34L25.23,180.86L25.24,183.13L25.31,89.14L25.95,246.79L25.99,122.52L26,120.44L26.17,98.69L26.52,247.07L26.75,118.24L26.76,124.22L26.8,245.28L27.03,91.84L27.51,173.84L27.52,168.51L27.59,93.29L27.65,235.35L28.27,125.59L28.28,132.48L28.44,100.34L28.5,225.87L29.03,116.01L29.04,112.8L29.6,104.5L29.65,226.11L29.79,166.9L29.8,169.04L30.17,99.72L30.5,240.27L30.55,139.51L30.56,143.43L31.07,238.73L31.3,101.17L31.31,129.86L31.32,131.82L31.35,234.99L31.86,107.69L32.07,163.21L32.08,170.78L32.2,230.04L32.53,106.92L32.83,171.2L32.84,171.92L33.05,221.19L33.1,108.82L33.59,116.92L33.6,122.37L33.87,104.23L33.92,223.27L34.35,196.8L34.36,195.77L34.44,98.52L35.05,229.23L35.11,167.02L35.12,168.99L35.33,231.53L35.57,105.61L35.87,140.54L35.88,143.19L35.9,228.46L36.13,110.01L36.63,199.65L36.64,203.17L37.03,224.21L37.28,110.33L37.39,144.28L37.4,145.21L37.6,218.88L38.14,107.75L38.15,170.49L38.16,177.91L38.7,102.41L38.75,217.1L38.91,184.4L38.92,185.73L39.27,102.31L39.31,220.94L39.67,169L39.68,171.64L39.83,104.7L39.88,220.18L40.43,189.12L40.44,195.6L40.45,219.83L40.69,115.11L41.19,193.61L41.2,191.44L41.3,216.2L41.83,113.78L41.95,176.8L41.96,181.59L42.15,209.54L42.68,106.25L42.71,200.51L42.72,198.04L43.2,203.14L43.25,103.11L43.47,192.01L43.48,195.21L43.48,202.62L43.53,102.49L44.23,180.11L44.24,180.53L44.38,104.51L44.92,200.74L44.99,192.27L45,192.88L45.24,115.1L45.49,209.07L45.75,187.2L45.76,189.23L45.8,117.76L46.05,211.88L46.51,187.46L46.52,186.92L47.19,213.4L47.23,123.28L47.27,182.65L47.28,184.6L47.51,123.54L47.75,217.01L48.03,214.27L48.04,215.01L48.36,122.95L48.79,176.56L48.8,178.07L48.89,211.14L48.93,125.59L49.55,193.28L49.56,192.62L49.78,132.39L50.31,213.45L50.32,213.22L50.35,136.51L50.6,216.4L51.07,172.3L51.08,170.21L51.45,215.25L51.78,138.06L51.83,198.49L51.84,198.78L52.06,137.23L52.58,215.59L52.59,196.98L52.6,192.66L52.63,139.3L52.87,215.21L53.35,171.55L53.36,171.81L53.43,209.72L53.87,141.34L54.11,187.08L54.12,185.63L54.15,142.29L54.58,206.29L54.87,190.78L54.88,186.92L55.43,206.98L55.49,141.76L55.63,172.46L55.64,174.58L56,207.34L56.34,139.54L56.39,186.95L56.4,184.17L56.56,207.91L56.62,141.23L57.15,177.78L57.16,177.36L57.19,144.64L57.41,206.02L57.91,177.33L57.92,175.93L57.98,202.32L58.04,145.52L58.67,176.47L58.68,174.54L59.12,197.03L59.37,143.62L59.43,177.1L59.44,174.28L59.98,196.52L60.04,143.22L60.19,174.19L60.2,172.39L60.21,144.68L60.83,198L60.95,165.71L60.96,163.91L61.07,144.55L61.12,197.13L61.71,175.86L61.72,173.37L61.92,146.52L61.97,195.38L62.47,157.81L62.48,155.83L62.59,146.96L63.11,195.31L63.23,168.02L63.24,166.97L63.68,194.97L63.74,145.69L63.99,168.47L64,166.53L64.3,144.38L64.54,195.2L64.75,152.7L64.76,151.26L64.87,145.01L65.1,194.68L65.51,168.4L65.52,168.2L65.67,193.24L66,146.65L66.27,162.91L66.28,159.96L66.29,148.44L66.53,192.66L67.03,151.3L67.04,151.34L67.61,149.41L67.67,194.73L67.79,168.49L67.8,167.35L68.18,149.6L68.52,195.03L68.55,158.01L68.56,156.77L68.75,149.15L68.81,196L69.31,150.26L69.32,150.58L69.37,196.62L70.07,163.11L70.08,161.8L70.23,193.7L70.45,150.28L70.83,154.61L70.84,153.87L71.02,152.12L71.08,194.35L71.59,153.98L71.6,153.68L72.16,151.83L72.22,193.49L72.35,158.31L72.36,157.65L72.5,193.61L73.02,151.58L73.11,159.67L73.12,159.48L73.36,193.61L73.87,151.16L73.87,151.23L73.88,151.54L73.92,193.84L74.44,151.37L74.63,157.46L74.64,157.56L74.73,150.96L74.78,191L75.39,161.29L75.4,161.73L75.87,150.49L75.91,190.98L76.15,150.67L76.16,150.99L76.2,190.66L76.72,149.85L76.91,159.32L76.92,160.47L77.34,189.21L77.58,149.04L77.67,162.2L77.68,162.17L77.86,148.56L77.9,188.61L78.43,152.73L78.44,153.63L78.47,187.06L78.71,149.87L79.19,164.53L79.2,165.57L79.32,185.19L79.56,149.32L79.95,164.68L79.96,164.95L79.99,179.84L80.04,160.63L80.11,161.52L80.11,160.1L80.18,183.97L80.42,148.82L80.73,169.28L80.73,171.17L80.75,183.04L81.27,148.86L81.48,173.12L81.49,173.63L81.89,183.41L82.13,148.43L82.24,168.68L82.25,169.99L82.46,182.17L82.69,147.46L83,169.57L83.01,171.3L83.26,149.22L83.31,181.34L83.76,176.28L83.77,177.08L83.88,180.3L84.11,150.41L84.52,171.57L84.53,172.73L84.64,180.69L84.68,151.45L85.28,173.14L85.29,174.1L85.77,180.21L85.83,151.78L86.04,176.35L86.05,177L86.11,151.35L86.63,181.33L86.8,176.36L86.81,176.37L86.91,181.51L86.96,151.13L87.56,172.56L87.57,173.41L87.76,180.77L87.81,152.92L88.32,179.45L88.33,179.5L88.91,181.1L88.95,153.63L89.08,177.95L89.09,178.46L89.23,154.48L89.47,181.93L89.84,171.45L89.85,172.13L90.33,181.3L90.37,153.98L90.6,180.84L90.61,181.36L90.66,153.94L90.89,182.3L91.36,175L91.37,174.96L91.46,182.47L91.51,155.6L92.12,174.08L92.13,174.75L92.36,156.81L92.88,180.07L92.88,180.01L92.89,179.87L93.22,157.05L93.45,180.57L93.64,177.25L93.65,176.73L94.3,181.23L94.36,155.01L94.4,173.32L94.41,174.13L94.64,155.03L95.16,181.19L95.16,180.46L95.17,179.71L95.21,155.63L95.72,182.01L95.92,175.18L95.93,175.06L96.01,181.46L96.35,157.96L96.68,173.61L96.69,173.55L96.91,158.77L97.44,179.31L97.44,178.71L97.45,178.25L98.01,179.45L98.06,158.54L98.2,171.83L98.21,171.1L98.86,180.73L98.91,157.89L98.96,174.3L98.97,174.2L99.2,157.99L99.71,180.87L99.72,175.4L99.73,174.52L99.76,159.49L99.99,180.88L100.48,173.9L100.49,173.24L100.56,179.95L100.62,160.26L101.24,171.03L101.25,171.03L101.7,179.38L101.77,159.06L102,175.32L102.01,174.73L102.33,158.36L102.56,179.02L102.76,170.22L102.77,170.2L102.9,159.5L103.41,180.36L103.52,168.98L103.53,168.27L103.69,180.54L103.75,160.53L104.28,173.69L104.29,173.39L104.54,178.82L104.9,161.1L105.04,169.41L105.05,168.47L105.11,177.7L105.75,160.21L105.8,168.46L105.81,167.96L105.98,177.64L106.32,159.05L106.56,172.16L106.57,171.45L106.6,158.91L107.11,177.64L107.32,169.74L107.33,168.94L107.45,160.35L107.96,178.57L108.08,164.41L108.09,164.27L108.24,178.01L108.3,161.7L108.84,173.21L108.85,172.55L108.87,162.36L109.4,176.64L109.6,165.16L109.61,164.99L109.69,176.82L109.73,162.84L109.86,175.06L109.86,175.51L110.3,162.38L110.53,178.25L110.61,168.55L110.62,168.3L110.82,178.04L111.15,161.77L111.37,175.49L111.38,176.05L111.38,177.79L111.43,161.89L112.13,175.16L112.14,175.07L112.17,162.57L112.23,177.34L112.89,170.06L112.9,170.1L113.02,163.32L113.38,177.28L113.65,175.34L113.66,175.71L114.24,177.33L114.29,164.07L114.41,177.21L114.42,176.96L114.57,163.73L114.8,178.36L115.17,166L115.18,166.03L115.37,178.37L115.77,163.84L115.93,176.81L115.94,176.45L116.11,176.62L116.34,163.6L116.69,173.19L116.7,172.73L116.9,163.37L117.37,176.94L117.45,166.04L117.46,165.42L117.93,177.25L118.06,163.45L118.21,177.2L118.22,177.26L118.79,177.49L118.91,162.44L118.97,171.08L118.98,170.46L119.19,162.28L119.63,178.19L119.73,167.06L119.74,167.4L119.76,162.74L119.92,177.79L120.49,174.6L120.5,174.38L120.76,176.17L121.19,162.94L121.25,171.86L121.26,171.75L121.34,175.67L121.76,161.96L122.01,165.79L122.02,165.77L122.04,161.68L122.77,176.16L122.77,174.72L122.78,174.11L123.33,176.44L123.46,161.12L123.53,170.43L123.54,170.46L123.74,160.73L124.18,176.31L124.29,166.01L124.3,165.15L124.31,161.05L124.46,176.09L125.05,172.5L125.06,172.48L125.16,162.66L125.31,174.97L125.81,171.72L125.82,171.27L126.17,173.68L126.31,162.24L126.57,164.24L126.58,164.1L127.07,173.65L127.16,161.59L127.33,171.2L127.34,171.32L127.92,173.89L128.01,161.16L128.09,172.4L128.1,172.11L128.2,174.21L128.57,160.58L128.85,161.02L128.86,160.81L129.33,174.47L129.61,174.25L129.62,174.12L129.7,162.42L129.79,174.43L130.37,169.78L130.38,169.36L130.47,174.17L130.56,162.72L131.13,163.01L131.14,162.87L131.21,173.82L131.71,162.12L131.89,173.33L131.9,173.52L132.56,161.83L132.63,174L132.65,167.47L132.66,166.81L133.12,162.05L133.2,174.2L133.41,163.84L133.42,164.32L133.69,162.31L134.05,175.31L134.17,171.97L134.18,171.6L134.25,163.18L134.34,175.6L134.93,168.2L134.94,168.16L135.11,164.04L135.18,174.26L135.18,174.72L135.18,175.18L135.39,164.18L135.93,171.25L135.94,170.7L136.04,174.39L136.57,163.64L136.69,169.34L136.7,169.9L137.06,174.53L137.42,162.88L137.45,172.58L137.46,172.57L137.62,174.53L137.99,162.65L138.21,169.86L138.22,169.32L138.47,173.65L138.56,162.58L138.97,169.23L138.98,169.54L139.12,162.64L139.62,174.21L139.73,172.65L139.74,172.41L139.97,163.15L140.47,175.34L140.49,166.73L140.5,166.6L141.04,175.66L141.12,162.79L141.25,171.44L141.26,171.57L141.4,162.5L141.89,176.17L142.01,169.99L142.02,170.11L142.17,176.32L142.54,162.26L142.77,169.03L142.78,169.1L143.02,175.99L143.1,162.1L143.53,171.31L143.54,171.59L143.67,162.24L144.15,175.34L144.29,169.56L144.3,169.53L144.52,163.08L144.72,175.18L145.05,171.54L145.06,171.58L145.09,163.69L145.58,174.88L145.81,169.36L145.82,169.03L145.95,163.84L146.43,175.15L146.57,171.29L146.58,171.55L147.08,163.89L147.28,175.44L147.33,170.51L147.34,170.17L147.56,175.42L147.93,163.5L148.09,167.96L148.1,167.92L148.13,175.19L148.22,163.77L148.85,171.02L148.86,171.51L148.98,174.57L149.06,164.73L149.61,169.91L149.62,169.26L149.83,174.14L150.22,165.13L150.37,167.83L150.38,168.49L150.57,173.9L151.11,165.1L151.13,173.31L151.14,173.23L151.67,164.41L151.87,173.99L151.89,168.8L151.9,168.54L152.15,173.73L152.24,163.99L152.65,170.06L152.66,170.44L153,173.74L153.37,163.84L153.41,173.26L153.42,172.95L153.57,173.66L153.94,163.65L154.17,167.73L154.18,167.51L154.72,173.58L154.8,163.54L154.93,172.05L154.94,172.19L155.57,173.93L155.65,162.71L155.69,169.63L155.7,169.49L156.22,162.09L156.42,174.14L156.45,168.92L156.46,168.85L156.7,174.26L157.07,161.65L157.21,170.58L157.22,170.6L157.27,174.08L157.35,161.71L157.97,169.35L157.98,169.32L158.12,173.82L158.2,161.77L158.73,170.96L158.74,171.05L158.77,161.89L159.26,173.63L159.49,170.06L159.5,169.87L159.62,162.52L160.11,173.94L160.25,171.23L160.26,171.6L160.39,173.94L160.47,162.48L161.01,171.12L161.02,170.62L161.04,162.55L161.53,174.21L161.77,169.33L161.78,169.28L161.81,174.2L161.9,162.55L162.53,171.81L162.54,171.88L162.66,173.84L162.75,162.82L163.21,169.29L163.21,169.68L163.31,163.11L163.84,174.4L163.96,172.03L163.97,171.78L164.16,163.86L164.7,175.06L164.72,164.97L164.73,164.7L164.73,164.52L165.26,175.53L165.48,171.08L165.49,171.45L165.59,165.22L165.83,175.86L166.24,170.8L166.25,170.56L166.4,175.83L166.76,164.91L167,166.1L167.01,165.96L167.25,175.74L167.61,164.41L167.76,172.41L167.77,172.44L167.82,175.6L168.46,164.23L168.52,169.32L168.53,168.82L169.03,164.09L169.24,175.46L169.28,167.53L169.29,167.41L169.81,175.44L169.88,164.18L170.04,170.11L170.05,169.74L170.16,164.32L170.66,175.61L170.8,167.98L170.81,167.83L170.94,175.5L171.31,163.89L171.56,166.81L171.57,166.59L171.8,175.05L172.16,163.44L172.32,167.83L172.33,167.64L172.36,175.06L172.73,163.25L173.08,168.21L173.09,168.41L173.22,174.34L173.58,163.11L173.84,166.92L173.85,166.49L173.86,163.04L174.36,174.25L174.6,167.39L174.61,167.72L174.72,163.06L174.93,174.26L175.36,170.28L175.37,170.26L175.5,174.16L175.86,162.78L176.12,165.49L176.13,165.08L176.35,173.81L176.71,162.55L176.88,168.29L176.89,168.57L176.92,173.64L177.27,162.51L177.64,169.84L177.65,169.48L177.84,162.51L178.07,173.61L178.4,163.34L178.41,163.01L178.41,162.61L178.93,173.92L179.16,169.39L179.17,169.66L179.26,162.98L179.79,174.49L179.92,166.92L179.93,166.53L180.11,163.36L180.64,175.33L180.68,163.83L180.69,163.92L180.97,163.91L181.21,175.89L181.44,169.64L181.45,169.92L181.53,164.05L182.06,176.1L182.2,166.18L182.21,166.13L182.39,164.33L182.91,176.45L182.96,165.85L182.97,166.2L183.24,164.85L183.48,176.67L183.72,169.52L183.73,169.53L183.81,165.19L184.34,176.76L184.48,166.86L184.49,167.14L184.66,166.13L185.19,177.43L185.24,167.22L185.25,167.15L185.76,177.6L185.83,166.02L186,168.44L186.01,168.55L186.04,177.68L186.68,165.92L186.76,167.89L186.77,168.18L186.89,177.58L187.25,165.76L187.52,166.48L187.53,166.31L187.74,177.54L188.1,165.42L188.28,167.65L188.29,168.13L188.31,177.27L188.67,165.23L189.04,169.72L189.05,169.95L189.16,176.7L189.52,165.17L189.8,165.25L189.81,165.28L190.02,176.44L190.55,164.73L190.56,170.22L190.57,170.89L190.58,176.17L190.83,164.71L191.32,170.13L191.33,170.22L191.44,175.84L191.68,164.65L191.71,174.58L191.71,174.96L191.72,175.85L191.97,164.59L192.23,168.55L192.23,168.12L192.29,175.47L192.82,164.35L192.98,168.44L192.99,168.16L193.14,174.67L193.67,164.1L193.74,172.96L193.75,172.72L194.24,163.84L194.29,174.37L194.5,168.26L194.51,167.76L194.86,174.29L195.09,163.62L195.26,166.74L195.27,166.54L195.37,163.67L195.72,174.43L196.02,173.13L196.03,172.83L196.23,164.04L196.58,174.38L196.78,165.49L196.79,165.08L197.08,164.11L197.43,174.79L197.54,167.39L197.55,167.49L197.65,164.48L198.29,174.98L198.3,171.86L198.31,171.41L198.79,164.59L198.85,175.1L199.06,164.93L199.07,164.73L199.14,175.03L199.35,164.38L199.82,168.43L199.83,168.54L199.92,164.57L200.57,175.06L200.58,170.45L200.59,169.81L200.77,164.8L201.13,175.4L201.34,164.95L201.35,165.01L201.98,175.69L202.1,168.03L202.11,167.73L202.77,165.26L202.84,175.92L202.86,168.44L202.87,168.08L203.12,175.93L203.62,165.05L203.62,165.05L203.63,165.06L203.69,175.88L204.38,166.55L204.39,166.34L204.96,165.08L205.11,175.79L205.14,167.54L205.15,167.57L205.68,175.9L205.81,164.81L205.9,165.85L205.91,165.8L206.1,164.83L206.53,176.12L206.66,164.98L206.67,165.01L207.23,164.99L207.38,176.16L207.42,169.57L207.43,169.61L207.52,165.07L207.56,172.41L207.65,171.76L207.65,172.42L207.67,176.13L207.91,165.05L208.4,172.01L208.41,172.14L208.52,175.86L209.05,164.65L209.16,168.76L209.17,168.86L209.37,175.12L209.9,163.68L209.92,172.3L209.93,172.87L209.94,174.7L210.47,163.37L210.68,171.48L210.69,171.51L210.75,163.25L210.79,174.42L211.06,172.18L211.06,172.65L211.08,174.43L211.32,163.2L211.59,165.05L211.59,164.59L211.64,174.26L212.17,163.09L212.34,165.11L212.35,165.02L212.45,163.06L212.5,174.02L213.1,171.03L213.11,170.86L213.35,173.55L213.59,163.24L213.86,164.78L213.87,164.41L213.91,172.92L214.45,162.81L214.62,164.77L214.63,164.73L215.01,162.61L215.36,172.38L215.38,170.66L215.39,170.5L215.58,162.65L215.64,172.38L216.14,162.88L216.15,162.73L216.72,162.72L216.86,172.25L216.9,166.12L216.91,166.34L217,162.93L217.53,172.85L217.66,169.15L217.67,169.04L217.85,163.52L218.38,173.35L218.42,164L218.43,164.11L218.95,173.6L218.99,163.84L219.18,166.73L219.19,166.86L219.52,173.71L219.56,163.87L219.94,169.06L219.95,168.9L220.09,173.58L220.13,163.93L220.7,165.01L220.71,165.3L220.98,164.13L221.22,173.3L221.46,166.36L221.47,166.18L221.55,164.41L221.79,173.45L222.22,168.63L222.23,168.84L222.4,165.16L222.93,173.72L222.98,165.38L222.99,165.49L223.26,165.17L223.5,173.93L223.74,165.54L223.75,165.64L223.78,173.99L224.4,165.12L224.5,169.19L224.51,169.58L224.52,173.68L225.17,164.75L225.26,166.31L225.27,166.45L225.38,173.37L225.73,164.43L226.02,165.3L226.03,165.72L226.23,172.99L226.58,164.22L226.78,171.68L226.79,171.92L227.15,164.06L227.37,172.79L227.54,166.11L227.55,166.33L227.72,164.1L228.05,172.98L228.3,167.82L228.31,168.19L228.33,173.02L228.57,164.49L229.06,172.19L229.07,172.36L229.67,172.88L229.71,164.75L229.82,165.86L229.83,166.01L229.95,173.08L230,164.68L230.2,171.49" style="vector-effect: non-scaling-stroke; fill: none; stroke: rgb(0, 154, 250); stroke-opacity: 1; stroke-width: 1px; opacity: 1;"/></g><g class="points"/><g class="text"/></g></g></g><g class="overplot"/><path class="xlines-above crisp" d="M93.67220764071158,420.9322506561679H331.57223680373284" style="fill: none; stroke-width: 1px; stroke: rgb(0, 0, 0); stroke-opacity: 1;"/><path class="ylines-above crisp" d="M94.17220764071158,63.83858267716535V420.4322506561679" style="fill: none; stroke-width: 1px; stroke: rgb(0, 0, 0); stroke-opacity: 1;"/><g class="overlines-above"/><g class="xaxislayer-above"><path class="xtick ticks crisp" d="M0,420.4322506561679v-5" transform="translate(101.37220764071158,0)" style="stroke: rgb(0, 0, 0); stroke-opacity: 1; stroke-width: 1px;"/><path class="xtick ticks crisp" d="M0,420.4322506561679v-5" transform="translate(175.87220764071157,0)" style="stroke: rgb(0, 0, 0); stroke-opacity: 1; stroke-width: 1px;"/><path class="xtick ticks crisp" d="M0,420.4322506561679v-5" transform="translate(250.37220764071157,0)" style="stroke: rgb(0, 0, 0); stroke-opacity: 1; stroke-width: 1px;"/><path class="xtick ticks crisp" d="M0,420.4322506561679v-5" transform="translate(324.87220764071157,0)" style="stroke: rgb(0, 0, 0); stroke-opacity: 1; stroke-width: 1px;"/><g class="xtick"><text text-anchor="middle" x="0" y="434.6322506561679" transform="translate(101.37220764071158,0)" style="font-family: sans-serif; font-size: 11px; fill: rgb(0, 0, 0); fill-opacity: 1; white-space: pre;">0</text></g><g class="xtick"><text text-anchor="middle" x="0" y="434.6322506561679" transform="translate(175.87220764071157,0)" style="font-family: sans-serif; font-size: 11px; fill: rgb(0, 0, 0); fill-opacity: 1; white-space: pre;">1</text></g><g class="xtick"><text text-anchor="middle" x="0" y="434.6322506561679" transform="translate(250.37220764071157,0)" style="font-family: sans-serif; font-size: 11px; fill: rgb(0, 0, 0); fill-opacity: 1; white-space: pre;">2</text></g><g class="xtick"><text text-anchor="middle" x="0" y="434.6322506561679" transform="translate(324.87220764071157,0)" style="font-family: sans-serif; font-size: 11px; fill: rgb(0, 0, 0); fill-opacity: 1; white-space: pre;">3</text></g></g><g class="yaxislayer-above"><path class="ytick ticks crisp" d="M94.67220764071158,0h5" transform="translate(0,393.7285826771653)" style="stroke: rgb(0, 0, 0); stroke-opacity: 1; stroke-width: 1px;"/><path class="ytick ticks crisp" d="M94.67220764071158,0h5" transform="translate(0,340.18858267716536)" style="stroke: rgb(0, 0, 0); stroke-opacity: 1; stroke-width: 1px;"/><path class="ytick ticks crisp" d="M94.67220764071158,0h5" transform="translate(0,286.6585826771653)" style="stroke: rgb(0, 0, 0); stroke-opacity: 1; stroke-width: 1px;"/><path class="ytick ticks crisp" d="M94.67220764071158,0h5" transform="translate(0,233.11858267716536)" style="stroke: rgb(0, 0, 0); stroke-opacity: 1; stroke-width: 1px;"/><path class="ytick ticks crisp" d="M94.67220764071158,0h5" transform="translate(0,179.58858267716533)" style="stroke: rgb(0, 0, 0); stroke-opacity: 1; stroke-width: 1px;"/><path class="ytick ticks crisp" d="M94.67220764071158,0h5" transform="translate(0,126.04858267716534)" style="stroke: rgb(0, 0, 0); stroke-opacity: 1; stroke-width: 1px;"/><path class="ytick ticks crisp" d="M94.67220764071158,0h5" transform="translate(0,72.51858267716534)" style="stroke: rgb(0, 0, 0); stroke-opacity: 1; stroke-width: 1px;"/><g class="ytick"><text text-anchor="end" x="91.47220764071157" y="3.8499999999999996" transform="translate(0,393.7285826771653)" style="font-family: sans-serif; font-size: 11px; fill: rgb(0, 0, 0); fill-opacity: 1; white-space: pre;">-0.15</text></g><g class="ytick"><text text-anchor="end" x="91.47220764071157" y="3.8499999999999996" transform="translate(0,340.18858267716536)" style="font-family: sans-serif; font-size: 11px; fill: rgb(0, 0, 0); fill-opacity: 1; white-space: pre;">-0.10</text></g><g class="ytick"><text text-anchor="end" x="91.47220764071157" y="3.8499999999999996" transform="translate(0,286.6585826771653)" style="font-family: sans-serif; font-size: 11px; fill: rgb(0, 0, 0); fill-opacity: 1; white-space: pre;">-0.05</text></g><g class="ytick"><text text-anchor="end" x="91.47220764071157" y="3.8499999999999996" transform="translate(0,233.11858267716536)" style="font-family: sans-serif; font-size: 11px; fill: rgb(0, 0, 0); fill-opacity: 1; white-space: pre;">0.00</text></g><g class="ytick"><text text-anchor="end" x="91.47220764071157" y="3.8499999999999996" transform="translate(0,179.58858267716533)" style="font-family: sans-serif; font-size: 11px; fill: rgb(0, 0, 0); fill-opacity: 1; white-space: pre;">0.05</text></g><g class="ytick"><text text-anchor="end" x="91.47220764071157" y="3.8499999999999996" transform="translate(0,126.04858267716534)" style="font-family: sans-serif; font-size: 11px; fill: rgb(0, 0, 0); fill-opacity: 1; white-space: pre;">0.10</text></g><g class="ytick"><text text-anchor="end" x="91.47220764071157" y="3.8499999999999996" transform="translate(0,72.51858267716534)" style="font-family: sans-serif; font-size: 11px; fill: rgb(0, 0, 0); fill-opacity: 1; white-space: pre;">0.15</text></g></g><g class="overaxes-above"/></g><g class="subplot x2y2"><g class="layer-subplot"><g class="shapelayer"/><g class="imagelayer"/></g><g class="gridlayer"><g class="x2"><path class="x2grid crisp" transform="translate(370.1548002333042,0)" d="M0,63.83858267716535v356.5936679790026" style="stroke: rgb(0, 0, 0); stroke-opacity: 0.1; stroke-width: 0.5px;"/><path class="x2grid crisp" transform="translate(414.85480023330416,0)" d="M0,63.83858267716535v356.5936679790026" style="stroke: rgb(0, 0, 0); stroke-opacity: 0.1; stroke-width: 0.5px;"/><path class="x2grid crisp" transform="translate(459.55480023330415,0)" d="M0,63.83858267716535v356.5936679790026" style="stroke: rgb(0, 0, 0); stroke-opacity: 0.1; stroke-width: 0.5px;"/><path class="x2grid crisp" transform="translate(504.2548002333042,0)" d="M0,63.83858267716535v356.5936679790026" style="stroke: rgb(0, 0, 0); stroke-opacity: 0.1; stroke-width: 0.5px;"/><path class="x2grid crisp" transform="translate(548.9548002333042,0)" d="M0,63.83858267716535v356.5936679790026" style="stroke: rgb(0, 0, 0); stroke-opacity: 0.1; stroke-width: 0.5px;"/><path class="x2grid crisp" transform="translate(593.6648002333042,0)" d="M0,63.83858267716535v356.5936679790026" style="stroke: rgb(0, 0, 0); stroke-opacity: 0.1; stroke-width: 0.5px;"/></g><g class="y2"><path class="y2grid crisp" transform="translate(0,410.33858267716533)" d="M363.4648002333042,0h236.90002916302123" style="stroke: rgb(0, 0, 0); stroke-opacity: 0.1; stroke-width: 0.5px;"/><path class="y2grid crisp" transform="translate(0,358.38858267716535)" d="M363.4648002333042,0h236.90002916302123" style="stroke: rgb(0, 0, 0); stroke-opacity: 0.1; stroke-width: 0.5px;"/><path class="y2grid crisp" transform="translate(0,306.44858267716535)" d="M363.4648002333042,0h236.90002916302123" style="stroke: rgb(0, 0, 0); stroke-opacity: 0.1; stroke-width: 0.5px;"/><path class="y2grid crisp" transform="translate(0,254.49858267716536)" d="M363.4648002333042,0h236.90002916302123" style="stroke: rgb(0, 0, 0); stroke-opacity: 0.1; stroke-width: 0.5px;"/><path class="y2grid crisp" transform="translate(0,202.54858267716537)" d="M363.4648002333042,0h236.90002916302123" style="stroke: rgb(0, 0, 0); stroke-opacity: 0.1; stroke-width: 0.5px;"/><path class="y2grid crisp" transform="translate(0,150.60858267716534)" d="M363.4648002333042,0h236.90002916302123" style="stroke: rgb(0, 0, 0); stroke-opacity: 0.1; stroke-width: 0.5px;"/><path class="y2grid crisp" transform="translate(0,98.65858267716536)" d="M363.4648002333042,0h236.90002916302123" style="stroke: rgb(0, 0, 0); stroke-opacity: 0.1; stroke-width: 0.5px;"/></g></g><g class="zerolinelayer"/><path class="xlines-below"/><path class="ylines-below"/><g class="overlines-below"/><g class="xaxislayer-below"/><g class="yaxislayer-below"/><g class="overaxes-below"/><g class="plot" transform="translate(363.4648002333042,63.83858267716535)" clip-path="url('#clipc3c665x2y2plot')"><g class="scatterlayer mlayer"><g class="trace scatter traceb666c6" style="stroke-miterlimit: 2; opacity: 1;"><g class="fills"/><g class="errorbars"/><g class="lines"><path class="js-line" d="M6.7,346.48L6.78,344.71L7.2,346.34L7.21,346.44L7.42,345.97L7.43,345.49L7.81,344.78L7.93,346.5L8.09,346.41L8.11,346.37L8.25,344.74L8.31,346.08L8.33,346.14L8.73,346.49L8.91,345.69L8.92,345.54L9.55,346.38L9.73,344.88L9.74,344.82L9.91,345.48L10.76,342.01L10.79,342.41L10.8,342.91L10.86,344.23L11.26,338.66L11.5,341.63L11.52,341.92L11.65,346.06L11.98,332.59L11.99,331.57L12.02,330.16L12.2,344.66L12.4,344.49L12.41,345.06L12.43,345.25L12.55,341.18L12.84,342.03L12.86,341.53L13.02,338.57L13.35,345.62L13.51,345.17L13.53,345.22L13.71,343.37L14.14,344.8L14.15,344.9L14.65,344.61L14.9,346.26L14.97,345.6L14.99,345.46L15.18,344.95L15.42,345.87L15.44,345.94L15.53,346.21L15.79,344.48L15.88,344.47L15.9,344.38L16.42,340.35L16.81,342.17L16.82,342.44L17.4,346.27L17.6,342.91L17.61,342.76L17.82,340.34L17.83,340.02L17.92,339.06L18.15,344.26L18.16,345.09L18.18,345.35L18.24,337.15L18.25,333.64L18.37,205.23L18.39,152.95L19.18,332.42L19.19,333.4L19.7,344.07L20.08,340.85L20.1,340.86L20.37,344.03L20.38,344.25L20.49,345.17L20.92,342.52L20.93,342.47L21.77,343.22L21.78,343.29L22.14,345.43L22.54,343.98L22.56,343.91L22.68,343.52L23.09,345.04L23.11,345.16L23.21,346.19L23.75,344.32L23.76,344.27L24.41,343.24L24.58,343.95L24.6,344L25.09,346.29L25.33,344.86L25.34,344.78L25.67,343.57L26.19,344.15L26.21,344.21L26.54,344.4L26.71,343.21L26.73,343.18L26.98,344.26L27,344.47L27.22,345.75L27.74,344.49L27.76,344.36L28.96,336.84L29.14,338.12L29.16,338.25L29.58,342.18L29.8,337.93L29.81,337.66L29.99,323.49L30.01,319.86L30.08,144.18L30.42,325.13L30.44,326.26L31.36,343.53L31.38,343.66L31.9,346.33L32.32,345.46L32.33,345.4L32.64,344.68L33.14,345.24L33.15,345.24L33.33,345.48L33.69,344.62L33.7,344.6L34.33,345.79L34.64,345.26L34.66,345.26L35.7,345.79L35.71,345.75L35.73,345.73L36.52,344.62L36.7,345.02L36.71,345.06L37.05,346L37.68,345.68L37.7,345.65L38.22,345.25L38.6,345.45L38.62,345.44L38.8,345.37L39.08,346.03L39.1,346.09L39.16,346.24L39.65,345.49L39.66,345.45L40.27,345.72L41.2,341.47L41.21,341.38L41.35,341.48L41.41,340.82L41.42,340.39L41.69,315.62L41.7,311.47L41.81,99.85L41.82,10.09L42.4,345.73L42.66,341.46L42.67,341.38L42.94,340.8L43.18,342.11L43.22,342.07L43.24,342.1L43.52,343.17L43.54,343.29L44.15,345.31L44.53,345.04L44.55,345L45.09,344.73L45.44,345.03L45.46,345.05L46.28,345.52L46.29,345.56L46.96,345.75L47.05,345.53L47.07,345.49L47.69,345.06L47.71,345.04L48.41,345.72L48.42,345.78L48.62,346.2L49.05,345.42L49.08,345.42L49.09,345.41L49.69,345.44L49.82,345.82L49.84,345.89L50.09,346.38L50.66,346.09L50.67,346.09L51.69,345.96L51.72,346.01L51.73,346.04L51.92,346.43L52.15,345.37L52.16,345.32L53.3,340.78L53.31,340.42L53.52,319.04L53.53,307.62L53.58,277.65L54.23,344.36L54.25,344.4L54.55,343.84L55.07,344.3L55.08,344.36L55.95,346.28L56.23,345.73L56.25,345.72L57.6,345.93L57.62,345.9L58.32,345.74L58.51,345.91L58.52,345.92L59.57,346.04L59.58,346.02L59.6,345.99L60.15,345.87L60.43,346.14L60.45,346.15L61.46,345.98L61.47,345.98L63.2,345.62L63.22,345.56L65.04,338.78L65.05,338.47L65.3,325.52L65.32,320.79L65.36,214.65L65.94,340.23L65.96,340.32L67.03,345.14L67.05,345.21L67.94,345.76L67.96,345.76L68.57,345.62L68.82,345.81L68.84,345.81L75.27,345L75.29,344.97L75.75,345.36L75.88,344.87L75.9,344.81L76.48,345.11L76.69,344.17L76.76,344.45L76.78,344.56L76.9,346.24L77.07,340.22L77.1,340.5L77.12,337.83L77.24,286.16L77.79,344.3L77.8,344.29L77.82,344.31L78,343.52L78.34,345.22L78.36,345.32L79.18,346.05L79.22,346.01L79.23,346L81.98,346.03L81.99,346.05L85.09,346.31L85.11,346.3L87.67,346.12L87.68,346.06L87.7,345.96L88.2,345.71L88.29,345.45L88.31,345.33L88.46,345.56L89.08,340.09L89.1,337.97L89.13,329.92L89.37,344.07L89.83,343.97L89.84,344.03L90.32,345.34L90.33,345.38L91.35,345.64L91.36,345.64L94.42,345.99L94.43,346.01L95.27,346.1L95.3,346.06L95.31,346.05L95.82,346.02L96.01,346.29L96.03,346.3L97.5,346.1L97.52,346.1L99.23,345.72L99.24,345.69L99.74,344.75L99.75,344.6L99.97,344.88L100.11,344.02L100.12,343.89L100.97,334.7L100.99,333.84L101.12,255L101.21,313.23L101.23,317.87L102.05,344.11L102.06,344.23L102.95,345.21L102.97,345.23L104.12,346.3L104.18,346.24L104.19,346.22L108.08,346.42L108.09,346.41L109.73,346.42L109.75,346.42L113.15,345.63L113.16,345.27L113.18,344.79L113.31,346.47L113.86,346.38L113.88,346.38L121.79,346.14L121.8,346.13L123.49,346.08L123.5,346.11L123.52,346.15L124.53,345.92L124.56,345.66L124.57,345.5L125.3,340.91L125.32,337.59L125.35,328.44L125.41,345.36L126.05,344.93L126.06,344.98L127.78,346.38L127.79,346.37L135.85,345.74L135.87,345.41L135.88,344.99L136.24,346.42L136.58,346.36L136.6,346.34L137.54,345.01L137.55,344.85L137.61,332.69L137.73,342.88L137.74,343.33L138.64,346.3L138.65,346.3L141.53,346.47L141.54,346.47L143.45,346.46L143.47,346.47L149.77,346.36L149.78,346.38L149.93,345.22L149.95,343.68L150.02,340.83L150.47,346.43L150.68,346.33L150.69,346.33L151.59,346.39L151.6,346.4L151.62,346.42L159.56,346.2L159.57,346.15L159.65,345.26L159.91,346.48L160.18,346.46L160.2,346.46L162.19,345.31L162.21,345.25L162.4,341.16L162.42,337.37L162.43,336.02L163.06,345.71L163.1,345.7L163.12,345.7L164.8,346.37L164.82,346.37L169.63,346.48L169.64,346.48L173.34,346.22L173.35,346.26L173.49,346.4L173.71,345.57L173.89,345.74L173.91,345.71L174.59,345.45L174.67,345.87L174.68,345.96L174.77,346.41L175.14,344.01L175.16,341.33L175.17,338.85L175.83,345.07L175.89,344.95L175.9,344.98L176.51,346.46L176.89,346.15L176.9,346.15L179.64,346.49L179.66,346.49L183.49,346.07L183.5,345.95L183.6,343.67L183.99,346.39L184.1,346.3L184.11,346.3L187.88,345.64L187.9,345.43L187.93,345.18L188.02,346.46L188.6,346.33L188.61,346.34L192.95,346.49L192.96,346.49L200.72,345.62L200.74,345.56L200.87,345.97L200.89,342.89L200.9,338.86L200.93,336.85L201.5,345.81L201.51,345.81L201.53,345.79L201.71,345.63L202.18,346.15L202.2,346.16L203.66,346.34L203.67,346.34L213.49,346.28L213.51,346.26L213.95,345.58L214.03,345.79L214.04,345.41L214.12,345.18L214.58,346.28L214.63,346.28L214.64,346.29L216.29,346.44L216.31,346.44L230.2,346.47" style="vector-effect: non-scaling-stroke; fill: none; stroke: rgb(255, 165, 0); stroke-opacity: 1; stroke-width: 1px; opacity: 1;"/></g><g class="points"/><g class="text"/></g></g></g><g class="overplot"/><path class="xlines-above crisp" d="M362.4648002333042,420.9322506561679H600.3648293963254" style="fill: none; stroke-width: 1px; stroke: rgb(0, 0, 0); stroke-opacity: 1;"/><path class="ylines-above crisp" d="M362.9648002333042,63.83858267716535V420.4322506561679" style="fill: none; stroke-width: 1px; stroke: rgb(0, 0, 0); stroke-opacity: 1;"/><g class="overlines-above"/><g class="xaxislayer-above"><path class="x2tick ticks crisp" d="M0,420.4322506561679v-5" transform="translate(370.1548002333042,0)" style="stroke: rgb(0, 0, 0); stroke-opacity: 1; stroke-width: 1px;"/><path class="x2tick ticks crisp" d="M0,420.4322506561679v-5" transform="translate(414.85480023330416,0)" style="stroke: rgb(0, 0, 0); stroke-opacity: 1; stroke-width: 1px;"/><path class="x2tick ticks crisp" d="M0,420.4322506561679v-5" transform="translate(459.55480023330415,0)" style="stroke: rgb(0, 0, 0); stroke-opacity: 1; stroke-width: 1px;"/><path class="x2tick ticks crisp" d="M0,420.4322506561679v-5" transform="translate(504.2548002333042,0)" style="stroke: rgb(0, 0, 0); stroke-opacity: 1; stroke-width: 1px;"/><path class="x2tick ticks crisp" d="M0,420.4322506561679v-5" transform="translate(548.9548002333042,0)" style="stroke: rgb(0, 0, 0); stroke-opacity: 1; stroke-width: 1px;"/><path class="x2tick ticks crisp" d="M0,420.4322506561679v-5" transform="translate(593.6648002333042,0)" style="stroke: rgb(0, 0, 0); stroke-opacity: 1; stroke-width: 1px;"/><g class="x2tick"><text text-anchor="middle" x="0" y="434.6322506561679" transform="translate(370.1548002333042,0)" style="font-family: sans-serif; font-size: 11px; fill: rgb(0, 0, 0); fill-opacity: 1; white-space: pre;">0</text></g><g class="x2tick"><text text-anchor="middle" x="0" y="434.6322506561679" transform="translate(414.85480023330416,0)" style="font-family: sans-serif; font-size: 11px; fill: rgb(0, 0, 0); fill-opacity: 1; white-space: pre;">1000</text></g><g class="x2tick"><text text-anchor="middle" x="0" y="434.6322506561679" transform="translate(459.55480023330415,0)" style="font-family: sans-serif; font-size: 11px; fill: rgb(0, 0, 0); fill-opacity: 1; white-space: pre;">2000</text></g><g class="x2tick"><text text-anchor="middle" x="0" y="434.6322506561679" transform="translate(504.2548002333042,0)" style="font-family: sans-serif; font-size: 11px; fill: rgb(0, 0, 0); fill-opacity: 1; white-space: pre;">3000</text></g><g class="x2tick"><text text-anchor="middle" x="0" y="434.6322506561679" transform="translate(548.9548002333042,0)" style="font-family: sans-serif; font-size: 11px; fill: rgb(0, 0, 0); fill-opacity: 1; white-space: pre;">4000</text></g><g class="x2tick"><text text-anchor="middle" x="0" y="434.6322506561679" transform="translate(593.6648002333042,0)" style="font-family: sans-serif; font-size: 11px; fill: rgb(0, 0, 0); fill-opacity: 1; white-space: pre;">5000</text></g></g><g class="yaxislayer-above"><path class="y2tick ticks crisp" d="M363.4648002333042,0h5" transform="translate(0,410.33858267716533)" style="stroke: rgb(0, 0, 0); stroke-opacity: 1; stroke-width: 1px;"/><path class="y2tick ticks crisp" d="M363.4648002333042,0h5" transform="translate(0,358.38858267716535)" style="stroke: rgb(0, 0, 0); stroke-opacity: 1; stroke-width: 1px;"/><path class="y2tick ticks crisp" d="M363.4648002333042,0h5" transform="translate(0,306.44858267716535)" style="stroke: rgb(0, 0, 0); stroke-opacity: 1; stroke-width: 1px;"/><path class="y2tick ticks crisp" d="M363.4648002333042,0h5" transform="translate(0,254.49858267716536)" style="stroke: rgb(0, 0, 0); stroke-opacity: 1; stroke-width: 1px;"/><path class="y2tick ticks crisp" d="M363.4648002333042,0h5" transform="translate(0,202.54858267716537)" style="stroke: rgb(0, 0, 0); stroke-opacity: 1; stroke-width: 1px;"/><path class="y2tick ticks crisp" d="M363.4648002333042,0h5" transform="translate(0,150.60858267716534)" style="stroke: rgb(0, 0, 0); stroke-opacity: 1; stroke-width: 1px;"/><path class="y2tick ticks crisp" d="M363.4648002333042,0h5" transform="translate(0,98.65858267716536)" style="stroke: rgb(0, 0, 0); stroke-opacity: 1; stroke-width: 1px;"/><g class="y2tick"><text text-anchor="end" x="360.2648002333042" y="3.8499999999999996" transform="translate(0,410.33858267716533)" style="font-family: sans-serif; font-size: 11px; fill: rgb(0, 0, 0); fill-opacity: 1; white-space: pre;">0</text></g><g class="y2tick"><text text-anchor="end" x="360.2648002333042" y="3.8499999999999996" transform="translate(0,358.38858267716535)" style="font-family: sans-serif; font-size: 11px; fill: rgb(0, 0, 0); fill-opacity: 1; white-space: pre;">100</text></g><g class="y2tick"><text text-anchor="end" x="360.2648002333042" y="3.8499999999999996" transform="translate(0,306.44858267716535)" style="font-family: sans-serif; font-size: 11px; fill: rgb(0, 0, 0); fill-opacity: 1; white-space: pre;">200</text></g><g class="y2tick"><text text-anchor="end" x="360.2648002333042" y="3.8499999999999996" transform="translate(0,254.49858267716536)" style="font-family: sans-serif; font-size: 11px; fill: rgb(0, 0, 0); fill-opacity: 1; white-space: pre;">300</text></g><g class="y2tick"><text text-anchor="end" x="360.2648002333042" y="3.8499999999999996" transform="translate(0,202.54858267716537)" style="font-family: sans-serif; font-size: 11px; fill: rgb(0, 0, 0); fill-opacity: 1; white-space: pre;">400</text></g><g class="y2tick"><text text-anchor="end" x="360.2648002333042" y="3.8499999999999996" transform="translate(0,150.60858267716534)" style="font-family: sans-serif; font-size: 11px; fill: rgb(0, 0, 0); fill-opacity: 1; white-space: pre;">500</text></g><g class="y2tick"><text text-anchor="end" x="360.2648002333042" y="3.8499999999999996" transform="translate(0,98.65858267716536)" style="font-family: sans-serif; font-size: 11px; fill: rgb(0, 0, 0); fill-opacity: 1; white-space: pre;">600</text></g></g><g class="overaxes-above"/></g></g><g class="polarlayer"/><g class="ternarylayer"/><g class="geolayer"/><g class="funnelarealayer"/><g class="pielayer"/><g class="treemaplayer"/><g class="sunburstlayer"/><g class="glimages"/><defs id="topdefs-c3c665"><g class="clips"/><clipPath id="legendc3c665"><rect width="73" height="58" x="0" y="0"/></clipPath></defs><g class="layer-above"><g class="imagelayer"/><g class="shapelayer"/></g><g class="infolayer"><g class="legend" pointer-events="all" transform="translate(615.08,60)"><rect class="bg" shape-rendering="crispEdges" width="73" height="58" x="0" y="0" style="stroke: rgb(68, 68, 68); stroke-opacity: 1; fill: rgb(255, 255, 255); fill-opacity: 1; stroke-width: 0px;"/><g class="scrollbox" transform="" clip-path="url('#legendc3c665')"><g class="groups" transform=""><g class="traces" transform="translate(0,14.5)" style="opacity: 1;"><text class="legendtext" text-anchor="start" x="40" y="4.680000000000001" style="font-family: 'Open Sans', verdana, arial, sans-serif; font-size: 12px; fill: rgb(42, 63, 95); fill-opacity: 1; white-space: pre;">Time</text><g class="layers" style="opacity: 1;"><g class="legendfill"/><g class="legendlines"><path class="js-line" d="M5,0h30" style="fill: none; stroke: rgb(0, 154, 250); stroke-opacity: 1; stroke-width: 1px;"/></g><g class="legendsymbols"><g class="legendpoints"/></g></g><rect class="legendtoggle" x="0" y="-9.5" width="67.84375" height="19" style="fill: rgb(0, 0, 0); fill-opacity: 0;"/></g></g><g class="groups" transform="translate(0,10)"><g class="traces" transform="translate(0,33.5)" style="opacity: 1;"><text class="legendtext" text-anchor="start" x="40" y="4.680000000000001" style="font-family: 'Open Sans', verdana, arial, sans-serif; font-size: 12px; fill: rgb(42, 63, 95); fill-opacity: 1; white-space: pre;">Freq</text><g class="layers" style="opacity: 1;"><g class="legendfill"/><g class="legendlines"><path class="js-line" d="M5,0h30" style="fill: none; stroke: rgb(255, 165, 0); stroke-opacity: 1; stroke-width: 1px;"/></g><g class="legendsymbols"><g class="legendpoints"/></g></g><rect class="legendtoggle" x="0" y="-9.5" width="67.84375" height="19" style="fill: rgb(0, 0, 0); fill-opacity: 0;"/></g></g></g><rect class="scrollbar" rx="20" ry="3" width="0" height="0" x="0" y="0" style="fill: rgb(128, 139, 164); fill-opacity: 1;"/></g><g class="g-gtitle"/><g class="g-xtitle"><text class="xtitle" x="213.1222222222222" y="462.140625" text-anchor="middle" style="font-family: sans-serif; font-size: 15px; fill: rgb(0, 0, 0); opacity: 1; font-weight: normal; white-space: pre;">t[s]</text></g><g class="g-x2title"><text class="x2title" x="481.9148148148148" y="462.140625" text-anchor="middle" style="font-family: sans-serif; font-size: 15px; fill: rgb(0, 0, 0); opacity: 1; font-weight: normal; white-space: pre;">f[hz]</text></g><g class="g-ytitle"/><g class="g-y2title"/></g></svg>