<svg class="main-svg" xmlns="http://www.w3.org/2000/svg" xmlns:xlink="http://www.w3.org/1999/xlink" width="700" height="500" style="" viewBox="0 0 700 500"><rect x="0" y="0" width="700" height="500" style="fill: rgb(255, 255, 255); fill-opacity: 1;"/><defs id="defs-47e4cb"><g class="clips"><clipPath id="clip47e4cbxyplot" class="plotclip"><rect width="505.69262175561386" height="356.5936679790026"/></clipPath><clipPath class="axesclip" id="clip47e4cbx"><rect x="94.67220764071158" y="0" width="505.69262175561386" height="500"/></clipPath><clipPath class="axesclip" id="clip47e4cby"><rect x="0" y="63.83858267716535" width="700" height="356.5936679790026"/></clipPath><clipPath class="axesclip" id="clip47e4cbxy"><rect x="94.67220764071158" y="63.83858267716535" width="505.69262175561386" height="356.5936679790026"/></clipPath></g><g class="gradients"/></defs><g class="bglayer"/><g class="layer-below"><g class="imagelayer"/><g class="shapelayer"/></g><g class="cartesianlayer"><g class="subplot xy"><g class="layer-subplot"><g class="shapelayer"/><g class="imagelayer"/></g><g class="gridlayer"><g class="x"><path class="xgrid crisp" transform="translate(108.98220764071158,0)" d="M0,63.83858267716535v356.5936679790026" style="stroke: rgb(0, 0, 0); stroke-opacity: 0.1; stroke-width: 0.5px;"/><path class="xgrid crisp" transform="translate(268.0022076407116,0)" d="M0,63.83858267716535v356.5936679790026" style="stroke: rgb(0, 0, 0); stroke-opacity: 0.1; stroke-width: 0.5px;"/><path class="xgrid crisp" transform="translate(427.0322076407116,0)" d="M0,63.83858267716535v356.5936679790026" style="stroke: rgb(0, 0, 0); stroke-opacity: 0.1; stroke-width: 0.5px;"/><path class="xgrid crisp" transform="translate(586.0522076407116,0)" d="M0,63.83858267716535v356.5936679790026" style="stroke: rgb(0, 0, 0); stroke-opacity: 0.1; stroke-width: 0.5px;"/></g><g class="y"><path class="ygrid crisp" transform="translate(0,393.7285826771653)" d="M94.67220764071158,0h505.69262175561386" style="stroke: rgb(0, 0, 0); stroke-opacity: 0.1; stroke-width: 0.5px;"/><path class="ygrid crisp" transform="translate(0,340.18858267716536)" d="M94.67220764071158,0h505.69262175561386" style="stroke: rgb(0, 0, 0); stroke-opacity: 0.1; stroke-width: 0.5px;"/><path class="ygrid crisp" transform="translate(0,286.6585826771653)" d="M94.67220764071158,0h505.69262175561386" style="stroke: rgb(0, 0, 0); stroke-opacity: 0.1; stroke-width: 0.5px;"/><path class="ygrid crisp" transform="translate(0,233.11858267716536)" d="M94.67220764071158,0h505.69262175561386" style="stroke: rgb(0, 0, 0); stroke-opacity: 0.1; stroke-width: 0.5px;"/><path class="ygrid crisp" transform="translate(0,179.58858267716533)" d="M94.67220764071158,0h505.69262175561386" style="stroke: rgb(0, 0, 0); stroke-opacity: 0.1; stroke-width: 0.5px;"/><path class="ygrid crisp" transform="translate(0,126.04858267716534)" d="M94.67220764071158,0h505.69262175561386" style="stroke: rgb(0, 0, 0); stroke-opacity: 0.1; stroke-width: 0.5px;"/><path class="ygrid crisp" transform="translate(0,72.51858267716534)" d="M94.67220764071158,0h505.69262175561386" style="stroke: rgb(0, 0, 0); stroke-opacity: 0.1; stroke-width: 0.5px;"/></g></g><g class="zerolinelayer"/><path class="xlines-below"/><path class="ylines-below"/><g class="overlines-below"/><g class="xaxislayer-below"/><g class="yaxislayer-below"/><g class="overaxes-below"/><g class="plot" transform="translate(94.67220764071158,63.83858267716535)" clip-path="url('#clip47e4cbxyplot')"><g class="scatterlayer mlayer"><g class="trace scatter trace8a6746" style="stroke-miterlimit: 2; opacity: 1;"><g class="fills"/><g class="errorbars"/><g class="lines"><path class="js-line" d="M14.31,169.39L14.72,170.5L14.81,167.4L14.82,167.5L14.82,167.31L15.35,252.59L15.42,73.57L15.57,167.3L15.58,170.78L15.69,281.84L16.01,62.04L16.33,202.37L16.34,195.98L16.92,291.9L17.08,43.05L17.09,97.98L17.1,100.4L17.53,271.56L17.67,70.68L17.85,134.22L17.86,138.26L18.13,293.43L18.43,70.5L18.61,226.44L18.62,214.47L18.88,59.88L19.21,313.55L19.37,168.08L19.38,151.04L19.81,305.77L20.08,33.26L20.13,101.87L20.14,109.52L20.42,307.4L20.67,30.76L20.89,104.71L20.9,114.32L21.01,346.5L21.27,43.96L21.65,230.35L21.66,221.11L21.88,10.09L22.23,307.49L22.41,98.11L22.42,94.07L22.82,301.24L23.08,32.19L23.17,180.42L23.18,195.43L23.21,310.55L23.68,58.88L23.93,175.29L23.94,185.12L24.28,50.39L24.63,293.02L24.69,185.3L24.7,180.42L24.88,71.72L25.04,277.04L25.45,102.97L25.46,94.23L25.49,55.25L25.84,283.07L26.21,268.04L26.22,272.44L26.25,312.29L26.7,44.39L26.97,144.67L26.98,139.75L27.37,75.3L27.46,308.89L27.73,131.46L27.74,123.37L27.97,63.6L28.07,289.67L28.49,92.43L28.5,84.96L28.57,64.44L28.68,301.72L29.25,214.37L29.26,226.33L29.28,308.42L29.78,47.87L30.01,134.78L30.02,136.78L30.39,70.72L30.49,308.76L30.77,160.14L30.78,167.56L30.99,39.1L31.31,316.51L31.53,104.52L31.54,106.2L31.92,315.19L32.19,52.12L32.29,259.17L32.3,264.7L32.52,311.78L32.79,61.64L33.05,164.97L33.06,163L33.13,315L33.39,61.92L33.81,177.34L33.82,175.42L33.99,64.58L34.34,317.83L34.57,95.31L34.58,88.77L34.94,302.88L35.26,51.26L35.33,246.88L35.34,244.64L35.54,301.41L35.87,54.66L36.09,122.26L36.1,122.86L36.15,285.88L36.47,35.36L36.85,147.08L36.86,150.46L37.08,51.41L37.36,268.78L37.61,98.94L37.62,104.18L37.68,34.01L37.96,265.25L38.37,247.23L38.38,250.73L38.57,259.7L38.88,33.84L39.13,143.39L39.14,155.34L39.49,56.06L39.59,257.83L39.89,175.58L39.9,179.19L40.1,42.73L40.41,260.52L40.65,158.58L40.66,155.64L41.01,259.87L41.31,52.16L41.41,230.18L41.42,223.8L41.62,258.04L41.91,61.33L42.17,175.6L42.18,181.4L42.23,267.73L42.51,65.97L42.93,166.19L42.94,162.57L43.13,75.81L43.44,262.31L43.69,128.71L43.7,121.39L44.04,251.89L44.35,65.59L44.45,189.44L44.46,191.26L44.65,261.07L44.95,68.35L45.21,172.33L45.22,182.92L45.56,65.82L45.85,250.31L45.97,186.26L45.98,191.25L46.17,63.68L46.45,238.84L46.73,119.6L46.74,117.3L46.78,54.04L47.06,231.2L47.49,221.47L47.5,226.23L47.51,234.88L47.99,51.86L48.25,201.99L48.26,207.58L48.59,52.79L48.93,235.51L49.01,202.71L49.02,200.37L49.19,53.14L49.53,243.29L49.77,108.73L49.78,96.4L49.8,52.31L50.13,246.28L50.53,218.87L50.54,220.6L50.73,244.83L51,64.08L51.29,177.87L51.3,180.82L51.33,242.7L51.61,68.84L52.05,179.04L52.06,175.46L52.21,67.59L52.54,239.9L52.81,84.92L52.82,81.48L53.14,240.13L53.43,78.34L53.57,225.4L53.58,230.63L54.03,89.14L54.19,245.2L54.33,204.84L54.34,212.99L54.65,95.61L54.79,246.61L55.09,191.74L55.1,191.61L55.25,92.96L55.4,246.79L55.85,100.11L55.86,99.19L55.86,98.69L56.61,247.07L56.61,245.82L56.62,242.39L57.09,100.72L57.21,245.28L57.37,214.25L57.38,214.23L57.69,91.84L57.82,237.65L58.13,168.76L58.14,161.96L58.29,95.81L58.42,237.5L58.89,97.32L58.9,95.01L58.9,93.29L59.03,235.35L59.65,216.29L59.66,211.39L60.1,94.5L60.24,231.29L60.41,192.74L60.42,195.8L60.7,100.34L60.84,225.87L61.17,150.52L61.18,151.55L61.45,219.23L61.55,102.04L61.93,123.06L61.94,124.73L62.15,106.3L62.69,224.57L62.7,223.64L63.2,104.5L63.29,226.11L63.45,211.74L63.46,213.13L63.8,102.41L63.9,233.48L64.21,164.6L64.22,165.04L64.4,99.72L64.51,236.42L64.97,134.32L64.98,128.97L65.11,240.27L65.61,101.8L65.73,211.97L65.74,204.28L66.22,101.47L66.32,238.73L66.49,190.42L66.5,186.33L66.81,101.17L66.92,234.99L67.25,160.24L67.26,164.01L67.42,107.77L67.53,234.14L68.01,110.85L68.02,108.54L68.02,107.69L68.74,230.04L68.77,191.15L68.78,185.86L69.35,227.55L69.44,106.92L69.53,182.63L69.54,184.09L69.95,227.45L70.04,108.8L70.29,183.86L70.3,192.05L70.56,221.19L70.65,108.82L71.05,126.77L71.06,124.36L71.7,109.07L71.8,216.94L71.81,201.25L71.82,193.15L72.3,104.23L72.4,223.27L72.57,184.66L72.58,185.5L72.91,104.51L73.01,222.85L73.33,196.8L73.34,195.77L73.51,98.52L73.61,225.51L74.09,121.26L74.1,115.62L74.11,100.22L74.82,229.23L74.85,167.56L74.86,159.58L75.32,106.84L75.42,231.53L75.61,171.24L75.62,173.57L75.92,105.61L76.02,229.35L76.37,189.88L76.38,191.16L76.63,228.46L77.13,110.01L77.14,110.86L77.84,226.75L77.89,163.76L77.9,158.59L78.37,115.6L78.45,220.65L78.65,202.01L78.66,205.76L78.99,117.2L79.05,224.21L79.41,203.08L79.42,204.26L79.58,110.33L79.66,220.37L80.17,116.38L80.18,114.37L80.26,218.88L80.8,109.91L80.93,157.4L80.94,150.37L81.41,107.75L81.5,209.77L81.69,202.56L81.7,201.49L82.01,106.33L82.1,212.89L82.45,187.63L82.46,186.05L82.62,102.41L82.71,217.1L83.21,104.48L83.22,103.06L83.82,102.31L83.92,220.94L83.97,143.04L83.98,142.33L84.43,103.28L84.52,217.64L84.73,193.26L84.74,194.24L85.03,104.7L85.13,220.18L85.49,187.85L85.5,189.02L85.63,110.56L85.73,219.97L86.25,114.97L86.26,116.56L86.34,219.83L86.86,115.11L87.01,165.08L87.02,165.58L87.46,117.5L87.55,219.5L87.77,199.14L87.78,197.1L88.08,115.14L88.15,216.2L88.53,193.41L88.54,191.08L88.76,215.25L89.29,113.81L89.3,113.78L89.36,211.5L89.9,110.2L90.05,160.45L90.06,157.7L90.5,108.96L90.57,207.03L90.81,184.78L90.82,181.17L91.11,106.25L91.17,203.28L91.57,182.7L91.58,183.73L92.22,203.14L92.32,103.11L92.33,110.03L92.34,115.36L92.82,202.62L92.93,102.49L93.09,162.78L93.1,161.21L93.43,199.78L93.53,103.14L93.85,185.43L93.86,185.02L94.03,200.36L94.14,104.57L94.61,190.11L94.62,192.18L94.64,200.16L94.74,104.51L95.37,138.93L95.38,142.9L95.89,200.74L95.95,112.63L96.13,166.9L96.14,163.55L96.49,204.08L96.56,115.1L96.89,178.1L96.9,175.44L97.09,209.07L97.16,117.22L97.65,186.85L97.66,185.98L97.77,117.76L98.3,211.88L98.41,142.79L98.42,145.83L98.91,211.06L98.98,122.21L99.17,148.34L99.18,145.87L99.51,212.6L99.59,124.49L99.93,167.89L99.94,167.26L100.12,213.29L100.21,126.36L100.69,187.31L100.7,190.75L100.81,123.28L101.33,215.07L101.45,152.61L101.46,156.98L101.93,217.01L102.03,123.99L102.21,153.51L102.22,151.29L102.54,215.01L102.63,123.18L102.97,177.19L102.98,176.66L103.14,213.09L103.24,122.95L103.73,203.73L103.74,206.31L103.75,212.4L103.84,124.22L104.49,156.86L104.5,158.02L104.97,209.43L105.05,127.09L105.25,145.62L105.26,142.12L105.58,208.95L105.65,129.29L106.01,168.82L106.02,167.07L106.18,210.77L106.26,132.39L106.77,205.22L106.78,206.98L106.87,136.36L107.4,213.45L107.53,152.36L107.54,154.02L108.01,216.4L108.08,139.01L108.29,142.3L108.3,141.66L108.61,215.73L108.69,141.13L109.05,167.36L109.06,168.99L109.22,215.19L109.34,141.83L109.81,212.65L109.82,214.21L109.82,215.25L110.54,138.06L110.57,161.38L110.58,162.66L111.04,214.36L111.14,137.23L111.33,149.39L111.34,149.27L111.64,214.85L111.74,137.88L112.09,173.69L112.1,173.75L112.24,215.59L112.34,139.3L112.85,213.29L112.86,211.19L113.45,212.68L113.56,140.53L113.61,154.84L113.62,155.86L113.78,141.04L114.06,209.72L114.37,142.88L114.38,142.04L114.67,208.16L114.98,141.34L115.13,173.76L115.14,173.61L115.27,206.12L115.59,142.29L115.89,205.42L115.9,204.99L116.19,142.96L116.5,206.29L116.65,155.27L116.66,158.24L117.1,205.3L117.24,144.04L117.41,148.65L117.42,149.24L117.71,206.96L117.84,142.51L118.17,179.2L118.18,179.16L118.45,141.76L118.92,207.23L118.93,204.91L118.94,203.31L119.05,140.93L119.53,207.34L119.69,165.14L119.7,166.98L120.14,206.83L120.26,139.54L120.45,153.96L120.46,154.58L120.74,207.91L120.86,141.23L121.21,173.29L121.22,171L121.35,206.49L121.46,142.73L121.97,195.54L121.98,192.84L122.08,144.64L122.56,206.02L122.73,164.14L122.74,166.2L123.16,205.97L123.29,145.15L123.49,153.54L123.5,154.73L123.76,202.32L123.9,145.52L124.25,166.94L124.26,165.02L124.37,200.37L124.5,146.19L125.01,193.58L125.02,193.09L125.52,145.36L125.61,196.27L125.77,169.71L125.78,172.57L126.12,144.57L126.21,197.03L126.53,163.47L126.54,163.78L126.72,143.62L126.82,196.6L127.29,166.86L127.3,164.53L127.33,143.72L128.04,196.52L128.04,196.26L128.05,195.82L128.16,143.22L128.65,197.22L128.8,165.35L128.81,167.76L129.25,196.98L129.37,144.93L129.56,164.01L129.57,163.58L129.86,198L129.98,144.87L130.32,162.44L130.33,159.84L130.35,144.55L130.46,197.13L131.08,193.58L131.09,192.77L131.57,145.99L131.68,195.32L131.84,169.07L131.85,171.63L132.17,146.52L132.28,195.38L132.6,159.63L132.61,159.77L132.89,194.24L133.02,146.91L133.36,154.22L133.37,152.94L133.62,146.96L134.12,194.07L134.13,194.09L134.23,147.01L134.73,195.31L134.88,174.37L134.89,177.45L135.33,194.27L135.45,146.81L135.64,161.09L135.65,160.76L135.94,194.97L136.05,145.69L136.4,155.9L136.41,154.73L136.54,193.52L136.65,145.19L137.16,193.08L137.17,192.71L137.26,144.38L137.76,195.2L137.92,177.88L137.93,179.04L138.36,194.28L138.47,145.01L138.68,159.36L138.69,158.22L138.97,194.68L139.08,145.86L139.44,152.13L139.45,151.38L139.57,194.07L139.68,146.87L140.2,190.37L140.21,190.1L140.79,191.57L140.9,146.65L140.96,178.5L140.97,179.57L141.42,192.69L141.5,148.44L141.72,155.53L141.73,155.6L142.02,192.66L142.11,149.27L142.48,151.22L142.49,150.9L142.72,149.18L143.24,193.83L143.25,193.52L143.84,194.51L143.93,149.92L144,179.73L144.01,180.73L144.32,149.41L144.45,194.73L144.76,155.93L144.77,156.38L144.92,150.2L145.05,194.88L145.52,151.74L145.53,151.03L145.54,149.6L146.27,195.03L146.28,193.64L146.29,192.49L146.75,149.15L146.88,196L147.04,176.8L147.05,176.9L147.14,167.56L147.14,165.92L147.35,149.45L147.48,195.86L147.83,170.28L147.84,171.93L147.96,150.15L148.08,196.62L148.59,155.69L148.6,156.69L148.69,195.19L149.17,150.92L149.35,171.3L149.36,168.98L149.78,150.7L149.91,193.7L150.11,177.89L150.12,177.96L150.18,167.22L150.18,165.75L150.39,150.28L150.52,192.47L150.93,172.41L150.94,170.91L150.99,150.33L151.13,193.47L151.69,181.47L151.7,182.95L151.73,194.35L152.2,152.77L152.45,161.81L152.46,162.7L152.84,152.81L152.94,193.44L153.21,165.47L153.22,163.88L153.44,151.95L153.55,192.51L153.97,168.93L153.98,166.92L154.16,193.49L154.65,151.8L154.73,182.43L154.74,184.02L154.77,193.61L155.27,152.76L155.49,161.75L155.5,162.42L155.88,151.58L155.98,193.53L156.25,162.33L156.26,161.06L156.48,151.58L156.59,193.61L157.01,167.8L157.02,166.33L157.2,193.51L157.69,151.16L157.77,185.07L157.78,186.94L157.8,193.84L158.3,151.9L158.53,164.31L158.54,164.63L158.91,151.37L159.01,191.97L159.29,162.86L159.3,161.5L159.51,150.96L159.62,191L160.05,167.63L160.06,166.48L160.11,151.9L160.23,190.88L160.81,186.13L160.82,187.4L160.83,190.93L161.35,151.25L161.57,163.73L161.58,163.56L161.95,150.49L162.05,190.98L162.33,159.99L162.34,159.11L162.56,150.56L162.65,190.66L163.09,166.18L163.1,165.15L163.25,189.13L163.77,149.85L163.85,186.59L163.86,186.99L164.37,150.78L164.48,188.71L164.61,163.4L164.62,163.83L164.99,150.01L165.08,189.21L165.37,157.88L165.38,158L165.6,149.04L165.69,189L166.13,166.33L166.14,165.07L166.2,148.56L166.29,188.61L166.89,187.34L166.9,187.82L166.9,188.05L167.41,149.24L167.65,164.73L167.66,165.64L168.02,149.87L168.11,186.67L168.41,160.19L168.42,159.71L168.62,150.4L168.72,186.36L169.17,167.28L169.18,165.91L169.32,185.19L169.84,149.32L169.93,184.09L169.94,184.35L170.45,149.9L170.54,184.75L170.69,164.86L170.7,164.94L171.06,149.08L171.15,183.97L171.45,160.28L171.46,160.21L171.66,148.82L171.76,183.2L172.21,165.62L172.22,164.68L172.27,149L172.36,183.04L172.97,181.46L172.98,181.42L173.04,169.03L173.04,168.39L173.18,180.03L173.48,148.86L173.54,173.64L173.54,175.18L173.6,182.61L174.08,149.41L174.09,149.09L174.14,169.78L174.14,171.66L174.7,149.11L174.81,183.41L174.86,171.54L174.87,170.86L175.31,148.43L175.41,183.17L175.62,178.26L175.63,177.82L175.91,147.77L176.01,182.17L176.38,176.97L176.39,177.32L176.51,147.46L176.61,181.65L177.14,154.97L177.15,156.15L177.72,149.22L177.84,181.34L177.9,171.33L177.91,170.47L178.33,150.78L178.44,181.21L178.66,177.58L178.67,176.58L178.95,151.54L179.05,180.3L179.42,177.76L179.43,177.81L179.55,150.41L180.07,179.7L180.18,156.05L180.19,157.08L180.67,180.69L180.76,151.45L180.94,169.33L180.95,168.43L181.27,180.25L181.38,152.01L181.7,174.99L181.71,173.88L181.88,180.26L181.98,152.19L182.46,177.16L182.47,177.75L183.1,180.21L183.21,151.78L183.22,155.81L183.23,157.4L183.7,180.99L183.81,151.35L183.98,168.92L183.99,168.16L184.31,180.45L184.41,151.38L184.74,175.41L184.75,174.52L184.91,181.33L185.02,151.77L185.5,179.94L185.51,180.58L185.52,181.51L185.62,151.13L186.26,160.31L186.27,161.12L186.73,180.52L186.83,151.85L187.02,169.56L187.03,168.7L187.33,180.77L187.44,152.92L187.78,171.65L187.79,170.69L187.94,180.05L188.04,153.66L188.54,179.5L188.55,179.39L189.18,179.51L189.27,154.02L189.3,161.09L189.31,161.69L189.78,181.1L189.87,153.63L190.06,166.1L190.07,165.97L190.38,181.43L190.47,154.48L190.82,169.58L190.83,168.85L190.99,181.93L191.07,155.45L191.58,181.01L191.59,181.26L191.71,154.83L191.96,173.07L191.96,174.2L192.19,180.83L192.32,154.69L192.65,170.13L192.65,169.8L192.81,181.3L192.92,153.98L193.4,180.17L193.41,180.84L193.52,153.94L194.02,182.3L194.16,161.31L194.17,161.99L194.63,182.29L194.73,154.89L194.92,167.06L194.93,166.58L195.23,182.47L195.33,155.6L195.68,169.98L195.69,169.2L195.83,181.67L195.94,155.76L196.44,180.53L196.45,180.15L196.55,156.18L197.2,159.98L197.21,160.67L197.66,179.98L197.77,157.13L197.96,163.32L197.97,163.26L198.27,180.07L198.4,157.12L198.72,167.81L198.73,167.02L198.99,157.05L199.48,180.47L199.49,180.57L200.1,180.8L200.22,156.58L200.24,161.15L200.25,162.49L200.7,181.15L200.83,155.84L201,164.44L201.01,164.36L201.3,181.23L201.43,155.01L201.76,169.28L201.77,168.76L202.03,155.03L202.52,180.71L202.53,180.63L202.63,155.31L203.13,181.19L203.28,162.48L203.29,162.8L203.73,181.82L203.84,156.48L204.04,165.29L204.05,164.95L204.34,182.01L204.44,157.36L204.8,167.53L204.81,166.96L204.94,181.46L205.06,158.09L205.56,177.39L205.57,176.92L205.67,157.96L206.14,180.07L206.32,161.79L206.33,162.19L206.79,178.92L206.88,158.77L207.08,163.68L207.09,164.13L207.39,179.16L207.48,159.32L207.84,166.33L207.85,166.06L208.12,158.93L208.6,179.41L208.6,179.37L208.61,179.24L209.21,179.45L209.33,158.54L209.36,164.18L209.37,165.07L209.82,179.91L209.94,158.32L210.12,165.62L210.13,166.07L210.43,180.49L210.54,158.09L210.88,167.9L210.89,166.95L211.03,180.73L211.14,157.89L211.64,179.63L211.65,179.03L211.75,157.99L212.24,180.61L212.4,163.07L212.41,163.53L212.85,180.87L212.95,159.49L213.16,165.15L213.17,165.35L213.45,180.88L213.56,160.1L213.92,164.77L213.93,164.03L214.05,180.53L214.19,160.24L214.68,177.02L214.69,176.73L214.79,160.26L215.26,179.28L215.44,163.07L215.45,163.93L215.9,178.38L216.03,160.29L216.2,167.13L216.21,167.79L216.5,179.01L216.63,159.38L216.96,165.67L216.97,165.65L217.1,179.38L217.24,159.06L217.44,171.44L217.45,171.66L217.7,179.25L217.84,158.63L218.2,162.51L218.21,162.01L218.44,158.36L218.93,179.02L218.96,172.64L218.97,171.56L219.05,158.83L219.54,179.48L219.72,169.47L219.73,170.06L220.14,179.83L220.26,159.58L220.48,169.72L220.49,170.36L220.74,180.36L220.86,160.11L221.24,162.8L221.25,162.72L221.34,180.54L221.47,160.53L222,172.98L222.01,172.61L222.07,161.04L222.55,179.49L222.76,171.08L222.77,171.58L223.15,178.82L223.31,161.32L223.52,173.46L223.53,173.74L223.76,178.36L223.92,161.1L224.28,164.16L224.29,163.94L224.37,177.7L224.52,161.04L225.04,173.21L225.05,172.4L225.62,177.33L225.74,160.21L225.8,170.48L225.81,170L226.22,177.64L226.34,159.58L226.56,172.87L226.57,172.93L226.61,176.82L226.71,162.15L226.72,161.97L226.82,177.62L226.95,159.05L227.47,172.16L227.48,171.45L227.55,158.91L228.04,177.6L228.23,169.36L228.24,169.43L228.32,163.45L228.38,170.63L228.38,170.93L228.65,177.64L228.76,159.38L229.13,161.82L229.14,161.97L229.36,160.35L229.86,178.47L229.89,173.06L229.9,173.19L229.97,161.09L230.46,178.57L230.65,168.4L230.66,168.82L231.06,178.01L231.19,161.7L231.41,171.84L231.42,172.57L231.66,177.7L231.79,161.71L232.17,163.6L232.18,164.08L232.26,176.78L232.39,162.36L232.93,175.73L232.94,175.44L233,162.7L233.53,176.64L233.69,170.2L233.7,170.26L234.14,176.82L234.24,162.84L234.45,171.86L234.46,172.11L234.74,177.54L235.21,162.72L235.22,162.55L235.45,162.38L235.95,178.25L235.97,174.41L235.98,173.63L236.55,178.04L236.66,161.87L236.73,167.89L236.74,168.05L237.15,177.86L237.26,161.77L237.49,169.35L237.5,169.9L237.76,177.79L237.87,161.89L238.25,163.37L238.26,163.9L238.85,162.23L238.97,177.68L239.01,174.09L239.02,174.02L239.45,162.57L239.57,177.34L239.77,168.76L239.78,168.99L240.06,162.75L240.18,176.73L240.53,172.26L240.54,172.79L240.82,176.71L241.27,163.32L241.29,166.32L241.3,166.7L241.87,163.7L242.02,177.28L242.05,173.88L242.06,173.16L242.47,163.92L242.63,177.26L242.81,167.79L242.82,167.18L243.23,177.09L243.35,164.13L243.57,171.68L243.58,172.05L243.85,177.33L243.96,164.07L244.33,164.99L244.34,165.11L244.56,163.73L245.06,178.36L245.09,172.08L245.1,171.38L245.16,163.92L245.66,178.24L245.85,166L245.86,166.03L245.92,164.18L246.04,178.11L246.11,166.91L246.12,166.44L246.27,178.37L246.53,164.24L246.87,177.37L246.88,176.98L247.13,163.84L247.24,177.42L247.63,168.29L247.64,168.02L247.85,176.62L248.33,163.6L248.39,165.21L248.4,164.99L248.46,176.29L248.94,163.65L248.99,164.99L248.99,164.66L249.54,163.37L249.67,176.14L249.74,168.51L249.75,167.77L249.93,176.36L250.14,163.61L250.5,174.78L250.51,174.87L250.74,163.77L251.14,177.07L251.26,167.51L251.27,167.35L251.41,163.8L251.74,177.25L251.91,167.93L251.92,167.37L252.35,177.26L252.63,163.26L252.67,171.83L252.68,172.26L252.96,177.47L253.23,162.71L253.43,165.78L253.44,165.47L253.84,162.44L254.17,177.96L254.19,173.54L254.2,172.64L254.43,162.28L254.77,178.18L254.95,166.16L254.96,165.89L255.03,162.72L255.38,178.19L255.71,171.17L255.72,171.93L255.98,177.79L256.25,162.95L256.46,166.14L256.47,166.04L256.58,177.55L256.85,163.19L257.22,174.02L257.23,173.92L257.45,163.6L257.79,176.17L257.98,166.23L257.99,166.48L258.41,175.66L258.7,162.94L258.74,171.44L258.75,172.21L259.02,175.67L259.31,162.31L259.5,168.4L259.51,168.43L259.62,175.48L259.91,161.96L260.26,174.36L260.27,173.99L260.51,161.68L260.85,175.55L261.02,167.99L261.03,167.79L261.46,175.88L261.72,161.77L261.78,172.19L261.79,172.4L261.84,174.58L261.86,171.13L261.87,170.5L262.06,176.16L262.33,161.79L262.62,171.58L262.63,171.92L262.94,161.6L263.27,176.44L263.38,169.44L263.39,169.28L263.87,176.23L264.14,160.76L264.15,160.73L264.48,176.28L264.9,170.75L264.91,170.79L265.08,176.31L265.35,161.05L265.66,172.19L265.67,173.09L265.69,176.09L265.95,161.55L266.42,169.81L266.43,169.62L266.55,162.06L266.89,175.44L267.18,163.17L267.19,163.29L267.49,174.97L267.78,162.96L267.94,172.62L267.95,172.64L268.1,174.14L268.39,162.98L268.7,173.4L268.71,173.43L268.95,166.73L268.95,166.22L269.32,173.68L269.62,162.24L269.7,171.22L269.71,171.05L269.85,163.41L269.93,173.5L270.17,165.7L270.17,165.34L270.64,173.25L270.83,161.79L270.92,170.65L270.93,170.79L271.24,173.65L271.44,161.59L271.68,164.42L271.69,164.8L271.84,173.79L272.04,161.4L272.44,173.62L272.45,173.72L272.65,161.23L272.95,170.89L272.95,171.14L273.25,161.16L273.66,174.21L273.7,169.07L273.71,168.97L273.86,160.91L274.26,174.12L274.4,168.25L274.41,168.08L274.46,160.58L274.86,174.14L275.16,170.74L275.17,170.74L275.24,173.66L275.27,168.74L275.27,167.89L275.47,174.33L275.66,161.43L275.97,170.12L275.97,170.65L276.07,174.47L276.27,161.97L276.71,170.96L276.72,170.76L276.87,162.42L277.05,174.43L277.47,163.06L277.48,162.99L277.57,169.43L277.57,169.74L277.66,174.4L277.75,164.93L278.06,165.89L278.06,165.33L278.1,162.69L278.26,174.39L278.81,168.35L278.82,168.36L279.1,174.12L279.33,162.81L279.57,165.26L279.58,165.82L279.7,173.96L279.94,162.61L280.33,172.09L280.34,172.22L280.54,162.3L280.68,173.7L281.09,165.92L281.1,165.67L281.55,173.62L281.75,161.96L281.85,169.25L281.86,169.76L282.35,161.94L282.52,173.86L282.61,168.07L282.62,168.63L282.96,161.83L283.12,174L283.37,173.38L283.38,173.22L283.56,162.09L283.73,174L284.13,166.28L284.14,165.66L284.17,162.05L284.33,174.2L284.89,169.42L284.9,169.81L285.37,162.31L285.55,174.75L285.65,168.03L285.66,167.91L285.97,162.79L286.16,175.31L286.41,171.97L286.42,171.6L286.58,163.18L286.76,175.6L287.17,164.1L287.18,163.85L287.18,163.63L287.36,175.54L287.93,168.95L287.94,169.77L287.97,175.34L288.41,164.04L288.69,167.83L288.7,167.95L289.01,164.18L289.17,174.91L289.45,171.98L289.46,172.06L289.61,164.43L289.78,174.54L289.99,170.9L289.99,171.44L290.32,164.35L290.38,174.39L290.74,173.71L290.75,173.8L290.93,164.01L290.99,174.27L291.33,171.97L291.33,172.23L291.53,163.64L291.96,174.28L291.98,171.64L291.99,170.95L292.56,174.53L292.74,163.29L292.75,163.4L293.17,174.39L293.35,162.88L293.5,168.31L293.51,168.39L293.77,174.53L293.95,162.78L294.26,172.46L294.27,172.62L294.37,174.38L294.56,162.65L295.02,171.73L295.03,171.34L295.58,173.65L295.76,162.58L295.78,164.64L295.79,165.2L296.2,173.61L296.37,162.73L296.54,170.51L296.55,170.43L296.81,173.86L296.97,162.64L297.3,173.37L297.31,173.29L297.58,162.69L298.03,174.21L298.06,170.44L298.07,169.62L298.18,162.69L298.64,174.75L298.82,165.04L298.83,165.3L299.24,175.03L299.39,163.37L299.58,170.15L299.59,169.85L299.85,175.34L300.02,163.49L300.34,171.51L300.35,171.34L300.63,163.12L301.06,175.66L301.1,168.27L301.11,167.77L301.66,175.61L301.83,162.5L301.86,165.81L301.87,166.38L302.27,175.93L302.44,162.58L302.62,170.44L302.63,170.46L302.87,176.17L303.05,162.65L303.31,168.14L303.32,168.6L303.47,176.32L303.65,162.58L304.07,175.92L304.08,176.16L304.26,162.26L304.65,170.28L304.65,170.79L304.68,176.29L304.87,162.27L305.4,169.39L305.41,169.31L305.47,162.1L305.89,175.56L306.16,169.55L306.17,169.79L306.5,175.22L306.68,162.24L306.92,166.41L306.93,166.43L307.1,175.27L307.28,162.63L307.68,172.84L307.69,173.29L307.71,175.34L307.89,162.77L308.44,170.23L308.45,169.78L308.49,163.08L308.92,175.18L309.2,169.58L309.21,169.52L309.53,174.92L309.71,163.69L309.96,165.95L309.97,165.7L310.14,174.71L310.31,164.07L310.55,167.45L310.56,167.04L310.75,174.88L310.94,164.1L311.31,171.44L311.32,171.83L311.54,163.84L311.96,175.12L312.07,170.82L312.08,170.28L312.15,163.84L312.57,175.15L312.83,167.69L312.84,167.53L313.17,175.28L313.36,163.91L313.59,165.92L313.6,165.7L313.78,175.38L313.94,165.65L313.94,165.33L313.97,163.89L314.37,174.15L314.37,174.59L314.38,175.44L314.58,163.56L315.12,169.13L315.13,168.76L315.59,175.36L315.78,163.5L315.88,168.09L315.89,168.31L316.2,175.19L316.38,163.77L316.64,167.09L316.65,167.44L316.8,174.95L316.99,164L317.4,174.75L317.41,174.79L317.59,164.53L318.16,168.86L318.17,168.2L318.2,164.73L318.62,174.53L318.92,167.36L318.93,167.42L319.22,174.31L319.41,165.42L319.68,167.98L319.69,168.19L319.82,174.14L320.07,165.23L320.44,173.15L320.45,172.96L320.67,165.13L320.8,173.89L321.2,167.72L321.21,167.36L321.27,165.15L321.4,173.9L321.96,166.66L321.97,167.16L322.36,173.78L322.55,165.1L322.72,169.25L322.73,169.55L322.97,173.9L323.16,164.74L323.48,173.05L323.49,172.96L323.76,164.41L324.18,173.99L324.24,168.29L324.25,168.07L324.78,173.73L324.97,163.99L325,167.61L325.01,168.19L325.39,173.68L325.57,164.06L325.76,170.46L325.77,170.17L325.99,173.73L326.18,164.02L326.52,171.99L326.53,171.69L326.6,173.74L326.78,163.96L327.28,167.71L327.29,167.33L327.8,173.66L328,163.73L328.04,168.72L328.05,169.27L328.08,173.56L328.6,163.65L328.8,168.92L328.81,168.61L329.21,163.64L329.29,173.49L329.56,170.43L329.57,170.47L329.82,163.71L330.26,173.58L330.32,167.74L330.33,167.64L330.43,163.54L330.48,171.39L330.48,171.98L330.86,173.65L331.03,163.23L331.04,163.17L331.47,173.78L331.64,162.92L331.79,170.11L331.8,170.18L332.08,173.93L332.23,164.37L332.23,164L332.68,174.03L332.86,162.47L332.98,169.39L332.99,169.47L333.29,174.02L333.46,162.09L333.74,170.39L333.75,170.56L333.89,174.14L334.04,165.35L334.04,164.86L334.49,174.26L334.67,161.69L334.79,169.49L334.8,169.55L335.1,174.18L335.28,161.65L335.55,169.07L335.56,169.33L335.7,174.08L335.88,161.71L336.31,174.02L336.32,173.93L336.49,161.82L336.92,173.97L337.07,163.44L337.08,162.93L337.52,173.82L337.7,161.77L337.83,169.33L337.84,169.52L338.12,173.65L338.3,161.8L338.59,168.6L338.6,168.84L338.91,161.89L339.35,173.47L339.35,173.47L339.36,173.44L339.51,161.99L339.96,173.63L340.11,162.55L340.12,162.37L340.56,173.87L340.7,166.45L340.7,165.73L340.73,162.52L341.17,173.91L341.45,168.71L341.46,168.89L341.77,173.94L341.94,162.62L342.21,166.99L342.22,167.3L342.38,173.94L342.55,162.48L342.97,173.68L342.98,173.82L343.16,162.53L343.55,170.82L343.55,171.12L343.76,162.55L344.19,173.97L344.3,172.17L344.31,171.76L344.37,162.57L344.8,174.21L345.06,167.71L345.07,167.62L345.4,174.2L345.57,164.09L345.57,163.65L345.59,162.55L346.01,174.13L346.32,171.31L346.33,171.51L346.61,173.92L346.79,162.67L347.08,168.66L347.09,168.83L347.22,173.84L347.4,162.82L347.84,172.08L347.85,171.72L348,162.87L348.53,174L348.6,163.38L348.61,163.19L349.14,174.18L349.2,165.24L349.2,164.64L349.22,163.3L349.75,174.4L349.95,169.76L349.96,170.15L350.36,174.59L350.43,163.86L350.71,167.93L350.72,168.25L350.96,174.83L351.03,164.16L351.47,172.05L351.48,171.79L351.63,164.52L352.17,175.18L352.23,165.17L352.24,165.02L352.39,170.7L352.39,171.1L352.78,175.53L352.86,165.08L353.14,168.68L353.15,169L353.38,175.69L353.46,165.22L353.9,171.23L353.91,171.03L353.99,175.86L354.07,165.34L354.66,166.06L354.67,165.91L355.2,175.83L355.36,165.18L355.42,171.14L355.43,171.39L355.81,175.7L355.97,164.91L356.18,169.4L356.19,169.35L356.41,175.74L356.57,164.77L356.94,169.61L356.95,169.32L357.02,175.74L357.18,164.52L357.7,166.44L357.71,166.33L357.78,164.41L357.88,172.11L358.1,171.08L358.1,171.46L358.23,175.6L358.39,164.29L358.76,169.04L358.76,168.82L358.83,175.53L358.99,164.36L359.3,170.56L359.31,170.99L359.44,175.57L359.6,164.23L360.06,174.87L360.07,174.58L360.66,175.34L360.81,164.09L360.82,164.52L360.83,164.72L361.27,175.46L361.41,164.29L361.58,167.29L361.59,167.38L361.87,175.4L362.02,164.21L362.34,171.61L362.35,171.82L362.63,164.18L363.08,175.55L363.1,174.17L363.11,173.71L363.23,164.32L363.69,175.6L363.86,164.8L363.87,164.89L364.3,175.61L364.47,164.4L364.62,167.61L364.63,167.72L364.9,175.5L365.08,164.16L365.38,171.51L365.39,171.34L365.51,175.38L365.68,163.89L366.14,173.28L366.15,172.93L366.72,175.05L366.89,163.55L366.9,164.02L366.91,164.31L367.33,175.02L367.5,163.44L367.66,168.68L367.67,168.95L367.93,175.06L368.1,163.41L368.42,170.9L368.43,170.67L368.53,174.76L368.71,163.25L369.18,173.16L369.19,173.03L369.75,174.34L369.92,163.13L369.94,164.61L369.95,165.04L370.36,174.02L370.53,163.11L370.7,170.04L370.71,170.03L370.99,173.89L371.13,163.04L371.46,169.43L371.47,169.04L371.74,163.17L372.2,174.25L372.22,173.35L372.23,173.12L372.8,174.19L372.96,163.06L372.98,165.41L372.99,165.89L373.41,174.26L373.56,163.1L373.74,170.01L373.75,169.82L374.01,174.24L374.17,163.15L374.5,167.54L374.51,167.3L374.62,174.16L374.78,163.04L375.26,172.82L375.27,172.73L375.39,162.78L375.78,170.4L375.79,170.75L375.83,173.86L375.99,162.62L376.54,168.93L376.55,168.51L377.05,173.72L377.2,162.55L377.3,168.71L377.31,168.54L377.65,173.64L377.81,162.57L378.06,167.97L378.07,168.47L378.3,173.51L378.41,162.51L378.82,171.09L378.83,171.49L378.9,173.62L379.02,162.58L379.58,168.4L379.59,167.78L379.63,162.51L380.11,173.61L380.34,168.51L380.35,168.5L380.45,165.32L380.73,173.61L380.81,165.46L380.82,164.84L380.84,162.61L381.35,173.79L381.57,169.12L381.58,169.34L381.96,173.92L382.05,162.83L382.33,170.39L382.34,170.44L382.57,174.14L382.65,162.98L383.05,168.62L383.05,168.88L383.18,174.25L383.26,163.13L383.62,166.83L383.62,166.79L383.79,174.49L383.87,163.26L384.21,167.45L384.21,167.23L384.39,174.73L384.47,163.36L384.96,173.32L384.97,173.45L385.08,163.64L385.6,175.33L385.72,166.42L385.73,166.83L386.21,175.61L386.3,163.91L386.48,168.22L386.49,167.82L386.82,175.89L386.9,163.95L387.24,167.56L387.25,167.39L387.42,176.04L387.51,164.05L388,173.96L388.01,174.4L388.11,164.13L388.63,176.1L388.76,167.58L388.77,167.77L389.24,176.12L389.33,164.33L389.52,167.56L389.53,167.22L389.85,176.3L389.93,164.5L390.28,167.51L390.29,167.39L390.45,176.45L390.54,164.7L391.04,175.54L391.05,175.88L391.15,164.85L391.67,176.67L391.8,167.41L391.81,167.29L392.27,176.67L392.36,165.19L392.56,166.81L392.57,166.6L392.88,176.72L392.96,165.44L393.32,166.95L393.33,166.85L393.49,176.76L393.56,165.75L393.64,166.18L393.65,166.18L394.1,176.89L394.17,166.13L394.36,168.89L394.37,168.48L394.7,177.22L394.86,166.24L395.12,167.98L395.13,167.73L395.31,177.43L395.46,166.15L395.88,173.96L395.89,174.52L396.07,166.05L396.52,177.6L396.64,167.1L396.65,166.95L396.67,166.02L397.13,177.68L397.4,167.75L397.41,167.52L397.73,177.63L397.88,165.98L398.16,167.56L398.17,167.51L398.34,177.61L398.48,166.19L398.48,166.11L398.49,165.92L398.9,171.8L398.91,172.51L398.94,177.58L399.1,165.88L399.66,167.47L399.67,167.34L400.15,177.53L400.32,165.62L400.42,169.26L400.43,168.96L400.76,177.54L400.92,165.55L401.18,168.6L401.19,168.48L401.37,177.45L401.53,165.42L401.94,173.16L401.95,173.93L401.97,177.27L402.13,165.28L402.7,167.26L402.71,166.95L402.74,165.23L403.19,176.92L403.46,168.64L403.47,168.29L403.79,176.7L403.95,165.28L404.22,168.42L404.23,168.35L404.32,165.47L404.4,176.52L404.52,167.27L404.53,166.95L404.55,165.17L405.01,176.49L405.28,168.47L405.29,168.07L405.53,165.1L405.61,176.44L406.04,168.52L406.05,168.5L406.14,164.93L406.22,176.36L406.35,166.11L406.36,165.83L406.74,164.73L406.83,176.17L407.11,166.99L407.12,166.8L407.35,164.71L407.43,176.03L407.87,168.81L407.88,168.98L408.04,175.91L408.56,164.7L408.63,175L408.64,175.32L409.17,164.65L409.25,175.85L409.39,166.07L409.4,165.96L409.77,164.59L409.86,175.66L410.15,166.85L410.16,166.73L410.38,164.5L410.43,172.1L410.44,172.71L410.47,175.47L410.99,164.41L411.19,167.81L411.2,167.51L411.59,164.35L411.68,175.03L411.95,167.91L411.96,167.68L412.2,164.2L412.28,174.67L412.71,169.7L412.72,169.93L412.89,174.4L413.42,164.1L413.47,172.71L413.48,173.1L414.02,163.98L414.13,174.29L414.23,167.34L414.24,167L414.63,163.84L414.74,174.37L414.99,167.34L415,167.05L415.23,163.67L415.35,174.26L415.75,170.86L415.76,170.99L415.84,163.67L415.89,170.29L415.89,170.75L415.96,174.29L416.44,163.62L416.64,169.86L416.65,169.39L417.05,163.67L417.18,174.34L417.4,168.46L417.41,168.09L417.66,163.85L417.78,174.43L418.16,169.86L418.17,170.12L418.26,163.97L418.38,174.32L418.92,169.6L418.93,169.97L419.48,164.11L419.63,174.38L419.68,168.71L419.69,168.28L420.08,164.15L420.23,174.6L420.44,167.29L420.45,167.09L420.69,164.11L420.84,174.63L421.2,171.34L421.21,171.66L421.29,164.3L421.44,174.79L421.96,169.79L421.97,170.19L422.51,164.66L422.66,174.96L422.72,168.65L422.73,168.25L423.12,164.65L423.27,174.98L423.48,167.55L423.49,167.5L423.64,172.69L423.69,166.82L423.7,166.44L423.87,175.03L424.34,164.59L424.45,174.21L424.46,174.42L424.48,175.1L424.94,164.44L425.21,168.83L425.22,169.25L425.55,164.38L425.69,174.91L425.97,168.17L425.98,167.99L426.15,164.49L426.3,174.9L426.73,166.21L426.74,165.83L426.76,164.57L426.9,174.94L427.49,174.37L427.5,174.5L427.97,164.7L428.13,175.06L428.25,169.8L428.26,170.03L428.58,164.8L428.74,175.23L429.01,166.48L429.02,166.25L429.18,164.92L429.34,175.4L429.77,165.75L429.78,165.49L429.79,164.93L429.95,175.47L430.53,174.47L430.54,174.75L431,165.28L431.16,175.69L431.29,170.18L431.3,170.34L431.63,165.48L431.77,175.81L432.05,165.92L432.06,165.93L432.24,165.38L432.37,175.88L432.81,166.21L432.82,166.09L432.98,175.92L433.45,165.12L433.57,175.33L433.58,175.58L433.59,175.93L434.05,165.1L434.33,170.46L434.34,170.29L434.66,165.05L434.8,175.88L435.09,165.7L435.1,165.73L435.26,165.11L435.4,175.77L435.85,165.79L435.86,165.59L435.87,165.2L436.01,175.75L436.61,175.68L436.62,175.73L436.91,165.27L437.18,171.68L437.19,172.21L437.52,165.08L437.84,175.79L437.94,169.89L437.95,170.06L438.12,164.98L438.44,175.82L438.7,166.59L438.71,166.24L439.05,175.9L439.33,164.81L439.46,169L439.47,168.59L439.65,175.95L439.94,164.83L440.22,172.25L440.23,172.77L440.54,164.97L440.86,176.12L440.98,169.8L440.99,169.72L441.15,164.98L441.47,176.08L441.74,165.62L441.75,165.38L442.08,176.14L442.36,164.99L442.5,168.27L442.51,168.06L442.68,176.16L442.97,165.07L443.26,173.08L443.27,173.72L443.29,176.13L443.8,165.05L444.02,169.72L444.03,169.64L444.41,165.06L444.5,175.98L444.78,165.38L444.79,165.34L445.02,164.99L445.1,175.86L445.37,166.92L445.37,166.61L445.63,164.87L445.71,175.68L446.12,170.58L446.13,170.36L446.31,175.33L446.85,164.36L446.88,169.52L446.89,170.35L446.92,175.12L447.45,164L447.64,170.19L447.65,170.17L448.06,163.68L448.14,174.7L448.33,171L448.34,171.1L448.66,163.48L448.75,174.63L448.94,171L448.94,171.08L449.04,164.76L449.09,169.84L449.1,170.15L449.27,163.37L449.35,174.59L449.85,164.98L449.86,164.55L449.88,163.25L450.57,174.43L450.61,171.08L450.62,170.87L451.08,163.2L451.17,174.34L451.37,171.06L451.38,171.12L451.56,171.82L451.69,163.15L451.74,170.69L451.75,171.27L451.78,174.26L452.3,163.11L452.5,169.32L452.51,169.13L452.9,163.09L452.99,174.11L453.26,165.74L453.27,165.47L453.51,163.06L453.6,174.02L454.02,170.15L454.03,170.19L454.12,163.11L454.2,173.88L454.5,165.39L454.51,165.43L454.72,163.2L454.81,173.72L455.09,165.72L455.1,165.62L455.33,163.32L455.41,173.55L455.85,171.01L455.86,171.07L455.94,163.24L456.02,173.29L456.38,170.28L456.39,170.5L456.55,163.1L456.62,172.92L457.14,163.33L457.15,163.17L457.23,172.61L457.76,162.81L457.9,172.02L457.91,171.95L458.05,172.2L458.37,162.64L458.66,171.89L458.67,171.69L458.97,162.61L459.1,172.3L459.42,169.74L459.43,169.74L459.58,162.65L459.7,172.38L459.93,167.45L459.93,167.01L460.18,162.65L460.3,172.38L460.61,168.55L460.62,168.73L460.79,162.67L460.91,172.29L461.37,164.34L461.38,163.85L461.39,162.69L461.51,172.2L462.13,171.87L462.14,171.82L462.22,168.52L462.3,172.09L462.31,172.11L462.53,172.2L462.61,162.72L462.75,171.9L462.76,171.96L462.91,172.25L462.99,165.09L463.11,170.96L463.11,171.17L463.21,162.93L463.74,172.63L463.86,167.28L463.87,167.62L464.35,172.85L464.42,163.31L464.62,169.54L464.63,169.33L465.03,163.52L465.34,173.09L465.38,167.77L465.39,167.36L465.64,163.75L465.94,173.25L466.14,171.36L466.15,171.73L466.77,173.47L466.85,163.86L466.9,167.85L466.91,168.25L467.38,173.6L467.46,163.84L467.66,169.57L467.67,169.51L467.98,173.7L468.07,163.9L468.33,170.83L468.34,171.24L468.59,173.71L468.68,163.87L469.09,167.03L469.1,167.17L469.19,173.63L469.28,163.87L469.85,167.49L469.86,166.99L469.89,163.93L470.41,173.43L470.61,172.22L470.62,172.33L470.79,173.25L470.88,166.3L470.99,172.11L471,172.48L471.01,173.35L471.1,164.03L471.75,167.12L471.76,167.24L472.23,173.3L472.31,164.25L472.51,169.65L472.52,169.35L472.84,173.42L472.92,164.41L473.27,168.41L473.28,168.05L473.44,173.45L473.52,164.66L474.03,172.72L474.04,172.97L474.13,164.91L474.66,173.57L474.79,166.35L474.8,166.6L475.27,173.62L475.34,165.39L475.55,168.54L475.56,168.4L475.78,165.4L475.87,173.72L475.92,166.98L475.93,166.62L476.48,173.83L476.58,165.17L476.68,171.24L476.69,171.44L477.08,173.93L477.19,165.17L477.44,172.78L477.45,173.13L477.69,173.99L477.79,165.14L478.2,165.51L478.21,165.5L478.29,173.93L478.4,165.16L478.77,167.67L478.78,167.39L478.9,173.85L479.01,165.12L479.53,171.28L479.54,170.91L479.88,173.58L480.04,165.04L480.29,168.44L480.3,168.72L480.49,173.47L480.65,164.75L481.05,169.74L481.06,170.22L481.09,173.37L481.25,164.61L481.81,167.76L481.82,167.53L481.86,164.43L482.3,173.19L482.57,171.07L482.58,170.78L482.91,172.99L483.06,164.32L483.33,169.41L483.34,169.69L483.52,172.75L483.67,164.22L484.09,171.06L484.1,171.4L484.28,164.12L484.74,172.72L484.85,166.82L484.86,166.33L484.88,164.06L485.35,172.79L485.61,170.61L485.62,170.19L486.09,164.1L486.19,172.95L486.37,169.38L486.38,169.67L486.7,164.2L486.79,172.98L487.13,171.25L487.14,171.51L487.3,164.33L487.4,173.02L487.89,165.59L487.9,165.2L487.91,164.49L488,172.91L488.65,170.02L488.66,169.8L489.12,164.76L489.21,172.64L489.41,169.95L489.42,170.45L489.65,172.61L489.73,164.79L490.17,171.87L490.18,172.06L490.34,164.75L490.86,173.08L490.93,165.5L490.94,165.27L490.95,164.68L491.04,172.28L491.38,171.49" style="vector-effect: non-scaling-stroke; fill: none; stroke: rgb(0, 154, 250); stroke-opacity: 1; stroke-width: 1px; opacity: 1;"/></g><g class="points"/><g class="text"/></g></g></g><g class="overplot"/><path class="xlines-above crisp" d="M93.67220764071158,420.9322506561679H600.3648293963254" style="fill: none; stroke-width: 1px; stroke: rgb(0, 0, 0); stroke-opacity: 1;"/><path class="ylines-above crisp" d="M94.17220764071158,63.83858267716535V420.4322506561679" style="fill: none; stroke-width: 1px; stroke: rgb(0, 0, 0); stroke-opacity: 1;"/><g class="overlines-above"/><g class="xaxislayer-above"><path class="xtick ticks crisp" d="M0,420.4322506561679v-5" transform="translate(108.98220764071158,0)" style="stroke: rgb(0, 0, 0); stroke-opacity: 1; stroke-width: 1px;"/><path class="xtick ticks crisp" d="M0,420.4322506561679v-5" transform="translate(268.0022076407116,0)" style="stroke: rgb(0, 0, 0); stroke-opacity: 1; stroke-width: 1px;"/><path class="xtick ticks crisp" d="M0,420.4322506561679v-5" transform="translate(427.0322076407116,0)" style="stroke: rgb(0, 0, 0); stroke-opacity: 1; stroke-width: 1px;"/><path class="xtick ticks crisp" d="M0,420.4322506561679v-5" transform="translate(586.0522076407116,0)" style="stroke: rgb(0, 0, 0); stroke-opacity: 1; stroke-width: 1px;"/><g class="xtick"><text text-anchor="middle" x="0" y="434.6322506561679" transform="translate(108.98220764071158,0)" style="font-family: sans-serif; font-size: 11px; fill: rgb(0, 0, 0); fill-opacity: 1; white-space: pre;">0</text></g><g class="xtick"><text text-anchor="middle" x="0" y="434.6322506561679" transform="translate(268.0022076407116,0)" style="font-family: sans-serif; font-size: 11px; fill: rgb(0, 0, 0); fill-opacity: 1; white-space: pre;">1</text></g><g class="xtick"><text text-anchor="middle" x="0" y="434.6322506561679" transform="translate(427.0322076407116,0)" style="font-family: sans-serif; font-size: 11px; fill: rgb(0, 0, 0); fill-opacity: 1; white-space: pre;">2</text></g><g class="xtick"><text text-anchor="middle" x="0" y="434.6322506561679" transform="translate(586.0522076407116,0)" style="font-family: sans-serif; font-size: 11px; fill: rgb(0, 0, 0); fill-opacity: 1; white-space: pre;">3</text></g></g><g class="yaxislayer-above"><path class="ytick ticks crisp" d="M94.67220764071158,0h5" transform="translate(0,393.7285826771653)" style="stroke: rgb(0, 0, 0); stroke-opacity: 1; stroke-width: 1px;"/><path class="ytick ticks crisp" d="M94.67220764071158,0h5" transform="translate(0,340.18858267716536)" style="stroke: rgb(0, 0, 0); stroke-opacity: 1; stroke-width: 1px;"/><path class="ytick ticks crisp" d="M94.67220764071158,0h5" transform="translate(0,286.6585826771653)" style="stroke: rgb(0, 0, 0); stroke-opacity: 1; stroke-width: 1px;"/><path class="ytick ticks crisp" d="M94.67220764071158,0h5" transform="translate(0,233.11858267716536)" style="stroke: rgb(0, 0, 0); stroke-opacity: 1; stroke-width: 1px;"/><path class="ytick ticks crisp" d="M94.67220764071158,0h5" transform="translate(0,179.58858267716533)" style="stroke: rgb(0, 0, 0); stroke-opacity: 1; stroke-width: 1px;"/><path class="ytick ticks crisp" d="M94.67220764071158,0h5" transform="translate(0,126.04858267716534)" style="stroke: rgb(0, 0, 0); stroke-opacity: 1; stroke-width: 1px;"/><path class="ytick ticks crisp" d="M94.67220764071158,0h5" transform="translate(0,72.51858267716534)" style="stroke: rgb(0, 0, 0); stroke-opacity: 1; stroke-width: 1px;"/><g class="ytick"><text text-anchor="end" x="91.47220764071157" y="3.8499999999999996" transform="translate(0,393.7285826771653)" style="font-family: sans-serif; font-size: 11px; fill: rgb(0, 0, 0); fill-opacity: 1; white-space: pre;">-0.15</text></g><g class="ytick"><text text-anchor="end" x="91.47220764071157" y="3.8499999999999996" transform="translate(0,340.18858267716536)" style="font-family: sans-serif; font-size: 11px; fill: rgb(0, 0, 0); fill-opacity: 1; white-space: pre;">-0.10</text></g><g class="ytick"><text text-anchor="end" x="91.47220764071157" y="3.8499999999999996" transform="translate(0,286.6585826771653)" style="font-family: sans-serif; font-size: 11px; fill: rgb(0, 0, 0); fill-opacity: 1; white-space: pre;">-0.05</text></g><g class="ytick"><text text-anchor="end" x="91.47220764071157" y="3.8499999999999996" transform="translate(0,233.11858267716536)" style="font-family: sans-serif; font-size: 11px; fill: rgb(0, 0, 0); fill-opacity: 1; white-space: pre;">0.00</text></g><g class="ytick"><text text-anchor="end" x="91.47220764071157" y="3.8499999999999996" transform="translate(0,179.58858267716533)" style="font-family: sans-serif; font-size: 11px; fill: rgb(0, 0, 0); fill-opacity: 1; white-space: pre;">0.05</text></g><g class="ytick"><text text-anchor="end" x="91.47220764071157" y="3.8499999999999996" transform="translate(0,126.04858267716534)" style="font-family: sans-serif; font-size: 11px; fill: rgb(0, 0, 0); fill-opacity: 1; white-space: pre;">0.10</text></g><g class="ytick"><text text-anchor="end" x="91.47220764071157" y="3.8499999999999996" transform="translate(0,72.51858267716534)" style="font-family: sans-serif; font-size: 11px; fill: rgb(0, 0, 0); fill-opacity: 1; white-space: pre;">0.15</text></g></g><g class="overaxes-above"/></g></g><g class="polarlayer"/><g class="ternarylayer"/><g class="geolayer"/><g class="funnelarealayer"/><g class="pielayer"/><g class="treemaplayer"/><g class="sunburstlayer"/><g class="glimages"/><defs id="topdefs-47e4cb"><g class="clips"/><clipPath id="legend47e4cb"><rect width="73" height="29" x="0" y="0"/></clipPath></defs><g class="layer-above"><g class="imagelayer"/><g class="shapelayer"/></g><g class="infolayer"><g class="legend" pointer-events="all" transform="translate(615.08,60)"><rect class="bg" shape-rendering="crispEdges" width="73" height="29" x="0" y="0" style="stroke: rgb(68, 68, 68); stroke-opacity: 1; fill: rgb(255, 255, 255); fill-opacity: 1; stroke-width: 0px;"/><g class="scrollbox" transform="" clip-path="url('#legend47e4cb')"><g class="groups" transform=""><g class="traces" transform="translate(0,14.5)" style="opacity: 1;"><text class="legendtext" text-anchor="start" x="40" y="4.680000000000001" style="font-family: 'Open Sans', verdana, arial, sans-serif; font-size: 12px; fill: rgb(42, 63, 95); fill-opacity: 1; white-space: pre;">Time</text><g class="layers" style="opacity: 1;"><g class="legendfill"/><g class="legendlines"><path class="js-line" d="M5,0h30" style="fill: none; stroke: rgb(0, 154, 250); stroke-opacity: 1; stroke-width: 1px;"/></g><g class="legendsymbols"><g class="legendpoints"/></g></g><rect class="legendtoggle" x="0" y="-9.5" width="67.84375" height="19" style="fill: rgb(0, 0, 0); fill-opacity: 0;"/></g></g></g><rect class="scrollbar" rx="20" ry="3" width="0" height="0" x="0" y="0" style="fill: rgb(128, 139, 164); fill-opacity: 1;"/></g><g class="g-gtitle"/><g class="g-xtitle"><text class="xtitle" x="347.5185185185185" y="462.140625" text-anchor="middle" style="font-family: sans-serif; font-size: 15px; fill: rgb(0, 0, 0); opacity: 1; font-weight: normal; white-space: pre;">t[s]</text></g><g class="g-ytitle"/></g></svg>