<svg class="main-svg" xmlns="http://www.w3.org/2000/svg" xmlns:xlink="http://www.w3.org/1999/xlink" width="700" height="500" style="" viewBox="0 0 700 500"><rect x="0" y="0" width="700" height="500" style="fill: rgb(255, 255, 255); fill-opacity: 1;"/><defs id="defs-0e4e4a"><g class="clips"><clipPath id="clip0e4e4axyplot" class="plotclip"><rect width="236.90002916302126" height="356.5936679790026"/></clipPath><clipPath id="clip0e4e4ax2y2plot" class="plotclip"><rect width="236.90002916302123" height="356.5936679790026"/></clipPath><clipPath class="axesclip" id="clip0e4e4ax"><rect x="86.46480023330417" y="0" width="236.90002916302126" height="500"/></clipPath><clipPath class="axesclip" id="clip0e4e4ay"><rect x="0" y="63.83858267716535" width="700" height="356.5936679790026"/></clipPath><clipPath class="axesclip" id="clip0e4e4axy"><rect x="86.46480023330417" y="63.83858267716535" width="236.90002916302126" height="356.5936679790026"/></clipPath><clipPath class="axesclip" id="clip0e4e4ay2"><rect x="0" y="63.83858267716535" width="700" height="356.5936679790026"/></clipPath><clipPath class="axesclip" id="clip0e4e4axy2"><rect x="86.46480023330417" y="63.83858267716535" width="236.90002916302126" height="356.5936679790026"/></clipPath><clipPath class="axesclip" id="clip0e4e4ax2"><rect x="363.4648002333042" y="0" width="236.90002916302123" height="500"/></clipPath><clipPath class="axesclip" id="clip0e4e4ax2y"><rect x="363.4648002333042" y="63.83858267716535" width="236.90002916302123" height="356.5936679790026"/></clipPath><clipPath class="axesclip" id="clip0e4e4ax2y2"><rect x="363.4648002333042" y="63.83858267716535" width="236.90002916302123" height="356.5936679790026"/></clipPath></g><g class="gradients"/></defs><g class="bglayer"/><g class="layer-below"><g class="imagelayer"/><g class="shapelayer"/></g><g class="cartesianlayer"><g class="subplot xy"><g class="layer-subplot"><g class="shapelayer"/><g class="imagelayer"/></g><g class="gridlayer"><g class="x"><path class="xgrid crisp" transform="translate(93.16480023330418,0)" d="M0,63.83858267716535v356.5936679790026" style="stroke: rgb(0, 0, 0); stroke-opacity: 0.1; stroke-width: 0.5px;"/><path class="xgrid crisp" transform="translate(167.66480023330416,0)" d="M0,63.83858267716535v356.5936679790026" style="stroke: rgb(0, 0, 0); stroke-opacity: 0.1; stroke-width: 0.5px;"/><path class="xgrid crisp" transform="translate(242.16480023330416,0)" d="M0,63.83858267716535v356.5936679790026" style="stroke: rgb(0, 0, 0); stroke-opacity: 0.1; stroke-width: 0.5px;"/><path class="xgrid crisp" transform="translate(316.66480023330416,0)" d="M0,63.83858267716535v356.5936679790026" style="stroke: rgb(0, 0, 0); stroke-opacity: 0.1; stroke-width: 0.5px;"/></g><g class="y"><path class="ygrid crisp" transform="translate(0,392.31858267716535)" d="M86.46480023330417,0h236.90002916302126" style="stroke: rgb(0, 0, 0); stroke-opacity: 0.1; stroke-width: 0.5px;"/><path class="ygrid crisp" transform="translate(0,313.87858267716535)" d="M86.46480023330417,0h236.90002916302126" style="stroke: rgb(0, 0, 0); stroke-opacity: 0.1; stroke-width: 0.5px;"/><path class="ygrid crisp" transform="translate(0,235.42858267716537)" d="M86.46480023330417,0h236.90002916302126" style="stroke: rgb(0, 0, 0); stroke-opacity: 0.1; stroke-width: 0.5px;"/><path class="ygrid crisp" transform="translate(0,156.98858267716537)" d="M86.46480023330417,0h236.90002916302126" style="stroke: rgb(0, 0, 0); stroke-opacity: 0.1; stroke-width: 0.5px;"/><path class="ygrid crisp" transform="translate(0,78.53858267716535)" d="M86.46480023330417,0h236.90002916302126" style="stroke: rgb(0, 0, 0); stroke-opacity: 0.1; stroke-width: 0.5px;"/></g></g><g class="zerolinelayer"/><path class="xlines-below"/><path class="ylines-below"/><g class="overlines-below"/><g class="xaxislayer-below"/><g class="yaxislayer-below"/><g class="overaxes-below"/><g class="plot" transform="translate(86.46480023330417,63.83858267716535)" clip-path="url('#clip0e4e4axyplot')"><g class="scatterlayer mlayer"><g class="trace scatter traceee399a" style="stroke-miterlimit: 2; opacity: 1;"><g class="fills"/><g class="errorbars"/><g class="lines"><path class="js-line" d="M6.7,171.59L6.79,175.68L6.81,170.07L6.81,169.71L7.16,208.37L7.55,142.89L7.56,156.7L7.57,158L7.96,42.12L8.09,293.78L8.32,94.88L8.33,94.6L8.38,55.49L8.57,277.95L9.08,160.54L9.09,159.92L9.57,71.92L9.67,291.96L9.84,176.46L9.85,175.42L10.23,245.15L10.47,37.18L10.6,176.38L10.61,175.82L10.73,332.34L11.01,45.88L11.36,217.71L11.37,222.42L11.61,275.13L11.82,100.81L12.12,112.99L12.13,108.98L12.22,277.41L12.47,78.61L12.88,207.27L12.89,215.32L13.02,17.62L13.32,300.22L13.64,138.06L13.65,140.65L13.82,93.4L14.11,277.75L14.4,138.74L14.41,140.99L14.48,83.78L14.77,273.59L15.16,161L15.17,164.85L15.7,58.01L15.89,306.53L15.92,254.22L15.93,257.79L16.16,60.59L16.63,301.77L16.68,216.44L16.69,219.13L16.81,74.45L17.44,248.04L17.45,252.18L17.46,266.81L18.18,67.15L18.2,124.35L18.21,121.3L18.55,298.65L18.67,10.09L18.96,259.93L18.97,258.45L19.56,102.51L19.72,113.97L19.73,110.03L19.98,282.29L20.19,72.17L20.48,216.69L20.49,215.78L20.78,33.55L21.1,317.6L21.24,96.28L21.25,101.35L21.35,92.03L21.78,248.4L22,202.73L22.01,199.47L22.39,85.73L22.67,250.9L22.76,105.9L22.77,103.71L23.17,282.12L23.34,55.17L23.52,141.61L23.53,137.75L23.64,346.5L23.98,87.12L24.28,216.66L24.29,215.27L24.34,259.38L24.93,86.27L25.04,179.96L25.05,182.06L25.17,306.18L25.33,78.22L25.8,243.03L25.81,242.4L26.04,53.36L26.2,330.86L26.56,121.64L26.57,117.78L26.58,89.01L27.01,240.79L27.32,158.85L27.33,162.28L27.55,81.73L27.72,262.91L28.08,143.25L28.09,138.92L28.58,40.14L28.8,280.96L28.84,229.86L28.85,231.78L29.13,97.4L29.59,261.19L29.6,192.24L29.61,183.55L30.09,85.94L30.32,266.51L30.36,206.63L30.37,209.89L30.88,246.33L31.12,69.15L31.13,66.19L31.18,58.57L31.37,295.19L31.88,187.23L31.89,192.85L31.96,90.96L32.25,231.92L32.64,149.7L32.65,151.26L32.69,104.07L32.87,251.41L33.4,200.31L33.41,202.05L33.75,27.25L34.03,266.3L34.16,99.95L34.17,99.86L34.29,74.01L34.73,230.43L34.92,179.31L34.93,178.79L35.27,64.65L35.5,250.77L35.68,164.62L35.69,169.5L36.11,285.57L36.31,42.31L36.44,224.83L36.45,227.06L36.57,295.6L36.83,98.56L37.2,151.62L37.21,153.13L37.29,220.21L37.87,89.18L37.96,169.81L37.97,171.25L38.5,111.61L38.69,244.82L38.72,220.03L38.73,225.12L38.84,47.05L39.12,269.47L39.48,151.77L39.49,152.78L39.67,122.59L40.22,251.87L40.24,204.74L40.25,206.21L40.49,67.84L40.65,236.91L41,186.3L41.01,185.77L41.28,269.43L41.52,55.99L41.76,245.23L41.77,247.3L41.77,251.37L42.28,120.93L42.52,216.35L42.53,218.8L42.75,236.01L43.03,53.71L43.28,187.13L43.29,186.71L43.82,261.33L44.04,101.46L44.05,99.48L44.07,67.95L44.32,272.37L44.8,105.56L44.81,104.9L45.07,236.57L45.56,90.12L45.57,86.95L45.58,72.34L46.15,218.23L46.32,196.19L46.33,197.57L46.6,80.35L46.85,263.2L47.08,204.95L47.09,200.16L47.35,102.44L47.65,217.35L47.84,186.83L47.85,187.46L47.97,246.8L48.15,104.88L48.6,143.92L48.61,144.65L49,255.44L49.23,62.8L49.36,164.98L49.37,168.41L49.62,232.61L49.71,120.73L50.12,175.15L50.13,175.86L50.57,244.47L50.75,85.78L50.88,154.17L50.89,152.65L51.45,90.8L51.6,242.73L51.64,210.53L51.65,205.38L51.78,78.44L52.17,231.52L52.4,132.13L52.41,130.48L52.61,117.64L53.15,243.41L53.16,229.98L53.17,226.73L53.24,98.46L53.83,233.87L53.92,140.26L53.93,140.26L54.17,262.8L54.41,84L54.68,234.76L54.69,232.89L54.96,122.42L55.44,152.07L55.45,153.42L55.69,270.86L55.98,86.39L56.2,142.78L56.21,144.63L56.78,245.42L56.95,91.4L56.96,103.73L56.97,106.38L57.21,241.83L57.72,164.93L57.73,165.62L58.23,275.3L58.47,116.75L58.48,132.85L58.49,134.94L58.53,101.44L58.98,227.15L59.24,157.42L59.25,158.83L59.32,241.01L59.65,79.6L60,182.79L60.01,187.08L60.67,100.35L60.76,215.12L60.77,215.62L61.06,121.82L61.52,241.7L61.53,243.38L61.93,257.19L62.19,69.7L62.28,166.32L62.29,163.97L62.43,233.95L62.95,128.95L63.04,186.45L63.05,186.89L63.41,247.46L63.69,111.92L63.8,178.19L63.81,176.62L64.3,101.76L64.44,235.94L64.56,212.26L64.57,212.22L64.6,188.91L64.6,186.96L64.73,87.4L64.89,190.61L64.9,194.41L64.92,226.9L65.54,109.68L65.65,201.33L65.66,201.59L65.95,221.99L66.18,117.17L66.41,176.7L66.42,179.27L66.88,107.32L67.12,267.36L67.17,180.93L67.18,181.05L67.38,107.47L67.6,227.11L67.93,205.88L67.94,209.04L68.03,121.46L68.57,240.05L68.69,191.1L68.7,187.62L68.82,95.29L69.31,240.03L69.45,173.56L69.46,171.26L69.67,246.52L69.9,99.37L70.21,181.8L70.22,180.63L70.26,213.9L70.6,102.21L70.97,160.3L70.98,160.31L71.04,151.71L71.06,166.22L71.06,168.36L71.23,237.25L71.36,106.38L71.81,215.34L71.82,216.83L71.85,233.47L72.54,114.33L72.57,135.91L72.58,135.99L72.84,235.16L72.93,121.42L73.33,188.56L73.34,185.92L73.77,253.28L73.91,102.28L74.09,149.92L74.1,150.43L74.36,238.48L74.6,126.43L74.85,225.09L74.86,224.2L75.13,103.34L75.32,232.34L75.61,179L75.62,179.49L76.11,128.15L76.35,258.24L76.37,229.15L76.38,225.15L77.13,118.78L77.14,118.59L77.5,225.27L77.61,113.48L77.89,199.2L77.9,198.85L77.96,219.05L78.37,140.15L78.65,151.63L78.66,153.15L78.76,114.01L78.89,268.62L79.41,155.83L79.42,156.97L79.79,107.32L80.06,239.45L80.17,154.29L80.18,155.29L80.33,110.34L80.51,219L80.93,126.57L80.94,128.17L81.3,104.43L81.52,225.49L81.69,166.88L81.7,168.33L81.89,117.98L82.18,233.88L82.45,146.8L82.46,149.01L82.6,247.22L82.86,116.13L83.21,199.77L83.22,199.68L83.71,216.32L83.88,111.82L83.97,166.5L83.98,164.71L84.06,240.91L84.64,128.82L84.73,214.19L84.74,214.23L85.16,218.71L85.46,113.68L85.49,128.42L85.5,128.65L85.9,220.24L86.25,218.81L86.26,220.98L86.43,108L86.61,243.63L87.01,158.67L87.02,157.56L87.13,121.84L87.74,210.84L87.77,191.11L87.78,192.43L88.01,111.35L88.39,219.56L88.53,135.24L88.54,136.36L89.06,114.13L89.25,230.02L89.29,196.75L89.3,196.18L89.68,116.94L89.98,209.23L90.05,160.88L90.06,158.6L90.53,110.74L90.8,222.52L90.81,210.56L90.82,207.56L90.85,130.05L90.93,213.35L91.57,132.03L91.58,131.21L91.84,224.63L92.29,124.91L92.33,168.16L92.34,168.04L92.63,127.95L92.92,226.61L93.09,144.22L93.1,144.73L93.19,98.23L93.63,211.29L93.85,151.27L93.86,150.09L94.19,114.24L94.43,221.24L94.61,174.57L94.62,173.93L94.95,128.5L95.12,224.53L95.37,156.44L95.38,154.54L95.48,219.6L95.74,108.62L96.13,193.5L96.14,193.84L96.28,199.78L96.73,107.95L96.89,178.06L96.9,179.13L97.01,229.21L97.38,120.04L97.65,218.7L97.66,218.9L98.14,233.28L98.27,118.35L98.41,132.37L98.42,132.37L99.13,207.99L99.17,198.42L99.18,199.35L99.38,105.76L99.55,235.21L99.93,160.06L99.94,159.91L100.03,119.89L100.69,239.5L100.7,239.81L100.9,138.68L101.45,176.44L101.46,174.65L101.93,110.69L102.09,211.87L102.21,174.49L102.22,174.66L102.32,202.26L102.62,96.94L102.97,152.53L102.98,153.64L103.1,126.92L103.27,225.5L103.73,171.81L103.74,172.6L103.87,224.48L104.47,115.84L104.49,127.17L104.5,127.81L104.54,121.16L104.85,207.26L105.25,150.85L105.26,150.81L105.68,122.89L105.87,230.16L106.01,142.65L106.02,142.11L106.14,119.35L106.52,212.81L106.77,172.34L106.78,172.73L107.04,120.57L107.38,211.12L107.53,192.11L107.54,193.43L107.58,216.32L107.79,118.18L108.29,191.4L108.3,192.4L108.38,223.56L108.67,135.1L109.05,195.69L109.06,196.98L109.1,215.77L109.64,109.31L109.81,166.77L109.82,167.43L110.08,218.58L110.34,91.31L110.57,170.05L110.58,170.64L110.77,132.62L111.02,213.32L111.33,136.7L111.34,136.69L112.07,215.78L112.09,198.12L112.1,195.66L112.2,112.78L112.73,220.29L112.85,143.6L112.86,142.42L112.89,120.11L113.61,225.01L113.61,224.93L113.62,224.64L114.05,137.41L114.37,172.54L114.38,172.16L114.6,245.97L114.87,102.05L115.13,189.49L115.14,190.09L115.31,222.43L115.45,138L115.89,150.11L115.9,149.38L116.16,211.39L116.4,135.47L116.65,141.71L116.66,142.61L117.15,228.23L117.38,127.43L117.41,132.18L117.42,132.35L117.44,129.88L117.88,227.76L118.17,139.07L118.18,138.85L118.56,136.28L118.81,221.23L118.93,170.06L118.94,169.24L119.45,220.27L119.55,123.91L119.69,182.64L119.7,182.02L119.95,135.43L120.45,214.76L120.45,214.69L120.46,214.59L121.08,115.52L121.21,168.39L121.22,169.4L121.35,233.98L121.73,136.94L121.97,211.91L121.98,213.3L122,228.3L122.6,128.9L122.73,184.32L122.74,184.81L122.97,218.01L123.29,123.82L123.49,176.72L123.5,176.37L123.63,135.25L123.91,209.66L124.25,153.85L124.26,153.15L124.44,136.33L124.53,229.35L125.01,179.89L125.02,179.22L125.19,122.63L125.55,220.95L125.77,172.79L125.78,172.71L125.83,129.82L126.5,220.28L126.53,208.37L126.54,207.75L126.96,122.19L127.29,144.5L127.3,144.74L127.55,209.87L127.73,121.59L128.04,184.29L128.05,184.65L128.22,213.67L128.49,135.13L128.8,143.7L128.81,143.6L129.05,212.37L129.52,130.28L129.56,152.1L129.57,152.8L129.75,213.15L130.26,129.03L130.32,145.76L130.33,147.05L130.77,207.75L130.99,135.03L131.08,149.81L131.09,150.61L131.47,119.97L131.75,216.68L131.84,166.44L131.85,167.45L132.04,126.29L132.32,211.69L132.6,165.78L132.61,166.81L132.67,210.28L132.84,128.63L133.36,203.29L133.37,204.66L133.38,208.75L134.03,125.42L134.12,161.96L134.13,161.36L134.29,218.94L134.7,126.21L134.88,209.88L134.89,209.4L135.27,221.37L135.54,144.56L135.64,156.49L135.65,154.91L135.96,211.24L136.16,138.28L136.4,207.93L136.41,208.29L136.57,131.15L136.83,209.9L137.16,160.8L137.17,160.41L137.26,125.62L137.81,225.67L137.92,177.24L137.93,177.19L138.25,139.73L138.61,230.22L138.68,150.59L138.69,151.15L139.22,137.36L139.4,203.6L139.44,181.16L139.45,179.74L139.84,124.95L140.13,199.63L140.2,137.17L140.21,136.74L140.24,129.37L140.39,208.59L140.96,178.74L140.97,177.14L141.1,210.8L141.38,135.44L141.72,153.15L141.73,153.53L142,199.91L142.42,130.38L142.48,174.08L142.49,174.88L142.64,209.8L142.77,131.07L143.24,149.07L143.25,150.63L143.33,141.01L143.66,206.37L144,166.24L144.01,166.47L144.3,134.89L144.58,196.37L144.76,181.18L144.77,180.91L144.82,218L145.09,133.23L145.52,201.46L145.53,199.95L145.61,202.55L146.07,134.65L146.28,189.33L146.29,189.4L146.34,210.44L146.88,133.19L147.04,179.18L147.05,179.41L147.36,219.11L147.63,128.58L147.8,200.11L147.81,201.26L147.82,206.68L148.41,139.99L148.56,153.34L148.57,152.22L148.61,137.13L148.92,218.83L149.32,184.92L149.33,185.46L149.52,138.77L149.9,215.28L150.08,153.86L150.09,152.36L150.18,131.85L150.37,208.52L150.84,197.79L150.85,198.99L151.19,139.03L151.46,216.96L151.6,175.92L151.61,175.42L152.1,132.58L152.24,202.95L152.36,185.36L152.37,186.81L152.56,202.76L152.78,131.57L153.12,143.18L153.13,143.62L153.35,206.14L153.73,139.35L153.88,158L153.89,158.54L154.01,206.18L154.64,126.2L154.65,125.99L154.65,125.75L155.07,202.4L155.4,163.49L155.41,163.78L155.55,212.77L155.63,143.54L156.16,163.7L156.17,163.1L156.39,135.87L156.67,206.41L156.92,171.68L156.93,171.59L157.07,205.9L157.2,132.41L157.68,192.6L157.69,192.86L157.93,128.37L158.09,208.92L158.44,203.24L158.45,204.11L158.45,205.89L158.95,141.58L159.2,193.08L159.21,193.21L159.27,212.98L159.84,145.27L159.96,175.44L159.97,175.73L160.3,205.59L160.49,116.42L160.72,163.85L160.73,163.91L160.91,150.24L161,198.53L161.48,157.41L161.49,157.21L161.8,212.72L162.04,136.53L162.24,170.46L162.25,169.6L162.36,135.28L162.89,204.69L163,150.5L163.01,148.25L163.03,121.92L163.7,193.5L163.76,185.2L163.77,184.93L164.21,139.28L164.5,203.25L164.52,184.6L164.53,182.64L164.59,136.18L164.76,202.31L165.28,174.74L165.29,175.89L165.44,213.98L165.62,134.85L166.04,155.82L166.05,155.56L166.29,199.15L166.75,137.96L166.8,151.81L166.81,153.52L166.98,213.47L167.56,140.1L167.57,140.01L168.02,226.65L168.32,156.94L168.33,158.04L168.56,151.86L168.83,213.66L169.08,167.2L169.09,166.59L169.26,133.17L169.62,206.75L169.84,187.65L169.85,187.77L170.09,147.25L170.59,218.29L170.6,216.36L170.61,215.87L171.23,144.66L171.36,195.58L171.37,196.59L171.88,144.18L172.12,204.73L172.13,205.73L172.15,213.1L172.77,146.2L172.88,174.72L172.89,175.12L173.14,215.62L173.43,136.09L173.64,168.2L173.65,167.4L173.79,134.47L174.05,201.7L174.4,154.48L174.41,154.39L174.58,141.03L174.7,203.45L175.16,172.6L175.17,171.81L175.54,135.27L175.72,214.92L175.92,159.45L175.93,159.75L175.98,136.38L176.56,192.03L176.68,178.49L176.69,178.37L177.1,134.07L177.25,198.04L177.44,167.18L177.45,167.2L177.59,194.02L177.87,136.54L178.2,166.83L178.21,167.11L178.38,212.3L178.51,140.89L178.96,159.87L178.97,159.38L179.35,196.24L179.63,131.26L179.72,148.09L179.73,148.24L180.26,203.46L180.42,142.86L180.48,165.54L180.49,165.46L180.66,142.31L180.92,220.08L181.24,176.72L181.25,177.38L181.5,149.53L181.89,201.09L182,173.87L182.01,174.04L182.29,138.71L182.47,211.18L182.76,177.08L182.77,177.83L183.33,143.34L183.45,215.39L183.52,192.57L183.53,192.21L183.57,194.83L183.71,142.34L184.28,169.8L184.29,169.44L184.45,200.28L184.86,134.67L185.04,185.02L185.05,184.7L185.44,199.07L185.53,149.78L185.8,160.13L185.81,159.58L185.86,136.9L186.11,213.66L186.56,184.84L186.57,184.52L186.63,148.79L187,193.13L187.32,165.06L187.33,164.41L187.42,130.55L187.97,212.69L188.08,166.93L188.09,167.27L188.39,137.04L188.67,211.12L188.84,150.96L188.85,151.31L189.1,196.34L189.19,148.01L189.6,178.83L189.61,178.75L189.95,132.16L190.3,192.55L190.36,150.74L190.37,149.97L190.51,203.36L191.05,137.4L191.12,169.72L191.13,169.44L191.21,209.71L191.52,153.17L191.88,161.56L191.89,161.16L192.4,194.35L192.57,130.69L192.64,166.66L192.65,166.89L192.83,199.25L192.92,146.13L193.4,177.81L193.41,178.44L193.6,138.84L193.8,208.56L194.16,182.86L194.17,183.53L194.47,148.8L194.73,196.34L194.92,187.63L194.93,188L194.96,194.3L195.11,138.62L195.68,191.92L195.69,192.03L196.21,136.9L196.39,196.63L196.44,193.4L196.45,193.64L196.45,194.29L197,148.38L197.2,182.24L197.21,182.36L197.52,208.07L197.79,128.07L197.96,179.82L197.97,179.89L198.24,197.65L198.72,145.41L198.73,144.69L198.78,134.47L199.05,207.46L199.48,163.3L199.49,163.6L199.67,149.64L200.06,208.5L200.24,166.19L200.25,165.1L200.35,137.28L200.84,196.37L201,172.56L201.01,172.71L201.32,131.19L201.6,211.56L201.76,171.97L201.77,171.58L202.22,152.33L202.4,194.96L202.52,176.09L202.53,177.13L202.58,197.74L202.89,141.21L203.28,166.24L203.29,166.37L203.37,195.91L204,137.4L204.04,164.47L204.05,165.42L204.15,204.35L204.8,142.66L204.81,142.2L204.81,140.83L205.27,198.91L205.56,160.69L205.57,161.29L205.78,158.08L206.04,200.19L206.32,172.86L206.33,172.36L206.54,127.72L206.73,195.82L207.08,186.2L207.09,186.22L207.36,144.12L207.82,196.35L207.84,188.89L207.85,188.37L208.09,139.21L208.59,197.73L208.6,195.14L208.61,194.73L209.1,136.49L209.32,195.44L209.36,183.11L209.37,182.59L209.78,195.8L209.87,146.39L210.12,170.99L210.13,171.57L210.37,199.63L210.64,135.16L210.88,166.02L210.89,166.2L211.15,199.52L211.64,146.23L211.64,146.25L211.65,146.29L211.72,132.85L212.31,194.86L212.4,158.24L212.41,157.77L213.04,197.69L213.16,148.19L213.17,147.2L213.19,139.38L213.7,193.63L213.92,168.3L213.93,168.22L213.99,186L213.99,186.73L214.27,133.49L214.47,196.92L214.74,154.58L214.75,154.84L214.89,194.12L215.5,177.89L215.51,177.65L215.6,204.38L215.76,140.5L216.26,169.5L216.27,169.31L216.86,141.93L217,197.7L217.02,187.64L217.03,186.66L217.2,188.23L217.29,156.12L217.78,169.32L217.79,169.92L218.18,208.93L218.47,148.25L218.54,189.7L218.55,189.38L218.65,155.28L219.2,197.6L219.3,169.81L219.31,170.51L219.41,133.71L219.74,191.85L220.06,174.49L220.07,174.6L220.59,152.05L220.73,211.88L220.82,173.54L220.83,174.01L220.96,144.29L221.53,194.59L221.58,171.1L221.59,170.81L221.97,134.62L222.32,190.84L222.34,185.42L222.35,184.73L222.63,190.4L222.8,154.63L223.1,164.75L223.11,163.75L223.3,199.08L223.5,146.8L223.86,168.14L223.87,168.35L224.41,198.29L224.53,145.21L224.62,153.47L224.63,154.07L224.69,153.41L224.83,197.08L225.38,171.51L225.39,172.17L225.68,145.21L225.95,203.58L226.14,154.25L226.15,154.25L226.47,149.42L226.9,190.85L226.91,191.5L226.94,202.08L227.22,139.41L227.66,169.05L227.67,168.82L227.74,192.51L228.02,144.55L228.42,192.28L228.43,193.01L228.45,199.7L229.01,146.8L229.18,173.21L229.19,172.93L229.5,208.35L229.79,137.85L229.94,179.28L229.95,179.71L230.06,187.77L230.19,164.56L230.2,164.62" style="vector-effect: non-scaling-stroke; fill: none; stroke: rgb(0, 154, 250); stroke-opacity: 1; stroke-width: 1px; opacity: 1;"/></g><g class="points"/><g class="text"/></g></g></g><g class="overplot"/><path class="xlines-above crisp" d="M85.46480023330417,420.9322506561679H323.36482939632543" style="fill: none; stroke-width: 1px; stroke: rgb(0, 0, 0); stroke-opacity: 1;"/><path class="ylines-above crisp" d="M85.96480023330417,63.83858267716535V420.4322506561679" style="fill: none; stroke-width: 1px; stroke: rgb(0, 0, 0); stroke-opacity: 1;"/><g class="overlines-above"/><g class="xaxislayer-above"><path class="xtick ticks crisp" d="M0,420.4322506561679v-5" transform="translate(93.16480023330418,0)" style="stroke: rgb(0, 0, 0); stroke-opacity: 1; stroke-width: 1px;"/><path class="xtick ticks crisp" d="M0,420.4322506561679v-5" transform="translate(167.66480023330416,0)" style="stroke: rgb(0, 0, 0); stroke-opacity: 1; stroke-width: 1px;"/><path class="xtick ticks crisp" d="M0,420.4322506561679v-5" transform="translate(242.16480023330416,0)" style="stroke: rgb(0, 0, 0); stroke-opacity: 1; stroke-width: 1px;"/><path class="xtick ticks crisp" d="M0,420.4322506561679v-5" transform="translate(316.66480023330416,0)" style="stroke: rgb(0, 0, 0); stroke-opacity: 1; stroke-width: 1px;"/><g class="xtick"><text text-anchor="middle" x="0" y="434.6322506561679" transform="translate(93.16480023330418,0)" style="font-family: sans-serif; font-size: 11px; fill: rgb(0, 0, 0); fill-opacity: 1; white-space: pre;">0</text></g><g class="xtick"><text text-anchor="middle" x="0" y="434.6322506561679" transform="translate(167.66480023330416,0)" style="font-family: sans-serif; font-size: 11px; fill: rgb(0, 0, 0); fill-opacity: 1; white-space: pre;">1</text></g><g class="xtick"><text text-anchor="middle" x="0" y="434.6322506561679" transform="translate(242.16480023330416,0)" style="font-family: sans-serif; font-size: 11px; fill: rgb(0, 0, 0); fill-opacity: 1; white-space: pre;">2</text></g><g class="xtick"><text text-anchor="middle" x="0" y="434.6322506561679" transform="translate(316.66480023330416,0)" style="font-family: sans-serif; font-size: 11px; fill: rgb(0, 0, 0); fill-opacity: 1; white-space: pre;">3</text></g></g><g class="yaxislayer-above"><path class="ytick ticks crisp" d="M86.46480023330417,0h5" transform="translate(0,392.31858267716535)" style="stroke: rgb(0, 0, 0); stroke-opacity: 1; stroke-width: 1px;"/><path class="ytick ticks crisp" d="M86.46480023330417,0h5" transform="translate(0,313.87858267716535)" style="stroke: rgb(0, 0, 0); stroke-opacity: 1; stroke-width: 1px;"/><path class="ytick ticks crisp" d="M86.46480023330417,0h5" transform="translate(0,235.42858267716537)" style="stroke: rgb(0, 0, 0); stroke-opacity: 1; stroke-width: 1px;"/><path class="ytick ticks crisp" d="M86.46480023330417,0h5" transform="translate(0,156.98858267716537)" style="stroke: rgb(0, 0, 0); stroke-opacity: 1; stroke-width: 1px;"/><path class="ytick ticks crisp" d="M86.46480023330417,0h5" transform="translate(0,78.53858267716535)" style="stroke: rgb(0, 0, 0); stroke-opacity: 1; stroke-width: 1px;"/><g class="ytick"><text text-anchor="end" x="83.26480023330417" y="3.8499999999999996" transform="translate(0,392.31858267716535)" style="font-family: sans-serif; font-size: 11px; fill: rgb(0, 0, 0); fill-opacity: 1; white-space: pre;">-0.2</text></g><g class="ytick"><text text-anchor="end" x="83.26480023330417" y="3.8499999999999996" transform="translate(0,313.87858267716535)" style="font-family: sans-serif; font-size: 11px; fill: rgb(0, 0, 0); fill-opacity: 1; white-space: pre;">-0.1</text></g><g class="ytick"><text text-anchor="end" x="83.26480023330417" y="3.8499999999999996" transform="translate(0,235.42858267716537)" style="font-family: sans-serif; font-size: 11px; fill: rgb(0, 0, 0); fill-opacity: 1; white-space: pre;">0.0</text></g><g class="ytick"><text text-anchor="end" x="83.26480023330417" y="3.8499999999999996" transform="translate(0,156.98858267716537)" style="font-family: sans-serif; font-size: 11px; fill: rgb(0, 0, 0); fill-opacity: 1; white-space: pre;">0.1</text></g><g class="ytick"><text text-anchor="end" x="83.26480023330417" y="3.8499999999999996" transform="translate(0,78.53858267716535)" style="font-family: sans-serif; font-size: 11px; fill: rgb(0, 0, 0); fill-opacity: 1; white-space: pre;">0.2</text></g></g><g class="overaxes-above"/></g><g class="subplot x2y2"><g class="layer-subplot"><g class="shapelayer"/><g class="imagelayer"/></g><g class="gridlayer"><g class="x2"><path class="x2grid crisp" transform="translate(370.1548002333042,0)" d="M0,63.83858267716535v356.5936679790026" style="stroke: rgb(0, 0, 0); stroke-opacity: 0.1; stroke-width: 0.5px;"/><path class="x2grid crisp" transform="translate(414.85480023330416,0)" d="M0,63.83858267716535v356.5936679790026" style="stroke: rgb(0, 0, 0); stroke-opacity: 0.1; stroke-width: 0.5px;"/><path class="x2grid crisp" transform="translate(459.55480023330415,0)" d="M0,63.83858267716535v356.5936679790026" style="stroke: rgb(0, 0, 0); stroke-opacity: 0.1; stroke-width: 0.5px;"/><path class="x2grid crisp" transform="translate(504.2548002333042,0)" d="M0,63.83858267716535v356.5936679790026" style="stroke: rgb(0, 0, 0); stroke-opacity: 0.1; stroke-width: 0.5px;"/><path class="x2grid crisp" transform="translate(548.9548002333042,0)" d="M0,63.83858267716535v356.5936679790026" style="stroke: rgb(0, 0, 0); stroke-opacity: 0.1; stroke-width: 0.5px;"/><path class="x2grid crisp" transform="translate(593.6648002333042,0)" d="M0,63.83858267716535v356.5936679790026" style="stroke: rgb(0, 0, 0); stroke-opacity: 0.1; stroke-width: 0.5px;"/></g><g class="y2"><path class="y2grid crisp" transform="translate(0,410.33858267716533)" d="M363.4648002333042,0h236.90002916302123" style="stroke: rgb(0, 0, 0); stroke-opacity: 0.1; stroke-width: 0.5px;"/><path class="y2grid crisp" transform="translate(0,300.6685826771654)" d="M363.4648002333042,0h236.90002916302123" style="stroke: rgb(0, 0, 0); stroke-opacity: 0.1; stroke-width: 0.5px;"/><path class="y2grid crisp" transform="translate(0,190.98858267716537)" d="M363.4648002333042,0h236.90002916302123" style="stroke: rgb(0, 0, 0); stroke-opacity: 0.1; stroke-width: 0.5px;"/><path class="y2grid crisp" transform="translate(0,81.31858267716535)" d="M363.4648002333042,0h236.90002916302123" style="stroke: rgb(0, 0, 0); stroke-opacity: 0.1; stroke-width: 0.5px;"/></g></g><g class="zerolinelayer"/><path class="xlines-below"/><path class="ylines-below"/><g class="overlines-below"/><g class="xaxislayer-below"/><g class="yaxislayer-below"/><g class="overaxes-below"/><g class="plot" transform="translate(363.4648002333042,63.83858267716535)" clip-path="url('#clip0e4e4ax2y2plot')"><g class="scatterlayer mlayer"><g class="trace scatter trace5823ad" style="stroke-miterlimit: 2; opacity: 1;"><g class="fills"/><g class="errorbars"/><g class="lines"><path class="js-line" d="M6.7,346.41L7.97,346.08L7.99,344.13L8.21,343.35L8.34,346.44L8.75,346.37L8.76,346.36L9.21,344.56L9.22,344.03L9.27,320.67L9.45,345.96L9.46,345.91L9.48,345.92L9.95,343.48L9.97,342.79L10.52,309.85L10.53,285.82L10.55,161.64L11.26,342.4L11.28,342.61L11.32,343.46L11.73,331.62L11.74,330.09L11.83,258.17L11.85,224.98L12.38,345.95L12.62,344.87L12.63,344.9L12.84,346.1L12.86,346.37L13.11,303.97L13.13,267.97L13.14,10.09L13.74,346.42L13.87,344.68L13.89,344.62L14.39,332.05L14.41,325.53L14.44,234.22L14.91,345.11L15.15,343.41L15.17,343.24L15.66,329.08L15.67,325.39L15.73,192.63L15.75,90.91L16.18,344.43L16.51,344.1L16.52,344.22L16.64,345.65L16.91,341.44L16.93,340.92L17.04,283.67L17.06,212.34L17.82,346.13L17.83,346.15L18.31,345.05L18.33,344.9L18.39,339.83L18.82,345.74L18.83,345.55L18.85,345.79L19.7,334.61L19.71,255.1L20.34,345.87L20.47,345.32L20.49,345.31L20.83,343.47L20.84,343.01L21.04,323.04L21.05,242.83L21.43,345.18L21.81,344.6L21.83,344.59L22.17,345.47L22.26,343.85L22.27,343.53L22.36,335.75L22.38,328.87L22.41,293.97L23.12,343.6L23.14,343.63L23.44,343.73L23.45,343.88L23.47,345.05L23.78,227.25L23.87,338.7L23.88,339.64L24.61,345.82L24.73,344.79L24.75,344.63L24.79,345.13L25.12,320.19L25.14,279.2L25.91,345.4L25.94,345.32L25.95,345.33L26.1,343.88L26.21,345.45L26.22,345.55L26.3,346L26.43,340.59L26.45,339.09L26.55,236.81L26.7,340.05L26.71,340.72L27.3,346.46L27.58,344.06L27.59,344.08L27.62,344.26L27.88,341.82L27.89,341.04L27.95,283.77L28.03,341.1L28.04,341.85L28.41,346.08L28.95,345.79L28.96,345.69L28.98,345.91L29.35,343.59L29.37,339.71L29.38,329.91L30.01,345.88L30.11,345.56L30.13,345.32L30.68,346.32L30.81,345.93L30.83,343.79L31.21,346.48L31.59,345.77L31.6,345.83L31.69,346L32.2,344.96L32.21,344.57L32.26,340.77L32.27,317.05L32.94,346.01L33.06,345.94L33.08,345.87L33.75,332.28L33.76,310.83L33.78,310.29L33.79,331.25L34.19,346.01L34.58,345.52L34.6,345.53L34.79,346.16L35,344.64L35.01,344.48L35.19,338.3L35.21,336.17L35.25,240.24L35.61,345.52L35.71,345.32L35.73,345.3L35.98,345.45L36.76,339.82L36.77,337.65L36.79,228.23L37.5,346.19L37.52,346.22L37.64,346.36L37.99,345.56L38.01,345.51L38.23,341.35L38.25,340.38L38.32,270.37L38.54,343.64L38.56,343.83L39.36,346.41L39.45,345.78L39.47,344.32L39.56,345.53L39.84,338.17L39.86,333.96L39.87,301.09L40.38,346.34L40.6,346L40.62,346.09L40.91,346.37L41.42,342.81L41.44,340.19L41.46,321.36L41.81,345.97L42.08,345.86L42.09,345.85L42.2,344.6L42.21,338.24L42.48,345.59L42.98,344.05L43,343.6L43.57,345.93L43.61,334.57L43.71,345.51L43.73,345.56L44.01,346.38L44.49,345.86L44.5,345.67L44.85,345.84L44.98,338.01L45.03,344.68L45.04,345.29L45.83,346.29L45.88,346.03L45.89,346.01L46.29,343.2L46.31,342.41L46.38,323.13L46.4,345.6L47.01,342.88L47.02,343.04L47.37,342.86L47.75,344.05L47.77,345.48L47.98,326.43L47.99,306.19L48.01,290.23L48.62,346.4L48.68,346.3L48.69,346.36L49.21,341.11L49.26,344.91L49.27,345.19L49.72,340.44L49.73,329.09L49.75,317.99L50.29,345.57L50.45,345.01L50.46,344.85L50.61,345.05L51.27,335.68L51.28,332.97L51.33,312.92L51.94,343.96L51.95,343.82L52.06,341.05L52.28,346.26L52.77,344.61L52.79,344.63L53.21,340.97L53.22,332.32L53.27,331.55L53.52,346.09L54.01,345.3L54.03,345.13L54.08,345.32L54.41,343.84L54.46,343.83L54.47,343.83L54.52,344.29L54.87,341.26L54.89,340.72L55.02,316.98L55.04,289.34L55.05,263.1L55.74,345.42L55.75,345.39L55.77,345.4L56.2,346.46L56.51,345.46L56.53,345.33L56.8,339.97L56.81,336.16L56.83,313.74L57.44,346.11L57.54,346.1L57.56,346.14L58,346.3L58.14,346.01L58.15,345.71L58.23,345.94L58.58,344.07L58.6,343.57L58.69,316.3L58.88,344.86L58.9,345.03L59.33,346.31L59.82,346.23L59.84,346.21L60.51,345.36L60.52,344.3L60.54,343.14L61.18,346.47L61.22,346.44L61.24,346.43L61.36,346.48L62.16,345.97L62.18,346L62.43,341.97L62.44,335.55L63.11,345.93L63.22,345.82L63.23,345.87L63.8,344.04L63.81,343.61L63.86,335.41L64.01,346.05L64.34,338.3L64.35,317.29L65.08,346.48L65.17,346.41L65.18,346.35L65.3,346.12L65.32,346.36L65.33,344.36L65.38,342.15L65.57,346.45L65.84,345.66L65.86,345.74L66.21,341.78L66.23,341L66.33,313.05L66.66,345.43L66.67,345.74L66.75,346.29L66.84,344.38L66.85,339.38L66.87,329.39L67.58,346.15L67.6,346.27L68.22,345.14L68.24,344.64L68.43,309.43L68.64,344.32L68.66,344.47L69.39,345.98L69.62,345.59L69.64,345.64L69.67,345.91L69.95,337.15L69.97,331.05L70.4,329.71L70.74,346.17L70.76,346.3L70.92,346.42L71.5,343.95L71.52,343.17L71.55,340.17L71.99,346.02L72.26,344.91L72.28,344.7L72.46,338.68L72.87,346.46L72.9,346.44L72.92,346.26L73.05,344L73.14,345.74L73.16,345.92L73.2,346.41L73.87,345.44L73.89,345.38L74.15,345.73L74.68,325.1L74.72,339L74.74,342.68L74.87,341.83L75.33,346.05L75.5,345.98L75.51,346.17L76.25,346.32L76.31,346.15L76.33,346.09L76.58,343.56L76.6,341.99L76.61,337.25L77.12,346.27L77.34,346.2L77.36,346.25L78.64,346.43L78.68,346.22L78.7,345.86L78.71,345.52L79.29,346.45L79.43,346.42L79.44,346.44L82.72,346.07L82.74,345.63L82.86,346.33L83.08,335.17L83.39,345.86L83.41,345.9L83.87,346.42L84.24,346.19L84.26,346.18L84.36,344.44L84.67,346.45L84.79,346.36L84.81,346.34L85.22,345.43L85.24,345.23L85.33,341.91L85.85,346.45L85.92,346.37L85.94,346.35L86.09,345.8L86.61,346.4L86.62,346.42L87.41,345.59L87.43,345.52L87.55,342.36L87.56,338.06L87.58,336.5L87.97,346.38L88.2,346.36L88.22,346.26L88.25,345.75L88.77,346.43L88.96,346.12L88.98,346.09L89.19,346.16L89.35,345.47L89.37,345.47L89.5,346.12L89.89,342.18L89.9,338.63L90.41,346.47L90.74,346.4L90.75,346.4L91.87,345.64L91.88,345.53L92.17,343.2L92.18,340.79L92.2,336.85L92.79,346.43L92.9,345.66L92.91,345.86L93.36,346.46L93.79,346.32L93.81,346.33L94.51,346.2L94.52,346.09L94.54,345.6L94.6,341.45L95.16,346.46L95.19,346.46L95.21,346.46L96.29,345.69L96.31,345.43L96.73,343L97.05,345.54L97.07,345.58L97.26,346.01L97.47,345.08L97.61,345.3L97.62,345.19L98.54,346.5L98.57,346.48L98.59,346.48L101.93,346.33L101.94,346.41L101.96,346.48L103.33,345.86L103.4,346.35L103.42,346.42L104.39,345.77L104.4,346.18L104.41,346.32L104.52,346.44L104.7,345.51L104.71,344.97L105.22,344.64L105.46,346.47L105.56,346.35L105.58,346.37L106.83,345.93L106.84,345.85L106.86,345.75L106.95,343.73L107.29,346.39L107.48,346.26L107.5,346.27L108.96,345.46L108.97,345.15L109.17,346.41L109.47,344.19L109.81,346.29L109.82,346.23L109.85,345.89L110.29,346.49L110.55,346.47L110.57,346.46L111.43,346.46L111.45,346.45L112.06,345.58L112.07,345.29L112.1,343.57L112.39,346.4L112.77,346.22L112.79,346.28L114.17,346.43L114.19,346.42L114.67,346.01L114.68,345.58L114.7,345.15L115.38,346.46L115.4,346.45L117.36,346.3L117.38,346.2L117.39,345.94L118.23,346.5L118.27,346.48L118.29,346.47L119.42,346.34L119.43,346.34L120.25,345.63L120.27,344.81L120.4,343.46L120.95,346.27L121,346.2L121.01,346.19L127.55,346.45L127.57,346.45L131.62,346.45L131.64,346.46L134.08,346.23L134.09,346.05L134.11,345.93L134.88,346.49L134.9,346.49L137.04,345.77L137.06,345.63L137.88,346.47L137.89,346.47L139.89,345.91L139.91,345.68L139.92,345.49L140.53,346.46L140.62,346.45L140.64,346.46L142.44,345.94L142.45,345.73L142.48,344.8L143.12,346.47L143.14,346.46L143.15,346.45L146.01,346.1L146.03,346.08L146.49,346.37L146.68,345.8L146.7,345.46L147.59,346.48L147.61,346.48L155.31,346.27L155.33,346.18L156.44,346.5L156.46,346.5L168.33,346.45L168.35,346.46L230.2,346.5" style="vector-effect: non-scaling-stroke; fill: none; stroke: rgb(255, 165, 0); stroke-opacity: 1; stroke-width: 1px; opacity: 1;"/></g><g class="points"/><g class="text"/></g></g></g><g class="overplot"/><path class="xlines-above crisp" d="M362.4648002333042,420.9322506561679H600.3648293963254" style="fill: none; stroke-width: 1px; stroke: rgb(0, 0, 0); stroke-opacity: 1;"/><path class="ylines-above crisp" d="M362.9648002333042,63.83858267716535V420.4322506561679" style="fill: none; stroke-width: 1px; stroke: rgb(0, 0, 0); stroke-opacity: 1;"/><g class="overlines-above"/><g class="xaxislayer-above"><path class="x2tick ticks crisp" d="M0,420.4322506561679v-5" transform="translate(370.1548002333042,0)" style="stroke: rgb(0, 0, 0); stroke-opacity: 1; stroke-width: 1px;"/><path class="x2tick ticks crisp" d="M0,420.4322506561679v-5" transform="translate(414.85480023330416,0)" style="stroke: rgb(0, 0, 0); stroke-opacity: 1; stroke-width: 1px;"/><path class="x2tick ticks crisp" d="M0,420.4322506561679v-5" transform="translate(459.55480023330415,0)" style="stroke: rgb(0, 0, 0); stroke-opacity: 1; stroke-width: 1px;"/><path class="x2tick ticks crisp" d="M0,420.4322506561679v-5" transform="translate(504.2548002333042,0)" style="stroke: rgb(0, 0, 0); stroke-opacity: 1; stroke-width: 1px;"/><path class="x2tick ticks crisp" d="M0,420.4322506561679v-5" transform="translate(548.9548002333042,0)" style="stroke: rgb(0, 0, 0); stroke-opacity: 1; stroke-width: 1px;"/><path class="x2tick ticks crisp" d="M0,420.4322506561679v-5" transform="translate(593.6648002333042,0)" style="stroke: rgb(0, 0, 0); stroke-opacity: 1; stroke-width: 1px;"/><g class="x2tick"><text text-anchor="middle" x="0" y="434.6322506561679" transform="translate(370.1548002333042,0)" style="font-family: sans-serif; font-size: 11px; fill: rgb(0, 0, 0); fill-opacity: 1; white-space: pre;">0</text></g><g class="x2tick"><text text-anchor="middle" x="0" y="434.6322506561679" transform="translate(414.85480023330416,0)" style="font-family: sans-serif; font-size: 11px; fill: rgb(0, 0, 0); fill-opacity: 1; white-space: pre;">1000</text></g><g class="x2tick"><text text-anchor="middle" x="0" y="434.6322506561679" transform="translate(459.55480023330415,0)" style="font-family: sans-serif; font-size: 11px; fill: rgb(0, 0, 0); fill-opacity: 1; white-space: pre;">2000</text></g><g class="x2tick"><text text-anchor="middle" x="0" y="434.6322506561679" transform="translate(504.2548002333042,0)" style="font-family: sans-serif; font-size: 11px; fill: rgb(0, 0, 0); fill-opacity: 1; white-space: pre;">3000</text></g><g class="x2tick"><text text-anchor="middle" x="0" y="434.6322506561679" transform="translate(548.9548002333042,0)" style="font-family: sans-serif; font-size: 11px; fill: rgb(0, 0, 0); fill-opacity: 1; white-space: pre;">4000</text></g><g class="x2tick"><text text-anchor="middle" x="0" y="434.6322506561679" transform="translate(593.6648002333042,0)" style="font-family: sans-serif; font-size: 11px; fill: rgb(0, 0, 0); fill-opacity: 1; white-space: pre;">5000</text></g></g><g class="yaxislayer-above"><path class="y2tick ticks crisp" d="M363.4648002333042,0h5" transform="translate(0,410.33858267716533)" style="stroke: rgb(0, 0, 0); stroke-opacity: 1; stroke-width: 1px;"/><path class="y2tick ticks crisp" d="M363.4648002333042,0h5" transform="translate(0,300.6685826771654)" style="stroke: rgb(0, 0, 0); stroke-opacity: 1; stroke-width: 1px;"/><path class="y2tick ticks crisp" d="M363.4648002333042,0h5" transform="translate(0,190.98858267716537)" style="stroke: rgb(0, 0, 0); stroke-opacity: 1; stroke-width: 1px;"/><path class="y2tick ticks crisp" d="M363.4648002333042,0h5" transform="translate(0,81.31858267716535)" style="stroke: rgb(0, 0, 0); stroke-opacity: 1; stroke-width: 1px;"/><g class="y2tick"><text text-anchor="end" x="360.2648002333042" y="3.8499999999999996" transform="translate(0,410.33858267716533)" style="font-family: sans-serif; font-size: 11px; fill: rgb(0, 0, 0); fill-opacity: 1; white-space: pre;">0</text></g><g class="y2tick"><text text-anchor="end" x="360.2648002333042" y="3.8499999999999996" transform="translate(0,300.6685826771654)" style="font-family: sans-serif; font-size: 11px; fill: rgb(0, 0, 0); fill-opacity: 1; white-space: pre;">500</text></g><g class="y2tick"><text text-anchor="end" x="360.2648002333042" y="3.8499999999999996" transform="translate(0,190.98858267716537)" style="font-family: sans-serif; font-size: 11px; fill: rgb(0, 0, 0); fill-opacity: 1; white-space: pre;">1000</text></g><g class="y2tick"><text text-anchor="end" x="360.2648002333042" y="3.8499999999999996" transform="translate(0,81.31858267716535)" style="font-family: sans-serif; font-size: 11px; fill: rgb(0, 0, 0); fill-opacity: 1; white-space: pre;">1500</text></g></g><g class="overaxes-above"/></g></g><g class="polarlayer"/><g class="ternarylayer"/><g class="geolayer"/><g class="funnelarealayer"/><g class="pielayer"/><g class="treemaplayer"/><g class="sunburstlayer"/><g class="glimages"/><defs id="topdefs-0e4e4a"><g class="clips"/><clipPath id="legend0e4e4a"><rect width="73" height="58" x="0" y="0"/></clipPath></defs><g class="layer-above"><g class="imagelayer"/><g class="shapelayer"/></g><g class="infolayer"><g class="legend" pointer-events="all" transform="translate(615.08,60)"><rect class="bg" shape-rendering="crispEdges" style="stroke: rgb(68, 68, 68); stroke-opacity: 1; fill: rgb(255, 255, 255); fill-opacity: 1; stroke-width: 0px;" width="73" height="58" x="0" y="0"/><g class="scrollbox" transform="" clip-path="url('#legend0e4e4a')"><g class="groups" transform=""><g class="traces" transform="translate(0,14.5)" style="opacity: 1;"><text class="legendtext" text-anchor="start" x="40" y="4.680000000000001" style="font-family: 'Open Sans', verdana, arial, sans-serif; font-size: 12px; fill: rgb(42, 63, 95); fill-opacity: 1; white-space: pre;">Time</text><g class="layers" style="opacity: 1;"><g class="legendfill"/><g class="legendlines"><path class="js-line" d="M5,0h30" style="fill: none; stroke: rgb(0, 154, 250); stroke-opacity: 1; stroke-width: 1px;"/></g><g class="legendsymbols"><g class="legendpoints"/></g></g><rect class="legendtoggle" x="0" y="-9.5" width="67.84375" height="19" style="fill: rgb(0, 0, 0); fill-opacity: 0;"/></g></g><g class="groups" transform="translate(0,10)"><g class="traces" transform="translate(0,33.5)" style="opacity: 1;"><text class="legendtext" text-anchor="start" x="40" y="4.680000000000001" style="font-family: 'Open Sans', verdana, arial, sans-serif; font-size: 12px; fill: rgb(42, 63, 95); fill-opacity: 1; white-space: pre;">Freq</text><g class="layers" style="opacity: 1;"><g class="legendfill"/><g class="legendlines"><path class="js-line" d="M5,0h30" style="fill: none; stroke: rgb(255, 165, 0); stroke-opacity: 1; stroke-width: 1px;"/></g><g class="legendsymbols"><g class="legendpoints"/></g></g><rect class="legendtoggle" x="0" y="-9.5" width="67.84375" height="19" style="fill: rgb(0, 0, 0); fill-opacity: 0;"/></g></g></g><rect class="scrollbar" rx="20" ry="3" width="0" height="0" style="fill: rgb(128, 139, 164); fill-opacity: 1;" x="0" y="0"/></g><g class="g-gtitle"/><g class="g-xtitle"><text class="xtitle" x="204.9148148148148" y="462.140625" text-anchor="middle" style="font-family: sans-serif; font-size: 15px; fill: rgb(0, 0, 0); opacity: 1; font-weight: normal; white-space: pre;">t[s]</text></g><g class="g-x2title"><text class="x2title" x="481.9148148148148" y="462.140625" text-anchor="middle" style="font-family: sans-serif; font-size: 15px; fill: rgb(0, 0, 0); opacity: 1; font-weight: normal; white-space: pre;">f[hz]</text></g><g class="g-ytitle"/><g class="g-y2title"/></g></svg>