<svg class="main-svg" xmlns="http://www.w3.org/2000/svg" xmlns:xlink="http://www.w3.org/1999/xlink" width="700" height="500" style="" viewBox="0 0 700 500"><rect x="0" y="0" width="700" height="500" style="fill: rgb(255, 255, 255); fill-opacity: 1;"/><defs id="defs-6004da"><g class="clips"><clipPath id="clip6004daxyplot" class="plotclip"><rect width="236.90002916302126" height="356.5936679790026"/></clipPath><clipPath id="clip6004dax2y2plot" class="plotclip"><rect width="236.90002916302123" height="356.5936679790026"/></clipPath><clipPath class="axesclip" id="clip6004dax"><rect x="86.46480023330417" y="0" width="236.90002916302126" height="500"/></clipPath><clipPath class="axesclip" id="clip6004day"><rect x="0" y="63.83858267716535" width="700" height="356.5936679790026"/></clipPath><clipPath class="axesclip" id="clip6004daxy"><rect x="86.46480023330417" y="63.83858267716535" width="236.90002916302126" height="356.5936679790026"/></clipPath><clipPath class="axesclip" id="clip6004day2"><rect x="0" y="63.83858267716535" width="700" height="356.5936679790026"/></clipPath><clipPath class="axesclip" id="clip6004daxy2"><rect x="86.46480023330417" y="63.83858267716535" width="236.90002916302126" height="356.5936679790026"/></clipPath><clipPath class="axesclip" id="clip6004dax2"><rect x="363.4648002333042" y="0" width="236.90002916302123" height="500"/></clipPath><clipPath class="axesclip" id="clip6004dax2y"><rect x="363.4648002333042" y="63.83858267716535" width="236.90002916302123" height="356.5936679790026"/></clipPath><clipPath class="axesclip" id="clip6004dax2y2"><rect x="363.4648002333042" y="63.83858267716535" width="236.90002916302123" height="356.5936679790026"/></clipPath></g><g class="gradients"/></defs><g class="bglayer"/><g class="layer-below"><g class="imagelayer"/><g class="shapelayer"/></g><g class="cartesianlayer"><g class="subplot xy"><g class="layer-subplot"><g class="shapelayer"/><g class="imagelayer"/></g><g class="gridlayer"><g class="x"><path class="xgrid crisp" transform="translate(93.16480023330418,0)" d="M0,63.83858267716535v356.5936679790026" style="stroke: rgb(0, 0, 0); stroke-opacity: 0.1; stroke-width: 0.5px;"/><path class="xgrid crisp" transform="translate(167.66480023330416,0)" d="M0,63.83858267716535v356.5936679790026" style="stroke: rgb(0, 0, 0); stroke-opacity: 0.1; stroke-width: 0.5px;"/><path class="xgrid crisp" transform="translate(242.16480023330416,0)" d="M0,63.83858267716535v356.5936679790026" style="stroke: rgb(0, 0, 0); stroke-opacity: 0.1; stroke-width: 0.5px;"/><path class="xgrid crisp" transform="translate(316.66480023330416,0)" d="M0,63.83858267716535v356.5936679790026" style="stroke: rgb(0, 0, 0); stroke-opacity: 0.1; stroke-width: 0.5px;"/></g><g class="y"><path class="ygrid crisp" transform="translate(0,372.64858267716534)" d="M86.46480023330417,0h236.90002916302126" style="stroke: rgb(0, 0, 0); stroke-opacity: 0.1; stroke-width: 0.5px;"/><path class="ygrid crisp" transform="translate(0,305.4785826771653)" d="M86.46480023330417,0h236.90002916302126" style="stroke: rgb(0, 0, 0); stroke-opacity: 0.1; stroke-width: 0.5px;"/><path class="ygrid crisp" transform="translate(0,238.31858267716535)" d="M86.46480023330417,0h236.90002916302126" style="stroke: rgb(0, 0, 0); stroke-opacity: 0.1; stroke-width: 0.5px;"/><path class="ygrid crisp" transform="translate(0,171.14858267716534)" d="M86.46480023330417,0h236.90002916302126" style="stroke: rgb(0, 0, 0); stroke-opacity: 0.1; stroke-width: 0.5px;"/><path class="ygrid crisp" transform="translate(0,103.98858267716534)" d="M86.46480023330417,0h236.90002916302126" style="stroke: rgb(0, 0, 0); stroke-opacity: 0.1; stroke-width: 0.5px;"/></g></g><g class="zerolinelayer"/><path class="xlines-below"/><path class="ylines-below"/><g class="overlines-below"/><g class="xaxislayer-below"/><g class="yaxislayer-below"/><g class="overaxes-below"/><g class="plot" transform="translate(86.46480023330417,63.83858267716535)" clip-path="url('#clip6004daxyplot')"><g class="scatterlayer mlayer"><g class="trace scatter tracef0f973" style="stroke-miterlimit: 2; opacity: 1;"><g class="fills"/><g class="errorbars"/><g class="lines"><path class="js-line" d="M6.7,174.46L6.79,183.83L6.81,173.11L6.81,171.02L7.36,109.07L7.39,297.38L7.56,208.77L7.57,214.61L7.66,302.37L7.78,48.89L8.32,161.92L8.33,163.15L8.6,35.66L8.91,296.69L9.08,170.62L9.09,165.55L9.23,23.5L9.57,276.84L9.84,55.3L9.85,44.54L9.85,32.52L10.24,346.5L10.6,174.22L10.61,170.63L10.95,294.43L11.2,62.97L11.36,123.71L11.37,118.44L11.6,293.14L11.91,35.49L12.12,186.53L12.13,188.2L12.15,281.66L12.72,43.83L12.88,162.37L12.89,166.25L12.92,312.57L13.25,33.19L13.64,253.9L13.65,252.44L13.79,59.01L14.26,301.89L14.4,171.26L14.41,174.01L14.6,31.24L15.08,274.86L15.16,190.77L15.17,185.39L15.4,57.08L15.79,302.41L15.92,79.24L15.93,74.13L15.93,54.73L16.41,303.96L16.68,173.61L16.69,180.44L16.95,271.03L17.29,71.83L17.44,148.98L17.45,142.5L17.66,298.51L17.97,74.3L18.2,198.89L18.21,195.2L18.26,92.19L18.46,269.4L18.96,159.69L18.97,166.54L19.1,276.04L19.46,88.62L19.72,222.8L19.73,216.61L20.04,69.01L20.43,264.02L20.48,154.64L20.49,145.33L20.83,81.19L21.14,255.34L21.24,166.31L21.25,170.16L21.4,36.75L21.78,251.56L22,146.31L22.01,142.81L22.58,259.08L22.73,10.09L22.76,146.53L22.77,143.35L23.12,239.83L23.52,52.3L23.52,53.85L23.53,57.16L23.95,284.99L24.28,173.77L24.29,170.46L24.46,256.16L24.88,85.35L25.04,161.36L25.05,152.24L25.27,275.51L25.41,83.09L25.8,183.62L25.81,182.83L25.9,238.6L26.21,54.88L26.56,174.09L26.57,174.16L26.79,82.96L27.22,264.06L27.32,154.78L27.33,153.9L27.46,107.78L27.97,258.43L28.08,150.93L28.09,147.39L28.16,92.09L28.47,253.13L28.84,173.37L28.85,170.58L29.31,244.61L29.52,60.72L29.6,112.01L29.61,113.4L30.08,248.51L30.28,99.21L30.36,173.56L30.37,173.08L30.75,255.49L30.85,54.94L31.12,184.23L31.13,180.34L31.28,242.14L31.48,98.06L31.88,167.96L31.89,167.84L32.07,248.09L32.21,94.2L32.64,222.92L32.65,224.67L33.01,100.78L33.39,250.68L33.4,209.31L33.41,205.58L33.54,79.55L34.1,247.48L34.16,132.08L34.17,131.72L34.34,99.57L34.82,254.26L34.92,112.23L34.93,114.22L35.35,268.82L35.68,101.47L35.69,101.58L36.15,257.66L36.44,111.25L36.45,108.95L36.69,251.96L37.02,90.33L37.2,135.02L37.21,136.41L37.51,263.69L37.61,95.63L37.96,182.78L37.97,181.05L38.04,260.73L38.69,115.66L38.72,170.74L38.73,171.33L38.83,256.17L38.97,104.32L39.48,179.02L39.49,181.94L39.89,95.6L40.2,251.3L40.24,208.75L40.25,205.15L40.3,116L40.75,244.85L41,179.85L41.01,180.31L41.21,100.09L41.52,243.95L41.76,132.29L41.77,133.3L41.85,121.94L42.1,246.72L42.52,145.76L42.53,139.06L42.91,250.08L43.24,112.1L43.28,140.89L43.29,140.64L43.37,112.77L43.43,244.13L44.04,182.47L44.05,182.43L44.25,242.55L44.44,107.58L44.8,205.43L44.81,200.9L44.92,229.8L44.98,118.31L45.56,180.52L45.57,181.95L45.63,253L45.97,100.02L46.32,164.73L46.33,167.91L46.6,120.94L46.99,255.84L47.08,130.75L47.09,126.61L47.3,99.2L47.53,225.1L47.84,134.31L47.85,133.65L48.31,269.43L48.55,115.9L48.6,154.74L48.61,155.5L48.64,113.01L48.86,249.59L49.36,134.93L49.37,135.1L49.65,248.41L49.9,116.29L50.12,163.51L50.13,160.12L50.19,244.33L50.7,116.81L50.88,177.16L50.89,180.75L51.04,248.68L51.33,108.8L51.64,177.75L51.65,177.59L52.04,111.17L52.38,230.41L52.4,203.13L52.41,203.71L52.43,247.51L52.73,122.68L53.16,185.2L53.17,186.38L53.77,253.27L53.92,102.33L53.93,100.42L53.93,99.91L54.25,230L54.68,185.19L54.69,183.32L54.72,104.73L55.11,251.93L55.44,165.65L55.45,168.31L55.87,214.82L56.09,112.96L56.2,154.23L56.21,153.33L56.48,248.52L56.87,126.02L56.96,178.15L56.97,179.78L57.11,221.47L57.45,104.87L57.72,180.95L57.73,184.43L57.8,231.91L58.21,115.58L58.48,165.05L58.49,161.31L58.78,104.07L59.22,235.67L59.24,201.45L59.25,199.68L59.46,107.99L59.79,232.06L60,194.43L60.01,195.46L60.16,115.16L60.56,237.59L60.76,175.27L60.77,172.17L60.81,117.04L61.04,232.97L61.52,144.68L61.53,144.6L61.94,229.26L62.05,117.26L62.28,158.73L62.29,161.55L62.64,216.82L62.86,119.57L63.04,155.35L63.05,156.24L63.28,240.17L63.38,128.3L63.8,179.71L63.81,179.16L63.91,220.17L64.21,133.39L64.56,197.03L64.57,197.36L64.6,224.13L65.01,123.15L65.32,185.81L65.33,186.22L65.54,135.23L66.01,248.33L66.08,161.81L66.09,160.01L66.34,115.55L66.81,208.03L66.84,204.32L66.85,204.15L67.35,248.07L67.6,138.03L67.6,143.12L67.61,145.63L67.66,136.17L68.17,217.43L68.36,153.71L68.37,155.35L68.72,241.27L69.03,127.21L69.12,177.77L69.13,179.92L69.51,210.71L69.82,140.04L69.88,147.51L69.89,146.65L70.08,251.3L70.38,136.5L70.64,181.02L70.65,180.77L71.22,133.32L71.4,261.51L71.41,261.52L71.63,137.8L72.16,182.11L72.17,181.66L72.34,135.28L72.77,232.55L72.92,173.61L72.93,174.43L73.13,135.83L73.57,219.1L73.68,169.42L73.69,170.49L73.95,122.22L74.11,231.96L74.44,159.61L74.45,157.62L74.96,209.58L75.15,136.29L75.2,165.84L75.21,167.28L75.28,120.88L75.48,225.97L75.96,171.56L75.97,170.95L76.29,217.99L76.62,129.35L76.72,150.71L76.73,149.53L76.84,234.8L77.18,135.72L77.48,199.94L77.49,202.56L77.98,119.01L78.2,230.02L78.24,190.04L78.25,190.92L78.51,130.96L78.83,205.85L79,192.82L79.01,193.96L79.31,130.57L79.53,226.48L79.76,162.09L79.77,164.39L79.89,133.04L80.36,217.08L80.52,168.19L80.53,168.65L80.89,231.39L81.22,127.98L81.28,158.27L81.29,159.41L81.73,206.34L82.03,139.39L82.04,150.16L82.05,153.36L82.25,220.16L82.62,142.28L82.8,181.79L82.81,182.86L83.09,209.13L83.24,137.98L83.56,203.67L83.57,206.08L83.64,216.35L83.91,140.81L84.32,169.86L84.33,172.4L84.86,135.24L84.97,221.11L85.08,183.39L85.09,185.42L85.3,135.84L85.77,207.68L85.84,186.59L85.85,186.3L86.19,137.36L86.3,214.1L86.6,167.35L86.61,167.57L86.63,138.93L87.12,211.81L87.36,186.42L87.37,187.76L87.45,139.15L87.69,220.88L88.12,179.21L88.13,179.96L88.45,205.31L88.79,132.02L88.88,163.61L88.89,163.91L88.92,137.72L89.03,214.22L89.64,197.42L89.65,200.11L90.12,142.69L90.37,215.97L90.4,195.28L90.41,194.76L90.44,200.88L90.71,138.3L91.16,192.8L91.17,193.11L91.26,215.6L91.66,143.59L91.92,173.91L91.93,175.43L92.03,143.63L92.6,208.81L92.68,165.08L92.69,164.11L92.99,129.43L93.09,208.76L93.44,158.86L93.45,160.24L93.98,206.73L94.19,135.47L94.2,163.38L94.21,165.94L94.32,143.22L94.51,206.74L94.96,165.14L94.97,167.6L95.33,218.57L95.69,140.36L95.72,155.98L95.73,157.94L95.83,207.07L96.19,141.26L96.48,162.54L96.49,165.02L96.66,220.01L97.05,134.17L97.24,195.45L97.25,194.88L97.54,134.32L98,205.28L98.01,205.82L98.05,209.54L98.39,137.48L98.76,183.98L98.77,184.86L98.88,130.63L99.39,219.33L99.52,179.15L99.53,179.97L99.75,142.45L99.93,208.17L100.28,168.85L100.29,169.35L100.74,216.23L100.98,150.76L101.04,174.58L101.05,175.67L101.11,137.17L101.3,208.66L101.8,167.02L101.81,167.4L102.08,216.16L102.44,140.8L102.56,172.28L102.57,171.66L102.67,208.94L102.93,146.26L103.32,189.33L103.33,190.12L103.45,223.73L103.84,139.65L104.08,183.83L104.09,183.59L104.26,147.51L104.78,214.3L104.84,182.97L104.85,182.94L105.17,132.37L105.34,208.16L105.6,172.62L105.61,173.42L105.67,147.28L106.14,213.24L106.36,161.34L106.37,161.23L106.54,141.51L106.68,209.66L107.12,168.54L107.13,167.27L107.51,213.72L107.87,138.37L107.88,146.04L107.89,146.12L107.9,145.63L107.92,158.39L107.92,161.6L108.06,204.7L108.33,148.87L108.67,175.97L108.68,175.87L108.86,209.19L109.23,134.61L109.43,184.4L109.44,184.15L109.46,202.83L109.73,148.13L110.19,193.06L110.2,195.16L110.21,211L110.56,134.33L110.95,193.7L110.96,192.92L111.47,152.37L111.58,214.96L111.71,195.23L111.72,193.16L111.92,147.89L112.15,199.23L112.47,172.18L112.48,173.68L112.84,146.84L112.91,207.69L113.23,165.45L113.24,164.24L113.26,146.49L113.47,201.87L113.99,175.63L114,174.41L114.27,208.08L114.69,146L114.75,161.2L114.76,160.39L114.85,197.53L115.12,149.68L115.51,163.02L115.52,162.03L115.63,208.37L116.01,144.89L116.27,172.93L116.28,171.2L116.91,149.55L116.96,203.61L117.03,183.3L117.04,182.68L117.13,200.46L117.36,146.81L117.79,173.01L117.8,171.94L118.25,141.95L118.5,205.22L118.55,178.06L118.56,178.92L118.77,147.52L118.91,200.58L119.31,164.48L119.32,165.09L119.6,138.56L119.83,214.87L120.07,161.49L120.08,161.67L120.1,147.88L120.45,197.23L120.83,160.63L120.84,160.27L120.93,147.64L121.15,209.06L121.59,191.8L121.6,193.51L122.23,201.48L122.3,144.14L122.35,179.71L122.36,180.72L122.4,201.94L122.79,151.17L123.11,183.41L123.12,183.23L123.63,148.59L123.87,197.35L123.88,197.64L124.15,148L124.51,199.67L124.63,180.71L124.64,181.84L125.04,151.1L125.21,198.62L125.39,172.64L125.4,171.15L125.52,149.57L125.84,200.89L126.15,179.74L126.16,179.43L126.39,143.47L126.58,202.5L126.91,167.89L126.92,168.27L126.94,147.87L127.04,197.4L127.67,177.84L127.68,176.1L127.73,144.14L127.95,204.12L128.43,179.73L128.44,179.45L128.58,196.48L129.07,146.75L129.19,175.98L129.2,176.54L129.28,207.09L129.65,150.28L129.95,178.43L129.96,177.51L130.19,198.23L130.42,142.84L130.71,180.97L130.72,181.11L130.82,198.89L131,150.91L131.47,160.03L131.48,160.16L131.76,150.73L132.15,199.65L132.23,164.94L132.24,164.3L132.32,148.1L132.6,193.98L132.99,160.71L133,160.11L133.34,201.3L133.65,142.69L133.75,175.85L133.76,176.6L133.96,198.99L134.48,151.07L134.51,162.54L134.52,163.02L134.87,201.83L135.06,150.19L135.27,179.61L135.28,181.12L135.62,197.61L135.83,150.2L136.03,192.25L136.04,192.2L136.2,210.04L136.43,155.35L136.79,171.78L136.8,172.62L137.3,151.31L137.53,200.92L137.55,190L137.56,190.54L137.76,153.2L138.31,202.19L138.31,202.06L138.32,201.35L138.54,152.72L139.07,160L139.08,159.06L139.4,199.02L139.75,152.74L139.83,183.2L139.84,184.05L140.26,197.22L140.5,152.37L140.59,180.91L140.6,180.57L140.72,192.92L141.34,157.58L141.35,164.32L141.36,165.44L141.83,151.5L142.09,200.01L142.11,175.87L142.12,175.62L142.19,168.23L142.2,179.23L142.2,181.07L142.37,195.78L142.68,156.91L142.95,192.3L142.96,192.79L143,198.42L143.19,153.58L143.71,189.16L143.72,189.26L144.1,156.78L144.32,200.81L144.47,161.84L144.48,162.61L144.54,153.86L145.07,193.22L145.23,185.96L145.24,185.41L145.65,198.74L145.89,151.37L145.99,182.75L146,182.81L146.28,190.91L146.51,157.91L146.75,166.49L146.76,166.72L147.03,198.63L147.23,150.99L147.51,181.96L147.52,182.66L147.81,190.94L148.12,152.23L148.27,185.86L148.28,185.6L148.4,197.22L148.57,156.29L149.03,167.67L149.04,168.11L149.5,154.74L149.76,198.45L149.79,187.33L149.8,186.74L149.94,154.93L150.34,190.72L150.55,169.37L150.56,169.03L151.09,201.12L151.28,155.67L151.31,163.27L151.32,163.94L151.47,155.6L151.84,191.72L152.07,172.02L152.08,171.82L152.22,154L152.45,203.57L152.83,162.36L152.84,161.49L153.19,194.03L153.59,152.59L153.59,156.5L153.6,158.33L153.78,202.67L154.05,157.85L154.35,172.31L154.36,172.73L154.52,191.09L154.92,150.23L155.11,187.62L155.12,186.7L155.15,201.23L155.53,154.3L155.87,174.32L155.88,174.98L156.26,153.78L156.59,200.75L156.63,181.13L156.64,180.96L156.74,155.45L157.1,193.37L157.39,185.32L157.4,183.85L157.64,156.85L157.85,201.36L158.15,177.37L158.16,178.25L158.4,155.09L158.47,190.96L158.91,170.93L158.92,171.25L159.02,155.75L159.28,199L159.67,183.5L159.68,183.18L159.8,192.64L160.34,154.06L160.43,174.77L160.44,173.53L160.66,198.9L160.8,155.9L161.19,172.43L161.2,172.13L161.72,151.37L161.95,193.82L161.95,193.46L161.96,193.04L161.99,198.59L162.17,159.12L162.71,178.99L162.72,178.93L163.08,153.12L163.35,198.23L163.47,166.62L163.48,165.42L163.5,152.98L164.14,196.4L164.23,167.32L164.24,166.64L164.41,153.17L164.72,202.32L164.99,168.07L165,167.56L165.47,192.7L165.74,157.01L165.75,158.62L165.76,158.48L165.77,157.22L166.05,198.01L166.51,169.03L166.52,167.91L166.59,188.19L167.1,152.71L167.27,170.39L167.28,171.4L167.41,198.86L167.73,155.57L168.03,173.03L168.04,173.71L168.47,155.92L168.78,200.31L168.79,192.15L168.8,190.29L168.83,201.41L169.21,156.77L169.55,184.62L169.56,184.31L169.89,156.74L170.16,203.05L170.31,181.18L170.32,181.72L170.41,157.24L170.9,195.21L171.07,188.64L171.08,187.1L171.26,154.65L171.52,199.05L171.83,178.48L171.84,178.48L172.27,193.89L172.58,161.62L172.59,163.24L172.6,163.12L172.84,199.6L172.98,156.25L173.35,173.55L173.36,172.75L173.59,190.34L173.96,156.96L174.11,178.39L174.12,177.98L174.21,202.76L174.32,157.75L174.87,166.89L174.88,167.06L175.32,158.86L175.54,203.2L175.63,180.74L175.64,178.81L175.68,158.95L176.34,189.88L176.39,174.34L176.4,173.29L176.76,152.86L176.91,199.23L177.15,176.98L177.16,176.68L177.57,162.11L177.71,190.7L177.91,173.32L177.92,173.14L178.1,154.92L178.28,203.12L178.67,168.45L178.68,168.07L179.03,191.24L179.35,159.41L179.43,160.84L179.44,160.95L179.61,200.2L180.19,173.48L180.2,172.23L180.4,196.28L180.83,155.8L180.95,187.25L180.96,187.33L180.99,200.32L181.58,162.02L181.71,186.24L181.72,187.11L182.16,157.45L182.35,201.64L182.47,171.45L182.48,171.22L182.94,160.41L183.09,198.61L183.23,179.4L183.24,178.95L183.48,158.27L183.71,202.74L183.99,173.97L184,174.56L184.32,162.23L184.43,194.53L184.75,170.35L184.76,170.07L184.89,157.12L185.04,204.98L185.51,167.16L185.52,166.83L185.8,193.24L186.27,156.63L186.27,158.57L186.28,159.11L186.41,201.14L187.03,168.08L187.04,167.57L187.59,153.42L187.78,202.99L187.79,196.55L187.8,195.74L188.41,159.84L188.55,183.26L188.56,183.13L188.92,154.25L189.12,206.53L189.31,178.57L189.32,178.3L189.78,153.91L189.85,193.22L190.07,179.33L190.08,179.97L190.34,153.92L190.47,199.69L190.83,176.62L190.84,177.11L191.11,155.47L191.22,195.9L191.59,162.53L191.6,161.83L191.67,154.87L191.84,200.05L192.35,165.91L192.36,165.65L192.55,193.46L193.03,155.38L193.11,169.91L193.12,171.03L193.17,202.27L193.83,147.36L193.87,176.88L193.88,176.71L194.42,155.84L194.54,197.53L194.63,171.07L194.64,170.5L194.78,189.27L195.17,155.68L195.39,177.66L195.4,178.67L195.79,151.34L195.9,195.31L196.15,183.64L196.16,183.19L196.54,149.65L196.68,192.61L196.91,174.05L196.92,173.48L197.12,154.01L197.24,194.16L197.67,162.11L197.68,163.26L197.9,151.36L198.05,193.76L198.43,163.28L198.44,162.99L198.49,151.43L198.62,194.21L199.19,167.15L199.2,165.89L199.23,150.47L199.95,191.1L199.96,192.08L199.97,195.65L200.59,152.51L200.71,180.58L200.72,181.28L201.18,150.83L201.33,193.2L201.47,170.51L201.48,171.2L201.93,155.93L202.11,189.51L202.23,175.53L202.24,175.7L202.54,150.05L202.68,194.8L202.99,179.13L203,178.82L203.28,156.51L203.48,188.48L203.75,175.55L203.76,175.81L203.91,150.07L204.06,191.99L204.51,169.49L204.52,169.69L204.85,190.62L205.23,151.42L205.27,154.56L205.28,153.75L205.29,149.6L205.43,191.76L206.03,154.81L206.04,155.18L206.61,151.26L206.79,191.37L206.8,191.69L206.8,192.51L207.4,155.34L207.55,186.07L207.56,185.15L207.97,149.48L208.13,194.11L208.31,173.16L208.32,172.87L208.38,189.82L208.72,156.62L209.07,172.48L209.08,172.99L209.35,148.23L209.5,193.8L209.83,178.95L209.84,178.27L210.1,156.98L210.25,188.09L210.59,171.83L210.6,170.76L210.68,147.81L210.85,193.66L211.35,172.26L211.36,171.87L211.61,191.99L212.04,150.67L212.11,167.28L212.12,167.31L212.19,195.66L212.79,154.3L212.87,166.23L212.88,166L213.41,152.02L213.57,193.99L213.63,174.79L213.64,175.55L213.78,190.07L214.17,154.22L214.39,179.47L214.4,178.74L214.75,151.48L214.9,196.71L215.15,178.16L215.16,178.11L215.22,188.89L215.53,156.49L215.91,178.22L215.92,178.46L216.11,153.27L216.25,192.66L216.67,171.68L216.68,171.33L217.06,187.88L217.43,154.32L217.44,153.76L217.52,149.03L217.91,191.74L218.19,161.22L218.2,161.89L218.87,150.56L218.95,193.33L218.95,192.73L218.96,192.13L219.61,155.01L219.71,177.75L219.72,178.25L219.78,188L220.21,150L220.47,170.29L220.48,171.29L220.62,190.49L220.96,153.72L221.23,172.44L221.24,171.7L221.58,145.77L221.98,192.06L221.99,186.1L222,185.09L222.32,154.8L222.74,190.97L222.75,187.89L222.76,187.6L222.93,142.77L223.31,196.65L223.51,180.07L223.52,179.29L224.1,191.01L224.27,144.69L224.28,144.35L224.28,144.05L224.67,191.68L225.03,157.94L225.04,157.93L225.07,157.77L225.13,177.71L225.13,178.25L225.46,193.36L225.62,142.93L225.88,174.21L225.89,174.37L226,191.84L226.41,153.01L226.64,172.09L226.65,171.71L226.79,194.17L226.97,146.6L227.4,188.95L227.41,189.42L227.74,153.73L228.16,191.7L228.16,191.21L228.17,191.01L228.33,146.41L228.92,173.27L228.93,173L229.49,193.08L229.68,149.65L229.68,149.65L229.69,149.66L230.11,194.12L230.2,171.59" style="vector-effect: non-scaling-stroke; fill: none; stroke: rgb(0, 154, 250); stroke-opacity: 1; stroke-width: 1px; opacity: 1;"/></g><g class="points"/><g class="text"/></g></g></g><g class="overplot"/><path class="xlines-above crisp" d="M85.46480023330417,420.9322506561679H323.36482939632543" style="fill: none; stroke-width: 1px; stroke: rgb(0, 0, 0); stroke-opacity: 1;"/><path class="ylines-above crisp" d="M85.96480023330417,63.83858267716535V420.4322506561679" style="fill: none; stroke-width: 1px; stroke: rgb(0, 0, 0); stroke-opacity: 1;"/><g class="overlines-above"/><g class="xaxislayer-above"><path class="xtick ticks crisp" d="M0,420.4322506561679v-5" transform="translate(93.16480023330418,0)" style="stroke: rgb(0, 0, 0); stroke-opacity: 1; stroke-width: 1px;"/><path class="xtick ticks crisp" d="M0,420.4322506561679v-5" transform="translate(167.66480023330416,0)" style="stroke: rgb(0, 0, 0); stroke-opacity: 1; stroke-width: 1px;"/><path class="xtick ticks crisp" d="M0,420.4322506561679v-5" transform="translate(242.16480023330416,0)" style="stroke: rgb(0, 0, 0); stroke-opacity: 1; stroke-width: 1px;"/><path class="xtick ticks crisp" d="M0,420.4322506561679v-5" transform="translate(316.66480023330416,0)" style="stroke: rgb(0, 0, 0); stroke-opacity: 1; stroke-width: 1px;"/><g class="xtick"><text text-anchor="middle" x="0" y="434.6322506561679" transform="translate(93.16480023330418,0)" style="font-family: sans-serif; font-size: 11px; fill: rgb(0, 0, 0); fill-opacity: 1; white-space: pre;">0</text></g><g class="xtick"><text text-anchor="middle" x="0" y="434.6322506561679" transform="translate(167.66480023330416,0)" style="font-family: sans-serif; font-size: 11px; fill: rgb(0, 0, 0); fill-opacity: 1; white-space: pre;">1</text></g><g class="xtick"><text text-anchor="middle" x="0" y="434.6322506561679" transform="translate(242.16480023330416,0)" style="font-family: sans-serif; font-size: 11px; fill: rgb(0, 0, 0); fill-opacity: 1; white-space: pre;">2</text></g><g class="xtick"><text text-anchor="middle" x="0" y="434.6322506561679" transform="translate(316.66480023330416,0)" style="font-family: sans-serif; font-size: 11px; fill: rgb(0, 0, 0); fill-opacity: 1; white-space: pre;">3</text></g></g><g class="yaxislayer-above"><path class="ytick ticks crisp" d="M86.46480023330417,0h5" transform="translate(0,372.64858267716534)" style="stroke: rgb(0, 0, 0); stroke-opacity: 1; stroke-width: 1px;"/><path class="ytick ticks crisp" d="M86.46480023330417,0h5" transform="translate(0,305.4785826771653)" style="stroke: rgb(0, 0, 0); stroke-opacity: 1; stroke-width: 1px;"/><path class="ytick ticks crisp" d="M86.46480023330417,0h5" transform="translate(0,238.31858267716535)" style="stroke: rgb(0, 0, 0); stroke-opacity: 1; stroke-width: 1px;"/><path class="ytick ticks crisp" d="M86.46480023330417,0h5" transform="translate(0,171.14858267716534)" style="stroke: rgb(0, 0, 0); stroke-opacity: 1; stroke-width: 1px;"/><path class="ytick ticks crisp" d="M86.46480023330417,0h5" transform="translate(0,103.98858267716534)" style="stroke: rgb(0, 0, 0); stroke-opacity: 1; stroke-width: 1px;"/><g class="ytick"><text text-anchor="end" x="83.26480023330417" y="3.8499999999999996" transform="translate(0,372.64858267716534)" style="font-family: sans-serif; font-size: 11px; fill: rgb(0, 0, 0); fill-opacity: 1; white-space: pre;">-0.2</text></g><g class="ytick"><text text-anchor="end" x="83.26480023330417" y="3.8499999999999996" transform="translate(0,305.4785826771653)" style="font-family: sans-serif; font-size: 11px; fill: rgb(0, 0, 0); fill-opacity: 1; white-space: pre;">-0.1</text></g><g class="ytick"><text text-anchor="end" x="83.26480023330417" y="3.8499999999999996" transform="translate(0,238.31858267716535)" style="font-family: sans-serif; font-size: 11px; fill: rgb(0, 0, 0); fill-opacity: 1; white-space: pre;">0.0</text></g><g class="ytick"><text text-anchor="end" x="83.26480023330417" y="3.8499999999999996" transform="translate(0,171.14858267716534)" style="font-family: sans-serif; font-size: 11px; fill: rgb(0, 0, 0); fill-opacity: 1; white-space: pre;">0.1</text></g><g class="ytick"><text text-anchor="end" x="83.26480023330417" y="3.8499999999999996" transform="translate(0,103.98858267716534)" style="font-family: sans-serif; font-size: 11px; fill: rgb(0, 0, 0); fill-opacity: 1; white-space: pre;">0.2</text></g></g><g class="overaxes-above"/></g><g class="subplot x2y2"><g class="layer-subplot"><g class="shapelayer"/><g class="imagelayer"/></g><g class="gridlayer"><g class="x2"><path class="x2grid crisp" transform="translate(370.1548002333042,0)" d="M0,63.83858267716535v356.5936679790026" style="stroke: rgb(0, 0, 0); stroke-opacity: 0.1; stroke-width: 0.5px;"/><path class="x2grid crisp" transform="translate(414.85480023330416,0)" d="M0,63.83858267716535v356.5936679790026" style="stroke: rgb(0, 0, 0); stroke-opacity: 0.1; stroke-width: 0.5px;"/><path class="x2grid crisp" transform="translate(459.55480023330415,0)" d="M0,63.83858267716535v356.5936679790026" style="stroke: rgb(0, 0, 0); stroke-opacity: 0.1; stroke-width: 0.5px;"/><path class="x2grid crisp" transform="translate(504.2548002333042,0)" d="M0,63.83858267716535v356.5936679790026" style="stroke: rgb(0, 0, 0); stroke-opacity: 0.1; stroke-width: 0.5px;"/><path class="x2grid crisp" transform="translate(548.9548002333042,0)" d="M0,63.83858267716535v356.5936679790026" style="stroke: rgb(0, 0, 0); stroke-opacity: 0.1; stroke-width: 0.5px;"/><path class="x2grid crisp" transform="translate(593.6648002333042,0)" d="M0,63.83858267716535v356.5936679790026" style="stroke: rgb(0, 0, 0); stroke-opacity: 0.1; stroke-width: 0.5px;"/></g><g class="y2"><path class="y2grid crisp" transform="translate(0,410.33858267716533)" d="M363.4648002333042,0h236.90002916302123" style="stroke: rgb(0, 0, 0); stroke-opacity: 0.1; stroke-width: 0.5px;"/><path class="y2grid crisp" transform="translate(0,349.19858267716535)" d="M363.4648002333042,0h236.90002916302123" style="stroke: rgb(0, 0, 0); stroke-opacity: 0.1; stroke-width: 0.5px;"/><path class="y2grid crisp" transform="translate(0,288.05858267716536)" d="M363.4648002333042,0h236.90002916302123" style="stroke: rgb(0, 0, 0); stroke-opacity: 0.1; stroke-width: 0.5px;"/><path class="y2grid crisp" transform="translate(0,226.92858267716537)" d="M363.4648002333042,0h236.90002916302123" style="stroke: rgb(0, 0, 0); stroke-opacity: 0.1; stroke-width: 0.5px;"/><path class="y2grid crisp" transform="translate(0,165.78858267716535)" d="M363.4648002333042,0h236.90002916302123" style="stroke: rgb(0, 0, 0); stroke-opacity: 0.1; stroke-width: 0.5px;"/><path class="y2grid crisp" transform="translate(0,104.64858267716535)" d="M363.4648002333042,0h236.90002916302123" style="stroke: rgb(0, 0, 0); stroke-opacity: 0.1; stroke-width: 0.5px;"/></g></g><g class="zerolinelayer"/><path class="xlines-below"/><path class="ylines-below"/><g class="overlines-below"/><g class="xaxislayer-below"/><g class="yaxislayer-below"/><g class="overaxes-below"/><g class="plot" transform="translate(363.4648002333042,63.83858267716535)" clip-path="url('#clip6004dax2y2plot')"><g class="scatterlayer mlayer"><g class="trace scatter traceba4be1" style="stroke-miterlimit: 2; opacity: 1;"><g class="fills"/><g class="errorbars"/><g class="lines"><path class="js-line" d="M6.7,346.36L7.67,346.4L7.69,346.47L8.03,344.5L8.25,346.08L8.27,346.05L8.63,346.4L9.12,342.19L9.13,338.77L9.15,303.25L9.43,345.48L9.86,343.94L9.88,343.57L10.13,339.59L10.59,343.98L10.61,343.89L10.62,343.9L10.79,344.84L10.91,343.05L10.92,342.96L11.2,333.91L11.22,332.8L11.56,273.14L11.58,231.91L11.59,10.09L12.07,344.99L12.32,339.21L12.34,339.21L12.41,339.01L12.5,340.96L12.52,341.58L12.69,344.56L13.16,341.4L13.26,342.06L13.28,342L13.48,344.14L13.65,342.33L13.66,342.05L14.02,330.2L14.04,321.77L14.07,168.16L14.47,346.31L14.78,344.35L14.8,344.26L14.97,343.4L15.39,344.97L15.6,343.93L15.61,343.96L16,346.24L16.27,343.43L16.29,343.18L16.48,322.98L16.49,296.06L16.52,282.06L17.21,344.83L17.25,344.81L17.27,344.76L17.66,345.81L18.01,344.85L18.03,344.75L18.31,344.23L18.51,345.94L18.67,345.4L18.68,345.39L18.76,345.68L18.86,342.46L18.88,341.52L18.97,262.4L18.98,181.97L19.71,346.47L19.74,346.32L19.76,346.26L20.17,346.4L20.78,345.04L20.8,345L21.16,344.64L21.17,344.57L21.38,338.84L21.4,336.14L21.44,246.31L21.56,345.53L22.02,344.72L22.04,344.69L22.17,344.23L22.51,345.62L22.69,345.28L22.71,345.25L23.72,341.91L23.73,341.6L23.85,332.14L23.87,324.37L23.88,268.95L24.12,345.23L24.61,344.79L24.63,344.8L25.19,346.39L25.63,345.89L25.64,345.9L26.06,344.61L26.07,344.5L26.31,338.6L26.33,335.06L26.36,304.57L27.04,345.74L27.06,345.72L27.33,346.43L27.76,345.7L27.77,345.67L28.2,344.99L28.22,344.84L28.83,315.97L28.85,228.88L29.38,345.94L29.63,345.69L29.65,345.65L30.17,346.26L30.41,345.56L30.42,345.55L30.95,343.98L30.96,343.87L31.2,340.93L31.21,340.17L31.32,322.14L31.33,272.48L31.35,211.32L31.71,346L32.05,344.83L32.06,344.8L32.26,344.57L32.7,345.21L32.72,345.18L32.73,345.26L32.97,345.83L33.23,344.64L33.33,344.73L33.34,344.73L33.51,344.42L33.66,345.58L33.67,346.28L33.82,337.14L33.84,302.6L34.6,345.38L34.61,345.4L34.89,345L35.24,345.62L35.25,345.72L35.74,345.45L35.88,346.08L35.89,346.17L36.1,343.92L36.12,343.67L36.19,344.38L36.35,310.07L36.37,291.56L36.95,346.05L37.13,346.02L37.14,346.06L37.4,346.41L37.67,345.62L37.68,345.62L37.7,345.62L37.89,345.94L38.35,345.37L38.37,345.31L38.53,346.06L38.59,344.92L38.6,339.38L38.86,303.81L39.3,345.49L39.32,345.52L39.44,345.36L39.72,346.17L39.74,346.18L39.75,346.22L40.23,345.8L40.57,346.38L40.59,346.35L41.03,342.69L41.05,341.44L41.08,346.38L41.39,333.66L41.41,326.21L41.44,297.18L42.17,343.64L42.18,343.76L42.43,344.51L42.7,342.6L42.72,342.37L43.34,343.75L43.54,327.74L43.55,343.13L43.88,306.02L43.89,302.18L43.95,251.41L44.71,343.61L44.73,343.66L46.02,345.87L46.1,345.5L46.11,344.99L46.44,341.04L46.46,340.51L46.55,304.64L46.81,344.3L46.83,344.3L47.66,346.27L47.68,346.17L47.69,346.2L47.78,346.35L48.33,345.67L48.38,346L48.39,345.75L48.51,343.62L48.65,346.41L48.78,346.13L48.8,346.28L49.05,344.47L49.06,343.02L49.08,334.61L49.79,346.29L49.81,346.26L50.85,345.57L50.87,345.33L51.02,346.36L51.55,344.48L51.57,344.2L51.66,326.04L51.67,305.57L52.42,345.8L52.46,345.56L52.48,345.54L53.34,345.13L53.35,345.42L53.37,345.46L54.26,328.24L54.28,288.68L54.29,253.86L54.99,344.37L55.01,344.36L55.02,344.46L55.89,345.67L55.96,345.51L55.98,344.87L56.16,346.02L56.72,344.3L56.74,344.22L56.9,316.77L57.02,337.94L57.03,339.59L57.78,346.03L57.88,345.93L57.9,345.97L58.18,346.14L58.44,345.73L58.45,345.31L58.47,343.87L58.88,345.86L59.2,344.85L59.21,344.83L59.51,339.45L59.52,331.7L59.54,313.58L60.22,346.2L60.25,346.05L60.27,346.05L60.97,345.61L60.98,344.22L61.03,346.09L61.73,344.81L61.74,344.7L62.1,340.36L62.12,339.71L62.2,292.49L62.44,343.96L62.46,343.83L62.47,343.87L63.38,346.4L63.46,345.85L63.47,344.16L63.49,335.72L63.89,345.74L64.2,345.7L64.22,345.7L64.56,344.79L64.57,344.68L64.81,340.09L64.83,336.85L64.87,285.58L65.44,345.74L65.57,345.67L65.59,345.68L65.81,345.89L65.94,345.11L65.96,344.86L66,334.76L66.51,345.85L66.54,345.56L66.56,345.54L66.73,345.89L67.11,345.41L67.3,345.68L67.32,345.52L67.35,345.91L67.55,345.04L67.57,338.08L68.36,346.36L68.37,346.31L68.39,346.39L68.51,344.58L68.55,345.76L68.57,346.28L68.78,345.82L69.36,345.91L69.37,346.14L70.15,345.02L70.16,344.9L70.25,343.16L70.27,328.09L70.68,345.93L71.04,341.86L71.06,340.92L71.1,345.97L71.81,345.22L71.83,345.15L72.81,346.23L72.93,346L72.95,346.02L73.04,343.65L73.1,346.19L73.19,345.69L73.2,346.02L73.26,346.49L73.54,345.38L73.56,343.35L73.57,342.97L74.15,346.41L74.23,346.25L74.24,346.22L75.72,345.45L75.73,345.11L75.82,346.39L76.14,327.31L76.24,343.29L76.25,343.95L76.93,346.44L77.19,346.18L77.21,346.21L77.4,346.07L77.49,346.44L77.97,346.13L77.98,346.09L78.49,345.45L78.5,345.37L78.56,339.7L79.29,346.32L79.31,345.87L79.64,346.23L79.82,345.09L80.05,345.41L80.07,345.48L81.11,336.84L81.17,337.39L81.19,320.22L81.22,259.78L81.92,345.76L81.93,345.4L81.95,344.78L82.04,337L82.57,346.41L82.66,346.23L82.68,346.29L83.73,344.97L83.79,345.59L83.81,346.21L83.82,346.41L84.17,338.86L84.18,324.49L84.2,316.58L84.39,346.4L84.87,345.41L84.88,345.44L85.03,345.31L85.76,346.35L85.85,345.99L85.87,345.96L86.34,344.1L86.39,345.22L86.4,346.04L86.42,346.45L86.88,340.89L86.89,340.36L87.01,322.13L87.03,290.01L87.04,262.77L87.74,345.26L87.76,345.29L88.59,346.09L88.74,345.82L88.76,345.86L88.92,345.51L89.32,346.3L89.44,345.83L89.46,345.67L89.84,342.37L89.86,341.9L89.92,286.85L90.08,338.59L90.1,340.89L90.89,346.16L90.9,346.2L91.05,346.36L91.15,345.81L91.36,345.65L91.38,345.57L91.5,342.08L91.56,344.96L91.57,345.56L91.6,344.8L91.9,345.86L92.33,344.99L92.35,344.99L92.5,345.34L92.73,342.87L92.75,342.48L92.81,324.8L93.26,345.88L93.27,345.87L93.28,345.93L94.07,345.8L94.09,345.55L94.92,346.47L94.94,346.4L94.95,346.33L95.62,346.31L95.7,346.06L95.71,346.03L95.89,343.49L96.37,346.49L96.44,346.45L96.46,346.44L96.71,345.77L97.14,346.37L97.16,346.37L98.47,346.39L98.48,346.28L98.65,345.56L98.66,345L99.36,346.48L99.45,346.44L99.47,346.39L101.6,345.76L101.61,344.56L101.63,340.24L102.19,346.44L102.34,346.42L102.36,346.43L103.22,346.22L103.24,346.23L103.25,346.24L104.49,346.09L104.5,345.04L104.59,345.87L104.64,340.86L104.65,342.15L104.67,339.97L105.44,346.41L105.49,346.38L105.5,346.37L107.07,345.86L107.1,346.26L107.11,345.42L107.28,346.45L107.69,340.39L107.83,345.76L107.84,346.16L108.07,345.09L108.41,346.47L108.57,346.29L108.59,346.28L109.76,346.14L109.78,344.38L109.81,342.12L109.96,346.35L110.52,345.16L110.54,345.07L110.69,340.9L110.7,335.16L110.72,328.55L111.1,345.85L111.4,345.71L111.42,345.72L112.18,346.41L112.36,346.11L112.37,346.01L112.39,345.81L112.62,346.39L113.09,346.3L113.1,346.36L113.8,345.24L113.98,346.17L114,346.29L114.01,345.19L114.23,346.43L114.75,345.94L114.77,345.95L115.01,345.04L115.02,344.09L115.04,339.65L115.5,346.38L115.75,346.22L115.77,346.27L116.38,346.45L116.59,346.08L116.6,346.02L116.72,346.27L116.84,344.99L116.86,344.26L116.9,337.36L117.44,345.14L117.62,344.96L117.63,344.95L117.72,342.6L118.26,346.48L118.42,346.24L118.44,346.2L118.88,345.79L119.08,346.49L119.17,346.32L119.18,346.31L120.07,343.98L120.09,343.2L120.25,345.62L120.42,336.02L120.82,344.54L120.83,344.61L121.22,346.44L121.77,345.91L121.79,345.96L122.68,346.26L122.71,346.23L122.73,346.22L123.07,344.48L123.08,342.5L123.1,342.09L123.61,346.48L123.63,346.43L123.65,346.4L125.07,346.42L125.08,346.46L125.72,345.73L125.74,345.06L125.8,341.65L126.02,346.43L126.48,345.46L126.5,345.59L127.09,346.33L127.27,346.28L127.29,346.28L129,346.39L129.01,346.4L129.59,345.94L129.61,345.57L129.65,344.19L130.16,346.47L130.32,346.44L130.34,346.44L130.41,345.94L131.05,346.46L131.07,346.46L132.47,346.42L132.49,346.42L132.89,345.29L132.9,344.81L132.92,343.2L133.59,346.41L133.63,346.4L133.65,346.39L133.72,345.54L133.9,346.45L134.36,346.36L134.38,346.42L136.18,346.24L136.2,345.68L136.28,345.53L137.01,346.49L137.03,346.42L137.09,346.19L137.34,346.48L137.77,346.46L137.79,346.45L139.41,346.31L139.43,345.81L139.55,345.46L140.43,346.47L140.44,346.44L140.49,346.27L141.19,346.45L141.2,346.46L142.9,345.77L142.91,345.54L143.32,346.49L143.73,346.44L143.75,346.44L144.61,346.41L144.63,346.41L146.3,346L146.31,345.05L146.33,344.47L146.77,346.38L147.01,346.31L147.03,346.31L149.34,346.38L149.35,346.36L150.13,346.39L150.14,346.4L150.54,345.74L150.92,346.23L150.93,346.34L152.3,346.36L152.32,346.37L153.64,346.49L153.67,346.12L153.69,345.89L154.67,346.33L154.7,346.27L154.72,346.28L155.83,345.72L155.85,345.56L156.04,344.89L156.07,346.34L156.1,345.85L156.12,344.4L156.15,343.33L156.77,346.44L156.85,346.24L156.86,346.23L159.68,346.48L159.69,346.47L161.75,346.12L161.76,345.73L161.81,344.96L162.18,346.47L162.46,346.36L162.48,346.35L163.88,345.93L163.89,345.8L163.94,344.36L164.44,346.35L164.52,345.7L164.53,343.82L164.56,343.37L164.97,346.49L165.14,346.42L165.16,346.36L165.2,346.16L165.29,346.43L165.9,346.43L165.92,346.44L167.51,345.63L167.54,346.2L167.56,346.37L167.62,345.69L168.3,346.48L168.32,346.48L170.31,345.85L170.33,345.71L171.02,346.42L171.16,346.21L171.18,345.76L171.21,345.18L171.79,346.49L171.91,346.47L171.92,346.47L174.83,346.3L174.84,345.94L174.86,345.62L174.99,345.53L175.38,346.44L175.68,346.34L175.69,346.35L176.04,345.6L176.16,346.25L176.17,346.39L177.17,346.49L177.18,346.49L179.73,346.45L179.75,346.46L187.81,345.8L187.82,345.67L187.88,343.97L188.45,346.42L188.52,346.36L188.54,346.38L189.83,346.48L189.85,346.48L193.02,346L193.04,345.94L193.65,343.78L193.69,344.08L193.71,342.87L193.77,340.43L194.32,346.41L194.45,344.47L194.47,344.52L195.38,346.49L195.41,346.48L195.42,346.48L197.83,345.93L197.91,346.36L197.92,346.42L198.01,345.99L198.64,346.49L198.65,346.49L230.2,346.4" style="vector-effect: non-scaling-stroke; fill: none; stroke: rgb(255, 165, 0); stroke-opacity: 1; stroke-width: 1px; opacity: 1;"/></g><g class="points"/><g class="text"/></g></g></g><g class="overplot"/><path class="xlines-above crisp" d="M362.4648002333042,420.9322506561679H600.3648293963254" style="fill: none; stroke-width: 1px; stroke: rgb(0, 0, 0); stroke-opacity: 1;"/><path class="ylines-above crisp" d="M362.9648002333042,63.83858267716535V420.4322506561679" style="fill: none; stroke-width: 1px; stroke: rgb(0, 0, 0); stroke-opacity: 1;"/><g class="overlines-above"/><g class="xaxislayer-above"><path class="x2tick ticks crisp" d="M0,420.4322506561679v-5" transform="translate(370.1548002333042,0)" style="stroke: rgb(0, 0, 0); stroke-opacity: 1; stroke-width: 1px;"/><path class="x2tick ticks crisp" d="M0,420.4322506561679v-5" transform="translate(414.85480023330416,0)" style="stroke: rgb(0, 0, 0); stroke-opacity: 1; stroke-width: 1px;"/><path class="x2tick ticks crisp" d="M0,420.4322506561679v-5" transform="translate(459.55480023330415,0)" style="stroke: rgb(0, 0, 0); stroke-opacity: 1; stroke-width: 1px;"/><path class="x2tick ticks crisp" d="M0,420.4322506561679v-5" transform="translate(504.2548002333042,0)" style="stroke: rgb(0, 0, 0); stroke-opacity: 1; stroke-width: 1px;"/><path class="x2tick ticks crisp" d="M0,420.4322506561679v-5" transform="translate(548.9548002333042,0)" style="stroke: rgb(0, 0, 0); stroke-opacity: 1; stroke-width: 1px;"/><path class="x2tick ticks crisp" d="M0,420.4322506561679v-5" transform="translate(593.6648002333042,0)" style="stroke: rgb(0, 0, 0); stroke-opacity: 1; stroke-width: 1px;"/><g class="x2tick"><text text-anchor="middle" x="0" y="434.6322506561679" transform="translate(370.1548002333042,0)" style="font-family: sans-serif; font-size: 11px; fill: rgb(0, 0, 0); fill-opacity: 1; white-space: pre;">0</text></g><g class="x2tick"><text text-anchor="middle" x="0" y="434.6322506561679" transform="translate(414.85480023330416,0)" style="font-family: sans-serif; font-size: 11px; fill: rgb(0, 0, 0); fill-opacity: 1; white-space: pre;">1000</text></g><g class="x2tick"><text text-anchor="middle" x="0" y="434.6322506561679" transform="translate(459.55480023330415,0)" style="font-family: sans-serif; font-size: 11px; fill: rgb(0, 0, 0); fill-opacity: 1; white-space: pre;">2000</text></g><g class="x2tick"><text text-anchor="middle" x="0" y="434.6322506561679" transform="translate(504.2548002333042,0)" style="font-family: sans-serif; font-size: 11px; fill: rgb(0, 0, 0); fill-opacity: 1; white-space: pre;">3000</text></g><g class="x2tick"><text text-anchor="middle" x="0" y="434.6322506561679" transform="translate(548.9548002333042,0)" style="font-family: sans-serif; font-size: 11px; fill: rgb(0, 0, 0); fill-opacity: 1; white-space: pre;">4000</text></g><g class="x2tick"><text text-anchor="middle" x="0" y="434.6322506561679" transform="translate(593.6648002333042,0)" style="font-family: sans-serif; font-size: 11px; fill: rgb(0, 0, 0); fill-opacity: 1; white-space: pre;">5000</text></g></g><g class="yaxislayer-above"><path class="y2tick ticks crisp" d="M363.4648002333042,0h5" transform="translate(0,410.33858267716533)" style="stroke: rgb(0, 0, 0); stroke-opacity: 1; stroke-width: 1px;"/><path class="y2tick ticks crisp" d="M363.4648002333042,0h5" transform="translate(0,349.19858267716535)" style="stroke: rgb(0, 0, 0); stroke-opacity: 1; stroke-width: 1px;"/><path class="y2tick ticks crisp" d="M363.4648002333042,0h5" transform="translate(0,288.05858267716536)" style="stroke: rgb(0, 0, 0); stroke-opacity: 1; stroke-width: 1px;"/><path class="y2tick ticks crisp" d="M363.4648002333042,0h5" transform="translate(0,226.92858267716537)" style="stroke: rgb(0, 0, 0); stroke-opacity: 1; stroke-width: 1px;"/><path class="y2tick ticks crisp" d="M363.4648002333042,0h5" transform="translate(0,165.78858267716535)" style="stroke: rgb(0, 0, 0); stroke-opacity: 1; stroke-width: 1px;"/><path class="y2tick ticks crisp" d="M363.4648002333042,0h5" transform="translate(0,104.64858267716535)" style="stroke: rgb(0, 0, 0); stroke-opacity: 1; stroke-width: 1px;"/><g class="y2tick"><text text-anchor="end" x="360.2648002333042" y="3.8499999999999996" transform="translate(0,410.33858267716533)" style="font-family: sans-serif; font-size: 11px; fill: rgb(0, 0, 0); fill-opacity: 1; white-space: pre;">0</text></g><g class="y2tick"><text text-anchor="end" x="360.2648002333042" y="3.8499999999999996" transform="translate(0,349.19858267716535)" style="font-family: sans-serif; font-size: 11px; fill: rgb(0, 0, 0); fill-opacity: 1; white-space: pre;">250</text></g><g class="y2tick"><text text-anchor="end" x="360.2648002333042" y="3.8499999999999996" transform="translate(0,288.05858267716536)" style="font-family: sans-serif; font-size: 11px; fill: rgb(0, 0, 0); fill-opacity: 1; white-space: pre;">500</text></g><g class="y2tick"><text text-anchor="end" x="360.2648002333042" y="3.8499999999999996" transform="translate(0,226.92858267716537)" style="font-family: sans-serif; font-size: 11px; fill: rgb(0, 0, 0); fill-opacity: 1; white-space: pre;">750</text></g><g class="y2tick"><text text-anchor="end" x="360.2648002333042" y="3.8499999999999996" transform="translate(0,165.78858267716535)" style="font-family: sans-serif; font-size: 11px; fill: rgb(0, 0, 0); fill-opacity: 1; white-space: pre;">1000</text></g><g class="y2tick"><text text-anchor="end" x="360.2648002333042" y="3.8499999999999996" transform="translate(0,104.64858267716535)" style="font-family: sans-serif; font-size: 11px; fill: rgb(0, 0, 0); fill-opacity: 1; white-space: pre;">1250</text></g></g><g class="overaxes-above"/></g></g><g class="polarlayer"/><g class="ternarylayer"/><g class="geolayer"/><g class="funnelarealayer"/><g class="pielayer"/><g class="treemaplayer"/><g class="sunburstlayer"/><g class="glimages"/><defs id="topdefs-6004da"><g class="clips"/><clipPath id="legend6004da"><rect width="73" height="58" x="0" y="0"/></clipPath></defs><g class="layer-above"><g class="imagelayer"/><g class="shapelayer"/></g><g class="infolayer"><g class="legend" pointer-events="all" transform="translate(615.08,60)"><rect class="bg" shape-rendering="crispEdges" style="stroke: rgb(68, 68, 68); stroke-opacity: 1; fill: rgb(255, 255, 255); fill-opacity: 1; stroke-width: 0px;" width="73" height="58" x="0" y="0"/><g class="scrollbox" transform="" clip-path="url('#legend6004da')"><g class="groups" transform=""><g class="traces" transform="translate(0,14.5)" style="opacity: 1;"><text class="legendtext" text-anchor="start" x="40" y="4.680000000000001" style="font-family: 'Open Sans', verdana, arial, sans-serif; font-size: 12px; fill: rgb(42, 63, 95); fill-opacity: 1; white-space: pre;">Time</text><g class="layers" style="opacity: 1;"><g class="legendfill"/><g class="legendlines"><path class="js-line" d="M5,0h30" style="fill: none; stroke: rgb(0, 154, 250); stroke-opacity: 1; stroke-width: 1px;"/></g><g class="legendsymbols"><g class="legendpoints"/></g></g><rect class="legendtoggle" x="0" y="-9.5" width="67.84375" height="19" style="fill: rgb(0, 0, 0); fill-opacity: 0;"/></g></g><g class="groups" transform="translate(0,10)"><g class="traces" transform="translate(0,33.5)" style="opacity: 1;"><text class="legendtext" text-anchor="start" x="40" y="4.680000000000001" style="font-family: 'Open Sans', verdana, arial, sans-serif; font-size: 12px; fill: rgb(42, 63, 95); fill-opacity: 1; white-space: pre;">Freq</text><g class="layers" style="opacity: 1;"><g class="legendfill"/><g class="legendlines"><path class="js-line" d="M5,0h30" style="fill: none; stroke: rgb(255, 165, 0); stroke-opacity: 1; stroke-width: 1px;"/></g><g class="legendsymbols"><g class="legendpoints"/></g></g><rect class="legendtoggle" x="0" y="-9.5" width="67.84375" height="19" style="fill: rgb(0, 0, 0); fill-opacity: 0;"/></g></g></g><rect class="scrollbar" rx="20" ry="3" width="0" height="0" style="fill: rgb(128, 139, 164); fill-opacity: 1;" x="0" y="0"/></g><g class="g-gtitle"/><g class="g-xtitle"><text class="xtitle" x="204.9148148148148" y="462.140625" text-anchor="middle" style="font-family: sans-serif; font-size: 15px; fill: rgb(0, 0, 0); opacity: 1; font-weight: normal; white-space: pre;">t[s]</text></g><g class="g-x2title"><text class="x2title" x="481.9148148148148" y="462.140625" text-anchor="middle" style="font-family: sans-serif; font-size: 15px; fill: rgb(0, 0, 0); opacity: 1; font-weight: normal; white-space: pre;">f[hz]</text></g><g class="g-ytitle"/><g class="g-y2title"/></g></svg>