<svg class="main-svg" xmlns="http://www.w3.org/2000/svg" xmlns:xlink="http://www.w3.org/1999/xlink" width="700" height="500" style="" viewBox="0 0 700 500"><rect x="0" y="0" width="700" height="500" style="fill: rgb(255, 255, 255); fill-opacity: 1;"/><defs id="defs-946ab3"><g class="clips"><clipPath id="clip946ab3xyplot" class="plotclip"><rect width="236.90002916302126" height="356.5936679790026"/></clipPath><clipPath id="clip946ab3x2y2plot" class="plotclip"><rect width="236.90002916302123" height="356.5936679790026"/></clipPath><clipPath class="axesclip" id="clip946ab3x"><rect x="86.46480023330417" y="0" width="236.90002916302126" height="500"/></clipPath><clipPath class="axesclip" id="clip946ab3y"><rect x="0" y="63.83858267716535" width="700" height="356.5936679790026"/></clipPath><clipPath class="axesclip" id="clip946ab3xy"><rect x="86.46480023330417" y="63.83858267716535" width="236.90002916302126" height="356.5936679790026"/></clipPath><clipPath class="axesclip" id="clip946ab3y2"><rect x="0" y="63.83858267716535" width="700" height="356.5936679790026"/></clipPath><clipPath class="axesclip" id="clip946ab3xy2"><rect x="86.46480023330417" y="63.83858267716535" width="236.90002916302126" height="356.5936679790026"/></clipPath><clipPath class="axesclip" id="clip946ab3x2"><rect x="363.4648002333042" y="0" width="236.90002916302123" height="500"/></clipPath><clipPath class="axesclip" id="clip946ab3x2y"><rect x="363.4648002333042" y="63.83858267716535" width="236.90002916302123" height="356.5936679790026"/></clipPath><clipPath class="axesclip" id="clip946ab3x2y2"><rect x="363.4648002333042" y="63.83858267716535" width="236.90002916302123" height="356.5936679790026"/></clipPath></g><g class="gradients"/></defs><g class="bglayer"/><g class="layer-below"><g class="imagelayer"/><g class="shapelayer"/></g><g class="cartesianlayer"><g class="subplot xy"><g class="layer-subplot"><g class="shapelayer"/><g class="imagelayer"/></g><g class="gridlayer"><g class="x"><path class="xgrid crisp" transform="translate(93.16480023330418,0)" d="M0,63.83858267716535v356.5936679790026" style="stroke: rgb(0, 0, 0); stroke-opacity: 0.1; stroke-width: 0.5px;"/><path class="xgrid crisp" transform="translate(167.66480023330416,0)" d="M0,63.83858267716535v356.5936679790026" style="stroke: rgb(0, 0, 0); stroke-opacity: 0.1; stroke-width: 0.5px;"/><path class="xgrid crisp" transform="translate(242.16480023330416,0)" d="M0,63.83858267716535v356.5936679790026" style="stroke: rgb(0, 0, 0); stroke-opacity: 0.1; stroke-width: 0.5px;"/><path class="xgrid crisp" transform="translate(316.66480023330416,0)" d="M0,63.83858267716535v356.5936679790026" style="stroke: rgb(0, 0, 0); stroke-opacity: 0.1; stroke-width: 0.5px;"/></g><g class="y"><path class="ygrid crisp" transform="translate(0,365.51858267716534)" d="M86.46480023330417,0h236.90002916302126" style="stroke: rgb(0, 0, 0); stroke-opacity: 0.1; stroke-width: 0.5px;"/><path class="ygrid crisp" transform="translate(0,300.36858267716536)" d="M86.46480023330417,0h236.90002916302126" style="stroke: rgb(0, 0, 0); stroke-opacity: 0.1; stroke-width: 0.5px;"/><path class="ygrid crisp" transform="translate(0,235.21858267716533)" d="M86.46480023330417,0h236.90002916302126" style="stroke: rgb(0, 0, 0); stroke-opacity: 0.1; stroke-width: 0.5px;"/><path class="ygrid crisp" transform="translate(0,170.05858267716536)" d="M86.46480023330417,0h236.90002916302126" style="stroke: rgb(0, 0, 0); stroke-opacity: 0.1; stroke-width: 0.5px;"/><path class="ygrid crisp" transform="translate(0,104.90858267716536)" d="M86.46480023330417,0h236.90002916302126" style="stroke: rgb(0, 0, 0); stroke-opacity: 0.1; stroke-width: 0.5px;"/></g></g><g class="zerolinelayer"/><path class="xlines-below"/><path class="ylines-below"/><g class="overlines-below"/><g class="xaxislayer-below"/><g class="yaxislayer-below"/><g class="overaxes-below"/><g class="plot" transform="translate(86.46480023330417,63.83858267716535)" clip-path="url('#clip946ab3xyplot')"><g class="scatterlayer mlayer"><g class="trace scatter trace478011" style="stroke-miterlimit: 2; opacity: 1;"><g class="fills"/><g class="errorbars"/><g class="lines"><path class="js-line" d="M6.7,171.38L6.78,174.2L6.79,169.86L6.79,168.42L7.17,138.21L7.28,205.28L7.54,176.62L7.55,180.24L7.8,295.43L8.04,10.09L8.29,202.38L8.3,201.67L8.47,242.46L8.88,97.45L9.05,167.22L9.06,161.17L9.39,245.33L9.73,97.99L9.81,182.29L9.82,180.41L10.11,346.5L10.19,28.77L10.57,153.1L10.58,157.13L10.67,258.69L11.06,85.03L11.33,174.5L11.34,171.44L11.93,280.21L12.04,31.75L12.09,228.3L12.1,233.87L12.23,291.01L12.33,57.98L12.85,211.11L12.86,207.06L12.91,244.67L13.26,108.34L13.61,153.68L13.62,150.73L14.14,80.01L14.37,342.66L14.37,342.35L14.38,341.26L14.63,43.74L15.13,166.66L15.14,167.48L15.22,232.09L15.54,76.19L15.89,189.04L15.9,195.03L16.32,61.72L16.56,313.01L16.65,215.75L16.66,210.55L16.76,66.96L17.2,240.46L17.41,179.52L17.42,178.2L17.69,91.29L18.09,281.19L18.17,234.13L18.18,235.1L18.3,83.02L18.73,289.68L18.93,128.29L18.94,127.31L18.98,67.51L19.37,246.63L19.69,150.61L19.7,157.58L19.84,73.83L20.36,310.87L20.45,92.9L20.46,95.61L20.75,68.78L20.92,275.69L21.21,149.83L21.22,147.3L21.7,245.62L21.84,116.43L21.97,151.96L21.98,150.97L22.03,87.38L22.5,287.11L22.73,161.19L22.74,157.47L23.08,272.12L23.25,76.6L23.49,190.93L23.5,192.87L23.71,267.72L24.24,90.79L24.25,100.12L24.26,101.74L24.63,286.49L25.01,168.97L25.02,166.2L25.1,95.6L25.27,278.84L25.77,213.22L25.78,215.75L26.06,249.58L26.41,61.74L26.53,140.51L26.54,135.29L26.82,253.32L27.24,83.36L27.29,132.28L27.3,130.16L27.42,278.1L27.64,78.99L28.05,245.82L28.06,249.37L28.2,258.23L28.55,63.48L28.81,192.69L28.82,195.62L28.87,78.24L28.98,274.4L29.57,222.94L29.58,224.9L29.6,295.33L29.85,78.67L30.33,253.94L30.34,254.64L30.69,59.47L31.09,196.61L31.1,196.02L31.54,90.13L31.78,260.2L31.85,210.94L31.86,211.81L32.02,67.73L32.48,274.13L32.61,263.71L32.62,266.23L32.62,268.57L33,62.41L33.37,201.87L33.38,206.44L33.96,273.4L34.13,79.32L34.13,79.63L34.14,80.61L34.88,264.08L34.89,249.66L34.9,245.16L35.14,83.14L35.65,120.8L35.66,121.39L36.19,271.29L36.37,92.17L36.41,136.79L36.42,138.3L36.66,112.8L36.88,249.61L37.17,190.82L37.18,194.3L37.28,80.35L37.68,255.21L37.93,188.07L37.94,194.26L38.32,289.37L38.56,65.26L38.69,144.08L38.7,143.01L39.02,292.9L39.44,89L39.45,91.8L39.46,92.7L39.85,256.98L40.21,171.16L40.22,172.86L40.49,261.34L40.8,72.73L40.97,146.44L40.98,148.36L41.18,274.06L41.63,72.96L41.73,166.51L41.74,169.6L42.04,252.94L42.42,109.71L42.49,132.12L42.5,132.82L42.73,269.11L42.97,92.45L43.25,96.03L43.26,98.1L43.3,261.99L43.76,76L44.01,167.82L44.02,167.24L44.21,256.18L44.68,105.28L44.77,185.73L44.78,183.76L44.86,258.57L45.08,80.45L45.53,183.79L45.54,183.96L45.92,105.58L46.29,231.07L46.3,232.9L46.83,95.93L47.01,315.01L47.05,202.09L47.06,202.99L47.24,67.86L47.79,233.32L47.81,174.76L47.82,173.3L47.94,234.88L48.24,104.9L48.57,224.96L48.58,221.78L48.94,112.38L49.18,283.02L49.33,139.55L49.34,138.62L49.38,89.64L50.09,239.21L50.1,242.28L50.34,113.42L50.72,260.07L50.85,169.83L50.86,173.81L51.21,93.61L51.3,260.06L51.61,112.92L51.62,112.7L51.67,106.21L52.27,247.42L52.37,155.61L52.38,154.29L52.67,97.63L52.86,238.9L53.13,197.6L53.14,198.3L53.57,260.89L53.8,86.79L53.89,198.87L53.9,201.77L54.23,230.42L54.65,105.92L54.66,104.67L54.67,98.13L55,245.26L55.41,190.14L55.42,191.34L55.72,283.99L55.95,62.07L56.17,138.06L56.18,139.39L56.7,252.06L56.93,98.77L56.94,96.92L56.94,93.88L57.28,235.04L57.69,135.67L57.7,136.16L57.89,263.72L58.11,91.9L58.45,155.58L58.46,156.94L58.87,236.39L59.03,111.03L59.21,122.15L59.22,121.97L59.43,247.1L59.97,197.93L59.98,202.26L60.28,100.22L60.7,247.38L60.73,176.02L60.74,175.8L60.99,254.58L61.22,88.38L61.49,146.03L61.5,146.83L61.53,250.29L62.08,100.94L62.25,208.56L62.26,209.3L62.32,240.63L62.44,96.77L63.01,194.01L63.02,190.09L63.47,105.11L63.7,234.69L63.77,173.28L63.78,175.09L64.23,110.59L64.49,255.02L64.53,147.73L64.54,145.7L64.93,96.16L65.26,224.73L65.29,180.36L65.3,178.49L65.41,240.9L65.64,113.64L66.05,154.76L66.06,153.16L66.36,93.58L66.6,242.86L66.81,143.36L66.82,141.1L67.05,115.14L67.53,230.89L67.57,206.53L67.58,205.77L67.9,104.74L68.14,219.16L68.33,174.38L68.34,171.66L68.53,105.79L68.79,261.15L69.09,169.68L69.1,172.42L69.2,111.2L69.68,241.23L69.85,143.57L69.86,140.74L70.06,93.62L70.3,230.48L70.61,194.66L70.62,190.54L70.95,261.41L71.19,84.69L71.37,167.33L71.38,170.19L71.83,221.61L72.04,118.98L72.13,163.78L72.14,161.21L72.17,98.13L72.77,215.24L72.89,154.56L72.9,152.89L73.12,257.42L73.34,93.76L73.65,168.47L73.66,172.49L74.1,251.2L74.34,92.26L74.41,141.85L74.42,141.36L74.59,234.37L75.14,131.96L75.17,135.71L75.18,135.9L75.29,242.03L75.48,96.2L75.93,204L75.94,204.7L76.21,228.62L76.54,107.53L76.69,190.21L76.7,187.99L77.31,116.3L77.39,220.37L77.45,196.08L77.46,195.83L77.52,255.42L77.62,111.12L78.21,185.76L78.22,186.36L78.39,244.79L78.63,101.06L78.97,169.82L78.98,171.43L79.46,99.8L79.66,268.28L79.73,182.28L79.74,178.98L79.87,108.72L80.49,225.5L80.5,226.35L80.57,247.04L80.95,119.23L81.25,156.22L81.26,155L81.6,108.25L81.81,269.46L82.01,125.81L82.02,125.04L82.03,119.03L82.72,224.8L82.77,181.53L82.78,183.38L83.05,110.94L83.36,215.97L83.53,186.64L83.54,184.83L83.75,103.08L84,238.68L84.29,169.8L84.3,168.41L84.43,113.37L84.99,218.02L85.05,164.51L85.06,163.23L85.24,112.62L85.79,218.4L85.81,197.27L85.82,195.48L86.2,254.77L86.42,111.22L86.57,143.55L86.58,142.4L86.6,130.24L87.14,221.85L87.33,139.07L87.34,139.32L87.39,109.15L87.79,226.45L88.09,176.87L88.1,175.53L88.16,115.53L88.36,259.99L88.85,139.23L88.86,137.07L89.27,224.43L89.57,113.09L89.61,169.2L89.62,168.62L89.91,220.2L90.31,125.36L90.37,168.77L90.38,167.05L90.51,246.85L90.7,126.14L91.13,197.78L91.14,197.53L91.42,221.26L91.86,99.98L91.89,187.83L91.9,193.42L91.91,225.36L92.54,132.11L92.65,214.16L92.66,214.23L92.69,228.98L92.86,118.56L93.41,197.84L93.42,195.96L93.6,209.01L93.85,86.75L94.17,191.45L94.18,193.96L94.71,125.42L94.88,235.37L94.93,208.76L94.94,207.86L95.32,124.04L95.69,203.9L95.7,206.08L95.9,249.46L96.15,106.4L96.45,168.47L96.46,169.58L96.85,122.32L97.04,247.75L97.21,158.34L97.22,157.81L97.49,126.91L97.89,229.34L97.97,184.72L97.98,183.9L98.04,246.31L98.29,99.52L98.73,181.31L98.74,181.13L98.99,117.82L99.21,239.2L99.49,161.51L99.5,164.3L99.74,127.98L100.19,249.89L100.25,173.36L100.26,172.1L100.44,110.25L100.77,204.01L101.01,180.38L101.02,182.67L101.39,243.78L101.57,127.88L101.77,162.31L101.78,162.86L101.86,139.45L102.33,245.31L102.53,148.38L102.54,145.41L102.56,113.86L102.91,201.15L103.29,157.8L103.3,157.77L103.35,146.22L103.36,145.26L103.51,241.63L103.74,126.94L104.11,139.76L104.12,141.32L104.48,242.99L104.79,124.05L104.87,140.08L104.88,140.88L105.04,200.15L105.56,116.79L105.63,162.74L105.64,164.3L105.69,239.54L106.26,125.12L106.39,144.54L106.4,143.31L106.74,226.77L106.97,124.63L107.15,187.57L107.16,187.64L107.72,114.36L107.91,210.9L107.92,212.71L107.93,223.24L108.4,126.08L108.67,150.02L108.68,148.8L108.9,224.28L109.09,125.86L109.43,160.01L109.44,160.01L109.85,125.11L110.11,221.62L110.19,183.4L110.2,181.3L110.68,115.38L110.74,198.92L110.95,194.46L110.96,193.85L111.03,234.31L111.34,120.86L111.71,165.89L111.72,165.88L112.04,131.17L112.28,235.3L112.47,162.81L112.48,161.88L112.68,112.12L113.2,225.04L113.23,191.28L113.24,190.9L113.29,228.19L113.53,124.41L113.99,152.73L114,153.99L114.22,135.1L114.43,236.03L114.75,194.7L114.76,192.21L114.97,110.25L115.4,218.15L115.51,185.59L115.52,183.86L115.68,127.04L115.93,203.53L116.27,185.38L116.28,185.47L116.58,232.06L116.8,120.62L117.03,175.81L117.04,174.12L117.13,126.79L117.58,228.17L117.79,150.77L117.8,150.46L117.84,124.43L118.41,199.09L118.55,158.58L118.56,158.96L118.73,234.92L118.95,120.46L119.31,149.27L119.32,147.8L119.79,219.83L120.02,130.63L120.07,172.92L120.08,171.57L120.56,204.55L120.78,113.94L120.83,177.94L120.84,179.89L121,244.26L121.24,138.28L121.59,165.08L121.6,165.79L121.9,221.59L122.26,127.08L122.35,175.85L122.36,176.59L122.72,211.97L122.94,109.26L123.11,204.46L123.12,206.49L123.14,233.9L123.24,138.48L123.87,177.64L123.88,177.24L124.19,226.61L124.39,121.69L124.63,186.32L124.64,185.65L125.07,122.83L125.28,240.16L125.39,166.28L125.4,167.09L125.69,188.7L125.8,141.97L126.15,162.47L126.16,164.74L126.34,228.24L126.56,127.64L126.91,158.54L126.92,156.74L127.22,126.05L127.44,225.8L127.67,171.22L127.68,172.02L127.96,142.91L128.43,217.44L128.44,217.65L128.74,132.74L128.99,225.51L129.19,160.51L129.2,159.12L129.27,212.95L129.36,127.36L129.95,169.89L129.96,171.04L130.38,133.75L130.61,227.8L130.71,208.38L130.72,207.65L131.05,127.97L131.47,169L131.48,168.58L131.66,129.2L131.79,204.03L132.23,166.23L132.24,166.24L132.37,120.74L132.79,223.26L132.99,162.63L133,159.69L133.04,123.53L133.4,207.51L133.75,157.57L133.76,156.03L133.83,132.62L133.96,202.45L134.51,140.95L134.52,142.09L134.97,221.05L135.18,129.52L135.27,167.6L135.28,168.1L135.34,119.35L135.55,208.49L136.03,158.01L136.04,159.84L136.22,211.53L136.66,128.82L136.79,161.59L136.8,160.67L137.24,222.95L137.49,121.05L137.55,176.74L137.56,176.05L137.69,208.93L138.15,131.71L138.31,206.54L138.32,206.56L138.41,207.01L138.84,140.16L139.07,165.16L139.08,166.22L139.38,238.93L139.63,122.91L139.83,191.38L139.84,192.55L140.28,133.77L140.58,217.31L140.59,214.12L140.6,212.88L141.05,138.2L141.35,162.53L141.36,163.96L141.52,241.76L141.78,128.52L142.11,183.93L142.12,184.17L142.47,139.87L142.73,212.87L142.87,180.86L142.88,181.17L143.01,192.84L143.46,130.39L143.63,181.04L143.64,184.86L143.67,240.26L143.9,132.33L144.39,166.63L144.4,167.7L144.63,136L144.88,210.86L145.15,173.87L145.16,173.28L145.44,131.05L145.83,233.02L145.91,198.07L145.92,198.74L145.95,212.18L146.07,133.71L146.67,180.15L146.68,180.12L146.76,141.33L147.01,202.33L147.43,163.69L147.44,163.28L147.89,121.69L148.11,228.87L148.19,164.41L148.2,165.5L148.36,135.88L148.59,188.81L148.95,151.76L148.96,152.2L149.29,197.47L149.71,128.9L149.72,128.6L150.22,224.08L150.47,153.25L150.48,152.03L150.5,134.7L151,193.37L151.23,153.67L151.24,153.41L151.37,201.09L151.88,115.39L151.99,153.28L152,153.16L152.42,223.43L152.66,126.74L152.75,160.84L152.76,161.76L153.12,195.51L153.33,147.22L153.51,180.04L153.52,180.38L153.92,218.71L154.16,131.41L154.27,167.57L154.28,166.59L154.59,229.14L154.8,140.59L155.03,163.86L155.04,162.62L155.58,145.23L155.79,203.99L155.8,204.66L156.08,213.83L156.31,135.71L156.55,150.95L156.56,152.49L156.71,223.65L157.03,142.46L157.31,162.47L157.32,161.77L157.68,139.46L157.91,218.04L158.07,191.11L158.08,190.93L158.22,212.53L158.44,131.37L158.83,195.22L158.84,195.08L158.89,215.16L159.17,143.01L159.59,163.82L159.6,164.34L159.86,137.79L160.21,211.52L160.35,197.21L160.36,198.09L160.93,135.42L161.11,208.13L161.12,208.26L161.2,196.14L161.2,195.54L161.31,136.9L161.95,157.72L161.96,157.2L162.14,136.72L162.37,203.39L162.71,178.23L162.72,176.85L163.07,132.04L163.35,213.83L163.47,143.67L163.48,143.57L163.58,135.48L164.03,189.59L164.23,148.29L164.24,146.51L164.25,137.19L164.5,209.94L164.99,164.47L165,163.83L165.21,130.32L165.51,219.52L165.75,146.23L165.76,146.48L166.19,197.35L166.41,133.95L166.51,179.62L166.52,179.16L166.62,206.16L167.2,136.05L167.27,163.91L167.28,162.71L167.39,137.46L167.65,215.48L168.03,175.23L168.04,175.06L168.56,128.38L168.79,199.81L168.8,200.15L168.81,204.14L169.55,135.61L169.56,134.47L169.57,128.54L169.82,227.41L170.31,192.37L170.32,193.29L170.85,143.07L170.96,207.58L171.07,176.98L171.08,176.56L171.24,203.54L171.7,142.15L171.83,157.87L171.84,156.32L171.97,213.16L172.25,135.2L172.59,186.5L172.6,187.56L173.01,135.66L173.12,203.75L173.35,167.44L173.36,168.13L173.86,136.7L174.11,201.34L174.12,201.44L174.16,210.34L174.41,144.75L174.87,181L174.88,181.28L175.17,133.36L175.61,191.38L175.63,184.67L175.64,184.06L175.83,139.95L176.32,215.24L176.39,190.67L176.4,190.66L176.54,134.55L176.76,198.77L177.15,153.51L177.16,153.13L177.32,140.88L177.52,200.26L177.91,182.72L177.92,181.81L177.99,140.54L178.59,217.52L178.67,154.22L178.68,153.29L178.81,133.27L179.23,192.32L179.43,153.34L179.44,151.43L179.46,131.27L180.02,203.05L180.19,167.54L180.2,168.24L180.74,226.59L180.95,137.95L180.96,136.58L180.97,131.26L181.51,187.19L181.71,157.76L181.72,157.42L182.18,203.86L182.35,155.28L182.47,166.66L182.48,166.63L182.67,132.61L182.87,217.9L183.23,178.67L183.24,177.61L183.27,152.02L183.51,198L183.99,187.04L184,187.37L184.32,203.25L184.68,151.21L184.75,163.12L184.76,161.09L184.79,121.91L185.03,219.99L185.51,188.22L185.52,187.35L185.99,150.75L186.2,190.76L186.27,178.92L186.28,180.22L186.47,198.05L186.96,133.24L187.03,167.85L187.04,167.27L187.07,142.77L187.3,208.84L187.79,185.61L187.8,185.32L188.23,145.5L188.45,192.41L188.55,166.6L188.56,166.74L189.09,130.47L189.31,199.9L189.32,200.01L189.47,205.08L189.57,146.37L190.07,173.79L190.08,174.24L190.39,147.67L190.83,202.23L190.84,202.79L191.38,134.92L191.59,209.77L191.6,210.38L191.61,212.48L191.86,143.23L192.35,174.64L192.36,174.03L192.5,144.33L193,205.33L193.11,198.9L193.12,199.28L193.52,136.61L193.77,215.04L193.87,166.18L193.88,166.89L193.91,184.41L193.97,151.26L194.63,154.7L194.64,154.01L194.68,142.65L195.28,199.44L195.39,162.83L195.4,163.94L195.68,129.9L195.91,222.82L196.15,154.38L196.16,154.63L196.73,188.6L196.79,143.15L196.91,167.07L196.92,167.06L196.95,152.65L197.42,206.32L197.67,154.91L197.68,155.3L197.84,132.37L198.06,214.8L198.43,175.95L198.44,176.32L198.73,188.3L198.95,147.29L199.19,164.8L199.2,165.35L199.55,200.53L199.95,145.24L199.96,144.82L200.11,136.7L200.21,202.68L200.71,183.57L200.72,183.75L201.2,153.69L201.42,198.87L201.47,157.56L201.48,156.86L201.7,205.93L202.23,144.46L202.24,143.9L202.27,137.56L202.45,206.69L202.99,191.42L203,191.46L203.48,140.15L203.75,163.48L203.76,163.97L203.88,201.37L204.4,130.43L204.51,181.68L204.52,183.09L204.63,204.29L204.78,155.52L205.27,180.38L205.28,180.25L205.63,141.75L206.03,198.85L206.03,198.62L206.04,198.4L206.57,133.99L206.79,200.78L206.8,201.96L206.82,211.91L207.06,146.83L207.55,174.69L207.56,174.27L207.76,145.31L208.31,203.42L208.32,204.15L208.76,135.68L208.98,214.36L209.07,171.22L209.08,170.95L209.19,145.53L209.67,194.11L209.83,176.03L209.84,175.46L209.92,146.09L210.44,204.97L210.59,176.1L210.6,177.05L210.91,137.42L211.13,214.94L211.35,147.26L211.36,148.07L211.81,191.05L212.09,146.04L212.11,160.17L212.12,161.52L212.39,150.05L212.62,204.38L212.87,166.39L212.88,166.59L213.07,137.35L213.39,204.83L213.63,164.52L213.64,165.16L213.95,193.74L214.21,150.06L214.39,165.28L214.4,166.01L214.76,197.13L215.15,153.31L215.16,152.36L215.33,133.83L215.53,209.25L215.91,173.74L215.92,175.08L215.94,197.6L216.37,148.96L216.67,164.29L216.68,164.85L216.93,202.4L217.43,143.93L217.44,143.31L217.47,131.32L217.68,210.35L218.19,160.96L218.2,161.71L218.43,189.56L218.64,147.99L218.95,150.77L218.96,150.25L219.1,195.14L219.62,129.97L219.71,155.22L219.72,155.61L219.84,205.47L220.17,152.08L220.47,167.44L220.48,167.57L220.57,190.04L220.78,146.25L221.23,187.05L221.24,186.9L221.37,197.23L221.87,142.3L221.99,188.15L222,188.54L222.04,203.71L222.28,151.15L222.75,168.42L222.76,166.98L222.95,146.22L223.51,201.08L223.52,201.13L223.99,135.63L224.21,207.15L224.27,172.52L224.28,172.25L224.46,152.79L224.72,192.52L225.03,169.15L225.04,168.78L225.44,147.18L225.65,206.83L225.79,182.58L225.8,182.96L226.16,136.07L226.36,206.76L226.55,176.2L226.56,175.06L226.59,148.31L227.01,187.14L227.31,160.73L227.32,160.71L227.59,145.15L227.82,200.83L228.07,172.98L228.08,173.03L228.4,142.78L228.52,203.21L228.83,178.47L228.84,178.82L229,185.31L229.43,156.06L229.59,158.63L229.6,159.44L229.87,148.62L229.94,198.95L230.2,178.47" style="vector-effect: non-scaling-stroke; fill: none; stroke: rgb(0, 154, 250); stroke-opacity: 1; stroke-width: 1px; opacity: 1;"/></g><g class="points"/><g class="text"/></g></g></g><g class="overplot"/><path class="xlines-above crisp" d="M85.46480023330417,420.9322506561679H323.36482939632543" style="fill: none; stroke-width: 1px; stroke: rgb(0, 0, 0); stroke-opacity: 1;"/><path class="ylines-above crisp" d="M85.96480023330417,63.83858267716535V420.4322506561679" style="fill: none; stroke-width: 1px; stroke: rgb(0, 0, 0); stroke-opacity: 1;"/><g class="overlines-above"/><g class="xaxislayer-above"><path class="xtick ticks crisp" d="M0,420.4322506561679v-5" transform="translate(93.16480023330418,0)" style="stroke: rgb(0, 0, 0); stroke-opacity: 1; stroke-width: 1px;"/><path class="xtick ticks crisp" d="M0,420.4322506561679v-5" transform="translate(167.66480023330416,0)" style="stroke: rgb(0, 0, 0); stroke-opacity: 1; stroke-width: 1px;"/><path class="xtick ticks crisp" d="M0,420.4322506561679v-5" transform="translate(242.16480023330416,0)" style="stroke: rgb(0, 0, 0); stroke-opacity: 1; stroke-width: 1px;"/><path class="xtick ticks crisp" d="M0,420.4322506561679v-5" transform="translate(316.66480023330416,0)" style="stroke: rgb(0, 0, 0); stroke-opacity: 1; stroke-width: 1px;"/><g class="xtick"><text text-anchor="middle" x="0" y="434.6322506561679" transform="translate(93.16480023330418,0)" style="font-family: sans-serif; font-size: 11px; fill: rgb(0, 0, 0); fill-opacity: 1; white-space: pre;">0</text></g><g class="xtick"><text text-anchor="middle" x="0" y="434.6322506561679" transform="translate(167.66480023330416,0)" style="font-family: sans-serif; font-size: 11px; fill: rgb(0, 0, 0); fill-opacity: 1; white-space: pre;">1</text></g><g class="xtick"><text text-anchor="middle" x="0" y="434.6322506561679" transform="translate(242.16480023330416,0)" style="font-family: sans-serif; font-size: 11px; fill: rgb(0, 0, 0); fill-opacity: 1; white-space: pre;">2</text></g><g class="xtick"><text text-anchor="middle" x="0" y="434.6322506561679" transform="translate(316.66480023330416,0)" style="font-family: sans-serif; font-size: 11px; fill: rgb(0, 0, 0); fill-opacity: 1; white-space: pre;">3</text></g></g><g class="yaxislayer-above"><path class="ytick ticks crisp" d="M86.46480023330417,0h5" transform="translate(0,365.51858267716534)" style="stroke: rgb(0, 0, 0); stroke-opacity: 1; stroke-width: 1px;"/><path class="ytick ticks crisp" d="M86.46480023330417,0h5" transform="translate(0,300.36858267716536)" style="stroke: rgb(0, 0, 0); stroke-opacity: 1; stroke-width: 1px;"/><path class="ytick ticks crisp" d="M86.46480023330417,0h5" transform="translate(0,235.21858267716533)" style="stroke: rgb(0, 0, 0); stroke-opacity: 1; stroke-width: 1px;"/><path class="ytick ticks crisp" d="M86.46480023330417,0h5" transform="translate(0,170.05858267716536)" style="stroke: rgb(0, 0, 0); stroke-opacity: 1; stroke-width: 1px;"/><path class="ytick ticks crisp" d="M86.46480023330417,0h5" transform="translate(0,104.90858267716536)" style="stroke: rgb(0, 0, 0); stroke-opacity: 1; stroke-width: 1px;"/><g class="ytick"><text text-anchor="end" x="83.26480023330417" y="3.8499999999999996" transform="translate(0,365.51858267716534)" style="font-family: sans-serif; font-size: 11px; fill: rgb(0, 0, 0); fill-opacity: 1; white-space: pre;">-0.2</text></g><g class="ytick"><text text-anchor="end" x="83.26480023330417" y="3.8499999999999996" transform="translate(0,300.36858267716536)" style="font-family: sans-serif; font-size: 11px; fill: rgb(0, 0, 0); fill-opacity: 1; white-space: pre;">-0.1</text></g><g class="ytick"><text text-anchor="end" x="83.26480023330417" y="3.8499999999999996" transform="translate(0,235.21858267716533)" style="font-family: sans-serif; font-size: 11px; fill: rgb(0, 0, 0); fill-opacity: 1; white-space: pre;">0.0</text></g><g class="ytick"><text text-anchor="end" x="83.26480023330417" y="3.8499999999999996" transform="translate(0,170.05858267716536)" style="font-family: sans-serif; font-size: 11px; fill: rgb(0, 0, 0); fill-opacity: 1; white-space: pre;">0.1</text></g><g class="ytick"><text text-anchor="end" x="83.26480023330417" y="3.8499999999999996" transform="translate(0,104.90858267716536)" style="font-family: sans-serif; font-size: 11px; fill: rgb(0, 0, 0); fill-opacity: 1; white-space: pre;">0.2</text></g></g><g class="overaxes-above"/></g><g class="subplot x2y2"><g class="layer-subplot"><g class="shapelayer"/><g class="imagelayer"/></g><g class="gridlayer"><g class="x2"><path class="x2grid crisp" transform="translate(370.1548002333042,0)" d="M0,63.83858267716535v356.5936679790026" style="stroke: rgb(0, 0, 0); stroke-opacity: 0.1; stroke-width: 0.5px;"/><path class="x2grid crisp" transform="translate(414.85480023330416,0)" d="M0,63.83858267716535v356.5936679790026" style="stroke: rgb(0, 0, 0); stroke-opacity: 0.1; stroke-width: 0.5px;"/><path class="x2grid crisp" transform="translate(459.55480023330415,0)" d="M0,63.83858267716535v356.5936679790026" style="stroke: rgb(0, 0, 0); stroke-opacity: 0.1; stroke-width: 0.5px;"/><path class="x2grid crisp" transform="translate(504.2548002333042,0)" d="M0,63.83858267716535v356.5936679790026" style="stroke: rgb(0, 0, 0); stroke-opacity: 0.1; stroke-width: 0.5px;"/><path class="x2grid crisp" transform="translate(548.9548002333042,0)" d="M0,63.83858267716535v356.5936679790026" style="stroke: rgb(0, 0, 0); stroke-opacity: 0.1; stroke-width: 0.5px;"/><path class="x2grid crisp" transform="translate(593.6648002333042,0)" d="M0,63.83858267716535v356.5936679790026" style="stroke: rgb(0, 0, 0); stroke-opacity: 0.1; stroke-width: 0.5px;"/></g><g class="y2"><path class="y2grid crisp" transform="translate(0,410.33858267716533)" d="M363.4648002333042,0h236.90002916302123" style="stroke: rgb(0, 0, 0); stroke-opacity: 0.1; stroke-width: 0.5px;"/><path class="y2grid crisp" transform="translate(0,312.7285826771653)" d="M363.4648002333042,0h236.90002916302123" style="stroke: rgb(0, 0, 0); stroke-opacity: 0.1; stroke-width: 0.5px;"/><path class="y2grid crisp" transform="translate(0,215.11858267716536)" d="M363.4648002333042,0h236.90002916302123" style="stroke: rgb(0, 0, 0); stroke-opacity: 0.1; stroke-width: 0.5px;"/><path class="y2grid crisp" transform="translate(0,117.49858267716534)" d="M363.4648002333042,0h236.90002916302123" style="stroke: rgb(0, 0, 0); stroke-opacity: 0.1; stroke-width: 0.5px;"/></g></g><g class="zerolinelayer"/><path class="xlines-below"/><path class="ylines-below"/><g class="overlines-below"/><g class="xaxislayer-below"/><g class="yaxislayer-below"/><g class="overaxes-below"/><g class="plot" transform="translate(363.4648002333042,63.83858267716535)" clip-path="url('#clip946ab3x2y2plot')"><g class="scatterlayer mlayer"><g class="trace scatter traceeec146" style="stroke-miterlimit: 2; opacity: 1;"><g class="fills"/><g class="errorbars"/><g class="lines"><path class="js-line" d="M6.7,346.2L7.38,346.24L7.42,346.01L7.43,345.69L7.79,346.33L8.19,345.94L8.21,344.69L8.22,340.99L8.46,346.32L8.95,345.81L8.97,345.65L9.36,345.57L9.45,345.07L9.46,344.98L9.67,338.27L9.68,335.97L9.74,285.98L9.76,150.11L10.5,344.18L10.52,344.15L10.53,344.05L11.09,339.73L11.1,338.77L11.26,287.93L11.28,227.88L11.29,10.09L11.83,344.36L12.02,344.12L12.04,344.36L12.22,345.44L12.71,342.85L12.72,343.65L12.74,342.62L12.81,322.07L12.83,130.76L13.59,344.77L13.6,344.98L13.66,345.43L14.08,342.19L14.09,341.89L14.27,330.58L14.29,327.13L14.35,204.65L14.84,343.64L14.85,343.72L15.02,342.76L15.21,343.78L15.23,343.85L15.55,341.83L15.57,341.66L15.84,332.72L15.85,328.86L15.9,100.04L16.06,341.53L16.08,341.9L16.88,345.21L16.91,344.98L16.93,344.85L17.31,334.78L17.33,332.83L17.42,174.37L17.51,327.6L17.52,330.36L18.24,345.4L18.4,344.81L18.42,344.78L18.55,344.65L18.7,345.43L18.71,345.57L18.94,332.83L18.95,325.14L19,261.75L19.5,346.29L19.52,346.3L20.41,345.73L20.43,345.6L20.53,338.2L20.55,317.33L21.1,346.41L21.31,346.23L21.32,346.19L21.69,345.29L21.71,345.24L22.04,340.9L22.05,339.07L22.1,288.43L22.42,345.54L22.44,345.58L23.17,346L23.39,345.84L23.41,345.81L23.59,343.26L23.6,342.64L23.66,333.4L23.68,281.84L24.43,346.1L24.45,346.12L24.78,345.39L24.79,345.24L25.21,339.7L25.22,337L25.27,303.23L25.85,345.46L25.87,345.45L25.88,345.49L26.34,346.24L26.52,345.28L26.54,345.21L26.74,340.28L26.76,339.39L26.83,313.9L26.85,131.28L27.25,345.52L27.61,345.05L27.62,345.1L28.07,344.2L28.09,343.97L28.41,334.37L28.43,335.29L28.44,144.51L29.2,346.08L29.22,346.17L29.34,346.34L29.58,345.54L29.59,345.32L29.98,334.54L29.99,331.74L30.07,196.38L30.22,338.15L30.23,339.1L30.78,345.36L31.14,345.12L31.15,345.13L31.6,337.07L31.62,335.44L31.68,253.68L32.09,345.11L32.11,344.99L32.84,345.75L32.85,345.85L32.87,346.06L33.29,343.62L33.3,341.88L33.31,312.68L33.64,346.49L34.03,346.4L34.05,346.43L34.92,345.44L34.94,344.34L34.97,334L35.46,346.41L35.61,346.39L35.62,346.4L36.46,345.07L36.47,344.87L36.61,338.62L36.62,299.45L37.13,346.21L37.4,346.02L37.41,346.06L37.7,346.48L38.01,345.74L38.11,345.84L38.13,345.81L38.26,343.01L38.28,340.92L38.31,329.27L38.89,345.41L39.02,345.13L39.04,344.92L39.07,343.59L39.24,345.93L39.71,345.42L39.72,345.38L39.92,342.28L39.93,341.33L40,285.82L40.06,338.34L40.08,339.93L40.76,346.37L40.88,346.16L40.9,346.21L41.48,344.47L41.49,344.3L41.67,334.15L41.69,328.3L41.7,258.92L42.02,345.83L42.43,344.82L42.45,344.68L42.55,344.89L42.93,343.95L42.94,343.91L43.06,344L43.36,338.63L43.37,337.14L43.43,251.3L43.51,338.98L43.52,340.36L44.06,345.71L44.37,345.5L44.39,345.52L45.03,344.32L45.04,343.95L45.15,332.48L45.16,315.08L45.17,271.81L45.9,345.08L45.92,345.05L46.38,345.81L46.65,344.9L46.66,344.83L46.89,335.69L46.9,328.88L46.92,275.29L47.54,346.21L47.63,346.18L47.65,346.15L48.47,345.78L48.5,345.86L48.51,346L48.59,342.19L48.66,346.36L48.83,346.02L48.84,346.09L49.05,346.29L49.39,345.62L49.42,345.62L49.44,345.52L50.12,342.57L50.14,341.82L50.21,303.86L50.55,345.56L50.57,345.68L50.73,343.86L51.06,346.24L51.37,343.95L51.39,343.83L51.55,344.72L52.31,326.53L52.33,315.39L52.46,346.14L53.09,344.18L53.1,343.79L53.37,334.24L53.38,331.17L53.43,264.54L53.7,340.03L53.74,340.01L53.76,339.92L53.79,340.9L54.11,326.24L54.13,315.43L54.16,254.24L54.65,345.78L54.87,345.62L54.89,345.51L55.04,343.75L55.1,346.43L55.68,345.73L55.69,345.54L55.75,345.72L55.9,344.31L55.92,343.78L56.01,322.17L56.39,346.2L56.41,346.17L56.65,345.97L56.66,345.1L56.68,344.16L56.86,346.36L57.39,345.68L57.41,345.6L57.48,345.83L57.79,343.51L57.81,342.67L57.82,342.93L57.85,340.68L57.87,312.95L58.61,346.37L58.64,346.34L58.66,346.37L59.69,344.63L59.7,341.14L59.72,340.74L59.73,342.38L59.75,341.66L59.76,324.04L60.4,346.35L60.54,346.26L60.55,346.22L61.36,345.8L61.37,345.77L61.59,342.54L61.61,341.43L61.68,313.47L62.37,346.07L62.41,345.91L62.43,346.01L63.13,346.25L63.14,346.29L63.59,343.61L63.61,340.94L63.62,318.04L64.35,346.39L64.37,346.39L65.51,345.95L65.56,346.06L65.57,344.99L65.59,344.06L65.9,346.41L66.29,346.21L66.3,346.16L66.56,345.65L67.14,346.42L67.15,346.1L67.21,346.34L67.49,343.57L67.54,343.92L67.55,334.41L68.02,346.46L68.33,346.06L68.34,346.24L68.49,346.35L68.73,345.88L69.13,346.19L69.15,346.26L69.51,344.61L69.54,344.81L69.55,342.99L69.57,332.44L70.04,346.48L70.28,346.22L70.3,346.35L70.33,346.04L71.04,346.48L71.06,346.5L71.55,343.36L71.56,342.3L71.64,336.28L72.29,346.3L72.31,346.28L73.28,345.81L73.29,345L73.6,346.39L73.65,343.77L73.99,345.98L74.01,346.04L74.11,346.4L74.27,345.54L74.66,345.55L74.68,345.28L74.87,346.01L74.99,341.13L75,341.91L75.02,319.06L75.03,318.74L75.11,340.15L75.12,341.35L75.38,345.84L75.96,345.53L75.97,345.66L76.63,346.23L76.7,346.05L76.72,345.4L76.73,345.24L77.06,346.45L77.43,346.04L77.45,346.01L77.76,346.17L77.82,343.45L77.83,337.62L78.04,346.46L78.47,321.75L78.61,344.2L78.62,344.46L79.37,346.45L79.53,346.3L79.55,346.33L79.92,344.58L79.94,343.82L79.96,335.54L80.55,346.48L80.65,346.44L80.67,346.41L81.87,345.7L81.89,345.16L81.93,341.7L81.99,345.37L82.01,345.5L82.11,342.74L82.69,346.4L82.78,346.32L82.8,346.33L82.96,346.49L83.63,345.46L83.65,343.42L84.15,346.49L84.48,346.35L84.49,346.31L85.37,346.35L85.42,345.96L85.43,345.8L86.13,346.47L86.25,346.44L86.27,346.43L86.48,346.19L86.49,345.45L86.51,344.78L86.92,346.34L87.22,345.51L87.24,345.89L87.91,346.47L88.01,346.45L88.03,346.45L88.7,345.68L88.71,345.21L88.74,342.36L89.14,346.44L89.44,346.27L89.46,346.34L89.49,346.1L90.2,346.24L90.22,346.22L90.77,345.49L90.78,344.77L90.99,336.81L91.35,346.29L91.36,346.27L93.06,346.06L93.08,345.98L93.24,342.39L93.26,340.07L93.27,337.84L93.93,346.49L93.97,346.44L93.99,346.44L94.34,345.54L94.36,345.15L94.37,343.21L94.76,346.49L95.1,346.4L95.12,346.38L95.55,345.45L95.56,344.51L95.58,342.13L96.26,346.48L96.29,346.44L96.31,346.37L96.38,346.5L97.08,346.14L97.11,346.18L97.13,346.18L97.46,346.45L97.71,345.78L97.72,345.43L97.92,342.85L97.93,339.64L98.66,346.4L98.75,346.25L98.77,346.33L100,346.15L100.02,346.09L100.03,346.01L100.32,344.31L100.33,343.56L101.11,346.28L101.18,346.17L101.2,346.12L101.66,345.13L101.84,346.48L102.02,346.44L102.03,346.44L102.66,345.88L102.67,345.6L102.7,343.16L103.24,346.41L103.34,346.28L103.36,346.32L103.49,345.71L103.73,346.48L103.94,346.48L103.95,346.49L105.1,345.76L105.12,345.37L105.38,343.54L105.83,346.43L105.86,346.42L105.87,346.44L107.14,346.11L107.16,345.68L107.17,345.06L107.83,346.48L107.89,346.45L107.9,346.46L109.02,346.16L109.03,345.93L109.05,345.72L109.14,344.9L109.84,346.49L109.85,346.48L109.87,346.45L110.05,345.85L110.06,345.2L110.82,346.45L110.9,346.4L110.91,346.38L111.07,345.96L111.18,346.48L111.64,346.48L111.66,346.48L112.85,345.85L112.89,346.2L112.91,345.15L112.92,344.41L113.52,346.47L113.64,346.46L113.65,346.46L116.2,346.49L116.22,346.5L117.62,345.99L117.63,345.67L117.65,344.77L118.27,346.35L118.36,346.34L118.38,346.32L118.7,345.68L118.72,343.44L119.58,346.5L119.6,346.47L120.18,345.67L120.19,345.43L120.27,342.68L120.71,346.45L120.98,346.01L121,346.01L122.61,345.56L122.62,344.29L123.43,346.48L123.44,346.47L125.53,345.85L125.54,345.5L126.18,346.45L126.35,346.32L126.36,346.31L126.54,345.61L126.56,344.46L127.33,346.5L127.42,346.48L127.43,346.49L129.82,346.48L129.83,346.49L141.98,345.8L141.99,345.63L142.56,346.44L142.81,346.24L142.83,345.95L143.56,346.49L143.64,346.47L143.66,346.47L144.93,346.25L144.96,345.99L144.97,345.67L145.79,346.49L145.81,346.49L152.96,346.49L152.97,346.5L164.38,345.77L164.4,345.48L165.2,346.48L165.23,346.47L165.25,346.47L169.51,346.46L169.53,346.47L181.88,346.5L181.89,346.49L193.24,346.5L193.26,346.49L230.2,346.5" style="vector-effect: non-scaling-stroke; fill: none; stroke: rgb(255, 165, 0); stroke-opacity: 1; stroke-width: 1px; opacity: 1;"/></g><g class="points"/><g class="text"/></g></g></g><g class="overplot"/><path class="xlines-above crisp" d="M362.4648002333042,420.9322506561679H600.3648293963254" style="fill: none; stroke-width: 1px; stroke: rgb(0, 0, 0); stroke-opacity: 1;"/><path class="ylines-above crisp" d="M362.9648002333042,63.83858267716535V420.4322506561679" style="fill: none; stroke-width: 1px; stroke: rgb(0, 0, 0); stroke-opacity: 1;"/><g class="overlines-above"/><g class="xaxislayer-above"><path class="x2tick ticks crisp" d="M0,420.4322506561679v-5" transform="translate(370.1548002333042,0)" style="stroke: rgb(0, 0, 0); stroke-opacity: 1; stroke-width: 1px;"/><path class="x2tick ticks crisp" d="M0,420.4322506561679v-5" transform="translate(414.85480023330416,0)" style="stroke: rgb(0, 0, 0); stroke-opacity: 1; stroke-width: 1px;"/><path class="x2tick ticks crisp" d="M0,420.4322506561679v-5" transform="translate(459.55480023330415,0)" style="stroke: rgb(0, 0, 0); stroke-opacity: 1; stroke-width: 1px;"/><path class="x2tick ticks crisp" d="M0,420.4322506561679v-5" transform="translate(504.2548002333042,0)" style="stroke: rgb(0, 0, 0); stroke-opacity: 1; stroke-width: 1px;"/><path class="x2tick ticks crisp" d="M0,420.4322506561679v-5" transform="translate(548.9548002333042,0)" style="stroke: rgb(0, 0, 0); stroke-opacity: 1; stroke-width: 1px;"/><path class="x2tick ticks crisp" d="M0,420.4322506561679v-5" transform="translate(593.6648002333042,0)" style="stroke: rgb(0, 0, 0); stroke-opacity: 1; stroke-width: 1px;"/><g class="x2tick"><text text-anchor="middle" x="0" y="434.6322506561679" transform="translate(370.1548002333042,0)" style="font-family: sans-serif; font-size: 11px; fill: rgb(0, 0, 0); fill-opacity: 1; white-space: pre;">0</text></g><g class="x2tick"><text text-anchor="middle" x="0" y="434.6322506561679" transform="translate(414.85480023330416,0)" style="font-family: sans-serif; font-size: 11px; fill: rgb(0, 0, 0); fill-opacity: 1; white-space: pre;">1000</text></g><g class="x2tick"><text text-anchor="middle" x="0" y="434.6322506561679" transform="translate(459.55480023330415,0)" style="font-family: sans-serif; font-size: 11px; fill: rgb(0, 0, 0); fill-opacity: 1; white-space: pre;">2000</text></g><g class="x2tick"><text text-anchor="middle" x="0" y="434.6322506561679" transform="translate(504.2548002333042,0)" style="font-family: sans-serif; font-size: 11px; fill: rgb(0, 0, 0); fill-opacity: 1; white-space: pre;">3000</text></g><g class="x2tick"><text text-anchor="middle" x="0" y="434.6322506561679" transform="translate(548.9548002333042,0)" style="font-family: sans-serif; font-size: 11px; fill: rgb(0, 0, 0); fill-opacity: 1; white-space: pre;">4000</text></g><g class="x2tick"><text text-anchor="middle" x="0" y="434.6322506561679" transform="translate(593.6648002333042,0)" style="font-family: sans-serif; font-size: 11px; fill: rgb(0, 0, 0); fill-opacity: 1; white-space: pre;">5000</text></g></g><g class="yaxislayer-above"><path class="y2tick ticks crisp" d="M363.4648002333042,0h5" transform="translate(0,410.33858267716533)" style="stroke: rgb(0, 0, 0); stroke-opacity: 1; stroke-width: 1px;"/><path class="y2tick ticks crisp" d="M363.4648002333042,0h5" transform="translate(0,312.7285826771653)" style="stroke: rgb(0, 0, 0); stroke-opacity: 1; stroke-width: 1px;"/><path class="y2tick ticks crisp" d="M363.4648002333042,0h5" transform="translate(0,215.11858267716536)" style="stroke: rgb(0, 0, 0); stroke-opacity: 1; stroke-width: 1px;"/><path class="y2tick ticks crisp" d="M363.4648002333042,0h5" transform="translate(0,117.49858267716534)" style="stroke: rgb(0, 0, 0); stroke-opacity: 1; stroke-width: 1px;"/><g class="y2tick"><text text-anchor="end" x="360.2648002333042" y="3.8499999999999996" transform="translate(0,410.33858267716533)" style="font-family: sans-serif; font-size: 11px; fill: rgb(0, 0, 0); fill-opacity: 1; white-space: pre;">0</text></g><g class="y2tick"><text text-anchor="end" x="360.2648002333042" y="3.8499999999999996" transform="translate(0,312.7285826771653)" style="font-family: sans-serif; font-size: 11px; fill: rgb(0, 0, 0); fill-opacity: 1; white-space: pre;">500</text></g><g class="y2tick"><text text-anchor="end" x="360.2648002333042" y="3.8499999999999996" transform="translate(0,215.11858267716536)" style="font-family: sans-serif; font-size: 11px; fill: rgb(0, 0, 0); fill-opacity: 1; white-space: pre;">1000</text></g><g class="y2tick"><text text-anchor="end" x="360.2648002333042" y="3.8499999999999996" transform="translate(0,117.49858267716534)" style="font-family: sans-serif; font-size: 11px; fill: rgb(0, 0, 0); fill-opacity: 1; white-space: pre;">1500</text></g></g><g class="overaxes-above"/></g></g><g class="polarlayer"/><g class="ternarylayer"/><g class="geolayer"/><g class="funnelarealayer"/><g class="pielayer"/><g class="treemaplayer"/><g class="sunburstlayer"/><g class="glimages"/><defs id="topdefs-946ab3"><g class="clips"/><clipPath id="legend946ab3"><rect width="73" height="58" x="0" y="0"/></clipPath></defs><g class="layer-above"><g class="imagelayer"/><g class="shapelayer"/></g><g class="infolayer"><g class="legend" pointer-events="all" transform="translate(615.08,60)"><rect class="bg" shape-rendering="crispEdges" width="73" height="58" x="0" y="0" style="stroke: rgb(68, 68, 68); stroke-opacity: 1; fill: rgb(255, 255, 255); fill-opacity: 1; stroke-width: 0px;"/><g class="scrollbox" transform="" clip-path="url('#legend946ab3')"><g class="groups" transform=""><g class="traces" transform="translate(0,14.5)" style="opacity: 1;"><text class="legendtext" text-anchor="start" x="40" y="4.680000000000001" style="font-family: 'Open Sans', verdana, arial, sans-serif; font-size: 12px; fill: rgb(42, 63, 95); fill-opacity: 1; white-space: pre;">Time</text><g class="layers" style="opacity: 1;"><g class="legendfill"/><g class="legendlines"><path class="js-line" d="M5,0h30" style="fill: none; stroke: rgb(0, 154, 250); stroke-opacity: 1; stroke-width: 1px;"/></g><g class="legendsymbols"><g class="legendpoints"/></g></g><rect class="legendtoggle" x="0" y="-9.5" width="67.84375" height="19" style="fill: rgb(0, 0, 0); fill-opacity: 0;"/></g></g><g class="groups" transform="translate(0,10)"><g class="traces" transform="translate(0,33.5)" style="opacity: 1;"><text class="legendtext" text-anchor="start" x="40" y="4.680000000000001" style="font-family: 'Open Sans', verdana, arial, sans-serif; font-size: 12px; fill: rgb(42, 63, 95); fill-opacity: 1; white-space: pre;">Freq</text><g class="layers" style="opacity: 1;"><g class="legendfill"/><g class="legendlines"><path class="js-line" d="M5,0h30" style="fill: none; stroke: rgb(255, 165, 0); stroke-opacity: 1; stroke-width: 1px;"/></g><g class="legendsymbols"><g class="legendpoints"/></g></g><rect class="legendtoggle" x="0" y="-9.5" width="67.84375" height="19" style="fill: rgb(0, 0, 0); fill-opacity: 0;"/></g></g></g><rect class="scrollbar" rx="20" ry="3" width="0" height="0" x="0" y="0" style="fill: rgb(128, 139, 164); fill-opacity: 1;"/></g><g class="g-gtitle"/><g class="g-xtitle"><text class="xtitle" x="204.9148148148148" y="462.140625" text-anchor="middle" style="font-family: sans-serif; font-size: 15px; fill: rgb(0, 0, 0); opacity: 1; font-weight: normal; white-space: pre;">t[s]</text></g><g class="g-x2title"><text class="x2title" x="481.9148148148148" y="462.140625" text-anchor="middle" style="font-family: sans-serif; font-size: 15px; fill: rgb(0, 0, 0); opacity: 1; font-weight: normal; white-space: pre;">f[hz]</text></g><g class="g-ytitle"/><g class="g-y2title"/></g></svg>