<svg class="main-svg" xmlns="http://www.w3.org/2000/svg" xmlns:xlink="http://www.w3.org/1999/xlink" width="700" height="500" style="" viewBox="0 0 700 500"><rect x="0" y="0" width="700" height="500" style="fill: rgb(255, 255, 255); fill-opacity: 1;"/><defs id="defs-a6d7df"><g class="clips"><clipPath id="clipa6d7dfxyplot" class="plotclip"><rect width="236.90002916302126" height="356.5936679790026"/></clipPath><clipPath id="clipa6d7dfx2y2plot" class="plotclip"><rect width="236.90002916302123" height="356.5936679790026"/></clipPath><clipPath class="axesclip" id="clipa6d7dfx"><rect x="86.46480023330417" y="0" width="236.90002916302126" height="500"/></clipPath><clipPath class="axesclip" id="clipa6d7dfy"><rect x="0" y="63.83858267716535" width="700" height="356.5936679790026"/></clipPath><clipPath class="axesclip" id="clipa6d7dfxy"><rect x="86.46480023330417" y="63.83858267716535" width="236.90002916302126" height="356.5936679790026"/></clipPath><clipPath class="axesclip" id="clipa6d7dfy2"><rect x="0" y="63.83858267716535" width="700" height="356.5936679790026"/></clipPath><clipPath class="axesclip" id="clipa6d7dfxy2"><rect x="86.46480023330417" y="63.83858267716535" width="236.90002916302126" height="356.5936679790026"/></clipPath><clipPath class="axesclip" id="clipa6d7dfx2"><rect x="363.4648002333042" y="0" width="236.90002916302123" height="500"/></clipPath><clipPath class="axesclip" id="clipa6d7dfx2y"><rect x="363.4648002333042" y="63.83858267716535" width="236.90002916302123" height="356.5936679790026"/></clipPath><clipPath class="axesclip" id="clipa6d7dfx2y2"><rect x="363.4648002333042" y="63.83858267716535" width="236.90002916302123" height="356.5936679790026"/></clipPath></g><g class="gradients"/></defs><g class="bglayer"/><g class="layer-below"><g class="imagelayer"/><g class="shapelayer"/></g><g class="cartesianlayer"><g class="subplot xy"><g class="layer-subplot"><g class="shapelayer"/><g class="imagelayer"/></g><g class="gridlayer"><g class="x"><path class="xgrid crisp" transform="translate(93.16480023330418,0)" d="M0,63.83858267716535v356.5936679790026" style="stroke: rgb(0, 0, 0); stroke-opacity: 0.1; stroke-width: 0.5px;"/><path class="xgrid crisp" transform="translate(167.66480023330416,0)" d="M0,63.83858267716535v356.5936679790026" style="stroke: rgb(0, 0, 0); stroke-opacity: 0.1; stroke-width: 0.5px;"/><path class="xgrid crisp" transform="translate(242.16480023330416,0)" d="M0,63.83858267716535v356.5936679790026" style="stroke: rgb(0, 0, 0); stroke-opacity: 0.1; stroke-width: 0.5px;"/><path class="xgrid crisp" transform="translate(316.66480023330416,0)" d="M0,63.83858267716535v356.5936679790026" style="stroke: rgb(0, 0, 0); stroke-opacity: 0.1; stroke-width: 0.5px;"/></g><g class="y"><path class="ygrid crisp" transform="translate(0,382.01858267716534)" d="M86.46480023330417,0h236.90002916302126" style="stroke: rgb(0, 0, 0); stroke-opacity: 0.1; stroke-width: 0.5px;"/><path class="ygrid crisp" transform="translate(0,302.2285826771653)" d="M86.46480023330417,0h236.90002916302126" style="stroke: rgb(0, 0, 0); stroke-opacity: 0.1; stroke-width: 0.5px;"/><path class="ygrid crisp" transform="translate(0,222.44858267716535)" d="M86.46480023330417,0h236.90002916302126" style="stroke: rgb(0, 0, 0); stroke-opacity: 0.1; stroke-width: 0.5px;"/><path class="ygrid crisp" transform="translate(0,142.65858267716533)" d="M86.46480023330417,0h236.90002916302126" style="stroke: rgb(0, 0, 0); stroke-opacity: 0.1; stroke-width: 0.5px;"/></g></g><g class="zerolinelayer"/><path class="xlines-below"/><path class="ylines-below"/><g class="overlines-below"/><g class="xaxislayer-below"/><g class="yaxislayer-below"/><g class="overaxes-below"/><g class="plot" transform="translate(86.46480023330417,63.83858267716535)" clip-path="url('#clipa6d7dfxyplot')"><g class="scatterlayer mlayer"><g class="trace scatter trace62317d" style="stroke-miterlimit: 2; opacity: 1;"><g class="fills"/><g class="errorbars"/><g class="lines"><path class="js-line" d="M6.7,158.6L6.76,161.77L6.78,156.37L6.79,155.93L7.49,213.93L7.53,106.73L7.54,183.1L7.55,187.03L7.92,346.5L8.17,10.09L8.29,131.11L8.3,129.81L8.67,247.78L9,84.98L9.05,144.75L9.06,137.15L9.56,246.95L9.73,60.58L9.81,98.37L9.82,98.91L10.11,39.28L10.22,282.57L10.57,139.14L10.58,149.88L10.96,248.81L11.29,73.29L11.33,92.05L11.34,84.9L11.35,56.33L11.88,237.9L12.09,132.7L12.1,129.49L12.38,37.99L12.57,315.17L12.85,166.11L12.86,175.27L13.22,270.66L13.58,83.52L13.61,100.15L13.62,99.69L13.72,65.84L14.11,262.16L14.37,152.61L14.38,157.26L14.64,55.86L14.86,262.71L15.13,137.95L15.14,136L15.73,218.62L15.84,49.36L15.89,120.02L15.9,114.9L16,60.33L16.38,263.89L16.65,180.93L16.66,182.36L16.72,67.61L17.14,244.07L17.41,159.37L17.42,162.34L17.57,237.9L18.11,78.28L18.17,174.08L18.18,173.95L18.24,39.55L18.59,227.97L18.93,140.02L18.94,136.48L19.47,244.42L19.65,78.73L19.69,149.41L19.7,141.87L19.71,98.45L20.28,293.06L20.45,122.33L20.46,125.15L20.51,69.19L21.02,210.54L21.21,87.3L21.22,93.34L21.76,254.75L21.97,127.42L21.98,123.39L22,88.22L22.38,265.27L22.73,144.74L22.74,143.24L22.76,84.78L23.22,229.2L23.49,138.41L23.5,141.08L24.02,261.12L24.24,71.83L24.25,106.17L24.26,110.24L24.53,90.28L24.63,263.72L25.01,106.06L25.02,106.65L25.15,92.54L25.48,223.14L25.77,133.07L25.78,130.93L26.27,260.45L26.5,71.63L26.53,134.65L26.54,138.22L26.79,90.12L27.17,243.82L27.29,177.11L27.3,176.78L27.36,102.17L27.95,239.94L28.05,112.5L28.06,112.8L28.41,69.69L28.57,243.98L28.81,146.89L28.82,151.73L28.9,79.62L29.39,209.95L29.57,182.23L29.58,178.16L29.85,229.96L30.31,88.71L30.33,157.95L30.34,162.7L30.7,85.25L30.93,244.85L31.09,153.96L31.1,151.7L31.13,92.22L31.75,225.99L31.85,127.25L31.86,120.16L32.01,72.72L32.45,229.58L32.61,120.96L32.62,120.78L32.99,89.33L33.18,257.46L33.37,132.28L33.38,131.05L33.41,62.1L33.73,227.76L34.13,160.74L34.14,162.62L34.3,102.07L34.81,209.82L34.89,125.07L34.9,125.77L35.32,61.99L35.56,255.84L35.65,90.53L35.66,84.91L35.66,72.91L36.33,219.78L36.41,163.07L36.42,163.75L36.73,96.13L37.05,220.34L37.17,154.06L37.18,159.28L37.58,57.36L37.83,263.22L37.93,136.73L37.94,137.85L38.19,96.04L38.53,226.24L38.69,165.58L38.7,163.2L38.98,86.57L39.36,225.06L39.45,178.36L39.46,176.91L39.85,78.61L40.07,241.22L40.21,162.13L40.22,162.74L40.4,81.13L40.85,228.57L40.97,190.83L40.98,195.56L40.99,245.42L41.24,112.34L41.73,192.53L41.74,193.62L42.1,84.89L42.34,259.5L42.49,135.39L42.5,132.94L42.67,99.45L43.25,226.32L43.25,224.37L43.26,222.94L43.76,100.75L44.01,197.02L44.02,196.7L44.25,235.39L44.49,45.59L44.77,123.78L44.78,125.27L44.92,112.55L45.52,219.34L45.53,210.36L45.54,207.87L46.04,82.74L46.22,251.38L46.29,159.14L46.3,157.95L46.47,88.76L46.93,236.67L47.05,176.58L47.06,176.88L47.38,114.07L47.77,232.28L47.81,180.06L47.82,179.76L47.91,220.9L48.09,85.49L48.57,127.97L48.58,129.26L49.11,97.12L49.17,218.34L49.33,180.9L49.34,178.99L49.78,95.22L50.03,210.94L50.09,208.87L50.1,209.55L50.36,101.97L50.72,221.83L50.85,195.34L50.86,197.35L51.33,91.48L51.51,237.48L51.61,171.29L51.62,172.17L51.65,217.4L52.03,108.59L52.37,179.94L52.38,180.79L52.41,230.63L52.88,101.23L53.13,218.26L53.14,217.23L53.41,223.04L53.66,65.93L53.89,219.79L53.9,218.44L54.28,99.25L54.65,196.8L54.66,196.44L54.81,220.38L55.14,102.22L55.41,176.12L55.42,174.24L55.91,75.77L56.14,214.93L56.17,177.05L56.18,177.43L56.3,207.37L56.55,95.39L56.93,190.39L56.94,190.88L57.02,217.54L57.4,104.12L57.69,206.98L57.7,209.2L58.17,82.16L58.41,226.08L58.45,158.85L58.46,157.57L59.09,102.73L59.13,214.05L59.21,162.03L59.22,160.73L59.65,121.67L59.97,202.6L59.97,202.08L59.98,201.36L60.32,237.83L60.45,85.72L60.73,160.32L60.74,162.08L60.82,229.02L61.28,112.79L61.49,166.6L61.5,169.94L62.05,112.9L62.23,202.29L62.25,155.26L62.26,154.76L62.59,258.38L62.83,69.55L63.01,181.49L63.02,181.99L63.05,211.02L63.38,116.06L63.77,198.86L63.78,200.49L64.45,106.05L64.49,209.04L64.53,163.49L64.54,165.86L64.9,230.6L65.08,80.31L65.29,186.8L65.3,189.47L65.32,215.85L65.65,110.91L66.05,167.74L66.06,164.99L66.18,210.01L66.64,101.32L66.81,177.47L66.82,175.25L67.23,219.72L67.36,97.37L67.57,184.17L67.58,184.87L67.67,207.85L68.05,114.12L68.33,132.87L68.34,133.28L68.49,208.59L68.96,98.16L69.09,165.94L69.1,165.98L69.5,238.01L69.74,95.32L69.85,181.56L69.86,181.47L69.92,214.41L70.44,112.81L70.61,155.44L70.62,153.46L70.76,199.21L71.24,101.04L71.37,135.84L71.38,137.84L71.75,250.68L71.94,109.57L72.13,132.11L72.14,133.18L72.18,211.92L72.63,115.84L72.89,148.02L72.9,145.88L73.38,202.35L73.49,97.35L73.65,160.03L73.66,160.87L74.01,215.46L74.33,99.91L74.41,165.41L74.42,166.31L74.57,199.63L75.17,117.25L75.17,118.52L75.18,119.93L75.28,207.07L75.74,116.23L75.93,131.72L75.94,133.16L76.39,231.15L76.61,96.41L76.69,171.35L76.7,169.44L76.91,195.81L77.44,120.03L77.45,146.12L77.46,149.54L77.75,201.38L78.13,101.83L78.21,144.86L78.22,145.03L78.66,233.02L78.84,96.22L78.97,143.35L78.98,141.97L79.17,194.71L79.54,130.74L79.73,145.96L79.74,145.66L80,202.72L80.41,98.71L80.49,140.78L80.5,140.7L80.92,215.38L81.16,102.17L81.25,147.5L81.26,150.21L81.4,184.61L82.01,126.79L82.02,126.73L82.27,227.14L82.72,113.28L82.77,131.03L82.78,128.56L83.19,202.83L83.43,97.51L83.53,143.68L83.54,143.52L83.97,183.77L84.21,125.4L84.29,132.14L84.3,132.06L84.66,203.15L85.03,107.31L85.05,121.71L85.06,123.6L85.33,110.49L85.57,212.11L85.81,134.67L85.82,134.75L86.07,196.94L86.53,115.75L86.57,151.39L86.58,150.04L87.06,199.11L87.24,117.08L87.33,129.76L87.34,130.35L87.84,220.88L88.01,114.37L88.09,122.94L88.1,124.57L88.26,195.11L88.79,113.6L88.85,155.78L88.86,156.96L89.29,197.74L89.57,120.03L89.61,125.79L89.62,123.88L89.63,110.24L90.16,218.46L90.37,153.82L90.38,151.96L90.4,117.82L90.65,184.35L91.13,150.53L91.14,152.1L91.58,193.85L91.89,105.4L91.9,105.7L92.45,211.71L92.65,145.64L92.66,145L93.07,200.14L93.31,110.03L93.41,155.66L93.42,155.72L93.9,189.16L94.17,125.26L94.18,124L94.2,106.62L94.74,209.8L94.93,132.61L94.94,132.66L95,125.75L95.17,198.28L95.69,142.28L95.7,141.23L96.35,193.61L96.45,129.75L96.46,127.41L96.48,100.34L97.01,207.16L97.21,136.33L97.22,138.56L97.32,111.01L97.57,198.66L97.97,157.69L97.98,158.29L98.63,206.24L98.73,115.78L98.74,115.29L99.09,108.63L99.26,212.42L99.49,146.01L99.5,145.06L99.59,121.18L99.83,182.1L100.25,163.12L100.26,161.18L100.89,206.65L101,114.47L101.01,126.99L101.02,128.7L101.41,111.3L101.58,201.22L101.77,163.08L101.78,163.48L101.84,124.5L102.31,188.17L102.53,162.96L102.54,160.72L103.15,204.6L103.29,127.03L103.3,125.88L103.3,122.42L103.87,205.26L104.05,165.97L104.06,165.19L104.1,118.32L104.42,195.42L104.81,151.51L104.82,152.61L104.87,139.11L105.45,209.79L105.57,141.99L105.58,140.7L106.01,112.57L106.25,208.03L106.33,167.43L106.34,165.21L106.37,119.24L106.83,182.83L107.09,148.72L107.1,148.63L107.39,133.64L107.74,202.9L107.85,147.42L107.86,147.66L108.27,97.23L108.52,217.14L108.61,169.92L108.62,169.66L108.68,130.31L109.12,188.81L109.37,143.21L109.38,142.01L109.68,129.4L110.05,205.16L110.13,174.05L110.14,172.78L110.56,101.79L110.82,201.24L110.89,158.81L110.9,157.45L111.09,134.65L111.41,186.53L111.65,149.26L111.66,149.47L111.93,129.43L112.32,209.91L112.41,182.44L112.42,182.18L112.89,121.61L113.1,200.75L113.17,160.81L113.18,159.69L113.41,139.28L113.66,185.39L113.93,168.38L113.94,168.6L114.45,132.68L114.61,203.91L114.69,187.08L114.7,186.07L115.18,117.97L115.35,208.45L115.45,158.95L115.46,157.34L115.67,133.3L116.04,179.51L116.21,167.6L116.22,167.26L116.55,134.64L116.92,219.81L116.97,171.08L116.98,169.62L117.37,123.69L117.65,192.52L117.73,178.57L117.74,178.39L117.91,136.11L118.31,189.37L118.49,167.73L118.5,168.01L118.98,125.35L119.16,205.49L119.25,173.36L119.26,171.89L119.77,120.57L119.93,196.34L120.01,176.8L120.02,177.38L120.35,134.18L120.71,182.45L120.77,164.65L120.78,165.8L121.08,135.27L121.43,195.39L121.53,189.96L121.54,189.36L122.06,117.95L122.21,190.99L122.29,188.14L122.3,188.61L122.3,189.35L122.44,131.42L123.05,162.08L123.06,160.36L123.59,133.03L123.81,192.67L123.82,192.88L123.82,193.67L124.35,98.7L124.57,187.17L124.58,189.49L124.59,205.2L124.96,135L125.33,174.26L125.34,173.22L125.88,129.35L126.02,192.64L126.09,192.21L126.1,192.35L126.13,197.82L126.62,113.21L126.85,184.63L126.86,184.37L126.89,187.96L127.26,136.36L127.61,166.4L127.62,165.09L128.16,116.72L128.37,202.59L128.38,204.57L128.39,215.1L128.9,121.48L129.13,180.44L129.14,180.09L129.58,141.25L129.82,199.43L129.89,159.58L129.9,159.02L130.43,124.11L130.65,195.01L130.66,195.69L130.69,203.85L131.16,118.65L131.41,181.33L131.42,181.72L131.97,133.85L132.09,187.9L132.17,159.58L132.18,160.18L132.72,131.59L132.93,188.31L132.94,188.86L132.98,203.01L133.52,121.29L133.69,181.38L133.7,182.03L133.76,190.4L134.24,131.93L134.45,169.95L134.46,170.33L135.05,130.76L135.21,190.86L135.22,191.28L135.25,200.94L135.78,121.16L135.97,169.72L135.98,171.43L136,195.72L136.52,131.17L136.73,163.53L136.74,163.86L137.33,128.8L137.49,201.61L137.5,202.9L137.5,206L138.15,117.76L138.25,171.51L138.26,172.01L138.38,185.62L138.81,135.27L139.01,171.06L139.02,170.24L139.19,179.54L139.66,118.69L139.77,174.18L139.78,175.08L139.9,192.63L140.41,116.54L140.53,150.93L140.54,152.06L140.62,182.91L141.05,133.61L141.29,181.19L141.3,181.08L141.94,113.89L142.05,164.22L142.06,165.59L142.18,195L142.69,122.08L142.81,145.56L142.82,146.11L142.87,189.14L143.33,134.91L143.57,171.94L143.58,171.89L144.09,177.55L144.23,120.74L144.33,155.25L144.34,156.68L144.42,190.94L145.03,115.95L145.09,157.02L145.1,157.59L145.67,140.11L145.8,180.51L145.85,161.47L145.86,161.58L146.18,174.83L146.5,123.58L146.61,150.01L146.62,150.61L146.75,191.64L147.32,116.09L147.37,152.94L147.38,153.58L147.57,180.68L147.95,133.15L148.13,165.21L148.14,166.58L148.16,183.86L148.82,121.39L148.89,153.36L148.9,153.91L149.05,196.63L149.56,122.79L149.65,145.31L149.66,146.16L149.98,181.31L150.22,128.9L150.41,170.07L150.42,169.38L150.55,176.12L151.12,124.03L151.17,148.32L151.18,147.91L151.29,196.14L151.85,109.64L151.93,136.15L151.94,136.33L152.36,182.03L152.69,159.41L152.7,159.41L152.85,172.59L153.42,123.72L153.45,132.65L153.46,133.02L153.99,188.96L154.12,120.36L154.21,135.21L154.22,134.97L154.62,180.84L154.8,127.7L154.97,160.83L154.98,160.42L155.49,180.23L155.73,117.19L155.73,117.87L155.74,118.48L156.26,196.5L156.49,124.39L156.5,124.15L156.85,176.56L157.25,164.4L157.26,165.05L157.46,177.25L158.01,123.58L158.02,123.26L158.02,122.55L158.55,198.41L158.77,128.98L158.78,129.2L159.25,182.63L159.53,157.72L159.54,158.54L160.06,175.49L160.29,117.5L160.3,117.39L160.46,188L161.05,146.9L161.06,147.43L161.1,125.83L161.53,182.73L161.81,160.02L161.82,159.66L161.96,177.66L162.57,126.53L162.58,126.04L162.6,123.58L163.15,192.25L163.33,141.81L163.34,141.78L163.39,128.84L163.78,195.07L164.09,150.89L164.1,150.08L164.66,179.44L164.85,130.87L164.86,130.4L164.9,117.01L165.42,191.14L165.61,134.83L165.62,134.53L165.64,130.16L166.05,185.21L166.37,146.44L166.38,146.18L166.96,177.31L167.13,127.34L167.14,126.38L167.18,113.36L167.67,192.6L167.89,133.67L167.9,132.61L167.91,126.01L168.41,180.88L168.65,153.03L168.66,153.13L169.33,179.58L169.41,120.26L169.41,120.46L169.42,120.63L169.95,188.94L170.17,142.32L170.18,141.49L170.28,128.53L170.63,183.93L170.93,151.58L170.94,151.86L171.58,191.09L171.69,126.54L171.7,126.46L171.81,125.63L172.33,196.67L172.45,155.28L172.46,155.2L172.57,129L172.95,183.45L173.21,154.69L173.22,155.54L173.61,142.69L173.84,195.64L173.97,146.7L173.98,145.5L174.08,125.26L174.59,193.45L174.73,165.17L174.74,163.85L174.83,137.62L175.23,181.43L175.49,149.31L175.5,149.58L176,141.88L176.14,189.93L176.25,148.1L176.26,147.29L176.38,131.78L176.84,187.23L177.01,159.85L177.02,159.68L177.1,137.8L177.56,182.75L177.77,154.3L177.78,153.35L177.81,136.63L178.04,185.68L178.53,154.21L178.54,153.29L178.68,128.19L179.21,186.12L179.29,165.35L179.3,165.2L179.37,140.32L179.84,190.98L180.05,142.68L180.06,141.78L180.07,136.05L180.72,185.07L180.81,159.23L180.82,158.74L180.97,121.24L181.51,186.51L181.57,168.34L181.58,167.61L181.89,131.31L182.12,188.96L182.33,144.87L182.34,145.2L182.47,140.73L183,188.42L183.09,162.93L183.1,163.34L183.24,126.71L183.75,190.63L183.85,174.49L183.86,173.2L184.27,133.25L184.49,182.75L184.61,156.12L184.62,156.71L185.15,139.05L185.37,181.1L185.38,181.33L185.49,131.22L186.04,188.63L186.13,183.72L186.14,183.26L186.54,134.15L186.74,185.11L186.89,161.33L186.9,161.43L187.4,138.29L187.64,188.55L187.65,180.94L187.66,179.77L187.88,128.59L188.41,189.17L188.41,188.69L188.42,188.44L188.79,136.11L189.17,160.87L189.18,161.2L189.68,139.54L189.92,191.66L189.93,186.77L189.94,185.93L190.16,127.69L190.67,194.26L190.69,182.91L190.7,181.66L191.05,133.27L191.45,160.49L191.46,159.9L191.97,142.78L192.21,185.45L192.22,185.51L192.41,131.27L192.92,192.32L192.97,172.96L192.98,173.39L193,181.46L193.43,134.38L193.73,163.17L193.74,162.44L193.86,142.28L194.48,184.24L194.49,181.7L194.5,181.11L194.66,133.02L195.25,175.37L195.26,176.01L195.29,190.2L195.68,129.36L196.01,172.4L196.02,172.36L196.08,142.64L196.73,176.04L196.77,174.05L196.78,174.48L197.04,131.46L197.53,191.15L197.54,191.7L197.54,192.93L197.96,125.36L198.29,175.95L198.3,175.8L198.54,142.03L199.05,177.84L199.06,178.76L199.09,194.51L199.31,135.81L199.81,192.73L199.82,193.06L199.82,193.89L200.24,136.38L200.57,170.1L200.58,169.37L201.24,142.04L201.33,183.18L201.34,183.55L201.57,133.98L202.09,194.61L202.1,195.02L202.1,195.4L202.58,137.34L202.85,165.7L202.86,165.16L203.49,140.2L203.61,175.18L203.62,175.19L203.66,172.81L203.7,185.98L203.7,186.59L203.71,189.99L204.25,127.69L204.45,183.55L204.46,183.49L204.84,135.44L205.21,160L205.22,159.77L205.75,135.31L205.97,187.59L205.98,188.04L205.99,189.46L206.52,134.51L206.73,177.11L206.74,176.75L207.22,135.72L207.49,165.92L207.5,166L208.03,142.34L208.2,183.84L208.25,180.36L208.26,180.76L208.27,183.08L208.45,134.53L209.01,179.44L209.02,179.18L209.52,137.24L209.77,165.53L209.78,165.57L209.95,140.59L210.5,183.44L210.53,172.04L210.54,171.48L211.11,137.3L211.27,182.85L211.29,176.91L211.3,176.38L211.76,126.03L211.99,181L212.05,156.39L212.06,156.8L212.41,170.13L212.66,133.16L212.81,168.34L212.82,168.87L212.88,189.89L213.42,138.65L213.57,176.36L213.58,176.51L213.61,181.59L214.03,125.85L214.33,159.13L214.34,159.52L214.38,174.11L214.91,133.46L215.09,173.21L215.1,173.67L215.15,188.23L215.65,135.94L215.85,171.42L215.86,172.23L215.89,183.16L216.32,136.83L216.61,170.67L216.62,170.89L217.07,179.02L217.18,142.33L217.37,175.71L217.38,175.89L217.43,182.57L217.94,132.33L218.13,173.51L218.14,173.96L218.17,182.89L218.65,130.58L218.89,171.61L218.9,171.47L219.34,179.24L219.57,139.44L219.65,167.62L219.66,168.44L219.69,180.45L220.32,132.73L220.41,173.45L220.42,173.49L220.49,159.35L220.55,171.49L220.56,171.79L220.68,177.52L220.92,131.91L221.31,162.26L221.32,161.81L221.83,129.58L222.07,184.74L222.07,184.53L222.08,184.27L222.56,131.01L222.83,164.56L222.84,164.24L223.06,175.96L223.19,135.34L223.59,155.56L223.6,155.13L224.12,137.57L224.35,182.11L224.35,181.63L224.36,181.37L224.83,123.73L225.11,163.19L225.12,163.27L225.33,180.43L225.56,136.37L225.87,162.88L225.88,162.98L226.41,139.89L226.59,178.26L226.63,168.66L226.64,168.73L226.67,179.91L227.1,129.84L227.39,159.76L227.4,159.88L227.59,180.73L227.82,129.84L228.15,164.88L228.16,165.51L228.73,139L228.91,173.21L228.92,173.65L228.96,181.65L229.38,138.44L229.67,169.21L229.68,169.66L229.87,185L230.1,136.91L230.2,146.34" style="vector-effect: non-scaling-stroke; fill: none; stroke: rgb(0, 154, 250); stroke-opacity: 1; stroke-width: 1px; opacity: 1;"/></g><g class="points"/><g class="text"/></g></g></g><g class="overplot"/><path class="xlines-above crisp" d="M85.46480023330417,420.9322506561679H323.36482939632543" style="fill: none; stroke-width: 1px; stroke: rgb(0, 0, 0); stroke-opacity: 1;"/><path class="ylines-above crisp" d="M85.96480023330417,63.83858267716535V420.4322506561679" style="fill: none; stroke-width: 1px; stroke: rgb(0, 0, 0); stroke-opacity: 1;"/><g class="overlines-above"/><g class="xaxislayer-above"><path class="xtick ticks crisp" d="M0,420.4322506561679v-5" transform="translate(93.16480023330418,0)" style="stroke: rgb(0, 0, 0); stroke-opacity: 1; stroke-width: 1px;"/><path class="xtick ticks crisp" d="M0,420.4322506561679v-5" transform="translate(167.66480023330416,0)" style="stroke: rgb(0, 0, 0); stroke-opacity: 1; stroke-width: 1px;"/><path class="xtick ticks crisp" d="M0,420.4322506561679v-5" transform="translate(242.16480023330416,0)" style="stroke: rgb(0, 0, 0); stroke-opacity: 1; stroke-width: 1px;"/><path class="xtick ticks crisp" d="M0,420.4322506561679v-5" transform="translate(316.66480023330416,0)" style="stroke: rgb(0, 0, 0); stroke-opacity: 1; stroke-width: 1px;"/><g class="xtick"><text text-anchor="middle" x="0" y="434.6322506561679" transform="translate(93.16480023330418,0)" style="font-family: sans-serif; font-size: 11px; fill: rgb(0, 0, 0); fill-opacity: 1; white-space: pre;">0</text></g><g class="xtick"><text text-anchor="middle" x="0" y="434.6322506561679" transform="translate(167.66480023330416,0)" style="font-family: sans-serif; font-size: 11px; fill: rgb(0, 0, 0); fill-opacity: 1; white-space: pre;">1</text></g><g class="xtick"><text text-anchor="middle" x="0" y="434.6322506561679" transform="translate(242.16480023330416,0)" style="font-family: sans-serif; font-size: 11px; fill: rgb(0, 0, 0); fill-opacity: 1; white-space: pre;">2</text></g><g class="xtick"><text text-anchor="middle" x="0" y="434.6322506561679" transform="translate(316.66480023330416,0)" style="font-family: sans-serif; font-size: 11px; fill: rgb(0, 0, 0); fill-opacity: 1; white-space: pre;">3</text></g></g><g class="yaxislayer-above"><path class="ytick ticks crisp" d="M86.46480023330417,0h5" transform="translate(0,382.01858267716534)" style="stroke: rgb(0, 0, 0); stroke-opacity: 1; stroke-width: 1px;"/><path class="ytick ticks crisp" d="M86.46480023330417,0h5" transform="translate(0,302.2285826771653)" style="stroke: rgb(0, 0, 0); stroke-opacity: 1; stroke-width: 1px;"/><path class="ytick ticks crisp" d="M86.46480023330417,0h5" transform="translate(0,222.44858267716535)" style="stroke: rgb(0, 0, 0); stroke-opacity: 1; stroke-width: 1px;"/><path class="ytick ticks crisp" d="M86.46480023330417,0h5" transform="translate(0,142.65858267716533)" style="stroke: rgb(0, 0, 0); stroke-opacity: 1; stroke-width: 1px;"/><g class="ytick"><text text-anchor="end" x="83.26480023330417" y="3.8499999999999996" transform="translate(0,382.01858267716534)" style="font-family: sans-serif; font-size: 11px; fill: rgb(0, 0, 0); fill-opacity: 1; white-space: pre;">-0.2</text></g><g class="ytick"><text text-anchor="end" x="83.26480023330417" y="3.8499999999999996" transform="translate(0,302.2285826771653)" style="font-family: sans-serif; font-size: 11px; fill: rgb(0, 0, 0); fill-opacity: 1; white-space: pre;">-0.1</text></g><g class="ytick"><text text-anchor="end" x="83.26480023330417" y="3.8499999999999996" transform="translate(0,222.44858267716535)" style="font-family: sans-serif; font-size: 11px; fill: rgb(0, 0, 0); fill-opacity: 1; white-space: pre;">0.0</text></g><g class="ytick"><text text-anchor="end" x="83.26480023330417" y="3.8499999999999996" transform="translate(0,142.65858267716533)" style="font-family: sans-serif; font-size: 11px; fill: rgb(0, 0, 0); fill-opacity: 1; white-space: pre;">0.1</text></g></g><g class="overaxes-above"/></g><g class="subplot x2y2"><g class="layer-subplot"><g class="shapelayer"/><g class="imagelayer"/></g><g class="gridlayer"><g class="x2"><path class="x2grid crisp" transform="translate(370.1548002333042,0)" d="M0,63.83858267716535v356.5936679790026" style="stroke: rgb(0, 0, 0); stroke-opacity: 0.1; stroke-width: 0.5px;"/><path class="x2grid crisp" transform="translate(414.85480023330416,0)" d="M0,63.83858267716535v356.5936679790026" style="stroke: rgb(0, 0, 0); stroke-opacity: 0.1; stroke-width: 0.5px;"/><path class="x2grid crisp" transform="translate(459.55480023330415,0)" d="M0,63.83858267716535v356.5936679790026" style="stroke: rgb(0, 0, 0); stroke-opacity: 0.1; stroke-width: 0.5px;"/><path class="x2grid crisp" transform="translate(504.2548002333042,0)" d="M0,63.83858267716535v356.5936679790026" style="stroke: rgb(0, 0, 0); stroke-opacity: 0.1; stroke-width: 0.5px;"/><path class="x2grid crisp" transform="translate(548.9548002333042,0)" d="M0,63.83858267716535v356.5936679790026" style="stroke: rgb(0, 0, 0); stroke-opacity: 0.1; stroke-width: 0.5px;"/><path class="x2grid crisp" transform="translate(593.6648002333042,0)" d="M0,63.83858267716535v356.5936679790026" style="stroke: rgb(0, 0, 0); stroke-opacity: 0.1; stroke-width: 0.5px;"/></g><g class="y2"><path class="y2grid crisp" transform="translate(0,410.33858267716533)" d="M363.4648002333042,0h236.90002916302123" style="stroke: rgb(0, 0, 0); stroke-opacity: 0.1; stroke-width: 0.5px;"/><path class="y2grid crisp" transform="translate(0,338.18858267716536)" d="M363.4648002333042,0h236.90002916302123" style="stroke: rgb(0, 0, 0); stroke-opacity: 0.1; stroke-width: 0.5px;"/><path class="y2grid crisp" transform="translate(0,266.02858267716533)" d="M363.4648002333042,0h236.90002916302123" style="stroke: rgb(0, 0, 0); stroke-opacity: 0.1; stroke-width: 0.5px;"/><path class="y2grid crisp" transform="translate(0,193.87858267716535)" d="M363.4648002333042,0h236.90002916302123" style="stroke: rgb(0, 0, 0); stroke-opacity: 0.1; stroke-width: 0.5px;"/><path class="y2grid crisp" transform="translate(0,121.71858267716536)" d="M363.4648002333042,0h236.90002916302123" style="stroke: rgb(0, 0, 0); stroke-opacity: 0.1; stroke-width: 0.5px;"/></g></g><g class="zerolinelayer"/><path class="xlines-below"/><path class="ylines-below"/><g class="overlines-below"/><g class="xaxislayer-below"/><g class="yaxislayer-below"/><g class="overaxes-below"/><g class="plot" transform="translate(363.4648002333042,63.83858267716535)" clip-path="url('#clipa6d7dfx2y2plot')"><g class="scatterlayer mlayer"><g class="trace scatter tracef09ec3" style="stroke-miterlimit: 2; opacity: 1;"><g class="fills"/><g class="errorbars"/><g class="lines"><path class="js-line" d="M6.7,346.48L7.43,346L7.57,346.43L7.58,346.47L7.81,345.73L8.14,346.37L8.15,342.56L8.27,346.42L8.91,346.21L8.92,346.24L9.21,346.43L9.45,345.61L9.46,345.36L9.57,335.84L9.58,322.45L9.6,228.18L9.85,344.21L10.31,342.36L10.33,342.49L10.52,344.42L10.94,339.97L10.95,339.14L11.03,304.82L11.04,10.09L11.71,344.43L11.8,342.1L11.82,342.09L11.92,341.96L12.17,345.76L12.29,341.99L12.31,341.64L12.49,329.12L12.5,224.96L12.87,345.07L13.26,343.43L13.28,343.33L13.83,338.71L13.84,337.23L13.93,293.98L13.95,162.48L14.48,344.01L14.74,342.57L14.75,342.57L14.91,343.54L15.18,340.86L15.2,340.63L15.39,317.16L15.41,284.2L15.42,39.94L15.9,345.72L16.15,345.59L16.17,345.74L16.26,345.93L16.63,345L16.67,344.99L16.69,344.8L16.85,314.53L16.87,260.82L16.88,158.83L17.61,344.85L17.63,345L17.73,345.84L18.21,343.4L18.22,343.24L18.31,338.1L18.33,334.84L18.36,283.47L18.62,346.32L19.07,345.54L19.09,345.44L19.53,346.42L19.73,345.11L19.76,345.11L19.77,344.69L19.83,320.33L20.07,344.78L20.08,344.78L20.64,345.91L20.86,345.22L20.87,345.14L21.1,345.29L21.25,342.02L21.26,340.96L21.32,307.29L21.46,344.47L21.75,344.19L21.77,344.08L22.26,345.81L22.65,344.88L22.66,341.45L22.81,246.04L22.87,335.33L22.89,337.93L23.47,345.75L23.68,345.51L23.69,345.54L24.02,344.5L24.03,344.33L24.27,338.4L24.29,335.88L24.3,280.89L24.54,346.41L25.03,345.25L25.05,345.32L25.25,346.01L25.54,344.69L25.55,344.57L25.58,345.34L25.78,335.33L25.79,330.93L25.82,248.19L26.34,345.9L26.36,345.9L27.04,340.01L27.06,345.31L27.36,310.06L27.8,343.05L27.82,343.12L27.97,344.3L28.4,341.38L28.41,340.88L28.5,333.19L28.52,319L28.89,189.01L29.32,344.91L29.34,345.12L29.68,345.98L29.99,343.58L30.01,343.64L30.02,343.76L30.32,336.7L30.34,335.45L30.45,236.69L30.69,343.66L30.71,343.77L31.18,345.67L31.54,345.25L31.56,345.2L31.75,345.7L31.84,344.63L31.85,344.48L31.99,337.84L32,295.43L32.33,346.5L32.78,346.07L32.79,346.09L33,346.4L33.4,345.14L33.42,344.98L33.55,337.98L33.57,323.7L33.58,316.43L33.87,346.32L34.28,346.12L34.3,345.99L34.76,346.31L34.92,345.6L34.94,345.49L35.13,343.31L35.15,343.42L35.16,311.37L35.67,346.32L35.94,346.15L35.95,345.98L36.07,346.15L36.29,345.21L36.38,345.28L36.4,345.12L36.71,341.23L36.73,339.92L36.79,307.09L37.29,345.41L37.4,345.22L37.41,344.64L37.43,343.9L37.47,346.4L38.16,344.52L38.17,344.42L38.35,337.62L38.37,334.9L38.4,279.04L38.92,344.61L38.99,344.41L39.01,344.27L39.62,346.49L39.84,345.06L39.86,344.81L40.03,324.79L40.05,223.85L40.71,346.16L40.82,345.86L40.84,345.81L41.55,343.64L41.57,343.28L41.69,340.54L41.7,343.7L41.72,271.99L42.21,344.89L42.48,344.07L42.49,344.08L42.94,343.7L42.98,344.32L43.15,343.81L43.16,343.74L43.34,334.28L43.36,329.68L43.39,273.09L44.03,345.3L44.07,345.24L44.09,345.34L44.39,345.99L44.79,345.24L44.8,345.01L44.92,343.76L44.94,340.36L45.09,326.09L45.73,345.62L45.74,345.73L45.95,346.07L46.37,345.28L46.38,345.2L46.5,345.24L46.78,339.11L46.8,333.43L46.81,326.83L47.28,346.46L47.53,346.33L47.54,346.29L47.96,345.25L47.98,345.41L47.99,341.38L48.54,339.2L48.69,345.8L48.71,345.83L49.17,346.33L49.44,345.68L49.45,345.53L49.53,339.72L49.85,345.89L49.87,345.77L49.88,345.86L50,346.13L50.27,344.91L50.29,343.46L50.32,331.65L50.94,345.92L51.03,344.19L51.05,345.03L51.08,319.27L51.76,334.26L51.78,332.69L51.95,317.24L51.97,312.7L52.03,282.07L52.46,344.29L52.65,342.15L52.67,342.3L52.82,343.9L53.41,342.45L53.43,342.4L53.61,343.2L53.86,336.04L53.88,337.66L53.89,262.81L53.91,193.04L54.61,344.32L54.62,344.49L54.73,345.28L55.01,344.11L55.31,344.22L55.32,344.08L55.37,344.12L55.63,339.44L55.65,338.37L55.74,252.73L55.83,338.2L55.84,339.61L56.22,346.48L56.71,346.26L56.72,346.17L57.48,344.17L57.5,343.69L57.57,310.92L57.69,344.58L57.71,344.85L57.91,346.39L58.52,346.11L58.54,346.06L58.9,345.25L58.91,345.44L58.93,346.29L59.43,336.22L59.45,322.36L60.15,346.18L60.22,346.11L60.24,346.14L60.48,345.57L61.03,345.8L61.04,345.78L61.31,341.89L61.33,329.77L62.13,346.41L62.15,346.26L63.23,344.75L63.25,343.68L63.26,339.18L63.43,346.47L63.99,346.25L64.01,346.19L64.14,346.14L64.53,346.5L64.78,346.24L64.8,346.18L65.18,345.38L65.2,344.25L65.36,346.48L65.97,346.04L65.99,346.06L66.84,344.52L66.85,343.75L67.17,340.14L67.43,346.1L67.58,345.88L67.6,345.95L68.36,345.88L68.37,345.72L68.39,345.6L68.52,328.72L68.75,346.38L68.78,346.31L68.79,346.29L69.13,343.42L69.15,338.67L69.52,346.34L69.95,346.06L69.97,345.98L70.1,344.68L70.12,344.81L70.13,342.02L70.47,346.4L70.92,345.78L70.94,345.72L71.14,342.3L71.16,340.56L71.19,320.2L71.58,345.82L71.9,344.21L71.92,344.55L72.38,346.48L72.69,345.35L72.71,345.43L72.72,345.59L73.17,342.49L73.19,340.59L73.2,333.79L73.93,345.31L73.95,345.43L74.14,346.34L74.32,345.16L74.69,345.83L74.71,345.61L74.88,345.63L75.06,341.11L75.08,337.33L75.09,309.48L75.36,346.4L75.82,345.17L75.84,345.22L76.63,346.37L76.72,346.31L76.73,346.13L77.45,332.38L77.58,342.73L77.6,343L77.92,345.42L78.37,344.42L78.39,343.97L78.45,328.42L78.98,346.11L79,346.16L79.44,345.54L79.46,345.47L79.53,341.18L79.73,346.41L79.98,346L79.99,346.04L80.11,345.11L80.19,346.44L80.53,346.32L80.55,346.36L81.66,345.77L81.68,345.63L81.71,344.62L82.02,346.43L82.41,346.22L82.42,346.2L83.56,345.3L83.57,344.89L83.87,342.6L84.39,346.32L84.4,346.26L85.21,345.78L85.22,345.46L85.24,344.95L85.43,346.41L85.95,345.62L85.97,345.58L86.09,339.31L86.15,344.4L86.16,344.77L86.71,346.5L86.97,346.02L86.98,345.9L87.01,344.64L87.25,346.29L87.71,346.23L87.73,346.22L88.04,346.39L88.28,344.75L88.29,344.08L88.32,340.83L88.68,346.4L89.02,346.27L89.04,346.31L89.1,345.78L89.26,346.41L89.78,346.29L89.8,346.26L90.39,344.79L90.41,344.58L90.6,342.68L91.04,346.32L91.2,346.26L91.21,346.24L92.2,346.39L92.23,346.17L92.24,346.05L92.36,346.11L92.84,342.47L92.85,340.01L92.87,337.36L93.49,346.24L93.55,346.06L93.57,346.16L93.91,345.77L93.93,345.36L94.03,344.02L94.22,346.23L94.31,346.1L94.33,346.18L95.03,346.19L95.07,345.99L95.09,345.94L95.21,340.34L95.33,345.26L95.34,345.53L96.15,346.48L96.19,346.33L96.21,346.35L97.35,345.59L97.37,345.52L97.52,337.1L97.61,343.05L97.62,343.78L98.44,346.36L98.46,346.39L99.93,345.75L99.94,345.33L99.96,344.33L100.45,346.37L100.66,346.32L100.68,346.34L101.12,345.45L101.14,344.86L101.18,340.4L101.82,346.44L101.85,346.41L101.87,346.37L102.42,346.38L102.49,345.76L102.51,345.64L102.97,345.52L103.28,346.42L103.3,346.39L104.58,346.22L104.59,346.16L104.85,343.05L105.13,345.47L105.14,345.54L106.14,346.34L106.16,346.34L106.58,345.9L106.59,345.35L107.01,346.23L107.31,341.45L107.35,344.6L107.36,345.01L108.04,346.44L108.18,346.35L108.2,346.3L108.47,345.73L108.48,345.07L108.56,343.78L109.3,346.16L109.32,346.16L109.75,345.54L109.76,345.21L109.79,344.17L110.17,346.45L110.48,345.79L110.49,346.05L111.22,346.46L111.27,346.39L111.28,346.38L112.15,346.05L112.18,345.96L112.19,345.9L112.33,342.91L112.4,345.24L112.42,345.44L113.28,346.31L113.31,346.28L113.32,346.28L114.22,345.91L114.23,345.48L114.35,346.48L114.86,344.64L114.87,343.8L114.89,342.54L115.57,346.4L115.59,346.41L117.41,345.68L117.42,345.51L117.51,341.95L117.75,346.45L117.82,346.27L117.84,346.26L118.06,345.32L118.35,346.29L118.36,346.35L119.15,346.32L119.17,346.31L119.94,345.85L119.95,345.64L120.07,341.61L120.37,346.05L120.4,345.8L120.42,345.88L121.22,346.18L121.37,345.88L121.39,345.77L121.89,337.15L121.91,331.53L122.68,346.27L122.7,346.29L122.8,345.8L123.07,346.45L123.41,346.27L123.43,346.29L125.35,346.41L125.36,346.4L125.8,345.25L125.81,344.53L126.47,346.41L126.64,346.33L126.66,346.34L129.73,346.41L129.74,346.38L129.77,346.23L129.91,346.49L130.47,346.47L130.49,346.46L133.95,346.36L133.96,346.38L135.09,346.43L135.11,346.42L136.52,345.8L136.54,345.63L136.58,345.07L137.24,346.41L137.25,346.41L137.27,346.42L137.88,345.96L137.89,345.56L137.91,345.32L138.55,346.35L138.56,346.35L138.58,346.36L139.37,345.77L139.38,345.54L139.4,345.3L139.64,346.38L140.05,346.15L140.07,346.3L140.86,346.46L140.87,346.45L140.89,346.45L141.98,346.07L141.99,345.81L142.01,345.65L142.3,345.09L143.18,346.35L143.2,346.33L143.93,345.53L144.23,346.21L144.24,346.27L145.02,346.28L145.03,346.27L145.05,346.25L145.31,344.93L145.55,346.24L145.57,346.31L145.7,345.8L146.36,346.44L146.37,346.42L146.39,346.41L148.34,346.05L148.35,345.84L148.98,346.5L149.2,346.45L149.22,346.45L152.55,346.23L152.57,346.14L152.6,345.94L153.14,346.5L153.28,346.47L153.3,346.48L154.79,345.92L154.8,345.78L155.68,346.49L155.7,346.48L155.71,346.48L159.16,346.22L159.17,346.17L160.09,346.39L160.11,346.38L160.87,346.48L160.88,346.49L160.9,346.48L162.36,346.45L162.37,346.46L163.3,346L163.31,345.83L163.33,345.72L163.58,344.54L164.01,346.48L164.22,346.41L164.24,346.4L166.34,345.82L166.35,345.79L167.38,346.46L167.39,346.45L167.41,346.43L167.99,344.74L168.01,344.44L168.05,342.66L168.21,346.49L168.71,346.37L168.72,346.38L171.33,346.47L171.34,346.46L177.09,346.48L177.11,346.47L193.6,345.81L193.62,345.67L193.68,344.6L194.24,346.45L194.3,346.45L194.32,346.45L198.22,346.47L198.24,346.46L201.26,346.49L201.28,346.49L230.2,346.5" style="vector-effect: non-scaling-stroke; fill: none; stroke: rgb(255, 165, 0); stroke-opacity: 1; stroke-width: 1px; opacity: 1;"/></g><g class="points"/><g class="text"/></g></g></g><g class="overplot"/><path class="xlines-above crisp" d="M362.4648002333042,420.9322506561679H600.3648293963254" style="fill: none; stroke-width: 1px; stroke: rgb(0, 0, 0); stroke-opacity: 1;"/><path class="ylines-above crisp" d="M362.9648002333042,63.83858267716535V420.4322506561679" style="fill: none; stroke-width: 1px; stroke: rgb(0, 0, 0); stroke-opacity: 1;"/><g class="overlines-above"/><g class="xaxislayer-above"><path class="x2tick ticks crisp" d="M0,420.4322506561679v-5" transform="translate(370.1548002333042,0)" style="stroke: rgb(0, 0, 0); stroke-opacity: 1; stroke-width: 1px;"/><path class="x2tick ticks crisp" d="M0,420.4322506561679v-5" transform="translate(414.85480023330416,0)" style="stroke: rgb(0, 0, 0); stroke-opacity: 1; stroke-width: 1px;"/><path class="x2tick ticks crisp" d="M0,420.4322506561679v-5" transform="translate(459.55480023330415,0)" style="stroke: rgb(0, 0, 0); stroke-opacity: 1; stroke-width: 1px;"/><path class="x2tick ticks crisp" d="M0,420.4322506561679v-5" transform="translate(504.2548002333042,0)" style="stroke: rgb(0, 0, 0); stroke-opacity: 1; stroke-width: 1px;"/><path class="x2tick ticks crisp" d="M0,420.4322506561679v-5" transform="translate(548.9548002333042,0)" style="stroke: rgb(0, 0, 0); stroke-opacity: 1; stroke-width: 1px;"/><path class="x2tick ticks crisp" d="M0,420.4322506561679v-5" transform="translate(593.6648002333042,0)" style="stroke: rgb(0, 0, 0); stroke-opacity: 1; stroke-width: 1px;"/><g class="x2tick"><text text-anchor="middle" x="0" y="434.6322506561679" transform="translate(370.1548002333042,0)" style="font-family: sans-serif; font-size: 11px; fill: rgb(0, 0, 0); fill-opacity: 1; white-space: pre;">0</text></g><g class="x2tick"><text text-anchor="middle" x="0" y="434.6322506561679" transform="translate(414.85480023330416,0)" style="font-family: sans-serif; font-size: 11px; fill: rgb(0, 0, 0); fill-opacity: 1; white-space: pre;">1000</text></g><g class="x2tick"><text text-anchor="middle" x="0" y="434.6322506561679" transform="translate(459.55480023330415,0)" style="font-family: sans-serif; font-size: 11px; fill: rgb(0, 0, 0); fill-opacity: 1; white-space: pre;">2000</text></g><g class="x2tick"><text text-anchor="middle" x="0" y="434.6322506561679" transform="translate(504.2548002333042,0)" style="font-family: sans-serif; font-size: 11px; fill: rgb(0, 0, 0); fill-opacity: 1; white-space: pre;">3000</text></g><g class="x2tick"><text text-anchor="middle" x="0" y="434.6322506561679" transform="translate(548.9548002333042,0)" style="font-family: sans-serif; font-size: 11px; fill: rgb(0, 0, 0); fill-opacity: 1; white-space: pre;">4000</text></g><g class="x2tick"><text text-anchor="middle" x="0" y="434.6322506561679" transform="translate(593.6648002333042,0)" style="font-family: sans-serif; font-size: 11px; fill: rgb(0, 0, 0); fill-opacity: 1; white-space: pre;">5000</text></g></g><g class="yaxislayer-above"><path class="y2tick ticks crisp" d="M363.4648002333042,0h5" transform="translate(0,410.33858267716533)" style="stroke: rgb(0, 0, 0); stroke-opacity: 1; stroke-width: 1px;"/><path class="y2tick ticks crisp" d="M363.4648002333042,0h5" transform="translate(0,338.18858267716536)" style="stroke: rgb(0, 0, 0); stroke-opacity: 1; stroke-width: 1px;"/><path class="y2tick ticks crisp" d="M363.4648002333042,0h5" transform="translate(0,266.02858267716533)" style="stroke: rgb(0, 0, 0); stroke-opacity: 1; stroke-width: 1px;"/><path class="y2tick ticks crisp" d="M363.4648002333042,0h5" transform="translate(0,193.87858267716535)" style="stroke: rgb(0, 0, 0); stroke-opacity: 1; stroke-width: 1px;"/><path class="y2tick ticks crisp" d="M363.4648002333042,0h5" transform="translate(0,121.71858267716536)" style="stroke: rgb(0, 0, 0); stroke-opacity: 1; stroke-width: 1px;"/><g class="y2tick"><text text-anchor="end" x="360.2648002333042" y="3.8499999999999996" transform="translate(0,410.33858267716533)" style="font-family: sans-serif; font-size: 11px; fill: rgb(0, 0, 0); fill-opacity: 1; white-space: pre;">0</text></g><g class="y2tick"><text text-anchor="end" x="360.2648002333042" y="3.8499999999999996" transform="translate(0,338.18858267716536)" style="font-family: sans-serif; font-size: 11px; fill: rgb(0, 0, 0); fill-opacity: 1; white-space: pre;">250</text></g><g class="y2tick"><text text-anchor="end" x="360.2648002333042" y="3.8499999999999996" transform="translate(0,266.02858267716533)" style="font-family: sans-serif; font-size: 11px; fill: rgb(0, 0, 0); fill-opacity: 1; white-space: pre;">500</text></g><g class="y2tick"><text text-anchor="end" x="360.2648002333042" y="3.8499999999999996" transform="translate(0,193.87858267716535)" style="font-family: sans-serif; font-size: 11px; fill: rgb(0, 0, 0); fill-opacity: 1; white-space: pre;">750</text></g><g class="y2tick"><text text-anchor="end" x="360.2648002333042" y="3.8499999999999996" transform="translate(0,121.71858267716536)" style="font-family: sans-serif; font-size: 11px; fill: rgb(0, 0, 0); fill-opacity: 1; white-space: pre;">1000</text></g></g><g class="overaxes-above"/></g></g><g class="polarlayer"/><g class="ternarylayer"/><g class="geolayer"/><g class="funnelarealayer"/><g class="pielayer"/><g class="treemaplayer"/><g class="sunburstlayer"/><g class="glimages"/><defs id="topdefs-a6d7df"><g class="clips"/><clipPath id="legenda6d7df"><rect width="73" height="58" x="0" y="0"/></clipPath></defs><g class="layer-above"><g class="imagelayer"/><g class="shapelayer"/></g><g class="infolayer"><g class="legend" pointer-events="all" transform="translate(615.08,60)"><rect class="bg" shape-rendering="crispEdges" width="73" height="58" x="0" y="0" style="stroke: rgb(68, 68, 68); stroke-opacity: 1; fill: rgb(255, 255, 255); fill-opacity: 1; stroke-width: 0px;"/><g class="scrollbox" transform="" clip-path="url('#legenda6d7df')"><g class="groups" transform=""><g class="traces" transform="translate(0,14.5)" style="opacity: 1;"><text class="legendtext" text-anchor="start" x="40" y="4.680000000000001" style="font-family: 'Open Sans', verdana, arial, sans-serif; font-size: 12px; fill: rgb(42, 63, 95); fill-opacity: 1; white-space: pre;">Time</text><g class="layers" style="opacity: 1;"><g class="legendfill"/><g class="legendlines"><path class="js-line" d="M5,0h30" style="fill: none; stroke: rgb(0, 154, 250); stroke-opacity: 1; stroke-width: 1px;"/></g><g class="legendsymbols"><g class="legendpoints"/></g></g><rect class="legendtoggle" x="0" y="-9.5" width="67.84375" height="19" style="fill: rgb(0, 0, 0); fill-opacity: 0;"/></g></g><g class="groups" transform="translate(0,10)"><g class="traces" transform="translate(0,33.5)" style="opacity: 1;"><text class="legendtext" text-anchor="start" x="40" y="4.680000000000001" style="font-family: 'Open Sans', verdana, arial, sans-serif; font-size: 12px; fill: rgb(42, 63, 95); fill-opacity: 1; white-space: pre;">Freq</text><g class="layers" style="opacity: 1;"><g class="legendfill"/><g class="legendlines"><path class="js-line" d="M5,0h30" style="fill: none; stroke: rgb(255, 165, 0); stroke-opacity: 1; stroke-width: 1px;"/></g><g class="legendsymbols"><g class="legendpoints"/></g></g><rect class="legendtoggle" x="0" y="-9.5" width="67.84375" height="19" style="fill: rgb(0, 0, 0); fill-opacity: 0;"/></g></g></g><rect class="scrollbar" rx="20" ry="3" width="0" height="0" x="0" y="0" style="fill: rgb(128, 139, 164); fill-opacity: 1;"/></g><g class="g-gtitle"/><g class="g-xtitle"><text class="xtitle" x="204.9148148148148" y="462.140625" text-anchor="middle" style="font-family: sans-serif; font-size: 15px; fill: rgb(0, 0, 0); opacity: 1; font-weight: normal; white-space: pre;">t[s]</text></g><g class="g-x2title"><text class="x2title" x="481.9148148148148" y="462.140625" text-anchor="middle" style="font-family: sans-serif; font-size: 15px; fill: rgb(0, 0, 0); opacity: 1; font-weight: normal; white-space: pre;">f[hz]</text></g><g class="g-ytitle"/><g class="g-y2title"/></g></svg>