<svg class="main-svg" xmlns="http://www.w3.org/2000/svg" xmlns:xlink="http://www.w3.org/1999/xlink" width="700" height="500" style="" viewBox="0 0 700 500"><rect x="0" y="0" width="700" height="500" style="fill: rgb(255, 255, 255); fill-opacity: 1;"/><defs id="defs-ddfbd5"><g class="clips"><clipPath id="clipddfbd5xyplot" class="plotclip"><rect width="236.90002916302126" height="356.5936679790026"/></clipPath><clipPath id="clipddfbd5x2y2plot" class="plotclip"><rect width="236.90002916302123" height="356.5936679790026"/></clipPath><clipPath class="axesclip" id="clipddfbd5x"><rect x="86.46480023330417" y="0" width="236.90002916302126" height="500"/></clipPath><clipPath class="axesclip" id="clipddfbd5y"><rect x="0" y="63.83858267716535" width="700" height="356.5936679790026"/></clipPath><clipPath class="axesclip" id="clipddfbd5xy"><rect x="86.46480023330417" y="63.83858267716535" width="236.90002916302126" height="356.5936679790026"/></clipPath><clipPath class="axesclip" id="clipddfbd5y2"><rect x="0" y="63.83858267716535" width="700" height="356.5936679790026"/></clipPath><clipPath class="axesclip" id="clipddfbd5xy2"><rect x="86.46480023330417" y="63.83858267716535" width="236.90002916302126" height="356.5936679790026"/></clipPath><clipPath class="axesclip" id="clipddfbd5x2"><rect x="363.4648002333042" y="0" width="236.90002916302123" height="500"/></clipPath><clipPath class="axesclip" id="clipddfbd5x2y"><rect x="363.4648002333042" y="63.83858267716535" width="236.90002916302123" height="356.5936679790026"/></clipPath><clipPath class="axesclip" id="clipddfbd5x2y2"><rect x="363.4648002333042" y="63.83858267716535" width="236.90002916302123" height="356.5936679790026"/></clipPath></g><g class="gradients"/></defs><g class="bglayer"/><g class="layer-below"><g class="imagelayer"/><g class="shapelayer"/></g><g class="cartesianlayer"><g class="subplot xy"><g class="layer-subplot"><g class="shapelayer"/><g class="imagelayer"/></g><g class="gridlayer"><g class="x"><path class="xgrid crisp" transform="translate(93.16480023330418,0)" d="M0,63.83858267716535v356.5936679790026" style="stroke: rgb(0, 0, 0); stroke-opacity: 0.1; stroke-width: 0.5px;"/><path class="xgrid crisp" transform="translate(167.66480023330416,0)" d="M0,63.83858267716535v356.5936679790026" style="stroke: rgb(0, 0, 0); stroke-opacity: 0.1; stroke-width: 0.5px;"/><path class="xgrid crisp" transform="translate(242.16480023330416,0)" d="M0,63.83858267716535v356.5936679790026" style="stroke: rgb(0, 0, 0); stroke-opacity: 0.1; stroke-width: 0.5px;"/><path class="xgrid crisp" transform="translate(316.66480023330416,0)" d="M0,63.83858267716535v356.5936679790026" style="stroke: rgb(0, 0, 0); stroke-opacity: 0.1; stroke-width: 0.5px;"/></g><g class="y"><path class="ygrid crisp" transform="translate(0,406.1585826771653)" d="M86.46480023330417,0h236.90002916302126" style="stroke: rgb(0, 0, 0); stroke-opacity: 0.1; stroke-width: 0.5px;"/><path class="ygrid crisp" transform="translate(0,324.71858267716533)" d="M86.46480023330417,0h236.90002916302126" style="stroke: rgb(0, 0, 0); stroke-opacity: 0.1; stroke-width: 0.5px;"/><path class="ygrid crisp" transform="translate(0,243.27858267716533)" d="M86.46480023330417,0h236.90002916302126" style="stroke: rgb(0, 0, 0); stroke-opacity: 0.1; stroke-width: 0.5px;"/><path class="ygrid crisp" transform="translate(0,161.82858267716534)" d="M86.46480023330417,0h236.90002916302126" style="stroke: rgb(0, 0, 0); stroke-opacity: 0.1; stroke-width: 0.5px;"/><path class="ygrid crisp" transform="translate(0,80.38858267716535)" d="M86.46480023330417,0h236.90002916302126" style="stroke: rgb(0, 0, 0); stroke-opacity: 0.1; stroke-width: 0.5px;"/></g></g><g class="zerolinelayer"/><path class="xlines-below"/><path class="ylines-below"/><g class="overlines-below"/><g class="xaxislayer-below"/><g class="yaxislayer-below"/><g class="overaxes-below"/><g class="plot" transform="translate(86.46480023330417,63.83858267716535)" clip-path="url('#clipddfbd5xyplot')"><g class="scatterlayer mlayer"><g class="trace scatter trace005525" style="stroke-miterlimit: 2; opacity: 1;"><g class="fills"/><g class="errorbars"/><g class="lines"><path class="js-line" d="M6.7,179.44L6.75,180.8L6.78,176.15L6.78,175.88L7.43,162.26L7.53,196.16L7.53,191.23L7.54,188.17L7.78,341.04L8.01,10.09L8.29,161.92L8.3,158.2L8.45,284.15L8.93,113.03L9.05,150.89L9.06,149.04L9.64,74.25L9.7,314.49L9.81,245.73L9.82,245.64L9.9,48.03L10.36,277.43L10.57,196.99L10.58,198.69L11.15,90.43L11.3,296.26L11.33,217.78L11.34,220.85L11.52,56.13L11.73,315.19L12.09,133.25L12.1,132.76L12.35,275.77L12.77,76.8L12.85,135.04L12.86,135.58L13.42,69.25L13.61,312.42L13.62,313.42L13.62,314.7L13.95,70.44L14.37,233.76L14.38,234.3L14.43,281.52L14.81,57.14L15.13,280.74L15.14,280.17L15.33,27.59L15.55,335.49L15.89,87.79L15.9,90.04L15.96,71.3L16.17,304.43L16.65,132.5L16.66,128.55L16.71,75.61L17.16,346.5L17.41,230.05L17.42,234.2L17.49,316.2L17.88,76.08L18.17,223.4L18.18,218.23L18.24,299.8L18.62,61.26L18.93,232.25L18.94,234.47L19.07,328.83L19.57,100L19.69,124.62L19.7,125.56L19.81,65.52L20.02,283.88L20.45,183.62L20.46,186.13L20.52,57.32L20.98,345.41L21.21,162.99L21.22,166.22L21.33,296.79L21.66,74.07L21.97,278.4L21.98,279.59L21.98,280.1L22.45,68.41L22.73,185.59L22.74,187.02L22.92,314L23.45,89.51L23.49,146.91L23.5,145.89L23.63,69.87L24.01,285.07L24.25,185.87L24.26,187.82L24.33,88.09L24.85,292.46L25.01,163.57L25.02,161.68L25.18,334.63L25.59,71.12L25.77,239.39L25.78,243.8L25.79,281.22L26.34,61.99L26.53,149.67L26.54,153.2L27.12,305.73L27.28,80.16L27.29,118.15L27.3,124.2L27.46,91.55L27.82,284.21L28.05,206.5L28.06,207.41L28.26,87.71L28.74,290.6L28.81,227.19L28.82,227.55L29,278.55L29.38,88.3L29.57,226.5L29.58,228.58L29.71,285.23L30.15,64.18L30.33,132.24L30.34,134.49L30.47,70.64L30.61,298.42L31.09,138.33L31.1,137.32L31.41,69.93L31.63,288.6L31.85,212.66L31.86,216.97L32.09,58.27L32.56,274.44L32.61,221.09L32.62,222.92L32.9,291.69L33.32,74.01L33.37,152.06L33.38,157.56L33.51,274.5L34.02,101.9L34.13,103.55L34.14,104.99L34.31,99.28L34.86,274.09L34.89,207.5L34.9,206.26L35.23,41.06L35.43,278.06L35.65,207L35.66,208.51L35.68,262.37L35.91,80.72L36.41,242.04L36.42,244.4L36.46,279.59L37.01,78.82L37.17,130.05L37.18,132.62L37.46,266.49L37.85,115.2L37.93,136.57L37.94,133.77L38.53,91.18L38.68,279.86L38.69,259.59L38.7,256.8L39.03,82.51L39.33,268.18L39.45,198.96L39.46,197.36L39.5,272.54L39.9,110.85L40.21,179.18L40.22,177.31L40.62,284.39L40.81,73.29L40.97,124.3L40.98,123.58L41.06,96.59L41.28,256.59L41.73,155.34L41.74,156.12L42.23,274.94L42.43,104.5L42.49,225.36L42.5,229.74L42.53,277.36L42.95,87.38L43.25,198.32L43.26,198.74L43.32,265.97L43.71,104.89L44.01,161.59L44.02,160.62L44.18,289.16L44.34,79.51L44.77,162.89L44.78,160.55L44.87,106.53L45.2,246.46L45.53,182.04L45.54,178.2L46.09,295.79L46.25,68.75L46.29,171.3L46.3,173.14L46.45,301.28L46.66,120.93L47.05,203.02L47.06,202.19L47.14,258.98L47.77,115.03L47.81,143.77L47.82,144.15L48.07,305.61L48.17,84.14L48.57,166.19L48.58,167.85L48.8,118.34L49.07,260.43L49.33,190L49.34,190.44L49.8,67.21L50,322.3L50.09,146.07L50.1,144.51L50.27,268.03L50.72,107.67L50.85,211.97L50.86,211.57L51,246.07L51.57,115.77L51.61,182.6L51.62,183.81L51.72,111.21L51.89,318.47L52.37,155.01L52.38,155.71L52.66,110.46L52.89,258.68L53.13,200.36L53.14,200.32L53.35,82.52L53.82,312L53.89,199.6L53.9,199.1L54.17,242.32L54.54,103.25L54.65,205.43L54.66,203.45L54.82,266.84L55.24,118.32L55.41,176.71L55.42,180.1L55.7,277.82L55.89,111.17L56.17,168.56L56.18,168.42L56.48,93.43L56.7,252.48L56.93,196.24L56.94,199.96L57.52,95.97L57.63,268.13L57.69,267.99L57.7,270.38L57.7,277.68L58.43,105.83L58.45,197.53L58.46,201.94L58.63,273.21L59.19,117.46L59.21,163.59L59.22,167.16L59.44,92.35L59.64,280.88L59.97,212.48L59.98,211.19L60.3,88.35L60.54,236.59L60.73,179.13L60.74,179.65L61.37,110.41L61.49,236.19L61.5,239.65L61.53,281.63L62.07,104.67L62.25,124.5L62.26,126.75L62.55,238.19L62.99,117.41L63.01,154.28L63.02,156.69L63.47,289.46L63.67,103.12L63.77,212.05L63.78,213.73L63.8,240.84L64.12,92.55L64.53,197.08L64.54,197.33L64.57,241.92L65.21,115.78L65.29,145.24L65.3,149.1L65.4,268.22L65.89,102.98L66.05,109.41L66.06,110.08L66.35,255.99L66.81,146.19L66.82,147.35L67.36,262.28L67.5,99.67L67.57,196.06L67.58,195.55L67.71,254.36L67.93,113.01L68.33,194.14L68.34,197.36L68.38,237.53L69.09,97.17L69.1,95.97L69.1,94.75L69.25,261.44L69.85,137.22L69.86,135.89L70.08,123.15L70.26,233.68L70.61,156.3L70.62,155.94L70.99,110.04L71.21,263.84L71.37,144.64L71.38,145.01L71.54,254.58L71.98,96.82L72.13,185.04L72.14,184.91L72.18,238.53L72.66,139.9L72.89,160.46L72.9,158.11L72.93,93.26L73.14,287.62L73.65,171.12L73.66,169.71L73.75,113.86L74.07,219.55L74.41,197.44L74.42,195.23L74.87,92.69L75.06,299.71L75.17,141.57L75.18,142.79L75.28,108.21L75.36,240.08L75.93,168.99L75.94,168.79L75.99,225.05L76.56,148.64L76.69,207.42L76.7,205.76L76.79,105.61L76.99,298.9L77.45,186.48L77.46,187.62L77.56,103.57L78.04,233.95L78.21,199.83L78.22,199.99L78.69,117.82L78.89,299.64L78.97,202.85L78.98,201.74L79.09,100.52L79.23,231.22L79.73,177.18L79.74,178.25L79.77,150.69L79.92,233.54L80.49,210.83L80.5,211.51L80.71,105.84L80.81,283.72L81.25,182.67L81.26,185.22L81.38,124.17L81.85,223.71L82.01,188.91L82.02,188.54L82.63,71.46L82.72,249.53L82.77,236.87L82.78,237.67L82.84,245.99L82.99,118.78L83.53,157.18L83.54,158.49L83.78,223L84.26,107.97L84.29,185.04L84.3,188.05L84.53,81.27L84.73,267.32L85.05,181.62L85.06,184.79L85.08,219.1L85.2,136.35L85.81,185.08L85.82,185.97L86.25,227.16L86.46,85.13L86.57,208.07L86.58,210.79L86.62,243.79L86.81,81.51L87.33,157.02L87.34,157.86L87.6,230.9L88.08,118.12L88.09,123.31L88.1,125.39L88.35,111.44L88.63,269.23L88.85,181L88.86,181.73L89.41,145.97L89.55,223.22L89.61,195.25L89.62,197.07L90.17,225.87L90.36,102.7L90.37,136.19L90.38,140.95L90.55,266.26L90.64,122.14L91.13,180.22L91.14,181.89L91.84,235.39L91.89,126.59L91.89,128.08L91.9,129.05L92.25,103.53L92.45,266.56L92.65,158.1L92.66,159.31L92.77,216.27L93.25,143.2L93.41,194.77L93.42,195.27L93.72,236.54L94.16,108.81L94.17,115.87L94.18,117.81L94.37,281.6L94.93,162.41L94.94,162.78L95.44,137.73L95.49,239.28L95.69,150.34L95.7,149.27L96.09,127.06L96.31,268L96.45,139.04L96.46,140.59L96.66,224.97L97.07,135.27L97.21,156.36L97.22,157.93L97.26,240.45L97.97,125.67L97.98,124.94L97.98,124.4L98.2,256.04L98.73,164.25L98.74,164.1L98.99,137.07L99.31,231.1L99.49,174.91L99.5,175.1L100.02,116.44L100.14,268.8L100.25,177.56L100.26,176.06L100.49,229.13L100.87,138.85L101.01,146.83L101.02,147.31L101.08,236.78L101.62,131.4L101.77,175.18L101.78,173.08L101.96,113.45L102.1,251.18L102.53,167.48L102.54,165.48L102.91,120.92L103.1,226.42L103.29,163.68L103.3,163.92L103.84,107.65L104.03,244.35L104.05,226.44L104.06,223.88L104.81,118.94L104.82,118.41L104.82,117.51L105.03,219.62L105.57,211.13L105.58,209.7L105.78,102.59L105.9,247.91L106.33,190.28L106.34,190.55L106.71,123.43L106.99,218.07L107.09,167.17L107.1,167.01L107.71,99.19L107.85,241.43L107.86,241.79L107.86,241.98L108.09,130.44L108.61,155.53L108.62,153.66L108.65,126.53L109.2,227.93L109.37,197.14L109.38,197.4L109.61,112.34L109.81,245.48L110.13,182.18L110.14,180.86L110.26,139.66L110.81,230.42L110.89,187.48L110.9,187.75L111.42,217.4L111.54,109.08L111.65,179.79L111.66,181.54L111.73,241.36L111.91,126.77L112.41,187.93L112.42,188.24L112.47,133.58L113.02,216.58L113.17,158.73L113.18,161.8L113.47,116.63L113.75,231.25L113.93,153.98L113.94,155.24L114.01,228.44L114.42,146.44L114.69,192.19L114.7,193.04L115.28,229.69L115.42,106.77L115.45,142.26L115.46,143.43L115.63,258.05L115.84,130.72L116.21,193.99L116.22,195.16L116.57,215.72L116.78,138.86L116.97,165.48L116.98,164.97L117.35,110.13L117.54,249.61L117.73,121.66L117.74,123.06L117.84,218.46L118.49,187.78L118.5,188.05L119.1,217.69L119.25,101.66L119.25,101.97L119.26,102.6L119.46,270.68L120.01,162.1L120.02,162.77L120.54,214.58L120.64,145.19L120.77,169.79L120.78,170.75L121.28,111.95L121.39,242.7L121.53,143.2L121.54,142.01L121.58,137.33L121.82,210.87L122.29,190.03L122.3,191.61L122.55,137.58L123,252.25L123.05,137.74L123.06,136.66L123.2,124.66L123.35,230.19L123.81,155.3L123.82,155.38L124.13,142.29L124.37,224.85L124.57,166.04L124.58,164.11L125.1,106.53L125.3,252.49L125.33,201.77L125.34,199.14L125.41,143.07L125.63,209.83L126.09,160L126.1,159.93L126.73,131.59L126.82,236.77L126.85,191.56L126.86,189.48L127.02,112.68L127.23,241.18L127.61,164.62L127.62,164.73L127.97,136.57L128.18,225.1L128.37,163.72L128.38,163.18L128.64,121.04L129.11,238.82L129.13,235.22L129.14,235.18L129.15,237.21L129.36,147.08L129.89,151.01L129.9,149.41L130.12,231.77L130.56,141.28L130.65,193.95L130.66,192.94L130.84,134.15L131.06,240.39L131.41,193.8L131.42,190.55L131.95,137.98L132.01,211.66L132.17,156.66L132.18,155.46L132.46,132.39L132.65,225.34L132.93,203.19L132.94,204.41L132.98,243.98L133.21,132.08L133.69,159.31L133.7,156.95L134.02,218.16L134.22,143.06L134.45,164.95L134.46,164.37L134.74,130.97L134.88,235.4L135.21,202.15L135.22,201.82L135.75,137.31L135.89,217.88L135.97,171.48L135.98,169.5L136.47,221.14L136.69,112.59L136.73,154.72L136.74,155.89L136.81,237.36L137.03,133.67L137.49,182.35L137.5,180.17L137.53,145.88L137.82,223.79L138.25,173.23L138.26,172.62L138.42,233.22L138.63,108.72L139.01,172.26L139.02,173.37L139.29,146.11L139.74,216.69L139.77,191.85L139.78,189.78L140.36,217.98L140.53,127.45L140.54,127L140.55,124.49L140.71,226.29L141.29,189.25L141.3,187.52L141.57,137.27L141.64,216.32L142.05,190.23L142.06,190.3L142.45,109.81L142.66,231.63L142.81,150.46L142.82,150.67L143.02,209.57L143.46,122.24L143.57,205.24L143.58,205.12L143.67,219.9L144.06,137.73L144.33,163.02L144.34,162.17L144.38,122.64L144.59,233.5L145.09,178.13L145.1,178.95L145.4,131.77L145.62,216.33L145.85,186.96L145.86,188.48L146.32,123.55L146.54,230.77L146.61,169.04L146.62,166.82L147.22,210.14L147.28,136.27L147.37,178.92L147.38,179.91L147.88,148.1L148.13,217.58L148.13,216.41L148.14,215.71L148.27,130.68L148.46,237.84L148.89,159.86L148.9,159.95L149.22,142.66L149.44,216.7L149.65,165.4L149.66,166.53L150.17,127.01L150.37,246.78L150.41,205.05L150.42,203.99L150.57,131.07L151.04,215.42L151.17,156.31L151.18,156.95L151.26,156.24L151.37,215.02L151.93,211.44L151.94,211.83L152.09,124.03L152.3,248.22L152.69,163.11L152.7,162.06L153.04,148.59L153.3,204.22L153.45,156.51L153.46,156.43L153.51,185.13L153.51,186.24L153.91,228.49L154.12,122.32L154.26,216.05L154.27,215.69L154.39,145.92L155.02,173.73L155.03,172.92L155.65,148.77L155.78,226.49L155.79,226.85L156.01,114.47L156.54,173.95L156.55,173.91L156.78,206.72L157.01,146.63L157.3,162.25L157.31,162.22L157.73,236.02L157.94,117.83L158.06,216.44L158.07,218.21L158.08,226.75L158.29,135.63L158.82,185.81L158.83,186.82L159.09,210.59L159.56,137.12L159.58,174.54L159.59,178.16L159.82,124.84L160.02,226.96L160.34,182.53L160.35,182.15L160.82,147.24L161.03,221.86L161.1,173.81L161.11,174.6L161.64,220.21L161.75,134.2L161.86,179.07L161.87,180.61L161.94,217.31L162.13,142.94L162.62,196.84L162.63,197.97L162.97,208.09L163.37,129.32L163.38,140.12L163.39,141.95L163.74,134.92L163.92,225.54L164.14,186.45L164.15,187.41L164.64,154.01L164.85,216.49L164.9,184.77L164.91,185.08L165.48,217.44L165.64,125.44L165.66,136.99L165.67,138.46L165.86,234.4L166.42,172.65L166.43,174.27L166.67,138.33L166.8,210.17L167.18,154.41L167.19,153.86L167.59,134.7L167.79,229.33L167.94,178.92L167.95,180.78L168.4,205.3L168.59,151.59L168.7,190.57L168.71,192.44L169.35,218.96L169.46,134.92L169.47,134.66L169.68,228.68L170.22,158.69L170.23,159.49L170.5,155.23L170.65,210.26L170.98,175.09L170.99,174.72L171.41,136.98L171.62,248.62L171.74,166.57L171.75,166.46L171.84,141.66L171.96,201.99L172.5,165.29L172.51,166.82L172.76,151.67L173.21,225.57L173.26,178.32L173.27,177.29L173.45,133.9L173.56,233.36L174.02,162.95L174.03,162.91L174.38,141.16L174.58,207.15L174.78,184.75L174.79,184.69L175.32,136.9L175.44,235.6L175.54,179.63L175.55,179.51L176.12,196.9L176.3,137.68L176.31,137.16L176.31,136.76L177.04,234.4L177.06,218.81L177.07,217.13L177.27,122.07L177.38,227.34L177.82,169.69L177.83,169.18L178.13,205.05L178.19,141.5L178.58,172.08L178.59,172.09L178.98,226.06L179.19,118.14L179.34,199.09L179.35,198.82L179.39,204.83L180.1,156.12L180.11,155.19L180.13,146.44L180.86,211.67L180.87,212.27L180.89,219.22L181.11,116.56L181.62,184.87L181.63,184.09L182.08,151.83L182.29,213.61L182.38,172.33L182.39,172.34L182.42,169.22L182.45,183.95L182.45,184.74L182.53,188.04L182.68,151.02L182.68,149.83L183.02,116.08L183.22,221.54L183.43,160.81L183.44,161.81L184.02,152.99L184.17,201.95L184.19,199.9L184.2,200.07L184.83,221.56L184.95,120.82L184.95,123.23L184.96,124.26L185.1,212.41L185.71,168.78L185.72,169.06L185.77,212.51L185.89,158.78L186.47,181.85L186.48,180.76L186.76,230.4L186.9,135.22L187.23,162.11L187.24,161.46L187.32,156.39L187.37,203.84L187.99,193.12L188,193.33L188.44,140.6L188.66,227.14L188.75,157.75L188.76,156.7L188.85,135.1L189.05,213.59L189.51,170.51L189.52,170.13L189.82,156.42L190.26,205.95L190.27,200.22L190.28,199.33L190.59,231.23L190.73,131.64L191.03,183.28L191.04,182.06L191.53,204L191.73,154.54L191.79,165.12L191.8,165.08L191.84,180.8L191.84,182.46L192.26,147.47L192.53,223.18L192.59,182.69L192.6,182.56L192.66,125.54L192.87,214.48L193.35,159.66L193.36,159.75L193.8,206.52L194.03,146.63L194.11,200.97L194.12,201.08L194.48,226.14L194.62,143.15L194.87,196.22L194.88,195.47L195.41,201.43L195.63,144.82L195.63,145.48L195.64,146.12L196.22,145.64L196.37,225.03L196.39,218.75L196.4,217.71L196.58,141.73L197.15,171.6L197.16,171.77L197.78,210.04L197.84,144.79L197.91,191.33L197.92,192.11L198.31,224.85L198.49,142.66L198.67,206.13L198.68,205.97L199.43,149.89L199.44,148.45L199.45,143.76L200.19,210.15L200.2,210.67L200.23,217.55L200.38,140.82L200.95,182.23L200.96,180.84L201.38,138.66L201.59,216.29L201.71,179.21L201.72,179.5L202.19,217.16L202.31,145.41L202.47,187.02L202.48,187.29L202.54,215.32L202.75,153.43L203.23,186.75L203.24,185.15L203.49,214.4L203.93,142.04L203.99,168.06L204,168.8L204.12,220.17L204.26,138.9L204.75,183.67L204.76,183.12L205.2,142.96L205.41,210.18L205.51,174.23L205.52,173.59L206.01,222.04L206.22,139.26L206.27,165.43L206.28,164.54L206.29,157.83L207.03,220.78L207.03,220.64L207.04,220.35L207.23,148.31L207.79,155.24L207.8,154.24L207.95,223.01L208.16,141.33L208.55,173.44L208.56,173.03L208.94,213.84L209.16,151.24L209.31,190.04L209.32,189.17L209.9,220.76L210.07,146.15L210.08,145.15L210.09,139.18L210.83,209.85L210.84,210.19L210.84,210.51L211.05,158.08L211.59,174.6L211.6,173.65L211.64,140.75L211.83,217.83L212.35,171.36L212.36,171.17L212.77,208.59L212.99,147.95L213.11,208.23L213.12,208.37L213.57,150.52L213.73,214.07L213.87,167.82L213.88,167.14L213.93,133.47L214.13,202.25L214.63,183.91L214.64,185.43L214.94,142.23L215.37,199.84L215.39,194.09L215.4,193.3L215.67,212.82L215.87,141.94L216.15,194.05L216.16,193.18L216.22,147.95L216.42,208.06L216.91,182.5L216.92,183.77L217.48,149.93L217.64,209.77L217.67,202.16L217.68,201.45L217.79,146.43L218.04,208.37L218.43,164.08L218.44,165.47L218.54,197.15L218.76,152.82L219.19,188.55L219.2,189.24L219.76,144.45L219.95,214.24L219.96,214.74L219.96,215.77L220.03,150.51L220.71,157.62L220.72,157.96L221.28,147.76L221.47,213.79L221.48,214.43L221.64,143.01L221.85,220.2L222.23,172.73L222.24,171.91L222.52,200.61L222.65,153.51L222.99,177.48L223,177.56L223.38,212.72L223.57,130.83L223.75,202.63L223.76,204.17L223.78,224.77L224.18,160.58L224.51,160.74L224.52,159.95L225,198.18L225.19,152.24L225.27,186.05L225.28,187.51L225.39,216.9L225.51,151.46L226.03,188.67L226.04,187.86L226.35,199.78L226.46,158.46L226.79,167.57L226.8,167.33L227.13,142.25L227.28,217.34L227.55,176.16L227.56,177.54L227.61,211.75L227.82,152.77L228.31,192.42L228.32,191.08L228.86,205.32L229,147.73L229.07,166.33L229.08,166.75L229.22,224.85L229.42,141.43L229.83,193.03L229.84,192.87L230.1,167.35L230.2,206.5" style="vector-effect: non-scaling-stroke; fill: none; stroke: rgb(0, 154, 250); stroke-opacity: 1; stroke-width: 1px; opacity: 1;"/></g><g class="points"/><g class="text"/></g></g></g><g class="overplot"/><path class="xlines-above crisp" d="M85.46480023330417,420.9322506561679H323.36482939632543" style="fill: none; stroke-width: 1px; stroke: rgb(0, 0, 0); stroke-opacity: 1;"/><path class="ylines-above crisp" d="M85.96480023330417,63.83858267716535V420.4322506561679" style="fill: none; stroke-width: 1px; stroke: rgb(0, 0, 0); stroke-opacity: 1;"/><g class="overlines-above"/><g class="xaxislayer-above"><path class="xtick ticks crisp" d="M0,420.4322506561679v-5" transform="translate(93.16480023330418,0)" style="stroke: rgb(0, 0, 0); stroke-opacity: 1; stroke-width: 1px;"/><path class="xtick ticks crisp" d="M0,420.4322506561679v-5" transform="translate(167.66480023330416,0)" style="stroke: rgb(0, 0, 0); stroke-opacity: 1; stroke-width: 1px;"/><path class="xtick ticks crisp" d="M0,420.4322506561679v-5" transform="translate(242.16480023330416,0)" style="stroke: rgb(0, 0, 0); stroke-opacity: 1; stroke-width: 1px;"/><path class="xtick ticks crisp" d="M0,420.4322506561679v-5" transform="translate(316.66480023330416,0)" style="stroke: rgb(0, 0, 0); stroke-opacity: 1; stroke-width: 1px;"/><g class="xtick"><text text-anchor="middle" x="0" y="434.6322506561679" transform="translate(93.16480023330418,0)" style="font-family: sans-serif; font-size: 11px; fill: rgb(0, 0, 0); fill-opacity: 1; white-space: pre;">0</text></g><g class="xtick"><text text-anchor="middle" x="0" y="434.6322506561679" transform="translate(167.66480023330416,0)" style="font-family: sans-serif; font-size: 11px; fill: rgb(0, 0, 0); fill-opacity: 1; white-space: pre;">1</text></g><g class="xtick"><text text-anchor="middle" x="0" y="434.6322506561679" transform="translate(242.16480023330416,0)" style="font-family: sans-serif; font-size: 11px; fill: rgb(0, 0, 0); fill-opacity: 1; white-space: pre;">2</text></g><g class="xtick"><text text-anchor="middle" x="0" y="434.6322506561679" transform="translate(316.66480023330416,0)" style="font-family: sans-serif; font-size: 11px; fill: rgb(0, 0, 0); fill-opacity: 1; white-space: pre;">3</text></g></g><g class="yaxislayer-above"><path class="ytick ticks crisp" d="M86.46480023330417,0h5" transform="translate(0,406.1585826771653)" style="stroke: rgb(0, 0, 0); stroke-opacity: 1; stroke-width: 1px;"/><path class="ytick ticks crisp" d="M86.46480023330417,0h5" transform="translate(0,324.71858267716533)" style="stroke: rgb(0, 0, 0); stroke-opacity: 1; stroke-width: 1px;"/><path class="ytick ticks crisp" d="M86.46480023330417,0h5" transform="translate(0,243.27858267716533)" style="stroke: rgb(0, 0, 0); stroke-opacity: 1; stroke-width: 1px;"/><path class="ytick ticks crisp" d="M86.46480023330417,0h5" transform="translate(0,161.82858267716534)" style="stroke: rgb(0, 0, 0); stroke-opacity: 1; stroke-width: 1px;"/><path class="ytick ticks crisp" d="M86.46480023330417,0h5" transform="translate(0,80.38858267716535)" style="stroke: rgb(0, 0, 0); stroke-opacity: 1; stroke-width: 1px;"/><g class="ytick"><text text-anchor="end" x="83.26480023330417" y="3.8499999999999996" transform="translate(0,406.1585826771653)" style="font-family: sans-serif; font-size: 11px; fill: rgb(0, 0, 0); fill-opacity: 1; white-space: pre;">-0.2</text></g><g class="ytick"><text text-anchor="end" x="83.26480023330417" y="3.8499999999999996" transform="translate(0,324.71858267716533)" style="font-family: sans-serif; font-size: 11px; fill: rgb(0, 0, 0); fill-opacity: 1; white-space: pre;">-0.1</text></g><g class="ytick"><text text-anchor="end" x="83.26480023330417" y="3.8499999999999996" transform="translate(0,243.27858267716533)" style="font-family: sans-serif; font-size: 11px; fill: rgb(0, 0, 0); fill-opacity: 1; white-space: pre;">0.0</text></g><g class="ytick"><text text-anchor="end" x="83.26480023330417" y="3.8499999999999996" transform="translate(0,161.82858267716534)" style="font-family: sans-serif; font-size: 11px; fill: rgb(0, 0, 0); fill-opacity: 1; white-space: pre;">0.1</text></g><g class="ytick"><text text-anchor="end" x="83.26480023330417" y="3.8499999999999996" transform="translate(0,80.38858267716535)" style="font-family: sans-serif; font-size: 11px; fill: rgb(0, 0, 0); fill-opacity: 1; white-space: pre;">0.2</text></g></g><g class="overaxes-above"/></g><g class="subplot x2y2"><g class="layer-subplot"><g class="shapelayer"/><g class="imagelayer"/></g><g class="gridlayer"><g class="x2"><path class="x2grid crisp" transform="translate(370.1548002333042,0)" d="M0,63.83858267716535v356.5936679790026" style="stroke: rgb(0, 0, 0); stroke-opacity: 0.1; stroke-width: 0.5px;"/><path class="x2grid crisp" transform="translate(414.85480023330416,0)" d="M0,63.83858267716535v356.5936679790026" style="stroke: rgb(0, 0, 0); stroke-opacity: 0.1; stroke-width: 0.5px;"/><path class="x2grid crisp" transform="translate(459.55480023330415,0)" d="M0,63.83858267716535v356.5936679790026" style="stroke: rgb(0, 0, 0); stroke-opacity: 0.1; stroke-width: 0.5px;"/><path class="x2grid crisp" transform="translate(504.2548002333042,0)" d="M0,63.83858267716535v356.5936679790026" style="stroke: rgb(0, 0, 0); stroke-opacity: 0.1; stroke-width: 0.5px;"/><path class="x2grid crisp" transform="translate(548.9548002333042,0)" d="M0,63.83858267716535v356.5936679790026" style="stroke: rgb(0, 0, 0); stroke-opacity: 0.1; stroke-width: 0.5px;"/><path class="x2grid crisp" transform="translate(593.6648002333042,0)" d="M0,63.83858267716535v356.5936679790026" style="stroke: rgb(0, 0, 0); stroke-opacity: 0.1; stroke-width: 0.5px;"/></g><g class="y2"><path class="y2grid crisp" transform="translate(0,410.33858267716533)" d="M363.4648002333042,0h236.90002916302123" style="stroke: rgb(0, 0, 0); stroke-opacity: 0.1; stroke-width: 0.5px;"/><path class="y2grid crisp" transform="translate(0,299.31858267716535)" d="M363.4648002333042,0h236.90002916302123" style="stroke: rgb(0, 0, 0); stroke-opacity: 0.1; stroke-width: 0.5px;"/><path class="y2grid crisp" transform="translate(0,188.30858267716536)" d="M363.4648002333042,0h236.90002916302123" style="stroke: rgb(0, 0, 0); stroke-opacity: 0.1; stroke-width: 0.5px;"/><path class="y2grid crisp" transform="translate(0,77.28858267716535)" d="M363.4648002333042,0h236.90002916302123" style="stroke: rgb(0, 0, 0); stroke-opacity: 0.1; stroke-width: 0.5px;"/></g></g><g class="zerolinelayer"/><path class="xlines-below"/><path class="ylines-below"/><g class="overlines-below"/><g class="xaxislayer-below"/><g class="yaxislayer-below"/><g class="overaxes-below"/><g class="plot" transform="translate(363.4648002333042,63.83858267716535)" clip-path="url('#clipddfbd5x2y2plot')"><g class="scatterlayer mlayer"><g class="trace scatter trace60789c" style="stroke-miterlimit: 2; opacity: 1;"><g class="fills"/><g class="errorbars"/><g class="lines"><path class="js-line" d="M6.7,346.45L7.43,345.97L7.52,346.29L7.54,346.43L8.39,344.71L8.4,341.97L8.42,329.65L8.6,346.47L9.13,346.06L9.15,346.09L9.39,346.21L9.61,345.51L9.62,345.4L9.89,340.8L9.91,339.73L10.12,256.92L10.13,206.32L10.15,104.23L10.85,344.86L10.86,344.85L11.13,342.53L11.14,342.41L11.34,342.56L11.76,328.23L11.77,326.62L11.87,260.83L11.99,335.93L12.01,338.62L12.53,345.97L12.78,343.91L12.8,343.83L13.45,333.39L13.47,331.76L13.6,163.78L13.63,317.19L13.65,326.32L14.32,344.63L14.42,344.57L14.44,344.59L14.99,341.3L15,340.9L15.24,328.94L15.26,325.61L15.33,171.31L15.67,343.02L15.73,342.63L15.75,342.47L15.94,345.08L16.51,342.96L16.52,342.94L16.61,343.48L16.84,339.77L16.85,339.17L16.99,317.79L17,307.97L17.04,10.09L17.4,339.16L17.42,339.55L17.8,344.54L18.3,343.5L18.31,343.44L18.65,346.08L18.71,340.98L18.73,337.86L18.79,225L19.31,345.33L19.32,345.43L19.71,346.44L20.01,345.15L20.02,345.21L20.04,345.17L20.19,345.61L20.44,343.97L20.46,343.63L20.52,337.25L20.53,297.37L21.31,346.36L21.32,346.37L21.62,346.48L21.93,345.99L21.95,345.91L22.26,342.29L22.27,328.76L22.65,346.46L23.05,346.39L23.06,346.37L23.88,344.26L23.9,343.98L24.02,327.31L24.03,274.19L24.51,346.46L24.82,345.67L24.84,345.68L25.49,345.1L25.51,344.99L25.73,341.25L25.75,340.07L25.81,204.3L25.82,322.04L25.84,334.92L26.18,346.33L26.61,345.87L26.63,345.82L27.28,346.17L27.41,343.71L27.43,343.21L27.55,320.58L27.56,277.01L27.58,192.08L28.26,345.01L28.29,344.98L28.31,345L29.34,336.7L29.35,326.1L29.37,242.78L29.71,345.72L30.08,344.85L30.1,344.88L30.62,345.32L30.75,344.79L30.77,344.62L31.11,333.9L31.12,328.18L31.15,174.95L31.72,345.11L31.78,345.05L31.8,345.02L32.58,340.69L32.6,336.13L32.97,202.89L33.34,344.87L33.36,344.85L34.28,345.76L34.37,345.35L34.39,345.19L34.76,336.46L34.78,322.27L34.79,280.55L35.52,346.07L35.54,346.1L36.31,345.89L36.32,345.63L36.34,345.8L36.58,342.98L36.59,341.43L36.62,312.37L36.86,346.41L37.17,346.24L37.19,346.26L38.4,345.68L38.41,345.45L38.47,338.67L38.49,325.7L39.05,346.24L39.24,346.18L39.26,346.18L40.18,345.49L40.2,345.43L40.32,339.57L40.33,319.51L40.96,346.47L41.11,346.43L41.12,346.26L41.38,345.85L42.03,346.26L42.06,346.15L42.08,345.92L42.18,341.3L42.2,341.73L42.21,338.8L42.22,296.73L42.93,345.72L42.95,345.46L42.97,345.67L43.12,345.29L43.13,343.28L43.33,346.01L43.89,344.39L43.91,344.31L44.04,341.7L44.06,336.89L44.1,283.57L44.53,344.49L44.55,344.58L45.01,346.04L45.34,344.95L45.35,344.9L45.93,340.43L45.95,338.9L46.02,166.27L46.65,346.23L46.69,341.28L46.71,344.48L47.41,346.27L47.51,346.1L47.53,346L47.84,344.56L47.86,344.34L47.89,345.43L47.95,323.53L47.96,315.42L48.6,346.24L48.72,346.06L48.74,346.03L49.79,345.29L49.81,345.36L49.82,341.49L49.84,342.46L49.88,336.15L49.9,290.03L50.6,346.3L50.66,346.1L50.67,346.04L51.69,346.21L51.72,346.01L51.73,345.94L51.81,346.16L51.85,344.02L51.86,325.18L52.03,324.81L52.59,346.36L52.62,346.34L52.64,346.33L53.38,346.12L53.4,346L53.74,344.84L53.76,345.02L53.77,344.16L53.86,330.84L54.04,345.29L54.35,345.19L54.37,345.29L54.67,346.39L55.17,346.09L55.19,346.07L55.47,346.31L55.6,345.49L55.62,344.76L55.86,338.87L56.1,346.37L56.36,346.01L56.38,346.02L56.42,346.21L56.8,345.34L57.02,345.35L57.03,345.37L57.85,337.34L57.87,333.83L57.9,312.17L58.52,345.02L58.61,345.01L58.63,345.12L59.03,345.55L59.11,344.77L59.12,344.51L59.23,332.85L59.24,311.58L59.85,345.72L59.94,307.84L60.01,339.6L60.03,341.43L60.7,346.22L60.86,346.09L60.88,346.08L61.06,345.71L61.61,346.12L61.62,346.08L61.64,345.92L61.95,342.27L61.97,339.32L61.98,325.81L62.4,346.18L62.71,346.09L62.73,346.1L62.89,345.47L62.93,346.32L63.14,346.38L63.16,346.48L63.96,344.29L63.98,343.17L64.1,317.52L64.57,346.45L64.75,346.18L64.77,346.18L65.63,346.41L65.65,346.42L66.06,345.78L66.08,344.37L66.2,327.47L66.56,346.4L66.81,346.33L66.82,346.35L68.19,346.05L68.21,345.29L68.34,330.89L68.55,346.28L68.79,346.25L68.81,346.22L69.88,346.42L69.89,346.4L69.91,346.4L70.35,345.78L70.37,342.53L70.49,336.02L70.98,346.48L71.14,346.35L71.16,346.38L72.14,345.6L72.26,346.41L72.28,346.47L72.68,342.66L73.02,346.38L73.04,346.37L74.81,346.25L74.82,346.16L74.84,345.9L74.85,344.91L75.48,346.5L75.58,346.47L75.6,346.47L77.06,345.84L77.07,345.67L77.1,342.07L77.33,346.48L77.74,343.98L77.76,345.37L77.88,346.43L78.52,346.22L78.53,346.21L79.23,346.34L79.29,345.99L79.31,345.75L79.35,340.67L79.55,346.49L79.94,346.38L79.95,346.34L80.9,346.38L80.92,346.36L81.47,345.66L81.48,345.74L81.5,344.82L81.63,331.62L82.02,346.31L82.04,346.29L82.05,346.32L83.2,345.3L83.21,345.19L83.36,343.88L83.42,345.27L83.44,336.05L83.48,317.8L83.82,346.37L84.06,343.6L84.08,343.79L84.46,345.94L84.91,345.72L84.93,345.67L85.36,341.56L85.43,346.02L85.67,345.41L85.69,345.59L86.09,344.6L86.1,344.31L86.15,345.1L86.27,332.88L86.28,322.03L86.92,345.71L87.07,345.55L87.09,345.57L87.18,345.75L87.28,344.43L87.3,341.18L88.07,346.44L88.09,346.43L88.62,345.74L88.64,345.34L88.67,342.26L89.34,346.44L89.37,346.21L89.38,346.3L90.25,346.39L90.26,346.43L91.15,346.05L91.17,345.83L91.18,343.16L91.82,346.45L91.97,346.4L91.99,346.39L93.05,346.43L93.11,346.26L93.12,345.6L93.28,346.48L93.46,344.81L93.91,346.4L93.93,346.41L95.88,346.1L95.89,345.67L96.49,346.5L96.67,346.48L96.68,346.48L98.35,345.97L98.37,345.56L98.38,344.66L98.89,346.49L99.11,346.4L99.13,346.39L100.78,346.38L100.79,346.34L100.81,346.28L100.87,344L101.45,346.5L101.46,346.48L101.48,346.45L103.36,345.84L103.37,345.63L103.42,343.9L103.85,346.48L104.01,346.46L104.03,346.47L105.93,345.77L105.95,345.18L106.37,346.49L106.72,346.43L106.74,346.44L109.11,346.26L109.12,345.97L109.14,345.42L109.54,346.49L109.91,346.43L109.93,346.43L111.1,345.86L111.12,345.73L111.28,344.77L111.72,346.27L111.73,346.32L113.13,346.2L113.15,346.13L113.24,343.56L113.44,346.4L113.59,346.3L113.61,346.39L132.23,346.01L132.25,345.52L133.01,346.5L133.02,346.49L133.04,346.49L135.48,346.46L135.49,346.46L136.49,345.96L136.51,345.65L136.6,340.7L136.91,346.36L136.97,346.28L136.98,346.3L138.21,346.47L138.22,346.47L147.67,346.49L147.68,346.5L153.49,346.48L153.51,346.48L161.4,346.28L161.42,346.16L162.25,346.49L162.27,346.48L173.53,346.49L173.55,346.48L184.96,346.49L184.98,346.49L230.2,346.49" style="vector-effect: non-scaling-stroke; fill: none; stroke: rgb(255, 165, 0); stroke-opacity: 1; stroke-width: 1px; opacity: 1;"/></g><g class="points"/><g class="text"/></g></g></g><g class="overplot"/><path class="xlines-above crisp" d="M362.4648002333042,420.9322506561679H600.3648293963254" style="fill: none; stroke-width: 1px; stroke: rgb(0, 0, 0); stroke-opacity: 1;"/><path class="ylines-above crisp" d="M362.9648002333042,63.83858267716535V420.4322506561679" style="fill: none; stroke-width: 1px; stroke: rgb(0, 0, 0); stroke-opacity: 1;"/><g class="overlines-above"/><g class="xaxislayer-above"><path class="x2tick ticks crisp" d="M0,420.4322506561679v-5" transform="translate(370.1548002333042,0)" style="stroke: rgb(0, 0, 0); stroke-opacity: 1; stroke-width: 1px;"/><path class="x2tick ticks crisp" d="M0,420.4322506561679v-5" transform="translate(414.85480023330416,0)" style="stroke: rgb(0, 0, 0); stroke-opacity: 1; stroke-width: 1px;"/><path class="x2tick ticks crisp" d="M0,420.4322506561679v-5" transform="translate(459.55480023330415,0)" style="stroke: rgb(0, 0, 0); stroke-opacity: 1; stroke-width: 1px;"/><path class="x2tick ticks crisp" d="M0,420.4322506561679v-5" transform="translate(504.2548002333042,0)" style="stroke: rgb(0, 0, 0); stroke-opacity: 1; stroke-width: 1px;"/><path class="x2tick ticks crisp" d="M0,420.4322506561679v-5" transform="translate(548.9548002333042,0)" style="stroke: rgb(0, 0, 0); stroke-opacity: 1; stroke-width: 1px;"/><path class="x2tick ticks crisp" d="M0,420.4322506561679v-5" transform="translate(593.6648002333042,0)" style="stroke: rgb(0, 0, 0); stroke-opacity: 1; stroke-width: 1px;"/><g class="x2tick"><text text-anchor="middle" x="0" y="434.6322506561679" transform="translate(370.1548002333042,0)" style="font-family: sans-serif; font-size: 11px; fill: rgb(0, 0, 0); fill-opacity: 1; white-space: pre;">0</text></g><g class="x2tick"><text text-anchor="middle" x="0" y="434.6322506561679" transform="translate(414.85480023330416,0)" style="font-family: sans-serif; font-size: 11px; fill: rgb(0, 0, 0); fill-opacity: 1; white-space: pre;">1000</text></g><g class="x2tick"><text text-anchor="middle" x="0" y="434.6322506561679" transform="translate(459.55480023330415,0)" style="font-family: sans-serif; font-size: 11px; fill: rgb(0, 0, 0); fill-opacity: 1; white-space: pre;">2000</text></g><g class="x2tick"><text text-anchor="middle" x="0" y="434.6322506561679" transform="translate(504.2548002333042,0)" style="font-family: sans-serif; font-size: 11px; fill: rgb(0, 0, 0); fill-opacity: 1; white-space: pre;">3000</text></g><g class="x2tick"><text text-anchor="middle" x="0" y="434.6322506561679" transform="translate(548.9548002333042,0)" style="font-family: sans-serif; font-size: 11px; fill: rgb(0, 0, 0); fill-opacity: 1; white-space: pre;">4000</text></g><g class="x2tick"><text text-anchor="middle" x="0" y="434.6322506561679" transform="translate(593.6648002333042,0)" style="font-family: sans-serif; font-size: 11px; fill: rgb(0, 0, 0); fill-opacity: 1; white-space: pre;">5000</text></g></g><g class="yaxislayer-above"><path class="y2tick ticks crisp" d="M363.4648002333042,0h5" transform="translate(0,410.33858267716533)" style="stroke: rgb(0, 0, 0); stroke-opacity: 1; stroke-width: 1px;"/><path class="y2tick ticks crisp" d="M363.4648002333042,0h5" transform="translate(0,299.31858267716535)" style="stroke: rgb(0, 0, 0); stroke-opacity: 1; stroke-width: 1px;"/><path class="y2tick ticks crisp" d="M363.4648002333042,0h5" transform="translate(0,188.30858267716536)" style="stroke: rgb(0, 0, 0); stroke-opacity: 1; stroke-width: 1px;"/><path class="y2tick ticks crisp" d="M363.4648002333042,0h5" transform="translate(0,77.28858267716535)" style="stroke: rgb(0, 0, 0); stroke-opacity: 1; stroke-width: 1px;"/><g class="y2tick"><text text-anchor="end" x="360.2648002333042" y="3.8499999999999996" transform="translate(0,410.33858267716533)" style="font-family: sans-serif; font-size: 11px; fill: rgb(0, 0, 0); fill-opacity: 1; white-space: pre;">0</text></g><g class="y2tick"><text text-anchor="end" x="360.2648002333042" y="3.8499999999999996" transform="translate(0,299.31858267716535)" style="font-family: sans-serif; font-size: 11px; fill: rgb(0, 0, 0); fill-opacity: 1; white-space: pre;">500</text></g><g class="y2tick"><text text-anchor="end" x="360.2648002333042" y="3.8499999999999996" transform="translate(0,188.30858267716536)" style="font-family: sans-serif; font-size: 11px; fill: rgb(0, 0, 0); fill-opacity: 1; white-space: pre;">1000</text></g><g class="y2tick"><text text-anchor="end" x="360.2648002333042" y="3.8499999999999996" transform="translate(0,77.28858267716535)" style="font-family: sans-serif; font-size: 11px; fill: rgb(0, 0, 0); fill-opacity: 1; white-space: pre;">1500</text></g></g><g class="overaxes-above"/></g></g><g class="polarlayer"/><g class="ternarylayer"/><g class="geolayer"/><g class="funnelarealayer"/><g class="pielayer"/><g class="treemaplayer"/><g class="sunburstlayer"/><g class="glimages"/><defs id="topdefs-ddfbd5"><g class="clips"/><clipPath id="legendddfbd5"><rect width="73" height="58" x="0" y="0"/></clipPath></defs><g class="layer-above"><g class="imagelayer"/><g class="shapelayer"/></g><g class="infolayer"><g class="legend" pointer-events="all" transform="translate(615.08,60)"><rect class="bg" shape-rendering="crispEdges" width="73" height="58" x="0" y="0" style="stroke: rgb(68, 68, 68); stroke-opacity: 1; fill: rgb(255, 255, 255); fill-opacity: 1; stroke-width: 0px;"/><g class="scrollbox" transform="" clip-path="url('#legendddfbd5')"><g class="groups" transform=""><g class="traces" transform="translate(0,14.5)" style="opacity: 1;"><text class="legendtext" text-anchor="start" x="40" y="4.680000000000001" style="font-family: 'Open Sans', verdana, arial, sans-serif; font-size: 12px; fill: rgb(42, 63, 95); fill-opacity: 1; white-space: pre;">Time</text><g class="layers" style="opacity: 1;"><g class="legendfill"/><g class="legendlines"><path class="js-line" d="M5,0h30" style="fill: none; stroke: rgb(0, 154, 250); stroke-opacity: 1; stroke-width: 1px;"/></g><g class="legendsymbols"><g class="legendpoints"/></g></g><rect class="legendtoggle" x="0" y="-9.5" width="67.84375" height="19" style="fill: rgb(0, 0, 0); fill-opacity: 0;"/></g></g><g class="groups" transform="translate(0,10)"><g class="traces" transform="translate(0,33.5)" style="opacity: 1;"><text class="legendtext" text-anchor="start" x="40" y="4.680000000000001" style="font-family: 'Open Sans', verdana, arial, sans-serif; font-size: 12px; fill: rgb(42, 63, 95); fill-opacity: 1; white-space: pre;">Freq</text><g class="layers" style="opacity: 1;"><g class="legendfill"/><g class="legendlines"><path class="js-line" d="M5,0h30" style="fill: none; stroke: rgb(255, 165, 0); stroke-opacity: 1; stroke-width: 1px;"/></g><g class="legendsymbols"><g class="legendpoints"/></g></g><rect class="legendtoggle" x="0" y="-9.5" width="67.84375" height="19" style="fill: rgb(0, 0, 0); fill-opacity: 0;"/></g></g></g><rect class="scrollbar" rx="20" ry="3" width="0" height="0" x="0" y="0" style="fill: rgb(128, 139, 164); fill-opacity: 1;"/></g><g class="g-gtitle"/><g class="g-xtitle"><text class="xtitle" x="204.9148148148148" y="462.140625" text-anchor="middle" style="font-family: sans-serif; font-size: 15px; fill: rgb(0, 0, 0); opacity: 1; font-weight: normal; white-space: pre;">t[s]</text></g><g class="g-x2title"><text class="x2title" x="481.9148148148148" y="462.140625" text-anchor="middle" style="font-family: sans-serif; font-size: 15px; fill: rgb(0, 0, 0); opacity: 1; font-weight: normal; white-space: pre;">f[hz]</text></g><g class="g-ytitle"/><g class="g-y2title"/></g></svg>