<svg class="main-svg" xmlns="http://www.w3.org/2000/svg" xmlns:xlink="http://www.w3.org/1999/xlink" width="700" height="500" style="" viewBox="0 0 700 500"><rect x="0" y="0" width="700" height="500" style="fill: rgb(255, 255, 255); fill-opacity: 1;"/><defs id="defs-358374"><g class="clips"><clipPath id="clip358374xyplot" class="plotclip"><rect width="236.90002916302126" height="356.5936679790026"/></clipPath><clipPath id="clip358374x2y2plot" class="plotclip"><rect width="236.90002916302123" height="356.5936679790026"/></clipPath><clipPath class="axesclip" id="clip358374x"><rect x="86.46480023330417" y="0" width="236.90002916302126" height="500"/></clipPath><clipPath class="axesclip" id="clip358374y"><rect x="0" y="63.83858267716535" width="700" height="356.5936679790026"/></clipPath><clipPath class="axesclip" id="clip358374xy"><rect x="86.46480023330417" y="63.83858267716535" width="236.90002916302126" height="356.5936679790026"/></clipPath><clipPath class="axesclip" id="clip358374y2"><rect x="0" y="63.83858267716535" width="700" height="356.5936679790026"/></clipPath><clipPath class="axesclip" id="clip358374xy2"><rect x="86.46480023330417" y="63.83858267716535" width="236.90002916302126" height="356.5936679790026"/></clipPath><clipPath class="axesclip" id="clip358374x2"><rect x="363.4648002333042" y="0" width="236.90002916302123" height="500"/></clipPath><clipPath class="axesclip" id="clip358374x2y"><rect x="363.4648002333042" y="63.83858267716535" width="236.90002916302123" height="356.5936679790026"/></clipPath><clipPath class="axesclip" id="clip358374x2y2"><rect x="363.4648002333042" y="63.83858267716535" width="236.90002916302123" height="356.5936679790026"/></clipPath></g><g class="gradients"/></defs><g class="bglayer"/><g class="layer-below"><g class="imagelayer"/><g class="shapelayer"/></g><g class="cartesianlayer"><g class="subplot xy"><g class="layer-subplot"><g class="shapelayer"/><g class="imagelayer"/></g><g class="gridlayer"><g class="x"><path class="xgrid crisp" transform="translate(93.16480023330418,0)" d="M0,63.83858267716535v356.5936679790026" style="stroke: rgb(0, 0, 0); stroke-opacity: 0.1; stroke-width: 0.5px;"/><path class="xgrid crisp" transform="translate(167.66480023330416,0)" d="M0,63.83858267716535v356.5936679790026" style="stroke: rgb(0, 0, 0); stroke-opacity: 0.1; stroke-width: 0.5px;"/><path class="xgrid crisp" transform="translate(242.16480023330416,0)" d="M0,63.83858267716535v356.5936679790026" style="stroke: rgb(0, 0, 0); stroke-opacity: 0.1; stroke-width: 0.5px;"/><path class="xgrid crisp" transform="translate(316.66480023330416,0)" d="M0,63.83858267716535v356.5936679790026" style="stroke: rgb(0, 0, 0); stroke-opacity: 0.1; stroke-width: 0.5px;"/></g><g class="y"><path class="ygrid crisp" transform="translate(0,386.87858267716535)" d="M86.46480023330417,0h236.90002916302126" style="stroke: rgb(0, 0, 0); stroke-opacity: 0.1; stroke-width: 0.5px;"/><path class="ygrid crisp" transform="translate(0,319.45858267716534)" d="M86.46480023330417,0h236.90002916302126" style="stroke: rgb(0, 0, 0); stroke-opacity: 0.1; stroke-width: 0.5px;"/><path class="ygrid crisp" transform="translate(0,252.03858267716532)" d="M86.46480023330417,0h236.90002916302126" style="stroke: rgb(0, 0, 0); stroke-opacity: 0.1; stroke-width: 0.5px;"/><path class="ygrid crisp" transform="translate(0,184.61858267716536)" d="M86.46480023330417,0h236.90002916302126" style="stroke: rgb(0, 0, 0); stroke-opacity: 0.1; stroke-width: 0.5px;"/><path class="ygrid crisp" transform="translate(0,117.20858267716534)" d="M86.46480023330417,0h236.90002916302126" style="stroke: rgb(0, 0, 0); stroke-opacity: 0.1; stroke-width: 0.5px;"/></g></g><g class="zerolinelayer"/><path class="xlines-below"/><path class="ylines-below"/><g class="overlines-below"/><g class="xaxislayer-below"/><g class="yaxislayer-below"/><g class="overaxes-below"/><g class="plot" transform="translate(86.46480023330417,63.83858267716535)" clip-path="url('#clip358374xyplot')"><g class="scatterlayer mlayer"><g class="trace scatter trace05dfe6" style="stroke-miterlimit: 2; opacity: 1;"><g class="fills"/><g class="errorbars"/><g class="lines"><path class="js-line" d="M6.7,188.22L6.8,184.48L6.85,189.69L6.85,189.85L7.46,217.56L7.5,166.98L7.6,187.37L7.61,183.62L8.19,74.91L8.23,313.79L8.36,227.88L8.37,233.61L8.38,297.99L8.48,51.53L9.12,185.03L9.13,196.66L9.16,276.05L9.39,80.23L9.88,138.26L9.89,143.13L10.27,346.5L10.47,28.86L10.64,143.37L10.65,140.13L10.66,86.48L11.05,279.5L11.4,130.05L11.41,134.7L11.87,341.38L12.16,88.89L12.17,72.91L12.18,10.09L12.41,345.5L12.92,279.62L12.93,278.98L13.2,297.78L13.44,59.31L13.68,155.77L13.69,147.62L14.19,74.47L14.41,303.2L14.44,236.1L14.45,228.16L14.64,88.99L15.16,273.06L15.2,231.88L15.21,235.32L15.42,43.65L15.95,317.11L15.96,238.29L15.97,241.56L16.19,46.08L16.4,294.9L16.72,113.86L16.73,118.05L17.08,308.52L17.45,33.48L17.48,198.97L17.49,208.56L17.99,313.65L18.2,87.7L18.24,148.2L18.25,145.53L18.47,302.43L18.68,109.51L19,231.04L19.01,232.58L19.19,305.08L19.32,95.79L19.76,163.66L19.77,162.76L20.12,296.8L20.2,109.04L20.52,239.67L20.53,238.16L20.7,98.13L21.05,289.65L21.28,149.85L21.29,152.63L21.79,101.45L22.01,293.45L22.04,165.76L22.05,159.58L22.14,273.03L22.71,64.46L22.8,123.68L22.81,123.4L22.93,284.19L23.51,110.35L23.56,130L23.57,125.85L23.92,113.28L24,284.29L24.32,202.83L24.33,203.37L24.56,290.65L24.76,69.76L25.08,227.23L25.09,221.18L25.12,275.68L25.8,118.37L25.84,230.01L25.85,230.92L26.46,95.2L26.58,285.19L26.6,245.12L26.61,240.84L26.81,97.48L27.09,274.5L27.36,209.36L27.37,209.2L27.93,104.74L28.03,266.44L28.12,222.59L28.13,223.51L28.51,89.32L28.55,297.37L28.88,141.22L28.89,136.74L28.9,110.97L29.34,252.47L29.64,129.95L29.65,126.18L29.95,91.38L30.33,285.23L30.4,210.36L30.41,213.68L30.66,264.8L30.9,97.24L31.16,190.24L31.17,189.65L31.37,255.58L31.81,69.18L31.92,204.53L31.93,204.02L31.99,71.9L32.29,266.46L32.68,246.5L32.69,254.04L32.7,285.65L32.91,101.25L33.44,219.1L33.45,217.68L33.85,80.77L33.89,273.91L34.2,205.57L34.21,208.05L34.71,280.45L34.93,108.37L34.96,171.93L34.97,171.01L35.61,300.76L35.72,113.22L35.72,116.53L35.73,120.1L35.83,91.9L36.44,258.2L36.48,192.95L36.49,194.72L36.64,115.33L36.74,265.66L37.24,186.84L37.25,180.61L37.64,290.34L37.86,103.69L38,121.89L38.01,120.24L38.01,113.86L38.46,270.02L38.76,251.34L38.77,252.07L39.13,67.14L39.5,267.73L39.52,239.14L39.53,234.81L39.62,276.67L39.86,116.31L40.28,204.93L40.29,206.03L40.66,97.29L40.87,281.64L41.04,194L41.05,194L41.17,105.92L41.65,259.57L41.8,221.53L41.81,221.73L41.86,116.97L42.33,244.95L42.56,238.67L42.57,241.91L42.84,275.99L43.14,93.47L43.32,152.47L43.33,157.9L43.66,275.65L44.08,135.36L44.09,135.23L44.44,257.88L44.66,86.09L44.84,207.86L44.85,210.56L44.95,266.71L45.16,108.64L45.6,142.61L45.61,143.28L45.68,257.25L46.12,118.86L46.36,156.23L46.37,152.02L46.58,289.76L46.69,130.99L47.12,178.33L47.13,179.95L47.16,128.11L47.54,270.08L47.88,178.44L47.89,174.75L48.4,109.15L48.61,263.73L48.64,210.65L48.65,206.37L48.96,258.9L49.16,119.06L49.4,194.49L49.41,194.02L49.47,112.62L49.71,261.16L50.16,173.75L50.17,169.16L50.27,107.07L50.66,253.21L50.92,201.93L50.93,202.53L50.98,281.62L51.47,95.58L51.68,216.07L51.69,214.59L51.92,257.78L52.41,126.99L52.44,218.62L52.45,216.74L52.67,253.86L52.91,127.76L53.2,152.88L53.21,154.16L53.34,87.41L53.89,259.08L53.96,200.13L53.97,200.21L54.01,128.46L54.72,257.13L54.72,255.92L54.73,254.01L54.88,114.94L55.48,125.57L55.49,129.08L55.92,281.99L56.24,204.59L56.25,201.32L56.73,253.37L56.9,126.25L57,212.13L57.01,214.17L57.14,256.2L57.49,94.25L57.76,207.02L57.77,208.79L57.96,256.53L58.44,133.72L58.52,183.96L58.53,181.52L58.95,103.62L59.16,273.76L59.28,189.23L59.29,192.24L59.37,101.41L59.98,249.26L60.04,211.9L60.05,212.54L60.65,144.17L60.76,243.03L60.8,211.68L60.81,210.62L60.96,128.32L61.12,260.81L61.56,137.11L61.57,137.72L61.81,237.98L62.32,194.45L62.33,194.1L62.9,249.47L62.94,122.52L63.08,153.92L63.09,151.72L63.16,259.38L63.57,137.81L63.84,207.49L63.85,207.11L63.99,232.82L64.49,129.71L64.6,206.68L64.61,204.94L64.86,265.11L65.09,113.46L65.36,191.29L65.37,192.54L65.75,119.31L66.07,231.1L66.12,218.05L66.13,216.46L66.68,104.76L66.88,261.17L66.89,263.48L66.89,267.89L67.1,101.12L67.64,167.33L67.65,171.01L67.75,139.59L68.08,240.77L68.4,211.45L68.41,213.96L68.91,253.42L69.11,113.88L69.16,180.1L69.17,180.92L69.36,235.59L69.76,136.27L69.92,156.56L69.93,160.36L70.13,249.7L70.57,142.63L70.68,144.39L70.69,143.05L70.91,257.43L71.11,122.56L71.44,180.72L71.45,179.38L71.62,131.73L72.16,244.97L72.2,178.03L72.21,176.54L72.84,120.04L72.93,240.95L72.96,204.42L72.97,202.18L73.15,130.65L73.43,250.06L73.72,193.27L73.73,193.51L73.82,148.57L74.48,243.54L74.48,242.07L74.49,241.25L74.85,119.96L75.08,249.15L75.24,170.76L75.25,172.29L75.4,258.73L75.86,138.53L76,189.91L76.01,190.92L76.53,259L76.71,115.18L76.76,179.71L76.77,181.27L77.23,137.76L77.44,263.99L77.52,197.75L77.53,198.16L77.6,237.71L77.65,139.29L78.28,173.28L78.29,172.2L78.52,247.89L78.86,129.66L79.04,218.43L79.05,220.42L79.36,134.12L79.47,257.66L79.8,165.04L79.81,164L80.45,139.36L80.52,240.48L80.56,202.86L80.57,200.51L80.89,123.08L81.1,246.36L81.32,174.73L81.33,175.73L81.38,129.84L81.63,235.18L82.08,176.41L82.09,175.74L82.39,235.59L82.75,138.38L82.84,155.17L82.85,153.92L83.14,261.46L83.37,118.14L83.6,209.74L83.61,207.6L84.19,135.54L84.25,223.07L84.36,205.21L84.37,204.24L84.46,130.67L84.67,258.31L85.12,198.11L85.13,198.1L85.18,260.72L85.4,125.89L85.88,197.75L85.89,195.49L86.18,135.58L86.38,233.08L86.64,228.92L86.65,228.43L86.7,255.94L87.11,134.02L87.4,158.63L87.41,159.39L87.45,136.63L87.66,222.61L88.16,188.16L88.17,184.2L88.2,108.56L88.41,265.29L88.92,171.1L88.93,172.11L89.2,240.86L89.42,138.3L89.68,225.45L89.69,226.1L90.06,131.67L90.44,238.88L90.44,237.26L90.45,235.43L90.72,242.5L91.12,116.35L91.2,200.02L91.21,202.15L91.23,240.85L91.43,139.91L91.96,211.19L91.97,215.27L91.98,234.49L92.21,133.7L92.72,206.89L92.73,207.56L93.14,131.21L93.36,236.56L93.48,158.64L93.49,161.62L94.02,235.54L94.07,133.64L94.24,162.46L94.25,163.48L94.35,132.17L94.9,235.13L95,148.11L95.01,149.94L95.17,116.62L95.39,242.88L95.76,191.05L95.77,189.21L95.98,224.14L96.21,138.65L96.52,191.09L96.53,191.59L96.92,229.78L97.14,132.66L97.28,171.32L97.29,167.97L97.55,137L98.03,243.11L98.04,228.11L98.05,225.26L98.09,138.8L98.8,218.32L98.81,217.1L98.96,249L99.17,123.72L99.56,168.58L99.57,168.2L99.95,134.87L100.01,234.08L100.32,200.75L100.33,201.51L100.7,140.9L100.98,238.36L101.08,210.2L101.09,210.83L101.21,132.96L101.5,228.26L101.84,185.05L101.85,188.58L101.88,242.56L102.4,143.06L102.6,212.44L102.61,214.63L102.74,133.24L102.96,248.68L103.36,168.75L103.37,169.29L103.49,234.7L103.7,137.99L104.12,187.8L104.13,187.94L104.66,221.66L104.78,142.16L104.88,166.43L104.89,167.8L104.99,256.04L105.41,144.09L105.64,199.14L105.65,195.83L105.68,148.09L106.19,224.12L106.4,156.71L106.41,155.01L106.75,146.01L106.99,240.35L107.16,203.68L107.17,202.99L107.28,141.7L107.64,227.33L107.92,208.88L107.93,207.57L108.23,228.74L108.62,141.8L108.68,205.84L108.69,206.64L109.02,239.87L109.41,147.92L109.44,150.12L109.45,150.74L109.72,146.73L109.93,250.56L110.2,210.44L110.21,208.95L110.72,231.41L110.93,139.09L110.96,188.81L110.97,191.55L111.43,138.36L111.64,245.5L111.72,196.9L111.73,195.07L111.85,124.17L112.22,227.42L112.48,176.2L112.49,176.36L112.64,130.15L113.24,226.46L113.25,227.11L113.46,131.97L113.67,258.09L114,199.77L114.01,197.93L114.67,134.89L114.73,226.37L114.76,194.02L114.77,192.65L115.38,234.15L115.43,141.76L115.52,173.13L115.53,174.97L115.59,140.03L115.65,225.23L116.28,200.73L116.29,199.69L116.6,224.03L116.65,141.46L117.04,155.17L117.05,157.29L117.25,242.55L117.59,141.2L117.8,203.67L117.81,203.08L117.9,135.71L118.31,219.05L118.56,200.02L118.57,202.43L118.66,146.74L119.12,227.88L119.32,189.83L119.33,190.14L119.39,230.78L119.6,133.64L120.08,210.9L120.09,210.96L120.47,224.34L120.69,133.79L120.84,188.5L120.85,187.75L121.03,141.65L121.41,229.26L121.6,158.22L121.61,158L121.64,138.98L121.86,235.36L122.36,207.1L122.37,204.23L122.62,223.16L122.73,148.25L123.12,185.89L123.13,187.2L123.28,232.2L123.62,132.76L123.88,211.28L123.89,210.39L124.26,146.28L124.48,240.05L124.64,216.42L124.65,218.24L124.66,223.25L124.78,151.35L125.4,203.12L125.41,204.96L125.43,233.7L125.64,137.11L126.16,196.67L126.17,199.63L126.35,228.22L126.79,160.71L126.92,171.69L126.93,173.84L127.09,147.9L127.58,224.79L127.68,159.95L127.69,160.63L128.22,226.43L128.27,148.42L128.44,167.12L128.45,168.67L129.01,227.32L129.2,154.37L129.21,153.37L129.44,230.26L129.79,140.27L129.96,194.5L129.97,192.85L130.14,142.52L130.7,219.88L130.72,201.41L130.73,199.78L130.93,149.1L131.46,235.99L131.48,191.23L131.49,188.58L131.61,227.64L132.13,152.29L132.24,206.46L132.25,205.12L132.56,217.97L132.95,156.67L133,194.83L133.01,195.97L133.27,147.94L133.49,227.36L133.76,180.32L133.77,179.36L134.08,215.22L134.16,146.65L134.52,194.35L134.53,195.43L135.19,217.24L135.24,129.36L135.28,183.61L135.29,183.66L135.63,222.05L135.87,151.54L136.04,206.94L136.05,207.84L136.1,221.47L136.18,145.68L136.8,196.27L136.81,196.05L137.16,220.84L137.39,149.69L137.56,198.25L137.57,198.3L137.89,151.69L138.1,235.73L138.32,166.12L138.33,165.03L138.76,222.58L138.98,146.28L139.08,183.04L139.09,182.91L139.2,225.65L139.26,153.43L139.84,189.3L139.85,188.68L139.93,154.75L140.09,224.36L140.6,198.85L140.61,200.32L140.63,226.38L141.13,162.3L141.36,175.35L141.37,174.97L141.68,221.52L141.9,146.3L142.12,217.35L142.13,216.96L142.16,225.52L142.55,151.77L142.88,190.59L142.89,190.81L143.21,225.63L143.41,156.77L143.64,202.2L143.65,201.89L143.82,223.62L144.07,153.48L144.4,164.64L144.41,163.42L144.93,214.49L145.14,152.73L145.16,181.87L145.17,183.39L145.47,153.35L145.83,226.8L145.92,180.82L145.93,179.56L146.05,152.12L146.17,226.41L146.68,203.83L146.69,203.94L146.95,222.06L147.15,148.54L147.44,175.37L147.45,176.21L147.86,234.04L148.08,140.43L148.2,215.52L148.21,216.2L148.22,219.77L148.61,159.82L148.96,210.08L148.97,209.85L149.07,210.29L149.52,148.35L149.72,207.94L149.73,209.19L149.88,223.04L150.14,156.36L150.48,169.3L150.49,170.54L150.63,161.91L150.95,217.37L151.24,177.21L151.25,178.19L151.5,155.08L151.89,227.1L152,196.9L152.01,197.2L152.12,154.33L152.39,214.87L152.76,167.5L152.77,167.86L152.83,219.54L153.52,156.26L153.52,158.88L153.53,160.1L153.92,215.62L154.15,156.87L154.28,195.67L154.29,194.61L154.42,213.38L154.48,152.2L155.04,175.08L155.05,174.83L155.45,224.83L155.67,150.43L155.8,181.08L155.81,180.03L156.18,151.09L156.4,230.63L156.56,213.01L156.57,212.58L156.76,153.17L156.97,212.72L157.32,194.58L157.33,194.02L157.69,154.59L157.93,216.81L158.08,214.61L158.09,215.5L158.22,143L158.43,237.84L158.84,202.02L158.85,201.92L159.41,171.36L159.47,213.76L159.6,195.25L159.61,195.76L160.14,226.98L160.25,155.21L160.36,165.91L160.37,166.88L160.45,229.27L160.76,162.22L161.12,177.93L161.13,178.5L161.49,218.2L161.71,143.72L161.88,157.5L161.89,157.97L162.16,223.76L162.37,149.21L162.64,172.57L162.65,173.22L163.2,210.7L163.4,162.64L163.41,161.51L163.74,150.98L164.16,222.66L164.17,222.92L164.18,224.36L164.24,154.91L164.92,191.05L164.93,190.29L165.45,153.22L165.66,223.46L165.68,205.33L165.69,202.92L166.16,239.67L166.37,154.04L166.44,190.33L166.45,190.67L167.16,160.85L167.2,211.73L167.21,211.7L167.68,214.72L167.96,163.37L167.97,162.16L167.98,157.86L168.18,225.81L168.72,192.83L168.73,192.46L169.24,214.7L169.45,159L169.48,180.74L169.49,181.55L169.96,150.4L170.18,221.35L170.24,200.53L170.25,200.38L170.32,214.48L170.39,159.18L171,174.95L171.01,175.94L171.47,158.3L171.69,215.64L171.76,209.6L171.77,210.24L171.98,145.08L172.2,220.8L172.52,172L172.53,173.06L172.64,219.1L173.02,162.58L173.28,199.16L173.29,200.07L173.74,219.3L173.97,153.07L174.04,187.33L174.05,188.39L174.34,217.45L174.47,159.88L174.8,190.15L174.81,190.58L175.05,158.77L175.43,216.79L175.56,178.25L175.57,178.29L175.77,228.97L176,143.55L176.32,199.48L176.33,198.64L176.38,219.57L177.07,165.74L177.08,169.59L177.09,170.44L177.7,165.16L177.77,218.22L177.84,186.73L177.85,185.44L177.92,217.27L178.13,159.84L178.6,169.25L178.61,169.03L178.83,212.02L179.05,161.33L179.36,174.06L179.37,174.53L179.79,230.91L180,149.27L180.12,180.76L180.13,181.15L180.39,212.31L180.58,165.19L180.88,200.43L180.89,198.62L181.08,166.4L181.49,212.07L181.64,194.09L181.65,194.59L181.71,146.35L181.93,224.09L182.4,211.29L182.41,211.1L182.62,158.25L183.16,196.17L183.17,196.7L183.53,214.38L183.74,140.14L183.92,203.73L183.93,204.63L183.96,217.83L184.66,158.74L184.68,173.06L184.69,174.48L184.88,211.14L185.2,167.11L185.44,168.68L185.45,168.36L185.73,156.81L185.98,220.12L186.2,170.09L186.21,171.13L186.36,167.92L186.58,216.42L186.96,174.25L186.97,173.27L187.24,169.21L187.53,215.98L187.72,170.13L187.73,168.25L187.74,159.94L188.01,216.43L188.48,192.87L188.49,192.04L188.68,159.43L188.9,221.44L189.24,185.42L189.25,184.54L189.77,162.58L189.99,214.47L190,210.17L190.01,209.3L190.39,165.48L190.6,224.76L190.76,201.5L190.77,201.8L190.82,157.51L191.02,207.92L191.52,198.62L191.53,199.1L191.81,158.81L192.02,214.8L192.28,185.72L192.29,186.39L192.63,227.14L192.83,162.08L193.04,199.03L193.05,199.3L193.34,158.69L193.72,225.3L193.8,184.38L193.81,183.95L194.08,211.88L194.39,163.47L194.56,172.83L194.57,173.73L194.63,217.59L194.83,164.96L195.32,178.27L195.33,177.92L195.43,211.08L195.47,165.96L196.08,191.49L196.09,192.04L196.57,163.5L196.64,218.67L196.84,168.91L196.85,169.47L197.28,211.63L197.35,160.61L197.6,188.51L197.61,187.73L197.74,217.81L197.96,162.03L198.36,187L198.37,187.33L198.56,162.43L198.74,208.48L199.12,191.75L199.13,192.02L199.66,165.27L199.78,211.27L199.88,197.26L199.89,196.42L200.21,212.79L200.57,155.56L200.64,191.67L200.65,192.1L200.78,217.21L201.37,167.32L201.4,183.71L201.41,183.97L201.48,209.12L201.53,165.48L202.16,196.12L202.17,196.4L202.24,217.89L202.6,158.2L202.92,188.6L202.93,188.24L202.96,162.6L203.18,208.9L203.68,179.33L203.69,179.77L204.06,170.85L204.26,217.79L204.44,176.17L204.45,175.92L204.58,164.6L204.79,213.82L205.2,189.99L205.21,190.7L205.26,172.21L205.32,214.8L205.96,194.14L205.97,194.28L206.24,217.35L206.61,163.09L206.72,166.26L206.73,167.32L206.97,165.01L207.34,211.75L207.48,197.98L207.49,198.19L207.93,202.83L208.17,162.14L208.24,197.84L208.25,199.17L208.68,162.46L208.89,218.91L209,179.82L209.01,180L209.11,169.7L209.36,215.86L209.76,175.05L209.77,174.96L210.2,154.79L210.41,223.21L210.52,191.08L210.53,190.02L210.71,163.92L210.91,208.15L211.28,167.96L211.29,167.5L211.29,167.12L212.01,207.76L212.04,187.99L212.05,186.68L212.23,162.18L212.38,214.64L212.8,172.48L212.81,172.15L212.92,211.68L213.15,163.41L213.56,192.01L213.57,190.46L213.99,215.66L214.21,147.34L214.32,184.05L214.33,183.74L214.42,212.7L214.85,163.01L215.08,210.6L215.09,209.8L215.17,169.28L215.84,193.54L215.85,194.53L216.03,215.12L216.23,164.22L216.6,196.25L216.61,196.63L216.83,165.38L216.96,208.02L217.36,183.46L217.37,184.32L217.74,205.86L217.95,163.34L218.12,204.64L218.13,205.8L218.15,213.51L218.88,159.44L218.88,160.16L218.89,160.62L219.6,211.74L219.64,180.6L219.65,179.79L220.16,214.15L220.38,166.49L220.4,177.49L220.41,178.33L220.9,156.35L221.13,211.5L221.16,187.09L221.17,185.33L221.19,172.95L221.87,206.65L221.92,181.17L221.93,180.35L221.95,166.99L222.15,204.84L222.68,197.7L222.69,198.06L222.9,160.1L223.11,207.69L223.44,190.45L223.45,190.48L223.96,165.02L224.18,206.23L224.2,202.54L224.21,202.02L224.7,205.23L224.92,157.66L224.96,185.63L224.97,186.48L225.08,170.85L225.13,215.85L225.72,194.17L225.73,194.13L225.89,208.72L226.47,168.34L226.48,171.42L226.49,172.11L226.84,212.32L227.05,163.1L227.24,191.24L227.25,190.29L227.44,173.26L227.76,210.3L228,187.11L228.01,187.77L228.49,159.9L228.71,218.34L228.76,182.19L228.77,182.88L228.87,212.95L228.93,169.47L229.52,187.7L229.53,187.56L229.57,170.21L229.77,204.62L230.2,181.78" style="vector-effect: non-scaling-stroke; fill: none; stroke: rgb(0, 154, 250); stroke-opacity: 1; stroke-width: 1px; opacity: 1;"/></g><g class="points"/><g class="text"/></g></g></g><g class="overplot"/><path class="xlines-above crisp" d="M85.46480023330417,420.9322506561679H323.36482939632543" style="fill: none; stroke-width: 1px; stroke: rgb(0, 0, 0); stroke-opacity: 1;"/><path class="ylines-above crisp" d="M85.96480023330417,63.83858267716535V420.4322506561679" style="fill: none; stroke-width: 1px; stroke: rgb(0, 0, 0); stroke-opacity: 1;"/><g class="overlines-above"/><g class="xaxislayer-above"><path class="xtick ticks crisp" d="M0,420.4322506561679v-5" transform="translate(93.16480023330418,0)" style="stroke: rgb(0, 0, 0); stroke-opacity: 1; stroke-width: 1px;"/><path class="xtick ticks crisp" d="M0,420.4322506561679v-5" transform="translate(167.66480023330416,0)" style="stroke: rgb(0, 0, 0); stroke-opacity: 1; stroke-width: 1px;"/><path class="xtick ticks crisp" d="M0,420.4322506561679v-5" transform="translate(242.16480023330416,0)" style="stroke: rgb(0, 0, 0); stroke-opacity: 1; stroke-width: 1px;"/><path class="xtick ticks crisp" d="M0,420.4322506561679v-5" transform="translate(316.66480023330416,0)" style="stroke: rgb(0, 0, 0); stroke-opacity: 1; stroke-width: 1px;"/><g class="xtick"><text text-anchor="middle" x="0" y="434.6322506561679" transform="translate(93.16480023330418,0)" style="font-family: sans-serif; font-size: 11px; fill: rgb(0, 0, 0); fill-opacity: 1; white-space: pre;">0</text></g><g class="xtick"><text text-anchor="middle" x="0" y="434.6322506561679" transform="translate(167.66480023330416,0)" style="font-family: sans-serif; font-size: 11px; fill: rgb(0, 0, 0); fill-opacity: 1; white-space: pre;">1</text></g><g class="xtick"><text text-anchor="middle" x="0" y="434.6322506561679" transform="translate(242.16480023330416,0)" style="font-family: sans-serif; font-size: 11px; fill: rgb(0, 0, 0); fill-opacity: 1; white-space: pre;">2</text></g><g class="xtick"><text text-anchor="middle" x="0" y="434.6322506561679" transform="translate(316.66480023330416,0)" style="font-family: sans-serif; font-size: 11px; fill: rgb(0, 0, 0); fill-opacity: 1; white-space: pre;">3</text></g></g><g class="yaxislayer-above"><path class="ytick ticks crisp" d="M86.46480023330417,0h5" transform="translate(0,386.87858267716535)" style="stroke: rgb(0, 0, 0); stroke-opacity: 1; stroke-width: 1px;"/><path class="ytick ticks crisp" d="M86.46480023330417,0h5" transform="translate(0,319.45858267716534)" style="stroke: rgb(0, 0, 0); stroke-opacity: 1; stroke-width: 1px;"/><path class="ytick ticks crisp" d="M86.46480023330417,0h5" transform="translate(0,252.03858267716532)" style="stroke: rgb(0, 0, 0); stroke-opacity: 1; stroke-width: 1px;"/><path class="ytick ticks crisp" d="M86.46480023330417,0h5" transform="translate(0,184.61858267716536)" style="stroke: rgb(0, 0, 0); stroke-opacity: 1; stroke-width: 1px;"/><path class="ytick ticks crisp" d="M86.46480023330417,0h5" transform="translate(0,117.20858267716534)" style="stroke: rgb(0, 0, 0); stroke-opacity: 1; stroke-width: 1px;"/><g class="ytick"><text text-anchor="end" x="83.26480023330417" y="3.8499999999999996" transform="translate(0,386.87858267716535)" style="font-family: sans-serif; font-size: 11px; fill: rgb(0, 0, 0); fill-opacity: 1; white-space: pre;">-0.2</text></g><g class="ytick"><text text-anchor="end" x="83.26480023330417" y="3.8499999999999996" transform="translate(0,319.45858267716534)" style="font-family: sans-serif; font-size: 11px; fill: rgb(0, 0, 0); fill-opacity: 1; white-space: pre;">-0.1</text></g><g class="ytick"><text text-anchor="end" x="83.26480023330417" y="3.8499999999999996" transform="translate(0,252.03858267716532)" style="font-family: sans-serif; font-size: 11px; fill: rgb(0, 0, 0); fill-opacity: 1; white-space: pre;">0.0</text></g><g class="ytick"><text text-anchor="end" x="83.26480023330417" y="3.8499999999999996" transform="translate(0,184.61858267716536)" style="font-family: sans-serif; font-size: 11px; fill: rgb(0, 0, 0); fill-opacity: 1; white-space: pre;">0.1</text></g><g class="ytick"><text text-anchor="end" x="83.26480023330417" y="3.8499999999999996" transform="translate(0,117.20858267716534)" style="font-family: sans-serif; font-size: 11px; fill: rgb(0, 0, 0); fill-opacity: 1; white-space: pre;">0.2</text></g></g><g class="overaxes-above"/></g><g class="subplot x2y2"><g class="layer-subplot"><g class="shapelayer"/><g class="imagelayer"/></g><g class="gridlayer"><g class="x2"><path class="x2grid crisp" transform="translate(370.1548002333042,0)" d="M0,63.83858267716535v356.5936679790026" style="stroke: rgb(0, 0, 0); stroke-opacity: 0.1; stroke-width: 0.5px;"/><path class="x2grid crisp" transform="translate(414.85480023330416,0)" d="M0,63.83858267716535v356.5936679790026" style="stroke: rgb(0, 0, 0); stroke-opacity: 0.1; stroke-width: 0.5px;"/><path class="x2grid crisp" transform="translate(459.55480023330415,0)" d="M0,63.83858267716535v356.5936679790026" style="stroke: rgb(0, 0, 0); stroke-opacity: 0.1; stroke-width: 0.5px;"/><path class="x2grid crisp" transform="translate(504.2548002333042,0)" d="M0,63.83858267716535v356.5936679790026" style="stroke: rgb(0, 0, 0); stroke-opacity: 0.1; stroke-width: 0.5px;"/><path class="x2grid crisp" transform="translate(548.9548002333042,0)" d="M0,63.83858267716535v356.5936679790026" style="stroke: rgb(0, 0, 0); stroke-opacity: 0.1; stroke-width: 0.5px;"/><path class="x2grid crisp" transform="translate(593.6648002333042,0)" d="M0,63.83858267716535v356.5936679790026" style="stroke: rgb(0, 0, 0); stroke-opacity: 0.1; stroke-width: 0.5px;"/></g><g class="y2"><path class="y2grid crisp" transform="translate(0,410.33858267716533)" d="M363.4648002333042,0h236.90002916302123" style="stroke: rgb(0, 0, 0); stroke-opacity: 0.1; stroke-width: 0.5px;"/><path class="y2grid crisp" transform="translate(0,337.9085826771653)" d="M363.4648002333042,0h236.90002916302123" style="stroke: rgb(0, 0, 0); stroke-opacity: 0.1; stroke-width: 0.5px;"/><path class="y2grid crisp" transform="translate(0,265.46858267716533)" d="M363.4648002333042,0h236.90002916302123" style="stroke: rgb(0, 0, 0); stroke-opacity: 0.1; stroke-width: 0.5px;"/><path class="y2grid crisp" transform="translate(0,193.02858267716533)" d="M363.4648002333042,0h236.90002916302123" style="stroke: rgb(0, 0, 0); stroke-opacity: 0.1; stroke-width: 0.5px;"/><path class="y2grid crisp" transform="translate(0,120.59858267716535)" d="M363.4648002333042,0h236.90002916302123" style="stroke: rgb(0, 0, 0); stroke-opacity: 0.1; stroke-width: 0.5px;"/></g></g><g class="zerolinelayer"/><path class="xlines-below"/><path class="ylines-below"/><g class="overlines-below"/><g class="xaxislayer-below"/><g class="yaxislayer-below"/><g class="overaxes-below"/><g class="plot" transform="translate(363.4648002333042,63.83858267716535)" clip-path="url('#clip358374x2y2plot')"><g class="scatterlayer mlayer"><g class="trace scatter trace0a2886" style="stroke-miterlimit: 2; opacity: 1;"><g class="fills"/><g class="errorbars"/><g class="lines"><path class="js-line" d="M6.7,346.35L7.35,346.42L7.4,346.04L7.42,345.77L7.61,346.46L8.03,344.36L8.16,346.36L8.18,346.39L8.3,344.68L8.31,342.85L8.33,331.71L8.88,346.37L9.04,345.53L9.06,345.76L9.3,346.08L9.46,345.04L9.48,344.93L9.61,346.15L9.88,329.2L9.89,324.09L9.97,95.31L10.16,324.02L10.18,327.51L10.64,345.47L10.97,342.63L10.98,343.22L11.04,345.51L11.44,334.87L11.46,332.61L11.59,169.29L11.73,315.93L11.74,318.9L12.16,345.7L12.63,343.9L12.65,344.53L13.05,346.11L13.19,332.56L13.2,329.68L13.23,317.86L13.25,10.09L13.42,345.51L14.01,338.25L14.02,337.62L14.44,345.14L14.82,316.15L14.84,310.81L14.9,149.58L15.44,344.51L15.45,345.24L15.93,345.66L16.08,343.45L16.09,343.26L16.37,344.29L16.45,336.83L16.46,334.4L16.51,314.18L16.52,222.76L17.28,344.84L17.3,344.8L17.31,344.64L17.55,341.99L17.69,345L17.7,345.62L17.72,346.24L18.09,335.44L18.1,333.62L18.16,313.33L18.18,108.5L18.76,345.68L18.94,338.94L18.95,338.51L18.98,338.19L19.26,343.15L19.28,343.8L19.31,344.57L19.79,336.92L19.8,336.93L19.82,330.38L19.83,273.91L20.46,345.2L20.56,343.93L20.58,344.04L20.74,346.19L21.4,345.7L21.41,345.55L21.48,329.98L21.96,341.64L21.98,342.15L22.57,346.37L22.74,343.48L22.75,343.12L23.08,340.91L23.12,344.71L23.14,343L23.15,327.95L23.94,345.97L23.96,346.01L24.18,343.44L24.3,345.26L24.32,345.48L24.38,345.91L24.72,339.73L24.73,338.02L24.81,313.77L24.82,246.75L24.84,220.48L25.28,345.71L25.49,342.66L25.51,342.54L26.13,346.2L26.34,345.65L26.36,344.47L26.39,345.45L26.51,312.07L26.52,200.99L27.03,346.34L27.3,345.61L27.31,345.71L27.37,346.46L27.65,341.51L27.67,340.67L28.03,343.82L28.19,278.07L28.2,85.08L28.22,84.78L28.23,230.46L29.01,344.93L29.02,344.82L29.04,344.63L29.25,346.34L29.89,329.09L29.9,294.55L29.92,221.28L30.48,344.65L30.63,342.77L30.65,343.16L31.27,346.36L31.29,345.14L31.3,335.54L31.63,92.47L31.91,342.33L31.93,342.7L32.08,341.98L32.5,346.28L32.97,345.32L32.99,344.89L33.03,345.23L33.31,340.29L33.33,338.46L33.36,318.82L33.37,233.43L34.1,346.15L34.16,346L34.18,346.01L34.36,346.12L34.63,344.21L34.83,345.65L34.85,345.76L34.88,345.82L35.09,329.77L35.34,345.65L35.36,345.61L35.91,346.32L36.18,345.95L36.19,345.7L36.53,346.35L36.82,339.56L36.83,330.05L36.86,315.97L37.17,346.31L37.59,346.24L37.61,346.23L37.92,346.18L37.93,345.91L37.95,345.56L38.44,346.34L38.56,339.97L38.57,338.28L38.62,245.86L38.72,338.86L38.74,339.93L39.51,346.21L39.57,345.79L39.59,345.87L39.84,346.15L40.36,342.57L40.38,343.63L40.39,324.8L40.42,321.61L40.76,346.31L41.17,345.71L41.18,345.76L41.29,342.98L41.33,345.6L41.35,346.07L41.49,344.75L41.79,346.44L42,345.57L42.02,345.41L42.17,341.57L42.18,275.68L42.21,271.24L42.82,344.29L42.95,341.1L42.97,338.91L43.39,345.64L43.71,343.47L43.73,343.32L43.97,331.39L43.98,255.87L44.03,234.91L44.62,345.53L44.77,344.55L44.79,344.55L44.85,345.08L45.79,325.86L45.8,327.41L45.82,286.17L45.86,161.15L46.37,344.88L46.74,343.91L46.75,343.63L46.89,343.38L47.48,344.85L47.51,343.77L47.53,343.45L47.63,331.38L47.65,289.38L47.69,182.95L48.01,345.74L48.42,345.63L48.44,345.63L48.72,346.34L49.06,345.19L49.08,345.21L49.09,345.16L49.12,345.44L49.45,341.92L49.47,341.48L49.56,307.5L49.66,344.89L50.05,344.66L50.06,344.96L50.4,344.36L50.87,345.8L50.88,345.67L50.9,345.59L51.13,345.69L51.4,343.94L51.42,333.56L51.43,329.14L51.94,346.22L52.13,345.85L52.15,345.75L52.54,346.34L52.82,345.65L52.88,345.94L52.89,345.57L53.09,336.38L53.1,333.74L53.13,277.2L53.34,345.44L53.67,339.4L53.68,338.35L53.92,341.22L54.25,331.42L54.47,336L54.49,337.22L54.67,345.45L54.83,335.9L55.25,340.78L55.26,335.77L55.31,345.6L56.04,344.51L56.05,344.62L56.44,342.26L56.45,342.04L56.56,337.69L56.57,326.74L56.59,279.37L56.84,343.74L57.3,333.28L57.32,335.85L58,346.44L58.09,346.18L58.11,346.16L58.21,346.45L58.27,345.71L58.29,346.11L58.3,343.18L58.66,346.4L58.97,342.15L58.99,341.77L59.17,266.6L59.21,322.56L59.23,328.84L60.01,345.59L60.03,340.82L60.61,345.76L60.79,345.02L60.8,345.19L60.83,345.36L61.03,343.71L61.04,343.99L61.06,340.45L61.16,298.78L61.76,346.49L61.86,344.91L61.88,344.93L62.35,345.94L62.62,344.97L62.64,344.94L62.98,342.41L62.99,341.88L63.14,317.74L63.16,294.67L63.83,346.05L63.93,346.01L63.95,346.13L64.83,346.41L64.9,346.21L64.92,346.1L65.05,345.49L65.07,346.04L65.08,339.19L65.18,336.06L65.42,346.43L65.86,346.12L65.87,346.18L65.9,346.39L66.3,345.56L66.57,345.9L66.59,345.89L67,345.12L67.02,344.39L67.12,330.96L67.55,346.46L67.63,346.35L67.64,346.31L67.76,346.45L68.76,345.77L68.78,344.6L69.18,341.69L69.54,346.28L69.59,346.08L69.61,346.07L69.85,346.48L70.38,345.92L70.41,346.02L70.43,346.07L70.53,345.9L71.07,346.46L71.17,346L71.19,345.79L71.28,338.54L71.47,346.3L71.8,346L71.81,345.97L72.01,346.1L72.32,345.07L72.35,345.23L72.37,342.58L73.14,346.47L73.22,346.27L73.23,346.24L73.36,345.27L73.38,343.45L73.53,342.64L73.95,346.26L74.12,345.41L74.14,344.28L74.17,343.85L74.32,346.43L74.75,346.21L74.77,346.21L75.3,346.48L75.47,345.95L75.48,345.31L75.63,323.95L76.06,346.25L76.21,346.07L76.23,346.08L76.34,346.31L76.9,345.75L76.94,345.8L76.96,345.83L77.33,345.11L77.51,346.24L77.64,345.58L77.66,341.62L77.7,345.44L77.82,327.84L78.42,344.31L78.43,344.27L79.04,344.75L79.46,333.42L79.47,340.01L79.49,342.53L79.58,293.7L79.85,343.29L80.23,342.39L80.25,342.77L80.38,344.58L80.68,342.12L81.05,344.22L81.07,344.07L81.38,340.78L81.78,345.4L81.8,345.43L81.9,345.81L82.04,343.22L82.05,337.29L82.23,335.34L82.68,346.31L82.69,346.29L82.71,346.31L83.09,344.41L83.11,341.84L83.21,313.67L83.85,345.91L83.87,345.9L84.03,346.16L84.27,344.51L84.29,341.03L84.42,346L84.49,332.53L84.99,345.37L85,345.69L85.03,341.76L85.24,345.96L85.73,345.78L85.75,345.8L86.12,345.88L86.71,341.64L86.73,335.24L86.74,326.66L87.21,346.31L87.46,345.97L87.47,345.95L88.34,346.12L88.38,345.98L88.4,345.83L88.59,345.02L88.61,345.49L88.62,344.63L88.73,341.76L89.19,346.24L89.44,346.08L89.46,346.04L90.32,346.29L90.33,346.21L90.53,346.37L91.12,344.88L91.15,345.85L91.17,346.14L91.32,346.03L91.33,346.09L91.35,344.15L91.69,346.47L92.14,346.34L92.15,346.3L93.08,346.13L93.09,346.07L93.23,346.21L93.55,345.28L93.57,345.23L93.72,337.42L93.94,345.85L93.96,345.89L94.43,345.29L94.88,346.48L95.04,346.39L95.06,346.38L95.8,343.28L95.88,345.47L95.89,345.76L96.07,338.46L96.67,346.27L96.68,346.17L97.84,346.04L97.86,345.99L98.16,344.71L98.17,344.14L98.5,332.91L98.89,345.96L98.9,345.96L98.92,346.01L99.83,346.13L99.9,345.96L99.92,345.93L100.08,343.17L100.5,346.43L100.66,345.42L100.68,345.57L100.73,345.77L100.88,345.23L100.9,341.38L100.91,340.31L101.35,346.33L101.6,346.28L101.61,346.26L101.93,346.47L102,346.05L102.02,345.38L102.52,346.45L102.82,346.06L102.84,346.04L103,344.8L103.01,345.47L103.03,340.43L103.28,345.72L103.79,343.17L103.8,340.77L103.92,335.49L104.15,345.11L104.27,344.72L104.28,345.1L104.34,345.9L104.73,344.87L105.01,345.39L105.03,345.08L105.06,345.89L105.53,342.02L105.71,342.42L105.73,342.1L105.89,337.64L105.9,335.49L105.93,330.9L106.56,345.02L106.58,344.97L106.59,344.97L106.65,344.76L106.8,345.67L107.19,345.55L107.2,345.66L107.51,345.79L107.57,345.28L107.59,343.86L107.8,337.48L108.21,346.32L108.36,345.92L108.38,345.83L108.41,343.04L108.84,346.45L109.09,346.26L109.11,346.31L109.72,346.38L109.73,345.78L109.75,345.7L110.48,346.45L110.52,346.25L110.54,346.33L110.93,346.36L110.96,345.97L110.97,345.28L111.45,346.32L111.69,345.7L111.7,345.25L111.73,343.49L112.21,346.49L112.25,346.47L112.27,346.46L113.43,346.15L113.44,345.78L113.76,343.82L114.14,346.29L114.16,346.23L114.17,346.25L115.63,345.96L115.65,345.61L115.92,346.34L116.16,343.82L116.44,346.07L116.45,346.01L117.41,346.28L117.42,346.13L118.2,346.14L118.23,346.08L118.24,345.83L118.41,346.48L118.79,343.72L118.97,346.01L118.99,346.02L119.4,345.96L119.48,345.57L119.49,346.31L119.72,344.44L120.18,346.46L120.22,346.43L120.24,346.42L120.86,345.73L120.88,345.55L121.03,346.41L121.46,340.47L121.62,345.97L121.64,346.15L122.47,346.46L122.49,346.48L123.53,346.14L123.55,345.48L123.77,346.46L124.14,342.99L124.29,345.57L124.31,345.66L124.84,346.22L125.18,346.05L125.2,346.05L125.62,345.91L125.63,345.55L125.65,345.03L125.83,346.35L126.45,346.09L126.47,346.09L126.66,346.15L126.82,345.53L126.84,345.38L126.9,341.96L127.3,346.25L127.46,346.12L127.48,346.13L127.72,346.38L127.84,345.75L128.19,346.35L128.21,346.36L129.34,345.63L129.36,345.56L129.68,342.81L129.7,342.38L129.98,327.05L130.37,345.82L130.38,345.89L131.2,346.41L131.23,346.4L131.25,346.39L132.05,345.76L132.07,346.06L132.08,345.06L132.46,342.87L132.77,346.42L132.78,346.43L133.87,345.87L133.89,345.19L134.15,344.42L134.74,346.43L134.75,346.46L135.27,345.79L135.29,345.49L136.14,346.47L136.15,346.32L136.31,345.99L136.91,346.44L136.93,346.45L138.33,346.37L138.34,344.93L138.36,344.41L138.79,346.49L139.03,346.46L139.04,346.47L140.99,345.77L141.01,345.38L141.93,346.45L141.95,346.46L143.9,345.68L143.91,345.48L144.79,346.45L144.81,346.47L146.79,345.74L146.8,345.48L146.86,343.32L147.38,346.45L147.4,346.45L147.41,346.46L149.14,346.04L149.16,345.74L149.4,346.45L149.8,344.17L149.9,345.72L149.92,345.81L150.78,346.45L150.81,346.37L150.83,346.36L153.06,345.72L153.09,345.87L153.11,345.41L153.58,331.3L153.75,342L153.76,342.33L154.58,345.91L154.7,345.84L154.72,345.75L154.92,345.18L154.98,346.29L155.56,345.46L155.58,345.5L155.92,344.44L156.26,345.95L156.28,345.98L157.49,346.42L157.5,346.43L168.23,346.44L168.24,346.43L168.97,346.42L169.02,346.46L169.03,346.47L171.58,346.34L171.6,346.06L171.61,345.77L172.61,346.48L172.62,346.48L177.08,346.04L177.09,346.01L178.05,346.14L178.12,345.61L178.14,345.47L178.54,346.42L178.72,339.45L178.87,344.96L178.88,345.22L179.73,346.46L179.75,346.46L188,346.49L188.02,346.49L210.57,345.88L210.59,345.74L211.54,346.49L211.56,346.49L221.43,346.49L221.45,346.5L225.92,346.49L225.93,346.5L229.44,346.29L229.45,346.31L230.2,346.46" style="vector-effect: non-scaling-stroke; fill: none; stroke: rgb(255, 165, 0); stroke-opacity: 1; stroke-width: 1px; opacity: 1;"/></g><g class="points"/><g class="text"/></g></g></g><g class="overplot"/><path class="xlines-above crisp" d="M362.4648002333042,420.9322506561679H600.3648293963254" style="fill: none; stroke-width: 1px; stroke: rgb(0, 0, 0); stroke-opacity: 1;"/><path class="ylines-above crisp" d="M362.9648002333042,63.83858267716535V420.4322506561679" style="fill: none; stroke-width: 1px; stroke: rgb(0, 0, 0); stroke-opacity: 1;"/><g class="overlines-above"/><g class="xaxislayer-above"><path class="x2tick ticks crisp" d="M0,420.4322506561679v-5" transform="translate(370.1548002333042,0)" style="stroke: rgb(0, 0, 0); stroke-opacity: 1; stroke-width: 1px;"/><path class="x2tick ticks crisp" d="M0,420.4322506561679v-5" transform="translate(414.85480023330416,0)" style="stroke: rgb(0, 0, 0); stroke-opacity: 1; stroke-width: 1px;"/><path class="x2tick ticks crisp" d="M0,420.4322506561679v-5" transform="translate(459.55480023330415,0)" style="stroke: rgb(0, 0, 0); stroke-opacity: 1; stroke-width: 1px;"/><path class="x2tick ticks crisp" d="M0,420.4322506561679v-5" transform="translate(504.2548002333042,0)" style="stroke: rgb(0, 0, 0); stroke-opacity: 1; stroke-width: 1px;"/><path class="x2tick ticks crisp" d="M0,420.4322506561679v-5" transform="translate(548.9548002333042,0)" style="stroke: rgb(0, 0, 0); stroke-opacity: 1; stroke-width: 1px;"/><path class="x2tick ticks crisp" d="M0,420.4322506561679v-5" transform="translate(593.6648002333042,0)" style="stroke: rgb(0, 0, 0); stroke-opacity: 1; stroke-width: 1px;"/><g class="x2tick"><text text-anchor="middle" x="0" y="434.6322506561679" transform="translate(370.1548002333042,0)" style="font-family: sans-serif; font-size: 11px; fill: rgb(0, 0, 0); fill-opacity: 1; white-space: pre;">0</text></g><g class="x2tick"><text text-anchor="middle" x="0" y="434.6322506561679" transform="translate(414.85480023330416,0)" style="font-family: sans-serif; font-size: 11px; fill: rgb(0, 0, 0); fill-opacity: 1; white-space: pre;">1000</text></g><g class="x2tick"><text text-anchor="middle" x="0" y="434.6322506561679" transform="translate(459.55480023330415,0)" style="font-family: sans-serif; font-size: 11px; fill: rgb(0, 0, 0); fill-opacity: 1; white-space: pre;">2000</text></g><g class="x2tick"><text text-anchor="middle" x="0" y="434.6322506561679" transform="translate(504.2548002333042,0)" style="font-family: sans-serif; font-size: 11px; fill: rgb(0, 0, 0); fill-opacity: 1; white-space: pre;">3000</text></g><g class="x2tick"><text text-anchor="middle" x="0" y="434.6322506561679" transform="translate(548.9548002333042,0)" style="font-family: sans-serif; font-size: 11px; fill: rgb(0, 0, 0); fill-opacity: 1; white-space: pre;">4000</text></g><g class="x2tick"><text text-anchor="middle" x="0" y="434.6322506561679" transform="translate(593.6648002333042,0)" style="font-family: sans-serif; font-size: 11px; fill: rgb(0, 0, 0); fill-opacity: 1; white-space: pre;">5000</text></g></g><g class="yaxislayer-above"><path class="y2tick ticks crisp" d="M363.4648002333042,0h5" transform="translate(0,410.33858267716533)" style="stroke: rgb(0, 0, 0); stroke-opacity: 1; stroke-width: 1px;"/><path class="y2tick ticks crisp" d="M363.4648002333042,0h5" transform="translate(0,337.9085826771653)" style="stroke: rgb(0, 0, 0); stroke-opacity: 1; stroke-width: 1px;"/><path class="y2tick ticks crisp" d="M363.4648002333042,0h5" transform="translate(0,265.46858267716533)" style="stroke: rgb(0, 0, 0); stroke-opacity: 1; stroke-width: 1px;"/><path class="y2tick ticks crisp" d="M363.4648002333042,0h5" transform="translate(0,193.02858267716533)" style="stroke: rgb(0, 0, 0); stroke-opacity: 1; stroke-width: 1px;"/><path class="y2tick ticks crisp" d="M363.4648002333042,0h5" transform="translate(0,120.59858267716535)" style="stroke: rgb(0, 0, 0); stroke-opacity: 1; stroke-width: 1px;"/><g class="y2tick"><text text-anchor="end" x="360.2648002333042" y="3.8499999999999996" transform="translate(0,410.33858267716533)" style="font-family: sans-serif; font-size: 11px; fill: rgb(0, 0, 0); fill-opacity: 1; white-space: pre;">0</text></g><g class="y2tick"><text text-anchor="end" x="360.2648002333042" y="3.8499999999999996" transform="translate(0,337.9085826771653)" style="font-family: sans-serif; font-size: 11px; fill: rgb(0, 0, 0); fill-opacity: 1; white-space: pre;">250</text></g><g class="y2tick"><text text-anchor="end" x="360.2648002333042" y="3.8499999999999996" transform="translate(0,265.46858267716533)" style="font-family: sans-serif; font-size: 11px; fill: rgb(0, 0, 0); fill-opacity: 1; white-space: pre;">500</text></g><g class="y2tick"><text text-anchor="end" x="360.2648002333042" y="3.8499999999999996" transform="translate(0,193.02858267716533)" style="font-family: sans-serif; font-size: 11px; fill: rgb(0, 0, 0); fill-opacity: 1; white-space: pre;">750</text></g><g class="y2tick"><text text-anchor="end" x="360.2648002333042" y="3.8499999999999996" transform="translate(0,120.59858267716535)" style="font-family: sans-serif; font-size: 11px; fill: rgb(0, 0, 0); fill-opacity: 1; white-space: pre;">1000</text></g></g><g class="overaxes-above"/></g></g><g class="polarlayer"/><g class="ternarylayer"/><g class="geolayer"/><g class="funnelarealayer"/><g class="pielayer"/><g class="treemaplayer"/><g class="sunburstlayer"/><g class="glimages"/><defs id="topdefs-358374"><g class="clips"/><clipPath id="legend358374"><rect width="73" height="58" x="0" y="0"/></clipPath></defs><g class="layer-above"><g class="imagelayer"/><g class="shapelayer"/></g><g class="infolayer"><g class="legend" pointer-events="all" transform="translate(615.08,60)"><rect class="bg" shape-rendering="crispEdges" style="stroke: rgb(68, 68, 68); stroke-opacity: 1; fill: rgb(255, 255, 255); fill-opacity: 1; stroke-width: 0px;" width="73" height="58" x="0" y="0"/><g class="scrollbox" transform="" clip-path="url('#legend358374')"><g class="groups" transform=""><g class="traces" transform="translate(0,14.5)" style="opacity: 1;"><text class="legendtext" text-anchor="start" x="40" y="4.680000000000001" style="font-family: 'Open Sans', verdana, arial, sans-serif; font-size: 12px; fill: rgb(42, 63, 95); fill-opacity: 1; white-space: pre;">Time</text><g class="layers" style="opacity: 1;"><g class="legendfill"/><g class="legendlines"><path class="js-line" d="M5,0h30" style="fill: none; stroke: rgb(0, 154, 250); stroke-opacity: 1; stroke-width: 1px;"/></g><g class="legendsymbols"><g class="legendpoints"/></g></g><rect class="legendtoggle" x="0" y="-9.5" width="67.84375" height="19" style="fill: rgb(0, 0, 0); fill-opacity: 0;"/></g></g><g class="groups" transform="translate(0,10)"><g class="traces" transform="translate(0,33.5)" style="opacity: 1;"><text class="legendtext" text-anchor="start" x="40" y="4.680000000000001" style="font-family: 'Open Sans', verdana, arial, sans-serif; font-size: 12px; fill: rgb(42, 63, 95); fill-opacity: 1; white-space: pre;">Freq</text><g class="layers" style="opacity: 1;"><g class="legendfill"/><g class="legendlines"><path class="js-line" d="M5,0h30" style="fill: none; stroke: rgb(255, 165, 0); stroke-opacity: 1; stroke-width: 1px;"/></g><g class="legendsymbols"><g class="legendpoints"/></g></g><rect class="legendtoggle" x="0" y="-9.5" width="67.84375" height="19" style="fill: rgb(0, 0, 0); fill-opacity: 0;"/></g></g></g><rect class="scrollbar" rx="20" ry="3" width="0" height="0" style="fill: rgb(128, 139, 164); fill-opacity: 1;" x="0" y="0"/></g><g class="g-gtitle"/><g class="g-xtitle"><text class="xtitle" x="204.9148148148148" y="462.140625" text-anchor="middle" style="font-family: sans-serif; font-size: 15px; fill: rgb(0, 0, 0); opacity: 1; font-weight: normal; white-space: pre;">t[s]</text></g><g class="g-x2title"><text class="x2title" x="481.9148148148148" y="462.140625" text-anchor="middle" style="font-family: sans-serif; font-size: 15px; fill: rgb(0, 0, 0); opacity: 1; font-weight: normal; white-space: pre;">f[hz]</text></g><g class="g-ytitle"/><g class="g-y2title"/></g></svg>