<svg class="main-svg" xmlns="http://www.w3.org/2000/svg" xmlns:xlink="http://www.w3.org/1999/xlink" width="700" height="500" style="" viewBox="0 0 700 500"><rect x="0" y="0" width="700" height="500" style="fill: rgb(255, 255, 255); fill-opacity: 1;"/><defs id="defs-cb03ab"><g class="clips"><clipPath id="clipcb03abxyplot" class="plotclip"><rect width="236.90002916302126" height="356.5936679790026"/></clipPath><clipPath id="clipcb03abx2y2plot" class="plotclip"><rect width="236.90002916302123" height="356.5936679790026"/></clipPath><clipPath class="axesclip" id="clipcb03abx"><rect x="86.46480023330417" y="0" width="236.90002916302126" height="500"/></clipPath><clipPath class="axesclip" id="clipcb03aby"><rect x="0" y="63.83858267716535" width="700" height="356.5936679790026"/></clipPath><clipPath class="axesclip" id="clipcb03abxy"><rect x="86.46480023330417" y="63.83858267716535" width="236.90002916302126" height="356.5936679790026"/></clipPath><clipPath class="axesclip" id="clipcb03aby2"><rect x="0" y="63.83858267716535" width="700" height="356.5936679790026"/></clipPath><clipPath class="axesclip" id="clipcb03abxy2"><rect x="86.46480023330417" y="63.83858267716535" width="236.90002916302126" height="356.5936679790026"/></clipPath><clipPath class="axesclip" id="clipcb03abx2"><rect x="363.4648002333042" y="0" width="236.90002916302123" height="500"/></clipPath><clipPath class="axesclip" id="clipcb03abx2y"><rect x="363.4648002333042" y="63.83858267716535" width="236.90002916302123" height="356.5936679790026"/></clipPath><clipPath class="axesclip" id="clipcb03abx2y2"><rect x="363.4648002333042" y="63.83858267716535" width="236.90002916302123" height="356.5936679790026"/></clipPath></g><g class="gradients"/></defs><g class="bglayer"/><g class="layer-below"><g class="imagelayer"/><g class="shapelayer"/></g><g class="cartesianlayer"><g class="subplot xy"><g class="layer-subplot"><g class="shapelayer"/><g class="imagelayer"/></g><g class="gridlayer"><g class="x"><path class="xgrid crisp" transform="translate(93.16480023330418,0)" d="M0,63.83858267716535v356.5936679790026" style="stroke: rgb(0, 0, 0); stroke-opacity: 0.1; stroke-width: 0.5px;"/><path class="xgrid crisp" transform="translate(167.66480023330416,0)" d="M0,63.83858267716535v356.5936679790026" style="stroke: rgb(0, 0, 0); stroke-opacity: 0.1; stroke-width: 0.5px;"/><path class="xgrid crisp" transform="translate(242.16480023330416,0)" d="M0,63.83858267716535v356.5936679790026" style="stroke: rgb(0, 0, 0); stroke-opacity: 0.1; stroke-width: 0.5px;"/><path class="xgrid crisp" transform="translate(316.66480023330416,0)" d="M0,63.83858267716535v356.5936679790026" style="stroke: rgb(0, 0, 0); stroke-opacity: 0.1; stroke-width: 0.5px;"/></g><g class="y"><path class="ygrid crisp" transform="translate(0,381.39858267716534)" d="M86.46480023330417,0h236.90002916302126" style="stroke: rgb(0, 0, 0); stroke-opacity: 0.1; stroke-width: 0.5px;"/><path class="ygrid crisp" transform="translate(0,303.55858267716536)" d="M86.46480023330417,0h236.90002916302126" style="stroke: rgb(0, 0, 0); stroke-opacity: 0.1; stroke-width: 0.5px;"/><path class="ygrid crisp" transform="translate(0,225.70858267716534)" d="M86.46480023330417,0h236.90002916302126" style="stroke: rgb(0, 0, 0); stroke-opacity: 0.1; stroke-width: 0.5px;"/><path class="ygrid crisp" transform="translate(0,147.86858267716536)" d="M86.46480023330417,0h236.90002916302126" style="stroke: rgb(0, 0, 0); stroke-opacity: 0.1; stroke-width: 0.5px;"/><path class="ygrid crisp" transform="translate(0,70.02858267716535)" d="M86.46480023330417,0h236.90002916302126" style="stroke: rgb(0, 0, 0); stroke-opacity: 0.1; stroke-width: 0.5px;"/></g></g><g class="zerolinelayer"/><path class="xlines-below"/><path class="ylines-below"/><g class="overlines-below"/><g class="xaxislayer-below"/><g class="yaxislayer-below"/><g class="overaxes-below"/><g class="plot" transform="translate(86.46480023330417,63.83858267716535)" clip-path="url('#clipcb03abxyplot')"><g class="scatterlayer mlayer"><g class="trace scatter trace8d3c5c" style="stroke-miterlimit: 2; opacity: 1;"><g class="fills"/><g class="errorbars"/><g class="lines"><path class="js-line" d="M6.7,161.87L6.88,164.67L6.9,158.12L6.91,157.71L7.58,185.86L7.66,124.41L7.67,117.94L7.87,346.5L8.05,10.09L8.42,204.32L8.43,205.7L8.51,287.33L8.98,78.63L9.18,154.79L9.19,152.93L9.67,339.46L9.88,30.82L9.94,111.16L9.95,110.65L9.96,83.76L10.44,268.28L10.7,151.71L10.71,157.2L11.4,31.57L11.46,307.12L11.46,307.01L11.47,306.34L11.76,26.43L12.22,229.44L12.23,231.11L12.25,263.6L12.83,64.2L12.98,189.23L12.99,189.65L13.39,311.78L13.55,41.81L13.74,179.4L13.75,179.75L13.86,85.83L14.19,256.73L14.5,101.14L14.51,100.33L14.85,41.29L15.23,307.68L15.26,246.39L15.27,244.74L15.36,34.79L15.87,246.12L16.02,183.11L16.03,181.79L16.53,26.58L16.74,263.68L16.78,125.75L16.79,121.87L17.04,286.51L17.22,57.84L17.54,171.07L17.55,169.84L17.82,226.75L18.21,66.16L18.3,88.45L18.31,80.36L18.33,12.92L18.85,307.13L19.06,83.57L19.07,85.55L19.1,44.61L19.58,227.43L19.82,225.81L19.83,227.11L19.94,234.58L20.13,20.25L20.58,183.48L20.59,188.84L20.68,308.46L20.87,57.02L21.34,171.52L21.35,173.27L21.38,247.35L21.93,24.49L22.1,109.97L22.11,116.45L22.49,322.18L22.72,22.03L22.86,151.72L22.87,145.66L23.52,232.79L23.6,78.13L23.62,148.78L23.63,154.95L23.73,46.6L24.29,322.47L24.38,201.08L24.39,195.13L24.52,40.76L25.09,226.19L25.14,158.65L25.15,158.38L25.34,247.06L25.53,40.98L25.9,175.18L25.91,175.35L26.13,323.37L26.35,46.62L26.66,181.1L26.67,178.45L27.11,251.26L27.33,50.18L27.42,134.69L27.43,132.08L27.93,307.06L28.15,41.12L28.18,99.94L28.19,99.94L28.24,85.37L28.68,264.78L28.94,242.79L28.95,241.35L29.3,68.47L29.7,239.04L29.71,242.28L29.73,298.25L29.96,63.8L30.46,243.48L30.47,246.47L30.72,261.57L31.14,82.43L31.22,118.48L31.23,118.2L31.54,278.99L31.84,57.72L31.98,116.21L31.99,114.3L32.08,100.54L32.4,257.3L32.73,119.15L32.74,116.12L32.91,83.52L33.44,271.68L33.49,228.12L33.5,225.76L33.64,56.78L34.2,266.06L34.25,117.72L34.26,119.48L34.46,220.95L34.79,86.05L35.01,186.95L35.02,187.21L35.25,292.65L35.44,44.68L35.77,120.99L35.78,117.1L35.78,109.26L35.87,240.33L36.53,115.15L36.54,113.44L37.06,298.18L37.24,49.81L37.29,127.46L37.3,125.44L37.33,69.09L37.8,240.85L38.05,182.73L38.06,184.3L38.4,85.7L38.59,229.03L38.81,223.28L38.82,227.53L38.86,288.81L39.14,49.01L39.57,221.02L39.58,224.21L39.59,245.03L40.16,90.2L40.33,94.87L40.34,95.5L40.75,298.8L40.94,44.17L41.09,147.26L41.1,148.38L41.21,112.19L41.41,222.8L41.85,144.57L41.86,147.9L42,72.48L42.55,295.36L42.61,173.73L42.62,170.72L42.74,25.68L43.21,215.97L43.37,201.6L43.38,202.96L43.55,211.16L43.94,72.01L44.13,149.91L44.14,148.16L44.36,313.36L44.54,59.83L44.89,156.12L44.9,154.11L45.35,215.99L45.61,75L45.65,144.96L45.66,145.89L46.15,311.86L46.35,53.37L46.41,125.93L46.42,121.9L46.44,82.56L47.17,218.89L47.18,220.42L47.53,61L47.93,276.05L47.93,275.8L47.94,275.48L47.95,276.05L48.24,72.34L48.69,201.42L48.7,202.23L48.99,226.64L49.21,70.87L49.45,134.77L49.46,135.99L49.86,285.61L50.05,67.67L50.21,117.2L50.22,117.39L50.79,225.3L50.88,106.72L50.97,120.56L50.98,117.89L51.22,64.1L51.67,284.02L51.73,156.22L51.74,154.01L51.87,67.55L52.44,213.63L52.49,164.04L52.5,165.17L52.6,251.66L53.01,68.57L53.25,117.61L53.26,116.47L53.48,281.57L53.68,71.84L54.01,134.51L54.02,135.4L54.33,101.92L54.39,248.52L54.77,108.23L54.78,102.61L54.79,71.36L55.26,286.55L55.53,120.23L55.54,119.73L55.61,100.99L56.06,259.39L56.29,193.01L56.3,194.2L56.6,65.64L57.05,255.56L57.06,258.85L57.07,272.39L57.29,94.89L57.81,177.84L57.82,183.29L57.87,233.66L58.41,75.01L58.57,172.55L58.58,177.55L58.87,272.4L59.23,90.65L59.33,165.6L59.34,165.77L59.68,237.83L60.07,103.94L60.09,127.35L60.1,127.84L60.33,78.02L60.74,257.07L60.85,181.23L60.86,178.61L61.05,76.36L61.45,248.06L61.61,188.51L61.62,187.05L61.81,213.41L62.12,85.33L62.37,144.49L62.38,144.52L62.6,261.08L62.82,87.19L63.13,202.05L63.14,199.64L63.26,230.32L63.89,99.64L63.9,99.26L64.38,261.31L64.62,83.46L64.64,123.36L64.65,122.75L64.86,91.8L65.4,243.1L65.41,244.16L65.41,244.8L65.72,77.05L66.16,233.19L66.17,233.38L66.24,288.19L66.53,82.42L66.92,204.7L66.93,207.52L67.21,241.16L67.53,62.95L67.68,147.84L67.69,148.32L68.04,273.1L68.33,74.77L68.44,104.64L68.45,102.75L68.46,96.69L68.87,222.84L69.2,111.46L69.21,110.01L69.34,91.73L69.84,276.69L69.96,184.12L69.97,179.45L70.12,74.22L70.55,226.94L70.72,147.03L70.73,145.47L70.84,209.4L71.15,87.32L71.48,165.48L71.49,165.01L71.64,256.2L71.92,44.9L72.24,146.73L72.25,145.27L72.34,225L73,105.63L73.01,105.04L73.54,261.36L73.72,62.96L73.76,123.46L73.77,126.38L74.07,104.97L74.13,223.54L74.52,191.2L74.53,190.32L74.78,99.33L75.28,225.05L75.29,229.11L75.33,273.98L75.54,76.68L76.04,190.8L76.05,193.29L76.07,222.88L76.7,87.4L76.8,162.42L76.81,162.89L77.11,277.51L77.34,92.74L77.56,143.05L77.57,145.74L77.69,113.18L77.75,218L78.32,162.61L78.33,162.28L78.5,82.65L78.93,264.9L79.08,186.81L79.09,182.5L79.33,95.8L79.68,221.22L79.84,163.1L79.85,162.94L79.96,202.27L80.3,78.05L80.6,159.78L80.61,158.47L80.74,261.14L81.13,86.84L81.36,175.04L81.37,174.03L81.48,205.7L82.11,71.9L82.12,108.06L82.13,112.79L82.45,103.05L82.63,247.46L82.88,148.94L82.89,146.1L82.93,75.01L83.57,208.82L83.64,158.96L83.65,160.56L83.89,86.54L84.4,226.24L84.41,226.73L84.42,230.49L84.74,85.64L85.16,200.09L85.17,199.79L85.62,205.69L85.81,92.85L85.92,135.93L85.93,135.51L86.32,236.51L86.55,64.49L86.68,130.43L86.69,129.86L86.78,121.24L87.3,207.84L87.44,166.34L87.45,163.52L87.61,79.44L88.12,254.69L88.2,136.53L88.21,133.27L88.34,85.93L88.96,211.23L88.97,212.69L88.97,214.65L89.4,80.67L89.72,143.71L89.73,143.06L89.94,268.98L90.15,80.93L90.48,155.41L90.49,157.73L90.65,203.62L91.18,93.89L91.24,128.81L91.25,129.26L91.73,268.05L91.95,101.58L92,113.82L92.01,113.56L92.01,113.13L92.43,225.85L92.76,148.14L92.77,150.03L93.1,90.5L93.52,252.99L93.53,255.11L93.56,260.85L93.82,100.11L94.28,161.81L94.29,161.29L94.47,212.79L94.92,105.48L95.04,186.21L95.05,187.02L95.14,108.33L95.33,257.11L95.8,149.69L95.81,149.26L95.84,117.05L96.27,215.85L96.56,149.59L96.57,147.22L96.72,97.04L97.14,242.75L97.32,172.42L97.33,171.12L97.44,96.58L97.83,203.55L98.08,201.64L98.09,201.06L98.49,105.64L98.67,209.63L98.84,140.29L98.85,138.43L98.98,229.65L99.3,106.93L99.6,181.17L99.61,184.4L100.12,205.42L100.36,108.85L100.37,108.25L100.39,96.19L100.82,231.62L101.12,117.51L101.13,119.17L101.35,107.2L101.55,204.25L101.88,176.14L101.89,176.76L102.19,80.21L102.62,232.44L102.64,199.87L102.65,198.26L102.69,224.92L102.92,107.13L103.4,171.73L103.41,169.96L103.57,206.78L103.99,57.55L104.16,154.55L104.17,156.1L104.5,229.04L104.7,97.3L104.92,147L104.93,143.23L104.95,110.79L105.38,206.77L105.68,136.54L105.69,138.74L105.79,70.42L106.32,231.1L106.44,182.41L106.45,179.95L106.62,94.37L106.93,196.91L107.2,190.92L107.21,190.76L107.41,205.99L107.6,61.11L107.96,145.77L107.97,146.55L108.12,236.18L108.42,100.09L108.72,180.51L108.73,181.53L108.83,197.25L109.41,80.04L109.48,121.96L109.49,122.49L110.03,235.76L110.23,103.83L110.24,119.41L110.25,121.71L110.46,118.26L111,204.63L111,204.45L111.01,204.19L111.23,94.07L111.71,215.97L111.76,188.33L111.77,189.47L111.81,250L112.01,107.99L112.52,175.85L112.53,177L112.79,225.04L113.04,90.51L113.28,178.8L113.29,177.22L113.62,245.18L113.81,111.33L114.04,136.84L114.05,135.65L114.07,112.75L114.47,213.74L114.8,143.69L114.81,142.6L114.86,100.44L115.43,241.55L115.56,179.11L115.57,177.7L115.84,118.09L116.26,215.24L116.32,144.29L116.33,144.34L116.41,196.15L116.78,110.66L117.08,177.7L117.09,179.69L117.24,237.66L117.53,112.93L117.84,174.93L117.85,174.16L117.94,203.78L118.58,103.35L118.6,125.47L118.61,127.65L119.06,223.36L119.31,99.46L119.36,146.14L119.37,145.86L119.57,119.68L119.71,212.31L120.12,166.13L120.13,165.87L120.35,99.88L120.87,212.38L120.88,203.76L120.89,203.05L120.94,233.78L121.12,113.15L121.64,192.54L121.65,192.55L122.16,97.67L122.35,205.64L122.4,151.94L122.41,150.67L122.71,230.09L122.93,113.06L123.16,137.59L123.17,138.17L123.26,120.71L123.32,210.55L123.92,141.58L123.93,141.2L123.98,101.24L124.51,220.86L124.68,145.04L124.69,142.62L124.8,112.58L125.14,197.2L125.44,193.44L125.45,193.59L125.46,193.98L125.86,96.76L126.2,151.09L126.21,150.96L126.43,226.96L126.61,113.09L126.96,179.24L126.97,177.3L127.49,199.33L127.68,94.78L127.72,135.5L127.73,139L128.22,229.52L128.41,112.75L128.48,139.5L128.49,137.81L128.65,102.86L128.91,196.26L129.24,181.37L129.25,183.5L129.48,77.88L130,226.6L130.01,227.25L130.03,230.11L130.46,104.79L130.76,163.92L130.77,163.16L130.85,205.07L131.28,85.22L131.52,157.68L131.53,158.05L131.81,234.89L132.12,115.4L132.28,120.27L132.29,120.61L132.3,120.52L132.9,210.94L133.04,145.81L133.05,144.73L133.09,91.13L133.72,214.87L133.8,132.67L133.81,132.98L134.1,110.49L134.31,205.55L134.56,179.48L134.57,179.94L134.89,107.61L135.16,196.28L135.32,142.29L135.33,141.68L135.52,234.42L135.89,116.22L136.08,181.69L136.09,182.76L136.34,199.55L136.78,108.92L136.84,162.65L136.85,161.77L137.33,236.83L137.54,117.92L137.6,157.92L137.61,158.39L137.71,102.1L138.15,197.5L138.36,180.47L138.37,181.76L138.57,97.65L139.12,225.73L139.12,225.4L139.13,225.19L139.51,108.87L139.88,156.98L139.89,157.1L139.96,208.1L140.37,99.06L140.64,169.9L140.65,170.77L140.94,227.1L141.17,102.82L141.4,146.4L141.41,145.5L141.75,200.03L142.16,120.39L142.17,120.2L142.18,119.08L142.73,223.87L142.92,146.06L142.93,143.89L143.13,115.94L143.54,201.53L143.68,174.42L143.69,173.09L143.87,201.05L144.07,104.55L144.44,135.74L144.45,135.33L144.57,226.8L144.78,115.48L145.2,195.78L145.21,195.32L145.69,208.07L145.87,97.72L145.96,139.21L145.97,138.97L146.5,216.36L146.58,120.57L146.72,139.33L146.73,139.4L146.83,121.52L147.48,213.02L147.49,214.2L147.49,215.99L147.66,106.65L148.24,190.7L148.25,191.57L148.31,219.15L148.74,115.4L149,183.81L149.01,184.17L149.29,212.12L149.48,107.42L149.76,160.65L149.77,161.28L150.1,223.01L150.52,115.99L150.53,114.29L150.54,105.32L151.11,196.31L151.28,127.9L151.29,128.88L151.36,115.53L151.91,235.48L152.04,148.76L152.05,148.87L152.34,110.55L152.64,199.05L152.8,148.84L152.81,148.9L152.98,202.47L153.18,112.97L153.56,168.14L153.57,169.74L153.71,226.54L154.14,116.99L154.32,174.67L154.33,172.99L154.41,199.3L154.99,112.86L155.08,156.23L155.09,156.79L155.52,226.52L155.81,124.12L155.84,160L155.85,160.78L155.95,114.78L156.34,202.32L156.6,195.51L156.61,195.49L156.82,114.58L157.32,220.55L157.36,203.26L157.37,204.58L157.39,223.51L157.81,121.65L158.12,185.09L158.13,185.65L158.41,199.55L158.6,112.04L158.88,161.18L158.89,159.47L159.19,237.75L159.6,114.23L159.64,136.38L159.65,136.96L160.22,199.29L160.4,129.88L160.41,128.91L160.44,111.58L161,227.7L161.16,152.12L161.17,149.91L161.41,109.38L161.74,184.62L161.92,151.02L161.93,150.84L162.23,108.78L162.45,194.63L162.68,157.3L162.69,157.33L162.71,156.65L162.74,167.99L162.74,169.17L162.81,239.63L163.21,110.57L163.49,173.96L163.5,174.11L163.86,198.13L164.17,109.18L164.25,180.32L164.26,179.27L164.61,221.18L165,114.62L165.01,118.22L165.02,118.81L165.45,191.19L165.77,182.88L165.78,182.22L165.97,101.59L166.42,211.27L166.53,183.04L166.54,182.13L166.81,119.76L167.22,189.76L167.29,173.59L167.3,173.27L167.58,202.57L167.75,112.36L168.05,174.27L168.06,173.64L168.3,208.68L168.62,126.55L168.81,164.8L168.82,164.87L169.37,219.15L169.57,111.18L169.58,111.13L170.07,211.61L170.33,172.68L170.34,173.34L170.53,127.29L170.88,190.36L171.09,145.64L171.1,145.78L171.17,210.97L171.36,114.34L171.85,193.96L171.86,195.76L171.88,208.7L172.33,126.65L172.61,164.65L172.62,165L172.98,216.54L173.27,116.48L173.37,151.67L173.38,151.12L173.59,132.26L173.78,215.76L174.13,138.34L174.14,137.95L174.51,206.79L174.7,129.62L174.89,175.13L174.9,174.24L175.06,106.9L175.62,213.06L175.65,180.17L175.66,178.46L175.97,127.88L176.32,202.71L176.41,176.24L176.42,177.37L176.58,192.97L176.86,104.96L177.17,139.98L177.18,138.26L177.41,219.73L177.83,125.47L177.93,155.22L177.94,156.11L178.12,205.54L178.67,108.46L178.69,125.19L178.7,126.7L179.21,216.74L179.45,167.37L179.46,167.35L179.58,130.36L179.9,196.86L180.21,168.62L180.22,170.65L180.26,198.12L180.47,115.71L180.97,182.51L180.98,183.45L181.04,215.3L181.51,123.83L181.73,179.23L181.74,177.76L181.82,199.57L182.32,118.08L182.49,165.22L182.5,166.22L182.82,210.66L183.2,133.33L183.25,148.46L183.26,146.63L183.28,122.79L183.62,196.58L184.01,169.51L184.02,169.04L184.12,117.99L184.68,213.42L184.77,175.24L184.78,174.63L185.09,117.27L185.42,193.07L185.53,169.22L185.54,168.95L186.06,115L186.16,192.51L186.29,156.13L186.3,154.85L186.5,209.17L186.9,109.9L187.05,146.29L187.06,148L187.22,195.41L187.73,116.9L187.81,138.55L187.82,137.49L187.87,123.2L188.29,204.35L188.57,139.22L188.58,139.11L188.7,112.69L189.11,197.82L189.33,170.58L189.34,171.34L189.45,196.13L189.68,109.99L190.09,189.94L190.1,189.67L190.14,201.04L190.51,122.63L190.85,173.47L190.86,174.75L191.24,200.64L191.49,115.25L191.61,170.86L191.62,170.86L191.66,177.33L191.69,165.55L191.69,164.81L191.98,207.27L192.31,128.15L192.44,142.84L192.45,143.75L192.51,140.27L193.07,203.73L193.2,156.15L193.21,156L193.29,114.66L193.78,217.55L193.96,142.14L193.97,141.52L194.2,126.27L194.51,201.17L194.72,163.41L194.73,163.99L194.87,203.3L195.07,121.83L195.48,155.36L195.49,155.2L195.58,211.54L195.97,137.95L196.24,152.85L196.25,153.96L196.69,209.39L196.93,117.16L197,146.79L197.01,147.92L197.29,137.12L197.5,207.58L197.76,143.2L197.77,142.93L197.9,132.28L198.49,199.57L198.52,176.51L198.53,175.78L198.75,119.91L199.28,208.12L199.29,208.16L199.59,133.99L200.04,175.65L200.05,174.85L200.31,192.57L200.55,117.45L200.8,171.31L200.81,171.26L200.9,117.78L201.08,206.08L201.56,149.7L201.57,150.91L201.81,201.02L202.32,128.11L202.33,126.76L202.7,116.36L202.9,204.75L203.08,170.41L203.09,170.83L203.3,134.62L203.6,207.59L203.84,151.7L203.85,152.71L204.25,116.58L204.43,202.93L204.6,162.87L204.61,162.38L204.7,201.07L205.14,134.4L205.36,172.1L205.37,174.34L205.4,196.6L206.05,107.41L206.12,151.29L206.13,150.44L206.15,139.09L206.53,195.36L206.88,149.9L206.89,149.2L207.12,132.34L207.22,194.03L207.64,181.19L207.65,181.34L207.83,113.48L208.04,199.59L208.4,184.57L208.41,183.27L208.92,127.52L209.02,191.2L209.16,179.82L209.17,179.54L209.46,196.8L209.75,119.15L209.92,162.57L209.93,161.98L210.16,196.88L210.59,130.12L210.68,157.23L210.69,157.19L210.73,122.24L211.25,198.32L211.44,124.1L211.45,124.17L211.55,111.01L212.01,196.02L212.2,167.57L212.21,167.98L212.53,125.15L212.79,196.29L212.96,150.89L212.97,149.95L213.16,192.93L213.36,115.43L213.72,159.06L213.73,159.64L213.78,193.2L214.2,121.47L214.48,176.44L214.49,176.28L214.6,209.26L215.16,110.08L215.24,152.59L215.25,153.85L215.66,189.7L216,134.25L216.01,134.28L216.17,130.08L216.39,206.8L216.76,192.23L216.77,192.25L216.99,114.65L217.52,180.16L217.53,179.46L218,124.76L218.2,203.04L218.28,172.91L218.29,173.31L218.56,203.31L218.8,116.72L219.04,167.61L219.05,166.96L219.27,194.07L219.79,116.99L219.8,127.05L219.81,128.23L219.99,201.07L220.56,131.54L220.57,131.37L220.63,122.69L221.07,193.78L221.32,177.22L221.33,177.5L221.6,123.73L221.9,192.4L222.08,148.39L222.09,148.6L222.18,190.86L222.44,113.26L222.84,179.63L222.85,179.88L223,193.61L223.39,119.99L223.6,181.28L223.61,180.93L223.69,199.42L224.27,123.64L224.36,153.37L224.37,153.77L224.78,193.51L225.07,127.43L225.12,175.74L225.13,175.3L225.31,130.16L225.47,198.91L225.88,172.05L225.89,172.46L226.05,122.56L226.57,189.04L226.64,183.29L226.65,182.44L227.1,128.21L227.28,197.63L227.4,167.01L227.41,167.96L227.75,180.27L227.93,119.59L228.16,155.89L228.17,154.14L228.59,191.44L228.9,130.46L228.92,140.65L228.93,141.62L229.11,202.66L229.68,133.75L229.69,133.13L229.73,119.38L229.92,190.69L230.2,173.69" style="vector-effect: non-scaling-stroke; fill: none; stroke: rgb(0, 154, 250); stroke-opacity: 1; stroke-width: 1px; opacity: 1;"/></g><g class="points"/><g class="text"/></g></g></g><g class="overplot"/><path class="xlines-above crisp" d="M85.46480023330417,420.9322506561679H323.36482939632543" style="fill: none; stroke-width: 1px; stroke: rgb(0, 0, 0); stroke-opacity: 1;"/><path class="ylines-above crisp" d="M85.96480023330417,63.83858267716535V420.4322506561679" style="fill: none; stroke-width: 1px; stroke: rgb(0, 0, 0); stroke-opacity: 1;"/><g class="overlines-above"/><g class="xaxislayer-above"><path class="xtick ticks crisp" d="M0,420.4322506561679v-5" transform="translate(93.16480023330418,0)" style="stroke: rgb(0, 0, 0); stroke-opacity: 1; stroke-width: 1px;"/><path class="xtick ticks crisp" d="M0,420.4322506561679v-5" transform="translate(167.66480023330416,0)" style="stroke: rgb(0, 0, 0); stroke-opacity: 1; stroke-width: 1px;"/><path class="xtick ticks crisp" d="M0,420.4322506561679v-5" transform="translate(242.16480023330416,0)" style="stroke: rgb(0, 0, 0); stroke-opacity: 1; stroke-width: 1px;"/><path class="xtick ticks crisp" d="M0,420.4322506561679v-5" transform="translate(316.66480023330416,0)" style="stroke: rgb(0, 0, 0); stroke-opacity: 1; stroke-width: 1px;"/><g class="xtick"><text text-anchor="middle" x="0" y="434.6322506561679" transform="translate(93.16480023330418,0)" style="font-family: sans-serif; font-size: 11px; fill: rgb(0, 0, 0); fill-opacity: 1; white-space: pre;">0</text></g><g class="xtick"><text text-anchor="middle" x="0" y="434.6322506561679" transform="translate(167.66480023330416,0)" style="font-family: sans-serif; font-size: 11px; fill: rgb(0, 0, 0); fill-opacity: 1; white-space: pre;">1</text></g><g class="xtick"><text text-anchor="middle" x="0" y="434.6322506561679" transform="translate(242.16480023330416,0)" style="font-family: sans-serif; font-size: 11px; fill: rgb(0, 0, 0); fill-opacity: 1; white-space: pre;">2</text></g><g class="xtick"><text text-anchor="middle" x="0" y="434.6322506561679" transform="translate(316.66480023330416,0)" style="font-family: sans-serif; font-size: 11px; fill: rgb(0, 0, 0); fill-opacity: 1; white-space: pre;">3</text></g></g><g class="yaxislayer-above"><path class="ytick ticks crisp" d="M86.46480023330417,0h5" transform="translate(0,381.39858267716534)" style="stroke: rgb(0, 0, 0); stroke-opacity: 1; stroke-width: 1px;"/><path class="ytick ticks crisp" d="M86.46480023330417,0h5" transform="translate(0,303.55858267716536)" style="stroke: rgb(0, 0, 0); stroke-opacity: 1; stroke-width: 1px;"/><path class="ytick ticks crisp" d="M86.46480023330417,0h5" transform="translate(0,225.70858267716534)" style="stroke: rgb(0, 0, 0); stroke-opacity: 1; stroke-width: 1px;"/><path class="ytick ticks crisp" d="M86.46480023330417,0h5" transform="translate(0,147.86858267716536)" style="stroke: rgb(0, 0, 0); stroke-opacity: 1; stroke-width: 1px;"/><path class="ytick ticks crisp" d="M86.46480023330417,0h5" transform="translate(0,70.02858267716535)" style="stroke: rgb(0, 0, 0); stroke-opacity: 1; stroke-width: 1px;"/><g class="ytick"><text text-anchor="end" x="83.26480023330417" y="3.8499999999999996" transform="translate(0,381.39858267716534)" style="font-family: sans-serif; font-size: 11px; fill: rgb(0, 0, 0); fill-opacity: 1; white-space: pre;">-0.2</text></g><g class="ytick"><text text-anchor="end" x="83.26480023330417" y="3.8499999999999996" transform="translate(0,303.55858267716536)" style="font-family: sans-serif; font-size: 11px; fill: rgb(0, 0, 0); fill-opacity: 1; white-space: pre;">-0.1</text></g><g class="ytick"><text text-anchor="end" x="83.26480023330417" y="3.8499999999999996" transform="translate(0,225.70858267716534)" style="font-family: sans-serif; font-size: 11px; fill: rgb(0, 0, 0); fill-opacity: 1; white-space: pre;">0.0</text></g><g class="ytick"><text text-anchor="end" x="83.26480023330417" y="3.8499999999999996" transform="translate(0,147.86858267716536)" style="font-family: sans-serif; font-size: 11px; fill: rgb(0, 0, 0); fill-opacity: 1; white-space: pre;">0.1</text></g><g class="ytick"><text text-anchor="end" x="83.26480023330417" y="3.8499999999999996" transform="translate(0,70.02858267716535)" style="font-family: sans-serif; font-size: 11px; fill: rgb(0, 0, 0); fill-opacity: 1; white-space: pre;">0.2</text></g></g><g class="overaxes-above"/></g><g class="subplot x2y2"><g class="layer-subplot"><g class="shapelayer"/><g class="imagelayer"/></g><g class="gridlayer"><g class="x2"><path class="x2grid crisp" transform="translate(370.1548002333042,0)" d="M0,63.83858267716535v356.5936679790026" style="stroke: rgb(0, 0, 0); stroke-opacity: 0.1; stroke-width: 0.5px;"/><path class="x2grid crisp" transform="translate(414.85480023330416,0)" d="M0,63.83858267716535v356.5936679790026" style="stroke: rgb(0, 0, 0); stroke-opacity: 0.1; stroke-width: 0.5px;"/><path class="x2grid crisp" transform="translate(459.55480023330415,0)" d="M0,63.83858267716535v356.5936679790026" style="stroke: rgb(0, 0, 0); stroke-opacity: 0.1; stroke-width: 0.5px;"/><path class="x2grid crisp" transform="translate(504.2548002333042,0)" d="M0,63.83858267716535v356.5936679790026" style="stroke: rgb(0, 0, 0); stroke-opacity: 0.1; stroke-width: 0.5px;"/><path class="x2grid crisp" transform="translate(548.9548002333042,0)" d="M0,63.83858267716535v356.5936679790026" style="stroke: rgb(0, 0, 0); stroke-opacity: 0.1; stroke-width: 0.5px;"/><path class="x2grid crisp" transform="translate(593.6648002333042,0)" d="M0,63.83858267716535v356.5936679790026" style="stroke: rgb(0, 0, 0); stroke-opacity: 0.1; stroke-width: 0.5px;"/></g><g class="y2"><path class="y2grid crisp" transform="translate(0,410.33858267716533)" d="M363.4648002333042,0h236.90002916302123" style="stroke: rgb(0, 0, 0); stroke-opacity: 0.1; stroke-width: 0.5px;"/><path class="y2grid crisp" transform="translate(0,342.7985826771653)" d="M363.4648002333042,0h236.90002916302123" style="stroke: rgb(0, 0, 0); stroke-opacity: 0.1; stroke-width: 0.5px;"/><path class="y2grid crisp" transform="translate(0,275.25858267716535)" d="M363.4648002333042,0h236.90002916302123" style="stroke: rgb(0, 0, 0); stroke-opacity: 0.1; stroke-width: 0.5px;"/><path class="y2grid crisp" transform="translate(0,207.72858267716532)" d="M363.4648002333042,0h236.90002916302123" style="stroke: rgb(0, 0, 0); stroke-opacity: 0.1; stroke-width: 0.5px;"/><path class="y2grid crisp" transform="translate(0,140.18858267716536)" d="M363.4648002333042,0h236.90002916302123" style="stroke: rgb(0, 0, 0); stroke-opacity: 0.1; stroke-width: 0.5px;"/><path class="y2grid crisp" transform="translate(0,72.64858267716535)" d="M363.4648002333042,0h236.90002916302123" style="stroke: rgb(0, 0, 0); stroke-opacity: 0.1; stroke-width: 0.5px;"/></g></g><g class="zerolinelayer"/><path class="xlines-below"/><path class="ylines-below"/><g class="overlines-below"/><g class="xaxislayer-below"/><g class="yaxislayer-below"/><g class="overaxes-below"/><g class="plot" transform="translate(363.4648002333042,63.83858267716535)" clip-path="url('#clipcb03abx2y2plot')"><g class="scatterlayer mlayer"><g class="trace scatter trace69840d" style="stroke-miterlimit: 2; opacity: 1;"><g class="fills"/><g class="errorbars"/><g class="lines"><path class="js-line" d="M6.7,346.37L8.08,346.48L8.16,346L8.18,345.79L8.52,340.84L8.58,346.47L8.75,346.28L8.76,346.22L9.49,345.77L9.51,345.69L9.52,345.66L9.97,342.05L9.98,341.56L10.3,320.34L10.31,312.31L10.36,10.09L10.62,343L10.64,342.96L10.98,345.48L11.23,342.82L11.41,343.71L11.43,343.67L11.62,343.13L11.64,342.65L12.1,345.3L12.16,323.67L12.17,284.14L12.19,224.98L12.58,346.36L12.89,344.15L12.9,343.97L13.11,341.06L13.22,343.62L13.23,343.95L13.35,346.35L13.92,344.19L13.93,343.62L13.99,332.35L14.01,211.06L14.45,346.02L14.77,345.53L14.78,345.57L14.9,346.19L15.03,345.3L15.48,345.66L15.5,345.6L15.75,337.95L15.76,335.82L15.82,309.61L15.84,146.17L16.6,345.18L16.61,345.3L16.73,346.33L17.06,344.66L17.27,344.72L17.28,344.56L17.6,336.53L17.61,334.77L17.67,239.57L17.73,339.51L17.75,341.6L18.53,345.73L18.55,345.79L18.65,346L18.89,344.72L18.91,344.64L19.34,344.81L19.49,341.68L19.5,337.43L19.52,250.75L19.65,346.44L20.23,346.25L20.25,346.22L21.29,346.08L21.31,345.45L21.37,340.63L21.92,346.4L22.07,346.18L22.08,346.19L22.71,346.46L22.87,346.07L22.89,346.06L23.12,345.29L23.14,343.07L23.17,346.29L23.21,328.69L23.9,346.06L23.91,346.08L24.79,345.55L24.81,345.48L25.05,339.81L25.06,335.33L25.08,301.89L25.24,346.01L25.79,345.64L25.81,345.63L26.61,345.09L26.63,344.96L26.89,338.54L26.91,335.78L26.95,238.02L27.28,346.4L27.47,345.75L27.49,345.76L28.47,344.88L28.49,344.74L28.74,336.82L28.76,334.61L28.82,281.63L29.35,345.78L29.38,345.78L29.4,345.81L30.13,345.61L30.14,345.52L30.47,344.71L30.48,343.53L30.53,344.43L30.71,331.89L30.72,249.63L31.29,345.72L31.48,345.52L31.5,345.55L32,344.8L32.02,344.78L32.39,341.75L32.41,341.42L32.57,328.56L32.58,321.3L32.63,248.65L33.27,345.62L33.29,345.67L34.12,344.76L34.13,343.89L34.3,345.56L34.52,315.57L34.54,195.39L35.19,346.05L35.3,345.77L35.31,345.79L35.95,346.39L36.06,345.73L36.07,345.73L36.4,342.61L36.41,341.53L36.47,296.65L36.77,345.66L36.79,345.71L37.71,346.35L37.73,346.34L38.22,346.27L38.31,345.93L38.32,345.82L38.4,342.67L38.41,335.01L39.05,346.49L39.22,346.44L39.23,346.44L40.27,345.59L40.29,345.45L40.36,334.66L40.78,346.38L40.79,346.38L41.55,346.4L41.57,346.36L41.58,346.06L41.69,346.5L42.18,345.52L42.2,345.36L42.3,337.44L42.31,327.06L42.33,315.5L42.88,346.31L43.01,346.23L43.03,346.28L44.07,345.51L44.09,345.4L44.28,341.96L44.3,338.23L44.33,290.42L45.01,346.14L45.03,346.1L45.31,345.8L45.32,344.9L45.41,345.9L46.08,345.78L46.1,345.73L46.25,344.25L46.26,341.33L46.32,322.17L46.86,346.46L46.96,346.32L46.98,346.4L48.26,345.9L48.27,344.58L48.29,325.15L48.6,346.43L49,346.03L49.02,346.05L49.06,344.67L49.14,346.33L49.7,346.03L49.72,346.01L50.29,344.8L50.3,341.74L50.67,346.47L50.97,341.05L51.09,346.39L51.1,346.39L52.31,345.19L52.33,345L52.43,323.2L52.59,345.68L52.61,345.68L52.62,345.71L52.83,346.22L52.85,345L53.44,345.9L53.46,345.8L54.41,345.89L54.43,340.19L54.44,340.41L54.47,336.22L54.49,320.26L54.5,316.61L54.8,346.41L55.16,346.08L55.17,346.11L56.35,346.29L56.41,346.18L56.42,346.15L56.57,345.27L56.59,343.1L56.75,346.42L57.35,346.15L57.36,346.12L57.87,345.79L58.14,345.98L58.15,345.89L58.32,346.08L58.52,344.73L58.54,344.88L58.55,333.28L59.3,346.35L59.31,346.16L59.33,346.15L60.3,345.24L60.42,345.48L60.43,345.78L60.7,346.27L60.83,341.4L61.16,345.99L61.18,345.8L62.38,344.85L62.4,345.3L62.41,345.68L62.49,346.04L62.89,342.4L62.95,343.27L62.96,341.47L62.99,335.09L63.2,346.46L63.69,346.06L63.71,346.06L64.28,346.02L64.29,345.84L64.31,344.59L64.48,346.39L65.05,345.33L65.07,342.4L65.17,333.56L65.74,346.47L65.83,346.45L65.84,346.45L66.23,346.2L66.24,345.68L66.38,346.47L67,346.09L67.02,346.04L67.23,344.81L67.24,342.43L67.35,315.61L68.06,346.16L68.08,346.18L68.19,345.79L68.75,346.26L68.76,346.32L69.43,346.19L69.45,345.21L69.57,331.71L70.12,346.46L70.19,346.37L70.21,346.35L71.67,345.65L71.68,345.23L71.81,334.59L72.07,346.39L72.25,346.23L72.26,346.23L73.26,346.48L73.28,346.47L73.98,346.24L74.01,346.01L74.02,345.79L74.05,344.48L74.26,346.48L74.74,346.48L74.75,346.46L77.97,346.34L77.98,346.06L78.52,345.08L78.61,346.44L78.74,346.39L78.76,346.37L79.91,346.5L79.92,346.47L79.94,346.34L79.98,346L80.22,346.47L80.68,346.37L80.7,346.34L80.86,345.1L80.98,345.52L80.99,344.61L81.01,340.8L81.6,346.48L81.72,346.44L81.74,346.43L81.92,346.01L81.93,345.21L81.95,345.04L82.11,346.48L82.54,346.4L82.56,346.41L83.29,345.83L83.3,345.64L83.38,338.97L83.51,346.09L83.53,346.13L83.85,346.39L83.94,346.01L83.96,344.73L84.11,346.48L84.72,346.41L84.73,346.4L85.54,346.08L85.55,345.99L85.57,345.83L85.76,334.71L86.3,346.24L86.31,346.24L86.33,346.22L87.21,346.42L87.22,346.41L87.24,346.39L87.46,346.4L87.65,345.77L87.67,345.73L87.86,343.7L87.88,342.69L87.98,320.37L88.64,345.89L88.65,345.89L89.23,346.15L89.4,345.86L89.41,345.76L89.5,345.43L89.92,346.4L89.96,345.81L89.98,344.01L90.11,346.47L90.74,346.35L90.75,346.33L91.77,346.35L91.82,346.24L91.84,346.2L92.02,343.93L92.03,339.58L92.05,337.99L92.53,346.46L92.69,346.4L92.7,346.4L93.08,345.81L93.09,345.18L93.11,342.79L93.64,346.45L93.82,346.43L93.84,346.43L96.12,346.14L96.13,345.11L96.91,346.49L96.92,346.48L96.94,346.48L103.27,346.11L103.28,345.73L104.07,346.5L104.09,346.5L105.56,346.11L105.58,345.66L105.79,346.45L106.37,346.34L106.38,346.34L106.55,345.44L106.74,346.43L106.75,346.45L106.8,346.25L107.51,346.47L107.53,346.47L108.53,345.85L108.54,345.35L109.17,346.49L109.32,346.48L109.33,346.48L115.04,346.09L115.05,345.65L115.83,346.47L115.84,346.42L115.86,346.41L116.63,345.71L116.65,345.57L116.69,345.38L117.11,346.48L117.26,346.37L117.27,346.39L119.12,346.43L119.14,346.38L120.34,346.49L120.36,346.49L230.2,346.5" style="vector-effect: non-scaling-stroke; fill: none; stroke: rgb(255, 165, 0); stroke-opacity: 1; stroke-width: 1px; opacity: 1;"/></g><g class="points"/><g class="text"/></g></g></g><g class="overplot"/><path class="xlines-above crisp" d="M362.4648002333042,420.9322506561679H600.3648293963254" style="fill: none; stroke-width: 1px; stroke: rgb(0, 0, 0); stroke-opacity: 1;"/><path class="ylines-above crisp" d="M362.9648002333042,63.83858267716535V420.4322506561679" style="fill: none; stroke-width: 1px; stroke: rgb(0, 0, 0); stroke-opacity: 1;"/><g class="overlines-above"/><g class="xaxislayer-above"><path class="x2tick ticks crisp" d="M0,420.4322506561679v-5" transform="translate(370.1548002333042,0)" style="stroke: rgb(0, 0, 0); stroke-opacity: 1; stroke-width: 1px;"/><path class="x2tick ticks crisp" d="M0,420.4322506561679v-5" transform="translate(414.85480023330416,0)" style="stroke: rgb(0, 0, 0); stroke-opacity: 1; stroke-width: 1px;"/><path class="x2tick ticks crisp" d="M0,420.4322506561679v-5" transform="translate(459.55480023330415,0)" style="stroke: rgb(0, 0, 0); stroke-opacity: 1; stroke-width: 1px;"/><path class="x2tick ticks crisp" d="M0,420.4322506561679v-5" transform="translate(504.2548002333042,0)" style="stroke: rgb(0, 0, 0); stroke-opacity: 1; stroke-width: 1px;"/><path class="x2tick ticks crisp" d="M0,420.4322506561679v-5" transform="translate(548.9548002333042,0)" style="stroke: rgb(0, 0, 0); stroke-opacity: 1; stroke-width: 1px;"/><path class="x2tick ticks crisp" d="M0,420.4322506561679v-5" transform="translate(593.6648002333042,0)" style="stroke: rgb(0, 0, 0); stroke-opacity: 1; stroke-width: 1px;"/><g class="x2tick"><text text-anchor="middle" x="0" y="434.6322506561679" transform="translate(370.1548002333042,0)" style="font-family: sans-serif; font-size: 11px; fill: rgb(0, 0, 0); fill-opacity: 1; white-space: pre;">0</text></g><g class="x2tick"><text text-anchor="middle" x="0" y="434.6322506561679" transform="translate(414.85480023330416,0)" style="font-family: sans-serif; font-size: 11px; fill: rgb(0, 0, 0); fill-opacity: 1; white-space: pre;">1000</text></g><g class="x2tick"><text text-anchor="middle" x="0" y="434.6322506561679" transform="translate(459.55480023330415,0)" style="font-family: sans-serif; font-size: 11px; fill: rgb(0, 0, 0); fill-opacity: 1; white-space: pre;">2000</text></g><g class="x2tick"><text text-anchor="middle" x="0" y="434.6322506561679" transform="translate(504.2548002333042,0)" style="font-family: sans-serif; font-size: 11px; fill: rgb(0, 0, 0); fill-opacity: 1; white-space: pre;">3000</text></g><g class="x2tick"><text text-anchor="middle" x="0" y="434.6322506561679" transform="translate(548.9548002333042,0)" style="font-family: sans-serif; font-size: 11px; fill: rgb(0, 0, 0); fill-opacity: 1; white-space: pre;">4000</text></g><g class="x2tick"><text text-anchor="middle" x="0" y="434.6322506561679" transform="translate(593.6648002333042,0)" style="font-family: sans-serif; font-size: 11px; fill: rgb(0, 0, 0); fill-opacity: 1; white-space: pre;">5000</text></g></g><g class="yaxislayer-above"><path class="y2tick ticks crisp" d="M363.4648002333042,0h5" transform="translate(0,410.33858267716533)" style="stroke: rgb(0, 0, 0); stroke-opacity: 1; stroke-width: 1px;"/><path class="y2tick ticks crisp" d="M363.4648002333042,0h5" transform="translate(0,342.7985826771653)" style="stroke: rgb(0, 0, 0); stroke-opacity: 1; stroke-width: 1px;"/><path class="y2tick ticks crisp" d="M363.4648002333042,0h5" transform="translate(0,275.25858267716535)" style="stroke: rgb(0, 0, 0); stroke-opacity: 1; stroke-width: 1px;"/><path class="y2tick ticks crisp" d="M363.4648002333042,0h5" transform="translate(0,207.72858267716532)" style="stroke: rgb(0, 0, 0); stroke-opacity: 1; stroke-width: 1px;"/><path class="y2tick ticks crisp" d="M363.4648002333042,0h5" transform="translate(0,140.18858267716536)" style="stroke: rgb(0, 0, 0); stroke-opacity: 1; stroke-width: 1px;"/><path class="y2tick ticks crisp" d="M363.4648002333042,0h5" transform="translate(0,72.64858267716535)" style="stroke: rgb(0, 0, 0); stroke-opacity: 1; stroke-width: 1px;"/><g class="y2tick"><text text-anchor="end" x="360.2648002333042" y="3.8499999999999996" transform="translate(0,410.33858267716533)" style="font-family: sans-serif; font-size: 11px; fill: rgb(0, 0, 0); fill-opacity: 1; white-space: pre;">0</text></g><g class="y2tick"><text text-anchor="end" x="360.2648002333042" y="3.8499999999999996" transform="translate(0,342.7985826771653)" style="font-family: sans-serif; font-size: 11px; fill: rgb(0, 0, 0); fill-opacity: 1; white-space: pre;">500</text></g><g class="y2tick"><text text-anchor="end" x="360.2648002333042" y="3.8499999999999996" transform="translate(0,275.25858267716535)" style="font-family: sans-serif; font-size: 11px; fill: rgb(0, 0, 0); fill-opacity: 1; white-space: pre;">1000</text></g><g class="y2tick"><text text-anchor="end" x="360.2648002333042" y="3.8499999999999996" transform="translate(0,207.72858267716532)" style="font-family: sans-serif; font-size: 11px; fill: rgb(0, 0, 0); fill-opacity: 1; white-space: pre;">1500</text></g><g class="y2tick"><text text-anchor="end" x="360.2648002333042" y="3.8499999999999996" transform="translate(0,140.18858267716536)" style="font-family: sans-serif; font-size: 11px; fill: rgb(0, 0, 0); fill-opacity: 1; white-space: pre;">2000</text></g><g class="y2tick"><text text-anchor="end" x="360.2648002333042" y="3.8499999999999996" transform="translate(0,72.64858267716535)" style="font-family: sans-serif; font-size: 11px; fill: rgb(0, 0, 0); fill-opacity: 1; white-space: pre;">2500</text></g></g><g class="overaxes-above"/></g></g><g class="polarlayer"/><g class="ternarylayer"/><g class="geolayer"/><g class="funnelarealayer"/><g class="pielayer"/><g class="treemaplayer"/><g class="sunburstlayer"/><g class="glimages"/><defs id="topdefs-cb03ab"><g class="clips"/><clipPath id="legendcb03ab"><rect width="73" height="58" x="0" y="0"/></clipPath></defs><g class="layer-above"><g class="imagelayer"/><g class="shapelayer"/></g><g class="infolayer"><g class="legend" pointer-events="all" transform="translate(615.08,60)"><rect class="bg" shape-rendering="crispEdges" width="73" height="58" x="0" y="0" style="stroke: rgb(68, 68, 68); stroke-opacity: 1; fill: rgb(255, 255, 255); fill-opacity: 1; stroke-width: 0px;"/><g class="scrollbox" transform="" clip-path="url('#legendcb03ab')"><g class="groups" transform=""><g class="traces" transform="translate(0,14.5)" style="opacity: 1;"><text class="legendtext" text-anchor="start" x="40" y="4.680000000000001" style="font-family: 'Open Sans', verdana, arial, sans-serif; font-size: 12px; fill: rgb(42, 63, 95); fill-opacity: 1; white-space: pre;">Time</text><g class="layers" style="opacity: 1;"><g class="legendfill"/><g class="legendlines"><path class="js-line" d="M5,0h30" style="fill: none; stroke: rgb(0, 154, 250); stroke-opacity: 1; stroke-width: 1px;"/></g><g class="legendsymbols"><g class="legendpoints"/></g></g><rect class="legendtoggle" x="0" y="-9.5" width="67.84375" height="19" style="fill: rgb(0, 0, 0); fill-opacity: 0;"/></g></g><g class="groups" transform="translate(0,10)"><g class="traces" transform="translate(0,33.5)" style="opacity: 1;"><text class="legendtext" text-anchor="start" x="40" y="4.680000000000001" style="font-family: 'Open Sans', verdana, arial, sans-serif; font-size: 12px; fill: rgb(42, 63, 95); fill-opacity: 1; white-space: pre;">Freq</text><g class="layers" style="opacity: 1;"><g class="legendfill"/><g class="legendlines"><path class="js-line" d="M5,0h30" style="fill: none; stroke: rgb(255, 165, 0); stroke-opacity: 1; stroke-width: 1px;"/></g><g class="legendsymbols"><g class="legendpoints"/></g></g><rect class="legendtoggle" x="0" y="-9.5" width="67.84375" height="19" style="fill: rgb(0, 0, 0); fill-opacity: 0;"/></g></g></g><rect class="scrollbar" rx="20" ry="3" width="0" height="0" x="0" y="0" style="fill: rgb(128, 139, 164); fill-opacity: 1;"/></g><g class="g-gtitle"/><g class="g-xtitle"><text class="xtitle" x="204.9148148148148" y="462.140625" text-anchor="middle" style="font-family: sans-serif; font-size: 15px; fill: rgb(0, 0, 0); opacity: 1; font-weight: normal; white-space: pre;">t[s]</text></g><g class="g-x2title"><text class="x2title" x="481.9148148148148" y="462.140625" text-anchor="middle" style="font-family: sans-serif; font-size: 15px; fill: rgb(0, 0, 0); opacity: 1; font-weight: normal; white-space: pre;">f[hz]</text></g><g class="g-ytitle"/><g class="g-y2title"/></g></svg>