<svg class="main-svg" xmlns="http://www.w3.org/2000/svg" xmlns:xlink="http://www.w3.org/1999/xlink" width="700" height="500" style="" viewBox="0 0 700 500"><rect x="0" y="0" width="700" height="500" style="fill: rgb(255, 255, 255); fill-opacity: 1;"/><defs id="defs-00b04b"><g class="clips"><clipPath id="clip00b04bxyplot" class="plotclip"><rect width="236.90002916302126" height="356.5936679790026"/></clipPath><clipPath id="clip00b04bx2y2plot" class="plotclip"><rect width="236.90002916302123" height="356.5936679790026"/></clipPath><clipPath class="axesclip" id="clip00b04bx"><rect x="86.46480023330417" y="0" width="236.90002916302126" height="500"/></clipPath><clipPath class="axesclip" id="clip00b04by"><rect x="0" y="63.83858267716535" width="700" height="356.5936679790026"/></clipPath><clipPath class="axesclip" id="clip00b04bxy"><rect x="86.46480023330417" y="63.83858267716535" width="236.90002916302126" height="356.5936679790026"/></clipPath><clipPath class="axesclip" id="clip00b04by2"><rect x="0" y="63.83858267716535" width="700" height="356.5936679790026"/></clipPath><clipPath class="axesclip" id="clip00b04bxy2"><rect x="86.46480023330417" y="63.83858267716535" width="236.90002916302126" height="356.5936679790026"/></clipPath><clipPath class="axesclip" id="clip00b04bx2"><rect x="363.4648002333042" y="0" width="236.90002916302123" height="500"/></clipPath><clipPath class="axesclip" id="clip00b04bx2y"><rect x="363.4648002333042" y="63.83858267716535" width="236.90002916302123" height="356.5936679790026"/></clipPath><clipPath class="axesclip" id="clip00b04bx2y2"><rect x="363.4648002333042" y="63.83858267716535" width="236.90002916302123" height="356.5936679790026"/></clipPath></g><g class="gradients"/></defs><g class="bglayer"/><g class="layer-below"><g class="imagelayer"/><g class="shapelayer"/></g><g class="cartesianlayer"><g class="subplot xy"><g class="layer-subplot"><g class="shapelayer"/><g class="imagelayer"/></g><g class="gridlayer"><g class="x"><path class="xgrid crisp" transform="translate(93.16480023330418,0)" d="M0,63.83858267716535v356.5936679790026" style="stroke: rgb(0, 0, 0); stroke-opacity: 0.1; stroke-width: 0.5px;"/><path class="xgrid crisp" transform="translate(167.66480023330416,0)" d="M0,63.83858267716535v356.5936679790026" style="stroke: rgb(0, 0, 0); stroke-opacity: 0.1; stroke-width: 0.5px;"/><path class="xgrid crisp" transform="translate(242.16480023330416,0)" d="M0,63.83858267716535v356.5936679790026" style="stroke: rgb(0, 0, 0); stroke-opacity: 0.1; stroke-width: 0.5px;"/><path class="xgrid crisp" transform="translate(316.66480023330416,0)" d="M0,63.83858267716535v356.5936679790026" style="stroke: rgb(0, 0, 0); stroke-opacity: 0.1; stroke-width: 0.5px;"/></g><g class="y"><path class="ygrid crisp" transform="translate(0,386.31858267716535)" d="M86.46480023330417,0h236.90002916302126" style="stroke: rgb(0, 0, 0); stroke-opacity: 0.1; stroke-width: 0.5px;"/><path class="ygrid crisp" transform="translate(0,301.73858267716537)" d="M86.46480023330417,0h236.90002916302126" style="stroke: rgb(0, 0, 0); stroke-opacity: 0.1; stroke-width: 0.5px;"/><path class="ygrid crisp" transform="translate(0,217.14858267716534)" d="M86.46480023330417,0h236.90002916302126" style="stroke: rgb(0, 0, 0); stroke-opacity: 0.1; stroke-width: 0.5px;"/><path class="ygrid crisp" transform="translate(0,132.56858267716535)" d="M86.46480023330417,0h236.90002916302126" style="stroke: rgb(0, 0, 0); stroke-opacity: 0.1; stroke-width: 0.5px;"/></g></g><g class="zerolinelayer"/><path class="xlines-below"/><path class="ylines-below"/><g class="overlines-below"/><g class="xaxislayer-below"/><g class="yaxislayer-below"/><g class="overaxes-below"/><g class="plot" transform="translate(86.46480023330417,63.83858267716535)" clip-path="url('#clip00b04bxyplot')"><g class="scatterlayer mlayer"><g class="trace scatter traceb1a26d" style="stroke-miterlimit: 2; opacity: 1;"><g class="fills"/><g class="errorbars"/><g class="lines"><path class="js-line" d="M6.7,153.32L6.74,151.11L6.75,156.51L6.76,157.07L7.43,64.54L7.47,231.71L7.51,129.83L7.52,134.41L7.61,346.5L7.86,19.45L8.27,160.03L8.28,157.88L8.93,73.38L8.96,238.13L9.03,127.2L9.04,128.96L9.32,263.57L9.45,53.27L9.79,166.7L9.8,169.73L9.88,221.57L10.51,83.04L10.55,199.96L10.56,194.3L10.64,40.04L10.81,322.85L11.31,168.02L11.32,168.52L11.8,76.88L12.04,246.01L12.07,110.5L12.08,111.72L12.4,275.01L12.64,17.73L12.83,134.65L12.84,127.13L13.02,229.07L13.44,58.86L13.59,144.53L13.6,148L14.1,271.88L14.27,33.8L14.35,81.98L14.36,85.72L14.97,230.06L15.09,81.58L15.11,192.14L15.12,193.55L15.68,269.8L15.85,37.46L15.87,92.15L15.88,94L16.16,78.18L16.55,256.13L16.63,128.12L16.64,123.21L17.14,82.49L17.31,256.02L17.39,221.45L17.4,219.78L17.49,44.31L17.89,230.31L18.15,161.82L18.16,163.1L18.64,79.09L18.89,254.56L18.91,214.37L18.92,209.91L18.96,259.22L19.09,56.41L19.67,155.23L19.68,160.44L19.76,210.55L20.36,84.6L20.43,159.1L20.44,163.35L20.55,262.5L20.73,10.09L21.19,194.81L21.2,193.19L21.58,98.34L21.67,201.88L21.95,102.03L21.96,103.1L22.2,287.32L22.38,46.97L22.71,196.18L22.72,194.79L23.22,106.52L23.26,215.23L23.47,161.16L23.48,159.71L23.78,280.46L23.94,41.07L24.23,95.55L24.24,95.93L24.34,215.17L24.79,90.56L24.99,150.88L25,150.62L25.4,260.02L25.52,63.38L25.75,153.39L25.76,156.48L25.8,94.26L25.92,219.93L26.51,140.3L26.52,134.24L26.8,63.37L27.05,263.49L27.27,146.67L27.28,147.95L27.45,75.3L27.63,229.42L28.03,127.06L28.04,134.81L28.64,281.7L28.79,89.18L28.8,85.8L28.81,57.36L29.27,223.63L29.55,167.32L29.56,165.28L30.03,84.66L30.28,264.33L30.31,153.72L30.32,152.14L30.46,79.25L30.86,215.99L31.07,168.36L31.08,164.96L31.6,87.12L31.83,254.56L31.84,258.92L31.84,267.78L32.02,60.45L32.58,152.37L32.59,151.77L32.63,199.79L33.24,86.16L33.34,155.53L33.35,158.25L33.48,265.66L33.66,61.49L34.1,174.54L34.11,176.7L34.65,217.53L34.68,98.31L34.86,139.11L34.87,132.32L34.89,58.35L35.07,281.38L35.62,164.7L35.63,165.33L35.71,213.44L36.05,103.18L36.38,110.13L36.39,111.82L36.47,75.01L36.71,267.16L37.14,138.23L37.15,140.4L37.31,221.57L37.76,105.48L37.9,119.34L37.91,120.61L38.36,255.61L38.47,86.49L38.66,123.48L38.67,119.84L39.22,203.93L39.25,106.91L39.42,192.63L39.43,193.2L39.93,265.45L40.11,78.73L40.18,133.15L40.19,133.47L40.32,102.41L40.5,211.1L40.94,166.6L40.95,163.67L41.33,90.92L41.56,256.26L41.7,107.11L41.71,110.06L41.75,81.88L42.14,213.45L42.46,130.58L42.47,128.91L42.97,97.76L43.16,255.53L43.22,224.55L43.23,221.98L43.34,79.13L43.98,154.38L43.99,158.91L44.56,107.12L44.74,228.46L44.75,228.56L44.8,258.1L44.98,81.54L45.5,187.67L45.51,187.05L45.87,191.47L46.26,103.71L46.26,104.17L46.27,105.14L46.39,258.84L46.56,96.8L47.02,175.72L47.03,175.57L47.09,201.21L47.75,117.75L47.78,120.05L47.79,118.85L48.03,248.73L48.2,83.12L48.54,152.54L48.55,149.56L48.58,208.13L48.76,114.02L49.3,148.83L49.31,150.31L49.66,257.81L49.84,87.97L50.06,112.74L50.07,115.54L50.29,204.17L50.82,154.59L50.83,152.99L51.24,252.39L51.42,79.75L51.58,144.81L51.59,145.06L51.69,95.33L51.88,215.06L52.34,155.46L52.35,154.68L52.71,90.03L52.88,255.14L53.1,155.98L53.11,156L53.28,93.29L53.46,204.37L53.86,137.75L53.87,139.68L54.35,95.24L54.52,238.29L54.62,109.03L54.63,107.81L54.92,85.92L55.11,198.31L55.38,178.93L55.39,181.23L55.92,102.21L56.11,241.8L56.14,216.37L56.15,216.42L56.15,216.58L56.5,95.87L56.9,158.64L56.91,154.98L57.57,101.84L57.66,205.46L57.67,206.41L57.73,244.94L58.15,104.86L58.42,138.95L58.43,137.27L58.75,180.05L59.14,111.3L59.18,115.39L59.19,115.75L59.32,246.47L59.73,95.74L59.94,178.73L59.95,179.83L59.97,200.32L60.58,124.17L60.7,140.03L60.71,137.85L60.78,96.92L60.97,254.87L61.46,165.41L61.47,166.14L61.55,200.02L62.21,121.32L62.22,130.49L62.23,132.33L62.55,241.12L62.93,102.46L62.98,127.17L62.99,127.35L63.01,117.64L63.17,194.01L63.74,167.22L63.75,168.65L64.01,89.19L64.19,254.12L64.5,129.32L64.51,127.67L64.58,103.92L64.75,200.55L65.26,155.98L65.27,155.4L65.59,95.77L65.82,246.55L66.02,125L66.03,126.77L66.15,104.54L66.38,191.58L66.78,158.32L66.79,157.83L67.23,101.09L67.41,251.69L67.54,160.91L67.55,160.94L67.79,100.23L68.06,191.27L68.3,147.89L68.31,148.98L68.87,96.56L69.05,244.26L69.06,212.56L69.07,208.29L69.51,111.83L69.82,156.7L69.83,156.95L70.06,189.35L70.45,95.28L70.58,175L70.59,176.44L70.62,233.88L71.09,107.84L71.34,179.1L71.35,178.26L71.49,189.07L72.09,99.74L72.1,121.36L72.11,123.18L72.25,238.39L72.45,112.92L72.86,163.66L72.87,163.66L72.91,189.51L73.51,115.33L73.62,141.01L73.63,140.45L73.72,96.84L73.86,226.72L74.38,125.72L74.39,126.96L74.49,201.84L75.09,118.64L75.14,138.89L75.15,137.69L75.31,99.63L75.5,238.32L75.9,131.51L75.91,134.47L75.95,94.45L76.06,197.89L76.66,153.5L76.67,153.94L76.95,89.73L77.08,225.74L77.42,157.37L77.43,154.88L77.53,95.7L77.78,185.91L78.18,164.46L78.19,164.82L78.54,97.81L78.72,223.38L78.94,133.85L78.95,131.01L79.19,107.43L79.34,192.52L79.7,159.54L79.71,158.11L80.18,103.67L80.35,216.14L80.46,130.12L80.47,130.72L80.8,105.04L80.98,198.72L81.22,160.88L81.23,163.38L81.82,99.68L81.98,233.27L81.99,236.25L81.99,242.06L82.38,88.83L82.74,151.31L82.75,150.23L83.4,91.12L83.5,191.18L83.5,191.09L83.51,190.68L83.58,237.83L84.03,98.97L84.26,155.8L84.27,156.82L84.65,187.09L85.02,91.61L85.03,88.5L85.04,79.34L85.22,225.36L85.78,173.06L85.79,173.85L85.81,188.25L86.54,118.63L86.54,124.16L86.55,126.11L86.61,94.91L86.85,215.83L87.3,137.78L87.31,137.62L87.42,188.55L88.03,120L88.06,153.64L88.07,155.06L88.25,93.28L88.43,230.77L88.82,117.42L88.83,115.54L88.83,108.44L89.02,194.77L89.58,171.58L89.59,168.98L89.89,94.53L90.08,216.8L90.34,148.07L90.35,149.94L90.47,112.75L90.66,183.75L91.1,159.51L91.11,157.13L91.47,92.13L91.66,215.01L91.86,145.97L91.87,145.67L92.13,107.99L92.24,181.92L92.62,145.64L92.63,147.66L93.05,98.47L93.28,211.62L93.38,172.21L93.39,171.64L93.7,115.5L93.87,187.25L94.14,168.41L94.15,169.53L94.7,102.87L94.87,206.49L94.9,201.88L94.91,201.86L95.33,107.01L95.66,159.47L95.67,159.29L95.94,192.4L96.33,106.07L96.42,154.38L96.43,156.28L96.53,213.86L96.98,106.35L97.18,149.25L97.19,147.93L97.59,192.31L97.93,107.39L97.94,110.89L97.95,111.49L98.17,209.9L98.56,104.35L98.7,168.56L98.71,169.95L98.9,131.92L99.17,186.03L99.46,145.15L99.47,143.97L99.57,100.12L99.74,207.23L100.22,126.35L100.23,127.24L100.31,188.72L100.48,123.44L100.98,146.41L100.99,145.96L101.14,108.63L101.38,209.59L101.74,144.05L101.75,142.2L101.77,104.28L102.02,188.06L102.5,143.22L102.51,142.76L102.78,100.13L102.96,214.16L103.26,144.29L103.27,143.77L103.42,100.75L103.6,187.18L104.02,182.87L104.03,183.74L104.43,99.73L104.61,211.83L104.78,144.12L104.79,144.47L105.06,105.63L105.24,176.21L105.54,157.63L105.55,157.56L106.01,103.03L106.25,204.45L106.3,185.18L106.31,186.17L106.31,189.3L106.64,102.14L107.06,160.22L107.07,159.17L107.64,107.41L107.82,205.82L107.82,205.25L107.83,204.33L107.89,206.38L108.25,107.73L108.58,138.09L108.59,139.45L108.91,182.01L109.28,102.52L109.34,143.47L109.35,143.71L109.46,214.58L109.86,109.88L110.1,160.25L110.11,159.18L110.47,187.44L110.86,98.16L110.86,98.95L110.87,99.9L111.1,209.98L111.62,174.46L111.63,175.73L112.12,195.5L112.29,135.09L112.38,148.43L112.39,148.96L112.5,91.29L112.69,200.52L113.14,126.24L113.15,125.04L113.15,122.09L113.7,188.85L113.9,164.31L113.91,164.33L114.08,108.93L114.35,201.32L114.66,121.95L114.67,120.95L114.67,117.48L115.33,189.97L115.42,149.27L115.43,146.61L115.71,102.89L115.93,198.73L116.18,159.23L116.19,160.17L116.38,116.29L116.9,197.28L116.94,162.96L116.95,164.39L117.34,112.07L117.56,199.88L117.7,164.87L117.71,165L117.95,110.18L118.12,178.99L118.46,159.12L118.47,160.68L118.96,111.37L119.15,203.48L119.22,180.18L119.23,178.33L119.59,102.46L119.77,179.94L119.98,168.21L119.99,167.74L120.55,112.14L120.74,181.81L120.75,182.18L120.78,206.3L121.17,110.1L121.5,143.86L121.51,142.17L121.81,182.93L122.18,103.35L122.26,137.21L122.27,139.35L122.42,198.87L122.81,105.9L123.02,151.36L123.03,151.62L123.42,182.1L123.75,114.11L123.78,122.72L123.79,122.85L123.99,203.41L124.44,106.69L124.54,153.41L124.55,154.79L124.87,136.2L125.01,184.85L125.3,149.21L125.31,147.86L125.39,99.64L125.64,204.86L126.06,140.1L126.07,140.31L126.09,131.14L126.65,191.74L126.82,140.3L126.83,140.52L127.1,104.19L127.28,203.81L127.58,136.97L127.59,135.31L127.63,115.73L128.23,186.25L128.34,161.74L128.35,163.15L128.61,100.94L128.91,194.91L129.1,152.17L129.11,151.85L129.22,119.05L129.86,187.78L129.86,187.47L129.87,187.14L130.19,109.63L130.49,202.48L130.62,158.01L130.63,158.62L130.87,117.45L131.08,171.51L131.38,153.93L131.39,152.5L131.5,195.24L131.89,104.57L132.14,192.33L132.15,191.3L132.48,113.93L132.9,128.92L132.91,130.33L133.08,199.76L133.53,106.23L133.66,171.05L133.67,171.64L133.75,195.35L134.12,114.58L134.42,166.27L134.43,167.56L134.73,190.22L135.13,110.81L135.18,131.15L135.19,131.43L135.33,200.18L135.7,121.99L135.94,163.63L135.95,163.5L136.29,182.51L136.7,124.48L136.71,123.59L136.73,110.94L136.96,194.56L137.46,149.3L137.47,146.99L137.69,130.82L137.94,183.47L138.22,135.69L138.23,136.53L138.37,113.55L138.57,193.41L138.98,119.43L138.99,121.25L139.52,181.91L139.74,167.98L139.75,167.66L139.98,109.66L140.17,202.09L140.5,139.34L140.51,140.62L140.55,110.97L141.23,176.51L141.26,168.63L141.27,168.56L141.56,108.38L141.81,189.83L142.02,183.02L142.03,182.36L142.2,117.45L142.78,167.31L142.79,166.31L143.21,113.95L143.45,192.83L143.54,156.9L143.55,154.73L143.67,183.03L143.85,119.57L144.3,156.33L144.31,157.19L144.78,113.73L145.03,191.37L145.06,165.08L145.07,165.75L145.1,194.5L145.43,126.47L145.82,142.14L145.83,142.08L146.02,180.57L146.49,105.21L146.58,173.19L146.59,175.41L146.67,193.51L147.07,120.74L147.34,152.59L147.35,152L147.68,181.6L147.99,112.28L148.1,128.84L148.11,128.93L148.13,116.47L148.25,187.57L148.86,162.52L148.87,162.83L149.25,184.78L149.58,122.51L149.62,130.18L149.63,128.31L149.71,104.22L149.89,187.45L150.38,151.15L150.39,150.68L150.65,133.28L150.89,179.55L151.14,144.14L151.15,143.93L151.3,109.47L151.53,190.61L151.9,125.96L151.91,126.44L152.61,182.04L152.66,149.96L152.67,150.98L152.94,110.21L153.12,184.78L153.42,149.02L153.43,148.82L153.49,122.31L154.18,182.87L154.19,183.67L154.56,116.33L154.77,184.96L154.94,166.91L154.95,167.23L155.09,127.2L155.69,184.82L155.7,175.67L155.71,173.86L156.15,112.59L156.37,187.46L156.46,167.12L156.47,166.94L156.53,173.96L156.72,119.09L157.22,138.57L157.23,138.17L157.76,117.83L157.96,186.33L157.98,181.69L157.99,181.27L158.31,125.73L158.74,135.4L158.75,136.87L159.04,181.05L159.4,116.4L159.5,143.46L159.51,144.21L159.56,181.31L159.94,128.94L160.26,168.34L160.27,168.58L160.63,181.61L161,114.88L161.02,123.91L161.03,124.95L161.2,187.18L161.78,155.54L161.79,154.31L162.01,135.31L162.24,178.06L162.54,141.37L162.55,140.74L162.59,112.19L162.78,182L163.3,143.18L163.31,143.25L163.65,131.32L163.85,176.37L164.06,149.15L164.07,148.35L164.23,116.38L164.42,185.83L164.82,131.06L164.83,131.79L164.88,131.08L165.46,175.99L165.58,167.46L165.59,166.92L165.89,117.31L166.13,184.37L166.34,155.82L166.35,155.22L166.85,129.5L167.04,177.38L167.1,160.42L167.11,160.47L167.53,115.02L167.78,186.42L167.86,174.36L167.87,175.03L167.88,177.29L168.44,128.65L168.62,171.84L168.63,173.14L168.79,183.59L169.03,115.16L169.38,170L169.39,168.98L169.48,180.02L169.66,131.08L170.14,153.86L170.15,153.37L170.29,179.47L170.74,111L170.9,159.31L170.91,160.53L170.97,179.09L171.26,132.33L171.66,136.77L171.67,135.82L171.99,180.75L172.33,112.02L172.42,152.64L172.43,153.46L172.56,180.77L172.91,134.17L173.18,148.63L173.19,149.03L173.58,182.79L173.94,125.31L173.95,124.79L173.97,114.03L174.16,179.65L174.7,156.13L174.71,155.57L174.89,131.62L175.22,184.54L175.46,134.12L175.47,133.97L175.57,110.75L175.8,176.11L176.22,147.85L176.23,148.74L176.48,128.27L176.82,177.45L176.98,162.56L176.99,161.79L177.18,110.36L177.51,178.31L177.74,145.32L177.75,144.24L178.12,132.08L178.42,181.34L178.5,159.33L178.51,159.68L178.78,112.27L179.16,182.52L179.26,152.07L179.27,151.87L179.83,131.67L180.02,179.59L180.03,180.05L180.03,180.68L180.41,109.3L180.78,165.7L180.79,166.13L180.81,172.43L181.05,131.93L181.54,159.43L181.55,159.7L181.66,182.93L182.01,114.04L182.3,171.31L182.31,172.18L182.37,174.99L182.64,134.74L183.06,138.2L183.07,137.8L183.31,179.88L183.62,109.6L183.82,168.4L183.83,167.78L183.95,177.19L184.25,137.56L184.58,145.4L184.59,146L184.88,181.66L185.21,113.03L185.34,135.9L185.35,135.72L185.35,135.57L185.6,177.36L186.1,151.14L186.11,150.43L186.52,183.35L186.85,119.74L186.86,124.25L186.87,124.88L187.26,175.62L187.62,156.56L187.63,157.22L187.85,131.72L188.1,185.56L188.38,149.34L188.39,148.54L188.49,124.21L188.85,176.32L189.14,144.9L189.15,144.58L189.48,134.63L189.82,180.51L189.9,151.58L189.91,151.9L190.06,119.66L190.46,176.33L190.66,143.37L190.67,143.57L191.07,131.82L191.32,182.47L191.42,177.42L191.43,176.99L191.74,124.31L192.05,177.23L192.18,156.19L192.19,156.2L192.71,131.08L192.91,177.86L192.94,175.13L192.95,175.02L193.02,180.17L193.31,125.54L193.7,174.79L193.71,173.99L194.3,133.76L194.46,141.71L194.47,142.12L194.62,178.37L194.95,122.51L195.22,163.73L195.23,164.25L195.31,179.18L195.64,130.35L195.98,150.41L195.99,150.78L196.26,183.55L196.59,121.47L196.74,159.55L196.75,160.18L196.89,186.8L197.23,130.8L197.5,140.68L197.51,140.76L197.85,187.88L198.16,123.99L198.26,137.75L198.27,137.89L198.48,179.87L198.83,136.02L199.02,156.88L199.03,156.87L199.48,180.62L199.78,124.57L199.79,123.76L199.79,121.89L200.11,176.76L200.54,153.39L200.55,153.76L200.75,123.94L201.05,181.47L201.3,146.65L201.31,146.96L201.44,116.09L201.69,175.57L202.06,138.8L202.07,138.43L202.34,133.88L202.69,186.37L202.82,168.24L202.83,168.5L203.02,121.88L203.34,178.57L203.58,157.5L203.59,157.99L204.09,127.16L204.33,180.12L204.34,174.05L204.35,172.46L204.64,127.07L204.93,175.8L205.1,155.05L205.11,153.81L205.59,134.2L205.84,164.22L205.86,162.8L205.87,163.39L205.9,184.83L206.23,126.3L206.62,170.09L206.63,170.86L206.64,173.35L207.3,129.52L207.38,149.31L207.39,149.63L207.49,181.7L207.88,126.87L208.14,172.2L208.15,172.24L208.28,178.33L208.89,131.87L208.9,141.32L208.91,142.24L209.13,181.2L209.51,129.53L209.66,143.83L209.67,143.38L209.87,181.68L210.38,134.21L210.42,150.8L210.43,150.41L210.77,179.09L211.18,126.91L211.18,128.65L211.19,129.45L211.36,176.31L211.94,154.43L211.95,153.39L212.11,133.47L212.36,177.84L212.7,138.12L212.71,138.22L212.76,122.16L213.06,178.1L213.46,143L213.47,144.15L213.74,134.76L213.96,175.27L214.22,158.8L214.23,157.91L214.33,127.76L214.71,174.64L214.98,155.36L214.99,155.95L215.33,137.55L215.72,174.35L215.74,162.72L215.75,161.85L216.1,128.26L216.3,174.03L216.5,157.73L216.51,156.72L216.54,135.25L217.22,177.3L217.26,164.32L217.27,164.66L217.3,177.4L217.68,125.33L218.02,155.79L218.03,155.41L218.07,172.56L218.68,132.85L218.78,168.95L218.79,169.48L219.18,122.89L219.51,177.19L219.54,163.33L219.55,163.29L219.57,171.97L220.18,133.06L220.3,144.01L220.31,144.19L220.46,173.74L220.9,128.27L221.06,164.28L221.07,165.27L221.15,176.78L221.77,135.52L221.82,144.23L221.83,143.89L222.15,173.23L222.54,128.26L222.58,150.55L222.59,150.95L222.73,173.14L223.1,142.03L223.34,143.88L223.35,143.39L223.72,177.82L224.1,130.42L224.11,129.27L224.12,124.18L224.36,174.88L224.86,147.93L224.87,148.66L225.12,130.93L225.31,177.63L225.62,137.01L225.63,137.48L225.71,130.48L225.95,174.39L226.38,167.69L226.39,167.97L226.77,133.44L227.01,183.14L227.14,159.12L227.15,159.35L227.35,130.72L227.58,175.82L227.9,145.13L227.91,144.74L228.35,132.25L228.6,181.71L228.66,167.6L228.67,167.15L228.98,130.31L229.31,173.22L229.42,151.69L229.43,150.95L229.97,133.6L230.18,172.32L230.19,172.65L230.2,174.89" style="vector-effect: non-scaling-stroke; fill: none; stroke: rgb(0, 154, 250); stroke-opacity: 1; stroke-width: 1px; opacity: 1;"/></g><g class="points"/><g class="text"/></g></g></g><g class="overplot"/><path class="xlines-above crisp" d="M85.46480023330417,420.9322506561679H323.36482939632543" style="fill: none; stroke-width: 1px; stroke: rgb(0, 0, 0); stroke-opacity: 1;"/><path class="ylines-above crisp" d="M85.96480023330417,63.83858267716535V420.4322506561679" style="fill: none; stroke-width: 1px; stroke: rgb(0, 0, 0); stroke-opacity: 1;"/><g class="overlines-above"/><g class="xaxislayer-above"><path class="xtick ticks crisp" d="M0,420.4322506561679v-5" transform="translate(93.16480023330418,0)" style="stroke: rgb(0, 0, 0); stroke-opacity: 1; stroke-width: 1px;"/><path class="xtick ticks crisp" d="M0,420.4322506561679v-5" transform="translate(167.66480023330416,0)" style="stroke: rgb(0, 0, 0); stroke-opacity: 1; stroke-width: 1px;"/><path class="xtick ticks crisp" d="M0,420.4322506561679v-5" transform="translate(242.16480023330416,0)" style="stroke: rgb(0, 0, 0); stroke-opacity: 1; stroke-width: 1px;"/><path class="xtick ticks crisp" d="M0,420.4322506561679v-5" transform="translate(316.66480023330416,0)" style="stroke: rgb(0, 0, 0); stroke-opacity: 1; stroke-width: 1px;"/><g class="xtick"><text text-anchor="middle" x="0" y="434.6322506561679" transform="translate(93.16480023330418,0)" style="font-family: sans-serif; font-size: 11px; fill: rgb(0, 0, 0); fill-opacity: 1; white-space: pre;">0</text></g><g class="xtick"><text text-anchor="middle" x="0" y="434.6322506561679" transform="translate(167.66480023330416,0)" style="font-family: sans-serif; font-size: 11px; fill: rgb(0, 0, 0); fill-opacity: 1; white-space: pre;">1</text></g><g class="xtick"><text text-anchor="middle" x="0" y="434.6322506561679" transform="translate(242.16480023330416,0)" style="font-family: sans-serif; font-size: 11px; fill: rgb(0, 0, 0); fill-opacity: 1; white-space: pre;">2</text></g><g class="xtick"><text text-anchor="middle" x="0" y="434.6322506561679" transform="translate(316.66480023330416,0)" style="font-family: sans-serif; font-size: 11px; fill: rgb(0, 0, 0); fill-opacity: 1; white-space: pre;">3</text></g></g><g class="yaxislayer-above"><path class="ytick ticks crisp" d="M86.46480023330417,0h5" transform="translate(0,386.31858267716535)" style="stroke: rgb(0, 0, 0); stroke-opacity: 1; stroke-width: 1px;"/><path class="ytick ticks crisp" d="M86.46480023330417,0h5" transform="translate(0,301.73858267716537)" style="stroke: rgb(0, 0, 0); stroke-opacity: 1; stroke-width: 1px;"/><path class="ytick ticks crisp" d="M86.46480023330417,0h5" transform="translate(0,217.14858267716534)" style="stroke: rgb(0, 0, 0); stroke-opacity: 1; stroke-width: 1px;"/><path class="ytick ticks crisp" d="M86.46480023330417,0h5" transform="translate(0,132.56858267716535)" style="stroke: rgb(0, 0, 0); stroke-opacity: 1; stroke-width: 1px;"/><g class="ytick"><text text-anchor="end" x="83.26480023330417" y="3.8499999999999996" transform="translate(0,386.31858267716535)" style="font-family: sans-serif; font-size: 11px; fill: rgb(0, 0, 0); fill-opacity: 1; white-space: pre;">-0.2</text></g><g class="ytick"><text text-anchor="end" x="83.26480023330417" y="3.8499999999999996" transform="translate(0,301.73858267716537)" style="font-family: sans-serif; font-size: 11px; fill: rgb(0, 0, 0); fill-opacity: 1; white-space: pre;">-0.1</text></g><g class="ytick"><text text-anchor="end" x="83.26480023330417" y="3.8499999999999996" transform="translate(0,217.14858267716534)" style="font-family: sans-serif; font-size: 11px; fill: rgb(0, 0, 0); fill-opacity: 1; white-space: pre;">0.0</text></g><g class="ytick"><text text-anchor="end" x="83.26480023330417" y="3.8499999999999996" transform="translate(0,132.56858267716535)" style="font-family: sans-serif; font-size: 11px; fill: rgb(0, 0, 0); fill-opacity: 1; white-space: pre;">0.1</text></g></g><g class="overaxes-above"/></g><g class="subplot x2y2"><g class="layer-subplot"><g class="shapelayer"/><g class="imagelayer"/></g><g class="gridlayer"><g class="x2"><path class="x2grid crisp" transform="translate(370.1548002333042,0)" d="M0,63.83858267716535v356.5936679790026" style="stroke: rgb(0, 0, 0); stroke-opacity: 0.1; stroke-width: 0.5px;"/><path class="x2grid crisp" transform="translate(414.85480023330416,0)" d="M0,63.83858267716535v356.5936679790026" style="stroke: rgb(0, 0, 0); stroke-opacity: 0.1; stroke-width: 0.5px;"/><path class="x2grid crisp" transform="translate(459.55480023330415,0)" d="M0,63.83858267716535v356.5936679790026" style="stroke: rgb(0, 0, 0); stroke-opacity: 0.1; stroke-width: 0.5px;"/><path class="x2grid crisp" transform="translate(504.2548002333042,0)" d="M0,63.83858267716535v356.5936679790026" style="stroke: rgb(0, 0, 0); stroke-opacity: 0.1; stroke-width: 0.5px;"/><path class="x2grid crisp" transform="translate(548.9548002333042,0)" d="M0,63.83858267716535v356.5936679790026" style="stroke: rgb(0, 0, 0); stroke-opacity: 0.1; stroke-width: 0.5px;"/><path class="x2grid crisp" transform="translate(593.6648002333042,0)" d="M0,63.83858267716535v356.5936679790026" style="stroke: rgb(0, 0, 0); stroke-opacity: 0.1; stroke-width: 0.5px;"/></g><g class="y2"><path class="y2grid crisp" transform="translate(0,410.33858267716533)" d="M363.4648002333042,0h236.90002916302123" style="stroke: rgb(0, 0, 0); stroke-opacity: 0.1; stroke-width: 0.5px;"/><path class="y2grid crisp" transform="translate(0,360.1085826771653)" d="M363.4648002333042,0h236.90002916302123" style="stroke: rgb(0, 0, 0); stroke-opacity: 0.1; stroke-width: 0.5px;"/><path class="y2grid crisp" transform="translate(0,309.86858267716536)" d="M363.4648002333042,0h236.90002916302123" style="stroke: rgb(0, 0, 0); stroke-opacity: 0.1; stroke-width: 0.5px;"/><path class="y2grid crisp" transform="translate(0,259.62858267716535)" d="M363.4648002333042,0h236.90002916302123" style="stroke: rgb(0, 0, 0); stroke-opacity: 0.1; stroke-width: 0.5px;"/><path class="y2grid crisp" transform="translate(0,209.39858267716534)" d="M363.4648002333042,0h236.90002916302123" style="stroke: rgb(0, 0, 0); stroke-opacity: 0.1; stroke-width: 0.5px;"/><path class="y2grid crisp" transform="translate(0,159.15858267716533)" d="M363.4648002333042,0h236.90002916302123" style="stroke: rgb(0, 0, 0); stroke-opacity: 0.1; stroke-width: 0.5px;"/><path class="y2grid crisp" transform="translate(0,108.91858267716535)" d="M363.4648002333042,0h236.90002916302123" style="stroke: rgb(0, 0, 0); stroke-opacity: 0.1; stroke-width: 0.5px;"/></g></g><g class="zerolinelayer"/><path class="xlines-below"/><path class="ylines-below"/><g class="overlines-below"/><g class="xaxislayer-below"/><g class="yaxislayer-below"/><g class="overaxes-below"/><g class="plot" transform="translate(363.4648002333042,63.83858267716535)" clip-path="url('#clip00b04bx2y2plot')"><g class="scatterlayer mlayer"><g class="trace scatter traceba089a" style="stroke-miterlimit: 2; opacity: 1;"><g class="fills"/><g class="errorbars"/><g class="lines"><path class="js-line" d="M6.7,346.43L7.64,346.25L7.66,346.28L7.67,346.29L7.81,346.12L8.11,346.3L8.19,345.88L8.21,344.21L8.61,346.5L8.76,334.47L8.97,346L8.98,345.88L10.13,341.08L10.31,342.33L10.33,342.56L10.52,344.55L10.74,337.89L10.76,336.38L10.8,312L10.82,10.09L11.53,344.56L11.58,344.22L11.59,344.03L12.1,345.1L12.26,341.59L12.32,343.22L12.34,343.71L12.37,344.22L12.77,333.89L12.78,331.69L12.86,274.88L12.87,149.87L12.89,79.17L13.29,344.69L13.56,343.05L13.57,342.98L14.42,345.8L14.47,345.59L14.48,345.4L14.84,334.44L14.85,332.7L14.94,255.16L15.09,336.86L15.11,338.18L15.51,345.88L15.91,344.86L15.93,344.74L16.37,345.09L16.7,343.78L16.75,344.07L16.76,344.28L16.87,345.67L16.94,338.67L16.96,334.75L17,151.52L17.45,344L17.46,343.99L17.48,343.93L17.83,346.34L18.06,345.05L18.07,344.96L18.94,338.5L18.95,337.3L19.04,309.29L19.06,261.19L19.07,189.01L19.64,345.99L19.79,345.46L19.8,345.38L19.95,345.15L20.13,345.84L20.46,345.69L20.47,345.73L21.01,344.82L21.02,344.59L21.14,334.1L21.16,268.98L21.34,346.05L21.92,345.42L21.93,345.42L22.39,346.49L22.81,345.81L22.83,345.76L23.15,343.15L23.17,342.05L23.23,316.13L23.73,346.07L23.75,346.1L24.11,346.43L24.52,346.06L24.54,346.05L25.24,346.17L25.27,345.78L25.28,345.06L25.3,335.23L26.01,346.02L26.03,346.04L27.06,345.17L27.07,345.06L27.31,343.61L27.37,344L27.39,339.88L27.97,345.16L28.16,344.8L28.17,344.76L28.83,342.36L29.08,343.4L29.1,343.44L29.34,342.02L29.35,341.53L29.46,326.47L29.47,280.49L29.98,345.99L30.29,345.82L30.31,345.77L30.63,345.75L30.84,345.27L30.86,345.24L31.41,342.43L31.42,342.53L31.44,341.89L31.57,276.18L31.65,338.13L31.66,340.09L32.48,345.06L32.5,345.02L32.85,345.69L33.18,344.77L33.2,344.78L33.34,344.87L33.4,344.18L33.42,343.9L33.55,344.96L33.67,336.89L33.69,310.42L34.21,345.85L34.45,345.42L34.46,345.39L35.07,344.17L35.19,345.15L35.21,345.25L35.3,346.09L35.73,341.81L35.74,341.16L35.8,322.17L35.92,343.06L35.95,342.82L35.97,342.72L37.23,346.47L37.34,345.94L37.35,345.79L37.65,340.22L37.67,332.97L37.99,310.26L38.31,344.17L38.32,344.32L39.23,345.91L39.24,345.87L39.26,345.83L39.81,346.33L39.89,345.7L39.9,345.62L40.08,337.37L40.09,324.8L40.11,324.36L40.17,337.93L40.18,340.73L40.97,346.36L40.99,346.39L41.81,346.45L41.82,345.47L42.25,343.13L42.6,346.44L42.61,346.41L42.63,346.3L44.09,345.81L44.1,345.72L44.34,343.97L44.36,343.37L44.43,311.96L44.71,345.6L44.77,345.55L44.79,345.69L44.85,345.54L45.03,346.05L45.44,346.07L45.46,346.09L45.85,346.42L45.95,345.61L45.96,344.69L46.02,346.44L46.55,342.46L46.56,341.06L46.61,308.28L47.1,345.95L47.11,345.98L47.95,346.32L48.02,345.95L48.04,345.66L48.08,346.3L48.8,332.12L48.83,339L48.84,342.11L48.86,335.43L48.88,346.2L49.57,345.54L49.59,345.55L50.09,346.04L50.12,345.72L50.14,344.63L50.15,341.46L50.3,345.64L50.88,341.84L50.9,341.47L51,304.78L51.06,344.13L51.13,340.57L51.15,341.38L51.49,346.34L51.95,345.71L51.97,345.78L52.24,345.34L52.3,346.03L52.62,345.36L52.64,345.4L52.76,345.67L52.97,344.37L52.98,344.23L53.16,334.81L53.18,332.23L53.25,149.01L53.47,340.55L53.49,340.92L54.29,345.02L54.32,344.59L54.34,339.8L54.35,337.01L54.37,346.07L55.07,343.45L55.08,343.37L55.41,337.01L55.43,334.13L55.49,269.51L56.08,345.48L56.1,345.5L56.22,345.75L56.44,344.9L56.45,341.59L56.9,345.67L57.23,345.47L57.24,345.45L57.48,345.72L57.62,344.63L57.63,344.29L57.81,325.14L57.85,342.06L57.87,342.99L58.61,346.39L58.73,345.96L58.75,345.85L59.31,346.23L59.58,345.91L59.6,345.92L59.96,343.86L59.97,343.04L60.01,334.88L60.34,346.49L60.71,342.36L60.73,344.21L61.37,346.44L61.5,346.29L61.52,346.22L62.25,346.06L62.26,346.34L62.28,343.3L62.76,346.41L63.04,346.01L63.05,346L63.23,346.34L63.59,345.63L63.67,345.75L63.68,345.64L64.35,346.02L64.48,345.74L64.5,345.59L64.59,339.37L64.89,346.07L65.02,344.48L65.04,344.68L65.83,346.16L65.84,346.08L66.02,345.93L66.41,346.25L66.6,345.95L66.62,345.92L66.79,346.12L66.84,345.43L66.85,345.06L66.97,327.79L67.12,344.6L67.14,345.39L68.64,341.31L68.81,342.62L68.82,342.82L69.06,344.78L69.18,342.11L69.19,332.09L69.28,285.29L69.62,345.91L69.97,345.14L69.98,345.2L70.74,345.79L70.82,345.61L70.83,345.44L71.38,341.59L71.4,341.8L71.41,341.37L71.44,342.42L71.62,328.46L71.64,322.97L71.67,312.23L72.34,345.6L72.35,345.56L72.37,345.61L73.25,346L73.29,345.97L73.3,345.95L73.99,345.45L74.01,344.88L74.02,336.53L74.35,346.47L74.75,346.47L74.77,346.46L76.37,345.64L76.39,345.55L76.45,343.18L76.46,329.28L76.93,346.41L77.28,346.31L77.3,346.3L78.82,346.28L78.83,346.02L78.92,339.92L79.46,346.44L79.56,346.36L79.58,346.29L80.41,346.34L80.43,346.33L81.28,346.29L81.29,345.44L81.45,343.87L81.72,346.4L81.98,346.28L81.99,346.27L83.26,346.4L83.27,346.44L83.75,346.24L83.76,346.07L83.78,343.41L84.29,346.49L84.54,346.33L84.55,346.37L86.21,345.66L86.22,345.55L86.25,341.27L86.31,342.78L86.33,337.5L86.34,332.86L87.04,346.28L87.06,346.27L87.07,346.28L88.4,346.2L88.41,346.18L88.71,345.53L88.73,346.4L88.86,336.74L89.47,346.11L89.49,346.11L90.86,345.9L90.87,345.82L90.89,345.53L91.06,346.44L91.33,342.62L91.38,345.13L91.39,339.83L91.9,346.27L92.17,346.2L92.18,346.22L93.09,346.24L93.11,345.4L93.73,346.44L93.85,343.47L93.87,343.84L93.88,345.25L93.97,340.15L94.66,346.41L94.67,346.4L94.69,346.42L95.37,345.74L95.64,346.44L95.65,346.44L96.35,346.21L96.4,346.02L96.41,345.74L96.46,341.43L96.99,346.15L97.01,346.14L97.02,346.11L97.52,346.2L97.53,343.95L97.59,337.6L98.16,346.33L98.26,346.29L98.28,346.29L98.98,346.31L99.02,345.85L99.04,345.56L99.2,340.76L99.66,346.42L99.78,346.31L99.8,344.98L99.81,344.72L100.2,346.46L100.48,346.35L100.5,346.36L101.52,345.68L101.54,345.61L101.63,345.94L101.99,342.97L102,337.98L102.63,346.4L102.79,346.23L102.81,346.2L106.5,346.11L106.52,345.78L107.01,346.31L107.2,344.82L107.28,346.22L107.29,346.3L108.2,346.42L108.21,346.41L108.23,346.37L109.88,346.43L109.9,345.49L110.37,346.45L110.67,346.41L110.69,346.41L112.62,345.85L112.64,345.02L112.65,344.12L113.22,346.49L113.37,346.41L113.38,346.49L113.43,346.27L114.14,346.46L114.16,346.45L115.23,346.23L115.25,345.38L115.26,344.7L115.96,346.36L115.98,346.33L115.99,346.31L116.84,346.39L116.86,346.43L118,346.07L118.02,344.69L118.21,344.07L118.73,346.4L118.82,346.39L118.84,346.4L120.83,346.08L120.85,345.63L121.03,344.89L121.19,346.49L121.58,346.47L121.59,346.47L123.66,346.25L123.68,345.54L124.48,346.47L124.5,346.49L127.84,346.43L127.85,346.45L129.68,346.48L129.7,346.4L129.71,346.13L130.44,346.48L130.5,346.47L130.52,346.46L131.87,345.79L131.89,345.51L132.02,342.97L132.52,346.49L132.63,346.45L132.65,346.43L135.63,345.97L135.66,346.34L135.67,346.47L135.7,345.93L136.42,346.36L136.43,346.35L136.66,345.71L136.67,345.51L137.4,346.48L137.46,346.46L137.48,346.45L138.65,345.9L138.67,345.42L139.49,346.5L139.5,346.5L142.48,346.47L142.5,346.48L149.01,346.47L149.02,346.48L153.57,346.39L153.58,346.27L154.43,346.49L154.45,346.49L158.65,346.05L158.66,346.01L159.45,346.49L159.47,346.49L163.46,346.12L163.48,345.6L164.19,346.49L164.25,346.46L164.27,346.45L230.2,346.49" style="vector-effect: non-scaling-stroke; fill: none; stroke: rgb(255, 165, 0); stroke-opacity: 1; stroke-width: 1px; opacity: 1;"/></g><g class="points"/><g class="text"/></g></g></g><g class="overplot"/><path class="xlines-above crisp" d="M362.4648002333042,420.9322506561679H600.3648293963254" style="fill: none; stroke-width: 1px; stroke: rgb(0, 0, 0); stroke-opacity: 1;"/><path class="ylines-above crisp" d="M362.9648002333042,63.83858267716535V420.4322506561679" style="fill: none; stroke-width: 1px; stroke: rgb(0, 0, 0); stroke-opacity: 1;"/><g class="overlines-above"/><g class="xaxislayer-above"><path class="x2tick ticks crisp" d="M0,420.4322506561679v-5" transform="translate(370.1548002333042,0)" style="stroke: rgb(0, 0, 0); stroke-opacity: 1; stroke-width: 1px;"/><path class="x2tick ticks crisp" d="M0,420.4322506561679v-5" transform="translate(414.85480023330416,0)" style="stroke: rgb(0, 0, 0); stroke-opacity: 1; stroke-width: 1px;"/><path class="x2tick ticks crisp" d="M0,420.4322506561679v-5" transform="translate(459.55480023330415,0)" style="stroke: rgb(0, 0, 0); stroke-opacity: 1; stroke-width: 1px;"/><path class="x2tick ticks crisp" d="M0,420.4322506561679v-5" transform="translate(504.2548002333042,0)" style="stroke: rgb(0, 0, 0); stroke-opacity: 1; stroke-width: 1px;"/><path class="x2tick ticks crisp" d="M0,420.4322506561679v-5" transform="translate(548.9548002333042,0)" style="stroke: rgb(0, 0, 0); stroke-opacity: 1; stroke-width: 1px;"/><path class="x2tick ticks crisp" d="M0,420.4322506561679v-5" transform="translate(593.6648002333042,0)" style="stroke: rgb(0, 0, 0); stroke-opacity: 1; stroke-width: 1px;"/><g class="x2tick"><text text-anchor="middle" x="0" y="434.6322506561679" transform="translate(370.1548002333042,0)" style="font-family: sans-serif; font-size: 11px; fill: rgb(0, 0, 0); fill-opacity: 1; white-space: pre;">0</text></g><g class="x2tick"><text text-anchor="middle" x="0" y="434.6322506561679" transform="translate(414.85480023330416,0)" style="font-family: sans-serif; font-size: 11px; fill: rgb(0, 0, 0); fill-opacity: 1; white-space: pre;">1000</text></g><g class="x2tick"><text text-anchor="middle" x="0" y="434.6322506561679" transform="translate(459.55480023330415,0)" style="font-family: sans-serif; font-size: 11px; fill: rgb(0, 0, 0); fill-opacity: 1; white-space: pre;">2000</text></g><g class="x2tick"><text text-anchor="middle" x="0" y="434.6322506561679" transform="translate(504.2548002333042,0)" style="font-family: sans-serif; font-size: 11px; fill: rgb(0, 0, 0); fill-opacity: 1; white-space: pre;">3000</text></g><g class="x2tick"><text text-anchor="middle" x="0" y="434.6322506561679" transform="translate(548.9548002333042,0)" style="font-family: sans-serif; font-size: 11px; fill: rgb(0, 0, 0); fill-opacity: 1; white-space: pre;">4000</text></g><g class="x2tick"><text text-anchor="middle" x="0" y="434.6322506561679" transform="translate(593.6648002333042,0)" style="font-family: sans-serif; font-size: 11px; fill: rgb(0, 0, 0); fill-opacity: 1; white-space: pre;">5000</text></g></g><g class="yaxislayer-above"><path class="y2tick ticks crisp" d="M363.4648002333042,0h5" transform="translate(0,410.33858267716533)" style="stroke: rgb(0, 0, 0); stroke-opacity: 1; stroke-width: 1px;"/><path class="y2tick ticks crisp" d="M363.4648002333042,0h5" transform="translate(0,360.1085826771653)" style="stroke: rgb(0, 0, 0); stroke-opacity: 1; stroke-width: 1px;"/><path class="y2tick ticks crisp" d="M363.4648002333042,0h5" transform="translate(0,309.86858267716536)" style="stroke: rgb(0, 0, 0); stroke-opacity: 1; stroke-width: 1px;"/><path class="y2tick ticks crisp" d="M363.4648002333042,0h5" transform="translate(0,259.62858267716535)" style="stroke: rgb(0, 0, 0); stroke-opacity: 1; stroke-width: 1px;"/><path class="y2tick ticks crisp" d="M363.4648002333042,0h5" transform="translate(0,209.39858267716534)" style="stroke: rgb(0, 0, 0); stroke-opacity: 1; stroke-width: 1px;"/><path class="y2tick ticks crisp" d="M363.4648002333042,0h5" transform="translate(0,159.15858267716533)" style="stroke: rgb(0, 0, 0); stroke-opacity: 1; stroke-width: 1px;"/><path class="y2tick ticks crisp" d="M363.4648002333042,0h5" transform="translate(0,108.91858267716535)" style="stroke: rgb(0, 0, 0); stroke-opacity: 1; stroke-width: 1px;"/><g class="y2tick"><text text-anchor="end" x="360.2648002333042" y="3.8499999999999996" transform="translate(0,410.33858267716533)" style="font-family: sans-serif; font-size: 11px; fill: rgb(0, 0, 0); fill-opacity: 1; white-space: pre;">0</text></g><g class="y2tick"><text text-anchor="end" x="360.2648002333042" y="3.8499999999999996" transform="translate(0,360.1085826771653)" style="font-family: sans-serif; font-size: 11px; fill: rgb(0, 0, 0); fill-opacity: 1; white-space: pre;">200</text></g><g class="y2tick"><text text-anchor="end" x="360.2648002333042" y="3.8499999999999996" transform="translate(0,309.86858267716536)" style="font-family: sans-serif; font-size: 11px; fill: rgb(0, 0, 0); fill-opacity: 1; white-space: pre;">400</text></g><g class="y2tick"><text text-anchor="end" x="360.2648002333042" y="3.8499999999999996" transform="translate(0,259.62858267716535)" style="font-family: sans-serif; font-size: 11px; fill: rgb(0, 0, 0); fill-opacity: 1; white-space: pre;">600</text></g><g class="y2tick"><text text-anchor="end" x="360.2648002333042" y="3.8499999999999996" transform="translate(0,209.39858267716534)" style="font-family: sans-serif; font-size: 11px; fill: rgb(0, 0, 0); fill-opacity: 1; white-space: pre;">800</text></g><g class="y2tick"><text text-anchor="end" x="360.2648002333042" y="3.8499999999999996" transform="translate(0,159.15858267716533)" style="font-family: sans-serif; font-size: 11px; fill: rgb(0, 0, 0); fill-opacity: 1; white-space: pre;">1000</text></g><g class="y2tick"><text text-anchor="end" x="360.2648002333042" y="3.8499999999999996" transform="translate(0,108.91858267716535)" style="font-family: sans-serif; font-size: 11px; fill: rgb(0, 0, 0); fill-opacity: 1; white-space: pre;">1200</text></g></g><g class="overaxes-above"/></g></g><g class="polarlayer"/><g class="ternarylayer"/><g class="geolayer"/><g class="funnelarealayer"/><g class="pielayer"/><g class="treemaplayer"/><g class="sunburstlayer"/><g class="glimages"/><defs id="topdefs-00b04b"><g class="clips"/><clipPath id="legend00b04b"><rect width="73" height="58" x="0" y="0"/></clipPath></defs><g class="layer-above"><g class="imagelayer"/><g class="shapelayer"/></g><g class="infolayer"><g class="legend" pointer-events="all" transform="translate(615.08,60)"><rect class="bg" shape-rendering="crispEdges" width="73" height="58" x="0" y="0" style="stroke: rgb(68, 68, 68); stroke-opacity: 1; fill: rgb(255, 255, 255); fill-opacity: 1; stroke-width: 0px;"/><g class="scrollbox" transform="" clip-path="url('#legend00b04b')"><g class="groups" transform=""><g class="traces" transform="translate(0,14.5)" style="opacity: 1;"><text class="legendtext" text-anchor="start" x="40" y="4.680000000000001" style="font-family: 'Open Sans', verdana, arial, sans-serif; font-size: 12px; fill: rgb(42, 63, 95); fill-opacity: 1; white-space: pre;">Time</text><g class="layers" style="opacity: 1;"><g class="legendfill"/><g class="legendlines"><path class="js-line" d="M5,0h30" style="fill: none; stroke: rgb(0, 154, 250); stroke-opacity: 1; stroke-width: 1px;"/></g><g class="legendsymbols"><g class="legendpoints"/></g></g><rect class="legendtoggle" x="0" y="-9.5" width="67.84375" height="19" style="fill: rgb(0, 0, 0); fill-opacity: 0;"/></g></g><g class="groups" transform="translate(0,10)"><g class="traces" transform="translate(0,33.5)" style="opacity: 1;"><text class="legendtext" text-anchor="start" x="40" y="4.680000000000001" style="font-family: 'Open Sans', verdana, arial, sans-serif; font-size: 12px; fill: rgb(42, 63, 95); fill-opacity: 1; white-space: pre;">Freq</text><g class="layers" style="opacity: 1;"><g class="legendfill"/><g class="legendlines"><path class="js-line" d="M5,0h30" style="fill: none; stroke: rgb(255, 165, 0); stroke-opacity: 1; stroke-width: 1px;"/></g><g class="legendsymbols"><g class="legendpoints"/></g></g><rect class="legendtoggle" x="0" y="-9.5" width="67.84375" height="19" style="fill: rgb(0, 0, 0); fill-opacity: 0;"/></g></g></g><rect class="scrollbar" rx="20" ry="3" width="0" height="0" x="0" y="0" style="fill: rgb(128, 139, 164); fill-opacity: 1;"/></g><g class="g-gtitle"/><g class="g-xtitle"><text class="xtitle" x="204.9148148148148" y="462.140625" text-anchor="middle" style="font-family: sans-serif; font-size: 15px; fill: rgb(0, 0, 0); opacity: 1; font-weight: normal; white-space: pre;">t[s]</text></g><g class="g-x2title"><text class="x2title" x="481.9148148148148" y="462.140625" text-anchor="middle" style="font-family: sans-serif; font-size: 15px; fill: rgb(0, 0, 0); opacity: 1; font-weight: normal; white-space: pre;">f[hz]</text></g><g class="g-ytitle"/><g class="g-y2title"/></g></svg>