<svg class="main-svg" xmlns="http://www.w3.org/2000/svg" xmlns:xlink="http://www.w3.org/1999/xlink" width="700" height="500" style="" viewBox="0 0 700 500"><rect x="0" y="0" width="700" height="500" style="fill: rgb(255, 255, 255); fill-opacity: 1;"/><defs id="defs-a050c4"><g class="clips"><clipPath id="clipa050c4xyplot" class="plotclip"><rect width="236.90002916302126" height="356.5936679790026"/></clipPath><clipPath id="clipa050c4x2y2plot" class="plotclip"><rect width="236.90002916302123" height="356.5936679790026"/></clipPath><clipPath class="axesclip" id="clipa050c4x"><rect x="86.46480023330417" y="0" width="236.90002916302126" height="500"/></clipPath><clipPath class="axesclip" id="clipa050c4y"><rect x="0" y="63.83858267716535" width="700" height="356.5936679790026"/></clipPath><clipPath class="axesclip" id="clipa050c4xy"><rect x="86.46480023330417" y="63.83858267716535" width="236.90002916302126" height="356.5936679790026"/></clipPath><clipPath class="axesclip" id="clipa050c4y2"><rect x="0" y="63.83858267716535" width="700" height="356.5936679790026"/></clipPath><clipPath class="axesclip" id="clipa050c4xy2"><rect x="86.46480023330417" y="63.83858267716535" width="236.90002916302126" height="356.5936679790026"/></clipPath><clipPath class="axesclip" id="clipa050c4x2"><rect x="363.4648002333042" y="0" width="236.90002916302123" height="500"/></clipPath><clipPath class="axesclip" id="clipa050c4x2y"><rect x="363.4648002333042" y="63.83858267716535" width="236.90002916302123" height="356.5936679790026"/></clipPath><clipPath class="axesclip" id="clipa050c4x2y2"><rect x="363.4648002333042" y="63.83858267716535" width="236.90002916302123" height="356.5936679790026"/></clipPath></g><g class="gradients"/></defs><g class="bglayer"/><g class="layer-below"><g class="imagelayer"/><g class="shapelayer"/></g><g class="cartesianlayer"><g class="subplot xy"><g class="layer-subplot"><g class="shapelayer"/><g class="imagelayer"/></g><g class="gridlayer"><g class="x"><path class="xgrid crisp" transform="translate(93.16480023330418,0)" d="M0,63.83858267716535v356.5936679790026" style="stroke: rgb(0, 0, 0); stroke-opacity: 0.1; stroke-width: 0.5px;"/><path class="xgrid crisp" transform="translate(167.66480023330416,0)" d="M0,63.83858267716535v356.5936679790026" style="stroke: rgb(0, 0, 0); stroke-opacity: 0.1; stroke-width: 0.5px;"/><path class="xgrid crisp" transform="translate(242.16480023330416,0)" d="M0,63.83858267716535v356.5936679790026" style="stroke: rgb(0, 0, 0); stroke-opacity: 0.1; stroke-width: 0.5px;"/><path class="xgrid crisp" transform="translate(316.66480023330416,0)" d="M0,63.83858267716535v356.5936679790026" style="stroke: rgb(0, 0, 0); stroke-opacity: 0.1; stroke-width: 0.5px;"/></g><g class="y"><path class="ygrid crisp" transform="translate(0,389.6185826771653)" d="M86.46480023330417,0h236.90002916302126" style="stroke: rgb(0, 0, 0); stroke-opacity: 0.1; stroke-width: 0.5px;"/><path class="ygrid crisp" transform="translate(0,317.11858267716536)" d="M86.46480023330417,0h236.90002916302126" style="stroke: rgb(0, 0, 0); stroke-opacity: 0.1; stroke-width: 0.5px;"/><path class="ygrid crisp" transform="translate(0,244.61858267716536)" d="M86.46480023330417,0h236.90002916302126" style="stroke: rgb(0, 0, 0); stroke-opacity: 0.1; stroke-width: 0.5px;"/><path class="ygrid crisp" transform="translate(0,172.12858267716535)" d="M86.46480023330417,0h236.90002916302126" style="stroke: rgb(0, 0, 0); stroke-opacity: 0.1; stroke-width: 0.5px;"/><path class="ygrid crisp" transform="translate(0,99.62858267716535)" d="M86.46480023330417,0h236.90002916302126" style="stroke: rgb(0, 0, 0); stroke-opacity: 0.1; stroke-width: 0.5px;"/></g></g><g class="zerolinelayer"/><path class="xlines-below"/><path class="ylines-below"/><g class="overlines-below"/><g class="xaxislayer-below"/><g class="yaxislayer-below"/><g class="overaxes-below"/><g class="plot" transform="translate(86.46480023330417,63.83858267716535)" clip-path="url('#clipa050c4xyplot')"><g class="scatterlayer mlayer"><g class="trace scatter trace055d97" style="stroke-miterlimit: 2; opacity: 1;"><g class="fills"/><g class="errorbars"/><g class="lines"><path class="js-line" d="M6.7,180.79L6.77,179.86L6.97,184.04L6.98,184.19L7.49,191.43L7.69,152.54L7.73,154.54L7.74,152.02L7.93,339.67L8.11,10.09L8.49,216.82L8.5,214.6L8.54,250.52L8.91,101.48L9.25,178.72L9.26,175.28L9.63,327.48L9.85,21.95L10.01,157.69L10.02,160.64L10.42,262.81L10.6,131.6L10.77,184.95L10.78,185.03L11.33,346.5L11.53,67.89L11.54,66.83L11.54,65L12.11,271.34L12.29,155.63L12.3,154.42L12.97,57.05L13.03,306.75L13.05,251.86L13.06,250.16L13.18,338.51L13.27,90.29L13.81,282.13L13.82,283.18L13.82,283.81L14.01,109.35L14.57,152.32L14.58,156.26L14.66,85.19L14.88,334.49L15.33,157.61L15.34,157.44L15.52,270.59L15.73,119.92L16.09,138.99L16.1,138.48L16.59,326.45L16.79,83.64L16.85,175.62L16.86,173.64L17.23,284.68L17.41,116.73L17.61,139.74L17.62,139.13L18.08,85.9L18.29,322.23L18.37,136.21L18.38,131.38L18.5,102.97L18.91,264.61L19.13,137.18L19.14,135.75L19.72,261.56L19.79,99.9L19.89,203.66L19.9,198.46L20.01,325.26L20.19,106.42L20.65,253.72L20.66,251.92L21.35,95.27L21.41,255.43L21.42,256.86L21.71,323.7L21.9,89.02L22.17,171.67L22.18,173.31L22.36,253.8L22.57,113.02L22.93,137.14L22.94,137.89L23.06,93.84L23.44,295.58L23.69,133.97L23.7,132.87L23.86,123.86L24.05,259.71L24.45,186.4L24.46,187.84L24.77,80.36L25.14,308.64L25.21,209.83L25.22,208.43L25.33,103.14L25.81,249.57L25.97,163.86L25.98,162.96L26.47,63.77L26.56,248.09L26.73,174.08L26.74,170.34L26.84,290.71L27.09,117.87L27.49,242.94L27.5,243.8L28.18,85.32L28.25,255.96L28.26,257.62L28.55,280.03L28.81,105.22L29.01,196.08L29.02,196.7L29.34,234.01L29.75,116.18L29.77,173.91L29.78,179.04L29.88,86.85L30.29,262.92L30.53,108.51L30.54,109.56L31.03,252.38L31.29,164.21L31.3,162.71L31.61,85.93L32.04,277.21L32.05,263.39L32.06,261.22L32.23,86.43L32.81,169.6L32.82,170.49L33.24,243.01L33.31,70.86L33.57,151.81L33.58,150.11L33.73,278.56L33.94,82.8L34.33,218.92L34.34,217.79L34.43,260.46L35.01,86.08L35.09,237.2L35.1,237.06L35.46,274.09L35.63,87.79L35.85,172.16L35.86,171.05L36.13,241.64L36.58,119.76L36.61,195.85L36.62,200.51L36.73,82.21L37.16,284.32L37.37,105.63L37.38,106.19L37.83,244.1L38.13,134.19L38.14,134.19L38.43,84.64L38.86,292.67L38.89,231.93L38.9,230.26L38.94,239.64L39.05,101.84L39.65,207.09L39.66,205.76L40.06,252.93L40.15,92.61L40.41,161.91L40.42,162.24L40.55,260.71L40.77,109.46L41.17,176.47L41.18,176.26L41.78,248.65L41.85,98.08L41.93,163.9L41.94,162.44L42.28,249.35L42.5,104.94L42.69,193.03L42.7,191.36L43.33,244.27L43.41,121.4L43.45,204.38L43.46,207.71L43.48,266.67L43.55,111.06L44.21,121.16L44.22,121.53L44.76,246.42L44.97,119.69L44.98,119.5L45.12,112.44L45.18,262.56L45.73,238.01L45.74,240.36L45.79,255.71L45.93,119.03L46.49,212.98L46.5,211.19L46.76,251.78L46.82,94.19L47.25,208.85L47.26,209.1L47.5,251.52L47.63,122.37L48.01,177.46L48.02,180.1L48.4,103.87L48.46,249.08L48.77,157.4L48.78,158.17L49.23,255.14L49.45,114.58L49.53,159.54L49.54,160.21L49.89,269.52L50.09,99.56L50.29,230.26L50.3,231.27L50.95,265.88L51.05,131L51.05,136.68L51.06,138.82L51.13,120.07L51.58,259.3L51.81,138.92L51.82,140.32L51.87,240.06L51.94,104.1L52.57,203.74L52.58,204.19L52.66,266.69L52.87,119.06L53.33,222.11L53.34,218.23L53.52,118.24L53.58,248.84L54.09,198.74L54.1,196.71L54.37,281.38L54.56,109.79L54.85,198.01L54.86,198.32L55.01,264.61L55.21,110.46L55.61,167.35L55.62,166.88L56.07,272.29L56.25,119.35L56.37,151.33L56.38,151.91L56.71,263.22L56.91,126.49L57.13,190.16L57.14,190.66L57.4,132.62L57.79,273.45L57.89,181.45L57.9,179.12L58,122.52L58.43,254.32L58.65,161.59L58.66,164.71L59.1,124.65L59.23,224.75L59.41,165.6L59.42,164.77L59.76,123.92L60.13,263.13L60.17,176L60.18,172.56L60.26,249.69L60.8,129L60.93,209.87L60.94,206.56L61.24,254.5L61.45,128.37L61.69,203.19L61.7,202.51L61.76,127.17L61.84,257.41L62.45,176.54L62.46,174.62L62.54,113.98L62.93,259.2L63.21,141.24L63.22,142.07L63.47,114.2L63.54,256.14L63.97,184.06L63.98,185.53L64.24,119.59L64.68,250.49L64.72,212.59L64.73,211.57L64.9,121.64L65.24,250.23L65.48,166.9L65.49,167.49L65.55,217.8L65.95,123.23L66.24,148.23L66.25,150.26L66.37,251.88L66.89,114.23L67,166.34L67.01,164.23L67.08,239.26L67.67,109.94L67.76,185.19L67.77,186.14L68.08,248.42L68.31,113.69L68.52,223.79L68.53,222.26L68.58,112.11L68.82,240.75L69.28,180.98L69.29,182.54L69.81,249.79L70.02,108.15L70.04,133.81L70.05,135.49L70.3,117.77L70.5,241.55L70.8,160.91L70.81,162.78L71.1,124.57L71.51,248.29L71.56,230.87L71.57,229.4L71.85,113.75L71.93,232.27L72.32,164.51L72.33,165.07L72.72,205.76L72.81,124.2L73.08,158.7L73.09,159.13L73.26,247.53L73.44,102.77L73.84,172.84L73.85,172.69L73.94,233.08L74.5,120.38L74.6,172.15L74.61,171.88L74.94,254.13L75.27,113.71L75.36,210.01L75.37,207.11L75.4,132.36L75.64,231.95L76.12,210.74L76.13,210.09L76.66,250.45L76.85,109.29L76.88,169.64L76.89,172.73L76.98,106.83L77.36,225.61L77.64,174.21L77.65,175.56L77.95,137.57L78.37,237.09L78.4,224.21L78.41,225.01L78.47,256.38L78.68,113.15L79.16,181.39L79.17,181.61L79.24,212.59L79.69,137.1L79.92,179.09L79.93,180.06L80.17,253.75L80.39,104.44L80.68,168.49L80.69,168.44L80.78,227.68L81.35,138.54L81.44,150.07L81.45,150.73L81.88,266.29L82.09,109.44L82.2,182.46L82.21,180.59L82.25,132.62L82.47,216.42L82.96,200.38L82.97,200.77L83.15,138.04L83.6,265.35L83.72,183.51L83.73,183.78L83.81,112.75L84.21,226.99L84.48,174.68L84.49,176.15L84.83,132.12L85.17,215.7L85.24,193.26L85.25,194.29L85.3,271.12L85.53,106.82L86,166.2L86.01,166.05L86.4,219.5L86.58,135.77L86.76,195.4L86.77,192.5L87.01,271.96L87.22,108.81L87.52,164.08L87.53,163.87L87.64,222.97L88.26,134.46L88.28,143.93L88.29,143.86L88.71,265.85L88.95,121.78L89.04,172.66L89.05,170.8L89.08,150.48L89.35,215.35L89.8,211.07L89.81,212.4L89.97,139.17L90.44,267.06L90.56,196.01L90.57,195.16L90.65,110.68L91.05,220.48L91.32,187.44L91.33,189.37L91.86,217.29L91.93,140.31L92.08,178.6L92.09,181.46L92.14,269.2L92.36,121.06L92.84,177.27L92.85,178.37L93.47,136.97L93.57,234.05L93.6,167.68L93.61,165.66L93.84,251.91L94.07,119.28L94.36,164.97L94.37,164.4L94.46,220.34L95.12,141.68L95.13,141.22L95.2,119.82L95.57,251.11L95.88,172.82L95.89,171.8L96.1,140.94L96.2,212.31L96.64,181.32L96.65,180.87L96.89,117.04L97.27,240.22L97.4,224.76L97.41,222.88L97.48,136.11L98.16,185.99L98.17,185.81L98.6,120.4L98.69,217.88L98.92,182.18L98.93,184.72L98.98,245.46L99.21,131.27L99.68,180.01L99.69,179.05L100.12,220.01L100.32,105.99L100.44,176.01L100.45,176.06L100.68,234.04L100.96,140.01L101.2,163.19L101.21,162.31L101.24,149.37L101.82,223.71L101.96,183.98L101.97,183.47L102.02,112L102.52,245.57L102.72,167.61L102.73,167.71L102.77,141.28L103.17,212.9L103.48,186.58L103.49,188.52L103.74,107.21L104.21,237.01L104.24,219.17L104.25,219.31L104.26,225L104.49,139.98L105,198.16L105.01,199.14L105.44,113.82L105.64,223.58L105.76,161.95L105.77,164.33L105.94,236.1L106.17,142.73L106.52,180.78L106.53,180.77L106.95,215.4L107.14,116.84L107.28,148.58L107.29,148.43L107.66,244.02L107.91,136.1L108.04,173.52L108.05,172.04L108.08,143L108.64,213.34L108.8,181.5L108.81,178.43L108.87,112.82L109.39,238.71L109.56,172.26L109.57,171.27L109.6,137.61L109.88,210.67L110.32,188.82L110.33,190.3L110.56,119.04L111.08,250.3L111.09,250.18L111.5,141.27L111.84,185.5L111.85,185.72L112.19,226.58L112.28,124.26L112.6,177.26L112.61,177.95L112.78,237.69L113.04,135.56L113.36,181.22L113.37,181.49L113.9,224.68L114.1,132.53L114.12,152.37L114.13,153.81L114.52,249.92L114.77,142.16L114.88,162.71L114.89,161.41L114.92,146.08L115.6,221.02L115.64,197.78L115.65,195.84L115.82,131.49L116.21,246.79L116.4,169.34L116.41,168.63L116.46,141.49L117.05,217.84L117.16,197.95L117.17,199.98L117.52,125.95L117.92,235.7L117.93,236.16L117.94,239.34L118.18,138.84L118.68,172.97L118.69,174.13L119.02,228.53L119.21,133.23L119.44,170.74L119.45,172.14L119.66,235L119.88,136.64L120.2,176.83L120.21,176.76L120.75,226.46L120.95,121.28L120.96,131.97L120.97,133.89L121.37,236.19L121.72,154.77L121.73,154.19L121.73,153.64L122.44,231.98L122.48,187.6L122.49,187.25L122.64,129.14L123.07,232.52L123.24,179.21L123.25,177.98L123.31,136.84L123.87,219.01L124,196.75L124.01,197.43L124.36,127.3L124.76,223.71L124.77,224.47L124.8,235.02L125,137.09L125.52,162.58L125.53,163.8L125.86,220.66L126.09,123.82L126.28,188.05L126.29,188.75L126.49,234.34L126.73,139.04L127.04,165.8L127.05,164.96L127.29,212.06L127.79,120.96L127.8,128.86L127.81,129.97L128.23,232.54L128.56,163.3L128.57,162.83L128.93,153.89L128.99,212.68L129.32,200.85L129.33,200.91L129.45,174.98L129.45,172.91L129.53,127.14L129.91,230.08L130.2,174.26L130.21,174.79L130.63,148.92L130.7,205.21L130.96,192.77L130.97,193.47L131.22,121.99L131.64,232.01L131.72,206.91L131.73,207.48L131.74,210.72L131.84,151.24L132.48,180.64L132.49,181.58L132.71,208.86L132.93,129.37L133.24,163.46L133.25,163.47L133.33,228.42L133.9,151.34L134,183.19L134.01,181.41L134.55,208.15L134.65,125.76L134.76,175.89L134.77,176.4L134.96,151.38L135.07,223.51L135.52,186.01L135.53,186.75L135.59,155.3L135.68,210.34L136.28,197.11L136.29,196.21L136.34,131.16L136.89,216.86L137.04,165.47L137.05,166.47L137.17,147.45L137.66,205.58L137.8,192.15L137.81,194.05L137.97,221.46L138.08,132.26L138.56,210.59L138.57,211.65L138.59,218.48L138.89,147.89L139.32,186.63L139.33,187.95L139.66,217.81L139.76,137.43L140.08,152.35L140.09,152.65L140.32,217.92L140.58,143.98L140.84,179.45L140.85,178.53L141.38,217.5L141.51,142.79L141.6,157.82L141.61,158.34L141.81,150.86L142.01,215.88L142.36,192.41L142.37,192.2L142.42,152.32L143.1,217.4L143.12,200.59L143.13,199.58L143.24,145.17L143.73,220.54L143.88,168.91L143.89,169.95L144,144.21L144.52,213.13L144.64,189.11L144.65,189.92L144.82,215.38L144.94,141.96L145.4,214.13L145.41,214.1L145.48,219.75L145.7,146.22L146.16,173.46L146.17,174.34L146.5,216.82L146.76,143.9L146.92,166.92L146.93,166.45L147.16,218.34L147.28,154.37L147.68,171.04L147.69,170.93L148.24,216.68L148.35,148.29L148.44,148.78L148.45,148.52L148.91,222.24L149.12,142.54L149.2,174.27L149.21,174.67L149.27,150.91L149.96,210.17L149.97,210.45L150.17,134.58L150.6,232.67L150.72,172.34L150.73,174.09L150.97,155.37L151.36,208.42L151.48,190.75L151.49,191.12L151.66,215.06L151.89,135.57L152.24,184.34L152.25,185.09L152.3,220.79L152.55,155.06L153,165.08L153.01,166.1L153.39,220.04L153.59,128.63L153.76,172.7L153.77,172.87L154.03,233.3L154.24,152.95L154.52,168.07L154.53,167.63L155.08,215.67L155.28,136.64L155.29,135.91L155.3,132.15L155.73,236.15L156.04,179.09L156.05,178.9L156.11,151.8L156.8,212.17L156.81,212.97L157.02,125.82L157.45,223.5L157.56,192.27L157.57,192.61L157.8,158.64L158.19,197.26L158.32,192.98L158.33,193.46L158.51,218.06L158.72,128.16L159.08,181.9L159.09,182.6L159.15,225.58L159.53,153.41L159.84,173.74L159.85,175.03L160.24,213.95L160.43,136.3L160.6,189.31L160.61,188.12L160.86,228.03L161.22,158.7L161.36,164.9L161.37,164.73L161.94,215.83L162.12,146.53L162.13,144.94L162.15,128.61L162.56,223.65L162.88,181.82L162.89,181.37L162.95,155.96L163.63,213.91L163.64,210.93L163.65,210.1L163.9,138.72L164.29,221.13L164.4,194.41L164.41,194.35L164.64,159.92L165.15,197.8L165.16,196.44L165.17,196.07L165.38,206.47L165.61,133.4L165.92,170.56L165.93,170.95L165.99,217.92L166.37,152.37L166.68,177.3L166.69,177.05L166.9,209.59L167.31,127.42L167.44,173.37L167.45,172.18L167.71,215.12L168.06,158.73L168.2,164.98L168.21,165.28L168.87,208.22L168.96,164.83L168.97,162.9L169.05,135.31L169.41,210.99L169.72,182.7L169.73,182.81L169.91,158.9L170.31,205.53L170.48,187.82L170.49,186.96L170.74,124.55L171.13,212.07L171.24,196.78L171.25,198.26L171.26,210.11L171.6,162.55L172,196.74L172.01,196.9L172.3,212.42L172.44,132.83L172.76,157.99L172.77,159.23L172.85,207.06L173.33,157.3L173.52,167.12L173.53,166.21L173.73,216.12L174.16,137.41L174.28,157.29L174.29,157.3L174.68,211.37L175.04,166.63L175.05,166.86L175.37,159.2L175.77,211.42L175.8,185.34L175.81,183.32L175.87,129.11L176.4,210.93L176.56,182.28L176.57,181.55L177.06,158.67L177.16,210.71L177.32,188.02L177.33,187.84L177.56,142.64L178.08,213.06L178.09,213.42L178.09,213.81L178.65,153.52L178.84,203.51L178.85,204.09L179.19,221L179.29,141.6L179.6,164.52L179.61,165.22L179.8,209.1L180.24,160.95L180.36,175.36L180.37,176.19L180.89,215.5L181.02,146.97L181.12,158.23L181.13,158.72L181.51,209.49L181.88,179.82L181.89,180.3L181.93,156.01L182.6,221.45L182.64,203.74L182.65,202.54L182.72,151.86L183.22,212.67L183.4,185.19L183.41,185.07L183.61,162.99L184.04,197.97L184.16,186.66L184.17,186.74L184.44,151.63L184.92,221.71L184.92,221.65L184.93,221.35L185.61,158.51L185.68,181.29L185.69,182.03L186.05,217.3L186.25,148.85L186.44,171.44L186.45,171.96L186.61,213.44L187.05,162.52L187.2,171.26L187.21,171.54L187.74,223.16L187.96,151.33L187.96,151.33L187.97,151.27L187.99,146.63L188.36,210.24L188.72,165.34L188.73,164.2L188.74,159.6L189.45,216.57L189.48,212.83L189.49,212.4L189.68,138.62L190.24,181.64L190.25,180.8L190.76,161.05L190.86,199.43L191,195.45L191.01,195.59L191.16,219.52L191.37,144.79L191.76,198.87L191.77,197.87L191.82,199.14L192.49,159.82L192.52,178.33L192.53,179.36L192.91,220.13L193.11,134.22L193.28,169.76L193.29,170.59L193.37,166.48L193.5,199.45L194.04,179.34L194.05,180.04L194.6,225.6L194.8,132.42L194.81,132.47L195.24,200.39L195.56,172.17L195.57,172.22L195.65,179.98L195.71,168.77L195.78,177.92L195.78,178.78L195.92,160.74L196.29,214.64L196.4,175.36L196.4,174.74L196.52,140.1L196.91,196.91L197.15,177.9L197.16,178.69L197.6,159.46L197.81,201.06L197.91,161.45L197.92,161.04L198.03,221.28L198.24,136.39L198.67,194.68L198.68,194.82L198.68,195.19L199.33,159.22L199.43,173.78L199.44,173.94L199.73,216.94L199.94,136.91L200.19,172.2L200.2,172.33L200.37,197.94L200.86,166.46L200.95,179.87L200.96,179.99L201.24,208.51L201.65,138.27L201.71,170.53L201.72,170.44L201.77,169.17L202.05,198.66L202.47,175.21L202.48,175.47L202.72,158.29L203.16,211.86L203.23,192.38L203.24,192.56L203.27,206.72L203.35,143.48L203.99,178.57L204,178.93L204.47,159.39L204.69,209.55L204.75,174.64L204.76,173.46L204.97,212.63L205.06,148.54L205.51,192.55L205.52,192.34L205.6,194.89L205.99,157.66L206.27,175.83L206.28,176.1L206.69,209.21L206.79,153.15L207.03,173.44L207.04,173.19L207.31,198.22L207.68,164.81L207.79,189.4L207.8,189.67L208.38,211.1L208.55,155.92L208.56,156.01L208.99,198.59L209.31,184.82L209.32,185.07L209.83,217.32L209.9,165.19L210.07,201.78L210.08,202.73L210.11,214.74L210.23,155.64L210.83,183.35L210.84,183.14L211.32,163.95L211.54,213.91L211.59,172.54L211.6,171.37L211.8,214.44L211.94,157.28L212.35,192.96L212.36,191.87L212.43,201.4L212.83,163.49L213.11,174.89L213.12,174.54L213.24,215.8L213.68,157.92L213.87,178.65L213.88,177.45L214.13,196.86L214.52,166.08L214.63,187.47L214.64,187.3L214.87,155.22L214.96,213.23L215.39,163.23L215.4,162.81L215.42,156.96L215.89,197.6L216.15,189.81L216.16,189.78L216.57,153.27L216.67,211.46L216.91,204.35L216.92,205.03L216.96,208.22L217.1,154.47L217.67,184.51L217.68,184.48L218.29,152.76L218.38,211.73L218.43,184.99L218.44,185.12L218.66,212.37L218.86,161.02L219.19,186.22L219.2,185.79L219.27,200.59L219.86,166.11L219.95,172.22L219.96,171.53L220,144.05L220.4,206.19L220.71,176.06L220.72,175.66L221.02,197.34L221.42,168.48L221.47,182.77L221.48,183.66L221.69,145.67L222.12,207.29L222.23,164.81L222.24,164.53L222.26,161.92L222.7,200.01L222.99,187.75L223,187.83L223.41,144.01L223.6,197.04L223.75,188.06L223.76,188.82L223.81,208.14L224.02,159.75L224.51,183.28L224.52,183.3L225.11,150.24L225.21,192.74L225.27,187.5L225.28,187.95L225.56,205.16L225.7,162.27L226.03,178.47L226.04,178.48L226.14,198.77L226.68,161.34L226.79,166.76L226.8,165.6L226.83,148.36L227.25,208.16L227.55,174.14L227.56,174.26L227.83,196.5L228.26,161.72L228.31,190.17L228.32,190.32L228.54,148.09L228.95,206.08L229.07,173.46L229.08,173.73L229.16,160.42L229.55,200.06L229.83,184.21L229.84,184.34L229.89,195.96L229.96,162.1L230.2,185.56" style="vector-effect: non-scaling-stroke; fill: none; stroke: rgb(0, 154, 250); stroke-opacity: 1; stroke-width: 1px; opacity: 1;"/></g><g class="points"/><g class="text"/></g></g></g><g class="overplot"/><path class="xlines-above crisp" d="M85.46480023330417,420.9322506561679H323.36482939632543" style="fill: none; stroke-width: 1px; stroke: rgb(0, 0, 0); stroke-opacity: 1;"/><path class="ylines-above crisp" d="M85.96480023330417,63.83858267716535V420.4322506561679" style="fill: none; stroke-width: 1px; stroke: rgb(0, 0, 0); stroke-opacity: 1;"/><g class="overlines-above"/><g class="xaxislayer-above"><path class="xtick ticks crisp" d="M0,420.4322506561679v-5" transform="translate(93.16480023330418,0)" style="stroke: rgb(0, 0, 0); stroke-opacity: 1; stroke-width: 1px;"/><path class="xtick ticks crisp" d="M0,420.4322506561679v-5" transform="translate(167.66480023330416,0)" style="stroke: rgb(0, 0, 0); stroke-opacity: 1; stroke-width: 1px;"/><path class="xtick ticks crisp" d="M0,420.4322506561679v-5" transform="translate(242.16480023330416,0)" style="stroke: rgb(0, 0, 0); stroke-opacity: 1; stroke-width: 1px;"/><path class="xtick ticks crisp" d="M0,420.4322506561679v-5" transform="translate(316.66480023330416,0)" style="stroke: rgb(0, 0, 0); stroke-opacity: 1; stroke-width: 1px;"/><g class="xtick"><text text-anchor="middle" x="0" y="434.6322506561679" transform="translate(93.16480023330418,0)" style="font-family: sans-serif; font-size: 11px; fill: rgb(0, 0, 0); fill-opacity: 1; white-space: pre;">0</text></g><g class="xtick"><text text-anchor="middle" x="0" y="434.6322506561679" transform="translate(167.66480023330416,0)" style="font-family: sans-serif; font-size: 11px; fill: rgb(0, 0, 0); fill-opacity: 1; white-space: pre;">1</text></g><g class="xtick"><text text-anchor="middle" x="0" y="434.6322506561679" transform="translate(242.16480023330416,0)" style="font-family: sans-serif; font-size: 11px; fill: rgb(0, 0, 0); fill-opacity: 1; white-space: pre;">2</text></g><g class="xtick"><text text-anchor="middle" x="0" y="434.6322506561679" transform="translate(316.66480023330416,0)" style="font-family: sans-serif; font-size: 11px; fill: rgb(0, 0, 0); fill-opacity: 1; white-space: pre;">3</text></g></g><g class="yaxislayer-above"><path class="ytick ticks crisp" d="M86.46480023330417,0h5" transform="translate(0,389.6185826771653)" style="stroke: rgb(0, 0, 0); stroke-opacity: 1; stroke-width: 1px;"/><path class="ytick ticks crisp" d="M86.46480023330417,0h5" transform="translate(0,317.11858267716536)" style="stroke: rgb(0, 0, 0); stroke-opacity: 1; stroke-width: 1px;"/><path class="ytick ticks crisp" d="M86.46480023330417,0h5" transform="translate(0,244.61858267716536)" style="stroke: rgb(0, 0, 0); stroke-opacity: 1; stroke-width: 1px;"/><path class="ytick ticks crisp" d="M86.46480023330417,0h5" transform="translate(0,172.12858267716535)" style="stroke: rgb(0, 0, 0); stroke-opacity: 1; stroke-width: 1px;"/><path class="ytick ticks crisp" d="M86.46480023330417,0h5" transform="translate(0,99.62858267716535)" style="stroke: rgb(0, 0, 0); stroke-opacity: 1; stroke-width: 1px;"/><g class="ytick"><text text-anchor="end" x="83.26480023330417" y="3.8499999999999996" transform="translate(0,389.6185826771653)" style="font-family: sans-serif; font-size: 11px; fill: rgb(0, 0, 0); fill-opacity: 1; white-space: pre;">-0.2</text></g><g class="ytick"><text text-anchor="end" x="83.26480023330417" y="3.8499999999999996" transform="translate(0,317.11858267716536)" style="font-family: sans-serif; font-size: 11px; fill: rgb(0, 0, 0); fill-opacity: 1; white-space: pre;">-0.1</text></g><g class="ytick"><text text-anchor="end" x="83.26480023330417" y="3.8499999999999996" transform="translate(0,244.61858267716536)" style="font-family: sans-serif; font-size: 11px; fill: rgb(0, 0, 0); fill-opacity: 1; white-space: pre;">0.0</text></g><g class="ytick"><text text-anchor="end" x="83.26480023330417" y="3.8499999999999996" transform="translate(0,172.12858267716535)" style="font-family: sans-serif; font-size: 11px; fill: rgb(0, 0, 0); fill-opacity: 1; white-space: pre;">0.1</text></g><g class="ytick"><text text-anchor="end" x="83.26480023330417" y="3.8499999999999996" transform="translate(0,99.62858267716535)" style="font-family: sans-serif; font-size: 11px; fill: rgb(0, 0, 0); fill-opacity: 1; white-space: pre;">0.2</text></g></g><g class="overaxes-above"/></g><g class="subplot x2y2"><g class="layer-subplot"><g class="shapelayer"/><g class="imagelayer"/></g><g class="gridlayer"><g class="x2"><path class="x2grid crisp" transform="translate(370.1548002333042,0)" d="M0,63.83858267716535v356.5936679790026" style="stroke: rgb(0, 0, 0); stroke-opacity: 0.1; stroke-width: 0.5px;"/><path class="x2grid crisp" transform="translate(414.85480023330416,0)" d="M0,63.83858267716535v356.5936679790026" style="stroke: rgb(0, 0, 0); stroke-opacity: 0.1; stroke-width: 0.5px;"/><path class="x2grid crisp" transform="translate(459.55480023330415,0)" d="M0,63.83858267716535v356.5936679790026" style="stroke: rgb(0, 0, 0); stroke-opacity: 0.1; stroke-width: 0.5px;"/><path class="x2grid crisp" transform="translate(504.2548002333042,0)" d="M0,63.83858267716535v356.5936679790026" style="stroke: rgb(0, 0, 0); stroke-opacity: 0.1; stroke-width: 0.5px;"/><path class="x2grid crisp" transform="translate(548.9548002333042,0)" d="M0,63.83858267716535v356.5936679790026" style="stroke: rgb(0, 0, 0); stroke-opacity: 0.1; stroke-width: 0.5px;"/><path class="x2grid crisp" transform="translate(593.6648002333042,0)" d="M0,63.83858267716535v356.5936679790026" style="stroke: rgb(0, 0, 0); stroke-opacity: 0.1; stroke-width: 0.5px;"/></g><g class="y2"><path class="y2grid crisp" transform="translate(0,410.33858267716533)" d="M363.4648002333042,0h236.90002916302123" style="stroke: rgb(0, 0, 0); stroke-opacity: 0.1; stroke-width: 0.5px;"/><path class="y2grid crisp" transform="translate(0,305.19858267716535)" d="M363.4648002333042,0h236.90002916302123" style="stroke: rgb(0, 0, 0); stroke-opacity: 0.1; stroke-width: 0.5px;"/><path class="y2grid crisp" transform="translate(0,200.04858267716537)" d="M363.4648002333042,0h236.90002916302123" style="stroke: rgb(0, 0, 0); stroke-opacity: 0.1; stroke-width: 0.5px;"/><path class="y2grid crisp" transform="translate(0,94.89858267716535)" d="M363.4648002333042,0h236.90002916302123" style="stroke: rgb(0, 0, 0); stroke-opacity: 0.1; stroke-width: 0.5px;"/></g></g><g class="zerolinelayer"/><path class="xlines-below"/><path class="ylines-below"/><g class="overlines-below"/><g class="xaxislayer-below"/><g class="yaxislayer-below"/><g class="overaxes-below"/><g class="plot" transform="translate(363.4648002333042,63.83858267716535)" clip-path="url('#clipa050c4x2y2plot')"><g class="scatterlayer mlayer"><g class="trace scatter tracea40fb9" style="stroke-miterlimit: 2; opacity: 1;"><g class="fills"/><g class="errorbars"/><g class="lines"><path class="js-line" d="M6.7,346.36L8.18,345.93L8.19,345.51L8.46,346.46L8.64,337.42L8.94,345.48L8.95,345.32L9.19,346.35L9.67,345.31L9.68,345.22L10.53,323.27L10.55,310.77L10.58,10.09L10.92,343.29L11.23,341.6L11.25,341.59L11.89,339.83L12.1,346.17L12.14,344.76L12.16,344.18L12.5,270.62L12.52,160.49L13.29,346.12L13.31,345.96L13.32,345.62L13.47,343.85L14.11,344.02L14.12,343.83L14.41,338.36L14.42,332.12L14.44,295.87L15.15,343.84L15.17,343.94L15.41,345.04L15.75,343.49L15.9,344.59L15.91,344.59L16.23,340.2L16.24,339.59L16.36,318.67L16.37,295.22L16.39,99.08L16.82,345.71L17.1,344.05L17.12,344.11L17.43,343.74L17.79,345.01L17.89,344.21L17.91,343.93L18.3,324.3L18.31,313.07L18.34,132.82L18.56,346.33L18.98,343.87L19,343.95L19.8,346.38L19.92,345.62L19.94,345.5L20.23,337.27L20.25,333.29L20.28,278.34L20.95,345.84L20.96,345.89L21.34,346.49L21.62,345.77L21.63,345.73L22.16,344.26L22.17,343.63L22.23,323.72L22.57,346.44L22.65,346.19L22.66,346.14L22.84,345.95L23.39,346.27L23.41,346.29L24.11,345.78L24.12,346.1L24.14,345L24.2,331.45L24.35,346.32L24.36,346.31L24.38,346.31L24.88,345.88L25.15,346.29L25.17,346.26L26.04,344.59L26.06,343.88L26.15,325.8L26.16,234.31L26.92,345.56L26.94,345.54L27.31,346.44L27.52,345.15L27.53,345.03L27.98,339.44L28,338.6L28.12,245.39L28.13,59.06L28.89,343.34L28.9,343.42L29.29,345.78L29.84,345.34L29.86,345.4L30.02,339.77L30.04,337.93L30.11,221.66L30.47,343.64L30.48,343.8L31.2,345.14L31.36,344.77L31.38,344.72L31.84,341.37L31.85,340.82L32.03,321.07L32.05,311.63L32.09,188.55L32.75,344.14L32.76,344.24L33.33,345.12L33.52,344.34L33.54,344.33L33.66,344.59L33.82,343.26L33.84,342.76L34,337.11L34.02,335.61L34.07,281.34L34.39,344.16L34.55,344.13L34.57,344.15L35.77,345.99L35.79,345.73L35.8,343.97L35.91,344.72L36.1,294.52L36.35,343.9L36.37,344L37.65,346.43L37.76,346.07L37.77,345.87L37.83,345.97L38.07,342.02L38.08,339.4L38.11,335.03L38.8,346.2L38.87,346.18L38.89,346.17L38.98,345.97L39.57,346.46L39.59,346.46L40.12,345.17L40.14,343.08L40.79,346.46L40.9,346.42L40.91,346.47L42.02,345.64L42.03,345.44L42.15,336.96L42.22,342.77L42.24,343.97L42.66,346.38L43.01,346.19L43.03,345.98L43.95,345.5L43.97,345.46L44.15,341.14L44.16,339.24L44.21,307.89L44.71,345.57L44.76,345.55L44.77,345.54L45.61,345.58L45.62,345.31L45.95,346.02L46.22,344.06L46.23,343.91L46.25,343.73L46.26,314.61L46.28,305.98L46.87,346.39L46.93,346.29L46.95,346.31L47.48,345.78L47.5,345.49L47.59,341.17L47.66,346.49L47.96,345.36L47.98,345.29L48.21,342.78L48.23,342.24L48.33,293.15L48.44,339.12L48.45,341.24L49.26,346.32L49.27,346.26L49.29,346.31L49.44,346.45L49.54,345.85L49.56,342.82L49.75,346.16L50.32,344.42L50.33,344.03L50.45,315.38L50.75,344.64L50.76,344.69L51.36,346.44L51.51,345.47L51.52,343.38L51.54,342.84L52.15,345.95L52.18,345.74L52.19,345.67L52.48,341.5L52.49,339.86L52.54,314.75L53,346.1L53.19,346.04L53.21,345.94L53.47,344.89L53.49,344.18L53.5,340.72L53.71,346.23L54.23,345.01L54.25,345.04L54.56,340.18L54.58,338.66L54.62,314.44L55.26,345.96L55.28,346.01L55.5,345.34L56.33,346.43L56.35,346.42L56.68,345.43L56.69,345.15L56.83,346.1L56.86,336.62L56.99,345.64L57.01,345.69L57.29,346.2L57.47,344.24L57.48,337.53L58.26,346.27L58.27,346.26L58.75,346.29L58.85,345.92L58.87,345.61L58.88,343.28L59.23,346.45L59.61,346.02L59.63,346.09L60.69,346.13L60.71,346.06L60.73,346.03L61.04,344.67L61.07,345.21L61.09,339.4L61.82,346.38L61.85,346.29L61.86,346.23L62.95,345.3L62.96,345.22L63.17,345.44L63.2,342.88L63.23,344.81L63.25,345.82L63.28,336.27L63.52,346.45L63.98,343.82L63.99,343.72L64.13,342.26L64.74,343.21L64.75,343.39L65.14,344.52L65.41,342.86L65.42,338.23L65.5,319.3L65.84,346.38L66.2,345.79L66.21,345.83L67.24,345.37L67.26,345.31L67.6,342.9L67.61,341.85L67.64,321.52L68.02,346.48L68.16,346.38L68.18,346.33L68.22,346.49L68.67,345.64L68.82,345.8L68.84,345.79L69.36,346.18L69.61,345.82L69.62,345.6L69.64,345.77L69.85,341.42L69.86,335.29L69.88,333.75L70.46,346.16L70.47,346.15L71.32,346.35L71.37,346.14L71.38,346.14L72.05,345.59L72.07,345.39L72.11,340.24L72.62,346.43L72.69,346.38L72.71,346.33L74.36,346.34L74.38,344.45L74.47,342.36L75.05,346.45L75.15,346.4L75.17,346.38L76.6,346.47L76.64,346.18L76.66,344.88L77.21,346.47L77.43,346.44L77.45,346.39L78.94,346.41L78.95,346.22L78.97,345.27L79.37,346.49L79.73,346.47L79.74,346.41L81.26,345.93L81.28,345.26L81.29,342.3L81.92,346.49L82.02,346.45L82.04,346.44L83.6,345.83L83.62,345.43L83.73,341.23L84.35,346.37L84.36,346.31L84.38,346.36L85.81,345.72L85.82,345.32L86.09,336.19L86.52,346.32L86.58,346.25L86.6,346.27L87.88,346.18L87.89,344.55L87.95,342.34L88.16,346.48L88.49,343.99L88.5,336.77L88.83,346.41L89.28,346.35L89.29,346.35L90.01,346.12L90.02,345.45L90.59,346.44L90.78,345.97L90.8,345.71L90.81,346.4L90.9,342.76L91.54,346.24L91.56,346.27L91.96,345.57L91.97,345.44L92.05,342.82L92.06,338.35L92.11,332.19L92.72,346.46L92.84,346.32L92.85,346.32L93.11,346.42L93.17,345.93L93.18,345.67L93.28,346.37L93.36,343.36L93.91,345.91L93.93,346L95.09,346.49L95.12,346.47L95.13,346.45L95.83,345.49L95.85,345.33L95.98,346.44L96.24,344.6L96.28,345.46L96.29,342.9L97.01,346.33L97.08,346.32L97.1,346.34L102.6,346.41L102.61,346.31L103.39,346.5L103.43,346.47L103.45,346.49L103.51,346.24L104.22,346.48L104.24,346.49L105.68,346.3L105.7,345.62L105.89,344.08L106.11,346.47L106.46,346.45L106.47,346.45L108.41,346.19L108.42,346.04L108.45,344.7L108.9,346.5L109.14,346.45L109.15,346.44L110.99,346.36L111,346.33L111.02,346.25L111.05,345.38L111.18,346.46L111.73,346.43L111.75,346.45L122.04,346.4L122.06,346.3L122.07,346.06L122.2,346.42L122.8,346.36L122.82,346.37L124.41,346.24L124.42,345.53L125.15,346.48L125.21,346.47L125.23,346.47L136.02,346.43L136.03,346.33L136.98,346.49L137,346.49L153.84,346L153.85,345.52L154.64,346.48L154.66,346.48L166.35,346.5L166.37,346.5L230.2,346.5" style="vector-effect: non-scaling-stroke; fill: none; stroke: rgb(255, 165, 0); stroke-opacity: 1; stroke-width: 1px; opacity: 1;"/></g><g class="points"/><g class="text"/></g></g></g><g class="overplot"/><path class="xlines-above crisp" d="M362.4648002333042,420.9322506561679H600.3648293963254" style="fill: none; stroke-width: 1px; stroke: rgb(0, 0, 0); stroke-opacity: 1;"/><path class="ylines-above crisp" d="M362.9648002333042,63.83858267716535V420.4322506561679" style="fill: none; stroke-width: 1px; stroke: rgb(0, 0, 0); stroke-opacity: 1;"/><g class="overlines-above"/><g class="xaxislayer-above"><path class="x2tick ticks crisp" d="M0,420.4322506561679v-5" transform="translate(370.1548002333042,0)" style="stroke: rgb(0, 0, 0); stroke-opacity: 1; stroke-width: 1px;"/><path class="x2tick ticks crisp" d="M0,420.4322506561679v-5" transform="translate(414.85480023330416,0)" style="stroke: rgb(0, 0, 0); stroke-opacity: 1; stroke-width: 1px;"/><path class="x2tick ticks crisp" d="M0,420.4322506561679v-5" transform="translate(459.55480023330415,0)" style="stroke: rgb(0, 0, 0); stroke-opacity: 1; stroke-width: 1px;"/><path class="x2tick ticks crisp" d="M0,420.4322506561679v-5" transform="translate(504.2548002333042,0)" style="stroke: rgb(0, 0, 0); stroke-opacity: 1; stroke-width: 1px;"/><path class="x2tick ticks crisp" d="M0,420.4322506561679v-5" transform="translate(548.9548002333042,0)" style="stroke: rgb(0, 0, 0); stroke-opacity: 1; stroke-width: 1px;"/><path class="x2tick ticks crisp" d="M0,420.4322506561679v-5" transform="translate(593.6648002333042,0)" style="stroke: rgb(0, 0, 0); stroke-opacity: 1; stroke-width: 1px;"/><g class="x2tick"><text text-anchor="middle" x="0" y="434.6322506561679" transform="translate(370.1548002333042,0)" style="font-family: sans-serif; font-size: 11px; fill: rgb(0, 0, 0); fill-opacity: 1; white-space: pre;">0</text></g><g class="x2tick"><text text-anchor="middle" x="0" y="434.6322506561679" transform="translate(414.85480023330416,0)" style="font-family: sans-serif; font-size: 11px; fill: rgb(0, 0, 0); fill-opacity: 1; white-space: pre;">1000</text></g><g class="x2tick"><text text-anchor="middle" x="0" y="434.6322506561679" transform="translate(459.55480023330415,0)" style="font-family: sans-serif; font-size: 11px; fill: rgb(0, 0, 0); fill-opacity: 1; white-space: pre;">2000</text></g><g class="x2tick"><text text-anchor="middle" x="0" y="434.6322506561679" transform="translate(504.2548002333042,0)" style="font-family: sans-serif; font-size: 11px; fill: rgb(0, 0, 0); fill-opacity: 1; white-space: pre;">3000</text></g><g class="x2tick"><text text-anchor="middle" x="0" y="434.6322506561679" transform="translate(548.9548002333042,0)" style="font-family: sans-serif; font-size: 11px; fill: rgb(0, 0, 0); fill-opacity: 1; white-space: pre;">4000</text></g><g class="x2tick"><text text-anchor="middle" x="0" y="434.6322506561679" transform="translate(593.6648002333042,0)" style="font-family: sans-serif; font-size: 11px; fill: rgb(0, 0, 0); fill-opacity: 1; white-space: pre;">5000</text></g></g><g class="yaxislayer-above"><path class="y2tick ticks crisp" d="M363.4648002333042,0h5" transform="translate(0,410.33858267716533)" style="stroke: rgb(0, 0, 0); stroke-opacity: 1; stroke-width: 1px;"/><path class="y2tick ticks crisp" d="M363.4648002333042,0h5" transform="translate(0,305.19858267716535)" style="stroke: rgb(0, 0, 0); stroke-opacity: 1; stroke-width: 1px;"/><path class="y2tick ticks crisp" d="M363.4648002333042,0h5" transform="translate(0,200.04858267716537)" style="stroke: rgb(0, 0, 0); stroke-opacity: 1; stroke-width: 1px;"/><path class="y2tick ticks crisp" d="M363.4648002333042,0h5" transform="translate(0,94.89858267716535)" style="stroke: rgb(0, 0, 0); stroke-opacity: 1; stroke-width: 1px;"/><g class="y2tick"><text text-anchor="end" x="360.2648002333042" y="3.8499999999999996" transform="translate(0,410.33858267716533)" style="font-family: sans-serif; font-size: 11px; fill: rgb(0, 0, 0); fill-opacity: 1; white-space: pre;">0</text></g><g class="y2tick"><text text-anchor="end" x="360.2648002333042" y="3.8499999999999996" transform="translate(0,305.19858267716535)" style="font-family: sans-serif; font-size: 11px; fill: rgb(0, 0, 0); fill-opacity: 1; white-space: pre;">500</text></g><g class="y2tick"><text text-anchor="end" x="360.2648002333042" y="3.8499999999999996" transform="translate(0,200.04858267716537)" style="font-family: sans-serif; font-size: 11px; fill: rgb(0, 0, 0); fill-opacity: 1; white-space: pre;">1000</text></g><g class="y2tick"><text text-anchor="end" x="360.2648002333042" y="3.8499999999999996" transform="translate(0,94.89858267716535)" style="font-family: sans-serif; font-size: 11px; fill: rgb(0, 0, 0); fill-opacity: 1; white-space: pre;">1500</text></g></g><g class="overaxes-above"/></g></g><g class="polarlayer"/><g class="ternarylayer"/><g class="geolayer"/><g class="funnelarealayer"/><g class="pielayer"/><g class="treemaplayer"/><g class="sunburstlayer"/><g class="glimages"/><defs id="topdefs-a050c4"><g class="clips"/><clipPath id="legenda050c4"><rect width="73" height="58" x="0" y="0"/></clipPath></defs><g class="layer-above"><g class="imagelayer"/><g class="shapelayer"/></g><g class="infolayer"><g class="legend" pointer-events="all" transform="translate(615.08,60)"><rect class="bg" shape-rendering="crispEdges" width="73" height="58" x="0" y="0" style="stroke: rgb(68, 68, 68); stroke-opacity: 1; fill: rgb(255, 255, 255); fill-opacity: 1; stroke-width: 0px;"/><g class="scrollbox" transform="" clip-path="url('#legenda050c4')"><g class="groups" transform=""><g class="traces" transform="translate(0,14.5)" style="opacity: 1;"><text class="legendtext" text-anchor="start" x="40" y="4.680000000000001" style="font-family: 'Open Sans', verdana, arial, sans-serif; font-size: 12px; fill: rgb(42, 63, 95); fill-opacity: 1; white-space: pre;">Time</text><g class="layers" style="opacity: 1;"><g class="legendfill"/><g class="legendlines"><path class="js-line" d="M5,0h30" style="fill: none; stroke: rgb(0, 154, 250); stroke-opacity: 1; stroke-width: 1px;"/></g><g class="legendsymbols"><g class="legendpoints"/></g></g><rect class="legendtoggle" x="0" y="-9.5" width="67.84375" height="19" style="fill: rgb(0, 0, 0); fill-opacity: 0;"/></g></g><g class="groups" transform="translate(0,10)"><g class="traces" transform="translate(0,33.5)" style="opacity: 1;"><text class="legendtext" text-anchor="start" x="40" y="4.680000000000001" style="font-family: 'Open Sans', verdana, arial, sans-serif; font-size: 12px; fill: rgb(42, 63, 95); fill-opacity: 1; white-space: pre;">Freq</text><g class="layers" style="opacity: 1;"><g class="legendfill"/><g class="legendlines"><path class="js-line" d="M5,0h30" style="fill: none; stroke: rgb(255, 165, 0); stroke-opacity: 1; stroke-width: 1px;"/></g><g class="legendsymbols"><g class="legendpoints"/></g></g><rect class="legendtoggle" x="0" y="-9.5" width="67.84375" height="19" style="fill: rgb(0, 0, 0); fill-opacity: 0;"/></g></g></g><rect class="scrollbar" rx="20" ry="3" width="0" height="0" x="0" y="0" style="fill: rgb(128, 139, 164); fill-opacity: 1;"/></g><g class="g-gtitle"/><g class="g-xtitle"><text class="xtitle" x="204.9148148148148" y="462.140625" text-anchor="middle" style="font-family: sans-serif; font-size: 15px; fill: rgb(0, 0, 0); opacity: 1; font-weight: normal; white-space: pre;">t[s]</text></g><g class="g-x2title"><text class="x2title" x="481.9148148148148" y="462.140625" text-anchor="middle" style="font-family: sans-serif; font-size: 15px; fill: rgb(0, 0, 0); opacity: 1; font-weight: normal; white-space: pre;">f[hz]</text></g><g class="g-ytitle"/><g class="g-y2title"/></g></svg>