<svg class="main-svg" xmlns="http://www.w3.org/2000/svg" xmlns:xlink="http://www.w3.org/1999/xlink" width="700" height="500" style="" viewBox="0 0 700 500"><rect x="0" y="0" width="700" height="500" style="fill: rgb(255, 255, 255); fill-opacity: 1;"/><defs id="defs-dd3738"><g class="clips"><clipPath id="clipdd3738xyplot" class="plotclip"><rect width="236.90002916302126" height="356.5936679790026"/></clipPath><clipPath id="clipdd3738x2y2plot" class="plotclip"><rect width="236.90002916302123" height="356.5936679790026"/></clipPath><clipPath class="axesclip" id="clipdd3738x"><rect x="86.46480023330417" y="0" width="236.90002916302126" height="500"/></clipPath><clipPath class="axesclip" id="clipdd3738y"><rect x="0" y="63.83858267716535" width="700" height="356.5936679790026"/></clipPath><clipPath class="axesclip" id="clipdd3738xy"><rect x="86.46480023330417" y="63.83858267716535" width="236.90002916302126" height="356.5936679790026"/></clipPath><clipPath class="axesclip" id="clipdd3738y2"><rect x="0" y="63.83858267716535" width="700" height="356.5936679790026"/></clipPath><clipPath class="axesclip" id="clipdd3738xy2"><rect x="86.46480023330417" y="63.83858267716535" width="236.90002916302126" height="356.5936679790026"/></clipPath><clipPath class="axesclip" id="clipdd3738x2"><rect x="363.4648002333042" y="0" width="236.90002916302123" height="500"/></clipPath><clipPath class="axesclip" id="clipdd3738x2y"><rect x="363.4648002333042" y="63.83858267716535" width="236.90002916302123" height="356.5936679790026"/></clipPath><clipPath class="axesclip" id="clipdd3738x2y2"><rect x="363.4648002333042" y="63.83858267716535" width="236.90002916302123" height="356.5936679790026"/></clipPath></g><g class="gradients"/></defs><g class="bglayer"/><g class="layer-below"><g class="imagelayer"/><g class="shapelayer"/></g><g class="cartesianlayer"><g class="subplot xy"><g class="layer-subplot"><g class="shapelayer"/><g class="imagelayer"/></g><g class="gridlayer"><g class="x"><path class="xgrid crisp" transform="translate(93.16480023330418,0)" d="M0,63.83858267716535v356.5936679790026" style="stroke: rgb(0, 0, 0); stroke-opacity: 0.1; stroke-width: 0.5px;"/><path class="xgrid crisp" transform="translate(167.66480023330416,0)" d="M0,63.83858267716535v356.5936679790026" style="stroke: rgb(0, 0, 0); stroke-opacity: 0.1; stroke-width: 0.5px;"/><path class="xgrid crisp" transform="translate(242.16480023330416,0)" d="M0,63.83858267716535v356.5936679790026" style="stroke: rgb(0, 0, 0); stroke-opacity: 0.1; stroke-width: 0.5px;"/><path class="xgrid crisp" transform="translate(316.66480023330416,0)" d="M0,63.83858267716535v356.5936679790026" style="stroke: rgb(0, 0, 0); stroke-opacity: 0.1; stroke-width: 0.5px;"/></g><g class="y"><path class="ygrid crisp" transform="translate(0,376.96858267716533)" d="M86.46480023330417,0h236.90002916302126" style="stroke: rgb(0, 0, 0); stroke-opacity: 0.1; stroke-width: 0.5px;"/><path class="ygrid crisp" transform="translate(0,301.9185826771654)" d="M86.46480023330417,0h236.90002916302126" style="stroke: rgb(0, 0, 0); stroke-opacity: 0.1; stroke-width: 0.5px;"/><path class="ygrid crisp" transform="translate(0,226.87858267716535)" d="M86.46480023330417,0h236.90002916302126" style="stroke: rgb(0, 0, 0); stroke-opacity: 0.1; stroke-width: 0.5px;"/><path class="ygrid crisp" transform="translate(0,151.83858267716533)" d="M86.46480023330417,0h236.90002916302126" style="stroke: rgb(0, 0, 0); stroke-opacity: 0.1; stroke-width: 0.5px;"/><path class="ygrid crisp" transform="translate(0,76.79858267716534)" d="M86.46480023330417,0h236.90002916302126" style="stroke: rgb(0, 0, 0); stroke-opacity: 0.1; stroke-width: 0.5px;"/></g></g><g class="zerolinelayer"/><path class="xlines-below"/><path class="ylines-below"/><g class="overlines-below"/><g class="xaxislayer-below"/><g class="yaxislayer-below"/><g class="overaxes-below"/><g class="plot" transform="translate(86.46480023330417,63.83858267716535)" clip-path="url('#clipdd3738xyplot')"><g class="scatterlayer mlayer"><g class="trace scatter tracec17afb" style="stroke-miterlimit: 2; opacity: 1;"><g class="fills"/><g class="errorbars"/><g class="lines"><path class="js-line" d="M6.7,163.06L6.8,168.1L6.83,162.44L6.83,162.1L7.49,86.54L7.54,245.53L7.58,143.03L7.59,147.86L7.67,346.5L7.91,31.74L8.34,159.86L8.35,164.15L8.43,253.01L8.54,85.07L9.1,128.12L9.11,116.22L9.12,21.19L9.21,300.44L9.86,195.72L9.87,190.42L10.48,69.57L10.57,248.28L10.62,104.74L10.63,109.3L10.7,299.65L10.97,45.89L11.38,183.6L11.39,190.44L11.46,249.7L11.83,37.69L12.14,85.74L12.15,82.22L12.35,301.33L12.59,33.96L12.9,221.54L12.91,217.53L12.97,273.49L13.24,73.06L13.66,128.95L13.67,126.41L13.85,284.93L14.08,47.59L14.42,214.21L14.43,215.85L14.51,275.51L14.86,57.38L15.18,113.13L15.19,113.78L15.39,278.58L15.49,10.09L15.94,173.5L15.95,164.24L16,289.89L16.15,66.47L16.7,80.13L16.71,74.22L16.93,270.96L17.11,55.78L17.46,175.82L17.47,172.32L17.53,304.82L18.07,49.44L18.22,136.06L18.23,140.66L18.44,302.15L18.66,43.25L18.98,107.56L18.99,108.72L19.03,294.47L19.48,77.14L19.74,93.78L19.75,97.32L19.96,264.09L20.21,72.28L20.5,190.7L20.51,191.34L20.56,261.17L21.23,53.94L21.26,178.69L21.27,185.18L21.47,291.26L21.69,43.18L22.02,173.14L22.03,178.37L22.65,76.91L22.69,281.73L22.78,127.2L22.79,133.26L23,255.92L23.24,48.92L23.54,165.6L23.55,171.34L23.62,277.28L24,32.62L24.3,184.33L24.31,190.07L24.51,282.63L24.73,57.26L25.06,194.2L25.07,197.28L25.13,288.84L25.51,82.09L25.82,155.93L25.83,161.6L26.03,274.08L26.31,83.87L26.58,170.22L26.59,175.55L26.66,272.98L27.04,49.02L27.34,180.53L27.35,181.04L27.54,274.33L27.92,74.57L28.1,185.6L28.11,182.38L28.17,293.1L28.55,81.03L28.86,168.81L28.87,173.59L29.09,275.06L29.34,71.32L29.62,159.93L29.63,163.09L29.7,264.53L30.07,33.1L30.38,161.99L30.39,163.15L30.61,267.42L30.83,61.79L31.14,185.82L31.15,183.01L31.2,282.5L31.58,72.84L31.9,171.77L31.91,170.91L32.13,258.76L32.44,74.72L32.66,181.51L32.67,182.42L32.76,260.94L33.1,37.93L33.42,186.39L33.43,186.14L33.62,262.47L33.86,61.84L34.18,178.04L34.19,173.02L34.24,252.82L34.6,84.35L34.94,146.31L34.95,143.98L35.13,260.18L35.35,74.43L35.7,163.83L35.71,163.7L35.79,265.55L36,73.08L36.46,158.78L36.47,162.56L36.68,254.39L36.9,91.26L37.22,151.43L37.23,152.66L37.34,263.47L37.52,69.58L37.98,131.73L37.99,137.57L38.23,244.23L38.58,88.34L38.74,170.77L38.75,175.6L38.86,254.4L39.01,81.82L39.5,182.68L39.51,188.99L39.72,275.11L40.06,80.86L40.26,175.95L40.27,179.09L40.37,270.45L40.69,77.74L41.02,171.41L41.03,175.87L41.26,239.1L41.58,93.48L41.78,166.17L41.79,170.55L41.88,263.53L42.04,79.33L42.54,188.83L42.55,194.07L42.75,264.41L43,90.66L43.3,164.27L43.31,162.24L43.37,254.54L43.72,86.19L44.06,171.15L44.07,173.42L44.26,226.37L44.61,68.59L44.82,152.44L44.83,155.95L44.9,245.17L45.24,93.34L45.58,190.02L45.59,191.38L45.78,238.91L46.16,76.23L46.34,153.15L46.35,150.55L46.54,262.43L46.92,104.48L47.1,164.38L47.11,164.19L47.29,227.48L47.65,77.37L47.86,134.67L47.87,134.61L48.03,250.41L48.27,95.97L48.62,178.29L48.63,179.47L48.82,222.89L49.14,95.76L49.38,137.22L49.39,135.44L49.58,257.94L50.09,112.52L50.14,150.8L50.15,150.3L50.46,228.54L50.68,88.64L50.9,127.62L50.91,129.07L51.09,249.12L51.31,109.51L51.66,192.32L51.67,194.67L51.87,229.09L52.26,98.44L52.42,150.41L52.43,150.31L52.61,261.86L52.85,92.13L53.18,154.67L53.19,155.03L53.5,225.11L53.79,95.45L53.94,132.65L53.95,134.86L54.12,270.9L54.34,98.52L54.7,191.78L54.71,194.05L55.04,219.47L55.3,74.38L55.46,153.3L55.47,156.17L55.65,253.41L56.16,102.06L56.22,163.15L56.23,164.83L56.54,232.66L56.82,89.56L56.98,126.97L56.99,132.16L57.15,278.68L57.38,102.03L57.74,183.31L57.75,185.23L58.05,228.56L58.33,65.52L58.5,180.56L58.51,181.09L58.69,247.34L59.07,113.24L59.26,177.06L59.27,178.06L59.58,231.27L59.84,85.4L60.02,143.73L60.03,149.58L60.19,255.94L60.42,120.79L60.78,161.11L60.79,163.9L61.08,232.79L61.37,64.83L61.54,185.24L61.55,184.83L61.73,253.44L62.25,118.62L62.3,169.75L62.31,168.13L62.62,228.85L62.86,84.87L63.06,163.5L63.07,167.75L63.23,252.24L63.76,115.54L63.82,158.27L63.83,161.84L64.11,242.82L64.4,58.15L64.58,177.31L64.59,176.01L64.77,237.65L65.3,124.03L65.34,170.39L65.35,168.29L65.72,229.46L65.9,84.81L66.1,161.55L66.11,161.97L66.27,237.3L66.78,117.16L66.86,157.17L66.87,161.85L67.21,232.93L67.43,68.52L67.62,163.98L67.63,163.8L67.8,233.15L68.34,108.61L68.38,150.89L68.39,149.88L68.76,232.88L68.94,81.52L69.14,155.77L69.15,156.1L69.33,231.07L69.68,110.17L69.9,168.86L69.91,175.28L70.25,230.82L70.46,82.92L70.66,161.68L70.67,164.78L70.82,227.41L71.37,108.34L71.42,156.77L71.43,155.4L71.79,228.04L71.99,95.97L72.18,161.76L72.19,162.04L72.36,238.69L72.71,115.48L72.94,180.32L72.95,184.87L73.31,226.72L73.5,96.72L73.7,168.55L73.71,173.36L73.91,230.68L74.41,110.57L74.46,158.52L74.47,159.17L74.81,228.41L75.04,103.11L75.22,154.76L75.23,153.25L75.39,245.12L75.91,121.94L75.98,170.23L75.99,171.3L76.35,228.16L76.66,100.64L76.74,191.02L76.75,191.61L77.08,231.16L77.43,118.59L77.5,159.23L77.51,159.69L77.84,234.19L78.07,100.1L78.26,142.42L78.27,142.86L78.33,117.87L78.56,237.44L79.02,143.75L79.03,142.08L79.38,224.82L79.69,98.86L79.78,185.48L79.79,185.13L79.88,122.18L79.98,224.33L80.54,161.73L80.55,160.93L80.87,238.55L81.24,94.77L81.3,136.85L81.31,137.9L81.37,117.14L81.47,219.81L82.06,135.73L82.07,135.51L82.42,220.92L82.72,98.93L82.82,171.98L82.83,170.46L83.11,217.38L83.36,111.97L83.58,155.59L83.59,153.84L84.04,233.23L84.26,101.68L84.34,154.51L84.35,153.96L84.41,121.54L84.64,209.82L85.1,122.01L85.11,122.4L85.46,226.35L85.77,106.64L85.86,155.18L85.87,154.87L86.15,216.72L86.39,115.95L86.62,138.62L86.63,136.5L86.94,230.9L87.29,109.22L87.38,151.61L87.39,152.1L87.7,217.11L88.14,114.59L88.14,124.35L88.15,127.61L88.62,212.22L88.83,103.96L88.9,150.06L88.91,151.6L88.97,106.68L89.19,215.79L89.66,142.48L89.67,140.96L90.11,216.39L90.38,110.13L90.42,160.48L90.43,160L90.51,110.62L90.74,222.04L91.18,139.11L91.19,143.06L91.63,212.16L91.87,98.15L91.94,147.1L91.95,148.78L92,103.24L92.23,220.09L92.7,139.58L92.71,139.08L93.13,212.01L93.41,102.95L93.46,156.76L93.47,154.92L93.55,115.45L93.77,224.09L94.22,147.31L94.23,149.97L94.67,218.16L94.91,101.57L94.98,155.43L94.99,157.45L95.04,110.41L95.26,220.14L95.74,153.68L95.75,153.89L96.21,216.93L96.45,107.71L96.5,142.79L96.51,141.24L96.58,106.72L96.81,225.57L97.26,156.53L97.27,155.88L97.71,222.18L97.94,102.96L98.02,156.78L98.03,156.75L98.07,114.76L98.3,217.41L98.78,158.14L98.79,159.21L99.25,214.47L99.48,105.29L99.54,123.75L99.55,122.7L99.62,108.89L99.85,207.4L100.3,150.25L100.31,150.24L100.74,221.54L100.97,103.19L101.06,156.81L101.07,156.95L101.1,115.03L101.34,204.22L101.82,166.43L101.83,166.94L102.29,223.67L102.51,116.65L102.58,134.74L102.59,134.5L102.65,115.44L102.99,207.44L103.34,157.95L103.35,157.81L103.78,220.39L104.01,115.01L104.1,142.4L104.11,143.27L104.17,119.95L104.48,203.89L104.86,171.58L104.87,171L105.33,221.5L105.52,127.72L105.62,137.57L105.63,136.92L105.68,120.65L106.02,211.18L106.38,157.18L106.39,158.6L106.82,218.5L107.06,127.49L107.14,138.87L107.15,138.82L107.21,114.91L107.51,210.93L107.9,175.74L107.91,174.66L108.37,214.02L108.57,127.34L108.66,144.12L108.67,143.77L108.75,114.83L108.93,203.52L109.42,160.72L109.43,161.33L109.86,212.89L110.11,125.25L110.18,136.65L110.19,136.22L110.25,111.84L110.54,199.98L110.94,178.04L110.95,176.46L111.38,208.15L111.61,130.61L111.7,139.1L111.71,137.59L111.78,119.01L112.16,198.89L112.46,157.9L112.47,157.9L112.92,210.14L113.22,131.83L113.23,131.58L113.29,114.36L113.58,197.88L113.98,172.65L113.99,171.5L114.23,131.57L114.41,208.36L114.74,142.06L114.75,140.51L114.78,114.16L115.19,205.58L115.5,164.83L115.51,164.03L115.73,135.06L115.96,210.28L116.26,141.02L116.27,140.3L116.31,110.4L116.75,197.72L117.02,167.17L117.03,166.5L117.58,204.53L117.78,133.86L117.79,131.74L117.82,112.15L118.24,205.62L118.54,157.95L118.55,156.61L118.99,206.42L119.3,133.62L119.31,132.79L119.34,112.24L119.75,204.51L120.06,162.22L120.07,162.56L120.67,204.18L120.82,131.57L120.83,129.98L120.85,111.48L121.29,200.55L121.58,160.8L121.59,161.33L122.16,207.98L122.34,128.52L122.35,128.74L122.47,115.7L122.79,204.04L123.1,159.05L123.11,159.65L123.3,132.54L123.71,211.28L123.86,139.14L123.87,137.02L123.89,113.47L124.31,198.91L124.62,163.91L124.63,165.47L125.2,218.06L125.38,124.99L125.38,125.22L125.39,125.76L125.51,122.64L125.85,199.37L126.14,161.06L126.15,162.11L126.34,135.55L126.71,209.77L126.9,141.35L126.91,140.91L126.93,126.24L127.35,198.16L127.66,170.29L127.67,171.48L127.88,130.54L128.24,210.23L128.42,142.21L128.43,142.04L128.54,119.77L128.89,201.2L129.18,171.04L129.19,172.24L129.5,131.21L129.74,210.45L129.94,142.54L129.95,141.46L130.06,122.28L130.38,195.13L130.7,161.9L130.71,160.85L130.92,127.04L131.27,208.97L131.46,146.85L131.47,145.66L131.57,124.29L131.92,194.86L132.22,165.3L132.23,166.41L132.41,125.59L132.77,203.13L132.98,145.26L132.99,145.29L133.09,126.39L133.45,191.88L133.74,162.52L133.75,161.43L133.82,131.7L134.3,203.26L134.5,157.04L134.51,156.42L134.59,125.91L135.07,192.45L135.26,169.45L135.27,170.21L135.6,135.09L135.83,201.07L136.02,160.9L136.03,160.83L136.26,127.67L136.5,199.1L136.78,164.22L136.79,162.89L137.12,130.28L137.34,208.2L137.54,164.6L137.55,162.58L137.75,122.93L138.12,195.05L138.3,162.83L138.31,162.26L138.65,128.08L138.95,204.93L139.06,169.07L139.07,168.76L139.3,118.8L139.54,199.07L139.82,154.94L139.83,154.57L140.15,129.21L140.36,206.16L140.58,164.45L140.59,162.94L140.79,117.09L141.03,188.32L141.34,158.92L141.35,157.97L141.68,125.73L141.98,204.7L142.1,180.19L142.11,179.62L142.28,120.21L142.69,194.53L142.86,159.62L142.87,160.4L143.22,128.49L143.39,202.62L143.62,161.38L143.63,160.54L143.69,122.2L144.23,193.48L144.38,153.78L144.39,152.6L144.72,123.04L145.02,206.67L145.14,185.29L145.15,184.04L145.31,125.26L145.72,199.55L145.9,167.88L145.91,168.84L146.26,127.72L146.43,201.72L146.66,173.91L146.67,173.36L146.91,126.56L147.26,199.26L147.42,158.99L147.43,158.98L147.75,121.65L148.05,201.49L148.18,184.08L148.19,183.22L148.4,121.37L148.75,196.4L148.94,174.48L148.95,173.42L149.24,130.52L149.6,199.35L149.7,185.3L149.71,184.2L149.92,127.82L150.3,194.08L150.46,159.4L150.47,159.03L150.79,127.89L151.2,199.84L151.22,170.3L151.23,169.57L151.42,122.78L151.84,190.76L151.98,168.19L151.99,166.4L152.34,132.73L152.61,200.99L152.74,185.17L152.75,185.04L152.98,123.08L153.33,196.33L153.5,159.06L153.51,159.85L153.88,131.4L154.11,201.31L154.26,179.2L154.27,179.74L154.52,121.51L154.88,196.42L155.02,171.73L155.03,170.63L155.42,133.95L155.78,195.87L155.78,195.45L155.79,194.86L156.01,124.3L156.37,196.17L156.54,166.47L156.55,166.17L156.91,127.37L157.2,202.38L157.3,185.45L157.31,185.65L157.55,114.74L157.92,191.06L158.06,165.47L158.07,164.41L158.46,130.05L158.81,197.83L158.82,190.29L158.83,189.04L159.05,120.58L159.46,190.75L159.58,169.95L159.59,169.23L160,128.1L160.3,199.18L160.34,189.12L160.35,189.85L160.35,191.87L160.58,117.13L161.1,159.63L161.11,160.03L161.49,124L161.85,199.14L161.86,185.64L161.87,183.67L162.08,120.48L162.48,196.45L162.62,167.97L162.63,166.98L163.03,131.41L163.33,201.98L163.38,190.47L163.39,190.85L163.39,191.18L163.63,128.2L164.14,164L164.15,164.76L164.51,129.26L164.88,199.75L164.9,180.93L164.91,180.8L165.16,124.95L165.51,191.73L165.66,166.98L165.67,166.15L166.07,124.25L166.36,200.05L166.42,193.66L166.43,194.28L166.44,197.74L166.77,130.41L167.18,177.13L167.19,178.08L167.62,126.83L167.85,196.82L167.94,193.94L167.95,194.19L167.96,195.43L168.26,124.75L168.7,172.11L168.71,171.71L169.1,125.65L169.45,200.55L169.46,194.2L169.47,193.35L169.74,129.37L170.22,174.18L170.23,173.45L170.65,130L170.94,197.34L170.98,196.42L170.99,196.42L171.29,125.79L171.74,160.44L171.75,160.34L172.13,131.58L172.48,203.8L172.5,189.08L172.51,188.99L172.84,128.92L173.2,192.53L173.26,176.49L173.27,176.84L173.73,133.71L173.97,196.7L174.02,196.68L174.03,197.64L174.04,202.09L174.38,126.71L174.78,169.03L174.79,169.65L175.22,129.07L175.53,198.77L175.54,197.04L175.55,196.7L175.88,125.89L176.3,179.26L176.31,179.76L176.77,130.76L177.06,204.35L177.06,203.58L177.07,202.99L177.41,119.64L177.82,177.07L177.83,177.43L178.25,129.43L178.56,201.14L178.58,194.44L178.59,193.83L178.91,117.62L179.34,172.91L179.35,173.31L179.75,132.37L180.09,203.39L180.1,200.6L180.11,199.5L180.44,128.61L180.86,181.59L180.87,181.77L181.35,134.35L181.59,199.92L181.62,191.85L181.63,192.04L181.64,192.62L181.95,130.76L182.38,172.04L182.39,171.86L182.83,131.41L183.13,202.73L183.14,193.78L183.15,192.4L183.47,128.09L183.9,178.38L183.91,178.15L184.38,135.71L184.62,196.14L184.66,189.77L184.67,189.76L184.69,195.5L185.01,122.59L185.42,173.9L185.43,174.5L185.93,129.76L186.18,196.15L186.19,196.32L186.2,198.32L186.51,127.92L186.94,178.57L186.95,178.55L187.43,131.27L187.69,199.75L187.7,197.87L187.71,197.57L188.06,127.37L188.46,180.71L188.47,180.5L188.97,131.55L189.22,199.16L189.22,198.69L189.23,198.41L189.56,129.52L189.98,178.5L189.99,177.2L190.49,125.65L190.73,200.55L190.74,193.16L190.75,192.6L191.09,132.11L191.5,172.26L191.51,172.42L192,127.09L192.26,192.37L192.27,192.73L192.28,196.24L192.65,132.47L193.02,169.71L193.03,169.38L193.51,130.29L193.78,196.72L193.78,196.41L193.79,196.13L194.17,128.21L194.54,173.02L194.55,173.95L195.02,131.34L195.3,194.28L195.31,195.08L195.31,197.41L195.67,126.93L196.06,178.5L196.07,178.03L196.58,130.19L196.82,198.1L196.82,197.28L196.83,196.77L197.18,132.09L197.58,170.88L197.59,171.12L198.1,128.03L198.34,193.99L198.35,193.97L198.69,134.05L199.1,176.3L199.11,176.72L199.62,130.29L199.85,192.14L199.86,190.57L199.87,190.38L199.89,191.16L200.28,133.77L200.62,169.79L200.63,169.48L201.13,130.17L201.38,191.91L201.38,191.72L201.39,191.49L201.76,127.56L202.14,173.66L202.15,173.53L202.29,190.22L202.67,133.23L202.9,185.57L202.91,185.09L202.95,191.87L203.26,133.39L203.66,168.04L203.67,167.71L203.8,194.97L204.18,132.43L204.42,182.82L204.43,183.73L204.45,193.38L204.79,135.16L205.18,168.08L205.19,168.26L205.31,191.51L205.72,134.24L205.94,182.45L205.95,181.99L205.98,193.85L206.35,136.64L206.7,173.47L206.71,173.24L206.83,195.09L207.24,129.59L207.46,186.61L207.47,188.06L207.48,197.26L207.86,137.84L208.22,172L208.23,172.06L208.37,190.82L208.74,132L208.98,188.97L208.99,188.63L209.05,189.69L209.37,137.63L209.74,171.55L209.75,170.66L209.87,194.02L210.28,130.46L210.5,182.88L210.51,182.87L210.56,190.3L210.65,177.87L210.65,177.63L211,136.51L211.4,199.39L211.4,199.32L211.41,198.96L211.78,131.23L212.16,177.94L212.17,177.86L212.42,134.49L212.9,192.13L212.92,187.27L212.93,187.45L212.94,191.06L213.44,134.37L213.68,173.36L213.69,173.06L214.03,136.5L214.44,198.9L214.44,198.16L214.45,197.58L214.85,138.11L215.2,181.73L215.21,181.54L215.45,140.93L215.94,192.13L215.96,185.48L215.97,185.69L216.47,134.18L216.69,190.42L216.72,175.71L216.73,175.09L217.11,137.37L217.48,195.57L217.48,195.38L217.49,194.99L218.02,132.1L218.24,179.43L218.25,179.04L218.37,190.43L218.53,138.58L219,185.81L219.01,185.74L219.51,130.65L219.72,191.8L219.76,174.55L219.77,174.22L219.91,192.56L220.14,137.04L220.52,183.69L220.53,183.87L221.05,130.61L221.22,192.63L221.28,179.79L221.29,178.71L221.41,195.83L221.64,137.04L222.04,190.83L222.05,191.58L222.06,194.56L222.55,133.58L222.8,180.75L222.81,181.48L222.96,191.38L223.18,139.74L223.56,186.91L223.57,187.31L224.08,131.35L224.31,194.62L224.32,184.69L224.33,182.76L224.45,193.21L224.71,139.29L225.08,192.51L225.09,192.31L225.61,132.36L225.8,192.89L225.84,180.33L225.85,180.6L225.99,190.09L226.34,136.36L226.6,179.32L226.61,179.91L227.11,128.7L227.34,195.29L227.36,178.16L227.37,176.72L227.49,188.2L227.75,136.79L228.12,184.05L228.13,183.69L228.67,130.07L228.84,192.68L228.88,180.68L228.89,180.22L229.01,189.64L229.37,132.08L229.64,182.4L229.65,183.38L229.66,186.97L230.2,135.25" style="vector-effect: non-scaling-stroke; fill: none; stroke: rgb(0, 154, 250); stroke-opacity: 1; stroke-width: 1px; opacity: 1;"/></g><g class="points"/><g class="text"/></g></g></g><g class="overplot"/><path class="xlines-above crisp" d="M85.46480023330417,420.9322506561679H323.36482939632543" style="fill: none; stroke-width: 1px; stroke: rgb(0, 0, 0); stroke-opacity: 1;"/><path class="ylines-above crisp" d="M85.96480023330417,63.83858267716535V420.4322506561679" style="fill: none; stroke-width: 1px; stroke: rgb(0, 0, 0); stroke-opacity: 1;"/><g class="overlines-above"/><g class="xaxislayer-above"><path class="xtick ticks crisp" d="M0,420.4322506561679v-5" transform="translate(93.16480023330418,0)" style="stroke: rgb(0, 0, 0); stroke-opacity: 1; stroke-width: 1px;"/><path class="xtick ticks crisp" d="M0,420.4322506561679v-5" transform="translate(167.66480023330416,0)" style="stroke: rgb(0, 0, 0); stroke-opacity: 1; stroke-width: 1px;"/><path class="xtick ticks crisp" d="M0,420.4322506561679v-5" transform="translate(242.16480023330416,0)" style="stroke: rgb(0, 0, 0); stroke-opacity: 1; stroke-width: 1px;"/><path class="xtick ticks crisp" d="M0,420.4322506561679v-5" transform="translate(316.66480023330416,0)" style="stroke: rgb(0, 0, 0); stroke-opacity: 1; stroke-width: 1px;"/><g class="xtick"><text text-anchor="middle" x="0" y="434.6322506561679" transform="translate(93.16480023330418,0)" style="font-family: sans-serif; font-size: 11px; fill: rgb(0, 0, 0); fill-opacity: 1; white-space: pre;">0</text></g><g class="xtick"><text text-anchor="middle" x="0" y="434.6322506561679" transform="translate(167.66480023330416,0)" style="font-family: sans-serif; font-size: 11px; fill: rgb(0, 0, 0); fill-opacity: 1; white-space: pre;">1</text></g><g class="xtick"><text text-anchor="middle" x="0" y="434.6322506561679" transform="translate(242.16480023330416,0)" style="font-family: sans-serif; font-size: 11px; fill: rgb(0, 0, 0); fill-opacity: 1; white-space: pre;">2</text></g><g class="xtick"><text text-anchor="middle" x="0" y="434.6322506561679" transform="translate(316.66480023330416,0)" style="font-family: sans-serif; font-size: 11px; fill: rgb(0, 0, 0); fill-opacity: 1; white-space: pre;">3</text></g></g><g class="yaxislayer-above"><path class="ytick ticks crisp" d="M86.46480023330417,0h5" transform="translate(0,376.96858267716533)" style="stroke: rgb(0, 0, 0); stroke-opacity: 1; stroke-width: 1px;"/><path class="ytick ticks crisp" d="M86.46480023330417,0h5" transform="translate(0,301.9185826771654)" style="stroke: rgb(0, 0, 0); stroke-opacity: 1; stroke-width: 1px;"/><path class="ytick ticks crisp" d="M86.46480023330417,0h5" transform="translate(0,226.87858267716535)" style="stroke: rgb(0, 0, 0); stroke-opacity: 1; stroke-width: 1px;"/><path class="ytick ticks crisp" d="M86.46480023330417,0h5" transform="translate(0,151.83858267716533)" style="stroke: rgb(0, 0, 0); stroke-opacity: 1; stroke-width: 1px;"/><path class="ytick ticks crisp" d="M86.46480023330417,0h5" transform="translate(0,76.79858267716534)" style="stroke: rgb(0, 0, 0); stroke-opacity: 1; stroke-width: 1px;"/><g class="ytick"><text text-anchor="end" x="83.26480023330417" y="3.8499999999999996" transform="translate(0,376.96858267716533)" style="font-family: sans-serif; font-size: 11px; fill: rgb(0, 0, 0); fill-opacity: 1; white-space: pre;">-0.2</text></g><g class="ytick"><text text-anchor="end" x="83.26480023330417" y="3.8499999999999996" transform="translate(0,301.9185826771654)" style="font-family: sans-serif; font-size: 11px; fill: rgb(0, 0, 0); fill-opacity: 1; white-space: pre;">-0.1</text></g><g class="ytick"><text text-anchor="end" x="83.26480023330417" y="3.8499999999999996" transform="translate(0,226.87858267716535)" style="font-family: sans-serif; font-size: 11px; fill: rgb(0, 0, 0); fill-opacity: 1; white-space: pre;">0.0</text></g><g class="ytick"><text text-anchor="end" x="83.26480023330417" y="3.8499999999999996" transform="translate(0,151.83858267716533)" style="font-family: sans-serif; font-size: 11px; fill: rgb(0, 0, 0); fill-opacity: 1; white-space: pre;">0.1</text></g><g class="ytick"><text text-anchor="end" x="83.26480023330417" y="3.8499999999999996" transform="translate(0,76.79858267716534)" style="font-family: sans-serif; font-size: 11px; fill: rgb(0, 0, 0); fill-opacity: 1; white-space: pre;">0.2</text></g></g><g class="overaxes-above"/></g><g class="subplot x2y2"><g class="layer-subplot"><g class="shapelayer"/><g class="imagelayer"/></g><g class="gridlayer"><g class="x2"><path class="x2grid crisp" transform="translate(370.1548002333042,0)" d="M0,63.83858267716535v356.5936679790026" style="stroke: rgb(0, 0, 0); stroke-opacity: 0.1; stroke-width: 0.5px;"/><path class="x2grid crisp" transform="translate(414.85480023330416,0)" d="M0,63.83858267716535v356.5936679790026" style="stroke: rgb(0, 0, 0); stroke-opacity: 0.1; stroke-width: 0.5px;"/><path class="x2grid crisp" transform="translate(459.55480023330415,0)" d="M0,63.83858267716535v356.5936679790026" style="stroke: rgb(0, 0, 0); stroke-opacity: 0.1; stroke-width: 0.5px;"/><path class="x2grid crisp" transform="translate(504.2548002333042,0)" d="M0,63.83858267716535v356.5936679790026" style="stroke: rgb(0, 0, 0); stroke-opacity: 0.1; stroke-width: 0.5px;"/><path class="x2grid crisp" transform="translate(548.9548002333042,0)" d="M0,63.83858267716535v356.5936679790026" style="stroke: rgb(0, 0, 0); stroke-opacity: 0.1; stroke-width: 0.5px;"/><path class="x2grid crisp" transform="translate(593.6648002333042,0)" d="M0,63.83858267716535v356.5936679790026" style="stroke: rgb(0, 0, 0); stroke-opacity: 0.1; stroke-width: 0.5px;"/></g><g class="y2"><path class="y2grid crisp" transform="translate(0,410.33858267716533)" d="M363.4648002333042,0h236.90002916302123" style="stroke: rgb(0, 0, 0); stroke-opacity: 0.1; stroke-width: 0.5px;"/><path class="y2grid crisp" transform="translate(0,333.14858267716534)" d="M363.4648002333042,0h236.90002916302123" style="stroke: rgb(0, 0, 0); stroke-opacity: 0.1; stroke-width: 0.5px;"/><path class="y2grid crisp" transform="translate(0,255.94858267716535)" d="M363.4648002333042,0h236.90002916302123" style="stroke: rgb(0, 0, 0); stroke-opacity: 0.1; stroke-width: 0.5px;"/><path class="y2grid crisp" transform="translate(0,178.74858267716536)" d="M363.4648002333042,0h236.90002916302123" style="stroke: rgb(0, 0, 0); stroke-opacity: 0.1; stroke-width: 0.5px;"/><path class="y2grid crisp" transform="translate(0,101.55858267716535)" d="M363.4648002333042,0h236.90002916302123" style="stroke: rgb(0, 0, 0); stroke-opacity: 0.1; stroke-width: 0.5px;"/></g></g><g class="zerolinelayer"/><path class="xlines-below"/><path class="ylines-below"/><g class="overlines-below"/><g class="xaxislayer-below"/><g class="yaxislayer-below"/><g class="overaxes-below"/><g class="plot" transform="translate(363.4648002333042,63.83858267716535)" clip-path="url('#clipdd3738x2y2plot')"><g class="scatterlayer mlayer"><g class="trace scatter trace6ec710" style="stroke-miterlimit: 2; opacity: 1;"><g class="fills"/><g class="errorbars"/><g class="lines"><path class="js-line" d="M6.7,346.3L8.19,346.13L8.21,344.65L8.78,346.42L8.87,344.69L8.88,331.33L9.09,346.09L9.64,345.62L9.65,345.7L10.13,342.44L10.62,343.92L10.64,343.89L10.83,341.68L10.85,341.2L11.04,297.46L11.06,232.16L11.07,10.09L11.8,345.56L11.82,345.98L11.83,346.38L12.29,343.58L12.56,346.14L12.58,346.26L13.19,328.31L13.2,324.73L13.26,211.54L13.53,342.99L13.57,342.94L13.59,342.83L14.47,346.2L14.63,345.63L14.65,345.61L14.99,344.38L15,344.26L15.38,341.65L15.39,341.09L15.44,298.26L15.47,337.04L15.48,340.36L15.99,346.15L16.3,345.85L16.31,345.95L16.37,346.22L16.69,345.5L17,345.65L17.02,345.56L17.58,338.22L17.6,333.58L17.61,270L17.88,346.21L18.34,345.44L18.36,345.43L19,346.45L19.46,346L19.47,345.98L19.79,345.42L19.8,340.8L20.64,346.24L20.65,346.27L21.32,346.19L21.43,345.93L21.44,345.89L21.74,345.97L21.8,345.45L21.81,345.26L21.96,337.71L21.98,333.56L22.01,270.53L22.45,345.91L22.66,345.4L22.68,345.42L23.76,346.06L23.78,346.07L24.05,345.92L24.12,345.48L24.14,345.36L24.2,340.25L24.64,346.41L24.73,346.4L24.75,346.41L26.33,345.85L26.34,345.37L26.4,341.53L26.42,312.57L27.19,346.25L27.21,346.28L28,346.15L28.04,346L28.06,345.9L28.52,340.38L28.53,337.29L28.61,312.58L28.62,207.27L29.47,345.65L29.49,345.64L30.1,346.4L30.45,345.79L30.47,345.76L30.78,341.47L30.8,339.98L30.84,273.01L31.26,345.6L31.27,345.62L31.59,346.14L32.08,345.63L32.09,345.62L32.96,343.97L32.97,343.55L33.06,333.57L33.08,292.57L33.72,346.2L33.91,346.08L33.93,346.03L34.61,346.16L34.73,345.52L34.75,345.43L35.09,338.57L35.1,336.84L35.31,289.39L35.83,346L35.85,345.99L36.13,345.91L36.34,346.13L36.61,345.99L36.62,346.02L37.23,345.34L37.25,345.21L37.32,345.55L37.53,333.83L37.55,309.85L37.8,346.08L38.35,345.86L38.37,345.82L38.92,346.22L39.44,343.38L39.45,343.08L39.62,345.13L39.83,327.92L39.96,343.1L39.98,343.42L40.6,346.48L40.82,346.29L40.84,346.33L41.72,345.25L41.73,343.86L41.79,345.12L42.06,334.23L42.08,304.73L42.84,345.85L42.85,345.91L43.54,346.3L43.74,346L43.76,345.98L44.34,346.09L44.36,345.33L44.39,341L44.86,346.47L45.1,346.4L45.12,346.39L46.11,346.23L46.13,345.78L46.28,346.23L46.59,344.51L46.61,343.8L46.64,332.54L47.25,346.12L47.31,346.08L47.32,346.07L47.39,346.25L47.41,345.91L48.05,345.92L48.07,345.91L48.32,345.22L48.33,342.38L48.53,346.47L48.94,338.89L49.09,345.47L49.11,345.59L49.42,346.48L49.9,346.29L49.91,346.3L50.55,345.42L50.64,346.13L50.66,346.3L51.25,343.96L51.27,335.62L51.3,334.26L52.03,346.21L52.04,346.25L52.76,345.66L52.77,342.86L52.95,345.67L53.5,342.97L53.52,342.67L53.61,316.36L53.92,343L53.94,343.12L54.86,345.07L54.87,345.01L54.89,344.93L55.02,345.45L55.87,339.63L55.89,338.85L55.98,268.92L56.08,341.42L56.1,342.52L56.25,345.82L56.87,345.52L56.89,345.52L57.2,344.82L57.21,343.66L57.23,340.82L57.32,346.34L57.94,345.81L57.96,345.8L58.24,339.49L58.26,338.31L58.32,274.93L58.63,342.89L58.64,343.16L59.43,346.22L59.45,344.78L59.46,343.02L60.12,345.94L60.25,345.86L60.27,345.82L60.64,343.07L60.66,343.09L60.67,341.47L60.74,331.17L61.37,346.31L61.39,346.29L61.71,345.62L62.03,346.27L62.04,346.3L63.05,345.67L63.07,345.48L63.13,333.82L63.26,345.83L63.28,345.89L63.71,346.19L63.86,345.54L63.87,345.4L63.93,341.88L64.31,346.3L64.32,346.31L65.21,346.34L65.23,346.34L65.51,346.28L65.53,345.24L66.17,343.15L66.29,346.45L66.32,346.38L66.33,346.42L67.23,345.97L67.24,345.99L67.26,345.99L67.9,345.03L67.91,344.77L67.97,337.45L68.22,345.63L68.24,345.72L68.39,343.33L68.4,343.98L68.42,336.7L68.43,333.57L69.06,346.34L69.13,346.29L69.15,346.35L69.24,345.89L69.33,346.5L69.95,346.14L69.97,346.13L70.34,345.26L70.35,345.05L70.4,342.96L70.41,330.66L70.94,346.25L71.19,346L71.2,345.94L72.11,344.76L72.32,344.91L72.34,344.88L72.57,345.99L72.81,343.47L72.83,342.79L72.95,322.41L73.22,346.11L73.59,345.96L73.6,345.86L73.63,345.77L74.17,346.5L74.36,346.06L74.38,346.02L75.2,344.87L75.21,344.66L75.39,336.84L76.03,346.25L76.05,346.25L76.11,346.45L76.48,345.89L76.79,346.14L76.81,346.15L77.76,346.29L77.83,345.96L77.85,345.77L77.91,333.21L78.28,346.08L78.3,346.08L80.25,346.18L80.28,346.04L80.29,345.99L80.41,343.33L80.43,332.82L81.2,346.22L81.22,346.22L82.01,346.34L82.02,345.34L82.74,346.45L82.87,346.28L82.89,346.23L83,342.69L83.02,341.21L83.59,346.48L83.79,346.46L83.81,346.44L85.54,346.22L85.55,346.04L85.57,344.54L86.19,346.43L86.36,346.34L86.37,346.31L88.14,345.96L88.16,345.46L88.19,344.67L88.83,346.4L88.89,346.1L88.9,346.28L89.35,346.43L89.69,346.32L89.71,346.31L90.75,346.05L90.77,345.53L90.78,342.79L91.33,346.47L91.51,346.32L91.53,346.38L93.26,345.63L93.27,345.54L93.4,343.09L93.42,332.59L94.19,346.33L94.21,346.32L95.85,346.23L95.86,345.79L95.94,346.19L96.09,344.22L96.1,335.6L96.8,346.29L96.89,346.25L96.91,346.26L98.19,346.4L98.2,346.06L98.22,345.33L98.41,346.34L98.78,341.93L98.98,346.17L98.99,346.16L100.51,346.39L100.53,346.09L101.33,346.42L101.43,346.35L101.45,344.65L101.52,344.59L102.21,346.49L102.22,346.48L102.24,346.47L102.87,346.21L102.88,345.27L102.95,344.84L103.64,346.48L103.74,346.47L103.76,346.47L107.02,346.04L107.04,345.61L107.31,345.97L107.62,334.42L107.63,327.8L107.68,304.67L108.23,345.32L108.24,345.4L108.51,345.25L109.21,346.18L109.24,346.08L109.26,346.07L110.81,346.38L110.82,346.38L112.39,345.64L112.4,345.17L113.13,346.48L113.35,346.43L113.37,346.45L115.43,346.03L115.44,345.97L115.47,343.98L116.02,346.4L116.17,346.38L116.19,346.37L117.11,346.32L117.14,345.89L117.15,345.53L117.94,346.43L117.96,346.44L118.36,345.61L118.38,345.29L118.41,345.27L119.14,346.5L119.15,346.48L119.17,346.49L121.22,346.16L121.24,344.64L121.67,346.43L122.04,346.16L122.06,346.3L122.8,346.44L122.83,346.43L122.85,346.43L126.97,346.17L126.99,345.23L127.12,345.01L127.69,346.43L127.76,346.41L127.78,346.41L130.1,346.19L130.12,344.99L130.91,346.42L130.92,346.42L133.1,346.34L133.11,345.84L133.87,346.48L133.93,346.47L133.95,346.48L139.09,345.98L139.1,344.72L139.16,338.97L139.68,346.45L139.89,346.36L139.91,346.36L141.59,346.43L141.62,346.09L141.63,345.86L142.21,346.48L142.36,345.88L142.38,345.68L143.2,346.48L143.21,346.46L143.23,346.46L144.14,345.48L144.15,343.18L144.17,342.82L144.66,346.45L144.7,346.45L144.72,346.46L150.54,346.48L150.56,346.48L162,345.75L162.02,345.44L162.81,346.48L162.85,346.47L162.87,346.47L167.14,346.46L167.16,345.92L167.17,345.74L167.48,346.5L167.87,346.46L167.89,346.47L172.34,346.29L172.36,346L172.43,344.42L172.97,346.48L173.13,346.43L173.15,346.43L178.46,346.42L178.48,346.33L179.46,346.5L179.48,346.49L207.55,346.22L207.56,345.6L207.58,345.41L208,346.48L208.22,346.46L208.23,346.46L213.2,346.38L213.21,346.32L214.15,346.5L214.19,346.47L214.21,346.47L225.71,346.49L225.73,346.49L230.2,346.49" style="vector-effect: non-scaling-stroke; fill: none; stroke: rgb(255, 165, 0); stroke-opacity: 1; stroke-width: 1px; opacity: 1;"/></g><g class="points"/><g class="text"/></g></g></g><g class="overplot"/><path class="xlines-above crisp" d="M362.4648002333042,420.9322506561679H600.3648293963254" style="fill: none; stroke-width: 1px; stroke: rgb(0, 0, 0); stroke-opacity: 1;"/><path class="ylines-above crisp" d="M362.9648002333042,63.83858267716535V420.4322506561679" style="fill: none; stroke-width: 1px; stroke: rgb(0, 0, 0); stroke-opacity: 1;"/><g class="overlines-above"/><g class="xaxislayer-above"><path class="x2tick ticks crisp" d="M0,420.4322506561679v-5" transform="translate(370.1548002333042,0)" style="stroke: rgb(0, 0, 0); stroke-opacity: 1; stroke-width: 1px;"/><path class="x2tick ticks crisp" d="M0,420.4322506561679v-5" transform="translate(414.85480023330416,0)" style="stroke: rgb(0, 0, 0); stroke-opacity: 1; stroke-width: 1px;"/><path class="x2tick ticks crisp" d="M0,420.4322506561679v-5" transform="translate(459.55480023330415,0)" style="stroke: rgb(0, 0, 0); stroke-opacity: 1; stroke-width: 1px;"/><path class="x2tick ticks crisp" d="M0,420.4322506561679v-5" transform="translate(504.2548002333042,0)" style="stroke: rgb(0, 0, 0); stroke-opacity: 1; stroke-width: 1px;"/><path class="x2tick ticks crisp" d="M0,420.4322506561679v-5" transform="translate(548.9548002333042,0)" style="stroke: rgb(0, 0, 0); stroke-opacity: 1; stroke-width: 1px;"/><path class="x2tick ticks crisp" d="M0,420.4322506561679v-5" transform="translate(593.6648002333042,0)" style="stroke: rgb(0, 0, 0); stroke-opacity: 1; stroke-width: 1px;"/><g class="x2tick"><text text-anchor="middle" x="0" y="434.6322506561679" transform="translate(370.1548002333042,0)" style="font-family: sans-serif; font-size: 11px; fill: rgb(0, 0, 0); fill-opacity: 1; white-space: pre;">0</text></g><g class="x2tick"><text text-anchor="middle" x="0" y="434.6322506561679" transform="translate(414.85480023330416,0)" style="font-family: sans-serif; font-size: 11px; fill: rgb(0, 0, 0); fill-opacity: 1; white-space: pre;">1000</text></g><g class="x2tick"><text text-anchor="middle" x="0" y="434.6322506561679" transform="translate(459.55480023330415,0)" style="font-family: sans-serif; font-size: 11px; fill: rgb(0, 0, 0); fill-opacity: 1; white-space: pre;">2000</text></g><g class="x2tick"><text text-anchor="middle" x="0" y="434.6322506561679" transform="translate(504.2548002333042,0)" style="font-family: sans-serif; font-size: 11px; fill: rgb(0, 0, 0); fill-opacity: 1; white-space: pre;">3000</text></g><g class="x2tick"><text text-anchor="middle" x="0" y="434.6322506561679" transform="translate(548.9548002333042,0)" style="font-family: sans-serif; font-size: 11px; fill: rgb(0, 0, 0); fill-opacity: 1; white-space: pre;">4000</text></g><g class="x2tick"><text text-anchor="middle" x="0" y="434.6322506561679" transform="translate(593.6648002333042,0)" style="font-family: sans-serif; font-size: 11px; fill: rgb(0, 0, 0); fill-opacity: 1; white-space: pre;">5000</text></g></g><g class="yaxislayer-above"><path class="y2tick ticks crisp" d="M363.4648002333042,0h5" transform="translate(0,410.33858267716533)" style="stroke: rgb(0, 0, 0); stroke-opacity: 1; stroke-width: 1px;"/><path class="y2tick ticks crisp" d="M363.4648002333042,0h5" transform="translate(0,333.14858267716534)" style="stroke: rgb(0, 0, 0); stroke-opacity: 1; stroke-width: 1px;"/><path class="y2tick ticks crisp" d="M363.4648002333042,0h5" transform="translate(0,255.94858267716535)" style="stroke: rgb(0, 0, 0); stroke-opacity: 1; stroke-width: 1px;"/><path class="y2tick ticks crisp" d="M363.4648002333042,0h5" transform="translate(0,178.74858267716536)" style="stroke: rgb(0, 0, 0); stroke-opacity: 1; stroke-width: 1px;"/><path class="y2tick ticks crisp" d="M363.4648002333042,0h5" transform="translate(0,101.55858267716535)" style="stroke: rgb(0, 0, 0); stroke-opacity: 1; stroke-width: 1px;"/><g class="y2tick"><text text-anchor="end" x="360.2648002333042" y="3.8499999999999996" transform="translate(0,410.33858267716533)" style="font-family: sans-serif; font-size: 11px; fill: rgb(0, 0, 0); fill-opacity: 1; white-space: pre;">0</text></g><g class="y2tick"><text text-anchor="end" x="360.2648002333042" y="3.8499999999999996" transform="translate(0,333.14858267716534)" style="font-family: sans-serif; font-size: 11px; fill: rgb(0, 0, 0); fill-opacity: 1; white-space: pre;">500</text></g><g class="y2tick"><text text-anchor="end" x="360.2648002333042" y="3.8499999999999996" transform="translate(0,255.94858267716535)" style="font-family: sans-serif; font-size: 11px; fill: rgb(0, 0, 0); fill-opacity: 1; white-space: pre;">1000</text></g><g class="y2tick"><text text-anchor="end" x="360.2648002333042" y="3.8499999999999996" transform="translate(0,178.74858267716536)" style="font-family: sans-serif; font-size: 11px; fill: rgb(0, 0, 0); fill-opacity: 1; white-space: pre;">1500</text></g><g class="y2tick"><text text-anchor="end" x="360.2648002333042" y="3.8499999999999996" transform="translate(0,101.55858267716535)" style="font-family: sans-serif; font-size: 11px; fill: rgb(0, 0, 0); fill-opacity: 1; white-space: pre;">2000</text></g></g><g class="overaxes-above"/></g></g><g class="polarlayer"/><g class="ternarylayer"/><g class="geolayer"/><g class="funnelarealayer"/><g class="pielayer"/><g class="treemaplayer"/><g class="sunburstlayer"/><g class="glimages"/><defs id="topdefs-dd3738"><g class="clips"/><clipPath id="legenddd3738"><rect width="73" height="58" x="0" y="0"/></clipPath></defs><g class="layer-above"><g class="imagelayer"/><g class="shapelayer"/></g><g class="infolayer"><g class="legend" pointer-events="all" transform="translate(615.08,60)"><rect class="bg" shape-rendering="crispEdges" style="stroke: rgb(68, 68, 68); stroke-opacity: 1; fill: rgb(255, 255, 255); fill-opacity: 1; stroke-width: 0px;" width="73" height="58" x="0" y="0"/><g class="scrollbox" transform="" clip-path="url('#legenddd3738')"><g class="groups" transform=""><g class="traces" transform="translate(0,14.5)" style="opacity: 1;"><text class="legendtext" text-anchor="start" x="40" y="4.680000000000001" style="font-family: 'Open Sans', verdana, arial, sans-serif; font-size: 12px; fill: rgb(42, 63, 95); fill-opacity: 1; white-space: pre;">Time</text><g class="layers" style="opacity: 1;"><g class="legendfill"/><g class="legendlines"><path class="js-line" d="M5,0h30" style="fill: none; stroke: rgb(0, 154, 250); stroke-opacity: 1; stroke-width: 1px;"/></g><g class="legendsymbols"><g class="legendpoints"/></g></g><rect class="legendtoggle" x="0" y="-9.5" width="67.84375" height="19" style="fill: rgb(0, 0, 0); fill-opacity: 0;"/></g></g><g class="groups" transform="translate(0,10)"><g class="traces" transform="translate(0,33.5)" style="opacity: 1;"><text class="legendtext" text-anchor="start" x="40" y="4.680000000000001" style="font-family: 'Open Sans', verdana, arial, sans-serif; font-size: 12px; fill: rgb(42, 63, 95); fill-opacity: 1; white-space: pre;">Freq</text><g class="layers" style="opacity: 1;"><g class="legendfill"/><g class="legendlines"><path class="js-line" d="M5,0h30" style="fill: none; stroke: rgb(255, 165, 0); stroke-opacity: 1; stroke-width: 1px;"/></g><g class="legendsymbols"><g class="legendpoints"/></g></g><rect class="legendtoggle" x="0" y="-9.5" width="67.84375" height="19" style="fill: rgb(0, 0, 0); fill-opacity: 0;"/></g></g></g><rect class="scrollbar" rx="20" ry="3" width="0" height="0" style="fill: rgb(128, 139, 164); fill-opacity: 1;" x="0" y="0"/></g><g class="g-gtitle"/><g class="g-xtitle"><text class="xtitle" x="204.9148148148148" y="462.140625" text-anchor="middle" style="font-family: sans-serif; font-size: 15px; fill: rgb(0, 0, 0); opacity: 1; font-weight: normal; white-space: pre;">t[s]</text></g><g class="g-x2title"><text class="x2title" x="481.9148148148148" y="462.140625" text-anchor="middle" style="font-family: sans-serif; font-size: 15px; fill: rgb(0, 0, 0); opacity: 1; font-weight: normal; white-space: pre;">f[hz]</text></g><g class="g-ytitle"/><g class="g-y2title"/></g></svg>