<svg class="main-svg" xmlns="http://www.w3.org/2000/svg" xmlns:xlink="http://www.w3.org/1999/xlink" width="700" height="500" style="" viewBox="0 0 700 500"><rect x="0" y="0" width="700" height="500" style="fill: rgb(255, 255, 255); fill-opacity: 1;"/><defs id="defs-e52c03"><g class="clips"><clipPath id="clipe52c03xyplot" class="plotclip"><rect width="236.90002916302126" height="356.5936679790026"/></clipPath><clipPath id="clipe52c03x2y2plot" class="plotclip"><rect width="236.90002916302123" height="356.5936679790026"/></clipPath><clipPath class="axesclip" id="clipe52c03x"><rect x="86.46480023330417" y="0" width="236.90002916302126" height="500"/></clipPath><clipPath class="axesclip" id="clipe52c03y"><rect x="0" y="63.83858267716535" width="700" height="356.5936679790026"/></clipPath><clipPath class="axesclip" id="clipe52c03xy"><rect x="86.46480023330417" y="63.83858267716535" width="236.90002916302126" height="356.5936679790026"/></clipPath><clipPath class="axesclip" id="clipe52c03y2"><rect x="0" y="63.83858267716535" width="700" height="356.5936679790026"/></clipPath><clipPath class="axesclip" id="clipe52c03xy2"><rect x="86.46480023330417" y="63.83858267716535" width="236.90002916302126" height="356.5936679790026"/></clipPath><clipPath class="axesclip" id="clipe52c03x2"><rect x="363.4648002333042" y="0" width="236.90002916302123" height="500"/></clipPath><clipPath class="axesclip" id="clipe52c03x2y"><rect x="363.4648002333042" y="63.83858267716535" width="236.90002916302123" height="356.5936679790026"/></clipPath><clipPath class="axesclip" id="clipe52c03x2y2"><rect x="363.4648002333042" y="63.83858267716535" width="236.90002916302123" height="356.5936679790026"/></clipPath></g><g class="gradients"/></defs><g class="bglayer"/><g class="layer-below"><g class="imagelayer"/><g class="shapelayer"/></g><g class="cartesianlayer"><g class="subplot xy"><g class="layer-subplot"><g class="shapelayer"/><g class="imagelayer"/></g><g class="gridlayer"><g class="x"><path class="xgrid crisp" transform="translate(93.16480023330418,0)" d="M0,63.83858267716535v356.5936679790026" style="stroke: rgb(0, 0, 0); stroke-opacity: 0.1; stroke-width: 0.5px;"/><path class="xgrid crisp" transform="translate(167.66480023330416,0)" d="M0,63.83858267716535v356.5936679790026" style="stroke: rgb(0, 0, 0); stroke-opacity: 0.1; stroke-width: 0.5px;"/><path class="xgrid crisp" transform="translate(242.16480023330416,0)" d="M0,63.83858267716535v356.5936679790026" style="stroke: rgb(0, 0, 0); stroke-opacity: 0.1; stroke-width: 0.5px;"/><path class="xgrid crisp" transform="translate(316.66480023330416,0)" d="M0,63.83858267716535v356.5936679790026" style="stroke: rgb(0, 0, 0); stroke-opacity: 0.1; stroke-width: 0.5px;"/></g><g class="y"><path class="ygrid crisp" transform="translate(0,416.96858267716533)" d="M86.46480023330417,0h236.90002916302126" style="stroke: rgb(0, 0, 0); stroke-opacity: 0.1; stroke-width: 0.5px;"/><path class="ygrid crisp" transform="translate(0,332.5985826771653)" d="M86.46480023330417,0h236.90002916302126" style="stroke: rgb(0, 0, 0); stroke-opacity: 0.1; stroke-width: 0.5px;"/><path class="ygrid crisp" transform="translate(0,248.23858267716537)" d="M86.46480023330417,0h236.90002916302126" style="stroke: rgb(0, 0, 0); stroke-opacity: 0.1; stroke-width: 0.5px;"/><path class="ygrid crisp" transform="translate(0,163.86858267716536)" d="M86.46480023330417,0h236.90002916302126" style="stroke: rgb(0, 0, 0); stroke-opacity: 0.1; stroke-width: 0.5px;"/><path class="ygrid crisp" transform="translate(0,79.50858267716535)" d="M86.46480023330417,0h236.90002916302126" style="stroke: rgb(0, 0, 0); stroke-opacity: 0.1; stroke-width: 0.5px;"/></g></g><g class="zerolinelayer"/><path class="xlines-below"/><path class="ylines-below"/><g class="overlines-below"/><g class="xaxislayer-below"/><g class="yaxislayer-below"/><g class="overaxes-below"/><g class="plot" transform="translate(86.46480023330417,63.83858267716535)" clip-path="url('#clipe52c03xyplot')"><g class="scatterlayer mlayer"><g class="trace scatter tracecee7f6" style="stroke-miterlimit: 2; opacity: 1;"><g class="fills"/><g class="errorbars"/><g class="lines"><path class="js-line" d="M6.7,184.24L6.77,180.59L6.83,190.03L6.84,190.75L7.2,108.69L7.35,283.09L7.59,194.47L7.6,199.43L7.87,100.4L8.03,308.13L8.35,257.45L8.36,271.51L8.55,77.05L8.7,312.2L9.11,190.93L9.12,195.38L9.37,310.51L9.58,50L9.87,112.24L9.88,113.04L10.33,319.39L10.59,10.91L10.63,113.79L10.64,130.61L11.27,22.04L11.39,341.34L11.4,344.49L11.4,346.5L11.6,23.41L12.15,159.95L12.16,159.06L12.32,41.06L12.41,329.17L12.91,158.33L12.92,158.39L12.98,22.38L13.42,323.09L13.67,139.02L13.68,154.17L13.76,315.12L14.33,10.99L14.43,303.56L14.44,307.59L15,24.32L15.12,336.53L15.19,159.54L15.2,161.93L15.34,26.62L15.79,332.4L15.95,153.94L15.96,145.22L16.01,20.02L16.47,331.54L16.71,143.44L16.72,155.04L16.8,331.11L17.02,24.05L17.47,295.58L17.48,297.35L17.7,24.27L18.16,333.51L18.23,161.4L18.24,167.23L18.49,336.09L18.71,15.84L18.99,137.92L19,137.76L19.39,16.01L19.5,320.08L19.75,131.88L19.76,137.84L19.83,318.44L20.39,10.09L20.51,291.92L20.52,292.91L20.73,23.18L20.86,308.79L21.27,200.16L21.28,200.98L21.75,31.41L21.86,311.06L22.03,170.76L22.04,175.57L22.08,28.78L22.2,300.36L22.79,136.82L22.8,142.25L23.09,34.4L23.24,301.22L23.55,279.42L23.56,273.51L23.57,304.62L23.76,41.19L24.31,194.87L24.32,194.82L24.79,41.22L24.92,309.31L25.07,211.71L25.08,210.67L25.26,312.62L25.8,41.18L25.83,140.85L25.84,146.63L26.14,39.37L26.26,307.31L26.59,293.39L26.6,295.89L26.81,48.34L26.94,303.39L27.35,182.76L27.36,184.61L27.49,47.79L27.62,307.18L28.11,201.85L28.12,200.79L28.16,46.18L28.63,314.05L28.87,142.1L28.88,140.2L28.96,311.14L29.52,45.73L29.63,294.15L29.64,295.05L29.85,39.33L30.32,302.89L30.39,196.2L30.4,203.27L30.86,41.36L30.99,299.04L31.15,194.14L31.16,192.68L31.2,44.58L31.33,297.04L31.91,115.08L31.92,116.03L32,300.28L32.55,52.33L32.67,289.89L32.68,287.78L33.01,289.85L33.22,56.03L33.43,200.96L33.44,205.68L33.56,59.6L34.02,273.79L34.19,214.48L34.2,212.46L34.23,65.94L34.72,272.45L34.95,111.75L34.96,112.81L35.24,76.21L35.39,276L35.71,255.83L35.72,257.8L35.73,275.54L35.93,79.88L36.47,200.29L36.48,202.38L36.6,79.85L37.08,278.94L37.23,211.44L37.24,205.95L37.27,87.17L37.76,283.67L37.99,128.36L38,130.9L38.09,285.85L38.31,86.78L38.75,255.26L38.76,259.07L38.77,282.15L39.32,81.82L39.51,201.91L39.52,205.17L39.78,279.54L39.99,78.07L40.27,215.62L40.28,207.33L40.32,77.74L40.46,274.97L41.03,130.16L41.04,128.22L41.47,276.67L41.68,86.08L41.79,263.14L41.8,266.3L42.01,85.7L42.14,273.91L42.55,217.04L42.56,219.93L42.69,86.41L42.82,265.33L43.31,209.61L43.32,206.02L43.7,85.29L43.83,264.7L44.07,118.83L44.08,118.5L44.37,88.02L44.51,265.25L44.83,254.64L44.84,257.37L45.19,263.32L45.38,97.34L45.59,227.15L45.6,227.62L45.72,100.02L45.86,263.66L46.35,221.23L46.36,218.66L46.87,259.94L47.07,100.67L47.11,114L47.12,115.27L47.4,106.07L47.55,260.72L47.87,240.83L47.88,244L48.12,109.73L48.57,261.89L48.63,213.35L48.64,211.09L49.13,110.35L49.24,264.3L49.39,226.29L49.4,221.15L49.46,111.47L49.57,261.22L50.15,116.96L50.16,116.99L50.25,260.88L50.81,114.51L50.91,241.99L50.92,246.02L51.49,114.1L51.6,260.86L51.67,202.11L51.68,199.82L51.94,259.63L52.16,114.54L52.43,222.38L52.44,216.64L52.54,111.95L52.61,258.53L53.19,119.51L53.2,117.82L53.2,114L53.76,257.37L53.95,242.77L53.96,244.87L54.44,255.7L54.56,111.93L54.71,207.57L54.72,207.36L55.23,110.71L55.45,254.4L55.47,221.5L55.48,216.61L55.56,110.77L56.13,257.22L56.23,114.83L56.24,114.32L56.24,114.11L56.47,255.38L56.99,235.09L57,235.29L57.14,253.74L57.25,114.1L57.75,211.87L57.76,210.11L58.3,113.31L58.49,253.72L58.51,226L58.52,223.12L58.83,251.71L58.98,111.4L59.27,119.43L59.28,120.75L59.5,250.27L59.99,108.92L60.03,214.05L60.04,215.51L60.18,247.86L60.66,106.92L60.79,209.42L60.8,208.18L61.34,103.66L61.54,249.57L61.55,227.49L61.56,225.02L61.67,100.85L61.87,249.18L62.31,130.25L62.32,132.54L62.55,248.74L62.68,104.2L63.07,209.09L63.08,210.84L63.36,103.23L63.57,249.59L63.83,201.63L63.84,200.01L64.24,252.75L64.37,103.83L64.59,228.99L64.6,226L64.91,249.66L65.05,104.88L65.35,136.83L65.36,135.08L65.38,105.03L65.93,251.74L66.11,204.65L66.12,206.08L66.6,252.17L66.73,105.88L66.87,206.27L66.88,204.84L66.94,250.45L67.41,106.35L67.63,225.95L67.64,223.96L67.74,106.63L67.95,248.74L68.39,136.87L68.4,134.64L68.42,108.71L68.62,246.3L69.15,200.26L69.16,200.54L69.3,245.03L69.78,108.03L69.91,207L69.92,205.73L69.97,242.82L70.11,108.1L70.67,236.68L70.68,235.93L71.01,239.02L71.13,110.6L71.43,137.02L71.44,134.29L72.01,239.81L72.14,108.99L72.19,187.57L72.2,187.97L72.7,240.5L72.82,108.98L72.95,202.66L72.96,200.05L73.15,108.22L73.37,244.45L73.71,240.07L73.72,238.77L73.83,108.71L74.05,242.57L74.47,141.78L74.48,140.29L74.84,108.1L75.06,243.35L75.23,177.77L75.24,178.13L75.52,107.67L75.74,244.78L75.99,195.39L76,194.06L76.19,109.01L76.75,246.32L76.75,241.54L76.76,239.76L77.08,245.31L77.21,107.9L77.51,145.36L77.52,142.95L77.88,107.26L78.1,244.86L78.27,175.32L78.28,176.53L78.43,244.71L78.55,111.19L79.03,195.53L79.04,194.67L79.11,244.82L79.57,113.32L79.79,236.58L79.8,235.29L79.9,113.46L80.12,243.33L80.55,147.72L80.56,144.88L80.58,115.58L81.14,242.78L81.31,169.39L81.32,169.56L81.48,243.65L81.59,118.99L82.07,199.5L82.08,199.57L82.15,241.48L82.61,117.51L82.83,237.78L82.84,236.91L83.16,238.94L83.29,117.23L83.59,150.84L83.6,148.46L83.63,117.36L84.18,239.3L84.35,162.69L84.36,162.74L84.52,239.88L84.98,118.53L85.11,201.86L85.12,201.49L85.32,117.99L85.87,241.22L85.88,241.39L85.99,118.76L86.55,242.48L86.63,157.06L86.64,155.43L86.88,243.6L87.34,117.68L87.39,154.82L87.4,155.81L87.56,242.42L87.68,118.47L88.15,200.49L88.16,199.81L88.35,119.41L88.91,240.67L88.91,239.77L88.92,238.74L89.03,121.28L89.25,241.18L89.67,163.67L89.68,161.25L89.92,238.52L90.04,124.07L90.43,151.06L90.44,152.01L90.72,124.42L90.94,238.53L91.19,196.19L91.2,195.7L91.27,237.9L91.39,126.22L91.95,234.52L91.96,233.45L92.07,127.76L92.28,237.04L92.71,168.4L92.72,165.32L92.96,235.41L93.42,129.86L93.47,152.06L93.48,152.78L93.63,232.7L93.76,130.18L94.23,197.06L94.24,196.69L94.43,132.45L94.99,232.41L94.99,232.2L95,231.78L95.1,136.37L95.33,231.82L95.75,169.04L95.76,165.58L95.81,137.8L96.35,233.2L96.51,149.53L96.52,149.67L96.69,233.16L97.16,137.41L97.27,197.88L97.28,197.17L97.36,232.08L97.49,136.9L98.03,230.41L98.04,230.72L98.16,137.84L98.38,231.38L98.79,168.84L98.8,166.66L99.17,139.78L99.39,232.2L99.55,145.46L99.56,145.61L99.73,232.55L100.19,140.57L100.31,193.31L100.32,192.84L100.53,140.49L101.07,232.08L101.08,232.41L101.2,140.97L101.41,232.84L101.83,175.32L101.84,173.38L102.09,231.74L102.58,141.22L102.59,145.47L102.6,146.45L102.76,230.77L102.92,141.2L103.35,189.78L103.36,189.34L103.43,229.83L103.93,140.13L104.11,225.92L104.12,225.63L104.26,140.17L104.79,227.28L104.87,184.16L104.88,181.74L104.94,141.59L105.12,227.27L105.63,148.56L105.64,149.01L105.79,224.73L105.95,142.01L106.39,186.91L106.4,187.8L106.47,223.78L106.62,143.36L107.15,220.51L107.16,220.42L107.19,223.3L107.64,143.26L107.91,184.86L107.92,182.54L108.19,223.06L108.66,143.8L108.67,150.71L108.68,150.7L109.23,222.56L109.33,143.4L109.43,187.56L109.44,188.22L109.66,144.07L109.9,223.5L110.19,217.66L110.2,218.17L110.37,145.44L110.92,225.19L110.95,189.87L110.96,187.72L111.25,225.76L111.38,145.81L111.71,146.89L111.72,146.49L111.93,224.81L112.39,144.29L112.47,186.93L112.48,187.03L112.73,144.59L112.94,225.53L113.23,216.19L113.24,216.1L113.75,144.95L113.96,225.6L113.99,195.14L114,193.92L114.08,144.81L114.63,226.82L114.75,146.35L114.76,146.29L114.97,226.76L115.43,145.24L115.51,179.71L115.52,179.51L115.77,145.02L115.98,227.17L116.27,212.68L116.28,212.52L116.32,227.09L116.44,146.48L117.03,203.46L117.04,201.75L117.45,146.39L117.67,226.53L117.79,149.14L117.8,149.9L118,226.32L118.12,147.58L118.55,178.53L118.56,178.53L118.57,177.85L118.61,194.72L118.61,196.43L118.67,224.71L118.83,148.98L119.36,220.35L119.37,219.76L119.5,149.01L119.69,223.94L120.12,163.24L120.13,161.69L120.36,222.78L120.52,148.67L120.88,162.81L120.89,164.03L121.04,222.09L121.19,149.59L121.64,194.27L121.65,195.45L121.71,221.4L122.21,148.88L122.4,219.98L122.41,220.11L122.54,149.44L123.09,223.53L123.16,164.65L123.17,163.56L123.43,223.79L123.56,149.07L123.92,160.74L123.93,161.69L124.23,149.47L124.44,224.96L124.68,191.82L124.69,192.61L125.11,224.97L125.25,149.98L125.44,224.18L125.45,224.44L125.58,150.29L126.2,168.43L126.21,167.75L126.25,151.35L126.46,224.19L126.96,158.06L126.97,159.4L127.13,223.6L127.62,150.53L127.72,186.74L127.73,186.76L127.81,222.62L127.96,150.51L128.48,222.47L128.49,222.32L128.97,150.29L129.24,174.83L129.25,173.98L129.5,220.87L129.65,149.76L130,158.79L130.01,160.19L130.17,220.28L130.66,149.43L130.76,182.84L130.77,183.77L130.85,220.35L131.34,148.91L131.52,219.41L131.53,219.25L132.01,149.24L132.28,176.96L132.29,176.06L132.89,219L133.02,148.56L133.04,162.84L133.05,163.57L133.36,148.72L133.57,219.72L133.8,181.76L133.81,182.65L133.9,219.24L134.03,149.1L134.56,216.42L134.57,216.78L134.71,150.33L134.92,219.08L135.32,178.32L135.33,177.17L135.38,151.17L135.59,218.78L136.08,159.26L136.09,159.26L136.39,152.04L136.61,218.46L136.84,181.69L136.85,182.3L137.07,154.18L137.29,218.87L137.6,214.52L137.61,214.9L137.62,218.93L137.74,155.38L138.36,182.48L138.37,182.43L138.42,156.7L138.63,217.88L139.12,157.48L139.13,157.52L139.32,216.85L139.8,157.09L139.88,178.25L139.89,178.82L140.34,217.93L140.47,156.57L140.64,214.06L140.65,214.37L140.8,156.83L141.36,219.85L141.4,190.35L141.41,189.98L141.69,220.3L142.16,156.43L142.16,157.98L142.17,158.62L142.7,220.84L142.83,156.27L142.92,175.62L142.93,176.17L143.04,220.61L143.16,156.52L143.68,207.91L143.69,208.07L143.84,158.25L144.39,221.16L144.44,194.29L144.45,193.69L144.52,158.28L144.73,221.27L145.2,160.55L145.21,160.97L145.4,220.89L145.53,158.44L145.96,173.35L145.97,174.28L146.2,159.23L146.42,220.29L146.72,205.39L146.73,206.41L146.75,220.4L146.88,160.04L147.48,195.73L147.49,194.93L147.76,219.5L147.93,160.12L148.24,162.28L148.25,162.42L148.43,218.38L148.94,159.9L149,173.76L149.01,174.14L149.11,217.17L149.27,160.17L149.76,205.67L149.77,206.86L149.79,216.73L150.32,161.05L150.52,197.63L150.53,197.15L150.8,215.94L150.99,160.41L151.28,162.3L151.29,162.05L151.33,160.2L151.48,215.3L152.04,169.7L152.05,169.56L152.5,214.91L152.68,160.42L152.8,205.35L152.81,206.33L152.83,214.76L153.35,159.77L153.56,200.3L153.57,199.86L153.69,159.46L154.2,214.28L154.32,163.59L154.33,163.47L154.53,214.48L155.04,159.02L155.08,165.71L155.09,165.83L155.2,214.23L155.37,158.93L155.84,202.06L155.85,202.66L156.04,159.67L156.56,214.28L156.6,202.63L156.61,202.14L156.89,214.24L157.06,159.99L157.36,167.4L157.37,167.02L157.57,213.76L158.07,159.78L158.12,163.61L158.13,164.17L158.24,213.15L158.4,160.08L158.88,198.65L158.89,199.47L158.91,212.39L159.46,160.51L159.64,202.84L159.65,202.18L159.8,160.38L159.93,212.21L160.4,168.71L160.41,168.02L160.61,211.71L161.15,160.03L161.16,164.21L161.17,164.95L161.28,210.83L161.83,159.94L161.92,196.1L161.93,197.15L161.97,209.9L162.5,159.2L162.68,203.85L162.69,203.93L162.84,159.17L163.33,209.66L163.44,168.74L163.45,168.01L163.51,159.51L164,210.12L164.2,163.83L164.21,164.68L164.33,210.03L164.86,159.65L164.96,195.25L164.97,196.43L165.01,209.28L165.54,159.11L165.72,206.56L165.73,206.68L165.87,159.31L166.02,208.77L166.48,169.37L166.49,169.07L166.54,160.03L166.7,208.42L167.24,163.05L167.25,163.43L167.56,160.22L167.71,208.08L168,192.38L168.01,193.26L168.58,160.54L168.76,208.24L168.77,208.3L169.26,160.11L169.44,209.21L169.52,171.85L169.53,171.56L169.77,209.07L170.27,159.47L170.28,162.2L170.29,162.89L170.44,208.22L170.61,159.35L171.04,190.82L171.05,191.88L171.12,208.14L171.28,159.7L171.8,207.34L171.81,206.99L172.3,159.9L172.47,207.97L172.56,176.18L172.57,175.79L172.81,207.8L173.31,159.01L173.32,163.46L173.33,163.75L173.48,207.68L173.64,159.36L174.08,189.28L174.09,190.38L174.5,207.26L174.66,160.44L174.84,205.64L174.85,205.21L175.17,207.17L175.34,160.16L175.6,177.98L175.61,177.36L175.67,160.04L175.84,206.93L176.36,162.99L176.37,163.29L176.51,206.61L176.68,160.7L177.12,187.45L177.13,188.5L177.18,205.41L177.36,161.28L177.88,203.96L177.89,203.91L178.04,161.3L178.24,205.48L178.64,180.55L178.65,180.12L178.91,205.27L179.06,161.28L179.4,161.91L179.41,162.14L179.94,205.35L180.07,160.76L180.16,186.33L180.17,187.1L180.41,160.52L180.61,205.78L180.92,203.14L180.93,203.23L181.08,160.93L181.62,206.03L181.68,183.14L181.69,182.84L181.96,206.04L182.44,161.39L182.44,161.95L182.45,162.36L182.98,206.05L183.11,161.3L183.2,183.68L183.21,184.34L183.45,161.28L183.65,206.15L183.96,202.09L183.97,202.37L184.12,161.53L184.67,206.64L184.72,185.43L184.73,185.17L185.14,161.72L185.34,207.08L185.48,163.75L185.49,164.26L185.68,207.11L185.81,161.95L186.24,181.51L186.25,182.13L186.35,206.65L186.49,162.06L187,200.69L187.01,201.21L187.16,162.56L187.71,206.44L187.76,187.67L187.77,187.39L187.83,163.43L188.04,206.53L188.52,165.75L188.53,166.17L188.72,206.53L188.85,163.99L189.28,178.91L189.29,179.76L189.39,206.24L189.52,164.6L190.04,199.97L190.05,200.46L190.2,164.96L190.75,206.51L190.8,189.49L190.81,189.3L190.88,165.2L191.42,206.7L191.56,168.12L191.57,168.31L191.76,206.23L191.89,165.65L192.32,176.8L192.33,177.53L192.77,205.69L192.95,165.48L193.08,199.16L193.09,199.72L193.45,205.5L193.63,165.57L193.84,192.16L193.85,191.97L193.96,165.56L194.47,205.43L194.6,168.44L194.61,168.53L195.14,205.84L195.32,165.8L195.36,175.93L195.37,176.69L195.65,165.94L195.82,206.11L196.12,197.41L196.13,197.82L196.15,205.83L196.68,166.27L196.88,194.34L196.89,194.48L197.02,166.05L197.17,204.67L197.64,169.33L197.65,169.07L198.03,165.85L198.19,205.38L198.4,173.34L198.41,173.95L198.52,205.52L199.05,165.64L199.16,196.53L199.17,196.98L199.2,205.21L199.38,165.61L199.92,196.22L199.93,196.29L199.96,182.58L199.96,181.7L200.05,165.91L200.21,204.78L200.5,190.56L200.5,190.88L200.55,204.98L201.08,165.48L201.25,196.98L201.26,196.76L201.56,204.62L201.75,164.91L202.01,174.93L202.02,174.38L202.24,204.32L202.42,164.81L202.77,166.49L202.78,166.65L203.1,165.24L203.25,204.05L203.53,188.81L203.54,188.92L203.59,204L204.12,165.62L204.29,197.13L204.3,197.13L204.6,203.61L204.8,165.21L205.05,177.11L205.06,176.43L205.61,203.39L205.81,165.01L205.82,165.05L205.95,203.23L206.49,164.65L206.57,186.79L206.58,186.96L206.62,203.04L207.16,164.51L207.33,198.27L207.34,198.24L207.63,201.94L207.84,164.44L208.09,178.23L208.1,177.83L208.31,200.66L208.51,164.46L208.85,164.63L208.86,164.78L209.33,200.36L209.53,164.29L209.61,183.7L209.62,183.72L209.66,200.28L209.86,164.3L210.37,198.9L210.38,199L210.88,164.15L211.08,200L211.13,180.51L211.14,179.97L211.75,200.2L211.89,163.92L211.89,164.01L211.9,164.18L212.23,164.04L212.43,200.76L212.65,182.36L212.66,182.62L212.76,200.8L212.9,164.37L213.41,197.82L213.42,197.93L213.57,165.25L214.12,201.33L214.17,182.62L214.18,182.16L214.45,201.34L214.6,164.98L214.93,165.14L214.94,165.01L215.13,201.1L215.61,164.54L215.69,181.46L215.7,182.06L215.95,164.71L216.14,200.87L216.45,197.36L216.46,197.65L216.97,164.35L217.16,201.6L217.21,182.98L217.22,182.37L217.3,164.41L217.5,201.69L217.97,164.84L217.98,164.67L218.17,201.48L218.66,163.93L218.73,181.22L218.74,181.65L218.84,201.29L218.99,163.86L219.49,196.43L219.5,196.9L220.01,163.74L220.21,200.69L220.25,185.35L220.26,184.95L220.34,163.58L220.88,201L221.01,164.31L221.02,164.02L221.56,201.56L221.69,163.21L221.77,179.95L221.78,180.41L221.89,201.57L222.03,163.25L222.53,196.68L222.54,196.79L222.7,163.69L223.25,201.77L223.29,187.25L223.3,186.85L223.38,164.23L223.92,201.9L224.05,165.06L224.06,165.12L224.6,202.17L224.73,165.06L224.81,177.77L224.82,178.12L224.93,202.09L225.07,164.9L225.57,194.69L225.58,194.86L225.74,165.22L226.29,202.05L226.33,189.76L226.34,189.14L226.42,165.6L226.96,202.14L227.09,166.07L227.1,166.19L227.64,202.31L227.85,177.82L227.86,178.37L227.97,202.35L228.11,167.12L228.61,192.93L228.62,193.08L228.64,201.64L229.13,167.07L229.37,189.34L229.38,188.83L229.47,166.88L229.66,200.65L230.13,167.6L230.14,167.36L230.14,166.95L230.18,175.04L230.2,174.05" style="vector-effect: non-scaling-stroke; fill: none; stroke: rgb(0, 154, 250); stroke-opacity: 1; stroke-width: 1px; opacity: 1;"/></g><g class="points"/><g class="text"/></g></g></g><g class="overplot"/><path class="xlines-above crisp" d="M85.46480023330417,420.9322506561679H323.36482939632543" style="fill: none; stroke-width: 1px; stroke: rgb(0, 0, 0); stroke-opacity: 1;"/><path class="ylines-above crisp" d="M85.96480023330417,63.83858267716535V420.4322506561679" style="fill: none; stroke-width: 1px; stroke: rgb(0, 0, 0); stroke-opacity: 1;"/><g class="overlines-above"/><g class="xaxislayer-above"><path class="xtick ticks crisp" d="M0,420.4322506561679v-5" transform="translate(93.16480023330418,0)" style="stroke: rgb(0, 0, 0); stroke-opacity: 1; stroke-width: 1px;"/><path class="xtick ticks crisp" d="M0,420.4322506561679v-5" transform="translate(167.66480023330416,0)" style="stroke: rgb(0, 0, 0); stroke-opacity: 1; stroke-width: 1px;"/><path class="xtick ticks crisp" d="M0,420.4322506561679v-5" transform="translate(242.16480023330416,0)" style="stroke: rgb(0, 0, 0); stroke-opacity: 1; stroke-width: 1px;"/><path class="xtick ticks crisp" d="M0,420.4322506561679v-5" transform="translate(316.66480023330416,0)" style="stroke: rgb(0, 0, 0); stroke-opacity: 1; stroke-width: 1px;"/><g class="xtick"><text text-anchor="middle" x="0" y="434.6322506561679" transform="translate(93.16480023330418,0)" style="font-family: sans-serif; font-size: 11px; fill: rgb(0, 0, 0); fill-opacity: 1; white-space: pre;">0</text></g><g class="xtick"><text text-anchor="middle" x="0" y="434.6322506561679" transform="translate(167.66480023330416,0)" style="font-family: sans-serif; font-size: 11px; fill: rgb(0, 0, 0); fill-opacity: 1; white-space: pre;">1</text></g><g class="xtick"><text text-anchor="middle" x="0" y="434.6322506561679" transform="translate(242.16480023330416,0)" style="font-family: sans-serif; font-size: 11px; fill: rgb(0, 0, 0); fill-opacity: 1; white-space: pre;">2</text></g><g class="xtick"><text text-anchor="middle" x="0" y="434.6322506561679" transform="translate(316.66480023330416,0)" style="font-family: sans-serif; font-size: 11px; fill: rgb(0, 0, 0); fill-opacity: 1; white-space: pre;">3</text></g></g><g class="yaxislayer-above"><path class="ytick ticks crisp" d="M86.46480023330417,0h5" transform="translate(0,416.96858267716533)" style="stroke: rgb(0, 0, 0); stroke-opacity: 1; stroke-width: 1px;"/><path class="ytick ticks crisp" d="M86.46480023330417,0h5" transform="translate(0,332.5985826771653)" style="stroke: rgb(0, 0, 0); stroke-opacity: 1; stroke-width: 1px;"/><path class="ytick ticks crisp" d="M86.46480023330417,0h5" transform="translate(0,248.23858267716537)" style="stroke: rgb(0, 0, 0); stroke-opacity: 1; stroke-width: 1px;"/><path class="ytick ticks crisp" d="M86.46480023330417,0h5" transform="translate(0,163.86858267716536)" style="stroke: rgb(0, 0, 0); stroke-opacity: 1; stroke-width: 1px;"/><path class="ytick ticks crisp" d="M86.46480023330417,0h5" transform="translate(0,79.50858267716535)" style="stroke: rgb(0, 0, 0); stroke-opacity: 1; stroke-width: 1px;"/><g class="ytick"><text text-anchor="end" x="83.26480023330417" y="3.8499999999999996" transform="translate(0,416.96858267716533)" style="font-family: sans-serif; font-size: 11px; fill: rgb(0, 0, 0); fill-opacity: 1; white-space: pre;">-0.2</text></g><g class="ytick"><text text-anchor="end" x="83.26480023330417" y="3.8499999999999996" transform="translate(0,332.5985826771653)" style="font-family: sans-serif; font-size: 11px; fill: rgb(0, 0, 0); fill-opacity: 1; white-space: pre;">-0.1</text></g><g class="ytick"><text text-anchor="end" x="83.26480023330417" y="3.8499999999999996" transform="translate(0,248.23858267716537)" style="font-family: sans-serif; font-size: 11px; fill: rgb(0, 0, 0); fill-opacity: 1; white-space: pre;">0.0</text></g><g class="ytick"><text text-anchor="end" x="83.26480023330417" y="3.8499999999999996" transform="translate(0,163.86858267716536)" style="font-family: sans-serif; font-size: 11px; fill: rgb(0, 0, 0); fill-opacity: 1; white-space: pre;">0.1</text></g><g class="ytick"><text text-anchor="end" x="83.26480023330417" y="3.8499999999999996" transform="translate(0,79.50858267716535)" style="font-family: sans-serif; font-size: 11px; fill: rgb(0, 0, 0); fill-opacity: 1; white-space: pre;">0.2</text></g></g><g class="overaxes-above"/></g><g class="subplot x2y2"><g class="layer-subplot"><g class="shapelayer"/><g class="imagelayer"/></g><g class="gridlayer"><g class="x2"><path class="x2grid crisp" transform="translate(370.1548002333042,0)" d="M0,63.83858267716535v356.5936679790026" style="stroke: rgb(0, 0, 0); stroke-opacity: 0.1; stroke-width: 0.5px;"/><path class="x2grid crisp" transform="translate(414.85480023330416,0)" d="M0,63.83858267716535v356.5936679790026" style="stroke: rgb(0, 0, 0); stroke-opacity: 0.1; stroke-width: 0.5px;"/><path class="x2grid crisp" transform="translate(459.55480023330415,0)" d="M0,63.83858267716535v356.5936679790026" style="stroke: rgb(0, 0, 0); stroke-opacity: 0.1; stroke-width: 0.5px;"/><path class="x2grid crisp" transform="translate(504.2548002333042,0)" d="M0,63.83858267716535v356.5936679790026" style="stroke: rgb(0, 0, 0); stroke-opacity: 0.1; stroke-width: 0.5px;"/><path class="x2grid crisp" transform="translate(548.9548002333042,0)" d="M0,63.83858267716535v356.5936679790026" style="stroke: rgb(0, 0, 0); stroke-opacity: 0.1; stroke-width: 0.5px;"/><path class="x2grid crisp" transform="translate(593.6648002333042,0)" d="M0,63.83858267716535v356.5936679790026" style="stroke: rgb(0, 0, 0); stroke-opacity: 0.1; stroke-width: 0.5px;"/></g><g class="y2"><path class="y2grid crisp" transform="translate(0,410.33858267716533)" d="M363.4648002333042,0h236.90002916302123" style="stroke: rgb(0, 0, 0); stroke-opacity: 0.1; stroke-width: 0.5px;"/><path class="y2grid crisp" transform="translate(0,336.5385826771653)" d="M363.4648002333042,0h236.90002916302123" style="stroke: rgb(0, 0, 0); stroke-opacity: 0.1; stroke-width: 0.5px;"/><path class="y2grid crisp" transform="translate(0,262.74858267716536)" d="M363.4648002333042,0h236.90002916302123" style="stroke: rgb(0, 0, 0); stroke-opacity: 0.1; stroke-width: 0.5px;"/><path class="y2grid crisp" transform="translate(0,188.94858267716535)" d="M363.4648002333042,0h236.90002916302123" style="stroke: rgb(0, 0, 0); stroke-opacity: 0.1; stroke-width: 0.5px;"/><path class="y2grid crisp" transform="translate(0,115.14858267716535)" d="M363.4648002333042,0h236.90002916302123" style="stroke: rgb(0, 0, 0); stroke-opacity: 0.1; stroke-width: 0.5px;"/></g></g><g class="zerolinelayer"/><path class="xlines-below"/><path class="ylines-below"/><g class="overlines-below"/><g class="xaxislayer-below"/><g class="yaxislayer-below"/><g class="overaxes-below"/><g class="plot" transform="translate(363.4648002333042,63.83858267716535)" clip-path="url('#clipe52c03x2y2plot')"><g class="scatterlayer mlayer"><g class="trace scatter trace4f287a" style="stroke-miterlimit: 2; opacity: 1;"><g class="fills"/><g class="errorbars"/><g class="lines"><path class="js-line" d="M6.7,346.45L7.43,345.72L7.54,346.44L7.55,346.49L8.95,346.29L8.98,346.4L9,346.42L10.07,345.69L10.09,345.35L10.1,345.89L10.76,344.98L10.83,345.48L10.85,345.55L10.89,345.25L11.19,345.95L11.58,345.72L11.59,345.75L11.92,344.26L11.93,344.19L12.02,343.55L12.2,345.39L12.56,345.19L12.58,345.28L12.75,345.72L13.02,344.26L13.04,344.19L13.74,346.43L13.99,346.05L14.01,346.04L14.29,346.31L14.47,345.61L14.48,345.57L14.66,344.87L15.11,345.88L15.12,345.94L15.17,346.2L15.7,345.05L15.72,345L15.81,345.83L16.05,342.43L16.06,342.07L16.42,322.94L16.43,320.2L16.52,247.76L16.54,56.07L16.55,10.09L17.02,346.04L17.22,344.61L17.24,344.75L17.55,344.08L17.7,344.88L17.72,344.93L18.71,345.99L18.73,346L19.01,345.02L19.44,346.03L19.46,346.03L19.67,346.29L19.83,345.5L19.85,345.44L19.99,345.11L20.47,345.95L20.49,345.98L21.35,346.09L21.37,346.09L22.99,346L23,346.03L23.17,346.41L23.56,345.63L23.57,345.6L24.66,344.46L24.76,344.78L24.78,344.85L25,345.82L25.3,343.65L25.31,343.55L26.22,332.42L26.24,331.56L26.39,252.02L26.4,151.58L26.98,345.44L27.22,345.08L27.24,345.06L27.61,345.68L27.62,345.74L27.64,345.79L28.56,346.39L28.58,346.4L30.38,345.74L30.48,346.01L30.5,346.06L30.65,346.49L31.27,346.07L31.29,346.05L32.97,346.17L32.99,346.18L35.33,345.7L35.34,345.64L36.15,342.13L36.16,341.3L36.25,297.8L36.27,281.18L37.07,346.14L37.08,346.13L37.1,346.11L38.74,346.31L38.75,346.31L45.38,345.28L45.4,345.23L46.01,339.53L46.02,338.93L46.1,330.4L46.13,332.98L46.14,264.4L46.16,264.84L46.17,295.4L46.96,346.16L46.98,346.18L49.29,346.35L49.3,346.34L51.12,346.36L51.13,346.37L53.68,346.15L53.7,346.15L55.02,345.73L55.04,345.73L55.77,345.04L55.86,345.54L55.87,345.61L55.95,346.25L56.02,342.59L56.04,331.9L56.05,304.4L56.78,345.36L56.8,345.41L57.93,346.36L57.94,346.37L59.15,346.26L59.17,346.27L61.8,346.32L61.82,346.31L64.75,346.05L64.77,346.07L65.62,345.41L65.63,345.34L65.83,341.45L65.97,341.7L65.99,322.85L66.78,346.07L66.79,346.08L70.03,346.41L70.04,346.4L75.41,345.61L75.42,345.58L75.87,344.09L75.88,343.75L75.96,335.34L75.97,312.02L76.82,345.78L76.84,345.81L77.79,345.91L77.8,345.9L78.82,346.21L78.83,346.22L80.98,346.46L80.99,346.46L85.06,345.65L85.08,345.62L85.63,344.22L85.97,344.74L85.98,340.52L86.77,345.99L86.79,346.01L87.8,346.25L87.82,346.25L95.97,345.82L95.98,345.72L96.06,346.04L96.07,340.87L96.09,337.95L96.56,346.42L96.86,346.04L96.88,346.04L99.51,346.45L99.53,346.45L105.4,345.9L105.41,345.64L105.73,346.08L106.13,345.45L106.14,345.26L106.25,337.1L106.26,336.17L106.8,346.34L107.17,346.18L107.19,346.19L108.54,346.42L108.56,346.42L112.45,346.45L112.46,346.44L116.29,345.65L116.3,345.5L116.39,339.95L116.41,336.04L117.18,346.39L117.2,346.4L122.93,346.46L122.95,346.46L126.61,345.84L126.63,346.38L126.64,343.73L126.67,340.26L127.3,346.38L127.32,346.4L129.09,346.45L129.1,346.45L135.26,345.94L135.27,345.63L135.29,345.35L135.63,346.3L135.97,346.18L135.99,346.18L136.88,345.06L136.9,344.88L137,338.14L137.39,345.9L137.4,345.95L138.37,346.34L138.39,346.35L145.22,346.49L145.24,346.4L146.82,346.06L146.83,346.01L147.5,343.63L147.65,345.5L147.67,345.59L148.08,346.41L148.56,346.24L148.58,346.24L154.74,346.36L154.76,346.35L155.24,345.52L155.25,345.94L155.27,344.52L155.3,342.02L156,346.24L156.01,346.26L157.59,346.39L157.61,346.38L158.04,346.17L158.05,345.16L158.08,344.1L158.63,346.42L158.75,346.4L158.77,346.44L164.04,346.48L164.06,346.48L168.5,345.83L168.51,345.71L168.63,339.26L169.09,345.91L169.11,345.93L170.31,346.38L170.33,346.38L175.38,346.38L175.4,346.28L179.27,345.93L179.28,345.67L179.3,345.39L179.84,346.49L179.97,346.49L179.98,346.49L191.14,346.49L191.16,346.49L200.98,345.95L200.99,345.74L201.01,345.51L201.68,346.44L201.69,346.44L205.66,346.47L205.67,346.47L207.29,346.49L207.31,346.49L230.2,346.49" style="vector-effect: non-scaling-stroke; fill: none; stroke: rgb(255, 165, 0); stroke-opacity: 1; stroke-width: 1px; opacity: 1;"/></g><g class="points"/><g class="text"/></g></g></g><g class="overplot"/><path class="xlines-above crisp" d="M362.4648002333042,420.9322506561679H600.3648293963254" style="fill: none; stroke-width: 1px; stroke: rgb(0, 0, 0); stroke-opacity: 1;"/><path class="ylines-above crisp" d="M362.9648002333042,63.83858267716535V420.4322506561679" style="fill: none; stroke-width: 1px; stroke: rgb(0, 0, 0); stroke-opacity: 1;"/><g class="overlines-above"/><g class="xaxislayer-above"><path class="x2tick ticks crisp" d="M0,420.4322506561679v-5" transform="translate(370.1548002333042,0)" style="stroke: rgb(0, 0, 0); stroke-opacity: 1; stroke-width: 1px;"/><path class="x2tick ticks crisp" d="M0,420.4322506561679v-5" transform="translate(414.85480023330416,0)" style="stroke: rgb(0, 0, 0); stroke-opacity: 1; stroke-width: 1px;"/><path class="x2tick ticks crisp" d="M0,420.4322506561679v-5" transform="translate(459.55480023330415,0)" style="stroke: rgb(0, 0, 0); stroke-opacity: 1; stroke-width: 1px;"/><path class="x2tick ticks crisp" d="M0,420.4322506561679v-5" transform="translate(504.2548002333042,0)" style="stroke: rgb(0, 0, 0); stroke-opacity: 1; stroke-width: 1px;"/><path class="x2tick ticks crisp" d="M0,420.4322506561679v-5" transform="translate(548.9548002333042,0)" style="stroke: rgb(0, 0, 0); stroke-opacity: 1; stroke-width: 1px;"/><path class="x2tick ticks crisp" d="M0,420.4322506561679v-5" transform="translate(593.6648002333042,0)" style="stroke: rgb(0, 0, 0); stroke-opacity: 1; stroke-width: 1px;"/><g class="x2tick"><text text-anchor="middle" x="0" y="434.6322506561679" transform="translate(370.1548002333042,0)" style="font-family: sans-serif; font-size: 11px; fill: rgb(0, 0, 0); fill-opacity: 1; white-space: pre;">0</text></g><g class="x2tick"><text text-anchor="middle" x="0" y="434.6322506561679" transform="translate(414.85480023330416,0)" style="font-family: sans-serif; font-size: 11px; fill: rgb(0, 0, 0); fill-opacity: 1; white-space: pre;">1000</text></g><g class="x2tick"><text text-anchor="middle" x="0" y="434.6322506561679" transform="translate(459.55480023330415,0)" style="font-family: sans-serif; font-size: 11px; fill: rgb(0, 0, 0); fill-opacity: 1; white-space: pre;">2000</text></g><g class="x2tick"><text text-anchor="middle" x="0" y="434.6322506561679" transform="translate(504.2548002333042,0)" style="font-family: sans-serif; font-size: 11px; fill: rgb(0, 0, 0); fill-opacity: 1; white-space: pre;">3000</text></g><g class="x2tick"><text text-anchor="middle" x="0" y="434.6322506561679" transform="translate(548.9548002333042,0)" style="font-family: sans-serif; font-size: 11px; fill: rgb(0, 0, 0); fill-opacity: 1; white-space: pre;">4000</text></g><g class="x2tick"><text text-anchor="middle" x="0" y="434.6322506561679" transform="translate(593.6648002333042,0)" style="font-family: sans-serif; font-size: 11px; fill: rgb(0, 0, 0); fill-opacity: 1; white-space: pre;">5000</text></g></g><g class="yaxislayer-above"><path class="y2tick ticks crisp" d="M363.4648002333042,0h5" transform="translate(0,410.33858267716533)" style="stroke: rgb(0, 0, 0); stroke-opacity: 1; stroke-width: 1px;"/><path class="y2tick ticks crisp" d="M363.4648002333042,0h5" transform="translate(0,336.5385826771653)" style="stroke: rgb(0, 0, 0); stroke-opacity: 1; stroke-width: 1px;"/><path class="y2tick ticks crisp" d="M363.4648002333042,0h5" transform="translate(0,262.74858267716536)" style="stroke: rgb(0, 0, 0); stroke-opacity: 1; stroke-width: 1px;"/><path class="y2tick ticks crisp" d="M363.4648002333042,0h5" transform="translate(0,188.94858267716535)" style="stroke: rgb(0, 0, 0); stroke-opacity: 1; stroke-width: 1px;"/><path class="y2tick ticks crisp" d="M363.4648002333042,0h5" transform="translate(0,115.14858267716535)" style="stroke: rgb(0, 0, 0); stroke-opacity: 1; stroke-width: 1px;"/><g class="y2tick"><text text-anchor="end" x="360.2648002333042" y="3.8499999999999996" transform="translate(0,410.33858267716533)" style="font-family: sans-serif; font-size: 11px; fill: rgb(0, 0, 0); fill-opacity: 1; white-space: pre;">0</text></g><g class="y2tick"><text text-anchor="end" x="360.2648002333042" y="3.8499999999999996" transform="translate(0,336.5385826771653)" style="font-family: sans-serif; font-size: 11px; fill: rgb(0, 0, 0); fill-opacity: 1; white-space: pre;">500</text></g><g class="y2tick"><text text-anchor="end" x="360.2648002333042" y="3.8499999999999996" transform="translate(0,262.74858267716536)" style="font-family: sans-serif; font-size: 11px; fill: rgb(0, 0, 0); fill-opacity: 1; white-space: pre;">1000</text></g><g class="y2tick"><text text-anchor="end" x="360.2648002333042" y="3.8499999999999996" transform="translate(0,188.94858267716535)" style="font-family: sans-serif; font-size: 11px; fill: rgb(0, 0, 0); fill-opacity: 1; white-space: pre;">1500</text></g><g class="y2tick"><text text-anchor="end" x="360.2648002333042" y="3.8499999999999996" transform="translate(0,115.14858267716535)" style="font-family: sans-serif; font-size: 11px; fill: rgb(0, 0, 0); fill-opacity: 1; white-space: pre;">2000</text></g></g><g class="overaxes-above"/></g></g><g class="polarlayer"/><g class="ternarylayer"/><g class="geolayer"/><g class="funnelarealayer"/><g class="pielayer"/><g class="treemaplayer"/><g class="sunburstlayer"/><g class="glimages"/><defs id="topdefs-e52c03"><g class="clips"/><clipPath id="legende52c03"><rect width="73" height="58" x="0" y="0"/></clipPath></defs><g class="layer-above"><g class="imagelayer"/><g class="shapelayer"/></g><g class="infolayer"><g class="legend" pointer-events="all" transform="translate(615.08,60)"><rect class="bg" shape-rendering="crispEdges" width="73" height="58" x="0" y="0" style="stroke: rgb(68, 68, 68); stroke-opacity: 1; fill: rgb(255, 255, 255); fill-opacity: 1; stroke-width: 0px;"/><g class="scrollbox" transform="" clip-path="url('#legende52c03')"><g class="groups" transform=""><g class="traces" transform="translate(0,14.5)" style="opacity: 1;"><text class="legendtext" text-anchor="start" x="40" y="4.680000000000001" style="font-family: 'Open Sans', verdana, arial, sans-serif; font-size: 12px; fill: rgb(42, 63, 95); fill-opacity: 1; white-space: pre;">Time</text><g class="layers" style="opacity: 1;"><g class="legendfill"/><g class="legendlines"><path class="js-line" d="M5,0h30" style="fill: none; stroke: rgb(0, 154, 250); stroke-opacity: 1; stroke-width: 1px;"/></g><g class="legendsymbols"><g class="legendpoints"/></g></g><rect class="legendtoggle" x="0" y="-9.5" width="67.84375" height="19" style="fill: rgb(0, 0, 0); fill-opacity: 0;"/></g></g><g class="groups" transform="translate(0,10)"><g class="traces" transform="translate(0,33.5)" style="opacity: 1;"><text class="legendtext" text-anchor="start" x="40" y="4.680000000000001" style="font-family: 'Open Sans', verdana, arial, sans-serif; font-size: 12px; fill: rgb(42, 63, 95); fill-opacity: 1; white-space: pre;">Freq</text><g class="layers" style="opacity: 1;"><g class="legendfill"/><g class="legendlines"><path class="js-line" d="M5,0h30" style="fill: none; stroke: rgb(255, 165, 0); stroke-opacity: 1; stroke-width: 1px;"/></g><g class="legendsymbols"><g class="legendpoints"/></g></g><rect class="legendtoggle" x="0" y="-9.5" width="67.84375" height="19" style="fill: rgb(0, 0, 0); fill-opacity: 0;"/></g></g></g><rect class="scrollbar" rx="20" ry="3" width="0" height="0" x="0" y="0" style="fill: rgb(128, 139, 164); fill-opacity: 1;"/></g><g class="g-gtitle"/><g class="g-xtitle"><text class="xtitle" x="204.9148148148148" y="462.140625" text-anchor="middle" style="font-family: sans-serif; font-size: 15px; fill: rgb(0, 0, 0); opacity: 1; font-weight: normal; white-space: pre;">t[s]</text></g><g class="g-x2title"><text class="x2title" x="481.9148148148148" y="462.140625" text-anchor="middle" style="font-family: sans-serif; font-size: 15px; fill: rgb(0, 0, 0); opacity: 1; font-weight: normal; white-space: pre;">f[hz]</text></g><g class="g-ytitle"/><g class="g-y2title"/></g></svg>