<svg class="main-svg" xmlns="http://www.w3.org/2000/svg" xmlns:xlink="http://www.w3.org/1999/xlink" width="700" height="500" style="" viewBox="0 0 700 500"><rect x="0" y="0" width="700" height="500" style="fill: rgb(255, 255, 255); fill-opacity: 1;"/><defs id="defs-9831ef"><g class="clips"><clipPath id="clip9831efxyplot" class="plotclip"><rect width="236.90002916302126" height="356.5936679790026"/></clipPath><clipPath id="clip9831efx2y2plot" class="plotclip"><rect width="236.90002916302123" height="356.5936679790026"/></clipPath><clipPath class="axesclip" id="clip9831efx"><rect x="94.67220764071158" y="0" width="236.90002916302126" height="500"/></clipPath><clipPath class="axesclip" id="clip9831efy"><rect x="0" y="63.83858267716535" width="700" height="356.5936679790026"/></clipPath><clipPath class="axesclip" id="clip9831efxy"><rect x="94.67220764071158" y="63.83858267716535" width="236.90002916302126" height="356.5936679790026"/></clipPath><clipPath class="axesclip" id="clip9831efy2"><rect x="0" y="63.83858267716535" width="700" height="356.5936679790026"/></clipPath><clipPath class="axesclip" id="clip9831efxy2"><rect x="94.67220764071158" y="63.83858267716535" width="236.90002916302126" height="356.5936679790026"/></clipPath><clipPath class="axesclip" id="clip9831efx2"><rect x="363.4648002333042" y="0" width="236.90002916302123" height="500"/></clipPath><clipPath class="axesclip" id="clip9831efx2y"><rect x="363.4648002333042" y="63.83858267716535" width="236.90002916302123" height="356.5936679790026"/></clipPath><clipPath class="axesclip" id="clip9831efx2y2"><rect x="363.4648002333042" y="63.83858267716535" width="236.90002916302123" height="356.5936679790026"/></clipPath></g><g class="gradients"/></defs><g class="bglayer"/><g class="layer-below"><g class="imagelayer"/><g class="shapelayer"/></g><g class="cartesianlayer"><g class="subplot xy"><g class="layer-subplot"><g class="shapelayer"/><g class="imagelayer"/></g><g class="gridlayer"><g class="x"><path class="xgrid crisp" transform="translate(101.37220764071158,0)" d="M0,63.83858267716535v356.5936679790026" style="stroke: rgb(0, 0, 0); stroke-opacity: 0.1; stroke-width: 0.5px;"/><path class="xgrid crisp" transform="translate(175.87220764071157,0)" d="M0,63.83858267716535v356.5936679790026" style="stroke: rgb(0, 0, 0); stroke-opacity: 0.1; stroke-width: 0.5px;"/><path class="xgrid crisp" transform="translate(250.37220764071157,0)" d="M0,63.83858267716535v356.5936679790026" style="stroke: rgb(0, 0, 0); stroke-opacity: 0.1; stroke-width: 0.5px;"/><path class="xgrid crisp" transform="translate(324.87220764071157,0)" d="M0,63.83858267716535v356.5936679790026" style="stroke: rgb(0, 0, 0); stroke-opacity: 0.1; stroke-width: 0.5px;"/></g><g class="y"><path class="ygrid crisp" transform="translate(0,391.38858267716535)" d="M94.67220764071158,0h236.90002916302126" style="stroke: rgb(0, 0, 0); stroke-opacity: 0.1; stroke-width: 0.5px;"/><path class="ygrid crisp" transform="translate(0,340.2985826771653)" d="M94.67220764071158,0h236.90002916302126" style="stroke: rgb(0, 0, 0); stroke-opacity: 0.1; stroke-width: 0.5px;"/><path class="ygrid crisp" transform="translate(0,289.21858267716533)" d="M94.67220764071158,0h236.90002916302126" style="stroke: rgb(0, 0, 0); stroke-opacity: 0.1; stroke-width: 0.5px;"/><path class="ygrid crisp" transform="translate(0,238.13858267716535)" d="M94.67220764071158,0h236.90002916302126" style="stroke: rgb(0, 0, 0); stroke-opacity: 0.1; stroke-width: 0.5px;"/><path class="ygrid crisp" transform="translate(0,187.05858267716536)" d="M94.67220764071158,0h236.90002916302126" style="stroke: rgb(0, 0, 0); stroke-opacity: 0.1; stroke-width: 0.5px;"/><path class="ygrid crisp" transform="translate(0,135.97858267716535)" d="M94.67220764071158,0h236.90002916302126" style="stroke: rgb(0, 0, 0); stroke-opacity: 0.1; stroke-width: 0.5px;"/><path class="ygrid crisp" transform="translate(0,84.89858267716535)" d="M94.67220764071158,0h236.90002916302126" style="stroke: rgb(0, 0, 0); stroke-opacity: 0.1; stroke-width: 0.5px;"/></g></g><g class="zerolinelayer"/><path class="xlines-below"/><path class="ylines-below"/><g class="overlines-below"/><g class="xaxislayer-below"/><g class="yaxislayer-below"/><g class="overaxes-below"/><g class="plot" transform="translate(94.67220764071158,63.83858267716535)" clip-path="url('#clip9831efxyplot')"><g class="scatterlayer mlayer"><g class="trace scatter trace0ff047" style="stroke-miterlimit: 2; opacity: 1;"><g class="fills"/><g class="errorbars"/><g class="lines"><path class="js-line" d="M6.7,171.72L6.78,169.69L6.91,176.46L6.92,176.37L6.92,176.49L7.02,179.02L7.43,168.83L7.67,175.81L7.68,174.49L8.03,167.1L8.25,185.43L8.43,175.68L8.44,173.74L8.77,193.4L9.14,156.65L9.19,174.1L9.2,175.48L9.88,245.07L9.92,115.18L9.95,233.64L9.96,242.4L10.47,346.5L10.6,38.09L10.71,205.89L10.72,218.96L10.81,284.76L11.37,52.59L11.47,195.88L11.48,203.44L11.83,314.89L12.13,22.84L12.23,136.16L12.24,142.14L12.51,344.69L12.88,30.3L12.99,183.86L13,189.51L13.27,303.97L13.65,48.96L13.75,171.75L13.76,180.9L13.95,306.44L14.41,93.97L14.51,184.7L14.52,192.93L14.67,39.6L14.96,295.08L15.27,137.27L15.28,144.83L15.55,334.21L15.93,10.09L16.02,47.65L16.03,54.34L16.23,333.48L16.61,32.23L16.78,111.93L16.79,116.75L16.99,303.28L17.37,44.16L17.54,141.9L17.55,144.89L17.96,92.48L18.26,284.23L18.3,161.38L18.31,165.97L18.34,270.6L18.64,79.08L19.06,120.51L19.07,125.01L19.23,79.09L19.61,261.79L19.82,109.82L19.83,112.69L20.11,267.02L20.49,74.53L20.58,106.59L20.59,110.53L20.87,272.42L21.08,95.97L21.34,147.93L21.35,150.54L21.46,239.56L21.76,95L22.1,146.33L22.11,148.52L22.35,112.62L22.64,235.15L22.86,142.13L22.87,144.86L23.15,228.2L23.45,120.82L23.62,146.44L23.63,151.22L23.83,226.54L24.04,121.62L24.38,151.31L24.39,154.55L24.63,108.16L24.92,215.87L25.14,126.21L25.15,127.48L25.22,124.99L25.51,225.28L25.9,150.86L25.91,153.88L26.03,215.71L26.41,130.26L26.66,148.9L26.67,152.44L26.78,211.3L27.08,140.42L27.42,154.94L27.43,157.04L27.75,141.65L28.13,207.63L28.18,164.26L28.19,165.56L28.47,204.91L28.93,149.15L28.94,152.02L28.95,151.56L29.1,140.97L29.49,195.65L29.7,146.15L29.71,145.97L30.08,200.81L30.37,142.6L30.46,147.3L30.47,147.78L31.17,197.16L31.22,163.87L31.23,165.63L31.34,198.58L31.55,151.2L31.98,162.21L31.99,163.58L32.01,189.58L32.22,152.89L32.73,157.88L32.74,157.83L33.12,195.89L33.49,161.29L33.5,160.27L33.71,184.6L34.09,152.54L34.25,157.67L34.26,156.76L34.43,155.46L34.97,184.87L35.01,162.7L35.02,161.82L35.39,193.32L35.77,162.67L35.78,163.92L36.07,193.46L36.45,154.13L36.53,156.91L36.54,157.51L36.54,157.17L36.82,192.12L37.29,167.35L37.3,166.8L37.43,185.79L37.72,165.7L38.05,169.74L38.06,168.6L38.27,182.37L38.81,166.11L38.82,167.8L39.19,181.44L39.57,160L39.57,160.74L39.58,162.74L39.65,161.15L39.94,185.49L40.33,174.78L40.34,176.03L40.49,173.11L40.87,189.61L41.09,178.04L41.1,177.94L41.12,186.24L41.5,168.28L41.85,170.04L41.86,168.92L42,165.48L42.55,182.29L42.61,171.52L42.62,172.37L42.69,167.97L43.15,183.87L43.37,174.8L43.38,175.74L43.83,184.66L44.12,165.7L44.13,171.77L44.14,172.63L44.37,162.72L44.67,181.65L44.89,167.6L44.9,168.24L44.96,161.44L45.34,186.39L45.65,174.5L45.66,174.16L45.84,182.95L46.39,168.06L46.41,172.41L46.42,171.22L46.44,180.04L46.74,163.03L47.17,170.85L47.18,172.15L47.67,161.65L47.88,182.77L47.93,173.73L47.94,176.82L48.42,167.9L48.63,186.39L48.69,176.31L48.7,176.18L48.72,185.33L49.35,161.47L49.45,169.44L49.46,168.58L49.65,185.52L50.02,162.75L50.21,175.02L50.22,176.09L50.42,194.5L50.71,162.85L50.97,179.45L50.98,179.39L51.09,190.9L51.47,158.05L51.73,176.29L51.74,176.22L51.76,185.71L52.06,161.44L52.49,171.27L52.5,172.59L52.65,163.38L53.03,187.7L53.25,169.8L53.26,168.71L53.63,190.32L53.93,166.17L54.01,169.18L54.02,169.02L54.22,188.7L54.6,163.1L54.77,168.45L54.78,169.4L54.98,186.44L55.19,167.91L55.53,173.45L55.54,174.28L55.61,168.71L56.07,186.93L56.29,170.26L56.3,170.3L56.46,164.49L56.83,185.87L57.05,167.03L57.06,167.53L57.13,162.23L57.68,182.4L57.81,166.4L57.82,165.9L57.9,165.6L58.27,184.51L58.57,167.21L58.58,169.47L58.69,183.43L59.16,163.6L59.33,166.77L59.34,166.74L59.54,181L59.75,164.46L60.09,166.69L60.1,168.86L60.69,166.53L60.81,182.02L60.85,168.81L60.86,169.45L60.9,182.69L61.61,164.3L61.61,164.73L61.62,165.07L62.08,180.48L62.29,164.5L62.37,164.89L62.38,165.56L62.38,164.98L63.09,184.19L63.13,170.29L63.14,170.59L63.17,185.2L63.56,166.05L63.89,168.96L63.9,167.38L63.94,181.77L64.32,161.12L64.64,170.41L64.65,169L64.99,162.2L65.37,182.22L65.4,172.37L65.41,171.73L65.59,165.85L65.88,184.12L66.16,173.2L66.17,171.59L66.22,181.68L66.86,161.32L66.92,166.24L66.93,165.35L66.94,161.82L67.66,179.22L67.68,171.27L67.69,170.67L67.7,165.72L68,183.22L68.44,174.9L68.45,173.4L68.59,183.82L69.14,163.1L69.2,169.44L69.21,169.39L69.27,178.82L69.65,162.38L69.96,170.42L69.97,171.13L70.24,164.57L70.54,182.47L70.72,174.86L70.73,174L70.75,167.9L71.13,185.21L71.48,174.92L71.49,174.16L71.89,184.09L72.18,167.29L72.24,174.8L72.25,173.27L72.27,166.93L72.99,183.31L73,177.92L73.01,177.52L73.03,170.32L73.24,185.98L73.76,177.58L73.77,176.38L73.83,183.79L74.3,166.05L74.52,177.37L74.53,175.19L74.72,167.03L75.1,182.17L75.28,176.85L75.29,176.12L75.31,169.41L75.6,184.55L76.04,179.4L76.05,177.69L76.29,185.13L76.66,167.35L76.8,180.19L76.81,179.05L76.96,184.82L77.34,168.51L77.56,178L77.57,178.8L77.64,183.71L78.01,169.52L78.32,178.24L78.33,178.48L78.6,168.58L78.82,181.59L79.08,176.62L79.09,176.19L79.28,166.71L79.66,179.85L79.84,177.04L79.85,176.37L80.05,169.21L80.51,181.04L80.6,178.33L80.61,178.01L81.01,181.71L81.32,170.9L81.36,176.37L81.37,175.5L81.77,181.45L82.07,168.28L82.12,174.48L82.13,175.12L82.67,168.48L82.87,180.18L82.88,179.28L82.89,178.54L83.25,170.83L83.64,184.71L83.64,182.41L83.65,183.64L84.35,166.8L84.4,173.01L84.41,172.76L84.52,164.38L84.98,177.04L85.16,173.54L85.17,171.54L85.19,167.1L85.58,181.94L85.92,171.95L85.93,172.57L86.17,181.78L86.56,166.48L86.68,171.04L86.69,172.18L86.93,179.63L87.31,165.72L87.44,174.92L87.45,174.81L87.61,178.12L87.91,168.97L88.2,176.26L88.21,176.11L88.28,178.17L88.66,170.64L88.96,172.87L88.97,173.65L89.46,175.06L89.59,170.33L89.72,171.77L89.73,172.22L89.83,168.58L90.48,175.25L90.48,173.85L90.49,175.08L90.74,178.54L91.23,172.29L91.24,175.05L91.25,174.53L91.44,177.59L91.8,168.43L92,170.63L92.01,170.83L92.3,175.03L92.59,168.66L92.76,172.59L92.77,171.26L93.05,177.06L93.52,172.63L93.53,172.28L93.65,175.75L94.27,169.9L94.28,170.31L94.29,171.51L94.52,167.09L94.91,174.65L95.04,169.61L95.05,169.52L95.11,168.06L95.58,178.58L95.8,172.15L95.81,171.84L96.1,179.87L96.47,168.77L96.56,169.81L96.57,171.05L96.85,177.57L97.14,166.86L97.32,169.98L97.33,170.37L97.82,168.97L98.03,178.51L98.08,173.82L98.09,172.64L98.2,180.23L98.5,170.45L98.84,171.92L98.85,171.28L98.88,178.61L99.09,169.22L99.6,170.29L99.61,170.37L99.9,176.25L100.11,167.27L100.36,170.46L100.37,169.07L100.57,178.37L100.79,168.64L101.12,171.38L101.13,171.92L101.24,179.42L101.62,168.25L101.88,170.27L101.89,171.56L102.31,167.37L102.6,179.23L102.64,171.21L102.65,171.48L102.72,171.08L103.36,182.65L103.4,174.93L103.41,175.06L103.45,182.88L104.16,170.13L104.16,170.83L104.17,172.62L104.58,168.48L104.88,178.9L104.92,170.86L104.93,171.87L105.26,169.33L105.56,179.89L105.68,172.41L105.69,170.94L105.98,181.08L106.27,170.25L106.44,171.53L106.45,170.67L106.74,180.24L106.95,169.6L107.2,170.52L107.21,170.74L107.25,179.55L107.54,168.42L107.96,170.23L107.97,171.39L108.18,181.58L108.39,170.09L108.72,172.97L108.73,172.46L109.02,181.23L109.4,167.99L109.48,168.26L109.49,167.97L109.49,167.76L110.04,178.87L110.24,169.97L110.25,170.33L110.25,169.53L110.71,181.33L111,170.91L111.01,170.81L111.3,179.66L111.68,167.48L111.76,168.02L111.77,169.21L111.97,178.18L112.36,167.94L112.52,169.92L112.53,170.22L112.53,169.67L113.25,180.94L113.28,173.49L113.29,173.71L113.5,182.24L113.71,171.8L114.04,172.05L114.05,172.39L114.09,179.9L114.72,168.11L114.8,169.27L114.81,167.94L114.9,167.46L115.53,177.97L115.56,170.34L115.57,170.13L116.11,180.16L116.32,170.7L116.33,172.15L116.46,179.12L116.76,169.22L117.08,169.26L117.09,170.04L117.21,177.22L117.34,169.06L117.84,171.5L117.85,170.61L117.85,170.01L118.23,179.08L118.6,173.74L118.61,173.6L118.65,178.49L119.29,170.07L119.36,170.62L119.37,169.65L119.45,168.47L120.01,176.07L120.12,171.8L120.13,171.6L120.14,171.05L120.69,178.98L120.88,174.46L120.89,175.2L121.11,178.47L121.64,172.73L121.64,173.4L121.65,173.14L121.76,176.61L122.33,169.6L122.4,171.05L122.41,171.47L122.41,169.41L123.04,176.04L123.16,174.07L123.17,173.73L123.56,177.93L123.92,171.91L123.92,172.14L123.93,173.72L124.15,177.11L124.6,171.14L124.68,173.03L124.69,171.8L124.85,171.71L125.41,176.08L125.44,175.24L125.45,174L125.67,177.37L126.2,175.64L126.21,175.76L126.26,178.57L126.86,171.35L126.96,172.5L126.97,173.79L126.98,174.74L127.65,171.1L127.72,172.49L127.73,171.54L128.26,177.79L128.48,176.05L128.49,176.38L128.67,178.41L129.23,171.53L129.24,173.49L129.25,174.13L129.26,174.88L129.9,170.43L130,174.31L130.01,174.34L130.07,171.62L130.69,177.31L130.76,175.71L130.77,176.93L130.77,177.6L131.49,171.63L131.52,173.78L131.53,174.92L131.53,175.89L132.17,170.38L132.28,172.7L132.29,172.48L132.51,169.71L132.98,176.2L133.04,174.41L133.05,174.88L133.7,172.81L133.75,179.13L133.8,175.5L133.81,175.54L133.91,178.3L134.54,169.17L134.56,171.92L134.57,173.41L134.8,169.65L134.92,177.37L135.32,174.7L135.33,174.96L135.68,180.13L135.81,171.14L136.08,174.37L136.09,176.32L136.35,179.19L136.57,169.81L136.84,173.88L136.85,173.95L137.29,177.22L137.42,169.06L137.6,176L137.61,175L137.67,169.93L138.3,178.97L138.36,175.62L138.37,176.14L138.64,180.55L138.85,171.78L139.12,174.45L139.13,175.64L139.23,178.76L139.69,169.95L139.88,175.41L139.89,174.65L140.12,170.09L140.32,178.6L140.64,176.8L140.65,175.42L140.67,179.81L141.38,171.31L141.4,175.03L141.41,175.51L141.42,179.37L142.15,168.97L142.16,173.26L142.17,174.61L142.74,168.91L142.86,179.06L142.92,174.49L142.93,174.38L142.99,170.34L143.62,180.98L143.68,176.58L143.69,176.43L143.79,181.16L144.43,169.42L144.44,173.18L144.45,173.77L144.76,168.19L145.14,178.52L145.2,173.92L145.21,173.55L145.26,170.03L145.82,180.41L145.96,175.66L145.97,174.88L146.32,180.52L146.71,170.49L146.72,173.51L146.73,174.57L146.75,179.09L147.46,169.39L147.48,174.3L147.49,174.77L147.72,168.97L147.84,179.79L148.24,173.58L148.25,173.99L148.31,169.76L148.86,180.09L149,174.36L149.01,174.3L149.37,179.82L149.66,168.88L149.76,172.54L149.77,172.29L150.25,168.21L150.38,178.54L150.52,173.07L150.53,173.81L150.89,180.54L151.18,170.54L151.28,174.71L151.29,175.23L151.39,179.58L151.95,168.89L152.04,172.3L152.05,173.09L152.45,168.69L152.75,178.87L152.8,173.84L152.81,173.89L152.87,170.22L153.42,179.67L153.56,173.07L153.57,173.54L153.89,169.29L154.01,179.6L154.32,172.39L154.33,172.47L154.65,168.74L154.69,177.78L155.08,172.53L155.09,173.32L155.49,168.17L155.79,177.83L155.84,172.71L155.85,173.09L155.99,170.14L156.3,179.72L156.6,174.21L156.61,174.68L156.64,178.02L157.01,169.16L157.36,171.22L157.37,170.89L157.52,168.45L158.07,178.22L158.12,173.99L158.13,172.73L158.19,170.15L158.57,180.43L158.88,174.05L158.89,174.83L158.99,179.3L159.63,168.69L159.64,173.63L159.65,172.74L159.89,169.21L160.01,177.95L160.4,171.93L160.41,172.78L160.77,178.25L160.81,170.41L161.16,172.9L161.17,174.33L161.44,177.95L161.49,170.64L161.92,173.83L161.93,173.83L161.95,176.88L162.66,169.04L162.68,173.78L162.69,172.58L162.92,169.23L163.37,176.66L163.44,174.27L163.45,175.08L163.51,171.52L163.81,179.21L164.2,176.16L164.21,176.85L164.22,179.18L164.95,168.64L164.96,171.18L164.97,170.81L165.03,169.3L165.66,178.82L165.72,176.33L165.73,176.16L165.83,179.02L166.38,171.17L166.48,174.02L166.49,173.01L166.76,176.26L167.15,169.74L167.24,173.51L167.25,173.58L167.31,170.76L167.69,176.75L168,173.5L168.01,174.12L168.23,172.22L168.61,177.75L168.76,175.73L168.77,177.16L168.78,178.38L169.5,171.43L169.52,175.13L169.53,175.22L169.53,176.55L170.17,168.39L170.28,174.19L170.29,172.56L170.34,169.36L170.97,178.32L171.04,177.29L171.05,177.62L171.22,178.64L171.77,172.34L171.8,175.55L171.81,175L171.82,176.09L172.38,169.87L172.56,173.48L172.57,173.31L172.62,170.79L173.25,177.61L173.32,176.34L173.33,176.56L173.34,177.59L173.53,172.53L174.08,176.27L174.09,175.65L174.31,171.02L174.6,177.72L174.84,175.49L174.85,175.89L174.85,176.8L175.57,169.89L175.6,174.16L175.61,174.58L175.65,170.28L176.2,178.39L176.36,176.91L176.37,178.41L176.37,178.42L177.1,170.51L177.12,174.43L177.13,174.82L177.51,168.21L177.81,176.21L177.88,176.12L177.89,175.45L177.93,170.86L178.57,178.68L178.64,177.4L178.65,177.49L178.83,178.5L179.37,170.91L179.4,175.61L179.41,176.46L179.87,170.58L180.16,177.04L180.17,176.42L180.59,178.36L180.72,170.89L180.92,177.19L180.93,177.08L181.06,171.51L181.52,178.19L181.68,177.02L181.69,178.59L182.03,178.61L182.41,170.35L182.44,175.94L182.45,176.17L182.7,176.75L182.92,170.01L183.2,175.51L183.21,175.84L183.25,171.3L183.81,180.74L183.96,178.66L183.97,178.41L183.97,179.38L184.6,169.17L184.72,174.89L184.73,174.87L184.95,167.82L185.32,178.14L185.48,176.73L185.49,176.69L185.62,170.45L185.91,179.84L186.24,178.07L186.25,178.55L186.59,179.78L186.97,169.48L187,175.65L187.01,175.73L187.18,177.58L187.47,169.15L187.76,176.85L187.77,176.58L188.15,169.1L188.45,178.07L188.52,177.26L188.53,177.56L188.75,172L189.04,180.56L189.28,177.48L189.29,178.1L189.29,178.58L189.93,167.95L190.04,175.24L190.05,175L190.18,168.81L190.73,179.01L190.8,177.64L190.81,177.67L191.06,180.38L191.52,171.24L191.56,176.77L191.57,176.02L192.12,169.85L192.25,177.83L192.32,176.55L192.33,176.39L192.55,170.1L193.01,178.56L193.08,178.21L193.09,178.83L193.13,171.7L193.69,180.27L193.84,178.91L193.85,179.61L193.94,180.24L194.23,171.33L194.6,177.05L194.61,176.86L194.61,177.81L195.34,168.61L195.36,172.32L195.37,173.11L195.42,167.82L195.8,178.16L196.12,177.69L196.13,177.52L196.64,179.76L196.85,170.97L196.88,176.26L196.89,174.99L197.23,177.82L197.53,169.72L197.64,174.9L197.65,175.57L197.7,171.67L198.24,179.32L198.4,177.75L198.41,178.11L198.49,179.67L199.13,172.82L199.16,178.71L199.17,177.46L199.17,178.99L199.89,167.33L199.92,173.55L199.93,172.24L199.96,167.49L200.6,175.95L200.68,173.49L200.69,175.01L200.73,170.55L201.36,180.37L201.44,179.04L201.45,180.38L201.46,180.75L202.18,169.81L202.2,173.69L202.21,173.67L202.68,168.43L202.89,175.71L202.96,173.73L202.97,174.63L203.01,170.94L203.47,179.31L203.72,178.4L203.73,177.47L203.73,178.63L204.45,169.83L204.48,174.7L204.49,173.94L204.71,169.25L205.16,175.76L205.24,174.2L205.25,174.71L205.46,170.08L205.83,178.7L206,176.7L206.01,178.06L206.01,178.55L206.13,171.8L206.76,176.31L206.77,176.39L206.78,177.21L207.48,169.15L207.52,172.76L207.53,172.68L207.57,169.52L208.2,176.04L208.28,175.21L208.29,175.45L208.41,171.13L208.96,177.71L209.04,176.92L209.05,176.67L209.05,177.2L209.76,169.78L209.8,172.46L209.81,173.47L209.85,168.77L210.31,175.61L210.56,174.81L210.57,174L210.6,169.61L210.99,178.01L211.32,176.39L211.33,176.84L211.67,177.77L211.86,170.11L212.08,175.16L212.09,173.6L212.62,169.52L212.76,175.62L212.84,174.1L212.85,174.76L213.05,170.12L213.6,177.32L213.6,176.35L213.61,177.27L213.86,178.58L214.32,172.02L214.36,175.77L214.37,175.65L214.8,176.09L214.91,170.08L215.12,175.31L215.13,174.78L215.25,170.71L215.88,178.57L215.88,177.4L215.89,178.04L216.4,179.81L216.6,171.98L216.64,175.74L216.65,176.04L216.72,176.56L216.94,170.31L217.4,175.35L217.41,174.61L217.44,171.03L218.16,177.39L218.16,177L218.17,175.29L218.2,171.41L218.5,178.53L218.92,177.39L218.93,177.91L219.46,171.17L219.67,178.15L219.68,177.64L219.69,176.37L219.69,177.42L220.4,169.95L220.44,174.89L220.45,175.25L220.82,169.58L221.2,177.95L221.2,177L221.21,177.36L221.7,178.75L221.92,172.21L221.96,176.75L221.97,175.43L222.04,176.52L222.43,169.08L222.72,175.13L222.73,174.84L222.77,170.66L223.39,177.98L223.48,176.04L223.49,177.27L223.82,178.16L224.21,171.9L224.24,176.14L224.25,175.72L224.33,176.06L224.62,170.12L225,175.01L225.01,175.37L225.12,171.12L225.43,177.49L225.76,176.75L225.77,175.71L225.97,171.46L226.35,178.18L226.52,176.74L226.53,177L226.93,178.42L227.07,171.03L227.28,175.4L227.29,175.28L227.54,176.02L228,169.07L228.04,174.44L228.05,174.48L228.09,168.85L228.55,180.83L228.8,178.92L228.81,178.85L229.06,179.65L229.51,170.71L229.56,173.33L229.57,172.91L229.77,168.94L230.15,176.05L230.2,172.61" style="vector-effect: non-scaling-stroke; fill: none; stroke: rgb(0, 154, 250); stroke-opacity: 1; stroke-width: 1px; opacity: 1;"/></g><g class="points"/><g class="text"/></g></g></g><g class="overplot"/><path class="xlines-above crisp" d="M93.67220764071158,420.9322506561679H331.57223680373284" style="fill: none; stroke-width: 1px; stroke: rgb(0, 0, 0); stroke-opacity: 1;"/><path class="ylines-above crisp" d="M94.17220764071158,63.83858267716535V420.4322506561679" style="fill: none; stroke-width: 1px; stroke: rgb(0, 0, 0); stroke-opacity: 1;"/><g class="overlines-above"/><g class="xaxislayer-above"><path class="xtick ticks crisp" d="M0,420.4322506561679v-5" transform="translate(101.37220764071158,0)" style="stroke: rgb(0, 0, 0); stroke-opacity: 1; stroke-width: 1px;"/><path class="xtick ticks crisp" d="M0,420.4322506561679v-5" transform="translate(175.87220764071157,0)" style="stroke: rgb(0, 0, 0); stroke-opacity: 1; stroke-width: 1px;"/><path class="xtick ticks crisp" d="M0,420.4322506561679v-5" transform="translate(250.37220764071157,0)" style="stroke: rgb(0, 0, 0); stroke-opacity: 1; stroke-width: 1px;"/><path class="xtick ticks crisp" d="M0,420.4322506561679v-5" transform="translate(324.87220764071157,0)" style="stroke: rgb(0, 0, 0); stroke-opacity: 1; stroke-width: 1px;"/><g class="xtick"><text text-anchor="middle" x="0" y="434.6322506561679" transform="translate(101.37220764071158,0)" style="font-family: sans-serif; font-size: 11px; fill: rgb(0, 0, 0); fill-opacity: 1; white-space: pre;">0</text></g><g class="xtick"><text text-anchor="middle" x="0" y="434.6322506561679" transform="translate(175.87220764071157,0)" style="font-family: sans-serif; font-size: 11px; fill: rgb(0, 0, 0); fill-opacity: 1; white-space: pre;">1</text></g><g class="xtick"><text text-anchor="middle" x="0" y="434.6322506561679" transform="translate(250.37220764071157,0)" style="font-family: sans-serif; font-size: 11px; fill: rgb(0, 0, 0); fill-opacity: 1; white-space: pre;">2</text></g><g class="xtick"><text text-anchor="middle" x="0" y="434.6322506561679" transform="translate(324.87220764071157,0)" style="font-family: sans-serif; font-size: 11px; fill: rgb(0, 0, 0); fill-opacity: 1; white-space: pre;">3</text></g></g><g class="yaxislayer-above"><path class="ytick ticks crisp" d="M94.67220764071158,0h5" transform="translate(0,391.38858267716535)" style="stroke: rgb(0, 0, 0); stroke-opacity: 1; stroke-width: 1px;"/><path class="ytick ticks crisp" d="M94.67220764071158,0h5" transform="translate(0,340.2985826771653)" style="stroke: rgb(0, 0, 0); stroke-opacity: 1; stroke-width: 1px;"/><path class="ytick ticks crisp" d="M94.67220764071158,0h5" transform="translate(0,289.21858267716533)" style="stroke: rgb(0, 0, 0); stroke-opacity: 1; stroke-width: 1px;"/><path class="ytick ticks crisp" d="M94.67220764071158,0h5" transform="translate(0,238.13858267716535)" style="stroke: rgb(0, 0, 0); stroke-opacity: 1; stroke-width: 1px;"/><path class="ytick ticks crisp" d="M94.67220764071158,0h5" transform="translate(0,187.05858267716536)" style="stroke: rgb(0, 0, 0); stroke-opacity: 1; stroke-width: 1px;"/><path class="ytick ticks crisp" d="M94.67220764071158,0h5" transform="translate(0,135.97858267716535)" style="stroke: rgb(0, 0, 0); stroke-opacity: 1; stroke-width: 1px;"/><path class="ytick ticks crisp" d="M94.67220764071158,0h5" transform="translate(0,84.89858267716535)" style="stroke: rgb(0, 0, 0); stroke-opacity: 1; stroke-width: 1px;"/><g class="ytick"><text text-anchor="end" x="91.47220764071157" y="3.8499999999999996" transform="translate(0,391.38858267716535)" style="font-family: sans-serif; font-size: 11px; fill: rgb(0, 0, 0); fill-opacity: 1; white-space: pre;">-0.15</text></g><g class="ytick"><text text-anchor="end" x="91.47220764071157" y="3.8499999999999996" transform="translate(0,340.2985826771653)" style="font-family: sans-serif; font-size: 11px; fill: rgb(0, 0, 0); fill-opacity: 1; white-space: pre;">-0.10</text></g><g class="ytick"><text text-anchor="end" x="91.47220764071157" y="3.8499999999999996" transform="translate(0,289.21858267716533)" style="font-family: sans-serif; font-size: 11px; fill: rgb(0, 0, 0); fill-opacity: 1; white-space: pre;">-0.05</text></g><g class="ytick"><text text-anchor="end" x="91.47220764071157" y="3.8499999999999996" transform="translate(0,238.13858267716535)" style="font-family: sans-serif; font-size: 11px; fill: rgb(0, 0, 0); fill-opacity: 1; white-space: pre;">0.00</text></g><g class="ytick"><text text-anchor="end" x="91.47220764071157" y="3.8499999999999996" transform="translate(0,187.05858267716536)" style="font-family: sans-serif; font-size: 11px; fill: rgb(0, 0, 0); fill-opacity: 1; white-space: pre;">0.05</text></g><g class="ytick"><text text-anchor="end" x="91.47220764071157" y="3.8499999999999996" transform="translate(0,135.97858267716535)" style="font-family: sans-serif; font-size: 11px; fill: rgb(0, 0, 0); fill-opacity: 1; white-space: pre;">0.10</text></g><g class="ytick"><text text-anchor="end" x="91.47220764071157" y="3.8499999999999996" transform="translate(0,84.89858267716535)" style="font-family: sans-serif; font-size: 11px; fill: rgb(0, 0, 0); fill-opacity: 1; white-space: pre;">0.15</text></g></g><g class="overaxes-above"/></g><g class="subplot x2y2"><g class="layer-subplot"><g class="shapelayer"/><g class="imagelayer"/></g><g class="gridlayer"><g class="x2"><path class="x2grid crisp" transform="translate(370.1548002333042,0)" d="M0,63.83858267716535v356.5936679790026" style="stroke: rgb(0, 0, 0); stroke-opacity: 0.1; stroke-width: 0.5px;"/><path class="x2grid crisp" transform="translate(414.85480023330416,0)" d="M0,63.83858267716535v356.5936679790026" style="stroke: rgb(0, 0, 0); stroke-opacity: 0.1; stroke-width: 0.5px;"/><path class="x2grid crisp" transform="translate(459.55480023330415,0)" d="M0,63.83858267716535v356.5936679790026" style="stroke: rgb(0, 0, 0); stroke-opacity: 0.1; stroke-width: 0.5px;"/><path class="x2grid crisp" transform="translate(504.2548002333042,0)" d="M0,63.83858267716535v356.5936679790026" style="stroke: rgb(0, 0, 0); stroke-opacity: 0.1; stroke-width: 0.5px;"/><path class="x2grid crisp" transform="translate(548.9548002333042,0)" d="M0,63.83858267716535v356.5936679790026" style="stroke: rgb(0, 0, 0); stroke-opacity: 0.1; stroke-width: 0.5px;"/><path class="x2grid crisp" transform="translate(593.6648002333042,0)" d="M0,63.83858267716535v356.5936679790026" style="stroke: rgb(0, 0, 0); stroke-opacity: 0.1; stroke-width: 0.5px;"/></g><g class="y2"><path class="y2grid crisp" transform="translate(0,410.33858267716533)" d="M363.4648002333042,0h236.90002916302123" style="stroke: rgb(0, 0, 0); stroke-opacity: 0.1; stroke-width: 0.5px;"/><path class="y2grid crisp" transform="translate(0,332.2385826771653)" d="M363.4648002333042,0h236.90002916302123" style="stroke: rgb(0, 0, 0); stroke-opacity: 0.1; stroke-width: 0.5px;"/><path class="y2grid crisp" transform="translate(0,254.13858267716535)" d="M363.4648002333042,0h236.90002916302123" style="stroke: rgb(0, 0, 0); stroke-opacity: 0.1; stroke-width: 0.5px;"/><path class="y2grid crisp" transform="translate(0,176.04858267716534)" d="M363.4648002333042,0h236.90002916302123" style="stroke: rgb(0, 0, 0); stroke-opacity: 0.1; stroke-width: 0.5px;"/><path class="y2grid crisp" transform="translate(0,97.94858267716535)" d="M363.4648002333042,0h236.90002916302123" style="stroke: rgb(0, 0, 0); stroke-opacity: 0.1; stroke-width: 0.5px;"/></g></g><g class="zerolinelayer"/><path class="xlines-below"/><path class="ylines-below"/><g class="overlines-below"/><g class="xaxislayer-below"/><g class="yaxislayer-below"/><g class="overaxes-below"/><g class="plot" transform="translate(363.4648002333042,63.83858267716535)" clip-path="url('#clip9831efx2y2plot')"><g class="scatterlayer mlayer"><g class="trace scatter trace8a1eb3" style="stroke-miterlimit: 2; opacity: 1;"><g class="fills"/><g class="errorbars"/><g class="lines"><path class="js-line" d="M6.7,340.75L6.79,320.34L7.38,344.8L7.46,329.44L7.48,332.92L7.55,345.15L8.02,318.9L8.03,246.34L8.4,345.21L8.79,339.68L8.81,340.51L8.84,343.07L9.01,314.58L9.4,337.29L9.42,339.86L9.7,346.19L10.06,335.91L10.1,338.8L10.12,335.49L10.49,341.89L10.91,287.63L10.92,283.05L11.09,261.47L11.58,341.19L11.68,306.21L11.7,290.2L11.8,220.52L12.19,345.35L12.43,314.28L12.44,312.33L12.5,307.81L12.6,326.36L12.62,335.74L12.69,341.41L13.13,320.37L13.35,329.56L13.36,330.37L13.38,328.81L13.84,345.09L13.93,343.05L13.95,343.17L14.04,346.01L14.26,337.94L14.71,344.19L14.72,342.64L14.75,340.55L14.82,346.22L15.47,341.97L15.48,342.68L15.82,344.15L15.91,336.28L15.93,334.59L16.57,315.71L16.76,326.38L16.78,327.8L17.36,341.98L17.55,334.65L17.57,334.67L18.07,346.45L18.33,337.18L18.34,335.09L18.71,339.65L18.94,331.34L19,335.25L19.01,336.78L19.04,335.84L19.46,339.77L19.47,341.05L19.55,343.42L19.68,332.56L19.7,330.19L19.88,313.91L20.41,340.33L20.43,340.97L20.75,346.01L21.17,342.09L21.19,341.76L21.46,339.55L21.77,343.58L21.87,343.16L21.89,343.79L21.9,342.94L22.45,346.31L22.63,344.53L22.65,344.27L23.12,346.22L23.39,342.99L23.41,343.06L23.42,343.66L23.5,343.23L23.91,345.05L24.17,344.09L24.18,343.57L24.69,346.13L24.96,344.24L24.97,344.15L25.27,345.15L25.7,341.97L25.81,342.91L25.82,342.89L26.15,346.16L26.51,342.79L26.58,343.28L26.6,343.11L26.67,342.07L27.25,344.39L27.31,343.59L27.33,344.48L27.46,345.47L27.89,342.34L28.06,344.03L28.07,343.59L28.25,345.14L28.49,341.98L28.77,344.32L28.79,344.87L28.86,343.9L29.23,346.19L29.53,345.13L29.55,344.67L30.1,346.12L30.31,344.95L30.32,344.6L30.92,344.22L31.11,345.92L31.12,345.91L31.14,345.71L31.35,343.26L31.93,344.95L31.94,345.2L32.3,346.31L32.6,344.89L32.64,345.07L32.66,344.79L32.81,344.6L33.43,346.06L33.45,345.67L33.73,344.43L34.12,346.36L34.24,346.02L34.25,345.97L34.28,346.45L34.91,344.66L34.92,344.39L35.03,343.55L35.62,345.93L35.7,345.11L35.71,344.8L35.8,346.1L36.07,344.28L36.46,345.26L36.47,344.76L37.04,344.21L37.13,345.33L37.16,345L37.17,345.31L37.34,344.81L37.61,345.92L37.92,345.41L37.93,345.2L38.19,344.11L38.72,346.36L38.75,346.35L38.77,345.89L38.78,346.15L39.27,344.8L39.5,345.73L39.51,345.3L39.8,346.46L40.12,344.98L40.24,345.19L40.26,344.8L40.32,344.7L40.72,346.43L41.03,346.24L41.05,346.35L41.15,346.48L41.66,344.05L41.84,344.85L41.85,344.82L42.22,346.44L42.61,345.13L42.63,344.85L42.67,344.89L42.87,342.38L43.48,343.19L43.49,343.66L43.6,344.34L43.92,341.75L44.18,343.34L44.19,342.71L44.59,343.84L44.76,339.06L44.77,338.3L45.86,295.98L45.88,288.43L46.14,10.09L46.25,265.69L46.26,278.66L46.46,339.78L47.08,332.39L47.1,332.77L47.11,332.15L47.69,341.76L47.71,341.8L47.72,340.6L48.3,344.91L48.42,344.33L48.44,344.54L48.84,343.8L48.99,346.24L49.18,344.45L49.2,344.58L49.29,345.44L49.76,344L49.94,344.51L49.96,343.8L50.26,345.71L50.39,343.74L50.72,345.6L50.73,345.74L50.81,345.45L51.15,346.26L51.3,345.89L51.31,344.84L52.01,346.36L52.07,345.85L52.09,345.38L52.42,346.4L52.85,346.07L52.86,346.08L53.07,346.42L53.38,345.41L53.53,345.72L53.55,346.41L54.1,344.74L54.29,345.72L54.31,346.27L54.4,344.94L55.07,345.8L55.08,346.03L55.43,346.36L55.87,345.14L55.89,345.69L56.29,346.45L56.63,345.36L56.65,345.74L56.74,345.33L57.08,346.35L57.27,345.97L57.29,346.03L57.45,346.28L57.93,345.33L58.05,345.75L58.06,345.88L58.49,345.51L58.67,346.41L58.79,345.99L58.81,345.93L59.12,346.49L59.45,345.68L59.55,345.7L59.57,345.74L59.7,345.7L60.18,346.32L60.31,345.9L60.33,345.64L60.66,346.27L61.07,346.09L61.09,346.05L61.45,345.68L61.76,346.4L61.88,346.25L61.89,346.03L62.23,346.43L62.56,345.85L62.65,345.91L62.67,345.98L62.73,345.79L63.26,346.44L63.43,346.29L63.44,346.44L63.47,346.45L64.11,346.04L64.2,346.09L64.22,346.11L64.37,345.81L64.69,346.43L64.96,346.04L64.98,345.84L65.65,346.46L65.77,346.3L65.78,346.38L65.89,346.46L66.54,346.19L66.57,346.23L66.59,346.28L66.76,346.04L67.43,346.39L67.45,346.25L67.46,346.14L67.7,345.94L68.03,346.42L68.22,346.31L68.24,346.08L68.36,345.94L68.88,346.44L68.98,346.41L69,346.36L69.68,346.06L69.79,346.39L69.8,346.4L70.55,345.95L70.64,346.17L70.65,346.32L71.04,346.47L71.4,345.77L71.44,345.87L71.46,345.84L71.8,346.49L72.25,346.2L72.26,346.06L72.74,345.08L72.95,345.65L72.96,346.13L73.01,345.69L73.66,346.46L73.69,346.35L73.71,346.33L74.24,345.92L74.45,346.29L74.47,346.35L74.51,346.46L74.82,345.86L75.21,346.28L75.23,346.41L75.41,346.46L75.75,345.49L76.03,345.95L76.05,345.96L76.42,346.22L76.7,345.58L76.78,346.05L76.79,345.76L76.87,345.75L77.12,346.42L77.58,346.26L77.6,346.04L77.79,345.8L77.95,346.36L78.25,346.26L78.27,345.63L78.49,345.49L79,346.19L79.04,346.17L79.06,346.15L79.56,346.41L79.82,346.15L79.83,346.1L80.13,346.02L80.61,346.46L80.62,346.31L81.81,345.93L81.87,346.23L81.89,346.36L82.1,346.41L82.47,345.95L82.65,346.21L82.66,346.39L82.77,346.43L83.47,345.5L83.6,345.72L83.62,346.03L83.76,346.27L84.05,345.24L84.36,345.51L84.38,345.87L84.9,344.64L85.03,345.93L85.14,345.57L85.15,345.56L85.85,334.32L85.95,343.98L85.97,345.29L86.04,343.76L86.58,346.38L86.71,345.7L86.73,345.63L86.79,345.58L87.33,346.42L87.5,346.36L87.52,345.99L87.77,345.81L88.11,346.3L88.26,346.18L88.28,345.93L88.38,345.91L88.59,346.38L89.04,346.16L89.05,346.24L89.38,346.02L89.81,346.45L89.83,346.31L89.84,346.15L90.66,346.42L90.68,346.34L90.69,346.24L92.11,346.39L92.12,346.29L92.85,346.45L92.91,346.34L92.93,346.14L93.15,345.99L93.75,346.3L93.79,346.24L93.81,346.18L94.02,346.06L94.66,346.44L94.67,346.15L95.04,346.07L95.37,346.47L95.42,346.28L95.43,346.12L95.89,346.01L96.04,346.45L96.19,346.31L96.21,346.35L96.29,346.45L96.95,346.05L97.05,346.24L97.07,346.32L97.89,346.24L97.93,346.35L97.95,346.44L98.26,346.49L98.56,346.05L98.69,346.26L98.71,346.45L99.54,346.22L99.63,346.37L99.65,346.44L100.54,346.24L100.59,346.32L100.6,346.44L100.65,346.46L100.97,346.09L101.36,346.33L101.38,346.38L101.57,346.49L102.02,346.14L102.16,346.3L102.18,346.43L103.04,346.2L103.1,346.28L103.12,346.39L103.46,345.91L103.82,346.44L103.86,346.37L103.88,346.37L103.97,346.49L104.37,346.12L104.62,346.47L104.64,346.4L105.23,346.17L105.41,346.34L105.43,346.44L106.23,346.21L106.25,346.38L109.14,346.31L109.15,346.14L109.17,346L109.72,345.98L109.82,346.44L109.91,346.32L109.93,346.21L110,346.08L110.72,346.48L110.73,346.45L110.75,346.3L110.97,346.47L111.46,346.2L111.51,346.35L111.52,346.48L112.09,346.12L112.28,346.3L112.3,346.43L112.36,346.49L112.83,346.19L113.07,346.36L113.09,346.36L115.6,345.9L115.68,346.3L115.69,346.44L116.16,346.11L116.45,346.23L116.47,346.28L117.12,346.5L117.27,346.41L117.29,346.27L118.75,346.47L118.78,346.42L118.79,346.35L119.87,346.43L119.91,346.36L119.93,346.29L120.07,346.26L120.48,346.49L120.68,346.38L120.7,346.29L120.85,346.2L121.56,346.44L121.58,346.31L122.68,346.46L122.7,346.31L123.14,346.48L123.37,346.01L123.38,346.06L123.4,346L123.75,346.29L123.98,345.77L124.16,346.09L124.17,345.96L124.22,346.16L124.6,345.52L124.86,345.63L124.87,345.48L125.72,341.53L125.74,340.91L125.88,322.03L126.41,345.2L126.42,345.2L126.44,345.07L126.47,344.92L126.9,346.25L126.97,346.17L126.99,346.2L127.2,345.97L127.67,346.44L127.73,346.35L127.75,346.44L127.93,346.15L128.03,346.49L128.49,346.35L128.51,346.33L129.64,346.42L129.65,346.31L130.38,346.46L130.49,346.4L130.5,346.29L131.26,346.46L131.32,346.42L131.34,346.37L133.25,346.38L133.26,346.26L133.27,346.24L133.6,346.2L133.92,346.46L134.03,346.34L134.05,346.41L134.14,346.45L134.78,346.14L134.84,346.33L134.85,346.36L138.74,346.41L138.76,346.48L139.46,346.28L139.55,346.4L139.56,346.48L140.78,346.27L140.84,346.4L140.86,346.43L142.88,346.3L142.9,346.36L142.91,346.4L143.91,346.28L143.93,346.41L143.94,346.47L144.73,346.32L144.75,346.44L145.95,346.3L145.97,346.38L145.98,346.42L150.87,346.44L150.89,346.33L151.62,346.49L151.66,346.35L151.68,346.24L152.33,346.49L152.44,346.42L152.45,346.4L154.6,346.43L154.61,346.31L155.31,346.47L155.39,346.43L155.4,346.41L157.8,346.41L157.81,346.48L158.65,346.27L158.69,346.45L158.71,346.48L159.66,346.39L159.68,346.41L159.69,346.43L164.49,346.39L164.5,346.48L164.52,346.5L165.2,346.3L165.26,346.44L165.28,346.4L168.5,346.42L168.51,346.48L169.38,346.28L169.39,346.35L169.41,346.42L172.22,346.41L172.24,346.45L176.8,346.38L176.81,346.48L177.56,346.39L177.6,346.43L177.62,346.47L178.26,346.31L178.43,346.42L178.45,346.45L181.04,346.49L181.06,346.36L182.67,346.46L182.68,346.37L183.84,346.47L183.86,346.39L188.19,346.44L188.21,346.26L188.76,346.48L188.95,346.4L188.97,346.45L198.64,346.43L198.65,346.35L200.38,346.47L200.4,346.36L201.31,346.48L201.35,346.43L201.37,346.43L206.88,346.19L206.89,346.49L207.65,346.16L207.67,346.24L208.08,345.95L208.1,345.76L208.11,345.56L208.32,344.86L208.55,346.18L208.64,345.9L208.65,346.21L208.77,345.92L208.84,346.33L209.37,346.42L209.38,346.44L211.41,346.35L211.42,346.46L212.33,346.39L212.35,346.48L212.36,346.3L213.09,346.44L213.11,346.45L214.28,346.39L214.3,346.47L215.73,346.4L215.74,346.47L216.79,346.41L216.8,346.47L221.93,346.36L221.94,346.46L221.96,346.47L223.09,346.28L223.18,346.42L223.19,346.5L223.82,346.35L223.95,346.45L223.97,346.43L226.22,346.41L226.23,346.5L228.09,346.36L228.12,346.47L228.14,346.48L230.2,346.49" style="vector-effect: non-scaling-stroke; fill: none; stroke: rgb(255, 165, 0); stroke-opacity: 1; stroke-width: 1px; opacity: 1;"/></g><g class="points"/><g class="text"/></g></g></g><g class="overplot"/><path class="xlines-above crisp" d="M362.4648002333042,420.9322506561679H600.3648293963254" style="fill: none; stroke-width: 1px; stroke: rgb(0, 0, 0); stroke-opacity: 1;"/><path class="ylines-above crisp" d="M362.9648002333042,63.83858267716535V420.4322506561679" style="fill: none; stroke-width: 1px; stroke: rgb(0, 0, 0); stroke-opacity: 1;"/><g class="overlines-above"/><g class="xaxislayer-above"><path class="x2tick ticks crisp" d="M0,420.4322506561679v-5" transform="translate(370.1548002333042,0)" style="stroke: rgb(0, 0, 0); stroke-opacity: 1; stroke-width: 1px;"/><path class="x2tick ticks crisp" d="M0,420.4322506561679v-5" transform="translate(414.85480023330416,0)" style="stroke: rgb(0, 0, 0); stroke-opacity: 1; stroke-width: 1px;"/><path class="x2tick ticks crisp" d="M0,420.4322506561679v-5" transform="translate(459.55480023330415,0)" style="stroke: rgb(0, 0, 0); stroke-opacity: 1; stroke-width: 1px;"/><path class="x2tick ticks crisp" d="M0,420.4322506561679v-5" transform="translate(504.2548002333042,0)" style="stroke: rgb(0, 0, 0); stroke-opacity: 1; stroke-width: 1px;"/><path class="x2tick ticks crisp" d="M0,420.4322506561679v-5" transform="translate(548.9548002333042,0)" style="stroke: rgb(0, 0, 0); stroke-opacity: 1; stroke-width: 1px;"/><path class="x2tick ticks crisp" d="M0,420.4322506561679v-5" transform="translate(593.6648002333042,0)" style="stroke: rgb(0, 0, 0); stroke-opacity: 1; stroke-width: 1px;"/><g class="x2tick"><text text-anchor="middle" x="0" y="434.6322506561679" transform="translate(370.1548002333042,0)" style="font-family: sans-serif; font-size: 11px; fill: rgb(0, 0, 0); fill-opacity: 1; white-space: pre;">0</text></g><g class="x2tick"><text text-anchor="middle" x="0" y="434.6322506561679" transform="translate(414.85480023330416,0)" style="font-family: sans-serif; font-size: 11px; fill: rgb(0, 0, 0); fill-opacity: 1; white-space: pre;">1000</text></g><g class="x2tick"><text text-anchor="middle" x="0" y="434.6322506561679" transform="translate(459.55480023330415,0)" style="font-family: sans-serif; font-size: 11px; fill: rgb(0, 0, 0); fill-opacity: 1; white-space: pre;">2000</text></g><g class="x2tick"><text text-anchor="middle" x="0" y="434.6322506561679" transform="translate(504.2548002333042,0)" style="font-family: sans-serif; font-size: 11px; fill: rgb(0, 0, 0); fill-opacity: 1; white-space: pre;">3000</text></g><g class="x2tick"><text text-anchor="middle" x="0" y="434.6322506561679" transform="translate(548.9548002333042,0)" style="font-family: sans-serif; font-size: 11px; fill: rgb(0, 0, 0); fill-opacity: 1; white-space: pre;">4000</text></g><g class="x2tick"><text text-anchor="middle" x="0" y="434.6322506561679" transform="translate(593.6648002333042,0)" style="font-family: sans-serif; font-size: 11px; fill: rgb(0, 0, 0); fill-opacity: 1; white-space: pre;">5000</text></g></g><g class="yaxislayer-above"><path class="y2tick ticks crisp" d="M363.4648002333042,0h5" transform="translate(0,410.33858267716533)" style="stroke: rgb(0, 0, 0); stroke-opacity: 1; stroke-width: 1px;"/><path class="y2tick ticks crisp" d="M363.4648002333042,0h5" transform="translate(0,332.2385826771653)" style="stroke: rgb(0, 0, 0); stroke-opacity: 1; stroke-width: 1px;"/><path class="y2tick ticks crisp" d="M363.4648002333042,0h5" transform="translate(0,254.13858267716535)" style="stroke: rgb(0, 0, 0); stroke-opacity: 1; stroke-width: 1px;"/><path class="y2tick ticks crisp" d="M363.4648002333042,0h5" transform="translate(0,176.04858267716534)" style="stroke: rgb(0, 0, 0); stroke-opacity: 1; stroke-width: 1px;"/><path class="y2tick ticks crisp" d="M363.4648002333042,0h5" transform="translate(0,97.94858267716535)" style="stroke: rgb(0, 0, 0); stroke-opacity: 1; stroke-width: 1px;"/><g class="y2tick"><text text-anchor="end" x="360.2648002333042" y="3.8499999999999996" transform="translate(0,410.33858267716533)" style="font-family: sans-serif; font-size: 11px; fill: rgb(0, 0, 0); fill-opacity: 1; white-space: pre;">0</text></g><g class="y2tick"><text text-anchor="end" x="360.2648002333042" y="3.8499999999999996" transform="translate(0,332.2385826771653)" style="font-family: sans-serif; font-size: 11px; fill: rgb(0, 0, 0); fill-opacity: 1; white-space: pre;">100</text></g><g class="y2tick"><text text-anchor="end" x="360.2648002333042" y="3.8499999999999996" transform="translate(0,254.13858267716535)" style="font-family: sans-serif; font-size: 11px; fill: rgb(0, 0, 0); fill-opacity: 1; white-space: pre;">200</text></g><g class="y2tick"><text text-anchor="end" x="360.2648002333042" y="3.8499999999999996" transform="translate(0,176.04858267716534)" style="font-family: sans-serif; font-size: 11px; fill: rgb(0, 0, 0); fill-opacity: 1; white-space: pre;">300</text></g><g class="y2tick"><text text-anchor="end" x="360.2648002333042" y="3.8499999999999996" transform="translate(0,97.94858267716535)" style="font-family: sans-serif; font-size: 11px; fill: rgb(0, 0, 0); fill-opacity: 1; white-space: pre;">400</text></g></g><g class="overaxes-above"/></g></g><g class="polarlayer"/><g class="ternarylayer"/><g class="geolayer"/><g class="funnelarealayer"/><g class="pielayer"/><g class="treemaplayer"/><g class="sunburstlayer"/><g class="glimages"/><defs id="topdefs-9831ef"><g class="clips"/><clipPath id="legend9831ef"><rect width="73" height="58" x="0" y="0"/></clipPath></defs><g class="layer-above"><g class="imagelayer"/><g class="shapelayer"/></g><g class="infolayer"><g class="legend" pointer-events="all" transform="translate(615.08,60)"><rect class="bg" shape-rendering="crispEdges" width="73" height="58" x="0" y="0" style="stroke: rgb(68, 68, 68); stroke-opacity: 1; fill: rgb(255, 255, 255); fill-opacity: 1; stroke-width: 0px;"/><g class="scrollbox" transform="" clip-path="url('#legend9831ef')"><g class="groups" transform=""><g class="traces" transform="translate(0,14.5)" style="opacity: 1;"><text class="legendtext" text-anchor="start" x="40" y="4.680000000000001" style="font-family: 'Open Sans', verdana, arial, sans-serif; font-size: 12px; fill: rgb(42, 63, 95); fill-opacity: 1; white-space: pre;">Time</text><g class="layers" style="opacity: 1;"><g class="legendfill"/><g class="legendlines"><path class="js-line" d="M5,0h30" style="fill: none; stroke: rgb(0, 154, 250); stroke-opacity: 1; stroke-width: 1px;"/></g><g class="legendsymbols"><g class="legendpoints"/></g></g><rect class="legendtoggle" x="0" y="-9.5" width="67.84375" height="19" style="fill: rgb(0, 0, 0); fill-opacity: 0;"/></g></g><g class="groups" transform="translate(0,10)"><g class="traces" transform="translate(0,33.5)" style="opacity: 1;"><text class="legendtext" text-anchor="start" x="40" y="4.680000000000001" style="font-family: 'Open Sans', verdana, arial, sans-serif; font-size: 12px; fill: rgb(42, 63, 95); fill-opacity: 1; white-space: pre;">Freq</text><g class="layers" style="opacity: 1;"><g class="legendfill"/><g class="legendlines"><path class="js-line" d="M5,0h30" style="fill: none; stroke: rgb(255, 165, 0); stroke-opacity: 1; stroke-width: 1px;"/></g><g class="legendsymbols"><g class="legendpoints"/></g></g><rect class="legendtoggle" x="0" y="-9.5" width="67.84375" height="19" style="fill: rgb(0, 0, 0); fill-opacity: 0;"/></g></g></g><rect class="scrollbar" rx="20" ry="3" width="0" height="0" x="0" y="0" style="fill: rgb(128, 139, 164); fill-opacity: 1;"/></g><g class="g-gtitle"/><g class="g-xtitle"><text class="xtitle" x="213.1222222222222" y="462.140625" text-anchor="middle" style="font-family: sans-serif; font-size: 15px; fill: rgb(0, 0, 0); opacity: 1; font-weight: normal; white-space: pre;">t[s]</text></g><g class="g-x2title"><text class="x2title" x="481.9148148148148" y="462.140625" text-anchor="middle" style="font-family: sans-serif; font-size: 15px; fill: rgb(0, 0, 0); opacity: 1; font-weight: normal; white-space: pre;">f[hz]</text></g><g class="g-ytitle"/><g class="g-y2title"/></g></svg>