<svg class="main-svg" xmlns="http://www.w3.org/2000/svg" xmlns:xlink="http://www.w3.org/1999/xlink" width="700" height="500" style="" viewBox="0 0 700 500"><rect x="0" y="0" width="700" height="500" style="fill: rgb(255, 255, 255); fill-opacity: 1;"/><defs id="defs-d3d380"><g class="clips"><clipPath id="clipd3d380xyplot" class="plotclip"><rect width="236.90002916302126" height="356.5936679790026"/></clipPath><clipPath id="clipd3d380x2y2plot" class="plotclip"><rect width="236.90002916302123" height="356.5936679790026"/></clipPath><clipPath class="axesclip" id="clipd3d380x"><rect x="94.67220764071158" y="0" width="236.90002916302126" height="500"/></clipPath><clipPath class="axesclip" id="clipd3d380y"><rect x="0" y="63.83858267716535" width="700" height="356.5936679790026"/></clipPath><clipPath class="axesclip" id="clipd3d380xy"><rect x="94.67220764071158" y="63.83858267716535" width="236.90002916302126" height="356.5936679790026"/></clipPath><clipPath class="axesclip" id="clipd3d380y2"><rect x="0" y="63.83858267716535" width="700" height="356.5936679790026"/></clipPath><clipPath class="axesclip" id="clipd3d380xy2"><rect x="94.67220764071158" y="63.83858267716535" width="236.90002916302126" height="356.5936679790026"/></clipPath><clipPath class="axesclip" id="clipd3d380x2"><rect x="363.4648002333042" y="0" width="236.90002916302123" height="500"/></clipPath><clipPath class="axesclip" id="clipd3d380x2y"><rect x="363.4648002333042" y="63.83858267716535" width="236.90002916302123" height="356.5936679790026"/></clipPath><clipPath class="axesclip" id="clipd3d380x2y2"><rect x="363.4648002333042" y="63.83858267716535" width="236.90002916302123" height="356.5936679790026"/></clipPath></g><g class="gradients"/></defs><g class="bglayer"/><g class="layer-below"><g class="imagelayer"/><g class="shapelayer"/></g><g class="cartesianlayer"><g class="subplot xy"><g class="layer-subplot"><g class="shapelayer"/><g class="imagelayer"/></g><g class="gridlayer"><g class="x"><path class="xgrid crisp" transform="translate(101.37220764071158,0)" d="M0,63.83858267716535v356.5936679790026" style="stroke: rgb(0, 0, 0); stroke-opacity: 0.1; stroke-width: 0.5px;"/><path class="xgrid crisp" transform="translate(175.87220764071157,0)" d="M0,63.83858267716535v356.5936679790026" style="stroke: rgb(0, 0, 0); stroke-opacity: 0.1; stroke-width: 0.5px;"/><path class="xgrid crisp" transform="translate(250.37220764071157,0)" d="M0,63.83858267716535v356.5936679790026" style="stroke: rgb(0, 0, 0); stroke-opacity: 0.1; stroke-width: 0.5px;"/><path class="xgrid crisp" transform="translate(324.87220764071157,0)" d="M0,63.83858267716535v356.5936679790026" style="stroke: rgb(0, 0, 0); stroke-opacity: 0.1; stroke-width: 0.5px;"/></g><g class="y"><path class="ygrid crisp" transform="translate(0,376.4185826771653)" d="M94.67220764071158,0h236.90002916302126" style="stroke: rgb(0, 0, 0); stroke-opacity: 0.1; stroke-width: 0.5px;"/><path class="ygrid crisp" transform="translate(0,308.89858267716534)" d="M94.67220764071158,0h236.90002916302126" style="stroke: rgb(0, 0, 0); stroke-opacity: 0.1; stroke-width: 0.5px;"/><path class="ygrid crisp" transform="translate(0,241.37858267716535)" d="M94.67220764071158,0h236.90002916302126" style="stroke: rgb(0, 0, 0); stroke-opacity: 0.1; stroke-width: 0.5px;"/><path class="ygrid crisp" transform="translate(0,173.85858267716534)" d="M94.67220764071158,0h236.90002916302126" style="stroke: rgb(0, 0, 0); stroke-opacity: 0.1; stroke-width: 0.5px;"/><path class="ygrid crisp" transform="translate(0,106.34858267716535)" d="M94.67220764071158,0h236.90002916302126" style="stroke: rgb(0, 0, 0); stroke-opacity: 0.1; stroke-width: 0.5px;"/></g></g><g class="zerolinelayer"/><path class="xlines-below"/><path class="ylines-below"/><g class="overlines-below"/><g class="xaxislayer-below"/><g class="yaxislayer-below"/><g class="overaxes-below"/><g class="plot" transform="translate(94.67220764071158,63.83858267716535)" clip-path="url('#clipd3d380xyplot')"><g class="scatterlayer mlayer"><g class="trace scatter tracec7c03a" style="stroke-miterlimit: 2; opacity: 1;"><g class="fills"/><g class="errorbars"/><g class="lines"><path class="js-line" d="M6.7,177.48L6.77,176.61L6.78,182.08L6.78,183.33L7.28,338.89L7.39,46.2L7.53,185.71L7.54,187.91L8.15,10.09L8.26,346.5L8.29,257.77L8.3,267.79L8.34,316.87L8.57,37.46L9.05,269.21L9.06,252.53L9.45,31.26L9.68,324.62L9.81,257.48L9.82,239.63L10.06,332.14L10.25,20.08L10.57,281.08L10.58,263.06L10.65,311.05L10.8,48.79L11.33,260.16L11.34,238.01L11.37,310.26L11.48,56.89L12.09,210.6L12.1,196.82L12.17,260.72L12.53,93.56L12.85,213.68L12.86,199.95L13.2,82.89L13.4,271.55L13.61,210.85L13.62,192.75L13.84,88.38L14.24,278.25L14.37,195.24L14.38,178.6L14.6,79.88L14.96,268.2L15.13,202.68L15.14,184.4L15.23,86.31L15.42,267.53L15.89,180.55L15.9,162.65L16.09,257.37L16.41,100.04L16.65,175.95L16.66,160.11L16.73,253.14L16.92,99.37L17.41,170.39L17.42,154.21L17.44,251.7L17.72,106.02L18.17,159L18.18,144.97L18.2,247.89L18.43,105.85L18.93,142.87L18.94,131.54L18.94,113.17L19.3,244.79L19.69,147.56L19.7,136.71L19.72,236.88L19.83,116.31L20.45,133.04L20.46,124.48L20.46,116.01L20.86,237.57L21.21,124.15L21.22,119.81L21.22,118.13L21.45,235.7L21.97,131.15L21.98,126.41L22.21,231.96L22.48,122.37L22.73,130.53L22.74,128.51L22.8,231.53L23.12,125.45L23.49,128.47L23.5,128.52L23.64,228.95L23.92,123.96L24.25,131.4L24.26,132.36L24.3,128.27L24.78,228.59L25.01,131.64L25.02,133.3L25.33,228.12L25.73,128.3L25.77,130.24L25.78,134.13L25.96,224.64L26.36,127.78L26.53,140.24L26.54,146.36L26.64,224.89L26.87,133.78L27.29,146.38L27.3,150.98L27.35,222.9L27.59,135.2L28.05,147.46L28.06,153.53L28.22,135.43L28.54,215.54L28.81,155.18L28.82,162.28L28.85,139.87L29.04,214.9L29.57,156.51L29.58,162.5L29.59,212.32L29.86,143.77L30.33,162.49L30.34,169.41L30.41,143.89L30.69,209.51L31.09,168.84L31.1,175.53L31.21,147.61L31.23,207.58L31.85,169.92L31.86,176.22L31.91,207.15L32.31,148.99L32.61,176.76L32.62,182.66L33.07,150.91L33.34,203.55L33.37,180.27L33.38,185.55L33.39,203.09L33.53,152.72L34.13,179.38L34.14,184.84L34.35,200.33L34.59,154.65L34.89,185.81L34.9,190.02L34.9,198.66L35.39,155.59L35.65,185.78L35.66,189.16L35.77,157.52L35.91,197.21L36.41,186.98L36.42,190.65L36.59,197.02L37.03,159.4L37.17,189.78L37.18,191.67L37.26,194.54L37.41,159.9L37.93,190.49L37.94,192.2L37.96,161.69L38.28,193.78L38.69,189.15L38.7,190.68L38.74,192.51L38.97,163.08L39.45,190.77L39.46,191.42L39.48,162.8L40.21,189.18L40.22,189.21L40.3,191.29L40.49,164.29L40.97,189.41L40.98,189.43L41.12,164.56L41.48,190.06L41.73,187.1L41.74,186.65L41.8,165.75L42.11,188.82L42.49,187.73L42.5,186.66L42.58,188.15L42.98,166.58L43.25,184.4L43.26,183.31L43.31,167.74L43.84,187.28L44.01,185.35L44.02,184.09L44.16,168.72L44.52,186.56L44.77,182.09L44.78,180.66L45,168.53L45.02,185.26L45.53,180.95L45.54,179.56L45.55,169.87L45.65,184.51L46.29,180.59L46.3,179.28L46.52,170.29L47,185.11L47.05,180.32L47.06,179.01L47.32,170.54L47.68,184.5L47.81,178.5L47.82,177.16L47.85,183.98L48.08,170.15L48.57,177.72L48.58,176.39L49.03,183.71L49.22,171.26L49.33,175.5L49.34,174.46L49.7,183.67L49.89,171.5L50.09,175.71L50.1,174.67L50.57,171.16L50.84,183.74L50.85,175.22L50.86,174.27L50.88,184.08L51.37,171.54L51.61,175.08L51.62,174.48L51.72,184.07L52.04,171.52L52.37,173.63L52.38,173.07L52.55,171.59L52.86,183.22L53.13,172.9L53.14,172.52L53.22,171.6L53.58,183.34L53.89,172.53L53.9,172.47L54.25,182.75L54.57,172.01L54.65,172.87L54.66,173L54.89,183.09L55.12,171.68L55.41,173.13L55.42,173.28L55.56,183.4L55.92,171.87L56.17,173.74L56.18,174.11L56.28,183.15L56.59,172.29L56.93,173.39L56.94,173.95L57.27,172.69L57.58,182.77L57.69,173.57L57.7,173.99L57.82,172.13L58.26,182.02L58.45,173.48L58.46,174.13L58.62,172.45L58.77,182.52L59.21,174.89L59.22,175.54L59.44,182.96L59.8,172.83L59.97,174.6L59.98,175.37L60.26,172.99L60.66,182.28L60.73,175.86L60.74,176.62L60.98,172.43L61.46,182.46L61.49,176.37L61.5,177.27L61.51,182.18L61.65,173.06L62.25,177.63L62.26,178.52L62.48,181.68L62.92,173.44L63.01,177.15L63.02,177.93L63.3,173.57L63.36,181.59L63.77,177.97L63.78,178.7L64.14,173.58L64.16,181.89L64.53,179.76L64.54,180.52L64.54,182.09L64.9,173.44L65.29,179.73L65.3,180.27L65.34,181.82L65.7,173.62L66.05,179.38L66.06,179.96L66.52,181.1L66.8,174.18L66.81,179.83L66.82,180.17L66.99,180.66L67.18,174.04L67.57,180.01L67.58,180.39L67.66,181.05L68.02,173.96L68.33,180.52L68.34,180.73L68.38,181.11L68.87,173.81L69.09,180.63L69.1,180.57L69.22,180.79L69.54,174.34L69.85,180.39L69.86,180.35L70.07,180.71L70.25,174.19L70.61,180.05L70.62,179.8L70.7,180.67L71.06,173.76L71.37,179.96L71.38,179.63L71.86,173.96L72.09,181.09L72.13,180.47L72.14,180.22L72.21,180.64L72.74,174.3L72.89,179.73L72.9,179.22L73.1,181.12L73.42,174.05L73.65,179.35L73.66,178.85L73.92,174.41L73.94,180.92L74.41,179.55L74.42,178.98L74.6,174.26L74.74,180.79L75.17,178.19L75.18,177.62L75.25,180.51L75.78,173.79L75.93,177.36L75.94,176.75L76.09,180.86L76.58,174.16L76.69,177.48L76.7,176.9L76.94,180.87L77.42,174.43L77.45,177.2L77.46,176.51L77.61,180.68L77.76,174.01L78.21,176.31L78.22,175.74L78.52,174.09L78.92,180.91L78.97,175.89L78.98,175.45L79.32,174.02L79.63,180.93L79.73,175.8L79.74,175.29L79.99,174.11L80.31,180.87L80.49,174.3L80.5,174.02L80.79,173.92L80.98,181.01L81.25,174.57L81.26,174.45L81.3,174.21L81.66,180.88L82.01,174.83L82.02,174.61L82.48,174.05L82.75,180.7L82.77,174.98L82.78,175.13L82.8,180.96L83.2,174.24L83.53,174.9L83.54,175.05L84,173.81L84.27,180.83L84.29,175.07L84.3,175.25L84.8,173.98L85.03,181L85.05,175.23L85.06,175.59L85.22,174.18L85.54,180.75L85.81,175.77L85.82,176.19L85.87,180.85L86.4,174.16L86.57,175.61L86.58,176.03L86.67,180.99L87.12,174.11L87.33,176.08L87.34,176.55L87.48,180.96L87.88,174.29L88.09,176.38L88.1,176.94L88.47,174.32L88.74,180.88L88.85,176.78L88.86,177.31L89.23,174.39L89.54,180.84L89.61,176.73L89.62,177.25L89.88,180.81L90.37,174.32L90.37,176.8L90.38,177.46L90.64,180.65L91.12,174.16L91.13,176.65L91.14,177.23L91.16,174.3L91.4,180.7L91.89,177.77L91.9,178.35L92.2,180.75L92.6,174.66L92.65,178.46L92.66,178.99L92.92,180.58L93.1,174.35L93.41,178.65L93.42,179.19L93.42,180.3L93.82,174.56L94.17,179.15L94.18,179.57L94.58,174.95L94.6,180.22L94.93,179.4L94.94,179.67L95.04,175.03L95.45,180.05L95.69,179.48L95.7,179.64L95.76,175.1L96.12,180.04L96.45,179.77L96.46,179.91L96.94,175.07L97.21,179.68L97.22,179.66L97.3,180.14L97.7,175.23L97.97,179.62L97.98,179.53L98.12,175.39L98.52,179.8L98.73,179.21L98.74,179.07L98.82,179.75L99.35,175.44L99.49,179.11L99.5,178.94L99.62,179.73L99.64,175.64L100.25,178.64L100.26,178.42L100.42,179.59L100.86,175.55L101.01,178.78L101.02,178.58L101.18,179.59L101.62,175.71L101.77,178.66L101.78,178.44L102,175.71L102.49,179.53L102.53,178.77L102.54,178.44L103.18,175.74L103.2,179.41L103.29,178.65L103.3,178.34L103.54,179.4L103.85,175.66L104.05,178.29L104.06,177.95L104.36,175.88L104.72,179.63L104.81,178.03L104.82,177.69L105.16,175.84L105.52,179.64L105.57,178.15L105.58,177.83L105.61,179.18L105.92,175.87L106.33,177.27L106.34,176.94L106.34,176.03L106.66,179.27L107.09,176.92L107.1,176.66L107.46,179.11L107.57,176.03L107.85,176.88L107.86,176.65L108.28,175.93L108.6,179.13L108.61,176.72L108.62,176.53L108.68,179.18L109.04,176.1L109.37,176.5L109.38,176.41L109.44,179.14L109.88,176.36L110.13,176.7L110.14,176.61L110.2,179.03L110.69,176.26L110.89,176.53L110.9,176.53L111.07,176.29L111.42,178.78L111.65,176.66L111.66,176.65L111.74,176.38L112.27,178.84L112.41,176.67L112.42,176.73L112.61,178.82L112.92,176.42L113.17,177L113.18,177.04L113.32,178.81L113.76,176.3L113.93,176.82L113.94,176.87L114.12,178.84L114.19,176.64L114.69,176.9L114.7,177.01L114.94,176.41L115.35,178.6L115.45,176.81L115.46,176.9L115.79,176.54L116.14,178.45L116.21,176.83L116.22,176.95L116.82,178.36L116.97,176.49L116.97,176.88L116.98,177.05L117.29,178.55L117.64,176.6L117.73,176.92L117.74,177.03L117.77,176.65L118.13,178.44L118.49,177.13L118.5,177.28L118.61,176.81L119.23,178.59L119.25,177.92L119.26,178.04L119.27,178.69L119.62,176.83L120.01,177.71L120.02,177.89L120.02,178.51L120.51,176.74L120.77,177.77L120.78,177.9L120.78,178.25L120.85,176.8L121.53,177.92L121.54,178.02L121.54,178.36L121.99,177L122.29,178.07L122.3,178.13L122.34,178.4L122.7,176.95L123.05,177.49L123.05,177.57L123.19,178.19L123.55,176.88L123.79,177.45L123.79,177.42L123.99,178.14L124.39,176.89L124.51,177.33L124.52,177.29L124.8,178.28L125.19,177.01L125.27,177.5L125.27,177.41L125.55,178.35L125.83,177.12L126.01,177.54L126.01,177.63L126.04,177.1L126.35,178.29L126.76,177.58L126.77,177.67L127.07,178.23L127.51,177.1L127.52,177.29L127.53,177.36L127.92,178.19L128.27,176.85L128.28,177.22L128.29,177.3L128.32,176.88L128.67,178.09L129.04,177.59L129.05,177.64L129.47,178.01L129.59,176.85L129.8,177.46L129.81,177.52L129.94,178.04L130.34,176.85L130.56,177.49L130.57,177.54L131.12,178.02L131.14,176.99L131.32,177.41L131.32,177.47L131.44,177.08L131.92,178.08L132.07,177.49L132.07,177.47L132.22,177.95L132.41,177.1L132.76,177.74L132.77,177.81L133.02,177.9L133.51,176.87L133.52,177.42L133.52,177.5L133.55,176.93L133.82,178.02L134.26,177.42L134.26,177.33L134.31,176.92L135,177.93L135.01,177.37L135.02,177.25L135.13,177.97L135.49,176.98L135.77,177.25L135.78,177.19L135.85,178.02L135.87,176.94L136.49,177.16L136.5,177.1L136.67,177.01L136.9,178.09L137.21,177.07L137.22,177.06L137.34,177.02L137.49,178.17L137.97,177.07L137.98,177.08L138.54,178.01L138.57,176.93L138.73,177L138.74,177.05L139.34,178.12L139.41,176.94L139.49,177.02L139.5,177.08L139.73,178.19L140.21,176.83L140.25,176.93L140.26,176.96L140.57,178.17L141.01,176.93L141.01,176.98L141.02,177.05L141.37,178.17L141.73,176.96L141.77,177.16L141.78,177.25L142,178.26L142.53,176.94L142.53,177.13L142.54,177.24L142.55,178.15L143.24,176.72L143.29,177.02L143.3,177.16L143.33,176.75L143.56,178.13L144.05,177.44L144.06,177.57L144.09,176.83L144.53,178.26L144.81,177.55L144.82,177.69L144.89,176.84L145.29,178.33L145.57,177.54L145.58,177.65L145.69,176.71L145.96,178.24L146.33,177.49L146.34,177.61L146.45,176.65L146.72,178.33L147.09,177.63L147.1,177.75L147.29,176.62L147.57,178.22L147.85,177.64L147.86,177.73L147.94,178.1L148.09,176.65L148.61,177.86L148.62,177.98L148.79,178.18L148.81,176.75L149.33,177.85L149.33,177.98L149.38,178.31L149.61,176.69L150.08,177.59L150.09,177.75L150.14,178.32L150.41,176.64L150.84,177.64L150.85,177.76L151.13,176.78L151.44,178.29L151.6,177.81L151.61,177.94L151.8,176.8L152.29,178.36L152.36,177.95L152.37,178.06L152.37,178.28L152.48,176.81L153.12,178L153.13,178.09L153.23,176.81L153.8,178.3L153.84,177.81L153.84,177.95L153.95,176.81L154.56,178.35L154.59,177.82L154.6,177.93L154.65,178.48L154.88,176.87L155.35,177.77L155.36,177.91L155.49,178.38L155.98,176.76L156.11,177.72L156.12,177.84L156.31,176.81L156.76,178.27L156.87,177.9L156.88,178.01L157.07,176.86L157.56,178.38L157.63,177.98L157.64,178.07L157.83,176.77L158.19,178.26L158.39,177.86L158.4,177.98L158.63,176.82L159.03,178.34L159.15,178.09L159.16,178.16L159.18,176.91L159.41,178.56L159.87,178.13L159.87,178.22L160.23,176.81L160.55,178.38L160.58,177.95L160.59,178.08L160.99,176.64L161.27,178.58L161.34,178.16L161.35,178.25L161.5,176.73L162.03,178.52L162.1,178.28L162.11,178.37L162.3,176.76L162.82,178.31L162.83,178.32L163.06,176.61L163.58,178.21L163.59,178.22L163.77,176.72L164.26,178.37L164.34,178.33L164.35,178.29L164.53,176.85L164.93,178.34L165.1,178.22L165.11,178.15L165.27,178.35L165.76,176.82L165.86,178L165.87,177.95L166.14,176.82L166.45,178.3L166.62,178.02L166.63,177.92L166.93,176.93L167.29,178.37L167.38,178.1L167.39,177.98L167.42,178.23L167.61,176.86L168.14,177.96L168.15,177.85L168.58,176.81L168.81,178.29L168.9,177.73L168.91,177.6L169.3,176.8L169.53,178.28L169.66,177.53L169.67,177.36L169.68,176.79L169.95,178.15L170.42,177.48L170.43,177.36L170.77,176.74L171.13,178.1L171.18,177.48L171.19,177.33L171.57,176.77L171.89,178.2L171.94,177.39L171.95,177.26L172.04,176.97L172.4,178.19L172.7,177.26L172.71,177.17L172.84,176.81L173.15,178.22L173.46,176.99L173.47,176.9L173.51,176.78L173.91,178.19L174.18,177.06L174.19,177.01L174.71,178.25L174.78,177L174.94,177.1L174.95,177.11L175.05,178.16L175.54,176.87L175.7,177.01L175.71,177.01L175.85,178.12L175.96,176.94L176.46,177.05L176.47,177.09L176.76,176.99L176.99,178.21L177.22,177.25L177.23,177.27L177.47,176.94L177.92,178.07L177.98,177.21L177.99,177.26L178,178.03L178.23,176.84L178.74,177.15L178.75,177.21L178.99,176.98L179.43,178.09L179.5,177.24L179.51,177.33L179.84,177.07L180.19,178.1L180.26,177.41L180.27,177.49L180.57,178.04L180.89,177.05L181.02,177.43L181.03,177.51L181.42,178.05L181.65,177.1L181.78,177.56L181.79,177.68L182.24,177.16L182.51,178.08L182.54,177.7L182.55,177.8L183,177.15L183.27,178.1L183.3,177.74L183.31,177.79L183.76,177.09L184.03,178.03L184.06,177.84L184.07,177.91L184.11,178.01L184.52,177.26L184.82,177.68L184.82,177.75L184.91,178.11L185.36,177.2L185.57,177.39L185.58,177.46L185.72,177.98L186.12,177.12L186.33,177.51L186.34,177.55L186.43,178L186.83,177.27L187.09,177.62L187.1,177.67L187.19,178.02L187.59,177.25L187.85,177.57L187.86,177.59L188.03,177.9L188.27,177.11L188.61,177.49L188.62,177.54L188.79,177.91L189.28,177.22L189.37,177.51L189.38,177.58L189.59,177.93L190.08,177.23L190.14,177.51L190.14,177.55L190.31,177.71L190.88,177.27L190.89,177.47L190.9,177.51L191.11,177.66L191.47,177.26L191.64,177.47L191.65,177.49L191.95,177.77L192.36,177.31L192.39,177.37L192.4,177.36L192.63,177.74L193.15,177.42L193.15,177.4L193.49,177.21L193.81,177.63L193.91,177.46L193.92,177.46L194.2,177.33L194.61,177.69L194.67,177.5L194.68,177.52L194.78,177.74L194.96,177.34L195.42,177.44L195.43,177.42L195.45,177.65L196.14,177.29L196.17,177.44L196.18,177.4L196.92,177.63L196.94,177.47L196.95,177.49L197.45,177.44L197.68,177.74L197.7,177.61L197.71,177.62L199.31,177.52L199.32,177.7L199.32,177.72L199.55,177.41L200.03,177.77L200.07,177.71L200.08,177.74L200.27,177.32L200.83,177.62L200.84,177.63L201.15,177.19L201.47,177.72L201.58,177.57L201.59,177.59L201.72,177.71L201.99,177.27L202.34,177.56L202.34,177.61L202.52,177.81L202.76,177.24L203.1,177.6L203.1,177.64L203.2,177.72L203.56,177.26L203.86,177.55L203.86,177.6L204,177.73L204.27,177.33L204.62,177.53L204.62,177.54L204.98,177.29L205.34,177.76L205.36,177.37L205.37,177.36L205.51,177.75L205.87,177.2L206.11,177.42L206.12,177.41L206.17,177.3L206.4,177.79L206.87,177.46L206.87,177.43L206.93,177.33L207.45,177.87L207.63,177.52L207.63,177.48L207.89,177.23L208.21,177.78L208.35,177.39L208.36,177.39L208.69,177.18L208.89,177.8L209.11,177.51L209.11,177.46L209.26,177.9L209.79,177.29L209.85,177.58L209.85,177.64L210.32,177.88L210.55,177.28L210.57,177.75L210.57,177.78L211.08,177.87L211.27,177.29L211.32,177.6L211.32,177.67L211.37,177.81L211.9,177.23L212.04,177.74L212.04,177.77L212.34,177.91L212.74,177.3L212.76,177.77L212.76,177.81L213.1,177.88L213.5,177.21L213.51,177.59L213.52,177.64L213.73,177.87L214.26,177.21L214.27,177.56L214.27,177.61L214.3,177.21L214.45,177.9L215.01,177.45L215.01,177.41L215.12,177.93L215.74,177.19L215.75,177.54L215.75,177.62L215.92,177.91L216.12,177.13L216.47,177.65L216.47,177.7L216.54,177.19L217.1,177.9L217.22,177.57L217.22,177.65L217.76,177.19L217.95,177.87L217.96,177.55L217.96,177.47L217.99,177.83L218.69,177.2L218.7,177.63L218.7,177.67L218.77,177.07L219.3,177.95L219.42,177.85L219.43,177.85L219.57,177.14L219.89,177.91L220.18,177.8L220.19,177.8L220.39,177.83L220.92,177.15L220.94,177.76L220.95,177.73L220.96,177.12L221.19,177.86L221.7,177.7L221.71,177.64L221.99,177.95L222.44,177.15L222.46,177.62L222.47,177.54L222.48,177.16L222.96,177.96L223.22,177.61L223.23,177.57L223.28,177.15L223.81,177.87L223.98,177.58L223.99,177.52L224.04,177.17L224.44,177.85L224.74,177.53L224.75,177.45L225.07,177.94L225.47,177.16L225.5,177.47L225.51,177.38L225.6,177.14L226.04,177.89L226.26,177.37L226.27,177.3L226.27,177.14L226.8,177.89L227.02,177.38L227.03,177.33L227.24,177.16L227.52,177.91L227.78,177.48L227.79,177.41L227.81,177.86L228,177.11L228.54,177.51L228.54,177.47L228.76,177.09L229.12,177.83L229.28,177.58L229.28,177.64L229.44,177.16L229.88,177.89L230,177.81L230.01,177.81L230.19,177.28L230.2,177.28" style="vector-effect: non-scaling-stroke; fill: none; stroke: rgb(0, 154, 250); stroke-opacity: 1; stroke-width: 1px; opacity: 1;"/></g><g class="points"/><g class="text"/></g></g></g><g class="overplot"/><path class="xlines-above crisp" d="M93.67220764071158,420.9322506561679H331.57223680373284" style="fill: none; stroke-width: 1px; stroke: rgb(0, 0, 0); stroke-opacity: 1;"/><path class="ylines-above crisp" d="M94.17220764071158,63.83858267716535V420.4322506561679" style="fill: none; stroke-width: 1px; stroke: rgb(0, 0, 0); stroke-opacity: 1;"/><g class="overlines-above"/><g class="xaxislayer-above"><path class="xtick ticks crisp" d="M0,420.4322506561679v-5" transform="translate(101.37220764071158,0)" style="stroke: rgb(0, 0, 0); stroke-opacity: 1; stroke-width: 1px;"/><path class="xtick ticks crisp" d="M0,420.4322506561679v-5" transform="translate(175.87220764071157,0)" style="stroke: rgb(0, 0, 0); stroke-opacity: 1; stroke-width: 1px;"/><path class="xtick ticks crisp" d="M0,420.4322506561679v-5" transform="translate(250.37220764071157,0)" style="stroke: rgb(0, 0, 0); stroke-opacity: 1; stroke-width: 1px;"/><path class="xtick ticks crisp" d="M0,420.4322506561679v-5" transform="translate(324.87220764071157,0)" style="stroke: rgb(0, 0, 0); stroke-opacity: 1; stroke-width: 1px;"/><g class="xtick"><text text-anchor="middle" x="0" y="434.6322506561679" transform="translate(101.37220764071158,0)" style="font-family: sans-serif; font-size: 11px; fill: rgb(0, 0, 0); fill-opacity: 1; white-space: pre;">0</text></g><g class="xtick"><text text-anchor="middle" x="0" y="434.6322506561679" transform="translate(175.87220764071157,0)" style="font-family: sans-serif; font-size: 11px; fill: rgb(0, 0, 0); fill-opacity: 1; white-space: pre;">1</text></g><g class="xtick"><text text-anchor="middle" x="0" y="434.6322506561679" transform="translate(250.37220764071157,0)" style="font-family: sans-serif; font-size: 11px; fill: rgb(0, 0, 0); fill-opacity: 1; white-space: pre;">2</text></g><g class="xtick"><text text-anchor="middle" x="0" y="434.6322506561679" transform="translate(324.87220764071157,0)" style="font-family: sans-serif; font-size: 11px; fill: rgb(0, 0, 0); fill-opacity: 1; white-space: pre;">3</text></g></g><g class="yaxislayer-above"><path class="ytick ticks crisp" d="M94.67220764071158,0h5" transform="translate(0,376.4185826771653)" style="stroke: rgb(0, 0, 0); stroke-opacity: 1; stroke-width: 1px;"/><path class="ytick ticks crisp" d="M94.67220764071158,0h5" transform="translate(0,308.89858267716534)" style="stroke: rgb(0, 0, 0); stroke-opacity: 1; stroke-width: 1px;"/><path class="ytick ticks crisp" d="M94.67220764071158,0h5" transform="translate(0,241.37858267716535)" style="stroke: rgb(0, 0, 0); stroke-opacity: 1; stroke-width: 1px;"/><path class="ytick ticks crisp" d="M94.67220764071158,0h5" transform="translate(0,173.85858267716534)" style="stroke: rgb(0, 0, 0); stroke-opacity: 1; stroke-width: 1px;"/><path class="ytick ticks crisp" d="M94.67220764071158,0h5" transform="translate(0,106.34858267716535)" style="stroke: rgb(0, 0, 0); stroke-opacity: 1; stroke-width: 1px;"/><g class="ytick"><text text-anchor="end" x="91.47220764071157" y="3.8499999999999996" transform="translate(0,376.4185826771653)" style="font-family: sans-serif; font-size: 11px; fill: rgb(0, 0, 0); fill-opacity: 1; white-space: pre;">-0.10</text></g><g class="ytick"><text text-anchor="end" x="91.47220764071157" y="3.8499999999999996" transform="translate(0,308.89858267716534)" style="font-family: sans-serif; font-size: 11px; fill: rgb(0, 0, 0); fill-opacity: 1; white-space: pre;">-0.05</text></g><g class="ytick"><text text-anchor="end" x="91.47220764071157" y="3.8499999999999996" transform="translate(0,241.37858267716535)" style="font-family: sans-serif; font-size: 11px; fill: rgb(0, 0, 0); fill-opacity: 1; white-space: pre;">0.00</text></g><g class="ytick"><text text-anchor="end" x="91.47220764071157" y="3.8499999999999996" transform="translate(0,173.85858267716534)" style="font-family: sans-serif; font-size: 11px; fill: rgb(0, 0, 0); fill-opacity: 1; white-space: pre;">0.05</text></g><g class="ytick"><text text-anchor="end" x="91.47220764071157" y="3.8499999999999996" transform="translate(0,106.34858267716535)" style="font-family: sans-serif; font-size: 11px; fill: rgb(0, 0, 0); fill-opacity: 1; white-space: pre;">0.10</text></g></g><g class="overaxes-above"/></g><g class="subplot x2y2"><g class="layer-subplot"><g class="shapelayer"/><g class="imagelayer"/></g><g class="gridlayer"><g class="x2"><path class="x2grid crisp" transform="translate(370.1548002333042,0)" d="M0,63.83858267716535v356.5936679790026" style="stroke: rgb(0, 0, 0); stroke-opacity: 0.1; stroke-width: 0.5px;"/><path class="x2grid crisp" transform="translate(414.85480023330416,0)" d="M0,63.83858267716535v356.5936679790026" style="stroke: rgb(0, 0, 0); stroke-opacity: 0.1; stroke-width: 0.5px;"/><path class="x2grid crisp" transform="translate(459.55480023330415,0)" d="M0,63.83858267716535v356.5936679790026" style="stroke: rgb(0, 0, 0); stroke-opacity: 0.1; stroke-width: 0.5px;"/><path class="x2grid crisp" transform="translate(504.2548002333042,0)" d="M0,63.83858267716535v356.5936679790026" style="stroke: rgb(0, 0, 0); stroke-opacity: 0.1; stroke-width: 0.5px;"/><path class="x2grid crisp" transform="translate(548.9548002333042,0)" d="M0,63.83858267716535v356.5936679790026" style="stroke: rgb(0, 0, 0); stroke-opacity: 0.1; stroke-width: 0.5px;"/><path class="x2grid crisp" transform="translate(593.6648002333042,0)" d="M0,63.83858267716535v356.5936679790026" style="stroke: rgb(0, 0, 0); stroke-opacity: 0.1; stroke-width: 0.5px;"/></g><g class="y2"><path class="y2grid crisp" transform="translate(0,410.33858267716533)" d="M363.4648002333042,0h236.90002916302123" style="stroke: rgb(0, 0, 0); stroke-opacity: 0.1; stroke-width: 0.5px;"/><path class="y2grid crisp" transform="translate(0,335.56858267716535)" d="M363.4648002333042,0h236.90002916302123" style="stroke: rgb(0, 0, 0); stroke-opacity: 0.1; stroke-width: 0.5px;"/><path class="y2grid crisp" transform="translate(0,260.80858267716536)" d="M363.4648002333042,0h236.90002916302123" style="stroke: rgb(0, 0, 0); stroke-opacity: 0.1; stroke-width: 0.5px;"/><path class="y2grid crisp" transform="translate(0,186.03858267716535)" d="M363.4648002333042,0h236.90002916302123" style="stroke: rgb(0, 0, 0); stroke-opacity: 0.1; stroke-width: 0.5px;"/><path class="y2grid crisp" transform="translate(0,111.26858267716534)" d="M363.4648002333042,0h236.90002916302123" style="stroke: rgb(0, 0, 0); stroke-opacity: 0.1; stroke-width: 0.5px;"/></g></g><g class="zerolinelayer"/><path class="xlines-below"/><path class="ylines-below"/><g class="overlines-below"/><g class="xaxislayer-below"/><g class="yaxislayer-below"/><g class="overaxes-below"/><g class="plot" transform="translate(363.4648002333042,63.83858267716535)" clip-path="url('#clipd3d380x2y2plot')"><g class="scatterlayer mlayer"><g class="trace scatter trace9ce803" style="stroke-miterlimit: 2; opacity: 1;"><g class="fills"/><g class="errorbars"/><g class="lines"><path class="js-line" d="M6.7,346.49L7.45,344.53L7.49,346.04L7.51,346.13L7.99,346.44L8.03,344.23L8.25,346.22L8.27,346.16L8.69,346.46L8.98,345.34L9.07,345.97L9.09,346.07L9.21,346.32L9.64,345.06L9.65,345.08L9.67,344.88L9.82,344.04L10.07,346.16L10.43,345.42L10.44,345.34L10.47,345.83L10.89,341.05L10.91,337.78L11.64,346.44L11.68,342.96L11.7,340.81L11.79,333.61L12.2,345.51L12.43,343.9L12.44,343.86L12.55,342.24L12.69,345.83L12.71,346.14L12.84,342.18L13.36,344.19L13.38,344.18L13.87,346.44L14.11,344.09L14.12,343.85L14.27,341.94L14.81,343.85L14.82,343.89L15.09,342.99L15.18,346L15.51,343.54L15.53,343.33L15.66,345.85L16.49,338.28L16.51,338.28L17.09,345.86L17.61,344.89L17.63,344.88L17.94,346.44L18.31,344.8L18.33,344.7L19.01,343.35L19.24,343.7L19.25,343.73L19.53,345.65L19.8,343.29L19.82,343.19L19.88,342.96L20.38,344.14L20.4,344.22L20.89,346.46L21.31,345.64L21.32,345.59L22.99,344.83L23.02,344.88L23.03,344.9L23.87,345.63L23.96,345.32L23.97,345.28L24.9,344.08L24.93,344.19L24.94,344.2L25.22,345.02L25.76,344.54L25.78,344.44L25.85,344.29L26.12,345.44L26.28,345.17L26.3,345.21L26.97,346.29L27.13,345.73L27.15,345.58L27.8,344.88L27.97,345.22L27.98,345.23L28.2,345.64L28.34,344.84L28.35,344.73L28.89,343.72L29.11,344.72L29.13,344.83L29.34,346.14L29.71,344.53L29.92,345.47L29.93,345.45L30.17,344.46L30.65,345.39L30.66,345.39L31.63,346.26L31.65,346.34L32.78,344.49L32.91,344.83L32.93,344.89L33.51,346.15L33.87,345.43L33.88,345.39L34.88,346.05L34.97,345.73L34.98,345.71L35.73,343.45L35.95,344.33L35.97,344.41L36.19,345.27L36.64,343.93L36.65,343.84L37.04,342.69L37.32,344.38L37.34,344.48L38.17,346.46L38.25,346.32L38.26,346.24L38.68,346.42L39.27,345.05L39.33,345.14L39.35,345.2L39.6,346.22L39.96,344.48L39.99,344.54L40,344.58L40.44,346.19L40.69,344.76L40.71,344.66L41.52,341.21L41.7,342.1L41.72,342.28L42.25,343.74L42.52,343.25L42.54,343.24L42.81,343.29L42.88,343.84L42.9,344.09L43.27,345.6L43.68,344.88L43.7,344.93L43.76,345.2L43.91,344.72L44.44,345.08L44.46,345.08L44.55,344.94L44.71,346.02L44.73,346.07L45.85,344.43L45.86,344.38L46.4,344.85L46.5,344.05L46.52,343.97L46.68,344.11L46.89,343.48L46.9,343.28L47.1,342.74L47.29,344.57L47.31,344.75L47.38,345.19L47.84,343L47.86,342.91L48.01,342.14L48.21,343.26L48.59,342.91L48.6,343.04L48.68,343.62L49,341.78L49.26,342.51L49.27,342.41L49.51,341.35L49.73,343.56L50.12,341.79L50.14,341.89L50.21,342.26L50.57,340.24L50.58,340.25L50.6,340.26L51.08,343.86L51.43,341.9L51.45,341.91L51.63,342.86L52.09,341.3L52.24,341.71L52.25,341.86L52.86,345.24L53.07,342.98L53.09,342.94L53.43,344.12L53.53,342.8L53.55,342.68L54.32,341.46L54.37,341.79L54.38,342.17L54.74,343.64L55.17,342.84L55.19,342.91L56.47,346.29L56.53,345.92L56.54,345.75L56.68,346.45L57.12,345.14L57.32,345.35L57.33,345.37L57.62,344.71L57.93,345.62L57.94,345.81L58.14,346.34L58.27,345.46L58.38,345.51L58.39,345.47L58.55,346.1L59.06,344.63L59.17,345.33L59.18,345.44L59.25,346.04L59.63,343.46L59.88,345.11L59.9,345.18L60.19,343.01L60.43,344.78L60.45,344.78L60.58,346.3L60.88,343.57L61.01,343.73L61.03,343.57L62.2,346.4L62.41,345.96L62.43,345.94L62.74,346.34L63.08,344.88L63.23,345.46L63.25,345.56L63.35,346.03L63.67,343.78L63.68,343.66L63.8,342.9L64.26,345.22L64.28,345.44L64.31,345.66L64.92,343.57L64.93,343.51L65.53,346.4L65.78,345.22L65.8,345L65.89,340.48L66.11,346.32L66.45,344.59L66.47,344.61L66.75,345.6L66.76,345.71L67.21,346.06L67.4,345.08L67.42,344.94L67.81,345.06L67.96,344.33L67.97,344.29L68.22,344.6L68.58,343.32L68.79,344.08L68.81,344.15L69.4,346.3L69.45,344.4L69.46,343.22L69.58,342.39L70.22,342.93L70.24,343.14L70.61,342.81L70.85,344.33L71.04,344.26L71.06,344.3L71.11,344.61L71.67,343.6L71.68,343.47L72.16,342.01L72.34,344.25L72.35,344.37L72.56,342.92L72.57,342.73L73.05,344.36L73.72,338.89L73.74,338.85L73.95,339.04L74.15,338.41L74.17,338.18L74.38,337.29L74.6,338.4L74.62,338.49L74.75,338.17L74.91,339.37L74.93,339.49L75.32,343.85L75.87,342.51L75.88,342.44L76.11,341.05L76.46,342.98L76.48,343.05L77.12,346.46L77.15,342.83L77.16,341.72L77.18,344.47L77.22,338.95L77.92,343.81L77.94,343.96L78.03,344.45L78.28,343.48L78.7,344.09L78.71,344.11L79.58,345.89L79.83,345.07L79.85,345.01L80.67,342.85L80.68,342.71L80.83,341.97L81.29,343.61L81.31,344.12L81.32,344.99L82.02,341.08L82.04,341.09L82.2,341.56L82.45,339.38L82.48,339.51L82.5,339.53L83.54,345.81L83.6,343.21L83.62,342.58L84.67,327.14L84.76,328.28L84.78,328.8L84.96,343.94L85.36,321.95L85.37,319.81L85.6,188.65L85.61,153.02L85.67,10.09L86.25,320.22L86.27,321.71L86.65,344.38L87.12,337.31L87.13,337.27L87.4,339.26L87.64,334.41L87.85,337.16L87.86,337.68L89.37,345.14L89.43,345.03L89.44,344.98L89.59,345.57L89.92,344.46L89.93,344.33L90.47,345.59L90.65,343.16L90.84,343.28L90.86,343.27L91.04,343.1L91.21,343.89L91.23,344.03L91.6,346.02L92.06,344.87L92.08,344.86L92.48,346.14L92.91,345.43L92.93,345.38L93.57,345.38L93.66,345.09L93.67,345.01L94.02,345.32L94.51,342.92L94.67,343.51L94.69,343.57L95.1,344.34L95.12,344.44L95.28,344.26L95.86,344.81L95.89,344.79L95.91,344.81L96.4,344.91L96.56,344.47L96.58,344.45L99.99,346.4L100.14,345.94L100.15,345.9L100.94,344.89L101.06,345.64L101.08,345.76L103.42,344.18L103.49,344.47L103.51,344.54L104.46,345.7L104.47,345.68L104.49,345.62L104.73,345.39L105.06,346.03L105.07,346.08L105.14,346.26L105.83,345.98L105.85,345.97L107.04,346.02L107.08,345.92L107.1,345.9L108.14,345.85L108.18,345.78L108.2,345.75L109.38,345.79L109.39,345.72L109.6,345.48L109.9,346.29L110.08,346L110.09,346L111.8,345.54L111.82,345.55L112.79,345.87L112.88,345.73L112.89,345.71L114.29,346.07L114.38,345.78L114.4,345.75L115.35,345.42L115.37,345.41L116.68,345.38L116.71,345.44L116.72,345.46L117.53,346.47L117.68,346.16L117.69,346.02L117.78,345.46L118.27,346.46L118.39,346.23L118.41,346.24L119.05,345.9L119.28,346.09L119.3,346.11L119.81,345.62L120.21,346.08L120.22,346.08L121,345.79L121.12,345.95L121.13,345.97L121.33,346.44L121.88,345.93L121.89,345.92L123.16,345.69L123.17,345.72L123.19,345.73L123.86,345.87L123.98,345.68L123.99,345.66L125.27,346.16L125.29,346.17L127.02,345.69L127.03,345.72L129.79,346.4L129.8,346.37L131.1,346.05L131.11,346.06L132.52,346.15L132.53,346.17L133.68,346.28L133.69,346.26L134.88,346.19L134.9,346.2L138.65,346.25L138.67,346.26L139.73,346.33L139.77,346.28L139.79,346.26L145.37,346.46L145.39,346.47L150.26,346.24L150.28,346.25L160.48,345.75L160.5,345.72L163.37,346.16L163.39,346.17L163.51,346.35L163.95,345.65L163.97,345.56L164.56,340.83L164.94,343.22L164.95,343.4L165.34,345.96L165.7,343.86L165.71,343.61L166.11,340.06L166.2,345.85L166.37,344.57L166.38,344.9L167.05,346.42L167.2,346.37L167.22,346.39L168.32,346.36L168.33,346.37L169.7,346.3L169.72,346.3L171.3,346.42L171.31,346.4L171.33,346.4L172.65,346.46L172.67,346.47L230.2,346.44" style="vector-effect: non-scaling-stroke; fill: none; stroke: rgb(255, 165, 0); stroke-opacity: 1; stroke-width: 1px; opacity: 1;"/></g><g class="points"/><g class="text"/></g></g></g><g class="overplot"/><path class="xlines-above crisp" d="M362.4648002333042,420.9322506561679H600.3648293963254" style="fill: none; stroke-width: 1px; stroke: rgb(0, 0, 0); stroke-opacity: 1;"/><path class="ylines-above crisp" d="M362.9648002333042,63.83858267716535V420.4322506561679" style="fill: none; stroke-width: 1px; stroke: rgb(0, 0, 0); stroke-opacity: 1;"/><g class="overlines-above"/><g class="xaxislayer-above"><path class="x2tick ticks crisp" d="M0,420.4322506561679v-5" transform="translate(370.1548002333042,0)" style="stroke: rgb(0, 0, 0); stroke-opacity: 1; stroke-width: 1px;"/><path class="x2tick ticks crisp" d="M0,420.4322506561679v-5" transform="translate(414.85480023330416,0)" style="stroke: rgb(0, 0, 0); stroke-opacity: 1; stroke-width: 1px;"/><path class="x2tick ticks crisp" d="M0,420.4322506561679v-5" transform="translate(459.55480023330415,0)" style="stroke: rgb(0, 0, 0); stroke-opacity: 1; stroke-width: 1px;"/><path class="x2tick ticks crisp" d="M0,420.4322506561679v-5" transform="translate(504.2548002333042,0)" style="stroke: rgb(0, 0, 0); stroke-opacity: 1; stroke-width: 1px;"/><path class="x2tick ticks crisp" d="M0,420.4322506561679v-5" transform="translate(548.9548002333042,0)" style="stroke: rgb(0, 0, 0); stroke-opacity: 1; stroke-width: 1px;"/><path class="x2tick ticks crisp" d="M0,420.4322506561679v-5" transform="translate(593.6648002333042,0)" style="stroke: rgb(0, 0, 0); stroke-opacity: 1; stroke-width: 1px;"/><g class="x2tick"><text text-anchor="middle" x="0" y="434.6322506561679" transform="translate(370.1548002333042,0)" style="font-family: sans-serif; font-size: 11px; fill: rgb(0, 0, 0); fill-opacity: 1; white-space: pre;">0</text></g><g class="x2tick"><text text-anchor="middle" x="0" y="434.6322506561679" transform="translate(414.85480023330416,0)" style="font-family: sans-serif; font-size: 11px; fill: rgb(0, 0, 0); fill-opacity: 1; white-space: pre;">1000</text></g><g class="x2tick"><text text-anchor="middle" x="0" y="434.6322506561679" transform="translate(459.55480023330415,0)" style="font-family: sans-serif; font-size: 11px; fill: rgb(0, 0, 0); fill-opacity: 1; white-space: pre;">2000</text></g><g class="x2tick"><text text-anchor="middle" x="0" y="434.6322506561679" transform="translate(504.2548002333042,0)" style="font-family: sans-serif; font-size: 11px; fill: rgb(0, 0, 0); fill-opacity: 1; white-space: pre;">3000</text></g><g class="x2tick"><text text-anchor="middle" x="0" y="434.6322506561679" transform="translate(548.9548002333042,0)" style="font-family: sans-serif; font-size: 11px; fill: rgb(0, 0, 0); fill-opacity: 1; white-space: pre;">4000</text></g><g class="x2tick"><text text-anchor="middle" x="0" y="434.6322506561679" transform="translate(593.6648002333042,0)" style="font-family: sans-serif; font-size: 11px; fill: rgb(0, 0, 0); fill-opacity: 1; white-space: pre;">5000</text></g></g><g class="yaxislayer-above"><path class="y2tick ticks crisp" d="M363.4648002333042,0h5" transform="translate(0,410.33858267716533)" style="stroke: rgb(0, 0, 0); stroke-opacity: 1; stroke-width: 1px;"/><path class="y2tick ticks crisp" d="M363.4648002333042,0h5" transform="translate(0,335.56858267716535)" style="stroke: rgb(0, 0, 0); stroke-opacity: 1; stroke-width: 1px;"/><path class="y2tick ticks crisp" d="M363.4648002333042,0h5" transform="translate(0,260.80858267716536)" style="stroke: rgb(0, 0, 0); stroke-opacity: 1; stroke-width: 1px;"/><path class="y2tick ticks crisp" d="M363.4648002333042,0h5" transform="translate(0,186.03858267716535)" style="stroke: rgb(0, 0, 0); stroke-opacity: 1; stroke-width: 1px;"/><path class="y2tick ticks crisp" d="M363.4648002333042,0h5" transform="translate(0,111.26858267716534)" style="stroke: rgb(0, 0, 0); stroke-opacity: 1; stroke-width: 1px;"/><g class="y2tick"><text text-anchor="end" x="360.2648002333042" y="3.8499999999999996" transform="translate(0,410.33858267716533)" style="font-family: sans-serif; font-size: 11px; fill: rgb(0, 0, 0); fill-opacity: 1; white-space: pre;">0</text></g><g class="y2tick"><text text-anchor="end" x="360.2648002333042" y="3.8499999999999996" transform="translate(0,335.56858267716535)" style="font-family: sans-serif; font-size: 11px; fill: rgb(0, 0, 0); fill-opacity: 1; white-space: pre;">100</text></g><g class="y2tick"><text text-anchor="end" x="360.2648002333042" y="3.8499999999999996" transform="translate(0,260.80858267716536)" style="font-family: sans-serif; font-size: 11px; fill: rgb(0, 0, 0); fill-opacity: 1; white-space: pre;">200</text></g><g class="y2tick"><text text-anchor="end" x="360.2648002333042" y="3.8499999999999996" transform="translate(0,186.03858267716535)" style="font-family: sans-serif; font-size: 11px; fill: rgb(0, 0, 0); fill-opacity: 1; white-space: pre;">300</text></g><g class="y2tick"><text text-anchor="end" x="360.2648002333042" y="3.8499999999999996" transform="translate(0,111.26858267716534)" style="font-family: sans-serif; font-size: 11px; fill: rgb(0, 0, 0); fill-opacity: 1; white-space: pre;">400</text></g></g><g class="overaxes-above"/></g></g><g class="polarlayer"/><g class="ternarylayer"/><g class="geolayer"/><g class="funnelarealayer"/><g class="pielayer"/><g class="treemaplayer"/><g class="sunburstlayer"/><g class="glimages"/><defs id="topdefs-d3d380"><g class="clips"/><clipPath id="legendd3d380"><rect width="73" height="58" x="0" y="0"/></clipPath></defs><g class="layer-above"><g class="imagelayer"/><g class="shapelayer"/></g><g class="infolayer"><g class="legend" pointer-events="all" transform="translate(615.08,60)"><rect class="bg" shape-rendering="crispEdges" width="73" height="58" x="0" y="0" style="stroke: rgb(68, 68, 68); stroke-opacity: 1; fill: rgb(255, 255, 255); fill-opacity: 1; stroke-width: 0px;"/><g class="scrollbox" transform="" clip-path="url('#legendd3d380')"><g class="groups" transform=""><g class="traces" transform="translate(0,14.5)" style="opacity: 1;"><text class="legendtext" text-anchor="start" x="40" y="4.680000000000001" style="font-family: 'Open Sans', verdana, arial, sans-serif; font-size: 12px; fill: rgb(42, 63, 95); fill-opacity: 1; white-space: pre;">Time</text><g class="layers" style="opacity: 1;"><g class="legendfill"/><g class="legendlines"><path class="js-line" d="M5,0h30" style="fill: none; stroke: rgb(0, 154, 250); stroke-opacity: 1; stroke-width: 1px;"/></g><g class="legendsymbols"><g class="legendpoints"/></g></g><rect class="legendtoggle" x="0" y="-9.5" width="67.84375" height="19" style="fill: rgb(0, 0, 0); fill-opacity: 0;"/></g></g><g class="groups" transform="translate(0,10)"><g class="traces" transform="translate(0,33.5)" style="opacity: 1;"><text class="legendtext" text-anchor="start" x="40" y="4.680000000000001" style="font-family: 'Open Sans', verdana, arial, sans-serif; font-size: 12px; fill: rgb(42, 63, 95); fill-opacity: 1; white-space: pre;">Freq</text><g class="layers" style="opacity: 1;"><g class="legendfill"/><g class="legendlines"><path class="js-line" d="M5,0h30" style="fill: none; stroke: rgb(255, 165, 0); stroke-opacity: 1; stroke-width: 1px;"/></g><g class="legendsymbols"><g class="legendpoints"/></g></g><rect class="legendtoggle" x="0" y="-9.5" width="67.84375" height="19" style="fill: rgb(0, 0, 0); fill-opacity: 0;"/></g></g></g><rect class="scrollbar" rx="20" ry="3" width="0" height="0" x="0" y="0" style="fill: rgb(128, 139, 164); fill-opacity: 1;"/></g><g class="g-gtitle"/><g class="g-xtitle"><text class="xtitle" x="213.1222222222222" y="462.140625" text-anchor="middle" style="font-family: sans-serif; font-size: 15px; fill: rgb(0, 0, 0); opacity: 1; font-weight: normal; white-space: pre;">t[s]</text></g><g class="g-x2title"><text class="x2title" x="481.9148148148148" y="462.140625" text-anchor="middle" style="font-family: sans-serif; font-size: 15px; fill: rgb(0, 0, 0); opacity: 1; font-weight: normal; white-space: pre;">f[hz]</text></g><g class="g-ytitle"/><g class="g-y2title"/></g></svg>