<svg class="main-svg" xmlns="http://www.w3.org/2000/svg" xmlns:xlink="http://www.w3.org/1999/xlink" width="700" height="500" style="" viewBox="0 0 700 500"><rect x="0" y="0" width="700" height="500" style="fill: rgb(255, 255, 255); fill-opacity: 1;"/><defs id="defs-fad3d9"><g class="clips"><clipPath id="clipfad3d9xyplot" class="plotclip"><rect width="236.90002916302126" height="356.5936679790026"/></clipPath><clipPath id="clipfad3d9x2y2plot" class="plotclip"><rect width="236.90002916302123" height="356.5936679790026"/></clipPath><clipPath class="axesclip" id="clipfad3d9x"><rect x="86.46480023330417" y="0" width="236.90002916302126" height="500"/></clipPath><clipPath class="axesclip" id="clipfad3d9y"><rect x="0" y="63.83858267716535" width="700" height="356.5936679790026"/></clipPath><clipPath class="axesclip" id="clipfad3d9xy"><rect x="86.46480023330417" y="63.83858267716535" width="236.90002916302126" height="356.5936679790026"/></clipPath><clipPath class="axesclip" id="clipfad3d9y2"><rect x="0" y="63.83858267716535" width="700" height="356.5936679790026"/></clipPath><clipPath class="axesclip" id="clipfad3d9xy2"><rect x="86.46480023330417" y="63.83858267716535" width="236.90002916302126" height="356.5936679790026"/></clipPath><clipPath class="axesclip" id="clipfad3d9x2"><rect x="363.4648002333042" y="0" width="236.90002916302123" height="500"/></clipPath><clipPath class="axesclip" id="clipfad3d9x2y"><rect x="363.4648002333042" y="63.83858267716535" width="236.90002916302123" height="356.5936679790026"/></clipPath><clipPath class="axesclip" id="clipfad3d9x2y2"><rect x="363.4648002333042" y="63.83858267716535" width="236.90002916302123" height="356.5936679790026"/></clipPath></g><g class="gradients"/></defs><g class="bglayer"/><g class="layer-below"><g class="imagelayer"/><g class="shapelayer"/></g><g class="cartesianlayer"><g class="subplot xy"><g class="layer-subplot"><g class="shapelayer"/><g class="imagelayer"/></g><g class="gridlayer"><g class="x"><path class="xgrid crisp" transform="translate(93.16480023330418,0)" d="M0,63.83858267716535v356.5936679790026" style="stroke: rgb(0, 0, 0); stroke-opacity: 0.1; stroke-width: 0.5px;"/><path class="xgrid crisp" transform="translate(167.66480023330416,0)" d="M0,63.83858267716535v356.5936679790026" style="stroke: rgb(0, 0, 0); stroke-opacity: 0.1; stroke-width: 0.5px;"/><path class="xgrid crisp" transform="translate(242.16480023330416,0)" d="M0,63.83858267716535v356.5936679790026" style="stroke: rgb(0, 0, 0); stroke-opacity: 0.1; stroke-width: 0.5px;"/><path class="xgrid crisp" transform="translate(316.66480023330416,0)" d="M0,63.83858267716535v356.5936679790026" style="stroke: rgb(0, 0, 0); stroke-opacity: 0.1; stroke-width: 0.5px;"/></g><g class="y"><path class="ygrid crisp" transform="translate(0,390.49858267716536)" d="M86.46480023330417,0h236.90002916302126" style="stroke: rgb(0, 0, 0); stroke-opacity: 0.1; stroke-width: 0.5px;"/><path class="ygrid crisp" transform="translate(0,326.06858267716535)" d="M86.46480023330417,0h236.90002916302126" style="stroke: rgb(0, 0, 0); stroke-opacity: 0.1; stroke-width: 0.5px;"/><path class="ygrid crisp" transform="translate(0,261.64858267716534)" d="M86.46480023330417,0h236.90002916302126" style="stroke: rgb(0, 0, 0); stroke-opacity: 0.1; stroke-width: 0.5px;"/><path class="ygrid crisp" transform="translate(0,197.21858267716533)" d="M86.46480023330417,0h236.90002916302126" style="stroke: rgb(0, 0, 0); stroke-opacity: 0.1; stroke-width: 0.5px;"/><path class="ygrid crisp" transform="translate(0,132.79858267716534)" d="M86.46480023330417,0h236.90002916302126" style="stroke: rgb(0, 0, 0); stroke-opacity: 0.1; stroke-width: 0.5px;"/><path class="ygrid crisp" transform="translate(0,68.36858267716535)" d="M86.46480023330417,0h236.90002916302126" style="stroke: rgb(0, 0, 0); stroke-opacity: 0.1; stroke-width: 0.5px;"/></g></g><g class="zerolinelayer"/><path class="xlines-below"/><path class="ylines-below"/><g class="overlines-below"/><g class="xaxislayer-below"/><g class="yaxislayer-below"/><g class="overaxes-below"/><g class="plot" transform="translate(86.46480023330417,63.83858267716535)" clip-path="url('#clipfad3d9xyplot')"><g class="scatterlayer mlayer"><g class="trace scatter trace57296d" style="stroke-miterlimit: 2; opacity: 1;"><g class="fills"/><g class="errorbars"/><g class="lines"><path class="js-line" d="M6.7,197.82L6.85,201.6L6.86,195.89L6.89,201.24L6.89,202.32L7.06,217.62L7.07,179.39L7.07,175.03L7.11,120.98L7.17,270.29L7.27,238.95L7.27,252.87L7.55,92.28L7.86,340.01L7.95,209.88L7.95,204.63L8.43,325.42L8.7,43.22L8.7,44.26L8.71,49.82L9,334.55L9.27,41.12L9.46,174.16L9.47,176.44L9.56,332.29L9.83,47.02L10.22,242.19L10.23,244.42L10.39,46.14L10.75,340.02L10.98,127.87L10.99,135.25L11.32,336.13L11.53,62.62L11.74,194.6L11.75,194.4L11.88,346.5L12.1,59.9L12.5,224.41L12.51,221.28L13.01,318.54L13.25,70.3L13.26,105.65L13.27,112.94L13.57,310.6L13.82,42.42L14.02,234.93L14.03,232.17L14.38,33.78L14.74,322.23L14.78,207.09L14.79,208.07L15.32,318.17L15.52,25.83L15.54,163.84L15.55,174.26L15.87,324.38L16.09,22.83L16.3,211.79L16.31,201.76L16.45,316.99L16.65,22.94L17.06,225.45L17.07,220.79L17.58,317.29L17.79,10.09L17.82,168.55L17.83,175.75L18.15,323.56L18.35,27.72L18.58,109.73L18.59,104.86L18.92,34.44L19.27,329.1L19.34,233.46L19.35,238.18L19.49,29.07L19.84,314.79L20.1,163.39L20.11,167.98L20.43,308.72L20.62,36.88L20.86,143.15L20.87,141.1L21.19,47.61L21.57,314.57L21.62,262.69L21.63,262.37L21.76,56.14L22.13,311.17L22.38,184.65L22.39,189.99L22.7,317.88L22.9,66.7L23.14,139.94L23.15,138.68L23.27,320.66L23.47,70.69L23.9,249.34L23.91,249.69L24.05,75.24L24.4,321.26L24.66,213L24.67,224.01L24.96,314.76L25.18,74.94L25.42,147.9L25.43,151.11L25.53,307.14L25.74,75.68L26.18,267.47L26.19,267.76L26.67,302.96L26.9,66.39L26.94,236.02L26.95,235.03L27.23,302.92L27.47,64.51L27.7,160.74L27.71,159.66L27.8,291.69L28.04,54.22L28.46,256.99L28.47,253.31L28.96,295.59L29.17,45.78L29.22,192.17L29.23,194.1L29.53,299.16L29.74,41.92L29.98,163.81L29.99,167.87L30.3,45.43L30.66,302.06L30.74,236.59L30.75,231.91L30.87,42.04L31.23,309.75L31.5,211.53L31.51,218.53L31.79,302.09L32.01,47.44L32.26,183.83L32.27,181.45L32.36,303.42L32.58,50.73L33.02,214.07L33.03,207.74L33.49,294.98L33.71,56.68L33.78,209.5L33.79,212.73L34.06,293.71L34.27,66.53L34.54,163.91L34.55,162.24L34.63,292.23L34.84,76.61L35.3,202.76L35.31,204.82L35.42,79.7L35.83,296.55L36.06,223.46L36.07,227.84L36.4,296.8L36.56,78.9L36.82,174.24L36.83,175.99L36.97,294.41L37.13,79.15L37.58,227.02L37.59,224.52L37.7,82.66L38.1,298.23L38.34,248.06L38.35,250.78L38.66,295.9L38.83,86.34L39.1,169.92L39.11,168.99L39.23,294.3L39.4,89.36L39.86,203.23L39.87,199.18L40.37,290.25L40.53,88.93L40.62,239.85L40.63,244.06L40.93,283.89L41.1,92.84L41.38,164.89L41.39,164.94L41.5,280.89L41.7,94.32L42.14,201.5L42.15,200.96L42.63,270.44L42.83,96.72L42.9,240.11L42.91,238.81L43.23,270.09L43.4,97.54L43.66,154.57L43.67,153.39L43.97,99.43L44.36,272.97L44.42,203.68L44.43,201.88L44.94,272.01L45.11,97.07L45.18,222.11L45.19,219.61L45.5,272.73L45.69,101.62L45.94,146.12L45.95,149.63L46.07,277.34L46.26,98.5L46.7,197.5L46.71,201.66L47.2,273.69L47.39,94.86L47.46,222.17L47.47,222.28L47.77,272.94L47.96,91.62L48.22,171.31L48.23,176.18L48.53,85.08L48.92,272.88L48.98,217.76L48.99,219.25L49.49,274.98L49.66,81.74L49.74,212.44L49.75,211.22L50.06,279.34L50.23,90.43L50.5,190.28L50.51,192.7L50.8,90.07L51.19,281.59L51.26,224.69L51.27,223.89L51.37,92.64L51.76,279.62L52.02,208.4L52.03,211.85L52.33,282.32L52.51,97.24L52.78,198.16L52.79,200.51L53.07,96.77L53.46,283.18L53.54,229.83L53.55,228.92L54.03,284.22L54.22,96.12L54.3,208.47L54.31,207.49L54.6,280.19L54.79,93.86L55.06,197.1L55.07,196.93L55.16,278.06L55.35,95.73L55.82,213.79L55.83,212.12L55.92,89.92L56.3,273.17L56.58,201.35L56.59,201.1L56.87,276.87L57.05,91.47L57.34,188.83L57.35,191.22L57.44,280.13L57.62,95.4L58.1,211.67L58.11,211.23L58.19,97.76L58.58,280.72L58.86,208.78L58.87,212.53L59.15,278.57L59.33,100.07L59.62,199.07L59.63,201.82L59.71,277.62L59.89,101.82L60.38,206.79L60.39,204.93L60.46,105.61L60.85,276.19L61.14,215.69L61.15,219.37L61.41,273.43L61.6,111.22L61.9,206.24L61.91,207.86L62.18,112.47L62.55,270.14L62.66,205.31L62.67,206.57L62.75,107.19L63.12,266.75L63.42,229.75L63.43,231.6L63.7,265.47L63.88,106.44L64.17,200.5L64.18,202.09L64.46,111.89L64.83,268.53L64.93,209.32L64.94,210.62L65.4,269.52L65.59,109.5L65.69,233.74L65.7,236.59L65.97,269.58L66.16,109.85L66.45,198.76L66.46,198.83L66.73,111.13L67.11,268.98L67.21,222.31L67.22,223.23L67.3,108.26L67.68,267.97L67.97,221.92L67.98,221.12L68.24,268.48L68.43,110.83L68.73,195.75L68.74,196.13L69,110.93L69.37,269.88L69.49,223.65L69.5,222.88L69.94,265.8L70.14,109.84L70.25,213.77L70.26,213.13L70.51,264.39L70.71,107.79L71.01,201.97L71.02,202.16L71.07,258.77L71.27,110.69L71.77,215.83L71.78,216.21L72.21,253.58L72.41,110.96L72.53,212.73L72.54,212.75L72.82,254.58L72.97,115.91L73.29,184.74L73.3,183.97L73.54,118.85L73.96,258.94L74.05,214.31L74.06,214.36L74.11,119.53L74.52,255.51L74.81,215.31L74.82,215.82L75.09,256.78L75.24,127.48L75.57,177.31L75.58,176.98L75.66,257.96L75.82,128.77L76.33,231.64L76.34,230.97L76.39,134.4L76.79,255.22L77.09,210.25L77.1,210.24L77.37,257L77.57,138.46L77.85,187.35L77.86,189.51L78.13,139.22L78.5,254.97L78.61,226.09L78.62,223.51L79.06,255.36L79.26,138.37L79.37,202.45L79.38,202.93L79.63,255.49L79.84,141.13L80.13,196.4L80.14,197.55L80.41,139.81L80.77,252.99L80.89,209.56L80.9,205.53L81.34,249.17L81.54,139.08L81.65,215.29L81.66,216.48L81.9,248.99L82.12,140.18L82.41,193.25L82.42,193.23L82.7,141.24L83.07,249.77L83.17,199.49L83.18,197.08L83.64,252.18L83.84,138.17L83.93,217.51L83.94,218.16L84.21,249.79L84.41,134.63L84.69,184.31L84.7,186.19L84.97,135.1L85.35,252.47L85.45,197.04L85.46,194.27L85.54,132.76L85.91,254.01L86.21,203.88L86.22,204.3L86.48,253.54L86.67,134.26L86.97,195.71L86.98,198.2L87.04,254.48L87.24,133.91L87.73,191.23L87.74,188.53L88.18,254.98L88.37,131.73L88.49,204.29L88.5,206.76L88.75,252.49L88.95,133.81L89.25,206.16L89.26,208.16L89.51,133.15L89.88,251.3L90.01,182L90.02,180.66L90.08,133.97L90.45,252.08L90.77,221.81L90.78,224.03L91.03,249.49L91.21,135.93L91.53,202.03L91.54,202.75L91.59,251.18L91.77,137.01L92.29,183.18L92.3,182.03L92.35,137.52L92.72,246.82L93.05,231.24L93.06,231.86L93.3,246.04L93.48,141.77L93.81,193.96L93.82,194.87L94.09,141.42L94.43,244.91L94.57,194.17L94.58,193.19L95.01,247.39L95.23,137.62L95.33,225.42L95.34,225.65L95.58,245.38L95.79,137.15L96.09,201.8L96.1,203.16L96.15,246.62L96.36,136.96L96.85,188.1L96.86,185.6L96.92,135.31L97.28,247.84L97.61,224.85L97.62,225.48L97.85,245.94L98.06,137.63L98.37,203.77L98.38,204.51L98.42,246.74L98.63,134.82L99.13,173.1L99.14,171.9L99.56,248.17L99.76,137.63L99.89,230.71L99.9,231.32L100.12,247.25L100.33,137.21L100.65,201.46L100.66,203.21L100.9,137.86L101.26,250.22L101.41,179.83L101.42,179.43L101.82,246.17L102.03,139.21L102.17,230.31L102.18,229.57L102.4,248.01L102.6,142.13L102.93,202.18L102.94,204.89L102.96,246.52L103.17,142.43L103.69,187.53L103.7,186.54L104.1,245.28L104.31,145.58L104.45,218.84L104.46,218.49L104.67,244.87L104.88,146.73L105.21,212.84L105.22,216.42L105.23,243.76L105.46,148.78L105.97,186.01L105.98,184.95L106.37,239.01L106.59,147.18L106.73,221.96L106.74,222.19L107.04,234.57L107.17,148.35L107.49,228.21L107.5,230.03L107.73,147.84L108.17,234.22L108.25,181.24L108.26,179.72L108.74,232.12L108.87,148.55L109.01,223.39L109.02,222.53L109.31,232.75L109.44,148.27L109.77,223.62L109.78,224.26L110.01,145.95L110.45,232.91L110.53,178.9L110.54,177.03L111.01,231.15L111.14,145.42L111.29,219.73L111.3,218.99L111.58,232.06L111.71,148.27L112.05,219.13L112.06,220.3L112.14,230.84L112.27,147.81L112.81,182.36L112.82,179.85L112.84,149.49L113.29,231.05L113.57,213.2L113.58,212.13L113.86,229.98L113.98,153L114.33,220.85L114.34,221.49L114.42,230.93L114.54,155.11L115.09,169.57L115.1,167.52L115.11,157.05L115.56,229.96L115.85,211.99L115.86,212.73L116.14,228.98L116.28,157.55L116.61,221.59L116.62,222.04L116.84,157.1L117.28,231.89L117.37,166.84L117.38,166.53L117.84,232.24L117.97,156.81L118.13,222.42L118.14,223.06L118.42,233.15L118.58,158.23L118.89,222.58L118.9,222.69L119.14,159.26L119.55,234.61L119.65,170.95L119.66,169.74L120.11,232.79L120.26,159.25L120.41,221.42L120.42,221.02L120.68,234.71L120.88,160.12L121.17,217.88L121.18,218.61L121.25,234.99L121.45,157.93L121.93,172.25L121.94,171.37L122.38,234.34L122.59,155.58L122.69,216.42L122.7,216.07L122.95,234.15L123.15,154.56L123.45,220.9L123.46,220.72L123.51,232.5L123.72,154.43L124.21,171.74L124.22,170.97L124.28,154.55L124.64,228.95L124.97,215.89L124.98,215.28L125.22,227.64L125.42,155.68L125.73,211.12L125.74,209.58L125.78,227.94L125.99,154.22L126.49,165.29L126.5,165.31L126.56,153.84L126.92,225.98L127.25,210.23L127.26,209.96L127.49,226.17L127.69,152.86L128.01,207.66L128.02,208.28L128.25,154.47L128.64,225.1L128.77,169.33L128.78,169.5L128.83,155.53L129.2,225.39L129.53,212.71L129.54,213.38L129.77,225.8L129.97,156.46L130.29,210.37L130.3,211.11L130.33,225.31L130.53,156.23L131.05,176.37L131.06,176.07L131.47,224L131.67,154.08L131.81,210.49L131.82,210.65L132.06,222.87L132.24,154.37L132.57,209.16L132.58,210.14L132.81,155.29L133.22,223.68L133.33,177.77L133.34,177.49L133.77,223.42L133.94,154.46L134.09,217.37L134.1,217.51L134.35,223.94L134.51,155.48L134.85,212.39L134.86,212.88L135.08,155.21L135.48,224.56L135.61,179.79L135.62,178.9L135.64,157.05L136.05,224.3L136.37,217.04L136.38,215.83L136.6,223.23L136.78,159.35L137.13,213.36L137.14,213.63L137.18,223.09L137.37,160.88L137.89,171.49L137.9,170.27L138.32,222.71L138.5,160.07L138.65,210.69L138.66,210.67L138.88,222.27L139.06,161.87L139.41,211.85L139.42,212.41L139.63,160.96L140.08,224.6L140.17,171.9L140.18,170.87L140.2,161.43L140.65,226.05L140.93,212.51L140.94,212.86L141.21,225.96L141.37,160.61L141.69,214.01L141.7,214.32L141.94,159.56L142.35,227.35L142.45,168.36L142.46,167.36L142.92,226.53L143.07,157.12L143.21,214.02L143.22,214.59L143.48,226.55L143.64,157.75L143.97,211.9L143.98,212.78L144.05,226.21L144.21,157.52L144.73,171.74L144.74,172.12L144.77,157.7L145.18,225.31L145.49,215.6L145.5,216.56L145.75,225.01L145.91,158.89L146.25,219.75L146.26,220.88L146.33,224.27L146.48,159.83L147.01,175.4L147.02,174.61L147.46,224.8L147.61,160.63L147.77,221.51L147.78,221.9L148.03,224.29L148.18,160.37L148.53,216.94L148.54,216.81L148.75,161.83L149.16,225.88L149.29,171.94L149.3,170.86L149.32,162.25L149.74,226.21L150.05,222.86L150.06,223.09L150.3,225.84L150.46,163.04L150.81,214.76L150.82,214.72L151.03,163.02L151.43,226.43L151.57,170.3L151.58,169.84L152,224.43L152.17,162.84L152.33,223.38L152.34,222.58L152.56,224.52L152.74,161.36L153.09,210.04L153.1,209.47L153.14,224.03L153.3,161.93L153.85,170.68L153.86,169.37L154.03,222.49L154.44,162.07L154.61,214.65L154.62,214.01L155,164.3L155.16,221.27L155.37,209.25L155.38,209.81L155.4,220.35L155.57,164.72L156.13,166.59L156.14,165.94L156.14,165.01L156.54,220.73L156.89,219.99L156.9,220.25L157.27,167.62L157.47,222.16L157.65,211.5L157.66,212.31L157.84,167.32L158.03,221.88L158.41,168.57L158.42,168.47L159.03,166.57L159.17,223.31L159.17,220.46L159.18,219.61L159.6,165.13L159.74,221.99L159.93,211.74L159.94,211.79L160.16,164L160.3,222.37L160.69,171.33L160.7,171.63L161.3,161.69L161.44,222.81L161.45,219.34L161.46,218.55L161.87,161.82L162.02,223.29L162.21,213.06L162.22,213.96L162.43,160.97L162.58,223.54L162.97,177.55L162.98,177.18L163,161.29L163.15,225.15L163.73,213.08L163.74,211.96L164.13,161.82L164.28,223.21L164.49,214.99L164.5,215.11L164.7,161.55L164.85,223.28L165.25,169.39L165.26,168.02L165.27,163.04L165.42,223.9L166.01,207.64L166.02,206.26L166.4,164.65L166.56,223.65L166.77,211.16L166.78,211.38L166.97,167.23L167.13,224.43L167.53,169.16L167.54,169.21L167.55,167.76L167.69,224.04L168.29,206.95L168.3,206.74L168.68,168.37L168.83,222.86L169.05,211.96L169.06,212.42L169.25,168.94L169.65,221.77L169.81,169.78L169.82,169.67L170.22,221.31L170.4,168.59L170.57,206.83L170.58,206.45L170.79,222.01L170.98,168.92L171.33,212.16L171.34,212.96L171.54,168.89L171.92,223.69L172.09,171.68L172.1,171.18L172.1,168.96L172.49,223.82L172.85,206.68L172.86,206.9L173.05,223.32L173.25,168.33L173.61,221.76L173.62,222.52L173.62,223.11L173.83,168.72L174.37,172.46L174.38,172.02L174.75,220.45L174.96,166.93L175.13,210.38L175.14,209.92L175.32,219.2L175.53,167.38L175.89,217.56L175.9,216.98L176.1,167.27L176.46,217.68L176.65,168L176.66,167.37L177.03,217.65L177.23,166.46L177.41,209.72L177.42,209.07L177.59,216.96L177.8,166.82L178.17,212.19L178.18,211.8L178.37,166.09L178.73,214.96L178.93,167.2L178.94,167.71L179.29,214.42L179.69,209.55L179.7,208.87L179.91,213.64L180.07,168.57L180.45,212.26L180.46,212.28L180.81,214.79L181.21,167.87L181.22,167.94L181.38,215.8L181.78,167.3L181.97,203.6L181.98,203.41L182.35,167.74L182.51,216.03L182.73,212.23L182.74,212.32L183.08,216.06L183.49,166.75L183.49,169.33L183.5,170.31L183.64,216.08L184.06,166.78L184.25,207.89L184.26,208.36L184.46,214.32L184.62,165.82L185.01,211.76L185.02,212.31L185.19,166.18L185.34,215.24L185.77,176.93L185.78,177.84L185.91,214.34L186.32,168.12L186.53,211.79L186.54,210.98L186.89,168.83L187.05,214.1L187.29,211.58L187.3,211.5L187.46,170.58L187.61,214.78L188.05,179.4L188.06,180.18L188.47,213.5L188.6,170.97L188.81,208.46L188.82,207.6L189.17,170.99L189.37,213.48L189.57,211.21L189.58,211.56L190.19,215.78L190.3,170.76L190.33,181.48L190.34,181.51L190.76,216.46L190.87,172.28L191.09,205.81L191.1,205.29L191.32,216.89L191.44,173.46L191.85,211.22L191.86,210.71L192.01,173.93L192.46,218.05L192.61,179.01L192.62,178.57L193.02,218.13L193.15,174.97L193.37,203.4L193.38,202.46L193.59,217.04L193.71,175.75L194.13,207.88L194.14,208.5L194.28,177.09L194.73,216.79L194.89,179.24L194.9,179.7L195.3,217.19L195.45,177.24L195.65,201.34L195.66,200.98L195.87,217.48L196.02,178.2L196.41,210.81L196.42,211.6L196.43,217.32L197.15,177.36L197.17,181.31L197.18,181.23L197.57,217.5L197.71,177.84L197.93,201.94L197.94,201.5L198.14,217.16L198.28,178.36L198.69,214.35L198.7,214.77L198.85,177.97L199.28,217.88L199.45,180.31L199.46,180.15L199.84,218.16L200.03,178.62L200.21,204.07L200.22,204.43L200.41,217.65L200.59,179.43L200.97,217L200.98,217.45L201.17,179.59L201.54,218.17L201.73,180.04L201.74,180.07L202.11,217.4L202.33,179.23L202.49,204.82L202.5,204.23L202.89,179.07L203.25,217.13L203.25,216.23L203.26,215.69L203.46,177.88L203.82,215.97L204.01,179.99L204.02,179.5L204.03,177.55L204.39,216.03L204.77,202.36L204.78,201.85L204.95,215.53L205.16,177.66L205.53,212.56L205.54,212.13L205.73,177.43L206.09,214.62L206.29,177.95L206.3,177.97L206.66,214.12L206.87,177.5L207.05,202.58L207.06,202.38L207.44,176.52L207.8,213.87L207.81,211.39L207.82,210.96L208.37,213.46L208.57,176.2L208.58,175.93L208.94,213.81L209.14,175.3L209.33,203.18L209.34,202.97L209.51,214.25L209.71,175.52L210.09,208.37L210.1,207.86L210.64,213.58L210.84,175.18L210.85,177.72L210.86,178.61L211.21,214.5L211.41,175.26L211.61,204.84L211.62,204.6L211.78,214.31L211.98,175.4L212.37,207.27L212.38,207.41L212.55,175.52L212.91,212.79L213.13,183.52L213.14,184.16L213.48,212.29L213.68,176.1L213.89,205.51L213.9,204.46L214.04,211.26L214.25,176.2L214.65,208.16L214.66,208.23L214.81,176.8L215.19,210.55L215.41,182.87L215.42,182.95L215.85,210.6L215.95,179.16L216.17,201.7L216.18,200.8L216.41,211.27L216.52,179.57L216.93,209.24L216.94,209.13L217.08,180.19L217.55,211.93L217.69,181.63L217.7,181.78L218.12,213.15L218.25,180.73L218.45,200.62L218.46,199.66L218.68,213.96L218.81,180.52L219.21,207.31L219.22,206.83L219.82,214.49L219.96,180.56L219.97,183.08L219.98,183.33L220.38,215.07L220.52,180.23L220.73,196.34L220.74,195.12L220.95,214.48L221.08,180.49L221.49,204.77L221.5,205.38L221.52,214.08L221.65,180.73L222.25,183.76L222.26,184.15L222.65,214L222.8,180.82L223.01,193.38L223.02,192.72L223.36,180.75L223.55,213.48L223.77,209.56L223.78,210.16L223.94,180.52L224.11,214.36L224.53,185.38L224.54,185.5L225.07,180.51L225.25,214.41L225.29,194.46L225.3,194.32L225.64,180.82L225.82,214.96L226.05,211.65L226.06,211.73L226.39,215.4L226.77,180.67L226.81,183.92L226.82,184.15L226.95,214.62L227.34,180.85L227.57,196.13L227.58,196.42L227.9,181.66L228.09,214.58L228.33,210.14L228.34,210.24L228.66,214.82L229.07,181.67L229.09,185.68L229.1,185.81L229.63,181.72L229.8,215.33L229.85,197.88L229.86,197.42L230.05,210.34L230.2,182.03" style="vector-effect: non-scaling-stroke; fill: none; stroke: rgb(0, 154, 250); stroke-opacity: 1; stroke-width: 1px; opacity: 1;"/></g><g class="points"/><g class="text"/></g></g></g><g class="overplot"/><path class="xlines-above crisp" d="M85.46480023330417,420.9322506561679H323.36482939632543" style="fill: none; stroke-width: 1px; stroke: rgb(0, 0, 0); stroke-opacity: 1;"/><path class="ylines-above crisp" d="M85.96480023330417,63.83858267716535V420.4322506561679" style="fill: none; stroke-width: 1px; stroke: rgb(0, 0, 0); stroke-opacity: 1;"/><g class="overlines-above"/><g class="xaxislayer-above"><path class="xtick ticks crisp" d="M0,420.4322506561679v-5" transform="translate(93.16480023330418,0)" style="stroke: rgb(0, 0, 0); stroke-opacity: 1; stroke-width: 1px;"/><path class="xtick ticks crisp" d="M0,420.4322506561679v-5" transform="translate(167.66480023330416,0)" style="stroke: rgb(0, 0, 0); stroke-opacity: 1; stroke-width: 1px;"/><path class="xtick ticks crisp" d="M0,420.4322506561679v-5" transform="translate(242.16480023330416,0)" style="stroke: rgb(0, 0, 0); stroke-opacity: 1; stroke-width: 1px;"/><path class="xtick ticks crisp" d="M0,420.4322506561679v-5" transform="translate(316.66480023330416,0)" style="stroke: rgb(0, 0, 0); stroke-opacity: 1; stroke-width: 1px;"/><g class="xtick"><text text-anchor="middle" x="0" y="434.6322506561679" transform="translate(93.16480023330418,0)" style="font-family: sans-serif; font-size: 11px; fill: rgb(0, 0, 0); fill-opacity: 1; white-space: pre;">0</text></g><g class="xtick"><text text-anchor="middle" x="0" y="434.6322506561679" transform="translate(167.66480023330416,0)" style="font-family: sans-serif; font-size: 11px; fill: rgb(0, 0, 0); fill-opacity: 1; white-space: pre;">1</text></g><g class="xtick"><text text-anchor="middle" x="0" y="434.6322506561679" transform="translate(242.16480023330416,0)" style="font-family: sans-serif; font-size: 11px; fill: rgb(0, 0, 0); fill-opacity: 1; white-space: pre;">2</text></g><g class="xtick"><text text-anchor="middle" x="0" y="434.6322506561679" transform="translate(316.66480023330416,0)" style="font-family: sans-serif; font-size: 11px; fill: rgb(0, 0, 0); fill-opacity: 1; white-space: pre;">3</text></g></g><g class="yaxislayer-above"><path class="ytick ticks crisp" d="M86.46480023330417,0h5" transform="translate(0,390.49858267716536)" style="stroke: rgb(0, 0, 0); stroke-opacity: 1; stroke-width: 1px;"/><path class="ytick ticks crisp" d="M86.46480023330417,0h5" transform="translate(0,326.06858267716535)" style="stroke: rgb(0, 0, 0); stroke-opacity: 1; stroke-width: 1px;"/><path class="ytick ticks crisp" d="M86.46480023330417,0h5" transform="translate(0,261.64858267716534)" style="stroke: rgb(0, 0, 0); stroke-opacity: 1; stroke-width: 1px;"/><path class="ytick ticks crisp" d="M86.46480023330417,0h5" transform="translate(0,197.21858267716533)" style="stroke: rgb(0, 0, 0); stroke-opacity: 1; stroke-width: 1px;"/><path class="ytick ticks crisp" d="M86.46480023330417,0h5" transform="translate(0,132.79858267716534)" style="stroke: rgb(0, 0, 0); stroke-opacity: 1; stroke-width: 1px;"/><path class="ytick ticks crisp" d="M86.46480023330417,0h5" transform="translate(0,68.36858267716535)" style="stroke: rgb(0, 0, 0); stroke-opacity: 1; stroke-width: 1px;"/><g class="ytick"><text text-anchor="end" x="83.26480023330417" y="3.8499999999999996" transform="translate(0,390.49858267716536)" style="font-family: sans-serif; font-size: 11px; fill: rgb(0, 0, 0); fill-opacity: 1; white-space: pre;">-0.2</text></g><g class="ytick"><text text-anchor="end" x="83.26480023330417" y="3.8499999999999996" transform="translate(0,326.06858267716535)" style="font-family: sans-serif; font-size: 11px; fill: rgb(0, 0, 0); fill-opacity: 1; white-space: pre;">-0.1</text></g><g class="ytick"><text text-anchor="end" x="83.26480023330417" y="3.8499999999999996" transform="translate(0,261.64858267716534)" style="font-family: sans-serif; font-size: 11px; fill: rgb(0, 0, 0); fill-opacity: 1; white-space: pre;">0.0</text></g><g class="ytick"><text text-anchor="end" x="83.26480023330417" y="3.8499999999999996" transform="translate(0,197.21858267716533)" style="font-family: sans-serif; font-size: 11px; fill: rgb(0, 0, 0); fill-opacity: 1; white-space: pre;">0.1</text></g><g class="ytick"><text text-anchor="end" x="83.26480023330417" y="3.8499999999999996" transform="translate(0,132.79858267716534)" style="font-family: sans-serif; font-size: 11px; fill: rgb(0, 0, 0); fill-opacity: 1; white-space: pre;">0.2</text></g><g class="ytick"><text text-anchor="end" x="83.26480023330417" y="3.8499999999999996" transform="translate(0,68.36858267716535)" style="font-family: sans-serif; font-size: 11px; fill: rgb(0, 0, 0); fill-opacity: 1; white-space: pre;">0.3</text></g></g><g class="overaxes-above"/></g><g class="subplot x2y2"><g class="layer-subplot"><g class="shapelayer"/><g class="imagelayer"/></g><g class="gridlayer"><g class="x2"><path class="x2grid crisp" transform="translate(370.1548002333042,0)" d="M0,63.83858267716535v356.5936679790026" style="stroke: rgb(0, 0, 0); stroke-opacity: 0.1; stroke-width: 0.5px;"/><path class="x2grid crisp" transform="translate(414.85480023330416,0)" d="M0,63.83858267716535v356.5936679790026" style="stroke: rgb(0, 0, 0); stroke-opacity: 0.1; stroke-width: 0.5px;"/><path class="x2grid crisp" transform="translate(459.55480023330415,0)" d="M0,63.83858267716535v356.5936679790026" style="stroke: rgb(0, 0, 0); stroke-opacity: 0.1; stroke-width: 0.5px;"/><path class="x2grid crisp" transform="translate(504.2548002333042,0)" d="M0,63.83858267716535v356.5936679790026" style="stroke: rgb(0, 0, 0); stroke-opacity: 0.1; stroke-width: 0.5px;"/><path class="x2grid crisp" transform="translate(548.9548002333042,0)" d="M0,63.83858267716535v356.5936679790026" style="stroke: rgb(0, 0, 0); stroke-opacity: 0.1; stroke-width: 0.5px;"/><path class="x2grid crisp" transform="translate(593.6648002333042,0)" d="M0,63.83858267716535v356.5936679790026" style="stroke: rgb(0, 0, 0); stroke-opacity: 0.1; stroke-width: 0.5px;"/></g><g class="y2"><path class="y2grid crisp" transform="translate(0,410.33858267716533)" d="M363.4648002333042,0h236.90002916302123" style="stroke: rgb(0, 0, 0); stroke-opacity: 0.1; stroke-width: 0.5px;"/><path class="y2grid crisp" transform="translate(0,294.92858267716537)" d="M363.4648002333042,0h236.90002916302123" style="stroke: rgb(0, 0, 0); stroke-opacity: 0.1; stroke-width: 0.5px;"/><path class="y2grid crisp" transform="translate(0,179.50858267716535)" d="M363.4648002333042,0h236.90002916302123" style="stroke: rgb(0, 0, 0); stroke-opacity: 0.1; stroke-width: 0.5px;"/></g></g><g class="zerolinelayer"/><path class="xlines-below"/><path class="ylines-below"/><g class="overlines-below"/><g class="xaxislayer-below"/><g class="yaxislayer-below"/><g class="overaxes-below"/><g class="plot" transform="translate(363.4648002333042,63.83858267716535)" clip-path="url('#clipfad3d9x2y2plot')"><g class="scatterlayer mlayer"><g class="trace scatter trace61b390" style="stroke-miterlimit: 2; opacity: 1;"><g class="fills"/><g class="errorbars"/><g class="lines"><path class="js-line" d="M6.7,346.47L9.94,345.74L9.95,345.59L10.15,344.76L10.59,345.72L10.7,345.6L10.71,345.62L10.97,343.7L11.31,345.23L11.32,345.45L11.53,345.87L11.73,343.51L12.01,344.85L12.02,344.59L12.41,334.58L12.43,333.22L12.53,282.32L12.55,182.33L12.56,167.98L12.89,344.47L13.17,339.79L13.19,340.37L13.66,346.15L13.99,344.81L14.01,344.81L14.17,344.61L14.35,345.44L14.36,345.35L14.38,345.6L14.5,346.19L14.8,344.82L15.12,345.49L15.14,345.49L15.76,345.03L15.88,345.64L15.9,345.68L16.06,346.41L16.63,345.63L16.64,345.56L17.6,342.7L17.8,343.77L17.82,343.89L18.01,345.07L18.13,341.51L18.15,340.8L18.37,278.66L18.39,191.08L18.4,10.09L18.83,344.89L19.13,344.49L19.15,344.57L19.55,346.15L20.11,345.56L20.13,345.56L21.53,345.94L21.54,345.93L22.29,346.2L22.51,345.67L22.53,345.64L22.99,345.61L23.15,345.2L23.17,345.15L23.42,345.45L23.72,344.4L23.94,345.28L23.96,345.4L24,345.65L24.14,342.72L24.15,341.82L24.23,322.62L24.24,258L24.94,346.25L25.03,345.88L25.05,345.8L25.63,344.55L25.88,345.36L25.9,345.44L26.13,346.45L26.76,346.25L26.77,346.26L27.7,345.94L27.71,345.94L28.61,345.65L28.62,345.61L29.62,345.07L29.63,345.07L29.84,344.09L29.86,343.83L30.08,317.69L30.1,265.8L30.72,346.36L30.96,346.34L30.98,346.34L35.21,345.68L35.22,345.66L35.8,343.38L35.82,342.99L35.95,331.98L35.97,281.29L36.77,346.07L36.79,346.07L38.35,346.21L38.37,346.21L41.7,345.55L41.72,345.38L41.79,342.84L41.82,344.85L41.84,307.73L42.64,346.35L42.66,346.37L44,346.03L44.01,346.02L45.1,346.14L45.12,346.16L46.05,346.08L46.07,346.08L46.83,345.75L46.84,345.73L46.86,345.72L47.44,345.69L47.45,345.47L47.68,338.51L47.69,334.88L47.74,281.42L48.45,345L48.47,345.09L48.91,346.41L49.5,346.04L49.51,346.06L52.27,346.19L52.28,346.18L53.27,345.43L53.28,345.37L53.59,343.88L53.61,340.43L53.62,325.91L54.35,345.84L54.37,345.86L55.59,346.35L55.6,346.36L58.02,346.41L58.03,346.39L59.39,344.71L59.4,344L59.52,323.44L59.54,298.17L60.31,345.71L60.33,345.74L61.82,346.1L61.83,346.09L63.5,345.59L63.52,345.57L64.42,345.78L64.44,345.79L64.65,346.25L64.92,345.22L64.93,345.16L65.27,340.14L65.29,343.34L65.3,345.57L65.47,331.57L65.48,306.82L65.51,345.16L66.24,344.87L66.26,344.88L69.48,346.11L69.49,346.11L71.03,345.88L71.04,345.67L71.19,346.29L71.4,344.16L71.41,345.37L71.43,333.38L72.2,346.32L72.22,346.32L74.93,346.44L74.94,346.43L77.24,345.47L77.25,345.23L77.37,340.57L77.39,333.28L77.42,317.2L78.06,346L78.13,345.95L78.15,345.96L79.38,346.38L79.4,346.38L82.77,345.79L82.78,345.65L82.86,342.56L83.08,346.31L83.09,346.34L83.23,346.46L83.32,345.82L83.33,345.47L83.39,341.93L83.82,346.3L83.84,346.29L83.85,346.27L89.19,345.7L89.2,345.65L89.4,343.79L89.41,341.05L89.46,339.39L90.19,346.09L90.2,346.1L92.05,346.34L92.06,346.34L94.46,345.72L94.48,345.6L94.63,342.96L94.64,338.89L94.88,345.27L95.4,341.84L95.42,336.76L96.07,346.16L96.21,346.06L96.22,346.08L97.07,345.97L97.08,345.96L99.78,345.99L99.8,346L100.57,344.71L100.69,345.44L100.7,345.54L101.3,344.22L101.32,344.14L101.42,344.28L101.52,343.46L101.54,343.54L101.55,341.22L101.66,336.74L101.79,343.89L101.81,344.23L102.67,346.21L102.69,346.22L104.74,346.36L104.76,346.35L106.44,346.32L106.46,345.12L107.11,346.36L107.29,346.27L107.31,346.27L107.66,346.17L107.68,345.43L108.59,346.29L108.6,346.28L108.62,346.28L113.8,345.91L113.82,344.22L113.85,343.18L114.53,346.36L114.55,346.34L116.45,346.41L116.47,346.4L118.32,345.84L118.33,345.51L119.02,346.45L119.15,346.39L119.17,346.38L119.95,345.93L119.97,345.32L120.03,341.89L120.46,346.47L120.74,346.42L120.76,346.42L126.18,346.05L126.2,345.92L126.27,344.92L126.7,346.42L126.93,346.37L126.94,346.37L132.43,346.34L132.44,345.84L132.47,341.02L133.13,346.4L133.14,346.4L133.16,346.41L138.49,346.35L138.5,346.34L138.73,346.25L138.74,344.67L138.79,343.48L139.37,346.26L139.38,346.27L145,346.32L145.02,346.3L145.1,339.39L145.27,345.91L145.28,345.93L146.42,346.44L146.43,346.44L151.38,346.06L151.39,346.01L151.5,341.59L151.65,345.09L151.66,345.27L152.54,346.37L152.55,346.37L157.83,346.35L157.84,346.32L157.89,345.54L158.41,346.47L158.54,346.47L158.56,346.47L164.33,346.32L164.34,346.02L164.4,345.27L164.97,346.47L165.06,346.47L165.07,346.48L170.23,346.42L170.24,346.41L170.85,346.03L170.87,345.14L170.9,344.42L171.46,346.47L171.6,346.46L171.61,346.45L177.39,346.37L177.41,346.1L177.47,345.94L178.12,346.45L178.2,346.36L178.21,346.29L179.85,346.46L179.87,346.46L183.99,346.47L184.01,346.22L184.1,345.98L184.16,346.46L184.74,346.46L184.75,346.46L189.28,346.31L189.3,346.3L195.73,346.46L195.75,346.46L197.48,346.38L197.49,345.58L197.58,343.32L198.19,346.45L198.21,346.46L204.3,345.68L204.32,344.98L204.37,344.5L205.12,346.45L205.13,346.45L211.17,345.88L211.18,345.56L211.21,345.17L211.82,346.41L211.84,346.41L214.97,346.47L214.98,346.47L220.79,346.49L220.81,346.49L230.2,346.49" style="vector-effect: non-scaling-stroke; fill: none; stroke: rgb(255, 165, 0); stroke-opacity: 1; stroke-width: 1px; opacity: 1;"/></g><g class="points"/><g class="text"/></g></g></g><g class="overplot"/><path class="xlines-above crisp" d="M362.4648002333042,420.9322506561679H600.3648293963254" style="fill: none; stroke-width: 1px; stroke: rgb(0, 0, 0); stroke-opacity: 1;"/><path class="ylines-above crisp" d="M362.9648002333042,63.83858267716535V420.4322506561679" style="fill: none; stroke-width: 1px; stroke: rgb(0, 0, 0); stroke-opacity: 1;"/><g class="overlines-above"/><g class="xaxislayer-above"><path class="x2tick ticks crisp" d="M0,420.4322506561679v-5" transform="translate(370.1548002333042,0)" style="stroke: rgb(0, 0, 0); stroke-opacity: 1; stroke-width: 1px;"/><path class="x2tick ticks crisp" d="M0,420.4322506561679v-5" transform="translate(414.85480023330416,0)" style="stroke: rgb(0, 0, 0); stroke-opacity: 1; stroke-width: 1px;"/><path class="x2tick ticks crisp" d="M0,420.4322506561679v-5" transform="translate(459.55480023330415,0)" style="stroke: rgb(0, 0, 0); stroke-opacity: 1; stroke-width: 1px;"/><path class="x2tick ticks crisp" d="M0,420.4322506561679v-5" transform="translate(504.2548002333042,0)" style="stroke: rgb(0, 0, 0); stroke-opacity: 1; stroke-width: 1px;"/><path class="x2tick ticks crisp" d="M0,420.4322506561679v-5" transform="translate(548.9548002333042,0)" style="stroke: rgb(0, 0, 0); stroke-opacity: 1; stroke-width: 1px;"/><path class="x2tick ticks crisp" d="M0,420.4322506561679v-5" transform="translate(593.6648002333042,0)" style="stroke: rgb(0, 0, 0); stroke-opacity: 1; stroke-width: 1px;"/><g class="x2tick"><text text-anchor="middle" x="0" y="434.6322506561679" transform="translate(370.1548002333042,0)" style="font-family: sans-serif; font-size: 11px; fill: rgb(0, 0, 0); fill-opacity: 1; white-space: pre;">0</text></g><g class="x2tick"><text text-anchor="middle" x="0" y="434.6322506561679" transform="translate(414.85480023330416,0)" style="font-family: sans-serif; font-size: 11px; fill: rgb(0, 0, 0); fill-opacity: 1; white-space: pre;">1000</text></g><g class="x2tick"><text text-anchor="middle" x="0" y="434.6322506561679" transform="translate(459.55480023330415,0)" style="font-family: sans-serif; font-size: 11px; fill: rgb(0, 0, 0); fill-opacity: 1; white-space: pre;">2000</text></g><g class="x2tick"><text text-anchor="middle" x="0" y="434.6322506561679" transform="translate(504.2548002333042,0)" style="font-family: sans-serif; font-size: 11px; fill: rgb(0, 0, 0); fill-opacity: 1; white-space: pre;">3000</text></g><g class="x2tick"><text text-anchor="middle" x="0" y="434.6322506561679" transform="translate(548.9548002333042,0)" style="font-family: sans-serif; font-size: 11px; fill: rgb(0, 0, 0); fill-opacity: 1; white-space: pre;">4000</text></g><g class="x2tick"><text text-anchor="middle" x="0" y="434.6322506561679" transform="translate(593.6648002333042,0)" style="font-family: sans-serif; font-size: 11px; fill: rgb(0, 0, 0); fill-opacity: 1; white-space: pre;">5000</text></g></g><g class="yaxislayer-above"><path class="y2tick ticks crisp" d="M363.4648002333042,0h5" transform="translate(0,410.33858267716533)" style="stroke: rgb(0, 0, 0); stroke-opacity: 1; stroke-width: 1px;"/><path class="y2tick ticks crisp" d="M363.4648002333042,0h5" transform="translate(0,294.92858267716537)" style="stroke: rgb(0, 0, 0); stroke-opacity: 1; stroke-width: 1px;"/><path class="y2tick ticks crisp" d="M363.4648002333042,0h5" transform="translate(0,179.50858267716535)" style="stroke: rgb(0, 0, 0); stroke-opacity: 1; stroke-width: 1px;"/><g class="y2tick"><text text-anchor="end" x="360.2648002333042" y="3.8499999999999996" transform="translate(0,410.33858267716533)" style="font-family: sans-serif; font-size: 11px; fill: rgb(0, 0, 0); fill-opacity: 1; white-space: pre;">0</text></g><g class="y2tick"><text text-anchor="end" x="360.2648002333042" y="3.8499999999999996" transform="translate(0,294.92858267716537)" style="font-family: sans-serif; font-size: 11px; fill: rgb(0, 0, 0); fill-opacity: 1; white-space: pre;">1000</text></g><g class="y2tick"><text text-anchor="end" x="360.2648002333042" y="3.8499999999999996" transform="translate(0,179.50858267716535)" style="font-family: sans-serif; font-size: 11px; fill: rgb(0, 0, 0); fill-opacity: 1; white-space: pre;">2000</text></g><g class="y2tick"><text text-anchor="end" x="360.2648002333042" y="3.8499999999999996" transform="translate(0,64.09858267716535)" style="font-family: sans-serif; font-size: 11px; fill: rgb(0, 0, 0); fill-opacity: 1; white-space: pre;">3000</text></g></g><g class="overaxes-above"/></g></g><g class="polarlayer"/><g class="ternarylayer"/><g class="geolayer"/><g class="funnelarealayer"/><g class="pielayer"/><g class="treemaplayer"/><g class="sunburstlayer"/><g class="glimages"/><defs id="topdefs-fad3d9"><g class="clips"/><clipPath id="legendfad3d9"><rect width="73" height="58" x="0" y="0"/></clipPath></defs><g class="layer-above"><g class="imagelayer"/><g class="shapelayer"/></g><g class="infolayer"><g class="legend" pointer-events="all" transform="translate(615.08,60)"><rect class="bg" shape-rendering="crispEdges" width="73" height="58" x="0" y="0" style="stroke: rgb(68, 68, 68); stroke-opacity: 1; fill: rgb(255, 255, 255); fill-opacity: 1; stroke-width: 0px;"/><g class="scrollbox" transform="" clip-path="url('#legendfad3d9')"><g class="groups" transform=""><g class="traces" transform="translate(0,14.5)" style="opacity: 1;"><text class="legendtext" text-anchor="start" x="40" y="4.680000000000001" style="font-family: 'Open Sans', verdana, arial, sans-serif; font-size: 12px; fill: rgb(42, 63, 95); fill-opacity: 1; white-space: pre;">Time</text><g class="layers" style="opacity: 1;"><g class="legendfill"/><g class="legendlines"><path class="js-line" d="M5,0h30" style="fill: none; stroke: rgb(0, 154, 250); stroke-opacity: 1; stroke-width: 1px;"/></g><g class="legendsymbols"><g class="legendpoints"/></g></g><rect class="legendtoggle" x="0" y="-9.5" width="67.84375" height="19" style="fill: rgb(0, 0, 0); fill-opacity: 0;"/></g></g><g class="groups" transform="translate(0,10)"><g class="traces" transform="translate(0,33.5)" style="opacity: 1;"><text class="legendtext" text-anchor="start" x="40" y="4.680000000000001" style="font-family: 'Open Sans', verdana, arial, sans-serif; font-size: 12px; fill: rgb(42, 63, 95); fill-opacity: 1; white-space: pre;">Freq</text><g class="layers" style="opacity: 1;"><g class="legendfill"/><g class="legendlines"><path class="js-line" d="M5,0h30" style="fill: none; stroke: rgb(255, 165, 0); stroke-opacity: 1; stroke-width: 1px;"/></g><g class="legendsymbols"><g class="legendpoints"/></g></g><rect class="legendtoggle" x="0" y="-9.5" width="67.84375" height="19" style="fill: rgb(0, 0, 0); fill-opacity: 0;"/></g></g></g><rect class="scrollbar" rx="20" ry="3" width="0" height="0" x="0" y="0" style="fill: rgb(128, 139, 164); fill-opacity: 1;"/></g><g class="g-gtitle"/><g class="g-xtitle"><text class="xtitle" x="204.9148148148148" y="462.140625" text-anchor="middle" style="font-family: sans-serif; font-size: 15px; fill: rgb(0, 0, 0); opacity: 1; font-weight: normal; white-space: pre;">t[s]</text></g><g class="g-x2title"><text class="x2title" x="481.9148148148148" y="462.140625" text-anchor="middle" style="font-family: sans-serif; font-size: 15px; fill: rgb(0, 0, 0); opacity: 1; font-weight: normal; white-space: pre;">f[hz]</text></g><g class="g-ytitle"/><g class="g-y2title"/></g></svg>