<svg class="main-svg" xmlns="http://www.w3.org/2000/svg" xmlns:xlink="http://www.w3.org/1999/xlink" width="700" height="500" style="" viewBox="0 0 700 500"><rect x="0" y="0" width="700" height="500" style="fill: rgb(255, 255, 255); fill-opacity: 1;"/><defs id="defs-82e702"><g class="clips"><clipPath id="clip82e702xyplot" class="plotclip"><rect width="241.00373286672504" height="356.5936679790026"/></clipPath><clipPath id="clip82e702x2y2plot" class="plotclip"><rect width="241.00373286672502" height="356.5936679790026"/></clipPath><clipPath class="axesclip" id="clip82e702x"><rect x="86.46480023330417" y="0" width="241.00373286672504" height="500"/></clipPath><clipPath class="axesclip" id="clip82e702y"><rect x="0" y="63.83858267716535" width="700" height="356.5936679790026"/></clipPath><clipPath class="axesclip" id="clip82e702xy"><rect x="86.46480023330417" y="63.83858267716535" width="241.00373286672504" height="356.5936679790026"/></clipPath><clipPath class="axesclip" id="clip82e702y2"><rect x="0" y="63.83858267716535" width="700" height="356.5936679790026"/></clipPath><clipPath class="axesclip" id="clip82e702xy2"><rect x="86.46480023330417" y="63.83858267716535" width="241.00373286672504" height="356.5936679790026"/></clipPath><clipPath class="axesclip" id="clip82e702x2"><rect x="359.3610965296005" y="0" width="241.00373286672502" height="500"/></clipPath><clipPath class="axesclip" id="clip82e702x2y"><rect x="359.3610965296005" y="63.83858267716535" width="241.00373286672502" height="356.5936679790026"/></clipPath><clipPath class="axesclip" id="clip82e702x2y2"><rect x="359.3610965296005" y="63.83858267716535" width="241.00373286672502" height="356.5936679790026"/></clipPath></g><g class="gradients"/></defs><g class="bglayer"/><g class="layer-below"><g class="imagelayer"/><g class="shapelayer"/></g><g class="cartesianlayer"><g class="subplot xy"><g class="layer-subplot"><g class="shapelayer"/><g class="imagelayer"/></g><g class="gridlayer"><g class="x"><path class="xgrid crisp" transform="translate(93.28480023330417,0)" d="M0,63.83858267716535v356.5936679790026" style="stroke: rgb(0, 0, 0); stroke-opacity: 0.1; stroke-width: 0.5px;"/><path class="xgrid crisp" transform="translate(169.0748002333042,0)" d="M0,63.83858267716535v356.5936679790026" style="stroke: rgb(0, 0, 0); stroke-opacity: 0.1; stroke-width: 0.5px;"/><path class="xgrid crisp" transform="translate(244.86480023330418,0)" d="M0,63.83858267716535v356.5936679790026" style="stroke: rgb(0, 0, 0); stroke-opacity: 0.1; stroke-width: 0.5px;"/><path class="xgrid crisp" transform="translate(320.6448002333042,0)" d="M0,63.83858267716535v356.5936679790026" style="stroke: rgb(0, 0, 0); stroke-opacity: 0.1; stroke-width: 0.5px;"/></g><g class="y"><path class="ygrid crisp" transform="translate(0,406.94858267716535)" d="M86.46480023330417,0h241.00373286672504" style="stroke: rgb(0, 0, 0); stroke-opacity: 0.1; stroke-width: 0.5px;"/><path class="ygrid crisp" transform="translate(0,316.74858267716536)" d="M86.46480023330417,0h241.00373286672504" style="stroke: rgb(0, 0, 0); stroke-opacity: 0.1; stroke-width: 0.5px;"/><path class="ygrid crisp" transform="translate(0,226.53858267716532)" d="M86.46480023330417,0h241.00373286672504" style="stroke: rgb(0, 0, 0); stroke-opacity: 0.1; stroke-width: 0.5px;"/><path class="ygrid crisp" transform="translate(0,136.33858267716533)" d="M86.46480023330417,0h241.00373286672504" style="stroke: rgb(0, 0, 0); stroke-opacity: 0.1; stroke-width: 0.5px;"/></g></g><g class="zerolinelayer"/><path class="xlines-below"/><path class="ylines-below"/><g class="overlines-below"/><g class="xaxislayer-below"/><g class="yaxislayer-below"/><g class="overaxes-below"/><g class="plot" transform="translate(86.46480023330417,63.83858267716535)" clip-path="url('#clip82e702xyplot')"><g class="scatterlayer mlayer"><g class="trace scatter tracee11e5a" style="stroke-miterlimit: 2; opacity: 1;"><g class="fills"/><g class="errorbars"/><g class="lines"><path class="js-line" d="M6.82,162.73L7.09,162L7.1,163.25L7.1,163.6L7.76,249.65L7.8,91.47L7.85,132.23L7.86,126.79L8.44,10.09L8.54,346.5L8.61,332.2L8.62,332.68L8.94,21.92L9.05,334.09L9.37,63.11L9.38,57.44L9.7,328.2L9.74,14.34L10.13,308.7L10.14,300.46L10.35,316.35L10.46,11.9L10.89,37.12L10.9,40.54L10.92,294.47L10.97,33.41L11.65,218.08L11.66,211.32L11.72,260.71L12.26,49.69L12.41,82.81L12.42,96.59L12.77,42.84L13.17,245.38L13.17,241.47L13.18,237.1L13.46,243.64L13.56,37.57L13.93,126.22L13.94,139.93L14.28,51.57L14.69,245.87L14.69,223.72L14.7,211.72L14.79,63.68L15.19,250.59L15.45,147.03L15.46,154.15L15.58,81.3L15.77,244.62L16.21,183.11L16.22,172.14L16.23,96.26L16.49,235.54L16.97,151.26L16.98,158.14L17.02,114.41L17.21,230.42L17.73,151.2L17.74,144.83L17.79,225.48L18.12,118.22L18.49,167.36L18.5,175.52L18.51,215.31L18.69,118.33L19.25,149.6L19.26,146.96L19.3,205.56L19.99,116.13L20.01,191.3L20.02,195L20.06,116.08L20.16,200.06L20.77,147.85L20.78,141.27L20.81,193.59L21.07,116.57L21.53,186.34L21.54,186.26L21.65,115.75L21.91,189.71L22.29,124.22L22.3,121.35L22.37,118.24L22.78,194.58L23.05,180.6L23.06,182.86L23.09,123.67L23.43,197.23L23.81,128.57L23.82,130.59L23.88,129.29L24.07,200.19L24.57,195.16L24.58,197.61L24.72,200.2L24.97,132.69L25.33,145.37L25.34,147L25.54,137.54L25.95,198.92L26.09,194.68L26.1,192.43L26.26,142.26L26.6,196.85L26.85,142.46L26.86,142.06L27.24,196.12L27.51,140.04L27.61,177.04L27.62,173.15L27.75,193.52L28.08,138.94L28.37,140.87L28.38,142.77L28.4,190.23L28.8,138.24L29.13,168.23L29.14,167.21L29.19,185.41L29.45,138.17L29.89,151.95L29.9,155.74L29.91,180.7L30.1,139.31L30.65,171.35L30.66,170.56L30.68,139.67L30.85,176.42L31.41,166.07L31.42,168.44L31.47,141.35L32.16,175.58L32.17,168.99L32.18,166.4L32.19,142.72L32.89,177.09L32.93,166.02L32.94,166.1L32.98,144.79L33.46,178.16L33.69,156.64L33.7,153.66L33.7,147.69L34.11,178.01L34.45,161.7L34.46,162.47L34.5,150.33L34.61,177.53L35.21,153.23L35.22,153.13L35.48,176.31L35.97,167.5L35.98,169.69L35.98,175.67L36.15,155.37L36.73,158.29L36.74,158.58L37.04,154.43L37.21,174.64L37.49,173.17L37.5,173.66L37.62,154.76L38.25,158.96L38.26,158.28L38.29,172.54L38.77,155.14L39.01,169.67L39.02,168.89L39.08,170.78L39.49,154.89L39.77,156.35L39.78,155.99L39.8,168.96L40.14,154.46L40.53,166.23L40.54,166.04L40.6,167.32L40.79,155.12L41.29,157.28L41.3,158.13L41.43,155.84L42.05,167.18L42.06,167.15L42.08,157.36L42.78,168.12L42.81,160.46L42.82,160.75L42.85,168.27L42.88,158.52L43.57,165.92L43.58,165.15L43.64,167.81L43.81,159.09L44.33,160.24L44.34,160.32L44.36,167.3L45.06,159.15L45.09,162.58L45.1,162.04L45.44,167.45L45.85,158.88L45.85,160.3L45.86,160.95L46.16,167.37L46.42,158.99L46.61,162.64L46.62,162.7L46.66,167.01L47.29,159.12L47.37,163.26L47.38,163.99L47.38,166.05L47.58,159.01L48.13,164.51L48.14,164.38L48.37,158.56L48.68,165.07L48.89,164.61L48.9,164.72L49.02,158.45L49.36,165.17L49.65,162.72L49.66,162.14L49.81,158.76L50.37,165.12L50.41,162.7L50.42,162.4L50.82,159.65L51.16,165.67L51.17,161.02L51.18,160.59L51.18,160.25L51.88,165.93L51.93,162.03L51.94,162.16L52.02,165.99L52.26,160.09L52.69,161.54L52.7,161.79L52.74,165.58L52.98,160.66L53.45,163.12L53.46,163.67L53.46,164.95L53.73,160.55L54.21,162.67L54.22,163.03L54.47,164.69L54.88,160.62L54.97,164.16L54.98,164.31L55.03,160.83L55.27,164.78L55.73,163.38L55.74,163.13L55.91,164.58L56.32,160.83L56.49,163.77L56.5,163.46L56.67,164.29L56.98,161.18L57.25,162.57L57.26,162.22L57.26,161.55L57.61,163.99L58.01,162.2L58.02,162.09L58.03,163.9L58.31,161.58L58.77,162.14L58.78,162.12L58.95,161.61L59.26,163.54L59.49,162.1L59.5,161.95L59.53,161.84L59.91,163.88L60.25,162.26L60.26,162.29L60.63,163.77L60.97,162.01L61.01,162.75L61.02,162.72L61.35,163.69L61.77,161.83L61.77,162.74L61.78,162.87L62.05,161.58L62.45,163.39L62.53,162.74L62.54,162.72L62.91,161.54L63.16,163.54L63.29,162.47L63.3,162.65L63.72,161.58L64.03,163.68L64.05,162.43L64.06,162.32L64.29,161.37L64.76,164.01L64.81,163.21L64.82,163.31L65.08,161.2L65.33,164.12L65.57,162.4L65.58,162.18L65.91,164.21L66.17,161.31L66.33,164.02L66.34,164.11L66.49,164.28L66.82,161.03L66.84,163.83L66.85,163.9L67.21,164.2L67.46,160.8L67.5,163.83L67.5,163.9L67.57,163.95L67.82,160.62L68.15,163.75L68.15,163.8L68.26,160.86L68.8,164.16L68.81,164.17L69.53,164.76L69.56,161.08L69.56,161.49L69.57,161.63L70.06,161L70.32,165L70.32,164.74L70.33,164.55L70.39,165.09L71,160.94L71.08,161.61L71.09,161.7L71.26,165L71.79,160.96L71.84,163.63L71.85,163.28L72.12,165.02L72.52,160.99L72.6,161.32L72.61,161.43L72.84,164.98L73.32,160.96L73.36,162.77L73.37,162.54L73.56,165.08L73.97,160.94L74.12,161.81L74.13,162.14L74.43,165.26L74.84,160.78L74.88,162.5L74.89,162.42L75.15,165.21L75.56,160.62L75.64,162.83L75.65,163.22L75.94,164.79L76.35,160.45L76.4,162.58L76.41,162.41L76.45,164.42L77.14,160.24L77.16,163.57L77.17,163.73L77.29,160.13L77.61,164.3L77.92,162.18L77.93,161.88L77.94,160.31L78.47,164.39L78.68,164.08L78.69,164.16L78.95,160.5L79.06,164.31L79.11,163.95L79.12,164.04L79.2,164.55L79.6,160.51L79.67,160.68L79.67,160.59L80,164.43L80.1,160.48L80.42,163.81L80.43,163.93L80.61,160.39L81.15,164.68L81.18,160.65L81.19,160.75L81.47,160.44L81.88,164.8L81.94,164.6L81.95,164.72L82.19,160.64L82.45,164.85L82.7,161.03L82.71,161.13L82.77,160.83L83.17,164.97L83.46,164.9L83.47,164.77L83.93,161.1L84.18,165.04L84.22,161.47L84.23,161.55L84.33,165.07L84.72,161.03L84.98,164.24L84.99,163.99L85.12,164.85L85.52,160.78L85.74,161.08L85.75,161.24L86.17,160.65L86.49,164.78L86.5,163.7L86.51,163.48L86.64,164.71L86.89,160.68L87.26,161.77L87.27,162.04L87.5,164.72L87.97,160.83L88.02,163.21L88.03,162.96L88.05,160.83L88.37,164.79L88.78,162.46L88.79,162.69L88.95,164.7L89.42,160.81L89.54,162.61L89.55,162.36L89.67,164.73L90.14,160.79L90.3,162.72L90.31,162.98L90.54,164.76L90.94,160.87L91.06,161.96L91.07,161.79L91.08,160.9L91.4,164.88L91.82,163.65L91.83,163.94L92.24,161.14L92.41,164.85L92.58,161.85L92.59,161.73L92.96,160.95L93.13,164.85L93.34,164.34L93.35,164.5L93.68,160.86L93.85,164.8L94.1,161.59L94.11,161.39L94.58,164.68L94.84,160.71L94.86,164.36L94.87,164.3L95.56,160.49L95.62,160.95L95.63,160.77L96.13,160.44L96.31,164.12L96.38,163.96L96.39,163.91L96.45,164.12L96.71,160.58L97.14,160.81L97.15,160.9L97.58,160.61L97.84,164.22L97.9,163.95L97.91,164.02L98.3,160.57L98.49,164.27L98.55,164.14L98.56,164.22L98.87,160.55L99.28,164.4L99.31,161.41L99.32,161.64L99.45,160.65L99.93,164.43L100.07,164.38L100.08,164.27L100.17,160.84L100.72,164.56L100.83,161.98L100.84,162.07L100.89,161.11L101.59,164.76L101.59,164L101.6,163.72L101.61,161.39L102.31,164.85L102.35,161.83L102.36,161.91L102.38,164.85L103,161.46L103.11,162.75L103.12,162.52L103.46,164.71L103.72,161.22L103.87,161.76L103.88,162L103.89,164.59L104.59,160.99L104.63,162.52L104.64,162.45L104.9,164.39L105.16,160.85L105.39,163.01L105.4,163.3L105.48,164.29L105.81,160.82L106.15,163.01L106.16,162.89L106.2,164.23L106.46,160.81L106.91,163.88L106.92,164L107.04,160.89L107.56,163.58L107.56,163.69L107.64,163.78L107.9,160.82L108.02,163.68L108.02,163.71L108.34,160.78L108.74,163.8L108.77,161.37L108.78,161.58L108.91,160.76L109.32,164.02L109.53,163.92L109.54,163.88L109.63,160.96L110.04,164.2L110.29,162.21L110.3,162.34L110.35,161.18L110.68,164.22L111.05,163.6L111.06,163.39L111.07,161.31L111.7,164.22L111.81,162.22L111.82,162.33L111.84,164.18L111.94,161.6L112.57,162.79L112.58,162.6L112.63,164.1L113.25,161.56L113.33,162.34L113.34,162.5L113.42,163.98L113.68,161.49L114.09,162.61L114.1,162.48L114.29,163.88L114.55,161.45L114.85,163.24L114.86,163.41L114.87,163.88L115.12,161.45L115.61,162.61L115.62,162.48L115.66,163.81L115.84,161.41L116.37,163.39L116.38,163.49L116.38,163.71L116.57,161.48L117.13,161.91L117.14,161.77L117.55,163.77L117.86,161.45L117.89,163.2L117.9,163.27L117.94,161.47L118.27,163.74L118.65,161.63L118.66,161.58L118.84,163.76L119.41,163.61L119.42,163.68L119.45,161.85L119.57,163.88L120.13,162.93L120.13,163.06L120.29,163.91L120.75,161.97L120.88,162.29L120.89,162.22L120.9,161.96L121.44,163.83L121.64,163.09L121.65,163.26L122.02,163.76L122.28,161.79L122.4,162.46L122.41,162.43L122.45,163.68L122.56,161.69L123.16,163.52L123.17,163.59L123.72,161.67L123.88,163.17L123.88,163.32L123.89,163.57L124.15,161.68L124.57,162.27L124.58,162.14L124.61,163.53L125.23,161.71L125.33,163.33L125.34,163.31L125.48,163.34L126.03,161.64L126.04,162.92L126.05,163L126.17,161.65L126.43,163.25L126.8,162.62L126.81,162.47L126.82,161.76L127.15,163.35L127.56,162.91L127.57,162.92L127.61,161.83L128.02,163.41L128.32,162.24L128.33,162.14L128.33,161.93L128.74,163.39L129.08,163L129.09,163.07L129.12,162.06L129.6,163.47L129.84,162.24L129.85,162.24L129.92,162.21L130.39,163.51L130.56,162.36L130.57,162.33L130.65,162.16L131.04,163.41L131.22,162.17L131.23,162.17L131.37,162.15L131.83,163.31L131.94,162.2L131.95,162.18L132.09,162.07L132.48,163.26L132.67,162.17L132.68,162.24L132.96,162.05L133.21,163.25L133.43,162.95L133.44,162.91L133.49,163.2L133.82,162.08L134.15,163L134.16,163L134.21,163.14L134.69,162.09L134.91,162.5L134.92,162.59L134.95,163.1L135.41,162.1L135.67,162.99L135.68,162.94L136.13,162.09L136.39,163.07L136.43,162.63L136.44,162.66L136.49,162.13L137.11,163.14L137.19,162.73L137.2,162.65L137.28,162.28L137.83,163.24L137.95,162.71L137.96,162.75L137.97,163.27L138.58,162.36L138.71,162.46L138.72,162.43L138.86,162.38L139.27,163.22L139.38,162.51L139.39,162.48L139.68,162.37L140.13,163.3L140.14,162.97L140.15,162.88L140.28,163.31L140.54,162.33L140.9,162.35L140.91,162.34L141.14,163.27L141.48,162.22L141.66,162.56L141.67,162.55L141.72,163.27L142.27,162.23L142.36,163L142.36,163.1L142.44,163.29L142.85,162.21L143.06,162.35L143.06,162.3L143.16,163.28L143.71,162.19L143.78,162.4L143.78,162.32L143.95,163.22L144.15,162.16L144.5,162.29L144.5,162.22L144.58,162.16L144.74,163.14L145.22,162.2L145.23,162.18L145.25,163.08L145.3,162.15L145.98,162.72L145.99,162.75L146.02,162.14L146.11,163.01L146.74,162.33L146.75,162.41L146.81,162.14L147.15,163.06L147.5,162.97L147.51,163.01L147.6,162.21L148.15,163.13L148.26,162.53L148.26,162.6L148.8,163.14L148.97,162.24L149.01,162.99L149.02,163.03L149.04,162.19L149.31,163.13L149.77,162.56L149.78,162.6L149.83,162.25L150.32,163.2L150.54,162.86L150.54,162.76L150.55,162.32L150.75,163.21L151.29,162.64L151.3,162.61L151.35,162.41L152.04,163.24L152.05,162.87L152.06,162.79L152.45,162.46L152.76,163.29L152.81,162.52L152.82,162.53L152.84,163.29L153.53,162.42L153.57,162.59L153.58,162.56L153.63,163.2L154.18,162.35L154.27,163.03L154.27,163.08L154.35,163.14L154.83,162.33L154.99,162.99L154.99,163.04L155.29,163.16L155.69,162.33L155.71,162.99L155.71,163.04L156,163.13L156.34,162.33L156.43,162.98L156.44,163.01L156.51,163.03L157.13,162.33L157.16,162.98L157.16,162.99L157.45,163.06L157.85,162.31L157.88,162.92L157.88,162.96L157.96,163.01L158.57,162.34L158.59,162.81L158.6,162.83L159.15,162.31L159.34,163.05L159.34,162.88L159.35,162.81L159.8,162.29L159.98,163.07L160.1,162.6L160.11,162.61L160.16,162.34L160.85,163.15L160.86,162.67L160.87,162.6L161.09,162.39L161.43,163.19L161.62,162.63L161.63,162.67L161.67,162.43L162.36,163.18L162.38,162.49L162.39,162.48L162.48,162.41L162.87,163.2L163.05,162.42L163.06,162.41L163.59,163.17L163.77,162.33L163.78,162.33L164.31,163.11L164.49,162.24L164.5,162.24L164.57,162.2L165.03,163.15L165.26,162.88L165.26,162.85L165.89,163.13L166.01,162.28L166.02,162.46L166.02,162.53L166.11,163.1L166.73,162.22L166.77,162.92L166.78,162.91L166.87,162.19L167.49,163L167.53,162.57L167.54,162.64L167.81,162.14L168.14,163.05L168.29,162.98L168.3,162.93L168.6,162.15L169.01,163.11L169.05,162.74L169.06,162.76L169.32,162.12L169.8,163.13L169.81,162.87L169.81,162.77L169.87,163.16L170.19,162.17L170.52,163.13L170.52,163.16L170.74,163.22L170.98,162.24L171.24,163.11L171.24,163.16L171.32,163.21L171.7,162.27L171.96,163.21L171.96,163.24L172.5,162.29L172.68,163.23L172.69,163.22L172.93,162.33L173.12,163.26L173.44,162.37L173.45,162.37L173.74,162.34L174.13,163.22L174.17,162.38L174.18,162.41L174.2,163.24L174.75,162.25L174.93,162.79L174.94,162.73L174.99,163.22L175.47,162.26L175.69,162.55L175.7,162.62L175.78,163.2L176.26,162.24L176.45,162.78L176.46,162.74L176.51,163.15L176.98,162.18L177.21,162.82L177.22,162.87L177.23,163.1L177.41,162.13L177.97,162.66L177.98,162.58L178.21,162.15L178.46,163.13L178.73,162.92L178.74,162.96L178.78,162.18L179.47,163.18L179.48,162.88L179.49,162.79L180.08,162.18L180.2,163.23L180.24,162.67L180.25,162.73L180.44,162.2L180.99,163.28L181,162.67L181.01,162.59L181.06,163.3L181.52,162.23L181.76,162.78L181.77,162.85L181.78,163.28L182.32,162.21L182.52,162.4L182.53,162.36L182.61,162.23L183.22,163.28L183.24,162.52L183.25,162.48L183.44,163.28L183.69,162.2L184,163.07L184.01,163.15L184.09,163.27L184.56,162.14L184.72,163L184.73,163.07L184.73,163.25L185.43,162.09L185.48,162.56L185.49,162.48L185.96,163.21L186.15,162.06L186.24,163.1L186.25,163.13L186.32,163.15L186.87,162.03L186.96,162.72L186.96,162.79L187.52,162L187.7,163.18L187.71,162.97L187.72,162.89L187.95,162.03L188.43,163.28L188.47,162.8L188.48,162.84L188.81,162.05L189.22,163.35L189.23,162.61L189.24,162.5L189.25,162.09L189.94,163.38L189.99,162.74L190,162.79L190.18,162.12L190.59,163.41L190.75,162.27L190.76,162.23L190.83,162.19L191.45,163.44L191.48,162.28L191.48,162.26L191.55,162.25L192.03,163.45L192.13,162.34L192.13,162.31L192.22,162.24L192.68,163.41L192.72,162.24L192.72,162.21L193.18,163.46L193.37,162.13L193.44,162.15L193.44,162.13L193.9,163.44L194.09,162.08L194.16,162.15L194.16,162.11L194.62,163.37L194.81,161.99L194.87,162.32L194.88,162.25L194.91,163.31L195.61,161.94L195.63,163.24L195.64,163.24L196.33,161.93L196.39,162.01L196.4,161.97L196.47,161.94L197.09,163.2L197.11,162.05L197.12,161.99L197.19,161.94L197.74,163.27L197.83,162.07L197.84,162.01L197.91,161.96L198.53,163.34L198.56,162.02L198.57,162.07L198.63,161.99L199.18,163.42L199.32,163.4L199.33,163.41L199.35,162.03L199.97,163.44L200.08,162.22L200.09,162.26L200.22,162.06L200.69,163.47L200.84,163.38L200.85,163.31L201.09,162.13L201.42,163.51L201.6,162.21L201.61,162.25L201.7,163.5L202.32,162.12L202.36,163.05L202.37,162.96L202.42,163.44L202.83,162.04L203.12,162.26L203.13,162.34L203.33,162L203.72,163.45L203.88,162.98L203.89,162.91L203.94,163.41L204.63,161.94L204.64,162.61L204.65,162.73L204.66,163.34L205.06,161.9L205.4,162.82L205.41,162.73L205.64,161.86L206.04,163.32L206.16,162.84L206.17,162.92L206.5,161.88L206.91,163.38L206.92,162.53L206.93,162.41L207.3,161.91L207.55,163.41L207.68,162.92L207.69,162.99L207.95,161.93L208.35,163.46L208.44,162.15L208.45,162.09L208.67,162L209.14,163.51L209.17,162.09L209.17,162.06L209.25,162.05L209.79,163.52L209.82,162.26L209.82,162.19L209.97,162.06L210.22,163.52L210.47,162.22L210.47,162.18L210.55,162.05L211.16,163.5L211.18,162.58L211.18,162.51L211.45,163.53L211.85,161.99L211.87,163.24L211.88,163.32L212.1,163.52L212.57,161.9L212.63,162.26L212.64,162.2L212.82,163.46L213.22,161.87L213.39,163.36L213.4,163.38L213.47,163.39L214.09,161.85L214.11,163.12L214.11,163.19L214.16,161.87L214.7,163.37L214.8,162.28L214.8,162.16L214.99,163.36L215.46,161.84L215.55,163.02L215.56,163.08L215.6,161.85L216.29,163.47L216.31,162.2L216.32,162.11L216.32,161.91L217.01,163.52L217.07,163.1L217.08,163.18L217.12,161.95L217.81,163.55L217.83,162.03L217.84,162L217.91,161.99L218.53,163.54L218.55,162.37L218.55,162.28L218.56,161.99L218.96,163.58L219.3,162.66L219.31,162.79L219.61,163.6L220.01,162L220.06,162.49L220.07,162.41L220.11,163.54L220.59,161.91L220.82,162.96L220.83,163.06L220.91,163.5L221.38,161.86L221.58,162.38L221.59,162.29L221.63,163.46L222.25,161.82L222.34,163.25L222.35,163.31L222.42,163.4L223.04,161.79L223.06,163.11L223.07,163.18L223.33,161.77L223.8,163.37L223.82,162.24L223.83,162.13L223.83,161.8L224.52,163.45L224.58,163.23L224.59,163.27L224.63,161.86L225.24,163.5L225.34,161.93L225.35,161.9L225.42,161.87L226.04,163.54L226.06,162.02L226.07,161.97L226.14,161.94L226.76,163.6L226.78,162.15L226.79,162.08L226.86,162L227.27,163.63L227.5,162.34L227.5,162.27L227.55,163.61L228.17,162.01L228.19,163.26L228.2,163.37L228.56,163.61L228.89,161.97L228.95,162.19L228.96,162.14L229.07,163.61L229.69,161.92L229.71,163.55L229.72,163.57L230.41,161.87L230.47,162L230.48,161.95L230.65,163.51L230.77,161.84L231.19,162.32L231.19,162.22L231.23,163.45L231.35,161.82L231.94,163.13L231.95,163.21L231.96,163.42L232.21,161.81L232.7,162.41L232.71,162.28L232.93,161.82L233.19,163.44L233.46,163.17L233.47,163.23L233.65,161.84L234.05,163.5L234.18,162.99" style="vector-effect: non-scaling-stroke; fill: none; stroke: rgb(0, 154, 250); stroke-opacity: 1; stroke-width: 1px; opacity: 1;"/></g><g class="points"/><g class="text"/></g></g></g><g class="overplot"/><path class="xlines-above crisp" d="M85.46480023330417,420.9322506561679H327.4685331000292" style="fill: none; stroke-width: 1px; stroke: rgb(0, 0, 0); stroke-opacity: 1;"/><path class="ylines-above crisp" d="M85.96480023330417,63.83858267716535V420.4322506561679" style="fill: none; stroke-width: 1px; stroke: rgb(0, 0, 0); stroke-opacity: 1;"/><g class="overlines-above"/><g class="xaxislayer-above"><path class="xtick ticks crisp" d="M0,420.4322506561679v-5" transform="translate(93.28480023330417,0)" style="stroke: rgb(0, 0, 0); stroke-opacity: 1; stroke-width: 1px;"/><path class="xtick ticks crisp" d="M0,420.4322506561679v-5" transform="translate(169.0748002333042,0)" style="stroke: rgb(0, 0, 0); stroke-opacity: 1; stroke-width: 1px;"/><path class="xtick ticks crisp" d="M0,420.4322506561679v-5" transform="translate(244.86480023330418,0)" style="stroke: rgb(0, 0, 0); stroke-opacity: 1; stroke-width: 1px;"/><path class="xtick ticks crisp" d="M0,420.4322506561679v-5" transform="translate(320.6448002333042,0)" style="stroke: rgb(0, 0, 0); stroke-opacity: 1; stroke-width: 1px;"/><g class="xtick"><text text-anchor="middle" x="0" y="434.6322506561679" transform="translate(93.28480023330417,0)" style="font-family: sans-serif; font-size: 11px; fill: rgb(0, 0, 0); fill-opacity: 1; white-space: pre;">0</text></g><g class="xtick"><text text-anchor="middle" x="0" y="434.6322506561679" transform="translate(169.0748002333042,0)" style="font-family: sans-serif; font-size: 11px; fill: rgb(0, 0, 0); fill-opacity: 1; white-space: pre;">1</text></g><g class="xtick"><text text-anchor="middle" x="0" y="434.6322506561679" transform="translate(244.86480023330418,0)" style="font-family: sans-serif; font-size: 11px; fill: rgb(0, 0, 0); fill-opacity: 1; white-space: pre;">2</text></g><g class="xtick"><text text-anchor="middle" x="0" y="434.6322506561679" transform="translate(320.6448002333042,0)" style="font-family: sans-serif; font-size: 11px; fill: rgb(0, 0, 0); fill-opacity: 1; white-space: pre;">3</text></g></g><g class="yaxislayer-above"><path class="ytick ticks crisp" d="M86.46480023330417,0h5" transform="translate(0,406.94858267716535)" style="stroke: rgb(0, 0, 0); stroke-opacity: 1; stroke-width: 1px;"/><path class="ytick ticks crisp" d="M86.46480023330417,0h5" transform="translate(0,316.74858267716536)" style="stroke: rgb(0, 0, 0); stroke-opacity: 1; stroke-width: 1px;"/><path class="ytick ticks crisp" d="M86.46480023330417,0h5" transform="translate(0,226.53858267716532)" style="stroke: rgb(0, 0, 0); stroke-opacity: 1; stroke-width: 1px;"/><path class="ytick ticks crisp" d="M86.46480023330417,0h5" transform="translate(0,136.33858267716533)" style="stroke: rgb(0, 0, 0); stroke-opacity: 1; stroke-width: 1px;"/><g class="ytick"><text text-anchor="end" x="83.26480023330417" y="3.8499999999999996" transform="translate(0,406.94858267716535)" style="font-family: sans-serif; font-size: 11px; fill: rgb(0, 0, 0); fill-opacity: 1; white-space: pre;">-0.2</text></g><g class="ytick"><text text-anchor="end" x="83.26480023330417" y="3.8499999999999996" transform="translate(0,316.74858267716536)" style="font-family: sans-serif; font-size: 11px; fill: rgb(0, 0, 0); fill-opacity: 1; white-space: pre;">-0.1</text></g><g class="ytick"><text text-anchor="end" x="83.26480023330417" y="3.8499999999999996" transform="translate(0,226.53858267716532)" style="font-family: sans-serif; font-size: 11px; fill: rgb(0, 0, 0); fill-opacity: 1; white-space: pre;">0.0</text></g><g class="ytick"><text text-anchor="end" x="83.26480023330417" y="3.8499999999999996" transform="translate(0,136.33858267716533)" style="font-family: sans-serif; font-size: 11px; fill: rgb(0, 0, 0); fill-opacity: 1; white-space: pre;">0.1</text></g></g><g class="overaxes-above"/></g><g class="subplot x2y2"><g class="layer-subplot"><g class="shapelayer"/><g class="imagelayer"/></g><g class="gridlayer"><g class="x2"><path class="x2grid crisp" transform="translate(366.1710965296005,0)" d="M0,63.83858267716535v356.5936679790026" style="stroke: rgb(0, 0, 0); stroke-opacity: 0.1; stroke-width: 0.5px;"/><path class="x2grid crisp" transform="translate(411.64109652960053,0)" d="M0,63.83858267716535v356.5936679790026" style="stroke: rgb(0, 0, 0); stroke-opacity: 0.1; stroke-width: 0.5px;"/><path class="x2grid crisp" transform="translate(457.1210965296005,0)" d="M0,63.83858267716535v356.5936679790026" style="stroke: rgb(0, 0, 0); stroke-opacity: 0.1; stroke-width: 0.5px;"/><path class="x2grid crisp" transform="translate(502.59109652960046,0)" d="M0,63.83858267716535v356.5936679790026" style="stroke: rgb(0, 0, 0); stroke-opacity: 0.1; stroke-width: 0.5px;"/><path class="x2grid crisp" transform="translate(548.0710965296005,0)" d="M0,63.83858267716535v356.5936679790026" style="stroke: rgb(0, 0, 0); stroke-opacity: 0.1; stroke-width: 0.5px;"/><path class="x2grid crisp" transform="translate(593.5410965296005,0)" d="M0,63.83858267716535v356.5936679790026" style="stroke: rgb(0, 0, 0); stroke-opacity: 0.1; stroke-width: 0.5px;"/></g><g class="y2"><path class="y2grid crisp" transform="translate(0,410.33858267716533)" d="M359.3610965296005,0h241.00373286672502" style="stroke: rgb(0, 0, 0); stroke-opacity: 0.1; stroke-width: 0.5px;"/><path class="y2grid crisp" transform="translate(0,348.18858267716536)" d="M359.3610965296005,0h241.00373286672502" style="stroke: rgb(0, 0, 0); stroke-opacity: 0.1; stroke-width: 0.5px;"/><path class="y2grid crisp" transform="translate(0,286.0385826771653)" d="M359.3610965296005,0h241.00373286672502" style="stroke: rgb(0, 0, 0); stroke-opacity: 0.1; stroke-width: 0.5px;"/><path class="y2grid crisp" transform="translate(0,223.88858267716535)" d="M359.3610965296005,0h241.00373286672502" style="stroke: rgb(0, 0, 0); stroke-opacity: 0.1; stroke-width: 0.5px;"/><path class="y2grid crisp" transform="translate(0,161.74858267716536)" d="M359.3610965296005,0h241.00373286672502" style="stroke: rgb(0, 0, 0); stroke-opacity: 0.1; stroke-width: 0.5px;"/><path class="y2grid crisp" transform="translate(0,99.59858267716535)" d="M359.3610965296005,0h241.00373286672502" style="stroke: rgb(0, 0, 0); stroke-opacity: 0.1; stroke-width: 0.5px;"/></g></g><g class="zerolinelayer"/><path class="xlines-below"/><path class="ylines-below"/><g class="overlines-below"/><g class="xaxislayer-below"/><g class="yaxislayer-below"/><g class="overaxes-below"/><g class="plot" transform="translate(359.3610965296005,63.83858267716535)" clip-path="url('#clip82e702x2y2plot')"><g class="scatterlayer mlayer"><g class="trace scatter trace16da19" style="stroke-miterlimit: 2; opacity: 1;"><g class="fills"/><g class="errorbars"/><g class="lines"><path class="js-line" d="M6.82,346.5L7.55,344.38L7.56,342.26L7.58,341.5L8.12,346.49L8.2,346.33L8.22,346.42L9.02,345.62L9.03,345.29L9.12,343.42L9.53,346.14L9.7,345.99L9.72,346L9.85,346.42L10.32,345.41L10.34,345.36L10.47,346L11,341.11L11.08,342.11L11.1,339.72L11.81,346.27L11.93,342.63L11.94,341.5L12.28,338.88L12.43,344.69L12.57,344.59L12.58,345.03L12.85,346.27L13.07,344.52L13.31,344.71L13.32,344.8L13.52,346.32L14.14,345.75L14.16,345.57L14.52,344.52L14.93,345.29L14.95,345.44L15.66,346.3L15.79,346.06L15.81,346.06L16.32,344.67L16.34,344.57L16.46,344.77L16.93,343.09L17.08,344.49L17.1,344.7L18.07,346.13L18.08,346.14L18.57,344.64L18.58,344.49L18.9,342.94L19.14,345.89L19.16,346.14L19.58,342.55L19.84,344.72L19.86,345.01L19.93,346.5L20.25,341.27L20.61,345.24L20.63,345.45L20.92,345.02L21.43,346.28L21.45,346.28L22.43,345.6L22.55,345.87L22.57,345.91L23.36,346.34L23.42,346.27L23.43,346.24L24.74,345.61L24.77,345.67L24.78,345.7L25.54,345.92L25.62,345.81L25.63,345.77L26.24,345.08L26.46,345.6L26.48,345.64L27.4,345.96L27.42,345.95L28.41,345.45L28.62,345.86L28.63,345.92L29.38,344.75L29.57,345.28L29.59,345.36L30.48,346.18L30.53,346.1L30.54,346.07L30.91,346.29L31.16,345.72L31.18,345.71L31.94,345.48L31.95,345.47L32.19,345.37L32.48,345.97L32.5,346.02L32.74,346.36L33.16,345.69L33.18,345.65L33.85,345.92L33.91,346.05L33.92,346.08L34.7,346.42L34.82,346.2L34.83,346.17L36.23,344.99L36.36,345.35L36.38,345.46L36.54,346.07L36.97,345.22L37.11,345.33L37.12,345.35L37.62,346.1L37.64,346.11L38.44,346.11L38.45,346.15L38.94,345.24L38.95,345.18L39.09,344.93L39.65,345.4L39.67,345.42L40.21,346.37L40.53,345.69L40.55,345.66L41.36,344.98L41.62,345.61L41.64,345.63L41.99,346.35L42.35,345.58L42.37,345.55L42.7,346.45L42.96,345.39L42.97,345.35L43.34,345.56L43.53,345.21L43.65,345.64L43.67,345.73L43.81,346.4L43.99,345.66L44.41,345.65L44.43,345.63L44.71,346.39L44.81,345.68L44.82,345.56L45.64,343.63L45.79,343.84L45.81,343.85L46.47,344.55L46.49,344.66L46.82,344.38L47.31,346.32L47.4,345.65L47.41,345.54L47.67,344.51L48.14,345.61L48.16,345.66L48.28,346.44L48.73,344.87L48.75,344.74L48.87,344.18L49.46,344.99L49.47,345.06L49.6,345.46L49.97,344.27L50.19,344.91L50.2,344.83L50.47,343.12L50.96,344.77L50.97,344.87L51.25,344.69L51.64,345.81L51.75,345.19L51.76,345.05L53.02,336.93L53.16,338.31L53.17,338.71L53.31,340.95L53.66,334.69L53.67,334.09L54.28,284.33L54.29,277.86L54.57,10.09L54.69,217.47L54.7,224.42L55.57,337.2L55.7,333.65L55.72,333.04L55.81,330.83L56.31,337.65L56.43,337.21L56.45,337.14L56.54,336.68L56.69,339.26L56.7,339.62L56.89,343.48L57.55,342.69L57.57,342.65L58.11,342.18L58.25,342.82L58.27,342.91L59.02,344.87L59.25,344.45L59.27,344.45L60.18,342.75L60.19,342.63L60.31,342.21L60.87,343.12L60.89,343.14L61.15,342.91L61.28,343.62L61.3,343.7L61.9,345.57L62.27,344.45L62.28,344.45L63.19,346.06L63.51,345.46L63.52,345.45L64.53,345.04L64.54,345.05L64.56,345.06L64.8,345.34L65.21,344.72L65.22,344.72L65.62,344.49L65.71,345.07L65.72,345.17L66.44,346.45L66.75,346.25L66.77,346.26L67.03,345.66L67.3,346.45L67.63,346.02L67.65,346.01L69.32,345.78L69.33,345.73L70.13,345.32L70.24,345.47L70.25,345.49L71.65,345.87L71.66,345.85L71.68,345.81L72.88,345.05L72.91,345.08L72.92,345.11L73.6,345.72L73.74,345.25L73.76,345.18L73.92,344.79L74.35,345.85L74.36,345.82L74.38,346.01L74.54,346.1L74.85,345.43L74.86,345.39L75,345.21L75.5,345.76L75.51,345.76L75.53,345.77L76.26,345.14L76.53,345.68L76.55,345.68L78.52,345.8L78.55,346.08L78.56,346.37L79.18,345.87L79.38,345.93L79.39,345.91L82.9,345.97L82.91,345.95L83.17,345.48L83.71,345.96L83.73,345.97L85.56,346L85.58,346.03L87.06,346.2L87.08,346.08L87.09,346L88.11,346.16L88.13,346.17L89.26,345.7L89.28,345.68L90.31,346.02L90.32,346.01L90.34,346L92.05,346.31L92.07,346.32L93.1,345.97L93.2,346.12L93.22,346.14L94.61,346.26L94.63,346.25L98.1,346.05L98.11,346.06L99.72,345.89L99.74,345.89L101.15,346L101.16,345.97L101.18,345.94L102.22,341.42L102.24,340.09L102.65,259.17L102.99,337.37L103.01,337.68L103.56,345.06L104.04,343.96L104.06,343.98L104.24,343.82L104.53,344.58L104.54,344.6L106.68,345.78L106.71,345.72L106.72,345.69L108.39,346.35L108.41,346.35L112.91,346.25L112.92,346.25L115.41,346.3L115.42,346.29L125.47,346.21L125.49,346.21L132.32,346.4L132.34,346.39L149.83,345.75L149.85,345.74L149.95,345.53L150.3,346.49L150.47,346.21L150.48,346.24L151.1,345.65L151.12,345.4L151.24,342.61L151.33,345.69L151.77,345.71L151.79,345.78L152.29,346.49L152.65,346.38L152.67,346.38L200.32,345.75L200.34,345.74L200.47,345.91L200.84,345.17L200.85,345L201.02,342.39L201.4,345.03L201.41,345.09L202.41,346.35L202.43,346.28L203.16,346.24L203.2,346.27L203.22,346.28L216.69,346.49L216.71,346.48L234.18,346.47" style="vector-effect: non-scaling-stroke; fill: none; stroke: rgb(255, 165, 0); stroke-opacity: 1; stroke-width: 1px; opacity: 1;"/></g><g class="points"/><g class="text"/></g></g></g><g class="overplot"/><path class="xlines-above crisp" d="M358.3610965296005,420.9322506561679H600.3648293963255" style="fill: none; stroke-width: 1px; stroke: rgb(0, 0, 0); stroke-opacity: 1;"/><path class="ylines-above crisp" d="M358.8610965296005,63.83858267716535V420.4322506561679" style="fill: none; stroke-width: 1px; stroke: rgb(0, 0, 0); stroke-opacity: 1;"/><g class="overlines-above"/><g class="xaxislayer-above"><path class="x2tick ticks crisp" d="M0,420.4322506561679v-5" transform="translate(366.1710965296005,0)" style="stroke: rgb(0, 0, 0); stroke-opacity: 1; stroke-width: 1px;"/><path class="x2tick ticks crisp" d="M0,420.4322506561679v-5" transform="translate(411.64109652960053,0)" style="stroke: rgb(0, 0, 0); stroke-opacity: 1; stroke-width: 1px;"/><path class="x2tick ticks crisp" d="M0,420.4322506561679v-5" transform="translate(457.1210965296005,0)" style="stroke: rgb(0, 0, 0); stroke-opacity: 1; stroke-width: 1px;"/><path class="x2tick ticks crisp" d="M0,420.4322506561679v-5" transform="translate(502.59109652960046,0)" style="stroke: rgb(0, 0, 0); stroke-opacity: 1; stroke-width: 1px;"/><path class="x2tick ticks crisp" d="M0,420.4322506561679v-5" transform="translate(548.0710965296005,0)" style="stroke: rgb(0, 0, 0); stroke-opacity: 1; stroke-width: 1px;"/><path class="x2tick ticks crisp" d="M0,420.4322506561679v-5" transform="translate(593.5410965296005,0)" style="stroke: rgb(0, 0, 0); stroke-opacity: 1; stroke-width: 1px;"/><g class="x2tick"><text text-anchor="middle" x="0" y="434.6322506561679" transform="translate(366.1710965296005,0)" style="font-family: sans-serif; font-size: 11px; fill: rgb(0, 0, 0); fill-opacity: 1; white-space: pre;">0</text></g><g class="x2tick"><text text-anchor="middle" x="0" y="434.6322506561679" transform="translate(411.64109652960053,0)" style="font-family: sans-serif; font-size: 11px; fill: rgb(0, 0, 0); fill-opacity: 1; white-space: pre;">1000</text></g><g class="x2tick"><text text-anchor="middle" x="0" y="434.6322506561679" transform="translate(457.1210965296005,0)" style="font-family: sans-serif; font-size: 11px; fill: rgb(0, 0, 0); fill-opacity: 1; white-space: pre;">2000</text></g><g class="x2tick"><text text-anchor="middle" x="0" y="434.6322506561679" transform="translate(502.59109652960046,0)" style="font-family: sans-serif; font-size: 11px; fill: rgb(0, 0, 0); fill-opacity: 1; white-space: pre;">3000</text></g><g class="x2tick"><text text-anchor="middle" x="0" y="434.6322506561679" transform="translate(548.0710965296005,0)" style="font-family: sans-serif; font-size: 11px; fill: rgb(0, 0, 0); fill-opacity: 1; white-space: pre;">4000</text></g><g class="x2tick"><text text-anchor="middle" x="0" y="434.6322506561679" transform="translate(593.5410965296005,0)" style="font-family: sans-serif; font-size: 11px; fill: rgb(0, 0, 0); fill-opacity: 1; white-space: pre;">5000</text></g></g><g class="yaxislayer-above"><path class="y2tick ticks crisp" d="M359.3610965296005,0h5" transform="translate(0,410.33858267716533)" style="stroke: rgb(0, 0, 0); stroke-opacity: 1; stroke-width: 1px;"/><path class="y2tick ticks crisp" d="M359.3610965296005,0h5" transform="translate(0,348.18858267716536)" style="stroke: rgb(0, 0, 0); stroke-opacity: 1; stroke-width: 1px;"/><path class="y2tick ticks crisp" d="M359.3610965296005,0h5" transform="translate(0,286.0385826771653)" style="stroke: rgb(0, 0, 0); stroke-opacity: 1; stroke-width: 1px;"/><path class="y2tick ticks crisp" d="M359.3610965296005,0h5" transform="translate(0,223.88858267716535)" style="stroke: rgb(0, 0, 0); stroke-opacity: 1; stroke-width: 1px;"/><path class="y2tick ticks crisp" d="M359.3610965296005,0h5" transform="translate(0,161.74858267716536)" style="stroke: rgb(0, 0, 0); stroke-opacity: 1; stroke-width: 1px;"/><path class="y2tick ticks crisp" d="M359.3610965296005,0h5" transform="translate(0,99.59858267716535)" style="stroke: rgb(0, 0, 0); stroke-opacity: 1; stroke-width: 1px;"/><g class="y2tick"><text text-anchor="end" x="356.1610965296005" y="3.8499999999999996" transform="translate(0,410.33858267716533)" style="font-family: sans-serif; font-size: 11px; fill: rgb(0, 0, 0); fill-opacity: 1; white-space: pre;">0</text></g><g class="y2tick"><text text-anchor="end" x="356.1610965296005" y="3.8499999999999996" transform="translate(0,348.18858267716536)" style="font-family: sans-serif; font-size: 11px; fill: rgb(0, 0, 0); fill-opacity: 1; white-space: pre;">100</text></g><g class="y2tick"><text text-anchor="end" x="356.1610965296005" y="3.8499999999999996" transform="translate(0,286.0385826771653)" style="font-family: sans-serif; font-size: 11px; fill: rgb(0, 0, 0); fill-opacity: 1; white-space: pre;">200</text></g><g class="y2tick"><text text-anchor="end" x="356.1610965296005" y="3.8499999999999996" transform="translate(0,223.88858267716535)" style="font-family: sans-serif; font-size: 11px; fill: rgb(0, 0, 0); fill-opacity: 1; white-space: pre;">300</text></g><g class="y2tick"><text text-anchor="end" x="356.1610965296005" y="3.8499999999999996" transform="translate(0,161.74858267716536)" style="font-family: sans-serif; font-size: 11px; fill: rgb(0, 0, 0); fill-opacity: 1; white-space: pre;">400</text></g><g class="y2tick"><text text-anchor="end" x="356.1610965296005" y="3.8499999999999996" transform="translate(0,99.59858267716535)" style="font-family: sans-serif; font-size: 11px; fill: rgb(0, 0, 0); fill-opacity: 1; white-space: pre;">500</text></g></g><g class="overaxes-above"/></g></g><g class="polarlayer"/><g class="ternarylayer"/><g class="geolayer"/><g class="funnelarealayer"/><g class="pielayer"/><g class="treemaplayer"/><g class="sunburstlayer"/><g class="glimages"/><defs id="topdefs-82e702"><g class="clips"/><clipPath id="legend82e702"><rect width="73" height="58" x="0" y="0"/></clipPath></defs><g class="layer-above"><g class="imagelayer"/><g class="shapelayer"/></g><g class="infolayer"><g class="legend" pointer-events="all" transform="translate(615.08,60)"><rect class="bg" shape-rendering="crispEdges" width="73" height="58" x="0" y="0" style="stroke: rgb(68, 68, 68); stroke-opacity: 1; fill: rgb(255, 255, 255); fill-opacity: 1; stroke-width: 0px;"/><g class="scrollbox" transform="" clip-path="url('#legend82e702')"><g class="groups" transform=""><g class="traces" transform="translate(0,14.5)" style="opacity: 1;"><text class="legendtext" text-anchor="start" x="40" y="4.680000000000001" style="font-family: 'Open Sans', verdana, arial, sans-serif; font-size: 12px; fill: rgb(42, 63, 95); fill-opacity: 1; white-space: pre;">Time</text><g class="layers" style="opacity: 1;"><g class="legendfill"/><g class="legendlines"><path class="js-line" d="M5,0h30" style="fill: none; stroke: rgb(0, 154, 250); stroke-opacity: 1; stroke-width: 1px;"/></g><g class="legendsymbols"><g class="legendpoints"/></g></g><rect class="legendtoggle" x="0" y="-9.5" width="67.84375" height="19" style="fill: rgb(0, 0, 0); fill-opacity: 0;"/></g></g><g class="groups" transform="translate(0,10)"><g class="traces" transform="translate(0,33.5)" style="opacity: 1;"><text class="legendtext" text-anchor="start" x="40" y="4.680000000000001" style="font-family: 'Open Sans', verdana, arial, sans-serif; font-size: 12px; fill: rgb(42, 63, 95); fill-opacity: 1; white-space: pre;">Freq</text><g class="layers" style="opacity: 1;"><g class="legendfill"/><g class="legendlines"><path class="js-line" d="M5,0h30" style="fill: none; stroke: rgb(255, 165, 0); stroke-opacity: 1; stroke-width: 1px;"/></g><g class="legendsymbols"><g class="legendpoints"/></g></g><rect class="legendtoggle" x="0" y="-9.5" width="67.84375" height="19" style="fill: rgb(0, 0, 0); fill-opacity: 0;"/></g></g></g><rect class="scrollbar" rx="20" ry="3" width="0" height="0" x="0" y="0" style="fill: rgb(128, 139, 164); fill-opacity: 1;"/></g><g class="g-gtitle"/><g class="g-xtitle"><text class="xtitle" x="206.9666666666667" y="462.140625" text-anchor="middle" style="font-family: sans-serif; font-size: 15px; fill: rgb(0, 0, 0); opacity: 1; font-weight: normal; white-space: pre;">t[s]</text></g><g class="g-x2title"><text class="x2title" x="479.862962962963" y="462.140625" text-anchor="middle" style="font-family: sans-serif; font-size: 15px; fill: rgb(0, 0, 0); opacity: 1; font-weight: normal; white-space: pre;">f[hz]</text></g><g class="g-ytitle"/><g class="g-y2title"/></g></svg>